<?xml version="1.0" encoding="UTF-8" standalone="no"?>
<!DOCTYPE svg PUBLIC "-//W3C//DTD SVG 1.1//EN"
 "http://www.w3.org/Graphics/SVG/1.1/DTD/svg11.dtd">
<!-- Generated by graphviz version 12.2.1 (0)
 -->
<!-- Title: services/AssignmentLogic.h Pages: 1 -->
<svg width="316pt" height="138pt"
 viewBox="0.00 0.00 315.88 137.75" xmlns="http://www.w3.org/2000/svg" xmlns:xlink="http://www.w3.org/1999/xlink">
<g id="graph0" class="graph" transform="scale(1 1) rotate(0) translate(4 133.75)">
<title>services/AssignmentLogic.h</title>
<!-- Node1 -->
<g id="Node000001" class="node">
<title>Node1</title>
<g id="a_Node000001"><a xlink:title="Logic for assigning reviewers to submissions based on Max Flow.">
<polygon fill="#999999" stroke="#666666" points="247.25,-129.75 108.25,-129.75 108.25,-110.5 247.25,-110.5 247.25,-129.75"/>
<text text-anchor="middle" x="177.75" y="-116.25" font-family="Helvetica,sans-Serif" font-size="10.00">services/AssignmentLogic.h</text>
</a>
</g>
</g>
<!-- Node2 -->
<g id="Node000002" class="node">
<title>Node2</title>
<g id="a_Node000002"><a xlink:href="_assignment_logic_8cpp.html" target="_top" xlink:title=" ">
<polygon fill="white" stroke="#666666" points="149.5,-74.5 0,-74.5 0,-55.25 149.5,-55.25 149.5,-74.5"/>
<text text-anchor="middle" x="74.75" y="-61" font-family="Helvetica,sans-Serif" font-size="10.00">services/AssignmentLogic.cpp</text>
</a>
</g>
</g>
<!-- Node1&#45;&gt;Node2 -->
<g id="edge1_Node000001_Node000002" class="edge">
<title>Node1&#45;&gt;Node2</title>
<g id="a_edge1_Node000001_Node000002"><a xlink:title=" ">
<path fill="none" stroke="#63b8ff" d="M150.16,-104.86C131.77,-95.36 108.17,-83.15 92.31,-74.95"/>
<polygon fill="#63b8ff" stroke="#63b8ff" points="148.44,-107.91 158.93,-109.4 151.66,-101.7 148.44,-107.91"/>
</a>
</g>
</g>
<!-- Node3 -->
<g id="Node000003" class="node">
<title>Node3</title>
<g id="a_Node000003"><a xlink:href="_conference_app_8cpp.html" target="_top" xlink:title=" ">
<polygon fill="white" stroke="#666666" points="234.12,-19.25 121.38,-19.25 121.38,0 234.12,0 234.12,-19.25"/>
<text text-anchor="middle" x="177.75" y="-5.75" font-family="Helvetica,sans-Serif" font-size="10.00">ui/ConferenceApp.cpp</text>
</a>
</g>
</g>
<!-- Node1&#45;&gt;Node3 -->
<g id="edge2_Node000001_Node000003" class="edge">
<title>Node1&#45;&gt;Node3</title>
<g id="a_edge2_Node000001_Node000003"><a xlink:title=" ">
<path fill="none" stroke="#63b8ff" d="M177.75,-98.78C177.75,-75.05 177.75,-36.89 177.75,-19.63"/>
<polygon fill="#63b8ff" stroke="#63b8ff" points="174.25,-98.73 177.75,-108.73 181.25,-98.73 174.25,-98.73"/>
</a>
</g>
</g>
<!-- Node4 -->
<g id="Node000004" class="node">
<title>Node4</title>
<g id="a_Node000004"><a xlink:href="_conference_app_8h.html" target="_top" xlink:title=" ">
<polygon fill="white" stroke="#666666" points="307.88,-74.5 205.62,-74.5 205.62,-55.25 307.88,-55.25 307.88,-74.5"/>
<text text-anchor="middle" x="256.75" y="-61" font-family="Helvetica,sans-Serif" font-size="10.00">ui/ConferenceApp.h</text>
</a>
</g>
</g>
<!-- Node1&#45;&gt;Node4 -->
<g id="edge3_Node000001_Node000004" class="edge">
<title>Node1&#45;&gt;Node4</title>
<g id="a_edge3_Node000001_Node000004"><a xlink:title=" ">
<path fill="none" stroke="#63b8ff" d="M200.51,-103.78C214.36,-94.45 231.57,-82.85 243.28,-74.95"/>
<polygon fill="#63b8ff" stroke="#63b8ff" points="198.74,-100.75 192.41,-109.25 202.65,-106.56 198.74,-100.75"/>
</a>
</g>
</g>
<!-- Node4&#45;&gt;Node3 -->
<g id="edge5_Node000004_Node000003" class="edge">
<title>Node4&#45;&gt;Node3</title>
<g id="a_edge5_Node000004_Node000003"><a xlink:title=" ">
<path fill="none" stroke="#63b8ff" d="M233.99,-48.53C220.14,-39.2 202.93,-27.6 191.22,-19.7"/>
<polygon fill="#63b8ff" stroke="#63b8ff" points="231.85,-51.31 242.09,-54 235.76,-45.5 231.85,-51.31"/>
</a>
</g>
</g>
<!-- Node5 -->
<g id="Node000005" class="node">
<title>Node5</title>
<g id="a_Node000005"><a xlink:href="main_8cpp.html" target="_top" xlink:title=" ">
<polygon fill="white" stroke="#666666" points="307.62,-19.25 251.88,-19.25 251.88,0 307.62,0 307.62,-19.25"/>
<text text-anchor="middle" x="279.75" y="-5.75" font-family="Helvetica,sans-Serif" font-size="10.00">main.cpp</text>
</a>
</g>
</g>
<!-- Node4&#45;&gt;Node5 -->
<g id="edge4_Node000004_Node000005" class="edge">
<title>Node4&#45;&gt;Node5</title>
<g id="a_edge4_Node000004_Node000005"><a xlink:title=" ">
<path fill="none" stroke="#63b8ff" d="M264.99,-44.79C268.7,-36.21 272.9,-26.48 275.87,-19.61"/>
<polygon fill="#63b8ff" stroke="#63b8ff" points="261.9,-43.12 261.15,-53.69 268.33,-45.9 261.9,-43.12"/>
</a>
</g>
</g>
</g>
</svg>
