<?xml version="1.0" encoding="UTF-8" standalone="no"?>
<!DOCTYPE svg PUBLIC "-//W3C//DTD SVG 1.1//EN"
 "http://www.w3.org/Graphics/SVG/1.1/DTD/svg11.dtd">
<!-- Generated by graphviz version 12.2.1 (0)
 -->
<!-- Title: utils/AssignmentLogic.cpp Pages: 1 -->
<svg width="755pt" height="216pt"
 viewBox="0.00 0.00 755.12 215.50" xmlns="http://www.w3.org/2000/svg" xmlns:xlink="http://www.w3.org/1999/xlink">
<g id="graph0" class="graph" transform="scale(1 1) rotate(0) translate(4 211.5)">
<title>utils/AssignmentLogic.cpp</title>
<!-- Node1 -->
<g id="Node000001" class="node">
<title>Node1</title>
<g id="a_Node000001"><a xlink:title=" ">
<polygon fill="#999999" stroke="#666666" points="458.12,-207.5 327.38,-207.5 327.38,-188.25 458.12,-188.25 458.12,-207.5"/>
<text text-anchor="middle" x="392.75" y="-194" font-family="Helvetica,sans-Serif" font-size="10.00">utils/AssignmentLogic.cpp</text>
</a>
</g>
</g>
<!-- Node2 -->
<g id="Node000002" class="node">
<title>Node2</title>
<g id="a_Node000002"><a xlink:href="_assignment_logic_8h.html" target="_top" xlink:title="Logic for assigning reviewers to submissions based on Max Flow.">
<polygon fill="white" stroke="#666666" points="442.38,-146.62 343.12,-146.62 343.12,-127.38 442.38,-127.38 442.38,-146.62"/>
<text text-anchor="middle" x="392.75" y="-133.12" font-family="Helvetica,sans-Serif" font-size="10.00">AssignmentLogic.h</text>
</a>
</g>
</g>
<!-- Node1&#45;&gt;Node2 -->
<g id="edge1_Node000001_Node000002" class="edge">
<title>Node1&#45;&gt;Node2</title>
<g id="a_edge1_Node000001_Node000002"><a xlink:title=" ">
<path fill="none" stroke="#63b8ff" d="M392.75,-187.93C392.75,-180.15 392.75,-168.58 392.75,-158.53"/>
<polygon fill="#63b8ff" stroke="#63b8ff" points="396.25,-158.54 392.75,-148.54 389.25,-158.54 396.25,-158.54"/>
</a>
</g>
</g>
<!-- Node7 -->
<g id="Node000007" class="node">
<title>Node7</title>
<g id="a_Node000007"><a xlink:title=" ">
<polygon fill="#e0e0e0" stroke="#999999" points="53.5,-19.25 0,-19.25 0,0 53.5,0 53.5,-19.25"/>
<text text-anchor="middle" x="26.75" y="-5.75" font-family="Helvetica,sans-Serif" font-size="10.00">iostream</text>
</a>
</g>
</g>
<!-- Node1&#45;&gt;Node7 -->
<g id="edge30_Node000001_Node000007" class="edge">
<title>Node1&#45;&gt;Node7</title>
<g id="a_edge30_Node000001_Node000007"><a xlink:title=" ">
<path fill="none" stroke="#63b8ff" d="M327,-192.51C249.81,-186.49 127.18,-173.85 86.75,-152.25 51.64,-133.49 41.03,-122.91 26.75,-85.75 19.88,-67.88 20.89,-45.81 23,-30.23"/>
<polygon fill="#63b8ff" stroke="#63b8ff" points="26.38,-31.25 24.55,-20.82 19.47,-30.11 26.38,-31.25"/>
</a>
</g>
</g>
<!-- Node10 -->
<g id="Node000010" class="node">
<title>Node10</title>
<g id="a_Node000010"><a xlink:title=" ">
<polygon fill="#e0e0e0" stroke="#999999" points="133.62,-19.25 77.88,-19.25 77.88,0 133.62,0 133.62,-19.25"/>
<text text-anchor="middle" x="105.75" y="-5.75" font-family="Helvetica,sans-Serif" font-size="10.00">algorithm</text>
</a>
</g>
</g>
<!-- Node1&#45;&gt;Node10 -->
<g id="edge31_Node000001_Node000010" class="edge">
<title>Node1&#45;&gt;Node10</title>
<g id="a_edge31_Node000001_Node000010"><a xlink:title=" ">
<path fill="none" stroke="#63b8ff" d="M334.28,-187.78C241.74,-171.99 68.62,-136.29 35.75,-85.75 28.36,-74.39 29.23,-67.14 35.75,-55.25 43.13,-41.79 56.49,-31.8 69.57,-24.73"/>
<polygon fill="#63b8ff" stroke="#63b8ff" points="71.09,-27.89 78.53,-20.34 68.01,-21.6 71.09,-27.89"/>
</a>
</g>
</g>
<!-- Node14 -->
<g id="Node000014" class="node">
<title>Node14</title>
<g id="a_Node000014"><a xlink:href="create_graphs_8h.html" target="_top" xlink:title=" ">
<polygon fill="white" stroke="#666666" points="553,-152.25 460.5,-152.25 460.5,-121.75 553,-121.75 553,-152.25"/>
<text text-anchor="start" x="468.5" y="-138.75" font-family="Helvetica,sans-Serif" font-size="10.00">../data_structures</text>
<text text-anchor="middle" x="506.75" y="-127.5" font-family="Helvetica,sans-Serif" font-size="10.00">/createGraphs.h</text>
</a>
</g>
</g>
<!-- Node1&#45;&gt;Node14 -->
<g id="edge17_Node000001_Node000014" class="edge">
<title>Node1&#45;&gt;Node14</title>
<g id="a_edge17_Node000001_Node000014"><a xlink:title=" ">
<path fill="none" stroke="#63b8ff" d="M410.06,-187.93C425.55,-179.93 448.8,-167.93 468.62,-157.69"/>
<polygon fill="#63b8ff" stroke="#63b8ff" points="469.99,-160.93 477.27,-153.23 466.78,-154.71 469.99,-160.93"/>
</a>
</g>
</g>
<!-- Node15 -->
<g id="Node000015" class="node">
<title>Node15</title>
<g id="a_Node000015"><a xlink:href="_edmond_karp_8h.html" target="_top" xlink:title="Implementations of the Edmonds&#45;Karp algorithm for calculating maximum flow.">
<polygon fill="white" stroke="#666666" points="275,-146.62 194.5,-146.62 194.5,-127.38 275,-127.38 275,-146.62"/>
<text text-anchor="middle" x="234.75" y="-133.12" font-family="Helvetica,sans-Serif" font-size="10.00">EdmondKarp.h</text>
</a>
</g>
</g>
<!-- Node1&#45;&gt;Node15 -->
<g id="edge23_Node000001_Node000015" class="edge">
<title>Node1&#45;&gt;Node15</title>
<g id="a_edge23_Node000001_Node000015"><a xlink:title=" ">
<path fill="none" stroke="#63b8ff" d="M368.41,-187.8C341.97,-177.95 299.5,-162.13 269.54,-150.96"/>
<polygon fill="#63b8ff" stroke="#63b8ff" points="271.13,-147.82 260.54,-147.61 268.69,-154.38 271.13,-147.82"/>
</a>
</g>
</g>
<!-- Node17 -->
<g id="Node000017" class="node">
<title>Node17</title>
<g id="a_Node000017"><a xlink:title=" ">
<polygon fill="#e0e0e0" stroke="#999999" points="620.25,-146.62 571.25,-146.62 571.25,-127.38 620.25,-127.38 620.25,-146.62"/>
<text text-anchor="middle" x="595.75" y="-133.12" font-family="Helvetica,sans-Serif" font-size="10.00">fstream</text>
</a>
</g>
</g>
<!-- Node1&#45;&gt;Node17 -->
<g id="edge29_Node000001_Node000017" class="edge">
<title>Node1&#45;&gt;Node17</title>
<g id="a_edge29_Node000001_Node000017"><a xlink:title=" ">
<path fill="none" stroke="#63b8ff" d="M433.51,-187.79C468.04,-179.7 518.65,-166.89 561.75,-152.25 562.73,-151.92 563.72,-151.57 564.72,-151.21"/>
<polygon fill="#63b8ff" stroke="#63b8ff" points="565.96,-154.48 574.02,-147.6 563.43,-147.96 565.96,-154.48"/>
</a>
</g>
</g>
<!-- Node18 -->
<g id="Node000018" class="node">
<title>Node18</title>
<g id="a_Node000018"><a xlink:title=" ">
<polygon fill="#e0e0e0" stroke="#999999" points="675.25,-146.62 638.25,-146.62 638.25,-127.38 675.25,-127.38 675.25,-146.62"/>
<text text-anchor="middle" x="656.75" y="-133.12" font-family="Helvetica,sans-Serif" font-size="10.00">tuple</text>
</a>
</g>
</g>
<!-- Node1&#45;&gt;Node18 -->
<g id="edge32_Node000001_Node000018" class="edge">
<title>Node1&#45;&gt;Node18</title>
<g id="a_edge32_Node000001_Node000018"><a xlink:title=" ">
<path fill="none" stroke="#63b8ff" d="M458.49,-189.87C506.84,-183.43 573.62,-171.85 629.75,-152.25 630.24,-152.08 630.73,-151.9 631.22,-151.72"/>
<polygon fill="#63b8ff" stroke="#63b8ff" points="632.35,-155.04 640.02,-147.73 629.47,-148.67 632.35,-155.04"/>
</a>
</g>
</g>
<!-- Node3 -->
<g id="Node000003" class="node">
<title>Node3</title>
<g id="a_Node000003"><a xlink:title=" ">
<polygon fill="#e0e0e0" stroke="#999999" points="395.25,-19.25 352.25,-19.25 352.25,0 395.25,0 395.25,-19.25"/>
<text text-anchor="middle" x="373.75" y="-5.75" font-family="Helvetica,sans-Serif" font-size="10.00">vector</text>
</a>
</g>
</g>
<!-- Node2&#45;&gt;Node3 -->
<g id="edge2_Node000002_Node000003" class="edge">
<title>Node2&#45;&gt;Node3</title>
<g id="a_edge2_Node000002_Node000003"><a xlink:title=" ">
<path fill="none" stroke="#63b8ff" d="M391.38,-126.98C388.34,-106.92 380.96,-58.2 376.77,-30.58"/>
<polygon fill="#63b8ff" stroke="#63b8ff" points="380.29,-30.42 375.33,-21.06 373.37,-31.47 380.29,-30.42"/>
</a>
</g>
</g>
<!-- Node4 -->
<g id="Node000004" class="node">
<title>Node4</title>
<g id="a_Node000004"><a xlink:title=" ">
<polygon fill="#e0e0e0" stroke="#999999" points="562.75,-19.25 522.75,-19.25 522.75,0 562.75,0 562.75,-19.25"/>
<text text-anchor="middle" x="542.75" y="-5.75" font-family="Helvetica,sans-Serif" font-size="10.00">string</text>
</a>
</g>
</g>
<!-- Node2&#45;&gt;Node4 -->
<g id="edge3_Node000002_Node000004" class="edge">
<title>Node2&#45;&gt;Node4</title>
<g id="a_edge3_Node000002_Node000004"><a xlink:title=" ">
<path fill="none" stroke="#63b8ff" d="M397.07,-127.12C405.31,-110.94 424.72,-76.41 449.75,-55.25 468.04,-39.79 492.61,-28.3 511.9,-20.86"/>
<polygon fill="#63b8ff" stroke="#63b8ff" points="512.96,-24.2 521.14,-17.46 510.54,-17.63 512.96,-24.2"/>
</a>
</g>
</g>
<!-- Node5 -->
<g id="Node000005" class="node">
<title>Node5</title>
<g id="a_Node000005"><a xlink:title=" ">
<polygon fill="#e0e0e0" stroke="#999999" points="216.75,-80.12 158.75,-80.12 158.75,-60.88 216.75,-60.88 216.75,-80.12"/>
<text text-anchor="middle" x="187.75" y="-66.62" font-family="Helvetica,sans-Serif" font-size="10.00">functional</text>
</a>
</g>
</g>
<!-- Node2&#45;&gt;Node5 -->
<g id="edge4_Node000002_Node000005" class="edge">
<title>Node2&#45;&gt;Node5</title>
<g id="a_edge4_Node000002_Node000005"><a xlink:title=" ">
<path fill="none" stroke="#63b8ff" d="M360.22,-126.91C326.42,-117.29 272.08,-101.39 225.75,-85.75 224.4,-85.29 223.02,-84.82 221.63,-84.34"/>
<polygon fill="#63b8ff" stroke="#63b8ff" points="222.99,-81.1 212.4,-81 220.62,-87.69 222.99,-81.1"/>
</a>
</g>
</g>
<!-- Node6 -->
<g id="Node000006" class="node">
<title>Node6</title>
<g id="a_Node000006"><a xlink:href="_graph_8h.html" target="_top" xlink:title=" ">
<polygon fill="white" stroke="#666666" points="327,-85.75 234.5,-85.75 234.5,-55.25 327,-55.25 327,-85.75"/>
<text text-anchor="start" x="242.5" y="-72.25" font-family="Helvetica,sans-Serif" font-size="10.00">../data_structures</text>
<text text-anchor="middle" x="280.75" y="-61" font-family="Helvetica,sans-Serif" font-size="10.00">/Graph.h</text>
</a>
</g>
</g>
<!-- Node2&#45;&gt;Node6 -->
<g id="edge5_Node000002_Node000006" class="edge">
<title>Node2&#45;&gt;Node6</title>
<g id="a_edge5_Node000002_Node000006"><a xlink:title=" ">
<path fill="none" stroke="#63b8ff" d="M377.18,-127.03C361.44,-117.97 336.59,-103.66 316.06,-91.83"/>
<polygon fill="#63b8ff" stroke="#63b8ff" points="317.81,-88.8 307.4,-86.85 314.32,-94.87 317.81,-88.8"/>
</a>
</g>
</g>
<!-- Node11 -->
<g id="Node000011" class="node">
<title>Node11</title>
<g id="a_Node000011"><a xlink:href="_submission_8h.html" target="_top" xlink:title=" ">
<polygon fill="white" stroke="#666666" points="534.38,-80.12 459.12,-80.12 459.12,-60.88 534.38,-60.88 534.38,-80.12"/>
<text text-anchor="middle" x="496.75" y="-66.62" font-family="Helvetica,sans-Serif" font-size="10.00">Submission.h</text>
</a>
</g>
</g>
<!-- Node2&#45;&gt;Node11 -->
<g id="edge11_Node000002_Node000011" class="edge">
<title>Node2&#45;&gt;Node11</title>
<g id="a_edge11_Node000002_Node000011"><a xlink:title=" ">
<path fill="none" stroke="#63b8ff" d="M407.21,-127.03C424.04,-116.6 452.09,-99.2 472.31,-86.65"/>
<polygon fill="#63b8ff" stroke="#63b8ff" points="474.14,-89.64 480.79,-81.4 470.45,-83.69 474.14,-89.64"/>
</a>
</g>
</g>
<!-- Node12 -->
<g id="Node000012" class="node">
<title>Node12</title>
<g id="a_Node000012"><a xlink:href="_reviewer_8h.html" target="_top" xlink:title=" ">
<polygon fill="white" stroke="#666666" points="747.12,-80.12 682.38,-80.12 682.38,-60.88 747.12,-60.88 747.12,-80.12"/>
<text text-anchor="middle" x="714.75" y="-66.62" font-family="Helvetica,sans-Serif" font-size="10.00">Reviewer.h</text>
</a>
</g>
</g>
<!-- Node2&#45;&gt;Node12 -->
<g id="edge13_Node000002_Node000012" class="edge">
<title>Node2&#45;&gt;Node12</title>
<g id="a_edge13_Node000002_Node000012"><a xlink:title=" ">
<path fill="none" stroke="#63b8ff" d="M429.2,-126.91C436.64,-125.13 444.44,-123.33 451.75,-121.75 492.92,-112.85 607.59,-91.37 671.08,-79.58"/>
<polygon fill="#63b8ff" stroke="#63b8ff" points="671.62,-83.04 680.82,-77.77 670.35,-76.16 671.62,-83.04"/>
</a>
</g>
</g>
<!-- Node13 -->
<g id="Node000013" class="node">
<title>Node13</title>
<g id="a_Node000013"><a xlink:href="_parameters_8h.html" target="_top" xlink:title=" ">
<polygon fill="white" stroke="#666666" points="627,-80.12 552.5,-80.12 552.5,-60.88 627,-60.88 627,-80.12"/>
<text text-anchor="middle" x="589.75" y="-66.62" font-family="Helvetica,sans-Serif" font-size="10.00">Parameters.h</text>
</a>
</g>
</g>
<!-- Node2&#45;&gt;Node13 -->
<g id="edge15_Node000002_Node000013" class="edge">
<title>Node2&#45;&gt;Node13</title>
<g id="a_edge15_Node000002_Node000013"><a xlink:title=" ">
<path fill="none" stroke="#63b8ff" d="M420.56,-126.9C454.73,-115.71 512.89,-96.66 551.32,-84.08"/>
<polygon fill="#63b8ff" stroke="#63b8ff" points="552.23,-87.47 560.65,-81.03 550.05,-80.81 552.23,-87.47"/>
</a>
</g>
</g>
<!-- Node6&#45;&gt;Node3 -->
<g id="edge7_Node000006_Node000003" class="edge">
<title>Node6&#45;&gt;Node3</title>
<g id="a_edge7_Node000006_Node000003"><a xlink:title=" ">
<path fill="none" stroke="#63b8ff" d="M303.74,-54.95C317.76,-46.07 335.66,-34.74 349.85,-25.76"/>
<polygon fill="#63b8ff" stroke="#63b8ff" points="351.56,-28.82 358.13,-20.51 347.81,-22.9 351.56,-28.82"/>
</a>
</g>
</g>
<!-- Node6&#45;&gt;Node7 -->
<g id="edge6_Node000006_Node000007" class="edge">
<title>Node6&#45;&gt;Node7</title>
<g id="a_edge6_Node000006_Node000007"><a xlink:title=" ">
<path fill="none" stroke="#63b8ff" d="M234.27,-57.34C231.39,-56.62 228.53,-55.92 225.75,-55.25 169.99,-41.78 105.11,-27.49 64.98,-18.81"/>
<polygon fill="#63b8ff" stroke="#63b8ff" points="65.85,-15.41 55.33,-16.73 64.37,-22.26 65.85,-15.41"/>
</a>
</g>
</g>
<!-- Node8 -->
<g id="Node000008" class="node">
<title>Node8</title>
<g id="a_Node000008"><a xlink:title=" ">
<polygon fill="#e0e0e0" stroke="#999999" points="196.88,-19.25 154.62,-19.25 154.62,0 196.88,0 196.88,-19.25"/>
<text text-anchor="middle" x="175.75" y="-5.75" font-family="Helvetica,sans-Serif" font-size="10.00">queue</text>
</a>
</g>
</g>
<!-- Node6&#45;&gt;Node8 -->
<g id="edge8_Node000006_Node000008" class="edge">
<title>Node6&#45;&gt;Node8</title>
<g id="a_edge8_Node000006_Node000008"><a xlink:title=" ">
<path fill="none" stroke="#63b8ff" d="M254.52,-54.8C238.38,-45.74 217.77,-34.19 201.68,-25.16"/>
<polygon fill="#63b8ff" stroke="#63b8ff" points="203.61,-22.23 193.17,-20.39 200.18,-28.34 203.61,-22.23"/>
</a>
</g>
</g>
<!-- Node9 -->
<g id="Node000009" class="node">
<title>Node9</title>
<g id="a_Node000009"><a xlink:title=" ">
<polygon fill="#e0e0e0" stroke="#999999" points="300.38,-19.25 261.12,-19.25 261.12,0 300.38,0 300.38,-19.25"/>
<text text-anchor="middle" x="280.75" y="-5.75" font-family="Helvetica,sans-Serif" font-size="10.00">limits</text>
</a>
</g>
</g>
<!-- Node6&#45;&gt;Node9 -->
<g id="edge9_Node000006_Node000009" class="edge">
<title>Node6&#45;&gt;Node9</title>
<g id="a_edge9_Node000006_Node000009"><a xlink:title=" ">
<path fill="none" stroke="#63b8ff" d="M280.75,-54.95C280.75,-47.71 280.75,-38.84 280.75,-30.94"/>
<polygon fill="#63b8ff" stroke="#63b8ff" points="284.25,-31.21 280.75,-21.21 277.25,-31.21 284.25,-31.21"/>
</a>
</g>
</g>
<!-- Node6&#45;&gt;Node10 -->
<g id="edge10_Node000006_Node000010" class="edge">
<title>Node6&#45;&gt;Node10</title>
<g id="a_edge10_Node000006_Node000010"><a xlink:title=" ">
<path fill="none" stroke="#63b8ff" d="M237.04,-54.8C208.3,-45.13 171.07,-32.6 143.6,-23.36"/>
<polygon fill="#63b8ff" stroke="#63b8ff" points="144.87,-20.09 134.28,-20.22 142.64,-26.73 144.87,-20.09"/>
</a>
</g>
</g>
<!-- Node11&#45;&gt;Node4 -->
<g id="edge12_Node000011_Node000004" class="edge">
<title>Node11&#45;&gt;Node4</title>
<g id="a_edge12_Node000011_Node000004"><a xlink:title=" ">
<path fill="none" stroke="#63b8ff" d="M503.74,-60.56C510.36,-52.09 520.49,-39.12 528.77,-28.52"/>
<polygon fill="#63b8ff" stroke="#63b8ff" points="531.37,-30.88 534.77,-20.84 525.85,-26.57 531.37,-30.88"/>
</a>
</g>
</g>
<!-- Node12&#45;&gt;Node4 -->
<g id="edge14_Node000012_Node000004" class="edge">
<title>Node12&#45;&gt;Node4</title>
<g id="a_edge14_Node000012_Node000004"><a xlink:title=" ">
<path fill="none" stroke="#63b8ff" d="M688.25,-60.43C657.4,-49.87 606.51,-32.45 573.82,-21.26"/>
<polygon fill="#63b8ff" stroke="#63b8ff" points="575.11,-18 564.52,-18.08 572.84,-24.63 575.11,-18"/>
</a>
</g>
</g>
<!-- Node13&#45;&gt;Node4 -->
<g id="edge16_Node000013_Node000004" class="edge">
<title>Node13&#45;&gt;Node4</title>
<g id="a_edge16_Node000013_Node000004"><a xlink:title=" ">
<path fill="none" stroke="#63b8ff" d="M582.61,-60.56C575.85,-52.09 565.5,-39.12 557.04,-28.52"/>
<polygon fill="#63b8ff" stroke="#63b8ff" points="559.87,-26.47 550.9,-20.83 554.4,-30.83 559.87,-26.47"/>
</a>
</g>
</g>
<!-- Node14&#45;&gt;Node3 -->
<g id="edge22_Node000014_Node000003" class="edge">
<title>Node14&#45;&gt;Node3</title>
<g id="a_edge22_Node000014_Node000003"><a xlink:title=" ">
<path fill="none" stroke="#63b8ff" d="M553.27,-123.86C586.11,-114.25 625.95,-100.09 635.75,-85.75 643.4,-74.56 644.49,-65.61 635.75,-55.25 621.08,-37.87 473.6,-20.79 406.58,-13.86"/>
<polygon fill="#63b8ff" stroke="#63b8ff" points="407.24,-10.41 396.93,-12.88 406.53,-17.37 407.24,-10.41"/>
</a>
</g>
</g>
<!-- Node14&#45;&gt;Node6 -->
<g id="edge18_Node000014_Node000006" class="edge">
<title>Node14&#45;&gt;Node6</title>
<g id="a_edge18_Node000014_Node000006"><a xlink:title=" ">
<path fill="none" stroke="#63b8ff" d="M460.2,-122.71C424.8,-112.61 375.9,-98.66 338.09,-87.87"/>
<polygon fill="#63b8ff" stroke="#63b8ff" points="339.27,-84.56 328.7,-85.18 337.35,-91.29 339.27,-84.56"/>
</a>
</g>
</g>
<!-- Node14&#45;&gt;Node11 -->
<g id="edge19_Node000014_Node000011" class="edge">
<title>Node14&#45;&gt;Node11</title>
<g id="a_edge19_Node000014_Node000011"><a xlink:title=" ">
<path fill="none" stroke="#63b8ff" d="M504.48,-121.36C503.12,-112.58 501.37,-101.27 499.87,-91.65"/>
<polygon fill="#63b8ff" stroke="#63b8ff" points="503.34,-91.16 498.35,-81.82 496.42,-92.24 503.34,-91.16"/>
</a>
</g>
</g>
<!-- Node14&#45;&gt;Node12 -->
<g id="edge20_Node000014_Node000012" class="edge">
<title>Node14&#45;&gt;Node12</title>
<g id="a_edge20_Node000014_Node000012"><a xlink:title=" ">
<path fill="none" stroke="#63b8ff" d="M553.43,-121.52C589.96,-110.2 640.21,-94.61 674.88,-83.86"/>
<polygon fill="#63b8ff" stroke="#63b8ff" points="675.59,-87.31 684.1,-81 673.51,-80.62 675.59,-87.31"/>
</a>
</g>
</g>
<!-- Node14&#45;&gt;Node13 -->
<g id="edge21_Node000014_Node000013" class="edge">
<title>Node14&#45;&gt;Node13</title>
<g id="a_edge21_Node000014_Node000013"><a xlink:title=" ">
<path fill="none" stroke="#63b8ff" d="M525.58,-121.36C538.67,-111.19 556.09,-97.66 569.48,-87.25"/>
<polygon fill="#63b8ff" stroke="#63b8ff" points="571.45,-90.15 577.2,-81.25 567.16,-84.62 571.45,-90.15"/>
</a>
</g>
</g>
<!-- Node15&#45;&gt;Node3 -->
<g id="edge26_Node000015_Node000003" class="edge">
<title>Node15&#45;&gt;Node3</title>
<g id="a_edge26_Node000015_Node000003"><a xlink:title=" ">
<path fill="none" stroke="#63b8ff" d="M264.34,-126.97C286.29,-119.04 315.74,-105.63 335.75,-85.75 351.44,-70.17 361.85,-46.77 367.75,-30.23"/>
<polygon fill="#63b8ff" stroke="#63b8ff" points="370.97,-31.64 370.78,-21.05 364.32,-29.45 370.97,-31.64"/>
</a>
</g>
</g>
<!-- Node15&#45;&gt;Node5 -->
<g id="edge28_Node000015_Node000005" class="edge">
<title>Node15&#45;&gt;Node5</title>
<g id="a_edge28_Node000015_Node000005"><a xlink:title=" ">
<path fill="none" stroke="#63b8ff" d="M228.21,-127.03C221.2,-117.4 209.87,-101.85 200.97,-89.65"/>
<polygon fill="#63b8ff" stroke="#63b8ff" points="203.84,-87.64 195.12,-81.62 198.18,-91.76 203.84,-87.64"/>
</a>
</g>
</g>
<!-- Node15&#45;&gt;Node6 -->
<g id="edge24_Node000015_Node000006" class="edge">
<title>Node15&#45;&gt;Node6</title>
<g id="a_edge24_Node000015_Node000006"><a xlink:title=" ">
<path fill="none" stroke="#63b8ff" d="M241.15,-127.03C247.03,-118.79 256.01,-106.19 263.93,-95.08"/>
<polygon fill="#63b8ff" stroke="#63b8ff" points="266.68,-97.25 269.64,-87.08 260.98,-93.19 266.68,-97.25"/>
</a>
</g>
</g>
<!-- Node15&#45;&gt;Node8 -->
<g id="edge25_Node000015_Node000008" class="edge">
<title>Node15&#45;&gt;Node8</title>
<g id="a_edge25_Node000015_Node000008"><a xlink:title=" ">
<path fill="none" stroke="#63b8ff" d="M204.69,-126.91C185.26,-119.3 161.47,-106.3 149.75,-85.75 139.32,-67.46 150.55,-44.28 161.34,-28.55"/>
<polygon fill="#63b8ff" stroke="#63b8ff" points="164.07,-30.73 167.23,-20.62 158.45,-26.56 164.07,-30.73"/>
</a>
</g>
</g>
<!-- Node16 -->
<g id="Node000016" class="node">
<title>Node16</title>
<g id="a_Node000016"><a xlink:title=" ">
<polygon fill="#e0e0e0" stroke="#999999" points="103.12,-80.12 44.38,-80.12 44.38,-60.88 103.12,-60.88 103.12,-80.12"/>
<text text-anchor="middle" x="73.75" y="-66.62" font-family="Helvetica,sans-Serif" font-size="10.00">stdexcept</text>
</a>
</g>
</g>
<!-- Node15&#45;&gt;Node16 -->
<g id="edge27_Node000015_Node000016" class="edge">
<title>Node15&#45;&gt;Node16</title>
<g id="a_edge27_Node000015_Node000016"><a xlink:title=" ">
<path fill="none" stroke="#63b8ff" d="M212.02,-126.9C184.58,-115.9 138.19,-97.31 106.79,-84.74"/>
<polygon fill="#63b8ff" stroke="#63b8ff" points="108.35,-81.59 97.77,-81.12 105.75,-88.09 108.35,-81.59"/>
</a>
</g>
</g>
</g>
</svg>
