<?xml version="1.0" encoding="UTF-8" standalone="no"?>
<!DOCTYPE svg PUBLIC "-//W3C//DTD SVG 1.1//EN"
 "http://www.w3.org/Graphics/SVG/1.1/DTD/svg11.dtd">
<!-- Generated by graphviz version 12.2.1 (0)
 -->
<!-- Title: services/AssignmentLogic.h Pages: 1 -->
<svg width="782pt" height="138pt"
 viewBox="0.00 0.00 781.62 137.75" xmlns="http://www.w3.org/2000/svg" xmlns:xlink="http://www.w3.org/1999/xlink">
<g id="graph0" class="graph" transform="scale(1 1) rotate(0) translate(4 133.75)">
<title>services/AssignmentLogic.h</title>
<!-- Node1 -->
<g id="Node000001" class="node">
<title>Node1</title>
<g id="a_Node000001"><a xlink:title="Logic for assigning reviewers to submissions based on Max Flow.">
<polygon fill="#999999" stroke="#666666" points="366,-129.75 227,-129.75 227,-110.5 366,-110.5 366,-129.75"/>
<text text-anchor="middle" x="296.5" y="-116.25" font-family="Helvetica,sans-Serif" font-size="10.00">services/AssignmentLogic.h</text>
</a>
</g>
</g>
<!-- Node2 -->
<g id="Node000002" class="node">
<title>Node2</title>
<g id="a_Node000002"><a xlink:title=" ">
<polygon fill="#e0e0e0" stroke="#999999" points="510,-19.25 467,-19.25 467,0 510,0 510,-19.25"/>
<text text-anchor="middle" x="488.5" y="-5.75" font-family="Helvetica,sans-Serif" font-size="10.00">vector</text>
</a>
</g>
</g>
<!-- Node1&#45;&gt;Node2 -->
<g id="edge1_Node000001_Node000002" class="edge">
<title>Node1&#45;&gt;Node2</title>
<g id="a_edge1_Node000001_Node000002"><a xlink:title=" ">
<path fill="none" stroke="#63b8ff" d="M366.22,-110.12C410.86,-102.88 463.21,-91.15 478.5,-74.5 489.2,-62.85 491.15,-44.68 490.74,-30.69"/>
<polygon fill="#63b8ff" stroke="#63b8ff" points="494.24,-30.55 490,-20.84 487.26,-31.07 494.24,-30.55"/>
</a>
</g>
</g>
<!-- Node3 -->
<g id="Node000003" class="node">
<title>Node3</title>
<g id="a_Node000003"><a xlink:title=" ">
<polygon fill="#e0e0e0" stroke="#999999" points="237.5,-19.25 197.5,-19.25 197.5,0 237.5,0 237.5,-19.25"/>
<text text-anchor="middle" x="217.5" y="-5.75" font-family="Helvetica,sans-Serif" font-size="10.00">string</text>
</a>
</g>
</g>
<!-- Node1&#45;&gt;Node3 -->
<g id="edge2_Node000001_Node000003" class="edge">
<title>Node1&#45;&gt;Node3</title>
<g id="a_edge2_Node000001_Node000003"><a xlink:title=" ">
<path fill="none" stroke="#63b8ff" d="M226.53,-113.93C200.21,-108.16 172.76,-96.74 156.5,-74.5 142.99,-56.01 166,-37.35 187.52,-25.02"/>
<polygon fill="#63b8ff" stroke="#63b8ff" points="189,-28.2 196.15,-20.38 185.69,-22.03 189,-28.2"/>
</a>
</g>
</g>
<!-- Node4 -->
<g id="Node000004" class="node">
<title>Node4</title>
<g id="a_Node000004"><a xlink:title=" ">
<polygon fill="#e0e0e0" stroke="#999999" points="223.5,-74.5 165.5,-74.5 165.5,-55.25 223.5,-55.25 223.5,-74.5"/>
<text text-anchor="middle" x="194.5" y="-61" font-family="Helvetica,sans-Serif" font-size="10.00">functional</text>
</a>
</g>
</g>
<!-- Node1&#45;&gt;Node4 -->
<g id="edge3_Node000001_Node000004" class="edge">
<title>Node1&#45;&gt;Node4</title>
<g id="a_edge3_Node000001_Node000004"><a xlink:title=" ">
<path fill="none" stroke="#63b8ff" d="M279.2,-110.09C263.52,-101.91 240.15,-89.71 221.92,-80.19"/>
<polygon fill="#63b8ff" stroke="#63b8ff" points="223.71,-77.18 213.23,-75.65 220.47,-83.38 223.71,-77.18"/>
</a>
</g>
</g>
<!-- Node5 -->
<g id="Node000005" class="node">
<title>Node5</title>
<g id="a_Node000005"><a xlink:href="_graph_8h.html" target="_top" xlink:title=" ">
<polygon fill="white" stroke="#666666" points="665,-74.5 544,-74.5 544,-55.25 665,-55.25 665,-74.5"/>
<text text-anchor="middle" x="604.5" y="-61" font-family="Helvetica,sans-Serif" font-size="10.00">data_structures/Graph.h</text>
</a>
</g>
</g>
<!-- Node1&#45;&gt;Node5 -->
<g id="edge4_Node000001_Node000005" class="edge">
<title>Node1&#45;&gt;Node5</title>
<g id="a_edge4_Node000001_Node000005"><a xlink:title=" ">
<path fill="none" stroke="#63b8ff" d="M349.1,-110.03C402.06,-100.87 483.83,-86.74 540.52,-76.94"/>
<polygon fill="#63b8ff" stroke="#63b8ff" points="541.11,-80.39 550.37,-75.23 539.92,-73.49 541.11,-80.39"/>
</a>
</g>
</g>
<!-- Node10 -->
<g id="Node000010" class="node">
<title>Node10</title>
<g id="a_Node000010"><a xlink:href="_submission_8h.html" target="_top" xlink:title=" ">
<polygon fill="white" stroke="#666666" points="351.38,-74.5 241.62,-74.5 241.62,-55.25 351.38,-55.25 351.38,-74.5"/>
<text text-anchor="middle" x="296.5" y="-61" font-family="Helvetica,sans-Serif" font-size="10.00">models/Submission.h</text>
</a>
</g>
</g>
<!-- Node1&#45;&gt;Node10 -->
<g id="edge10_Node000001_Node000010" class="edge">
<title>Node1&#45;&gt;Node10</title>
<g id="a_edge10_Node000001_Node000010"><a xlink:title=" ">
<path fill="none" stroke="#63b8ff" d="M296.5,-110.33C296.5,-103.82 296.5,-94.67 296.5,-86.37"/>
<polygon fill="#63b8ff" stroke="#63b8ff" points="300,-86.37 296.5,-76.37 293,-86.37 300,-86.37"/>
</a>
</g>
</g>
<!-- Node11 -->
<g id="Node000011" class="node">
<title>Node11</title>
<g id="a_Node000011"><a xlink:href="_reviewer_8h.html" target="_top" xlink:title=" ">
<polygon fill="white" stroke="#666666" points="469.12,-74.5 369.88,-74.5 369.88,-55.25 469.12,-55.25 469.12,-74.5"/>
<text text-anchor="middle" x="419.5" y="-61" font-family="Helvetica,sans-Serif" font-size="10.00">models/Reviewer.h</text>
</a>
</g>
</g>
<!-- Node1&#45;&gt;Node11 -->
<g id="edge12_Node000001_Node000011" class="edge">
<title>Node1&#45;&gt;Node11</title>
<g id="a_edge12_Node000001_Node000011"><a xlink:title=" ">
<path fill="none" stroke="#63b8ff" d="M317.37,-110.09C336.8,-101.68 366.04,-89.02 388.26,-79.4"/>
<polygon fill="#63b8ff" stroke="#63b8ff" points="389.36,-82.74 397.14,-75.55 386.58,-76.31 389.36,-82.74"/>
</a>
</g>
</g>
<!-- Node12 -->
<g id="Node000012" class="node">
<title>Node12</title>
<g id="a_Node000012"><a xlink:href="_parameters_8h.html" target="_top" xlink:title=" ">
<polygon fill="white" stroke="#666666" points="109,-74.5 0,-74.5 0,-55.25 109,-55.25 109,-74.5"/>
<text text-anchor="middle" x="54.5" y="-61" font-family="Helvetica,sans-Serif" font-size="10.00">models/Parameters.h</text>
</a>
</g>
</g>
<!-- Node1&#45;&gt;Node12 -->
<g id="edge14_Node000001_Node000012" class="edge">
<title>Node1&#45;&gt;Node12</title>
<g id="a_edge14_Node000001_Node000012"><a xlink:title=" ">
<path fill="none" stroke="#63b8ff" d="M255.17,-110.03C214.19,-101.01 151.26,-87.17 106.82,-77.39"/>
<polygon fill="#63b8ff" stroke="#63b8ff" points="107.65,-73.99 97.13,-75.26 106.15,-80.82 107.65,-73.99"/>
</a>
</g>
</g>
<!-- Node5&#45;&gt;Node2 -->
<g id="edge6_Node000005_Node000002" class="edge">
<title>Node5&#45;&gt;Node2</title>
<g id="a_edge6_Node000005_Node000002"><a xlink:title=" ">
<path fill="none" stroke="#63b8ff" d="M584.82,-54.84C566.66,-46.5 539.42,-34 518.53,-24.41"/>
<polygon fill="#63b8ff" stroke="#63b8ff" points="520.2,-21.33 509.65,-20.33 517.28,-27.69 520.2,-21.33"/>
</a>
</g>
</g>
<!-- Node6 -->
<g id="Node000006" class="node">
<title>Node6</title>
<g id="a_Node000006"><a xlink:title=" ">
<polygon fill="#e0e0e0" stroke="#999999" points="713.25,-19.25 659.75,-19.25 659.75,0 713.25,0 713.25,-19.25"/>
<text text-anchor="middle" x="686.5" y="-5.75" font-family="Helvetica,sans-Serif" font-size="10.00">iostream</text>
</a>
</g>
</g>
<!-- Node5&#45;&gt;Node6 -->
<g id="edge5_Node000005_Node000006" class="edge">
<title>Node5&#45;&gt;Node6</title>
<g id="a_edge5_Node000005_Node000006"><a xlink:title=" ">
<path fill="none" stroke="#63b8ff" d="M618.41,-54.84C630.66,-46.89 648.75,-35.14 663.21,-25.75"/>
<polygon fill="#63b8ff" stroke="#63b8ff" points="664.77,-28.91 671.25,-20.53 660.96,-23.04 664.77,-28.91"/>
</a>
</g>
</g>
<!-- Node7 -->
<g id="Node000007" class="node">
<title>Node7</title>
<g id="a_Node000007"><a xlink:title=" ">
<polygon fill="#e0e0e0" stroke="#999999" points="773.62,-19.25 731.38,-19.25 731.38,0 773.62,0 773.62,-19.25"/>
<text text-anchor="middle" x="752.5" y="-5.75" font-family="Helvetica,sans-Serif" font-size="10.00">queue</text>
</a>
</g>
</g>
<!-- Node5&#45;&gt;Node7 -->
<g id="edge7_Node000005_Node000007" class="edge">
<title>Node5&#45;&gt;Node7</title>
<g id="a_edge7_Node000005_Node000007"><a xlink:title=" ">
<path fill="none" stroke="#63b8ff" d="M629.61,-54.84C654.69,-45.82 693.33,-31.92 720.57,-22.11"/>
<polygon fill="#63b8ff" stroke="#63b8ff" points="721.47,-25.51 729.7,-18.83 719.1,-18.92 721.47,-25.51"/>
</a>
</g>
</g>
<!-- Node8 -->
<g id="Node000008" class="node">
<title>Node8</title>
<g id="a_Node000008"><a xlink:title=" ">
<polygon fill="#e0e0e0" stroke="#999999" points="567.12,-19.25 527.88,-19.25 527.88,0 567.12,0 567.12,-19.25"/>
<text text-anchor="middle" x="547.5" y="-5.75" font-family="Helvetica,sans-Serif" font-size="10.00">limits</text>
</a>
</g>
</g>
<!-- Node5&#45;&gt;Node8 -->
<g id="edge8_Node000005_Node000008" class="edge">
<title>Node5&#45;&gt;Node8</title>
<g id="a_edge8_Node000005_Node000008"><a xlink:title=" ">
<path fill="none" stroke="#63b8ff" d="M594.83,-54.84C586.76,-47.3 575.03,-36.35 565.28,-27.23"/>
<polygon fill="#63b8ff" stroke="#63b8ff" points="567.83,-24.83 558.13,-20.56 563.05,-29.94 567.83,-24.83"/>
</a>
</g>
</g>
<!-- Node9 -->
<g id="Node000009" class="node">
<title>Node9</title>
<g id="a_Node000009"><a xlink:title=" ">
<polygon fill="#e0e0e0" stroke="#999999" points="641.38,-19.25 585.62,-19.25 585.62,0 641.38,0 641.38,-19.25"/>
<text text-anchor="middle" x="613.5" y="-5.75" font-family="Helvetica,sans-Serif" font-size="10.00">algorithm</text>
</a>
</g>
</g>
<!-- Node5&#45;&gt;Node9 -->
<g id="edge9_Node000005_Node000009" class="edge">
<title>Node5&#45;&gt;Node9</title>
<g id="a_edge9_Node000005_Node000009"><a xlink:title=" ">
<path fill="none" stroke="#63b8ff" d="M605.99,-55.08C607.1,-48.49 608.67,-39.21 610.09,-30.82"/>
<polygon fill="#63b8ff" stroke="#63b8ff" points="613.51,-31.55 611.73,-21.1 606.61,-30.38 613.51,-31.55"/>
</a>
</g>
</g>
<!-- Node10&#45;&gt;Node3 -->
<g id="edge11_Node000010_Node000003" class="edge">
<title>Node10&#45;&gt;Node3</title>
<g id="a_edge11_Node000010_Node000003"><a xlink:title=" ">
<path fill="none" stroke="#63b8ff" d="M283.1,-54.84C271.41,-46.96 254.2,-35.36 240.34,-26.02"/>
<polygon fill="#63b8ff" stroke="#63b8ff" points="242.47,-23.24 232.22,-20.55 238.56,-29.04 242.47,-23.24"/>
</a>
</g>
</g>
<!-- Node11&#45;&gt;Node3 -->
<g id="edge13_Node000011_Node000003" class="edge">
<title>Node11&#45;&gt;Node3</title>
<g id="a_edge13_Node000011_Node000003"><a xlink:title=" ">
<path fill="none" stroke="#63b8ff" d="M385.23,-54.84C347.04,-44.77 285.81,-28.63 248.85,-18.89"/>
<polygon fill="#63b8ff" stroke="#63b8ff" points="249.78,-15.52 239.22,-16.35 248,-22.28 249.78,-15.52"/>
</a>
</g>
</g>
<!-- Node12&#45;&gt;Node3 -->
<g id="edge15_Node000012_Node000003" class="edge">
<title>Node12&#45;&gt;Node3</title>
<g id="a_edge15_Node000012_Node000003"><a xlink:title=" ">
<path fill="none" stroke="#63b8ff" d="M82.15,-54.84C111.15,-45.37 156.6,-30.52 186.72,-20.68"/>
<polygon fill="#63b8ff" stroke="#63b8ff" points="187.58,-24.08 196,-17.65 185.41,-17.43 187.58,-24.08"/>
</a>
</g>
</g>
</g>
</svg>
