<?xml version="1.0" encoding="UTF-8" standalone="no"?>
<!DOCTYPE svg PUBLIC "-//W3C//DTD SVG 1.1//EN"
 "http://www.w3.org/Graphics/SVG/1.1/DTD/svg11.dtd">
<!-- Generated by graphviz version 12.2.1 (0)
 -->
<!-- Title: services/AssignmentLogic.cpp Pages: 1 -->
<svg width="881pt" height="193pt"
 viewBox="0.00 0.00 881.38 193.00" xmlns="http://www.w3.org/2000/svg" xmlns:xlink="http://www.w3.org/1999/xlink">
<g id="graph0" class="graph" transform="scale(1 1) rotate(0) translate(4 189)">
<title>services/AssignmentLogic.cpp</title>
<!-- Node1 -->
<g id="Node000001" class="node">
<title>Node1</title>
<g id="a_Node000001"><a xlink:title=" ">
<polygon fill="#999999" stroke="#666666" points="489.5,-185 340,-185 340,-165.75 489.5,-165.75 489.5,-185"/>
<text text-anchor="middle" x="414.75" y="-171.5" font-family="Helvetica,sans-Serif" font-size="10.00">services/AssignmentLogic.cpp</text>
</a>
</g>
</g>
<!-- Node2 -->
<g id="Node000002" class="node">
<title>Node2</title>
<g id="a_Node000002"><a xlink:href="_assignment_logic_8h.html" target="_top" xlink:title="Logic for assigning reviewers to submissions based on Max Flow.">
<polygon fill="white" stroke="#666666" points="484.25,-129.75 345.25,-129.75 345.25,-110.5 484.25,-110.5 484.25,-129.75"/>
<text text-anchor="middle" x="414.75" y="-116.25" font-family="Helvetica,sans-Serif" font-size="10.00">services/AssignmentLogic.h</text>
</a>
</g>
</g>
<!-- Node1&#45;&gt;Node2 -->
<g id="edge1_Node000001_Node000002" class="edge">
<title>Node1&#45;&gt;Node2</title>
<g id="a_edge1_Node000001_Node000002"><a xlink:title=" ">
<path fill="none" stroke="#63b8ff" d="M414.75,-165.58C414.75,-159.07 414.75,-149.92 414.75,-141.62"/>
<polygon fill="#63b8ff" stroke="#63b8ff" points="418.25,-141.62 414.75,-131.62 411.25,-141.62 418.25,-141.62"/>
</a>
</g>
</g>
<!-- Node7 -->
<g id="Node000007" class="node">
<title>Node7</title>
<g id="a_Node000007"><a xlink:title=" ">
<polygon fill="#e0e0e0" stroke="#999999" points="53.5,-19.25 0,-19.25 0,0 53.5,0 53.5,-19.25"/>
<text text-anchor="middle" x="26.75" y="-5.75" font-family="Helvetica,sans-Serif" font-size="10.00">iostream</text>
</a>
</g>
</g>
<!-- Node1&#45;&gt;Node7 -->
<g id="edge30_Node000001_Node000007" class="edge">
<title>Node1&#45;&gt;Node7</title>
<g id="a_edge30_Node000001_Node000007"><a xlink:title=" ">
<path fill="none" stroke="#63b8ff" d="M339.77,-169.96C254.66,-164 121.77,-151.53 76.75,-129.75 44.99,-114.39 33.51,-106.99 19.75,-74.5 13.88,-60.64 16.14,-43.65 19.59,-30.68"/>
<polygon fill="#63b8ff" stroke="#63b8ff" points="22.93,-31.74 22.59,-21.15 16.25,-29.64 22.93,-31.74"/>
</a>
</g>
</g>
<!-- Node10 -->
<g id="Node000010" class="node">
<title>Node10</title>
<g id="a_Node000010"><a xlink:title=" ">
<polygon fill="#e0e0e0" stroke="#999999" points="133.62,-19.25 77.88,-19.25 77.88,0 133.62,0 133.62,-19.25"/>
<text text-anchor="middle" x="105.75" y="-5.75" font-family="Helvetica,sans-Serif" font-size="10.00">algorithm</text>
</a>
</g>
</g>
<!-- Node1&#45;&gt;Node10 -->
<g id="edge31_Node000001_Node000010" class="edge">
<title>Node1&#45;&gt;Node10</title>
<g id="a_edge31_Node000001_Node000010"><a xlink:title=" ">
<path fill="none" stroke="#63b8ff" d="M339.89,-166.88C237.16,-154.76 61.33,-126.74 27.75,-74.5 13.94,-53.02 41.21,-35.27 67.22,-23.99"/>
<polygon fill="#63b8ff" stroke="#63b8ff" points="68.43,-27.27 76.38,-20.26 65.8,-20.78 68.43,-27.27"/>
</a>
</g>
</g>
<!-- Node14 -->
<g id="Node000014" class="node">
<title>Node14</title>
<g id="a_Node000014"><a xlink:href="_graph_builder_8h.html" target="_top" xlink:title=" ">
<polygon fill="white" stroke="#666666" points="652.88,-129.75 502.62,-129.75 502.62,-110.5 652.88,-110.5 652.88,-129.75"/>
<text text-anchor="middle" x="577.75" y="-116.25" font-family="Helvetica,sans-Serif" font-size="10.00">data_structures/GraphBuilder.h</text>
</a>
</g>
</g>
<!-- Node1&#45;&gt;Node14 -->
<g id="edge17_Node000001_Node000014" class="edge">
<title>Node1&#45;&gt;Node14</title>
<g id="a_edge17_Node000001_Node000014"><a xlink:title=" ">
<path fill="none" stroke="#63b8ff" d="M442.4,-165.34C468.98,-156.66 509.39,-143.46 539.14,-133.74"/>
<polygon fill="#63b8ff" stroke="#63b8ff" points="540.11,-137.1 548.52,-130.67 537.93,-130.45 540.11,-137.1"/>
</a>
</g>
</g>
<!-- Node15 -->
<g id="Node000015" class="node">
<title>Node15</title>
<g id="a_Node000015"><a xlink:href="_edmond_karp_8h.html" target="_top" xlink:title="Implementations of the Edmonds&#45;Karp algorithm for calculating maximum flow.">
<polygon fill="white" stroke="#666666" points="286,-129.75 157.5,-129.75 157.5,-110.5 286,-110.5 286,-129.75"/>
<text text-anchor="middle" x="221.75" y="-116.25" font-family="Helvetica,sans-Serif" font-size="10.00">algorithms/EdmondKarp.h</text>
</a>
</g>
</g>
<!-- Node1&#45;&gt;Node15 -->
<g id="edge23_Node000001_Node000015" class="edge">
<title>Node1&#45;&gt;Node15</title>
<g id="a_edge23_Node000001_Node000015"><a xlink:title=" ">
<path fill="none" stroke="#63b8ff" d="M382.01,-165.34C349.99,-156.51 301,-142.99 265.62,-133.23"/>
<polygon fill="#63b8ff" stroke="#63b8ff" points="266.68,-129.89 256.11,-130.61 264.82,-136.64 266.68,-129.89"/>
</a>
</g>
</g>
<!-- Node17 -->
<g id="Node000017" class="node">
<title>Node17</title>
<g id="a_Node000017"><a xlink:title=" ">
<polygon fill="#e0e0e0" stroke="#999999" points="720.25,-129.75 671.25,-129.75 671.25,-110.5 720.25,-110.5 720.25,-129.75"/>
<text text-anchor="middle" x="695.75" y="-116.25" font-family="Helvetica,sans-Serif" font-size="10.00">fstream</text>
</a>
</g>
</g>
<!-- Node1&#45;&gt;Node17 -->
<g id="edge29_Node000001_Node000017" class="edge">
<title>Node1&#45;&gt;Node17</title>
<g id="a_edge29_Node000001_Node000017"><a xlink:title=" ">
<path fill="none" stroke="#63b8ff" d="M471.38,-165.3C519.13,-157.38 589.52,-145.11 660.05,-129.99"/>
<polygon fill="#63b8ff" stroke="#63b8ff" points="660.4,-133.49 669.44,-127.96 658.92,-126.65 660.4,-133.49"/>
</a>
</g>
</g>
<!-- Node18 -->
<g id="Node000018" class="node">
<title>Node18</title>
<g id="a_Node000018"><a xlink:title=" ">
<polygon fill="#e0e0e0" stroke="#999999" points="775.25,-129.75 738.25,-129.75 738.25,-110.5 775.25,-110.5 775.25,-129.75"/>
<text text-anchor="middle" x="756.75" y="-116.25" font-family="Helvetica,sans-Serif" font-size="10.00">tuple</text>
</a>
</g>
</g>
<!-- Node1&#45;&gt;Node18 -->
<g id="edge32_Node000001_Node000018" class="edge">
<title>Node1&#45;&gt;Node18</title>
<g id="a_edge32_Node000001_Node000018"><a xlink:title=" ">
<path fill="none" stroke="#63b8ff" d="M489.86,-167.33C551.46,-160.74 641.01,-149.28 726.97,-130.07"/>
<polygon fill="#63b8ff" stroke="#63b8ff" points="727.53,-133.54 736.5,-127.9 725.98,-126.71 727.53,-133.54"/>
</a>
</g>
</g>
<!-- Node3 -->
<g id="Node000003" class="node">
<title>Node3</title>
<g id="a_Node000003"><a xlink:title=" ">
<polygon fill="#e0e0e0" stroke="#999999" points="417.25,-19.25 374.25,-19.25 374.25,0 417.25,0 417.25,-19.25"/>
<text text-anchor="middle" x="395.75" y="-5.75" font-family="Helvetica,sans-Serif" font-size="10.00">vector</text>
</a>
</g>
</g>
<!-- Node2&#45;&gt;Node3 -->
<g id="edge2_Node000002_Node000003" class="edge">
<title>Node2&#45;&gt;Node3</title>
<g id="a_edge2_Node000002_Node000003"><a xlink:title=" ">
<path fill="none" stroke="#63b8ff" d="M413.2,-110.25C410.18,-93 403.45,-54.58 399.29,-30.81"/>
<polygon fill="#63b8ff" stroke="#63b8ff" points="402.76,-30.36 397.59,-21.12 395.86,-31.57 402.76,-30.36"/>
</a>
</g>
</g>
<!-- Node4 -->
<g id="Node000004" class="node">
<title>Node4</title>
<g id="a_Node000004"><a xlink:title=" ">
<polygon fill="#e0e0e0" stroke="#999999" points="618.75,-19.25 578.75,-19.25 578.75,0 618.75,0 618.75,-19.25"/>
<text text-anchor="middle" x="598.75" y="-5.75" font-family="Helvetica,sans-Serif" font-size="10.00">string</text>
</a>
</g>
</g>
<!-- Node2&#45;&gt;Node4 -->
<g id="edge3_Node000002_Node000004" class="edge">
<title>Node2&#45;&gt;Node4</title>
<g id="a_edge3_Node000002_Node000004"><a xlink:title=" ">
<path fill="none" stroke="#63b8ff" d="M420.35,-110.42C429.52,-96.81 449.03,-70.47 471.75,-55.25 501.18,-35.54 540.28,-23.53 567.28,-17"/>
<polygon fill="#63b8ff" stroke="#63b8ff" points="567.96,-20.44 576.93,-14.8 566.4,-13.62 567.96,-20.44"/>
</a>
</g>
</g>
<!-- Node5 -->
<g id="Node000005" class="node">
<title>Node5</title>
<g id="a_Node000005"><a xlink:title=" ">
<polygon fill="#e0e0e0" stroke="#999999" points="208.75,-74.5 150.75,-74.5 150.75,-55.25 208.75,-55.25 208.75,-74.5"/>
<text text-anchor="middle" x="179.75" y="-61" font-family="Helvetica,sans-Serif" font-size="10.00">functional</text>
</a>
</g>
</g>
<!-- Node2&#45;&gt;Node5 -->
<g id="edge4_Node000002_Node000005" class="edge">
<title>Node2&#45;&gt;Node5</title>
<g id="a_edge4_Node000002_Node000005"><a xlink:title=" ">
<path fill="none" stroke="#63b8ff" d="M374.75,-110.07C337.28,-101.59 279.41,-88.48 220.26,-75.07"/>
<polygon fill="#63b8ff" stroke="#63b8ff" points="221.21,-71.7 210.68,-72.9 219.66,-78.52 221.21,-71.7"/>
</a>
</g>
</g>
<!-- Node6 -->
<g id="Node000006" class="node">
<title>Node6</title>
<g id="a_Node000006"><a xlink:href="_graph_8h.html" target="_top" xlink:title=" ">
<polygon fill="white" stroke="#666666" points="348.25,-74.5 227.25,-74.5 227.25,-55.25 348.25,-55.25 348.25,-74.5"/>
<text text-anchor="middle" x="287.75" y="-61" font-family="Helvetica,sans-Serif" font-size="10.00">data_structures/Graph.h</text>
</a>
</g>
</g>
<!-- Node2&#45;&gt;Node6 -->
<g id="edge5_Node000002_Node000006" class="edge">
<title>Node2&#45;&gt;Node6</title>
<g id="a_edge5_Node000002_Node000006"><a xlink:title=" ">
<path fill="none" stroke="#63b8ff" d="M393.21,-110.09C373.14,-101.68 342.95,-89.02 320,-79.4"/>
<polygon fill="#63b8ff" stroke="#63b8ff" points="321.37,-76.18 310.8,-75.54 318.66,-82.63 321.37,-76.18"/>
</a>
</g>
</g>
<!-- Node11 -->
<g id="Node000011" class="node">
<title>Node11</title>
<g id="a_Node000011"><a xlink:href="_submission_8h.html" target="_top" xlink:title=" ">
<polygon fill="white" stroke="#666666" points="590.62,-74.5 480.88,-74.5 480.88,-55.25 590.62,-55.25 590.62,-74.5"/>
<text text-anchor="middle" x="535.75" y="-61" font-family="Helvetica,sans-Serif" font-size="10.00">models/Submission.h</text>
</a>
</g>
</g>
<!-- Node2&#45;&gt;Node11 -->
<g id="edge11_Node000002_Node000011" class="edge">
<title>Node2&#45;&gt;Node11</title>
<g id="a_edge11_Node000002_Node000011"><a xlink:title=" ">
<path fill="none" stroke="#63b8ff" d="M435.28,-110.09C454.31,-101.72 482.9,-89.13 504.72,-79.53"/>
<polygon fill="#63b8ff" stroke="#63b8ff" points="505.99,-82.79 513.74,-75.56 503.18,-76.39 505.99,-82.79"/>
</a>
</g>
</g>
<!-- Node12 -->
<g id="Node000012" class="node">
<title>Node12</title>
<g id="a_Node000012"><a xlink:href="_reviewer_8h.html" target="_top" xlink:title=" ">
<polygon fill="white" stroke="#666666" points="873.38,-74.5 774.12,-74.5 774.12,-55.25 873.38,-55.25 873.38,-74.5"/>
<text text-anchor="middle" x="823.75" y="-61" font-family="Helvetica,sans-Serif" font-size="10.00">models/Reviewer.h</text>
</a>
</g>
</g>
<!-- Node2&#45;&gt;Node12 -->
<g id="edge13_Node000002_Node000012" class="edge">
<title>Node2&#45;&gt;Node12</title>
<g id="a_edge13_Node000002_Node000012"><a xlink:title=" ">
<path fill="none" stroke="#63b8ff" d="M484.59,-110.03C562.83,-99.85 688.39,-83.5 762.8,-73.81"/>
<polygon fill="#63b8ff" stroke="#63b8ff" points="762.88,-77.33 772.34,-72.57 761.97,-70.39 762.88,-77.33"/>
</a>
</g>
</g>
<!-- Node13 -->
<g id="Node000013" class="node">
<title>Node13</title>
<g id="a_Node000013"><a xlink:href="_parameters_8h.html" target="_top" xlink:title=" ">
<polygon fill="white" stroke="#666666" points="717.25,-74.5 608.25,-74.5 608.25,-55.25 717.25,-55.25 717.25,-74.5"/>
<text text-anchor="middle" x="662.75" y="-61" font-family="Helvetica,sans-Serif" font-size="10.00">models/Parameters.h</text>
</a>
</g>
</g>
<!-- Node2&#45;&gt;Node13 -->
<g id="edge15_Node000002_Node000013" class="edge">
<title>Node2&#45;&gt;Node13</title>
<g id="a_edge15_Node000002_Node000013"><a xlink:title=" ">
<path fill="none" stroke="#63b8ff" d="M457.1,-110.03C499.19,-100.99 563.86,-87.11 609.43,-77.32"/>
<polygon fill="#63b8ff" stroke="#63b8ff" points="610.05,-80.77 619.09,-75.25 608.58,-73.93 610.05,-80.77"/>
</a>
</g>
</g>
<!-- Node6&#45;&gt;Node3 -->
<g id="edge7_Node000006_Node000003" class="edge">
<title>Node6&#45;&gt;Node3</title>
<g id="a_edge7_Node000006_Node000003"><a xlink:title=" ">
<path fill="none" stroke="#63b8ff" d="M306.07,-54.84C322.83,-46.58 347.88,-34.23 367.25,-24.68"/>
<polygon fill="#63b8ff" stroke="#63b8ff" points="368.56,-27.93 375.98,-20.37 365.47,-21.65 368.56,-27.93"/>
</a>
</g>
</g>
<!-- Node6&#45;&gt;Node7 -->
<g id="edge6_Node000006_Node000007" class="edge">
<title>Node6&#45;&gt;Node7</title>
<g id="a_edge6_Node000006_Node000007"><a xlink:title=" ">
<path fill="none" stroke="#63b8ff" d="M242.87,-54.75C198.6,-45.74 129,-31.58 68.75,-19.25 67.55,-19 66.32,-18.75 65.09,-18.5"/>
<polygon fill="#63b8ff" stroke="#63b8ff" points="65.84,-15.08 55.34,-16.5 64.44,-21.94 65.84,-15.08"/>
</a>
</g>
</g>
<!-- Node8 -->
<g id="Node000008" class="node">
<title>Node8</title>
<g id="a_Node000008"><a xlink:title=" ">
<polygon fill="#e0e0e0" stroke="#999999" points="196.88,-19.25 154.62,-19.25 154.62,0 196.88,0 196.88,-19.25"/>
<text text-anchor="middle" x="175.75" y="-5.75" font-family="Helvetica,sans-Serif" font-size="10.00">queue</text>
</a>
</g>
</g>
<!-- Node6&#45;&gt;Node8 -->
<g id="edge8_Node000006_Node000008" class="edge">
<title>Node6&#45;&gt;Node8</title>
<g id="a_edge8_Node000006_Node000008"><a xlink:title=" ">
<path fill="none" stroke="#63b8ff" d="M268.75,-54.84C251.29,-46.54 225.15,-34.11 205.03,-24.54"/>
<polygon fill="#63b8ff" stroke="#63b8ff" points="206.74,-21.49 196.21,-20.35 203.74,-27.81 206.74,-21.49"/>
</a>
</g>
</g>
<!-- Node9 -->
<g id="Node000009" class="node">
<title>Node9</title>
<g id="a_Node000009"><a xlink:title=" ">
<polygon fill="#e0e0e0" stroke="#999999" points="307.38,-19.25 268.12,-19.25 268.12,0 307.38,0 307.38,-19.25"/>
<text text-anchor="middle" x="287.75" y="-5.75" font-family="Helvetica,sans-Serif" font-size="10.00">limits</text>
</a>
</g>
</g>
<!-- Node6&#45;&gt;Node9 -->
<g id="edge9_Node000006_Node000009" class="edge">
<title>Node6&#45;&gt;Node9</title>
<g id="a_edge9_Node000006_Node000009"><a xlink:title=" ">
<path fill="none" stroke="#63b8ff" d="M287.75,-55.08C287.75,-48.57 287.75,-39.42 287.75,-31.12"/>
<polygon fill="#63b8ff" stroke="#63b8ff" points="291.25,-31.12 287.75,-21.12 284.25,-31.12 291.25,-31.12"/>
</a>
</g>
</g>
<!-- Node6&#45;&gt;Node10 -->
<g id="edge10_Node000006_Node000010" class="edge">
<title>Node6&#45;&gt;Node10</title>
<g id="a_edge10_Node000006_Node000010"><a xlink:title=" ">
<path fill="none" stroke="#63b8ff" d="M256.88,-54.84C225.99,-45.8 178.37,-31.87 144.86,-22.07"/>
<polygon fill="#63b8ff" stroke="#63b8ff" points="146.11,-18.79 135.53,-19.34 144.14,-25.51 146.11,-18.79"/>
</a>
</g>
</g>
<!-- Node11&#45;&gt;Node4 -->
<g id="edge12_Node000011_Node000004" class="edge">
<title>Node11&#45;&gt;Node4</title>
<g id="a_edge12_Node000011_Node000004"><a xlink:title=" ">
<path fill="none" stroke="#63b8ff" d="M546.44,-54.84C555.45,-47.22 568.58,-36.12 579.43,-26.95"/>
<polygon fill="#63b8ff" stroke="#63b8ff" points="581.69,-29.63 587.06,-20.5 577.17,-24.28 581.69,-29.63"/>
</a>
</g>
</g>
<!-- Node12&#45;&gt;Node4 -->
<g id="edge14_Node000012_Node000004" class="edge">
<title>Node12&#45;&gt;Node4</title>
<g id="a_edge14_Node000012_Node000004"><a xlink:title=" ">
<path fill="none" stroke="#63b8ff" d="M785.33,-54.78C741.57,-44.43 670.91,-27.7 630.26,-18.08"/>
<polygon fill="#63b8ff" stroke="#63b8ff" points="631.17,-14.7 620.63,-15.8 629.56,-21.51 631.17,-14.7"/>
</a>
</g>
</g>
<!-- Node13&#45;&gt;Node4 -->
<g id="edge16_Node000013_Node000004" class="edge">
<title>Node13&#45;&gt;Node4</title>
<g id="a_edge16_Node000013_Node000004"><a xlink:title=" ">
<path fill="none" stroke="#63b8ff" d="M651.89,-54.84C642.64,-47.15 629.13,-35.9 618.04,-26.68"/>
<polygon fill="#63b8ff" stroke="#63b8ff" points="620.54,-24.2 610.61,-20.49 616.06,-29.58 620.54,-24.2"/>
</a>
</g>
</g>
<!-- Node14&#45;&gt;Node3 -->
<g id="edge22_Node000014_Node000003" class="edge">
<title>Node14&#45;&gt;Node3</title>
<g id="a_edge22_Node000014_Node000003"><a xlink:title=" ">
<path fill="none" stroke="#63b8ff" d="M653.16,-110.75C702.59,-102.27 753.52,-85.87 726.75,-55.25 707.28,-32.98 508.6,-17.86 428.73,-12.64"/>
<polygon fill="#63b8ff" stroke="#63b8ff" points="429.13,-9.16 418.92,-12.01 428.68,-16.15 429.13,-9.16"/>
</a>
</g>
</g>
<!-- Node14&#45;&gt;Node6 -->
<g id="edge18_Node000014_Node000006" class="edge">
<title>Node14&#45;&gt;Node6</title>
<g id="a_edge18_Node000014_Node000006"><a xlink:title=" ">
<path fill="none" stroke="#63b8ff" d="M528.23,-110.03C478.39,-100.88 401.46,-86.75 348.08,-76.95"/>
<polygon fill="#63b8ff" stroke="#63b8ff" points="349.03,-73.57 338.56,-75.2 347.76,-80.45 349.03,-73.57"/>
</a>
</g>
</g>
<!-- Node14&#45;&gt;Node11 -->
<g id="edge19_Node000014_Node000011" class="edge">
<title>Node14&#45;&gt;Node11</title>
<g id="a_edge19_Node000014_Node000011"><a xlink:title=" ">
<path fill="none" stroke="#63b8ff" d="M570.81,-110.33C565.13,-103.13 556.91,-92.71 549.86,-83.76"/>
<polygon fill="#63b8ff" stroke="#63b8ff" points="552.71,-81.73 543.77,-76.05 547.22,-86.07 552.71,-81.73"/>
</a>
</g>
</g>
<!-- Node14&#45;&gt;Node12 -->
<g id="edge20_Node000014_Node000012" class="edge">
<title>Node14&#45;&gt;Node12</title>
<g id="a_edge20_Node000014_Node000012"><a xlink:title=" ">
<path fill="none" stroke="#63b8ff" d="M619.76,-110.03C661.51,-100.99 725.66,-87.11 770.86,-77.32"/>
<polygon fill="#63b8ff" stroke="#63b8ff" points="771.4,-80.79 780.43,-75.25 769.92,-73.95 771.4,-80.79"/>
</a>
</g>
</g>
<!-- Node14&#45;&gt;Node13 -->
<g id="edge21_Node000014_Node000013" class="edge">
<title>Node14&#45;&gt;Node13</title>
<g id="a_edge21_Node000014_Node000013"><a xlink:title=" ">
<path fill="none" stroke="#63b8ff" d="M592.17,-110.09C604.87,-102.14 623.62,-90.39 638.61,-81"/>
<polygon fill="#63b8ff" stroke="#63b8ff" points="640.36,-84.03 646.98,-75.76 636.65,-78.1 640.36,-84.03"/>
</a>
</g>
</g>
<!-- Node15&#45;&gt;Node3 -->
<g id="edge26_Node000015_Node000003" class="edge">
<title>Node15&#45;&gt;Node3</title>
<g id="a_edge26_Node000015_Node000003"><a xlink:title=" ">
<path fill="none" stroke="#63b8ff" d="M278.43,-110.02C304.71,-103.57 335.06,-92.68 357.75,-74.5 372.22,-62.9 382.42,-44.19 388.59,-30.01"/>
<polygon fill="#63b8ff" stroke="#63b8ff" points="391.8,-31.41 392.26,-20.82 385.3,-28.81 391.8,-31.41"/>
</a>
</g>
</g>
<!-- Node15&#45;&gt;Node5 -->
<g id="edge28_Node000015_Node000005" class="edge">
<title>Node15&#45;&gt;Node5</title>
<g id="a_edge28_Node000015_Node000005"><a xlink:title=" ">
<path fill="none" stroke="#63b8ff" d="M214.81,-110.33C209.13,-103.13 200.91,-92.71 193.86,-83.76"/>
<polygon fill="#63b8ff" stroke="#63b8ff" points="196.71,-81.73 187.77,-76.05 191.22,-86.07 196.71,-81.73"/>
</a>
</g>
</g>
<!-- Node15&#45;&gt;Node6 -->
<g id="edge24_Node000015_Node000006" class="edge">
<title>Node15&#45;&gt;Node6</title>
<g id="a_edge24_Node000015_Node000006"><a xlink:title=" ">
<path fill="none" stroke="#63b8ff" d="M232.95,-110.09C242.49,-102.4 256.42,-91.15 267.86,-81.93"/>
<polygon fill="#63b8ff" stroke="#63b8ff" points="269.96,-84.73 275.54,-75.73 265.56,-79.28 269.96,-84.73"/>
</a>
</g>
</g>
<!-- Node15&#45;&gt;Node8 -->
<g id="edge25_Node000015_Node000008" class="edge">
<title>Node15&#45;&gt;Node8</title>
<g id="a_edge25_Node000015_Node000008"><a xlink:title=" ">
<path fill="none" stroke="#63b8ff" d="M189.89,-110.14C172.37,-103.38 152.14,-92.19 141.75,-74.5 132.55,-58.83 144.6,-40.48 156.82,-27.48"/>
<polygon fill="#63b8ff" stroke="#63b8ff" points="159.27,-29.98 163.97,-20.49 154.37,-24.98 159.27,-29.98"/>
</a>
</g>
</g>
<!-- Node16 -->
<g id="Node000016" class="node">
<title>Node16</title>
<g id="a_Node000016"><a xlink:title=" ">
<polygon fill="#e0e0e0" stroke="#999999" points="95.12,-74.5 36.38,-74.5 36.38,-55.25 95.12,-55.25 95.12,-74.5"/>
<text text-anchor="middle" x="65.75" y="-61" font-family="Helvetica,sans-Serif" font-size="10.00">stdexcept</text>
</a>
</g>
</g>
<!-- Node15&#45;&gt;Node16 -->
<g id="edge27_Node000015_Node000016" class="edge">
<title>Node15&#45;&gt;Node16</title>
<g id="a_edge27_Node000015_Node000016"><a xlink:title=" ">
<path fill="none" stroke="#63b8ff" d="M195.29,-110.09C169.96,-101.45 131.52,-88.32 103.08,-78.62"/>
<polygon fill="#63b8ff" stroke="#63b8ff" points="104.37,-75.36 93.78,-75.44 102.11,-81.98 104.37,-75.36"/>
</a>
</g>
</g>
</g>
</svg>
