<?xml version="1.0" encoding="UTF-8" standalone="no"?>
<!DOCTYPE svg PUBLIC "-//W3C//DTD SVG 1.1//EN"
 "http://www.w3.org/Graphics/SVG/1.1/DTD/svg11.dtd">
<!-- Generated by graphviz version 12.2.1 (0)
 -->
<!-- Title: services/AssignmentLogic.h Pages: 1 -->
<svg width="288pt" height="83pt"
 viewBox="0.00 0.00 288.12 82.50" xmlns="http://www.w3.org/2000/svg" xmlns:xlink="http://www.w3.org/1999/xlink">
<g id="graph0" class="graph" transform="scale(1 1) rotate(0) translate(4 78.5)">
<title>services/AssignmentLogic.h</title>
<!-- Node1 -->
<g id="Node000001" class="node">
<title>Node1</title>
<g id="a_Node000001"><a xlink:title="Logic for assigning reviewers to submissions based on Max Flow.">
<polygon fill="#999999" stroke="#666666" points="218.25,-74.5 79.25,-74.5 79.25,-55.25 218.25,-55.25 218.25,-74.5"/>
<text text-anchor="middle" x="148.75" y="-61" font-family="Helvetica,sans-Serif" font-size="10.00">services/AssignmentLogic.h</text>
</a>
</g>
</g>
<!-- Node2 -->
<g id="Node000002" class="node">
<title>Node2</title>
<g id="a_Node000002"><a xlink:href="_assignment_logic_8cpp.html" target="_top" xlink:title=" ">
<polygon fill="white" stroke="#666666" points="149.5,-19.25 0,-19.25 0,0 149.5,0 149.5,-19.25"/>
<text text-anchor="middle" x="74.75" y="-5.75" font-family="Helvetica,sans-Serif" font-size="10.00">services/AssignmentLogic.cpp</text>
</a>
</g>
</g>
<!-- Node1&#45;&gt;Node2 -->
<g id="edge1_Node000001_Node000002" class="edge">
<title>Node1&#45;&gt;Node2</title>
<g id="a_edge1_Node000001_Node000002"><a xlink:title=" ">
<path fill="none" stroke="#63b8ff" d="M126.99,-48.22C114,-38.87 97.97,-27.33 87.12,-19.52"/>
<polygon fill="#63b8ff" stroke="#63b8ff" points="124.81,-50.96 134.97,-53.96 128.9,-45.28 124.81,-50.96"/>
</a>
</g>
</g>
<!-- Node3 -->
<g id="Node000003" class="node">
<title>Node3</title>
<g id="a_Node000003"><a xlink:href="_conference_app_8cpp.html" target="_top" xlink:title=" ">
<polygon fill="white" stroke="#666666" points="280.12,-19.25 167.38,-19.25 167.38,0 280.12,0 280.12,-19.25"/>
<text text-anchor="middle" x="223.75" y="-5.75" font-family="Helvetica,sans-Serif" font-size="10.00">ui/ConferenceApp.cpp</text>
</a>
</g>
</g>
<!-- Node1&#45;&gt;Node3 -->
<g id="edge2_Node000001_Node000003" class="edge">
<title>Node1&#45;&gt;Node3</title>
<g id="a_edge2_Node000001_Node000003"><a xlink:title=" ">
<path fill="none" stroke="#63b8ff" d="M170.74,-48.26C183.82,-38.97 199.96,-27.52 210.96,-19.7"/>
<polygon fill="#63b8ff" stroke="#63b8ff" points="168.83,-45.32 162.71,-53.97 172.89,-51.03 168.83,-45.32"/>
</a>
</g>
</g>
</g>
</svg>
