<?xml version="1.0" encoding="UTF-8" standalone="no"?>
<!DOCTYPE svg PUBLIC "-//W3C//DTD SVG 1.1//EN"
 "http://www.w3.org/Graphics/SVG/1.1/DTD/svg11.dtd">
<!-- Generated by graphviz version 12.2.1 (0)
 -->
<!-- Title: services/AssignmentLogic.cpp Pages: 1 -->
<svg width="1081pt" height="193pt"
 viewBox="0.00 0.00 1081.00 193.00" xmlns="http://www.w3.org/2000/svg" xmlns:xlink="http://www.w3.org/1999/xlink">
<g id="graph0" class="graph" transform="scale(1 1) rotate(0) translate(4 189)">
<title>services/AssignmentLogic.cpp</title>
<!-- Node1 -->
<g id="Node000001" class="node">
<title>Node1</title>
<g id="a_Node000001"><a xlink:title=" ">
<polygon fill="#999999" stroke="#666666" points="931.25,-185 781.75,-185 781.75,-165.75 931.25,-165.75 931.25,-185"/>
<text text-anchor="middle" x="856.5" y="-171.5" font-family="Helvetica,sans-Serif" font-size="10.00">services/AssignmentLogic.cpp</text>
</a>
</g>
</g>
<!-- Node2 -->
<g id="Node000002" class="node">
<title>Node2</title>
<g id="a_Node000002"><a xlink:href="_assignment_logic_8h.html" target="_top" xlink:title="Logic for assigning reviewers to submissions based on Max Flow.">
<polygon fill="white" stroke="#666666" points="533,-129.75 394,-129.75 394,-110.5 533,-110.5 533,-129.75"/>
<text text-anchor="middle" x="463.5" y="-116.25" font-family="Helvetica,sans-Serif" font-size="10.00">services/AssignmentLogic.h</text>
</a>
</g>
</g>
<!-- Node1&#45;&gt;Node2 -->
<g id="edge1_Node000001_Node000002" class="edge">
<title>Node1&#45;&gt;Node2</title>
<g id="a_edge1_Node000001_Node000002"><a xlink:title=" ">
<path fill="none" stroke="#63b8ff" d="M789.39,-165.28C720.82,-155.99 614.41,-141.57 541.99,-131.76"/>
<polygon fill="#63b8ff" stroke="#63b8ff" points="542.54,-128.3 532.16,-130.43 541.6,-135.24 542.54,-128.3"/>
</a>
</g>
</g>
<!-- Node7 -->
<g id="Node000007" class="node">
<title>Node7</title>
<g id="a_Node000007"><a xlink:title=" ">
<polygon fill="#e0e0e0" stroke="#999999" points="854.25,-19.25 800.75,-19.25 800.75,0 854.25,0 854.25,-19.25"/>
<text text-anchor="middle" x="827.5" y="-5.75" font-family="Helvetica,sans-Serif" font-size="10.00">iostream</text>
</a>
</g>
</g>
<!-- Node1&#45;&gt;Node7 -->
<g id="edge35_Node000001_Node000007" class="edge">
<title>Node1&#45;&gt;Node7</title>
<g id="a_edge35_Node000001_Node000007"><a xlink:title=" ">
<path fill="none" stroke="#63b8ff" d="M863.9,-165.5C870.51,-156.95 879.7,-143.36 883.5,-129.75 885.8,-121.51 885.43,-118.84 883.5,-110.5 876.25,-79.14 855.77,-47.5 841.7,-28.48"/>
<polygon fill="#63b8ff" stroke="#63b8ff" points="844.62,-26.54 835.76,-20.72 839.06,-30.79 844.62,-26.54"/>
</a>
</g>
</g>
<!-- Node10 -->
<g id="Node000010" class="node">
<title>Node10</title>
<g id="a_Node000010"><a xlink:title=" ">
<polygon fill="#e0e0e0" stroke="#999999" points="948.38,-19.25 892.62,-19.25 892.62,0 948.38,0 948.38,-19.25"/>
<text text-anchor="middle" x="920.5" y="-5.75" font-family="Helvetica,sans-Serif" font-size="10.00">algorithm</text>
</a>
</g>
</g>
<!-- Node1&#45;&gt;Node10 -->
<g id="edge36_Node000001_Node000010" class="edge">
<title>Node1&#45;&gt;Node10</title>
<g id="a_edge36_Node000001_Node000010"><a xlink:title=" ">
<path fill="none" stroke="#63b8ff" d="M868.04,-165.41C877.76,-157.2 891.19,-144.18 898.5,-129.75 914.69,-97.78 919.08,-55.6 920.2,-30.96"/>
<polygon fill="#63b8ff" stroke="#63b8ff" points="923.69,-31.15 920.49,-21.05 916.7,-30.94 923.69,-31.15"/>
</a>
</g>
</g>
<!-- Node14 -->
<g id="Node000014" class="node">
<title>Node14</title>
<g id="a_Node000014"><a xlink:href="_graph_builder_8h.html" target="_top" xlink:title=" ">
<polygon fill="white" stroke="#666666" points="375.62,-129.75 225.38,-129.75 225.38,-110.5 375.62,-110.5 375.62,-129.75"/>
<text text-anchor="middle" x="300.5" y="-116.25" font-family="Helvetica,sans-Serif" font-size="10.00">data_structures/GraphBuilder.h</text>
</a>
</g>
</g>
<!-- Node1&#45;&gt;Node14 -->
<g id="edge17_Node000001_Node000014" class="edge">
<title>Node1&#45;&gt;Node14</title>
<g id="a_edge17_Node000001_Node000014"><a xlink:title=" ">
<path fill="none" stroke="#63b8ff" d="M781.44,-167.42C690.84,-158.99 533.53,-144.24 387.43,-129.93"/>
<polygon fill="#63b8ff" stroke="#63b8ff" points="387.84,-126.46 377.55,-128.96 387.16,-133.42 387.84,-126.46"/>
</a>
</g>
</g>
<!-- Node15 -->
<g id="Node000015" class="node">
<title>Node15</title>
<g id="a_Node000015"><a xlink:href="_ford_fulkerson_8h.html" target="_top" xlink:title="Implementation of the Ford&#45;Fulkerson algorithm for calculating maximum flow.">
<polygon fill="white" stroke="#666666" points="727.75,-129.75 593.25,-129.75 593.25,-110.5 727.75,-110.5 727.75,-129.75"/>
<text text-anchor="middle" x="660.5" y="-116.25" font-family="Helvetica,sans-Serif" font-size="10.00">algorithms/FordFulkerson.h</text>
</a>
</g>
</g>
<!-- Node1&#45;&gt;Node15 -->
<g id="edge23_Node000001_Node000015" class="edge">
<title>Node1&#45;&gt;Node15</title>
<g id="a_edge23_Node000001_Node000015"><a xlink:title=" ">
<path fill="none" stroke="#63b8ff" d="M823.25,-165.34C790.59,-156.47 740.56,-142.87 704.59,-133.1"/>
<polygon fill="#63b8ff" stroke="#63b8ff" points="705.94,-129.84 695.37,-130.6 704.1,-136.6 705.94,-129.84"/>
</a>
</g>
</g>
<!-- Node17 -->
<g id="Node000017" class="node">
<title>Node17</title>
<g id="a_Node000017"><a xlink:href="_edmond_karp_8h.html" target="_top" xlink:title="Implementation of the Edmonds&#45;Karp algorithm for calculating maximum flow.">
<polygon fill="white" stroke="#666666" points="874.75,-129.75 746.25,-129.75 746.25,-110.5 874.75,-110.5 874.75,-129.75"/>
<text text-anchor="middle" x="810.5" y="-116.25" font-family="Helvetica,sans-Serif" font-size="10.00">algorithms/EdmondKarp.h</text>
</a>
</g>
</g>
<!-- Node1&#45;&gt;Node17 -->
<g id="edge28_Node000001_Node000017" class="edge">
<title>Node1&#45;&gt;Node17</title>
<g id="a_edge28_Node000001_Node000017"><a xlink:title=" ">
<path fill="none" stroke="#63b8ff" d="M848.9,-165.58C842.62,-158.3 833.49,-147.73 825.7,-138.73"/>
<polygon fill="#63b8ff" stroke="#63b8ff" points="828.44,-136.53 819.25,-131.25 823.14,-141.11 828.44,-136.53"/>
</a>
</g>
</g>
<!-- Node18 -->
<g id="Node000018" class="node">
<title>Node18</title>
<g id="a_Node000018"><a xlink:title=" ">
<polygon fill="#e0e0e0" stroke="#999999" points="1018,-129.75 969,-129.75 969,-110.5 1018,-110.5 1018,-129.75"/>
<text text-anchor="middle" x="993.5" y="-116.25" font-family="Helvetica,sans-Serif" font-size="10.00">fstream</text>
</a>
</g>
</g>
<!-- Node1&#45;&gt;Node18 -->
<g id="edge34_Node000001_Node000018" class="edge">
<title>Node1&#45;&gt;Node18</title>
<g id="a_edge34_Node000001_Node000018"><a xlink:title=" ">
<path fill="none" stroke="#63b8ff" d="M879.74,-165.34C901.69,-156.81 934.85,-143.92 959.71,-134.26"/>
<polygon fill="#63b8ff" stroke="#63b8ff" points="960.68,-137.64 968.74,-130.75 958.15,-131.11 960.68,-137.64"/>
</a>
</g>
</g>
<!-- Node19 -->
<g id="Node000019" class="node">
<title>Node19</title>
<g id="a_Node000019"><a xlink:title=" ">
<polygon fill="#e0e0e0" stroke="#999999" points="1073,-129.75 1036,-129.75 1036,-110.5 1073,-110.5 1073,-129.75"/>
<text text-anchor="middle" x="1054.5" y="-116.25" font-family="Helvetica,sans-Serif" font-size="10.00">tuple</text>
</a>
</g>
</g>
<!-- Node1&#45;&gt;Node19 -->
<g id="edge37_Node000001_Node000019" class="edge">
<title>Node1&#45;&gt;Node19</title>
<g id="a_edge37_Node000001_Node000019"><a xlink:title=" ">
<path fill="none" stroke="#63b8ff" d="M893.68,-165.29C926.05,-157.24 974.48,-144.87 1024.6,-130.49"/>
<polygon fill="#63b8ff" stroke="#63b8ff" points="1025.57,-133.85 1034.2,-127.71 1023.62,-127.13 1025.57,-133.85"/>
</a>
</g>
</g>
<!-- Node3 -->
<g id="Node000003" class="node">
<title>Node3</title>
<g id="a_Node000003"><a xlink:title=" ">
<polygon fill="#e0e0e0" stroke="#999999" points="518,-19.25 475,-19.25 475,0 518,0 518,-19.25"/>
<text text-anchor="middle" x="496.5" y="-5.75" font-family="Helvetica,sans-Serif" font-size="10.00">vector</text>
</a>
</g>
</g>
<!-- Node2&#45;&gt;Node3 -->
<g id="edge2_Node000002_Node000003" class="edge">
<title>Node2&#45;&gt;Node3</title>
<g id="a_edge2_Node000002_Node000003"><a xlink:title=" ">
<path fill="none" stroke="#63b8ff" d="M466.16,-110.02C469.8,-97.61 476.55,-74.72 482.5,-55.25 484.99,-47.1 487.79,-38.12 490.23,-30.38"/>
<polygon fill="#63b8ff" stroke="#63b8ff" points="493.54,-31.54 493.22,-20.95 486.86,-29.43 493.54,-31.54"/>
</a>
</g>
</g>
<!-- Node4 -->
<g id="Node000004" class="node">
<title>Node4</title>
<g id="a_Node000004"><a xlink:title=" ">
<polygon fill="#e0e0e0" stroke="#999999" points="263.5,-19.25 223.5,-19.25 223.5,0 263.5,0 263.5,-19.25"/>
<text text-anchor="middle" x="243.5" y="-5.75" font-family="Helvetica,sans-Serif" font-size="10.00">string</text>
</a>
</g>
</g>
<!-- Node2&#45;&gt;Node4 -->
<g id="edge3_Node000002_Node000004" class="edge">
<title>Node2&#45;&gt;Node4</title>
<g id="a_edge3_Node000002_Node000004"><a xlink:title=" ">
<path fill="none" stroke="#63b8ff" d="M451.37,-110.17C433.04,-96.92 396.87,-71.88 363.5,-55.25 334.3,-40.7 299.14,-28.17 274.46,-20.12"/>
<polygon fill="#63b8ff" stroke="#63b8ff" points="275.61,-16.82 265.02,-17.11 273.48,-23.48 275.61,-16.82"/>
</a>
</g>
</g>
<!-- Node5 -->
<g id="Node000005" class="node">
<title>Node5</title>
<g id="a_Node000005"><a xlink:title=" ">
<polygon fill="#e0e0e0" stroke="#999999" points="722.5,-74.5 664.5,-74.5 664.5,-55.25 722.5,-55.25 722.5,-74.5"/>
<text text-anchor="middle" x="693.5" y="-61" font-family="Helvetica,sans-Serif" font-size="10.00">functional</text>
</a>
</g>
</g>
<!-- Node2&#45;&gt;Node5 -->
<g id="edge4_Node000002_Node000005" class="edge">
<title>Node2&#45;&gt;Node5</title>
<g id="a_edge4_Node000002_Node000005"><a xlink:title=" ">
<path fill="none" stroke="#63b8ff" d="M502.78,-110.03C544.73,-100.32 610.9,-85 653.23,-75.2"/>
<polygon fill="#63b8ff" stroke="#63b8ff" points="653.81,-78.66 662.76,-72.99 652.23,-71.84 653.81,-78.66"/>
</a>
</g>
</g>
<!-- Node6 -->
<g id="Node000006" class="node">
<title>Node6</title>
<g id="a_Node000006"><a xlink:href="_graph_8h.html" target="_top" xlink:title=" ">
<polygon fill="white" stroke="#666666" points="646,-74.5 525,-74.5 525,-55.25 646,-55.25 646,-74.5"/>
<text text-anchor="middle" x="585.5" y="-61" font-family="Helvetica,sans-Serif" font-size="10.00">data_structures/Graph.h</text>
</a>
</g>
</g>
<!-- Node2&#45;&gt;Node6 -->
<g id="edge5_Node000002_Node000006" class="edge">
<title>Node2&#45;&gt;Node6</title>
<g id="a_edge5_Node000002_Node000006"><a xlink:title=" ">
<path fill="none" stroke="#63b8ff" d="M484.2,-110.09C503.39,-101.72 532.21,-89.13 554.22,-79.53"/>
<polygon fill="#63b8ff" stroke="#63b8ff" points="555.55,-82.77 563.32,-75.56 552.75,-76.35 555.55,-82.77"/>
</a>
</g>
</g>
<!-- Node11 -->
<g id="Node000011" class="node">
<title>Node11</title>
<g id="a_Node000011"><a xlink:href="_submission_8h.html" target="_top" xlink:title=" ">
<polygon fill="white" stroke="#666666" points="236.38,-74.5 126.62,-74.5 126.62,-55.25 236.38,-55.25 236.38,-74.5"/>
<text text-anchor="middle" x="181.5" y="-61" font-family="Helvetica,sans-Serif" font-size="10.00">models/Submission.h</text>
</a>
</g>
</g>
<!-- Node2&#45;&gt;Node11 -->
<g id="edge11_Node000002_Node000011" class="edge">
<title>Node2&#45;&gt;Node11</title>
<g id="a_edge11_Node000002_Node000011"><a xlink:title=" ">
<path fill="none" stroke="#63b8ff" d="M415.34,-110.03C366.98,-100.9 292.38,-86.81 240.49,-77.01"/>
<polygon fill="#63b8ff" stroke="#63b8ff" points="241.42,-73.63 230.95,-75.21 240.12,-80.51 241.42,-73.63"/>
</a>
</g>
</g>
<!-- Node12 -->
<g id="Node000012" class="node">
<title>Node12</title>
<g id="a_Node000012"><a xlink:href="_reviewer_8h.html" target="_top" xlink:title=" ">
<polygon fill="white" stroke="#666666" points="354.12,-74.5 254.88,-74.5 254.88,-55.25 354.12,-55.25 354.12,-74.5"/>
<text text-anchor="middle" x="304.5" y="-61" font-family="Helvetica,sans-Serif" font-size="10.00">models/Reviewer.h</text>
</a>
</g>
</g>
<!-- Node2&#45;&gt;Node12 -->
<g id="edge13_Node000002_Node000012" class="edge">
<title>Node2&#45;&gt;Node12</title>
<g id="a_edge13_Node000002_Node000012"><a xlink:title=" ">
<path fill="none" stroke="#63b8ff" d="M436.53,-110.09C410.6,-101.41 371.19,-88.21 342.17,-78.49"/>
<polygon fill="#63b8ff" stroke="#63b8ff" points="343.63,-75.29 333.04,-75.43 341.41,-81.93 343.63,-75.29"/>
</a>
</g>
</g>
<!-- Node13 -->
<g id="Node000013" class="node">
<title>Node13</title>
<g id="a_Node000013"><a xlink:href="_parameters_8h.html" target="_top" xlink:title=" ">
<polygon fill="white" stroke="#666666" points="109,-74.5 0,-74.5 0,-55.25 109,-55.25 109,-74.5"/>
<text text-anchor="middle" x="54.5" y="-61" font-family="Helvetica,sans-Serif" font-size="10.00">models/Parameters.h</text>
</a>
</g>
</g>
<!-- Node2&#45;&gt;Node13 -->
<g id="edge15_Node000002_Node000013" class="edge">
<title>Node2&#45;&gt;Node13</title>
<g id="a_edge15_Node000002_Node000013"><a xlink:title=" ">
<path fill="none" stroke="#63b8ff" d="M393.56,-110.27C326.19,-101.7 221.05,-88.23 120.73,-74.92"/>
<polygon fill="#63b8ff" stroke="#63b8ff" points="121.35,-71.47 110.97,-73.63 120.42,-78.41 121.35,-71.47"/>
</a>
</g>
</g>
<!-- Node6&#45;&gt;Node3 -->
<g id="edge7_Node000006_Node000003" class="edge">
<title>Node6&#45;&gt;Node3</title>
<g id="a_edge7_Node000006_Node000003"><a xlink:title=" ">
<path fill="none" stroke="#63b8ff" d="M570.4,-54.84C556.98,-46.81 537.09,-34.91 521.33,-25.48"/>
<polygon fill="#63b8ff" stroke="#63b8ff" points="523.35,-22.61 512.97,-20.48 519.75,-28.62 523.35,-22.61"/>
</a>
</g>
</g>
<!-- Node6&#45;&gt;Node7 -->
<g id="edge6_Node000006_Node000007" class="edge">
<title>Node6&#45;&gt;Node7</title>
<g id="a_edge6_Node000006_Node000007"><a xlink:title=" ">
<path fill="none" stroke="#63b8ff" d="M626.83,-54.78C672.31,-44.77 744.82,-28.82 789.1,-19.08"/>
<polygon fill="#63b8ff" stroke="#63b8ff" points="789.76,-22.51 798.77,-16.95 788.26,-15.68 789.76,-22.51"/>
</a>
</g>
</g>
<!-- Node8 -->
<g id="Node000008" class="node">
<title>Node8</title>
<g id="a_Node000008"><a xlink:title=" ">
<polygon fill="#e0e0e0" stroke="#999999" points="743.62,-19.25 701.38,-19.25 701.38,0 743.62,0 743.62,-19.25"/>
<text text-anchor="middle" x="722.5" y="-5.75" font-family="Helvetica,sans-Serif" font-size="10.00">queue</text>
</a>
</g>
</g>
<!-- Node6&#45;&gt;Node8 -->
<g id="edge8_Node000006_Node000008" class="edge">
<title>Node6&#45;&gt;Node8</title>
<g id="a_edge8_Node000006_Node000008"><a xlink:title=" ">
<path fill="none" stroke="#63b8ff" d="M608.74,-54.84C631.22,-46.11 665.46,-32.79 690.51,-23.06"/>
<polygon fill="#63b8ff" stroke="#63b8ff" points="691.49,-26.43 699.54,-19.55 688.96,-19.91 691.49,-26.43"/>
</a>
</g>
</g>
<!-- Node9 -->
<g id="Node000009" class="node">
<title>Node9</title>
<g id="a_Node000009"><a xlink:title=" ">
<polygon fill="#e0e0e0" stroke="#999999" points="605.12,-19.25 565.88,-19.25 565.88,0 605.12,0 605.12,-19.25"/>
<text text-anchor="middle" x="585.5" y="-5.75" font-family="Helvetica,sans-Serif" font-size="10.00">limits</text>
</a>
</g>
</g>
<!-- Node6&#45;&gt;Node9 -->
<g id="edge9_Node000006_Node000009" class="edge">
<title>Node6&#45;&gt;Node9</title>
<g id="a_edge9_Node000006_Node000009"><a xlink:title=" ">
<path fill="none" stroke="#63b8ff" d="M585.5,-55.08C585.5,-48.57 585.5,-39.42 585.5,-31.12"/>
<polygon fill="#63b8ff" stroke="#63b8ff" points="589,-31.12 585.5,-21.12 582,-31.12 589,-31.12"/>
</a>
</g>
</g>
<!-- Node6&#45;&gt;Node10 -->
<g id="edge10_Node000006_Node000010" class="edge">
<title>Node6&#45;&gt;Node10</title>
<g id="a_edge10_Node000006_Node000010"><a xlink:title=" ">
<path fill="none" stroke="#63b8ff" d="M642.71,-54.78C710.68,-43.98 822.29,-26.24 881.21,-16.87"/>
<polygon fill="#63b8ff" stroke="#63b8ff" points="881.45,-20.38 890.77,-15.35 880.35,-13.46 881.45,-20.38"/>
</a>
</g>
</g>
<!-- Node11&#45;&gt;Node4 -->
<g id="edge12_Node000011_Node000004" class="edge">
<title>Node11&#45;&gt;Node4</title>
<g id="a_edge12_Node000011_Node000004"><a xlink:title=" ">
<path fill="none" stroke="#63b8ff" d="M192.02,-54.84C200.89,-47.22 213.81,-36.12 224.49,-26.95"/>
<polygon fill="#63b8ff" stroke="#63b8ff" points="226.68,-29.68 231.99,-20.51 222.12,-24.37 226.68,-29.68"/>
</a>
</g>
</g>
<!-- Node12&#45;&gt;Node4 -->
<g id="edge14_Node000012_Node000004" class="edge">
<title>Node12&#45;&gt;Node4</title>
<g id="a_edge14_Node000012_Node000004"><a xlink:title=" ">
<path fill="none" stroke="#63b8ff" d="M294.15,-54.84C285.42,-47.22 272.71,-36.12 262.2,-26.95"/>
<polygon fill="#63b8ff" stroke="#63b8ff" points="264.67,-24.46 254.84,-20.52 260.07,-29.73 264.67,-24.46"/>
</a>
</g>
</g>
<!-- Node13&#45;&gt;Node4 -->
<g id="edge16_Node000013_Node000004" class="edge">
<title>Node13&#45;&gt;Node4</title>
<g id="a_edge16_Node000013_Node000004"><a xlink:title=" ">
<path fill="none" stroke="#63b8ff" d="M86.56,-54.84C121.67,-44.95 177.58,-29.2 212.33,-19.41"/>
<polygon fill="#63b8ff" stroke="#63b8ff" points="213.11,-22.82 221.78,-16.74 211.21,-16.09 213.11,-22.82"/>
</a>
</g>
</g>
<!-- Node14&#45;&gt;Node3 -->
<g id="edge22_Node000014_Node000003" class="edge">
<title>Node14&#45;&gt;Node3</title>
<g id="a_edge22_Node000014_Node000003"><a xlink:title=" ">
<path fill="none" stroke="#63b8ff" d="M316.87,-110.06C350.81,-91.27 429.09,-47.94 470.2,-25.18"/>
<polygon fill="#63b8ff" stroke="#63b8ff" points="471.66,-28.38 478.71,-20.47 468.27,-22.25 471.66,-28.38"/>
</a>
</g>
</g>
<!-- Node14&#45;&gt;Node6 -->
<g id="edge18_Node000014_Node000006" class="edge">
<title>Node14&#45;&gt;Node6</title>
<g id="a_edge18_Node000014_Node000006"><a xlink:title=" ">
<path fill="none" stroke="#63b8ff" d="M349.17,-110.03C398.05,-100.9 473.44,-86.81 525.88,-77.01"/>
<polygon fill="#63b8ff" stroke="#63b8ff" points="526.36,-80.49 535.54,-75.21 525.07,-73.61 526.36,-80.49"/>
</a>
</g>
</g>
<!-- Node14&#45;&gt;Node11 -->
<g id="edge19_Node000014_Node000011" class="edge">
<title>Node14&#45;&gt;Node11</title>
<g id="a_edge19_Node000014_Node000011"><a xlink:title=" ">
<path fill="none" stroke="#63b8ff" d="M280.31,-110.09C261.59,-101.72 233.48,-89.13 212.02,-79.53"/>
<polygon fill="#63b8ff" stroke="#63b8ff" points="213.72,-76.46 203.17,-75.57 210.87,-82.85 213.72,-76.46"/>
</a>
</g>
</g>
<!-- Node14&#45;&gt;Node12 -->
<g id="edge20_Node000014_Node000012" class="edge">
<title>Node14&#45;&gt;Node12</title>
<g id="a_edge20_Node000014_Node000012"><a xlink:title=" ">
<path fill="none" stroke="#63b8ff" d="M301.16,-110.33C301.66,-103.74 302.35,-94.46 302.98,-86.07"/>
<polygon fill="#63b8ff" stroke="#63b8ff" points="306.45,-86.6 303.71,-76.37 299.47,-86.08 306.45,-86.6"/>
</a>
</g>
</g>
<!-- Node14&#45;&gt;Node13 -->
<g id="edge21_Node000014_Node000013" class="edge">
<title>Node14&#45;&gt;Node13</title>
<g id="a_edge21_Node000014_Node000013"><a xlink:title=" ">
<path fill="none" stroke="#63b8ff" d="M258.49,-110.03C216.74,-100.99 152.59,-87.11 107.39,-77.32"/>
<polygon fill="#63b8ff" stroke="#63b8ff" points="108.33,-73.95 97.82,-75.25 106.85,-80.79 108.33,-73.95"/>
</a>
</g>
</g>
<!-- Node15&#45;&gt;Node3 -->
<g id="edge25_Node000015_Node000003" class="edge">
<title>Node15&#45;&gt;Node3</title>
<g id="a_edge25_Node000015_Node000003"><a xlink:title=" ">
<path fill="none" stroke="#63b8ff" d="M592.94,-111.89C566.07,-105.82 536.79,-94.74 516.5,-74.5 504.91,-62.94 500.02,-44.76 497.96,-30.75"/>
<polygon fill="#63b8ff" stroke="#63b8ff" points="501.45,-30.44 496.92,-20.86 494.49,-31.18 501.45,-30.44"/>
</a>
</g>
</g>
<!-- Node15&#45;&gt;Node5 -->
<g id="edge27_Node000015_Node000005" class="edge">
<title>Node15&#45;&gt;Node5</title>
<g id="a_edge27_Node000015_Node000005"><a xlink:title=" ">
<path fill="none" stroke="#63b8ff" d="M665.95,-110.33C670.27,-103.36 676.46,-93.37 681.88,-84.62"/>
<polygon fill="#63b8ff" stroke="#63b8ff" points="684.84,-86.49 687.14,-76.15 678.89,-82.8 684.84,-86.49"/>
</a>
</g>
</g>
<!-- Node15&#45;&gt;Node6 -->
<g id="edge24_Node000015_Node000006" class="edge">
<title>Node15&#45;&gt;Node6</title>
<g id="a_edge24_Node000015_Node000006"><a xlink:title=" ">
<path fill="none" stroke="#63b8ff" d="M647.78,-110.09C636.79,-102.29 620.66,-90.84 607.57,-81.54"/>
<polygon fill="#63b8ff" stroke="#63b8ff" points="609.7,-78.76 599.52,-75.83 605.65,-84.47 609.7,-78.76"/>
</a>
</g>
</g>
<!-- Node16 -->
<g id="Node000016" class="node">
<title>Node16</title>
<g id="a_Node000016"><a xlink:title=" ">
<polygon fill="#e0e0e0" stroke="#999999" points="798.88,-74.5 740.12,-74.5 740.12,-55.25 798.88,-55.25 798.88,-74.5"/>
<text text-anchor="middle" x="769.5" y="-61" font-family="Helvetica,sans-Serif" font-size="10.00">stdexcept</text>
</a>
</g>
</g>
<!-- Node15&#45;&gt;Node16 -->
<g id="edge26_Node000015_Node000016" class="edge">
<title>Node15&#45;&gt;Node16</title>
<g id="a_edge26_Node000015_Node000016"><a xlink:title=" ">
<path fill="none" stroke="#63b8ff" d="M678.99,-110.09C695.9,-101.83 721.19,-89.48 740.74,-79.93"/>
<polygon fill="#63b8ff" stroke="#63b8ff" points="742.11,-83.15 749.56,-75.62 739.04,-76.86 742.11,-83.15"/>
</a>
</g>
</g>
<!-- Node17&#45;&gt;Node3 -->
<g id="edge31_Node000017_Node000003" class="edge">
<title>Node17&#45;&gt;Node3</title>
<g id="a_edge31_Node000017_Node000003"><a xlink:title=" ">
<path fill="none" stroke="#63b8ff" d="M813.18,-110.4C816.78,-96.75 821.24,-70.37 807.5,-55.25 769.6,-13.55 612.28,-27.26 556.5,-19.25 547.83,-18.01 538.47,-16.66 529.76,-15.41"/>
<polygon fill="#63b8ff" stroke="#63b8ff" points="530.34,-11.96 519.94,-14 529.34,-18.88 530.34,-11.96"/>
</a>
</g>
</g>
<!-- Node17&#45;&gt;Node5 -->
<g id="edge33_Node000017_Node000005" class="edge">
<title>Node17&#45;&gt;Node5</title>
<g id="a_edge33_Node000017_Node000005"><a xlink:title=" ">
<path fill="none" stroke="#63b8ff" d="M790.65,-110.09C772.33,-101.75 744.85,-89.25 723.79,-79.66"/>
<polygon fill="#63b8ff" stroke="#63b8ff" points="725.37,-76.54 714.82,-75.58 722.47,-82.91 725.37,-76.54"/>
</a>
</g>
</g>
<!-- Node17&#45;&gt;Node6 -->
<g id="edge29_Node000017_Node000006" class="edge">
<title>Node17&#45;&gt;Node6</title>
<g id="a_edge29_Node000017_Node000006"><a xlink:title=" ">
<path fill="none" stroke="#63b8ff" d="M772.08,-110.03C734.22,-101.07 676.21,-87.34 634.93,-77.57"/>
<polygon fill="#63b8ff" stroke="#63b8ff" points="635.77,-74.18 625.24,-75.28 634.16,-80.99 635.77,-74.18"/>
</a>
</g>
</g>
<!-- Node17&#45;&gt;Node8 -->
<g id="edge30_Node000017_Node000008" class="edge">
<title>Node17&#45;&gt;Node8</title>
<g id="a_edge30_Node000017_Node000008"><a xlink:title=" ">
<path fill="none" stroke="#63b8ff" d="M820.18,-110.38C833.11,-97.6 853.04,-73.39 840.5,-55.25 821.44,-27.66 782.96,-17.11 755.12,-13.09"/>
<polygon fill="#63b8ff" stroke="#63b8ff" points="755.77,-9.64 745.42,-11.91 754.93,-16.59 755.77,-9.64"/>
</a>
</g>
</g>
<!-- Node17&#45;&gt;Node16 -->
<g id="edge32_Node000017_Node000016" class="edge">
<title>Node17&#45;&gt;Node16</title>
<g id="a_edge32_Node000017_Node000016"><a xlink:title=" ">
<path fill="none" stroke="#63b8ff" d="M803.73,-110.33C798.18,-103.13 790.16,-92.71 783.27,-83.76"/>
<polygon fill="#63b8ff" stroke="#63b8ff" points="786.21,-81.85 777.34,-76.06 780.67,-86.12 786.21,-81.85"/>
</a>
</g>
</g>
</g>
</svg>
