<?xml version="1.0" encoding="UTF-8" standalone="no"?>
<!DOCTYPE svg PUBLIC "-//W3C//DTD SVG 1.1//EN"
 "http://www.w3.org/Graphics/SVG/1.1/DTD/svg11.dtd">
<!-- Generated by graphviz version 12.2.1 (0)
 -->
<!-- Title: utils/AssignmentLogic.h Pages: 1 -->
<svg width="672pt" height="149pt"
 viewBox="0.00 0.00 672.38 149.00" xmlns="http://www.w3.org/2000/svg" xmlns:xlink="http://www.w3.org/1999/xlink">
<g id="graph0" class="graph" transform="scale(1 1) rotate(0) translate(4 145)">
<title>utils/AssignmentLogic.h</title>
<!-- Node1 -->
<g id="Node000001" class="node">
<title>Node1</title>
<g id="a_Node000001"><a xlink:title="Logic for assigning reviewers to submissions based on Max Flow.">
<polygon fill="#999999" stroke="#666666" points="304.38,-141 184.12,-141 184.12,-121.75 304.38,-121.75 304.38,-141"/>
<text text-anchor="middle" x="244.25" y="-127.5" font-family="Helvetica,sans-Serif" font-size="10.00">utils/AssignmentLogic.h</text>
</a>
</g>
</g>
<!-- Node2 -->
<g id="Node000002" class="node">
<title>Node2</title>
<g id="a_Node000002"><a xlink:title=" ">
<polygon fill="#e0e0e0" stroke="#999999" points="400.75,-19.25 357.75,-19.25 357.75,0 400.75,0 400.75,-19.25"/>
<text text-anchor="middle" x="379.25" y="-5.75" font-family="Helvetica,sans-Serif" font-size="10.00">vector</text>
</a>
</g>
</g>
<!-- Node1&#45;&gt;Node2 -->
<g id="edge1_Node000001_Node000002" class="edge">
<title>Node1&#45;&gt;Node2</title>
<g id="a_edge1_Node000001_Node000002"><a xlink:title=" ">
<path fill="none" stroke="#63b8ff" d="M304.69,-123.98C329.8,-118.1 356.86,-106.93 373.25,-85.75 385.25,-70.25 385.26,-47.16 383.2,-30.68"/>
<polygon fill="#63b8ff" stroke="#63b8ff" points="386.7,-30.39 381.64,-21.09 379.79,-31.52 386.7,-30.39"/>
</a>
</g>
</g>
<!-- Node3 -->
<g id="Node000003" class="node">
<title>Node3</title>
<g id="a_Node000003"><a xlink:title=" ">
<polygon fill="#e0e0e0" stroke="#999999" points="193.25,-19.25 153.25,-19.25 153.25,0 193.25,0 193.25,-19.25"/>
<text text-anchor="middle" x="173.25" y="-5.75" font-family="Helvetica,sans-Serif" font-size="10.00">string</text>
</a>
</g>
</g>
<!-- Node1&#45;&gt;Node3 -->
<g id="edge2_Node000001_Node000003" class="edge">
<title>Node1&#45;&gt;Node3</title>
<g id="a_edge2_Node000001_Node000003"><a xlink:title=" ">
<path fill="none" stroke="#63b8ff" d="M183.86,-123.35C160.32,-117.33 135.59,-106.21 121.25,-85.75 113.47,-74.65 115.59,-67.57 121.25,-55.25 126.71,-43.37 137.06,-33.47 147.1,-26.03"/>
<polygon fill="#63b8ff" stroke="#63b8ff" points="148.9,-29.04 155.21,-20.53 144.97,-23.25 148.9,-29.04"/>
</a>
</g>
</g>
<!-- Node4 -->
<g id="Node000004" class="node">
<title>Node4</title>
<g id="a_Node000004"><a xlink:title=" ">
<polygon fill="#e0e0e0" stroke="#999999" points="188.25,-80.12 130.25,-80.12 130.25,-60.88 188.25,-60.88 188.25,-80.12"/>
<text text-anchor="middle" x="159.25" y="-66.62" font-family="Helvetica,sans-Serif" font-size="10.00">functional</text>
</a>
</g>
</g>
<!-- Node1&#45;&gt;Node4 -->
<g id="edge3_Node000001_Node000004" class="edge">
<title>Node1&#45;&gt;Node4</title>
<g id="a_edge3_Node000001_Node000004"><a xlink:title=" ">
<path fill="none" stroke="#63b8ff" d="M231.34,-121.43C218.11,-112.27 197.28,-97.84 181.41,-86.85"/>
<polygon fill="#63b8ff" stroke="#63b8ff" points="183.74,-84.2 173.53,-81.39 179.75,-89.96 183.74,-84.2"/>
</a>
</g>
</g>
<!-- Node5 -->
<g id="Node000005" class="node">
<title>Node5</title>
<g id="a_Node000005"><a xlink:href="_graph_8h.html" target="_top" xlink:title=" ">
<polygon fill="white" stroke="#666666" points="537.5,-85.75 445,-85.75 445,-55.25 537.5,-55.25 537.5,-85.75"/>
<text text-anchor="start" x="453" y="-72.25" font-family="Helvetica,sans-Serif" font-size="10.00">../data_structures</text>
<text text-anchor="middle" x="491.25" y="-61" font-family="Helvetica,sans-Serif" font-size="10.00">/Graph.h</text>
</a>
</g>
</g>
<!-- Node1&#45;&gt;Node5 -->
<g id="edge4_Node000001_Node000005" class="edge">
<title>Node1&#45;&gt;Node5</title>
<g id="a_edge4_Node000001_Node000005"><a xlink:title=" ">
<path fill="none" stroke="#63b8ff" d="M282.3,-121.3C322.68,-111.68 386.97,-96.36 433.58,-85.25"/>
<polygon fill="#63b8ff" stroke="#63b8ff" points="434.33,-88.66 443.25,-82.94 432.71,-81.86 434.33,-88.66"/>
</a>
</g>
</g>
<!-- Node10 -->
<g id="Node000010" class="node">
<title>Node10</title>
<g id="a_Node000010"><a xlink:href="_submission_8h.html" target="_top" xlink:title=" ">
<polygon fill="white" stroke="#666666" points="281.88,-80.12 206.62,-80.12 206.62,-60.88 281.88,-60.88 281.88,-80.12"/>
<text text-anchor="middle" x="244.25" y="-66.62" font-family="Helvetica,sans-Serif" font-size="10.00">Submission.h</text>
</a>
</g>
</g>
<!-- Node1&#45;&gt;Node10 -->
<g id="edge10_Node000001_Node000010" class="edge">
<title>Node1&#45;&gt;Node10</title>
<g id="a_edge10_Node000001_Node000010"><a xlink:title=" ">
<path fill="none" stroke="#63b8ff" d="M244.25,-121.43C244.25,-113.65 244.25,-102.08 244.25,-92.03"/>
<polygon fill="#63b8ff" stroke="#63b8ff" points="247.75,-92.04 244.25,-82.04 240.75,-92.04 247.75,-92.04"/>
</a>
</g>
</g>
<!-- Node11 -->
<g id="Node000011" class="node">
<title>Node11</title>
<g id="a_Node000011"><a xlink:href="_reviewer_8h.html" target="_top" xlink:title=" ">
<polygon fill="white" stroke="#666666" points="364.62,-80.12 299.88,-80.12 299.88,-60.88 364.62,-60.88 364.62,-80.12"/>
<text text-anchor="middle" x="332.25" y="-66.62" font-family="Helvetica,sans-Serif" font-size="10.00">Reviewer.h</text>
</a>
</g>
</g>
<!-- Node1&#45;&gt;Node11 -->
<g id="edge12_Node000001_Node000011" class="edge">
<title>Node1&#45;&gt;Node11</title>
<g id="a_edge12_Node000001_Node000011"><a xlink:title=" ">
<path fill="none" stroke="#63b8ff" d="M257.62,-121.43C271.31,-112.27 292.87,-97.84 309.31,-86.85"/>
<polygon fill="#63b8ff" stroke="#63b8ff" points="311.14,-89.84 317.5,-81.37 307.24,-84.02 311.14,-89.84"/>
</a>
</g>
</g>
<!-- Node12 -->
<g id="Node000012" class="node">
<title>Node12</title>
<g id="a_Node000012"><a xlink:href="_parameters_8h.html" target="_top" xlink:title=" ">
<polygon fill="white" stroke="#666666" points="74.5,-80.12 0,-80.12 0,-60.88 74.5,-60.88 74.5,-80.12"/>
<text text-anchor="middle" x="37.25" y="-66.62" font-family="Helvetica,sans-Serif" font-size="10.00">Parameters.h</text>
</a>
</g>
</g>
<!-- Node1&#45;&gt;Node12 -->
<g id="edge14_Node000001_Node000012" class="edge">
<title>Node1&#45;&gt;Node12</title>
<g id="a_edge14_Node000001_Node000012"><a xlink:title=" ">
<path fill="none" stroke="#63b8ff" d="M212.36,-121.3C176.88,-111.21 119.38,-94.86 80.01,-83.66"/>
<polygon fill="#63b8ff" stroke="#63b8ff" points="81.21,-80.36 70.63,-80.99 79.29,-87.1 81.21,-80.36"/>
</a>
</g>
</g>
<!-- Node5&#45;&gt;Node2 -->
<g id="edge6_Node000005_Node000002" class="edge">
<title>Node5&#45;&gt;Node2</title>
<g id="a_edge6_Node000005_Node000002"><a xlink:title=" ">
<path fill="none" stroke="#63b8ff" d="M463.28,-54.8C445.89,-45.66 423.65,-33.97 406.42,-24.91"/>
<polygon fill="#63b8ff" stroke="#63b8ff" points="408.25,-21.91 397.77,-20.36 404.99,-28.11 408.25,-21.91"/>
</a>
</g>
</g>
<!-- Node6 -->
<g id="Node000006" class="node">
<title>Node6</title>
<g id="a_Node000006"><a xlink:title=" ">
<polygon fill="#e0e0e0" stroke="#999999" points="604,-19.25 550.5,-19.25 550.5,0 604,0 604,-19.25"/>
<text text-anchor="middle" x="577.25" y="-5.75" font-family="Helvetica,sans-Serif" font-size="10.00">iostream</text>
</a>
</g>
</g>
<!-- Node5&#45;&gt;Node6 -->
<g id="edge5_Node000005_Node000006" class="edge">
<title>Node5&#45;&gt;Node6</title>
<g id="a_edge5_Node000005_Node000006"><a xlink:title=" ">
<path fill="none" stroke="#63b8ff" d="M512.51,-54.95C525.35,-46.15 541.7,-34.96 554.76,-26.02"/>
<polygon fill="#63b8ff" stroke="#63b8ff" points="556.47,-29.09 562.74,-20.56 552.51,-23.32 556.47,-29.09"/>
</a>
</g>
</g>
<!-- Node7 -->
<g id="Node000007" class="node">
<title>Node7</title>
<g id="a_Node000007"><a xlink:title=" ">
<polygon fill="#e0e0e0" stroke="#999999" points="664.38,-19.25 622.12,-19.25 622.12,0 664.38,0 664.38,-19.25"/>
<text text-anchor="middle" x="643.25" y="-5.75" font-family="Helvetica,sans-Serif" font-size="10.00">queue</text>
</a>
</g>
</g>
<!-- Node5&#45;&gt;Node7 -->
<g id="edge7_Node000005_Node000007" class="edge">
<title>Node5&#45;&gt;Node7</title>
<g id="a_edge7_Node000005_Node000007"><a xlink:title=" ">
<path fill="none" stroke="#63b8ff" d="M529.21,-54.8C554.42,-45.03 587.14,-32.36 611.06,-23.09"/>
<polygon fill="#63b8ff" stroke="#63b8ff" points="612.23,-26.39 620.29,-19.52 609.7,-19.87 612.23,-26.39"/>
</a>
</g>
</g>
<!-- Node8 -->
<g id="Node000008" class="node">
<title>Node8</title>
<g id="a_Node000008"><a xlink:title=" ">
<polygon fill="#e0e0e0" stroke="#999999" points="457.88,-19.25 418.62,-19.25 418.62,0 457.88,0 457.88,-19.25"/>
<text text-anchor="middle" x="438.25" y="-5.75" font-family="Helvetica,sans-Serif" font-size="10.00">limits</text>
</a>
</g>
</g>
<!-- Node5&#45;&gt;Node8 -->
<g id="edge8_Node000005_Node000008" class="edge">
<title>Node5&#45;&gt;Node8</title>
<g id="a_edge8_Node000005_Node000008"><a xlink:title=" ">
<path fill="none" stroke="#63b8ff" d="M478.15,-54.95C470.86,-46.84 461.72,-36.7 454.04,-28.16"/>
<polygon fill="#63b8ff" stroke="#63b8ff" points="456.72,-25.92 447.43,-20.83 451.52,-30.6 456.72,-25.92"/>
</a>
</g>
</g>
<!-- Node9 -->
<g id="Node000009" class="node">
<title>Node9</title>
<g id="a_Node000009"><a xlink:title=" ">
<polygon fill="#e0e0e0" stroke="#999999" points="532.12,-19.25 476.38,-19.25 476.38,0 532.12,0 532.12,-19.25"/>
<text text-anchor="middle" x="504.25" y="-5.75" font-family="Helvetica,sans-Serif" font-size="10.00">algorithm</text>
</a>
</g>
</g>
<!-- Node5&#45;&gt;Node9 -->
<g id="edge9_Node000005_Node000009" class="edge">
<title>Node5&#45;&gt;Node9</title>
<g id="a_edge9_Node000005_Node000009"><a xlink:title=" ">
<path fill="none" stroke="#63b8ff" d="M494.46,-54.95C496.06,-47.71 498.02,-38.84 499.76,-30.94"/>
<polygon fill="#63b8ff" stroke="#63b8ff" points="503.18,-31.7 501.92,-21.18 496.35,-30.19 503.18,-31.7"/>
</a>
</g>
</g>
<!-- Node10&#45;&gt;Node3 -->
<g id="edge11_Node000010_Node000003" class="edge">
<title>Node10&#45;&gt;Node3</title>
<g id="a_edge11_Node000010_Node000003"><a xlink:title=" ">
<path fill="none" stroke="#63b8ff" d="M233.47,-60.56C222.73,-51.65 206,-37.78 192.9,-26.92"/>
<polygon fill="#63b8ff" stroke="#63b8ff" points="195.23,-24.31 185.3,-20.62 190.76,-29.69 195.23,-24.31"/>
</a>
</g>
</g>
<!-- Node11&#45;&gt;Node3 -->
<g id="edge13_Node000011_Node000003" class="edge">
<title>Node11&#45;&gt;Node3</title>
<g id="a_edge13_Node000011_Node000003"><a xlink:title=" ">
<path fill="none" stroke="#63b8ff" d="M307.75,-60.43C279.95,-50.13 234.53,-33.32 204.27,-22.11"/>
<polygon fill="#63b8ff" stroke="#63b8ff" points="205.5,-18.83 194.9,-18.64 203.07,-25.4 205.5,-18.83"/>
</a>
</g>
</g>
<!-- Node12&#45;&gt;Node3 -->
<g id="edge15_Node000012_Node000003" class="edge">
<title>Node12&#45;&gt;Node3</title>
<g id="a_edge15_Node000012_Node000003"><a xlink:title=" ">
<path fill="none" stroke="#63b8ff" d="M58.2,-60.43C80.76,-50.66 116.87,-35.03 142.61,-23.89"/>
<polygon fill="#63b8ff" stroke="#63b8ff" points="143.77,-27.2 151.55,-20.02 140.98,-20.78 143.77,-27.2"/>
</a>
</g>
</g>
</g>
</svg>
