<?xml version="1.0" encoding="UTF-8" standalone="no"?>
<!DOCTYPE svg PUBLIC "-//W3C//DTD SVG 1.1//EN"
 "http://www.w3.org/Graphics/SVG/1.1/DTD/svg11.dtd">
<!-- Generated by graphviz version 12.2.1 (0)
 -->
<!-- Title: ui/ConferenceApp.h Pages: 1 -->
<svg width="711pt" height="193pt"
 viewBox="0.00 0.00 710.70 193.00" xmlns="http://www.w3.org/2000/svg" xmlns:xlink="http://www.w3.org/1999/xlink">
<g id="graph0" class="graph" transform="scale(1 1) rotate(0) translate(4 189)">
<title>ui/ConferenceApp.h</title>
<!-- Node1 -->
<g id="Node000001" class="node">
<title>Node1</title>
<g id="a_Node000001"><a xlink:title=" ">
<polygon fill="#999999" stroke="#666666" points="383.32,-185 281.07,-185 281.07,-165.75 383.32,-165.75 383.32,-185"/>
<text text-anchor="middle" x="332.2" y="-171.5" font-family="Helvetica,sans-Serif" font-size="10.00">ui/ConferenceApp.h</text>
</a>
</g>
</g>
<!-- Node2 -->
<g id="Node000002" class="node">
<title>Node2</title>
<g id="a_Node000002"><a xlink:title=" ">
<polygon fill="#e0e0e0" stroke="#999999" points="702.7,-19.25 659.7,-19.25 659.7,0 702.7,0 702.7,-19.25"/>
<text text-anchor="middle" x="681.2" y="-5.75" font-family="Helvetica,sans-Serif" font-size="10.00">vector</text>
</a>
</g>
</g>
<!-- Node1&#45;&gt;Node2 -->
<g id="edge1_Node000001_Node000002" class="edge">
<title>Node1&#45;&gt;Node2</title>
<g id="a_edge1_Node000001_Node000002"><a xlink:title=" ">
<path fill="none" stroke="#63b8ff" d="M383.6,-172.43C454.46,-167.02 582.02,-147.08 658.2,-74.5 670.34,-62.93 676.09,-44.48 678.8,-30.38"/>
<polygon fill="#63b8ff" stroke="#63b8ff" points="682.2,-31.3 680.26,-20.89 675.28,-30.24 682.2,-31.3"/>
</a>
</g>
</g>
<!-- Node3 -->
<g id="Node000003" class="node">
<title>Node3</title>
<g id="a_Node000003"><a xlink:title=" ">
<polygon fill="#e0e0e0" stroke="#999999" points="208.2,-19.25 168.2,-19.25 168.2,0 208.2,0 208.2,-19.25"/>
<text text-anchor="middle" x="188.2" y="-5.75" font-family="Helvetica,sans-Serif" font-size="10.00">string</text>
</a>
</g>
</g>
<!-- Node1&#45;&gt;Node3 -->
<g id="edge2_Node000001_Node000003" class="edge">
<title>Node1&#45;&gt;Node3</title>
<g id="a_edge2_Node000001_Node000003"><a xlink:title=" ">
<path fill="none" stroke="#63b8ff" d="M280.84,-166.18C197.71,-151.74 39.67,-119.04 7.2,-74.5 -31.27,-21.74 95.18,-12.33 156.63,-10.81"/>
<polygon fill="#63b8ff" stroke="#63b8ff" points="156.54,-14.31 166.47,-10.63 156.41,-7.31 156.54,-14.31"/>
</a>
</g>
</g>
<!-- Node4 -->
<g id="Node000004" class="node">
<title>Node4</title>
<g id="a_Node000004"><a xlink:href="_submission_8h.html" target="_top" xlink:title=" ">
<polygon fill="white" stroke="#666666" points="485.07,-74.5 375.32,-74.5 375.32,-55.25 485.07,-55.25 485.07,-74.5"/>
<text text-anchor="middle" x="430.2" y="-61" font-family="Helvetica,sans-Serif" font-size="10.00">models/Submission.h</text>
</a>
</g>
</g>
<!-- Node1&#45;&gt;Node4 -->
<g id="edge3_Node000001_Node000004" class="edge">
<title>Node1&#45;&gt;Node4</title>
<g id="a_edge3_Node000001_Node000004"><a xlink:title=" ">
<path fill="none" stroke="#63b8ff" d="M358.82,-165.35C376.07,-158.22 397.75,-146.63 411.2,-129.75 421.24,-117.14 425.98,-99.34 428.21,-85.72"/>
<polygon fill="#63b8ff" stroke="#63b8ff" points="431.64,-86.54 429.45,-76.17 424.7,-85.64 431.64,-86.54"/>
</a>
</g>
</g>
<!-- Node5 -->
<g id="Node000005" class="node">
<title>Node5</title>
<g id="a_Node000005"><a xlink:href="_reviewer_8h.html" target="_top" xlink:title=" ">
<polygon fill="white" stroke="#666666" points="115.82,-74.5 16.57,-74.5 16.57,-55.25 115.82,-55.25 115.82,-74.5"/>
<text text-anchor="middle" x="66.2" y="-61" font-family="Helvetica,sans-Serif" font-size="10.00">models/Reviewer.h</text>
</a>
</g>
</g>
<!-- Node1&#45;&gt;Node5 -->
<g id="edge5_Node000001_Node000005" class="edge">
<title>Node1&#45;&gt;Node5</title>
<g id="a_edge5_Node000001_Node000005"><a xlink:title=" ">
<path fill="none" stroke="#63b8ff" d="M309.97,-165.31C263.13,-146.2 154.05,-101.71 99.09,-79.29"/>
<polygon fill="#63b8ff" stroke="#63b8ff" points="100.52,-76.1 89.94,-75.56 97.88,-82.58 100.52,-76.1"/>
</a>
</g>
</g>
<!-- Node6 -->
<g id="Node000006" class="node">
<title>Node6</title>
<g id="a_Node000006"><a xlink:href="_parameters_8h.html" target="_top" xlink:title=" ">
<polygon fill="white" stroke="#666666" points="242.7,-74.5 133.7,-74.5 133.7,-55.25 242.7,-55.25 242.7,-74.5"/>
<text text-anchor="middle" x="188.2" y="-61" font-family="Helvetica,sans-Serif" font-size="10.00">models/Parameters.h</text>
</a>
</g>
</g>
<!-- Node1&#45;&gt;Node6 -->
<g id="edge7_Node000001_Node000006" class="edge">
<title>Node1&#45;&gt;Node6</title>
<g id="a_edge7_Node000001_Node000006"><a xlink:title=" ">
<path fill="none" stroke="#63b8ff" d="M313.42,-165.32C297.1,-157.06 273.15,-143.99 254.2,-129.75 235.55,-115.74 216.67,-96.89 203.91,-83.3"/>
<polygon fill="#63b8ff" stroke="#63b8ff" points="206.5,-80.96 197.15,-75.98 201.35,-85.7 206.5,-80.96"/>
</a>
</g>
</g>
<!-- Node7 -->
<g id="Node000007" class="node">
<title>Node7</title>
<g id="a_Node000007"><a xlink:href="_graph_8h.html" target="_top" xlink:title=" ">
<polygon fill="white" stroke="#666666" points="623.7,-74.5 502.7,-74.5 502.7,-55.25 623.7,-55.25 623.7,-74.5"/>
<text text-anchor="middle" x="563.2" y="-61" font-family="Helvetica,sans-Serif" font-size="10.00">data_structures/Graph.h</text>
</a>
</g>
</g>
<!-- Node1&#45;&gt;Node7 -->
<g id="edge9_Node000001_Node000007" class="edge">
<title>Node1&#45;&gt;Node7</title>
<g id="a_edge9_Node000001_Node000007"><a xlink:title=" ">
<path fill="none" stroke="#63b8ff" d="M352.52,-165.27C372.38,-156.33 403.44,-142.26 430.2,-129.75 466.29,-112.87 507.63,-92.92 534.51,-79.86"/>
<polygon fill="#63b8ff" stroke="#63b8ff" points="535.92,-83.06 543.39,-75.54 532.86,-76.77 535.92,-83.06"/>
</a>
</g>
</g>
<!-- Node12 -->
<g id="Node000012" class="node">
<title>Node12</title>
<g id="a_Node000012"><a xlink:href="_assignment_logic_8h.html" target="_top" xlink:title="Logic for assigning reviewers to submissions based on Max Flow.">
<polygon fill="white" stroke="#666666" points="401.7,-129.75 262.7,-129.75 262.7,-110.5 401.7,-110.5 401.7,-129.75"/>
<text text-anchor="middle" x="332.2" y="-116.25" font-family="Helvetica,sans-Serif" font-size="10.00">services/AssignmentLogic.h</text>
</a>
</g>
</g>
<!-- Node1&#45;&gt;Node12 -->
<g id="edge15_Node000001_Node000012" class="edge">
<title>Node1&#45;&gt;Node12</title>
<g id="a_edge15_Node000001_Node000012"><a xlink:title=" ">
<path fill="none" stroke="#63b8ff" d="M332.2,-165.58C332.2,-159.07 332.2,-149.92 332.2,-141.62"/>
<polygon fill="#63b8ff" stroke="#63b8ff" points="335.7,-141.62 332.2,-131.62 328.7,-141.62 335.7,-141.62"/>
</a>
</g>
</g>
<!-- Node4&#45;&gt;Node3 -->
<g id="edge4_Node000004_Node000003" class="edge">
<title>Node4&#45;&gt;Node3</title>
<g id="a_edge4_Node000004_Node000003"><a xlink:title=" ">
<path fill="none" stroke="#63b8ff" d="M388.87,-54.78C340.89,-44.22 262.82,-27.05 219.56,-17.53"/>
<polygon fill="#63b8ff" stroke="#63b8ff" points="220.59,-14.17 210.07,-15.44 219.08,-21 220.59,-14.17"/>
</a>
</g>
</g>
<!-- Node5&#45;&gt;Node3 -->
<g id="edge6_Node000005_Node000003" class="edge">
<title>Node5&#45;&gt;Node3</title>
<g id="a_edge6_Node000005_Node000003"><a xlink:title=" ">
<path fill="none" stroke="#63b8ff" d="M86.89,-54.84C106.2,-46.41 135.26,-33.73 157.31,-24.11"/>
<polygon fill="#63b8ff" stroke="#63b8ff" points="158.65,-27.34 166.42,-20.13 155.85,-20.92 158.65,-27.34"/>
</a>
</g>
</g>
<!-- Node6&#45;&gt;Node3 -->
<g id="edge8_Node000006_Node000003" class="edge">
<title>Node6&#45;&gt;Node3</title>
<g id="a_edge8_Node000006_Node000003"><a xlink:title=" ">
<path fill="none" stroke="#63b8ff" d="M188.2,-55.08C188.2,-48.57 188.2,-39.42 188.2,-31.12"/>
<polygon fill="#63b8ff" stroke="#63b8ff" points="191.7,-31.12 188.2,-21.12 184.7,-31.12 191.7,-31.12"/>
</a>
</g>
</g>
<!-- Node7&#45;&gt;Node2 -->
<g id="edge11_Node000007_Node000002" class="edge">
<title>Node7&#45;&gt;Node2</title>
<g id="a_edge11_Node000007_Node000002"><a xlink:title=" ">
<path fill="none" stroke="#63b8ff" d="M583.21,-54.84C601.69,-46.5 629.4,-34 650.64,-24.41"/>
<polygon fill="#63b8ff" stroke="#63b8ff" points="652.03,-27.63 659.7,-20.33 649.15,-21.25 652.03,-27.63"/>
</a>
</g>
</g>
<!-- Node8 -->
<g id="Node000008" class="node">
<title>Node8</title>
<g id="a_Node000008"><a xlink:title=" ">
<polygon fill="#e0e0e0" stroke="#999999" points="523.95,-19.25 470.45,-19.25 470.45,0 523.95,0 523.95,-19.25"/>
<text text-anchor="middle" x="497.2" y="-5.75" font-family="Helvetica,sans-Serif" font-size="10.00">iostream</text>
</a>
</g>
</g>
<!-- Node7&#45;&gt;Node8 -->
<g id="edge10_Node000007_Node000008" class="edge">
<title>Node7&#45;&gt;Node8</title>
<g id="a_edge10_Node000007_Node000008"><a xlink:title=" ">
<path fill="none" stroke="#63b8ff" d="M552,-54.84C542.46,-47.15 528.52,-35.9 517.09,-26.68"/>
<polygon fill="#63b8ff" stroke="#63b8ff" points="519.38,-24.03 509.4,-20.48 514.99,-29.48 519.38,-24.03"/>
</a>
</g>
</g>
<!-- Node9 -->
<g id="Node000009" class="node">
<title>Node9</title>
<g id="a_Node000009"><a xlink:title=" ">
<polygon fill="#e0e0e0" stroke="#999999" points="584.32,-19.25 542.07,-19.25 542.07,0 584.32,0 584.32,-19.25"/>
<text text-anchor="middle" x="563.2" y="-5.75" font-family="Helvetica,sans-Serif" font-size="10.00">queue</text>
</a>
</g>
</g>
<!-- Node7&#45;&gt;Node9 -->
<g id="edge12_Node000007_Node000009" class="edge">
<title>Node7&#45;&gt;Node9</title>
<g id="a_edge12_Node000007_Node000009"><a xlink:title=" ">
<path fill="none" stroke="#63b8ff" d="M563.2,-55.08C563.2,-48.57 563.2,-39.42 563.2,-31.12"/>
<polygon fill="#63b8ff" stroke="#63b8ff" points="566.7,-31.12 563.2,-21.12 559.7,-31.12 566.7,-31.12"/>
</a>
</g>
</g>
<!-- Node10 -->
<g id="Node000010" class="node">
<title>Node10</title>
<g id="a_Node000010"><a xlink:title=" ">
<polygon fill="#e0e0e0" stroke="#999999" points="641.82,-19.25 602.57,-19.25 602.57,0 641.82,0 641.82,-19.25"/>
<text text-anchor="middle" x="622.2" y="-5.75" font-family="Helvetica,sans-Serif" font-size="10.00">limits</text>
</a>
</g>
</g>
<!-- Node7&#45;&gt;Node10 -->
<g id="edge13_Node000007_Node000010" class="edge">
<title>Node7&#45;&gt;Node10</title>
<g id="a_edge13_Node000007_Node000010"><a xlink:title=" ">
<path fill="none" stroke="#63b8ff" d="M573.2,-54.84C581.56,-47.3 593.7,-36.35 603.8,-27.23"/>
<polygon fill="#63b8ff" stroke="#63b8ff" points="606.13,-29.84 611.21,-20.54 601.44,-24.64 606.13,-29.84"/>
</a>
</g>
</g>
<!-- Node11 -->
<g id="Node000011" class="node">
<title>Node11</title>
<g id="a_Node000011"><a xlink:title=" ">
<polygon fill="#e0e0e0" stroke="#999999" points="452.07,-19.25 396.32,-19.25 396.32,0 452.07,0 452.07,-19.25"/>
<text text-anchor="middle" x="424.2" y="-5.75" font-family="Helvetica,sans-Serif" font-size="10.00">algorithm</text>
</a>
</g>
</g>
<!-- Node7&#45;&gt;Node11 -->
<g id="edge14_Node000007_Node000011" class="edge">
<title>Node7&#45;&gt;Node11</title>
<g id="a_edge14_Node000007_Node000011"><a xlink:title=" ">
<path fill="none" stroke="#63b8ff" d="M539.62,-54.84C517.35,-46.31 483.7,-33.42 458.47,-23.76"/>
<polygon fill="#63b8ff" stroke="#63b8ff" points="459.89,-20.55 449.3,-20.24 457.39,-27.09 459.89,-20.55"/>
</a>
</g>
</g>
<!-- Node12&#45;&gt;Node2 -->
<g id="edge16_Node000012_Node000002" class="edge">
<title>Node12&#45;&gt;Node2</title>
<g id="a_edge16_Node000012_Node000002"><a xlink:title=" ">
<path fill="none" stroke="#63b8ff" d="M401.95,-114.9C478.4,-109.21 595.23,-97.09 633.2,-74.5 650.86,-63.99 664.16,-44.24 672.23,-29.47"/>
<polygon fill="#63b8ff" stroke="#63b8ff" points="675.26,-31.23 676.68,-20.73 669.02,-28.05 675.26,-31.23"/>
</a>
</g>
</g>
<!-- Node12&#45;&gt;Node3 -->
<g id="edge17_Node000012_Node000003" class="edge">
<title>Node12&#45;&gt;Node3</title>
<g id="a_edge17_Node000012_Node000003"><a xlink:title=" ">
<path fill="none" stroke="#63b8ff" d="M334.5,-110.2C337.41,-96.75 340.63,-71.2 328.2,-55.25 302.56,-22.37 252.6,-13.29 219.82,-11.01"/>
<polygon fill="#63b8ff" stroke="#63b8ff" points="220.27,-7.53 210.11,-10.53 219.92,-14.52 220.27,-7.53"/>
</a>
</g>
</g>
<!-- Node12&#45;&gt;Node4 -->
<g id="edge20_Node000012_Node000004" class="edge">
<title>Node12&#45;&gt;Node4</title>
<g id="a_edge20_Node000012_Node000004"><a xlink:title=" ">
<path fill="none" stroke="#63b8ff" d="M348.82,-110.09C363.88,-101.91 386.34,-89.71 403.85,-80.19"/>
<polygon fill="#63b8ff" stroke="#63b8ff" points="405.04,-83.52 412.16,-75.68 401.7,-77.37 405.04,-83.52"/>
</a>
</g>
</g>
<!-- Node12&#45;&gt;Node5 -->
<g id="edge21_Node000012_Node000005" class="edge">
<title>Node12&#45;&gt;Node5</title>
<g id="a_edge21_Node000012_Node000005"><a xlink:title=" ">
<path fill="none" stroke="#63b8ff" d="M286.77,-110.03C241.34,-100.94 171.38,-86.93 122.46,-77.14"/>
<polygon fill="#63b8ff" stroke="#63b8ff" points="123.41,-73.76 112.92,-75.23 122.04,-80.62 123.41,-73.76"/>
</a>
</g>
</g>
<!-- Node12&#45;&gt;Node6 -->
<g id="edge22_Node000012_Node000006" class="edge">
<title>Node12&#45;&gt;Node6</title>
<g id="a_edge22_Node000012_Node000006"><a xlink:title=" ">
<path fill="none" stroke="#63b8ff" d="M307.77,-110.09C284.6,-101.52 249.53,-88.56 223.36,-78.88"/>
<polygon fill="#63b8ff" stroke="#63b8ff" points="224.76,-75.66 214.16,-75.48 222.33,-82.23 224.76,-75.66"/>
</a>
</g>
</g>
<!-- Node12&#45;&gt;Node7 -->
<g id="edge19_Node000012_Node000007" class="edge">
<title>Node12&#45;&gt;Node7</title>
<g id="a_edge19_Node000012_Node000007"><a xlink:title=" ">
<path fill="none" stroke="#63b8ff" d="M371.64,-110.03C410.6,-101.05 470.32,-87.28 512.72,-77.51"/>
<polygon fill="#63b8ff" stroke="#63b8ff" points="513.48,-80.93 522.44,-75.27 511.9,-74.11 513.48,-80.93"/>
</a>
</g>
</g>
<!-- Node13 -->
<g id="Node000013" class="node">
<title>Node13</title>
<g id="a_Node000013"><a xlink:title=" ">
<polygon fill="#e0e0e0" stroke="#999999" points="319.2,-74.5 261.2,-74.5 261.2,-55.25 319.2,-55.25 319.2,-74.5"/>
<text text-anchor="middle" x="290.2" y="-61" font-family="Helvetica,sans-Serif" font-size="10.00">functional</text>
</a>
</g>
</g>
<!-- Node12&#45;&gt;Node13 -->
<g id="edge18_Node000012_Node000013" class="edge">
<title>Node12&#45;&gt;Node13</title>
<g id="a_edge18_Node000012_Node000013"><a xlink:title=" ">
<path fill="none" stroke="#63b8ff" d="M325.26,-110.33C319.58,-103.13 311.36,-92.71 304.3,-83.76"/>
<polygon fill="#63b8ff" stroke="#63b8ff" points="307.16,-81.73 298.22,-76.05 301.66,-86.07 307.16,-81.73"/>
</a>
</g>
</g>
</g>
</svg>
