<?xml version="1.0" encoding="UTF-8" standalone="no"?>
<!DOCTYPE svg PUBLIC "-//W3C//DTD SVG 1.1//EN"
 "http://www.w3.org/Graphics/SVG/1.1/DTD/svg11.dtd">
<!-- Generated by graphviz version 12.2.1 (0)
 -->
<!-- Title: ui/ConferenceApp.cpp Pages: 1 -->
<svg width="1035pt" height="193pt"
 viewBox="0.00 0.00 1034.52 193.00" xmlns="http://www.w3.org/2000/svg" xmlns:xlink="http://www.w3.org/1999/xlink">
<g id="graph0" class="graph" transform="scale(1 1) rotate(0) translate(4 189)">
<title>ui/ConferenceApp.cpp</title>
<!-- Node1 -->
<g id="Node000001" class="node">
<title>Node1</title>
<g id="a_Node000001"><a xlink:title=" ">
<polygon fill="#999999" stroke="#666666" points="425.12,-185 312.38,-185 312.38,-165.75 425.12,-165.75 425.12,-185"/>
<text text-anchor="middle" x="368.75" y="-171.5" font-family="Helvetica,sans-Serif" font-size="10.00">ui/ConferenceApp.cpp</text>
</a>
</g>
</g>
<!-- Node2 -->
<g id="Node000002" class="node">
<title>Node2</title>
<g id="a_Node000002"><a xlink:href="_conference_app_8h.html" target="_top" xlink:title=" ">
<polygon fill="white" stroke="#666666" points="563.62,-129.75 471.88,-129.75 471.88,-110.5 563.62,-110.5 563.62,-129.75"/>
<text text-anchor="middle" x="517.75" y="-116.25" font-family="Helvetica,sans-Serif" font-size="10.00">ConferenceApp.h</text>
</a>
</g>
</g>
<!-- Node1&#45;&gt;Node2 -->
<g id="edge1_Node000001_Node000002" class="edge">
<title>Node1&#45;&gt;Node2</title>
<g id="a_edge1_Node000001_Node000002"><a xlink:title=" ">
<path fill="none" stroke="#63b8ff" d="M394.03,-165.34C418.11,-156.74 454.61,-143.69 481.73,-134"/>
<polygon fill="#63b8ff" stroke="#63b8ff" points="482.69,-137.37 490.92,-130.71 480.33,-130.78 482.69,-137.37"/>
</a>
</g>
</g>
<!-- Node9 -->
<g id="Node000009" class="node">
<title>Node9</title>
<g id="a_Node000009"><a xlink:title=" ">
<polygon fill="#e0e0e0" stroke="#999999" points="53.5,-19.25 0,-19.25 0,0 53.5,0 53.5,-19.25"/>
<text text-anchor="middle" x="26.75" y="-5.75" font-family="Helvetica,sans-Serif" font-size="10.00">iostream</text>
</a>
</g>
</g>
<!-- Node1&#45;&gt;Node9 -->
<g id="edge16_Node000001_Node000009" class="edge">
<title>Node1&#45;&gt;Node9</title>
<g id="a_edge16_Node000001_Node000009"><a xlink:title=" ">
<path fill="none" stroke="#63b8ff" d="M311.89,-171.22C240.87,-166.28 124.45,-154.6 89.75,-129.75 55.94,-105.53 38.7,-57.51 31.33,-30.41"/>
<polygon fill="#63b8ff" stroke="#63b8ff" points="34.81,-29.91 28.98,-21.07 28.02,-31.62 34.81,-29.91"/>
</a>
</g>
</g>
<!-- Node11 -->
<g id="Node000011" class="node">
<title>Node11</title>
<g id="a_Node000011"><a xlink:title=" ">
<polygon fill="#e0e0e0" stroke="#999999" points="151.38,-19.25 112.12,-19.25 112.12,0 151.38,0 151.38,-19.25"/>
<text text-anchor="middle" x="131.75" y="-5.75" font-family="Helvetica,sans-Serif" font-size="10.00">limits</text>
</a>
</g>
</g>
<!-- Node1&#45;&gt;Node11 -->
<g id="edge20_Node000001_Node000011" class="edge">
<title>Node1&#45;&gt;Node11</title>
<g id="a_edge20_Node000001_Node000011"><a xlink:title=" ">
<path fill="none" stroke="#63b8ff" d="M312.13,-173.25C241.41,-170.52 126.42,-161.21 99.75,-129.75 93.93,-122.88 88,-97.59 101.75,-55.25 104.84,-45.74 110.59,-36.38 116.24,-28.71"/>
<polygon fill="#63b8ff" stroke="#63b8ff" points="118.96,-30.91 122.43,-20.91 113.47,-26.56 118.96,-30.91"/>
</a>
</g>
</g>
<!-- Node12 -->
<g id="Node000012" class="node">
<title>Node12</title>
<g id="a_Node000012"><a xlink:title=" ">
<polygon fill="#e0e0e0" stroke="#999999" points="245.62,-19.25 189.88,-19.25 189.88,0 245.62,0 245.62,-19.25"/>
<text text-anchor="middle" x="217.75" y="-5.75" font-family="Helvetica,sans-Serif" font-size="10.00">algorithm</text>
</a>
</g>
</g>
<!-- Node1&#45;&gt;Node12 -->
<g id="edge18_Node000001_Node000012" class="edge">
<title>Node1&#45;&gt;Node12</title>
<g id="a_edge18_Node000001_Node000012"><a xlink:title=" ">
<path fill="none" stroke="#63b8ff" d="M312,-172.56C245.22,-169.09 140.3,-159.01 115.75,-129.75 94.47,-104.38 97.63,-82.96 115.75,-55.25 129.69,-33.94 156.29,-22.74 178.84,-16.9"/>
<polygon fill="#63b8ff" stroke="#63b8ff" points="179.4,-20.36 188.36,-14.71 177.83,-13.54 179.4,-20.36"/>
</a>
</g>
</g>
<!-- Node13 -->
<g id="Node000013" class="node">
<title>Node13</title>
<g id="a_Node000013"><a xlink:title=" ">
<polygon fill="#e0e0e0" stroke="#999999" points="320.25,-129.75 271.25,-129.75 271.25,-110.5 320.25,-110.5 320.25,-129.75"/>
<text text-anchor="middle" x="295.75" y="-116.25" font-family="Helvetica,sans-Serif" font-size="10.00">fstream</text>
</a>
</g>
</g>
<!-- Node1&#45;&gt;Node13 -->
<g id="edge17_Node000001_Node000013" class="edge">
<title>Node1&#45;&gt;Node13</title>
<g id="a_edge17_Node000001_Node000013"><a xlink:title=" ">
<path fill="none" stroke="#63b8ff" d="M356.37,-165.34C345.6,-157.49 329.78,-145.95 317,-136.62"/>
<polygon fill="#63b8ff" stroke="#63b8ff" points="319.31,-133.98 309.17,-130.92 315.19,-139.64 319.31,-133.98"/>
</a>
</g>
</g>
<!-- Node14 -->
<g id="Node000014" class="node">
<title>Node14</title>
<g id="a_Node000014"><a xlink:title=" ">
<polygon fill="#e0e0e0" stroke="#999999" points="399.25,-129.75 338.25,-129.75 338.25,-110.5 399.25,-110.5 399.25,-129.75"/>
<text text-anchor="middle" x="368.75" y="-116.25" font-family="Helvetica,sans-Serif" font-size="10.00">filesystem</text>
</a>
</g>
</g>
<!-- Node1&#45;&gt;Node14 -->
<g id="edge19_Node000001_Node000014" class="edge">
<title>Node1&#45;&gt;Node14</title>
<g id="a_edge19_Node000001_Node000014"><a xlink:title=" ">
<path fill="none" stroke="#63b8ff" d="M368.75,-165.58C368.75,-159.07 368.75,-149.92 368.75,-141.62"/>
<polygon fill="#63b8ff" stroke="#63b8ff" points="372.25,-141.62 368.75,-131.62 365.25,-141.62 372.25,-141.62"/>
</a>
</g>
</g>
<!-- Node15 -->
<g id="Node000015" class="node">
<title>Node15</title>
<g id="a_Node000015"><a xlink:title=" ">
<polygon fill="#e0e0e0" stroke="#999999" points="454.25,-129.75 417.25,-129.75 417.25,-110.5 454.25,-110.5 454.25,-129.75"/>
<text text-anchor="middle" x="435.75" y="-116.25" font-family="Helvetica,sans-Serif" font-size="10.00">tuple</text>
</a>
</g>
</g>
<!-- Node1&#45;&gt;Node15 -->
<g id="edge21_Node000001_Node000015" class="edge">
<title>Node1&#45;&gt;Node15</title>
<g id="a_edge21_Node000001_Node000015"><a xlink:title=" ">
<path fill="none" stroke="#63b8ff" d="M380.12,-165.34C389.8,-157.65 403.95,-146.4 415.56,-137.18"/>
<polygon fill="#63b8ff" stroke="#63b8ff" points="417.72,-139.93 423.37,-130.97 413.36,-134.45 417.72,-139.93"/>
</a>
</g>
</g>
<!-- Node16 -->
<g id="Node000016" class="node">
<title>Node16</title>
<g id="a_Node000016"><a xlink:href="_file_parser_8h.html" target="_top" xlink:title="Class definition for parsing input CSV files.">
<polygon fill="white" stroke="#666666" points="985.88,-129.75 907.62,-129.75 907.62,-110.5 985.88,-110.5 985.88,-129.75"/>
<text text-anchor="middle" x="946.75" y="-116.25" font-family="Helvetica,sans-Serif" font-size="10.00">io/FileParser.h</text>
</a>
</g>
</g>
<!-- Node1&#45;&gt;Node16 -->
<g id="edge22_Node000001_Node000016" class="edge">
<title>Node1&#45;&gt;Node16</title>
<g id="a_edge22_Node000001_Node000016"><a xlink:title=" ">
<path fill="none" stroke="#63b8ff" d="M425.41,-171.35C520.53,-165.9 718.55,-152.91 895.86,-130.01"/>
<polygon fill="#63b8ff" stroke="#63b8ff" points="896.28,-133.49 905.74,-128.72 895.37,-126.55 896.28,-133.49"/>
</a>
</g>
</g>
<!-- Node17 -->
<g id="Node000017" class="node">
<title>Node17</title>
<g id="a_Node000017"><a xlink:href="_graph_builder_8h.html" target="_top" xlink:title=" ">
<polygon fill="white" stroke="#666666" points="731.88,-129.75 581.62,-129.75 581.62,-110.5 731.88,-110.5 731.88,-129.75"/>
<text text-anchor="middle" x="656.75" y="-116.25" font-family="Helvetica,sans-Serif" font-size="10.00">data_structures/GraphBuilder.h</text>
</a>
</g>
</g>
<!-- Node1&#45;&gt;Node17 -->
<g id="edge28_Node000001_Node000017" class="edge">
<title>Node1&#45;&gt;Node17</title>
<g id="a_edge28_Node000001_Node000017"><a xlink:title=" ">
<path fill="none" stroke="#63b8ff" d="M417.93,-165.28C467.32,-156.15 543.51,-142.06 596.5,-132.26"/>
<polygon fill="#63b8ff" stroke="#63b8ff" points="597.09,-135.72 606.28,-130.46 595.81,-128.83 597.09,-135.72"/>
</a>
</g>
</g>
<!-- Node18 -->
<g id="Node000018" class="node">
<title>Node18</title>
<g id="a_Node000018"><a xlink:href="_edmond_karp_8h.html" target="_top" xlink:title="Implementations of the Edmonds&#45;Karp algorithm for calculating maximum flow.">
<polygon fill="white" stroke="#666666" points="253,-129.75 124.5,-129.75 124.5,-110.5 253,-110.5 253,-129.75"/>
<text text-anchor="middle" x="188.75" y="-116.25" font-family="Helvetica,sans-Serif" font-size="10.00">algorithms/EdmondKarp.h</text>
</a>
</g>
</g>
<!-- Node1&#45;&gt;Node18 -->
<g id="edge34_Node000001_Node000018" class="edge">
<title>Node1&#45;&gt;Node18</title>
<g id="a_edge34_Node000001_Node000018"><a xlink:title=" ">
<path fill="none" stroke="#63b8ff" d="M338.22,-165.34C308.48,-156.54 263.06,-143.11 230.1,-133.36"/>
<polygon fill="#63b8ff" stroke="#63b8ff" points="231.47,-130.11 220.89,-130.63 229.48,-136.82 231.47,-130.11"/>
</a>
</g>
</g>
<!-- Node21 -->
<g id="Node000021" class="node">
<title>Node21</title>
<g id="a_Node000021"><a xlink:href="_assignment_logic_8h.html" target="_top" xlink:title="Logic for assigning reviewers to submissions based on Max Flow.">
<polygon fill="white" stroke="#666666" points="889.25,-129.75 750.25,-129.75 750.25,-110.5 889.25,-110.5 889.25,-129.75"/>
<text text-anchor="middle" x="819.75" y="-116.25" font-family="Helvetica,sans-Serif" font-size="10.00">services/AssignmentLogic.h</text>
</a>
</g>
</g>
<!-- Node1&#45;&gt;Node21 -->
<g id="edge40_Node000001_Node000021" class="edge">
<title>Node1&#45;&gt;Node21</title>
<g id="a_edge40_Node000001_Node000021"><a xlink:title=" ">
<path fill="none" stroke="#63b8ff" d="M425.41,-167.68C504.48,-158.35 648.34,-141.36 738.72,-130.69"/>
<polygon fill="#63b8ff" stroke="#63b8ff" points="738.99,-134.18 748.51,-129.54 738.17,-127.23 738.99,-134.18"/>
</a>
</g>
</g>
<!-- Node3 -->
<g id="Node000003" class="node">
<title>Node3</title>
<g id="a_Node000003"><a xlink:title=" ">
<polygon fill="#e0e0e0" stroke="#999999" points="505.25,-19.25 462.25,-19.25 462.25,0 505.25,0 505.25,-19.25"/>
<text text-anchor="middle" x="483.75" y="-5.75" font-family="Helvetica,sans-Serif" font-size="10.00">vector</text>
</a>
</g>
</g>
<!-- Node2&#45;&gt;Node3 -->
<g id="edge2_Node000002_Node000003" class="edge">
<title>Node2&#45;&gt;Node3</title>
<g id="a_edge2_Node000002_Node000003"><a xlink:title=" ">
<path fill="none" stroke="#63b8ff" d="M490.81,-110.11C474.61,-103.14 455.34,-91.72 445.75,-74.5 436.69,-58.22 449.93,-39.99 463.21,-27.18"/>
<polygon fill="#63b8ff" stroke="#63b8ff" points="465.43,-29.89 470.57,-20.63 460.77,-24.67 465.43,-29.89"/>
</a>
</g>
</g>
<!-- Node4 -->
<g id="Node000004" class="node">
<title>Node4</title>
<g id="a_Node000004"><a xlink:title=" ">
<polygon fill="#e0e0e0" stroke="#999999" points="862.75,-19.25 822.75,-19.25 822.75,0 862.75,0 862.75,-19.25"/>
<text text-anchor="middle" x="842.75" y="-5.75" font-family="Helvetica,sans-Serif" font-size="10.00">string</text>
</a>
</g>
</g>
<!-- Node2&#45;&gt;Node4 -->
<g id="edge3_Node000002_Node000004" class="edge">
<title>Node2&#45;&gt;Node4</title>
<g id="a_edge3_Node000002_Node000004"><a xlink:title=" ">
<path fill="none" stroke="#63b8ff" d="M526.11,-110.02C539.68,-95.87 567.98,-68.79 597.75,-55.25 669.4,-22.65 763.06,-13.85 811.18,-11.48"/>
<polygon fill="#63b8ff" stroke="#63b8ff" points="811.04,-14.99 820.88,-11.08 810.74,-8 811.04,-14.99"/>
</a>
</g>
</g>
<!-- Node5 -->
<g id="Node000005" class="node">
<title>Node5</title>
<g id="a_Node000005"><a xlink:href="_submission_8h.html" target="_top" xlink:title=" ">
<polygon fill="white" stroke="#666666" points="834.62,-74.5 724.88,-74.5 724.88,-55.25 834.62,-55.25 834.62,-74.5"/>
<text text-anchor="middle" x="779.75" y="-61" font-family="Helvetica,sans-Serif" font-size="10.00">models/Submission.h</text>
</a>
</g>
</g>
<!-- Node2&#45;&gt;Node5 -->
<g id="edge4_Node000002_Node000005" class="edge">
<title>Node2&#45;&gt;Node5</title>
<g id="a_edge4_Node000002_Node000005"><a xlink:title=" ">
<path fill="none" stroke="#63b8ff" d="M562.49,-110.03C607.14,-100.96 675.86,-86.99 724.03,-77.2"/>
<polygon fill="#63b8ff" stroke="#63b8ff" points="724.61,-80.65 733.71,-75.23 723.21,-73.79 724.61,-80.65"/>
</a>
</g>
</g>
<!-- Node6 -->
<g id="Node000006" class="node">
<title>Node6</title>
<g id="a_Node000006"><a xlink:href="_reviewer_8h.html" target="_top" xlink:title=" ">
<polygon fill="white" stroke="#666666" points="706.38,-74.5 607.12,-74.5 607.12,-55.25 706.38,-55.25 706.38,-74.5"/>
<text text-anchor="middle" x="656.75" y="-61" font-family="Helvetica,sans-Serif" font-size="10.00">models/Reviewer.h</text>
</a>
</g>
</g>
<!-- Node2&#45;&gt;Node6 -->
<g id="edge6_Node000002_Node000006" class="edge">
<title>Node2&#45;&gt;Node6</title>
<g id="a_edge6_Node000002_Node000006"><a xlink:title=" ">
<path fill="none" stroke="#63b8ff" d="M541.33,-110.09C563.59,-101.56 597.24,-88.67 622.47,-79.01"/>
<polygon fill="#63b8ff" stroke="#63b8ff" points="623.56,-82.34 631.64,-75.49 621.05,-75.8 623.56,-82.34"/>
</a>
</g>
</g>
<!-- Node7 -->
<g id="Node000007" class="node">
<title>Node7</title>
<g id="a_Node000007"><a xlink:href="_parameters_8h.html" target="_top" xlink:title=" ">
<polygon fill="white" stroke="#666666" points="961.25,-74.5 852.25,-74.5 852.25,-55.25 961.25,-55.25 961.25,-74.5"/>
<text text-anchor="middle" x="906.75" y="-61" font-family="Helvetica,sans-Serif" font-size="10.00">models/Parameters.h</text>
</a>
</g>
</g>
<!-- Node2&#45;&gt;Node7 -->
<g id="edge8_Node000002_Node000007" class="edge">
<title>Node2&#45;&gt;Node7</title>
<g id="a_edge8_Node000002_Node000007"><a xlink:title=" ">
<path fill="none" stroke="#63b8ff" d="M563.95,-111.8C566.93,-111.35 569.88,-110.92 572.75,-110.5 689.36,-93.61 721.42,-90.9 840.38,-74.95"/>
<polygon fill="#63b8ff" stroke="#63b8ff" points="840.83,-78.42 850.28,-73.62 839.9,-71.48 840.83,-78.42"/>
</a>
</g>
</g>
<!-- Node8 -->
<g id="Node000008" class="node">
<title>Node8</title>
<g id="a_Node000008"><a xlink:href="_graph_8h.html" target="_top" xlink:title=" ">
<polygon fill="white" stroke="#666666" points="360.25,-74.5 239.25,-74.5 239.25,-55.25 360.25,-55.25 360.25,-74.5"/>
<text text-anchor="middle" x="299.75" y="-61" font-family="Helvetica,sans-Serif" font-size="10.00">data_structures/Graph.h</text>
</a>
</g>
</g>
<!-- Node2&#45;&gt;Node8 -->
<g id="edge10_Node000002_Node000008" class="edge">
<title>Node2&#45;&gt;Node8</title>
<g id="a_edge10_Node000002_Node000008"><a xlink:title=" ">
<path fill="none" stroke="#63b8ff" d="M480.77,-110.09C444.21,-101.16 388.07,-87.45 348.01,-77.66"/>
<polygon fill="#63b8ff" stroke="#63b8ff" points="348.93,-74.28 338.38,-75.31 347.27,-81.08 348.93,-74.28"/>
</a>
</g>
</g>
<!-- Node5&#45;&gt;Node4 -->
<g id="edge5_Node000005_Node000004" class="edge">
<title>Node5&#45;&gt;Node4</title>
<g id="a_edge5_Node000005_Node000004"><a xlink:title=" ">
<path fill="none" stroke="#63b8ff" d="M790.44,-54.84C799.45,-47.22 812.58,-36.12 823.43,-26.95"/>
<polygon fill="#63b8ff" stroke="#63b8ff" points="825.69,-29.63 831.06,-20.5 821.17,-24.28 825.69,-29.63"/>
</a>
</g>
</g>
<!-- Node6&#45;&gt;Node4 -->
<g id="edge7_Node000006_Node000004" class="edge">
<title>Node6&#45;&gt;Node4</title>
<g id="a_edge7_Node000006_Node000004"><a xlink:title=" ">
<path fill="none" stroke="#63b8ff" d="M688.3,-54.84C722.66,-45 777.28,-29.37 811.52,-19.57"/>
<polygon fill="#63b8ff" stroke="#63b8ff" points="812.18,-23.02 820.83,-16.9 810.25,-16.29 812.18,-23.02"/>
</a>
</g>
</g>
<!-- Node7&#45;&gt;Node4 -->
<g id="edge9_Node000007_Node000004" class="edge">
<title>Node7&#45;&gt;Node4</title>
<g id="a_edge9_Node000007_Node000004"><a xlink:title=" ">
<path fill="none" stroke="#63b8ff" d="M895.89,-54.84C886.64,-47.15 873.13,-35.9 862.04,-26.68"/>
<polygon fill="#63b8ff" stroke="#63b8ff" points="864.54,-24.2 854.61,-20.49 860.06,-29.58 864.54,-24.2"/>
</a>
</g>
</g>
<!-- Node8&#45;&gt;Node3 -->
<g id="edge12_Node000008_Node000003" class="edge">
<title>Node8&#45;&gt;Node3</title>
<g id="a_edge12_Node000008_Node000003"><a xlink:title=" ">
<path fill="none" stroke="#63b8ff" d="M330.96,-54.84C364.4,-45.16 417.23,-29.88 451.18,-20.05"/>
<polygon fill="#63b8ff" stroke="#63b8ff" points="451.83,-23.51 460.46,-17.36 449.89,-16.78 451.83,-23.51"/>
</a>
</g>
</g>
<!-- Node8&#45;&gt;Node9 -->
<g id="edge11_Node000008_Node000009" class="edge">
<title>Node8&#45;&gt;Node9</title>
<g id="a_edge11_Node000008_Node000009"><a xlink:title=" ">
<path fill="none" stroke="#63b8ff" d="M253.13,-54.78C199.98,-44.41 114.1,-27.66 64.8,-18.05"/>
<polygon fill="#63b8ff" stroke="#63b8ff" points="65.66,-14.65 55.18,-16.17 64.32,-21.52 65.66,-14.65"/>
</a>
</g>
</g>
<!-- Node10 -->
<g id="Node000010" class="node">
<title>Node10</title>
<g id="a_Node000010"><a xlink:title=" ">
<polygon fill="#e0e0e0" stroke="#999999" points="315.88,-19.25 273.62,-19.25 273.62,0 315.88,0 315.88,-19.25"/>
<text text-anchor="middle" x="294.75" y="-5.75" font-family="Helvetica,sans-Serif" font-size="10.00">queue</text>
</a>
</g>
</g>
<!-- Node8&#45;&gt;Node10 -->
<g id="edge13_Node000008_Node000010" class="edge">
<title>Node8&#45;&gt;Node10</title>
<g id="a_edge13_Node000008_Node000010"><a xlink:title=" ">
<path fill="none" stroke="#63b8ff" d="M298.92,-55.08C298.31,-48.49 297.43,-39.21 296.65,-30.82"/>
<polygon fill="#63b8ff" stroke="#63b8ff" points="300.15,-30.75 295.74,-21.12 293.19,-31.4 300.15,-30.75"/>
</a>
</g>
</g>
<!-- Node8&#45;&gt;Node11 -->
<g id="edge14_Node000008_Node000011" class="edge">
<title>Node8&#45;&gt;Node11</title>
<g id="a_edge14_Node000008_Node000011"><a xlink:title=" ">
<path fill="none" stroke="#63b8ff" d="M271.25,-54.84C240.9,-45.22 193.06,-30.06 162.04,-20.23"/>
<polygon fill="#63b8ff" stroke="#63b8ff" points="163.47,-17.01 152.88,-17.32 161.36,-23.68 163.47,-17.01"/>
</a>
</g>
</g>
<!-- Node8&#45;&gt;Node12 -->
<g id="edge15_Node000008_Node000012" class="edge">
<title>Node8&#45;&gt;Node12</title>
<g id="a_edge15_Node000008_Node000012"><a xlink:title=" ">
<path fill="none" stroke="#63b8ff" d="M285.84,-54.84C273.59,-46.89 255.5,-35.14 241.04,-25.75"/>
<polygon fill="#63b8ff" stroke="#63b8ff" points="243.29,-23.04 233,-20.53 239.48,-28.91 243.29,-23.04"/>
</a>
</g>
</g>
<!-- Node16&#45;&gt;Node3 -->
<g id="edge24_Node000016_Node000003" class="edge">
<title>Node16&#45;&gt;Node3</title>
<g id="a_edge24_Node000016_Node000003"><a xlink:title=" ">
<path fill="none" stroke="#63b8ff" d="M960.22,-110.02C977.87,-97.02 1004.79,-72.77 988.75,-55.25 956.92,-20.48 624.67,-12.65 517.13,-11.02"/>
<polygon fill="#63b8ff" stroke="#63b8ff" points="517.29,-7.53 507.24,-10.88 517.19,-14.53 517.29,-7.53"/>
</a>
</g>
</g>
<!-- Node16&#45;&gt;Node4 -->
<g id="edge23_Node000016_Node000004" class="edge">
<title>Node16&#45;&gt;Node4</title>
<g id="a_edge23_Node000016_Node000004"><a xlink:title=" ">
<path fill="none" stroke="#63b8ff" d="M972.52,-110.1C1000.7,-98.81 1039.65,-78.16 1021.75,-55.25 1003.79,-32.27 920.77,-19.4 874.36,-13.89"/>
<polygon fill="#63b8ff" stroke="#63b8ff" points="874.98,-10.43 864.65,-12.78 874.19,-17.39 874.98,-10.43"/>
</a>
</g>
</g>
<!-- Node16&#45;&gt;Node5 -->
<g id="edge25_Node000016_Node000005" class="edge">
<title>Node16&#45;&gt;Node5</title>
<g id="a_edge25_Node000016_Node000005"><a xlink:title=" ">
<path fill="none" stroke="#63b8ff" d="M918.42,-110.09C891.07,-101.37 849.43,-88.09 818.91,-78.36"/>
<polygon fill="#63b8ff" stroke="#63b8ff" points="820.25,-75.12 809.66,-75.41 818.12,-81.78 820.25,-75.12"/>
</a>
</g>
</g>
<!-- Node16&#45;&gt;Node6 -->
<g id="edge26_Node000016_Node000006" class="edge">
<title>Node16&#45;&gt;Node6</title>
<g id="a_edge26_Node000016_Node000006"><a xlink:title=" ">
<path fill="none" stroke="#63b8ff" d="M907.34,-111.89C858.41,-102.9 774.45,-87.49 717.32,-77"/>
<polygon fill="#63b8ff" stroke="#63b8ff" points="718.23,-73.61 707.76,-75.24 716.96,-80.49 718.23,-73.61"/>
</a>
</g>
</g>
<!-- Node16&#45;&gt;Node7 -->
<g id="edge27_Node000016_Node000007" class="edge">
<title>Node16&#45;&gt;Node7</title>
<g id="a_edge27_Node000016_Node000007"><a xlink:title=" ">
<path fill="none" stroke="#63b8ff" d="M940.14,-110.33C934.79,-103.21 927.07,-92.93 920.4,-84.05"/>
<polygon fill="#63b8ff" stroke="#63b8ff" points="923.21,-81.96 914.41,-76.07 917.62,-86.17 923.21,-81.96"/>
</a>
</g>
</g>
<!-- Node17&#45;&gt;Node3 -->
<g id="edge33_Node000017_Node000003" class="edge">
<title>Node17&#45;&gt;Node3</title>
<g id="a_edge33_Node000017_Node000003"><a xlink:title=" ">
<path fill="none" stroke="#63b8ff" d="M642.3,-110.06C612.46,-91.35 543.79,-48.28 507.39,-25.45"/>
<polygon fill="#63b8ff" stroke="#63b8ff" points="509.65,-22.74 499.32,-20.39 505.93,-28.67 509.65,-22.74"/>
</a>
</g>
</g>
<!-- Node17&#45;&gt;Node5 -->
<g id="edge30_Node000017_Node000005" class="edge">
<title>Node17&#45;&gt;Node5</title>
<g id="a_edge30_Node000017_Node000005"><a xlink:title=" ">
<path fill="none" stroke="#63b8ff" d="M677.62,-110.09C697.05,-101.68 726.29,-89.02 748.51,-79.4"/>
<polygon fill="#63b8ff" stroke="#63b8ff" points="749.61,-82.74 757.39,-75.55 746.83,-76.31 749.61,-82.74"/>
</a>
</g>
</g>
<!-- Node17&#45;&gt;Node6 -->
<g id="edge31_Node000017_Node000006" class="edge">
<title>Node17&#45;&gt;Node6</title>
<g id="a_edge31_Node000017_Node000006"><a xlink:title=" ">
<path fill="none" stroke="#63b8ff" d="M656.75,-110.33C656.75,-103.82 656.75,-94.67 656.75,-86.37"/>
<polygon fill="#63b8ff" stroke="#63b8ff" points="660.25,-86.37 656.75,-76.37 653.25,-86.37 660.25,-86.37"/>
</a>
</g>
</g>
<!-- Node17&#45;&gt;Node7 -->
<g id="edge32_Node000017_Node000007" class="edge">
<title>Node17&#45;&gt;Node7</title>
<g id="a_edge32_Node000017_Node000007"><a xlink:title=" ">
<path fill="none" stroke="#63b8ff" d="M699.44,-110.03C741.87,-100.99 807.07,-87.11 853,-77.32"/>
<polygon fill="#63b8ff" stroke="#63b8ff" points="853.7,-80.75 862.75,-75.25 852.24,-73.91 853.7,-80.75"/>
</a>
</g>
</g>
<!-- Node17&#45;&gt;Node8 -->
<g id="edge29_Node000017_Node000008" class="edge">
<title>Node17&#45;&gt;Node8</title>
<g id="a_edge29_Node000017_Node000008"><a xlink:title=" ">
<path fill="none" stroke="#63b8ff" d="M595.79,-110.03C533.66,-100.77 437.34,-86.4 371.56,-76.59"/>
<polygon fill="#63b8ff" stroke="#63b8ff" points="372.37,-73.17 361.96,-75.15 371.33,-80.09 372.37,-73.17"/>
</a>
</g>
</g>
<!-- Node18&#45;&gt;Node3 -->
<g id="edge37_Node000018_Node000003" class="edge">
<title>Node18&#45;&gt;Node3</title>
<g id="a_edge37_Node000018_Node000003"><a xlink:title=" ">
<path fill="none" stroke="#63b8ff" d="M241.39,-110.04C278.14,-102.76 327.91,-91.03 369.75,-74.5 402.9,-61.4 438.3,-40.32 460.7,-25.99"/>
<polygon fill="#63b8ff" stroke="#63b8ff" points="462.56,-28.96 469.04,-20.57 458.75,-23.09 462.56,-28.96"/>
</a>
</g>
</g>
<!-- Node18&#45;&gt;Node8 -->
<g id="edge35_Node000018_Node000008" class="edge">
<title>Node18&#45;&gt;Node8</title>
<g id="a_edge35_Node000018_Node000008"><a xlink:title=" ">
<path fill="none" stroke="#63b8ff" d="M207.58,-110.09C224.8,-101.83 250.55,-89.48 270.46,-79.93"/>
<polygon fill="#63b8ff" stroke="#63b8ff" points="271.96,-83.09 279.46,-75.61 268.93,-76.78 271.96,-83.09"/>
</a>
</g>
</g>
<!-- Node18&#45;&gt;Node10 -->
<g id="edge36_Node000018_Node000010" class="edge">
<title>Node18&#45;&gt;Node10</title>
<g id="a_edge36_Node000018_Node000010"><a xlink:title=" ">
<path fill="none" stroke="#63b8ff" d="M193.25,-110.11C200.09,-96.99 214.09,-72.37 230.75,-55.25 241.89,-43.8 256.36,-33.42 268.72,-25.57"/>
<polygon fill="#63b8ff" stroke="#63b8ff" points="270.49,-28.59 277.19,-20.38 266.83,-22.62 270.49,-28.59"/>
</a>
</g>
</g>
<!-- Node19 -->
<g id="Node000019" class="node">
<title>Node19</title>
<g id="a_Node000019"><a xlink:title=" ">
<polygon fill="#e0e0e0" stroke="#999999" points="183.12,-74.5 124.38,-74.5 124.38,-55.25 183.12,-55.25 183.12,-74.5"/>
<text text-anchor="middle" x="153.75" y="-61" font-family="Helvetica,sans-Serif" font-size="10.00">stdexcept</text>
</a>
</g>
</g>
<!-- Node18&#45;&gt;Node19 -->
<g id="edge38_Node000018_Node000019" class="edge">
<title>Node18&#45;&gt;Node19</title>
<g id="a_edge38_Node000018_Node000019"><a xlink:title=" ">
<path fill="none" stroke="#63b8ff" d="M182.97,-110.33C178.34,-103.28 171.68,-93.15 165.88,-84.33"/>
<polygon fill="#63b8ff" stroke="#63b8ff" points="168.9,-82.56 160.49,-76.12 163.05,-86.4 168.9,-82.56"/>
</a>
</g>
</g>
<!-- Node20 -->
<g id="Node000020" class="node">
<title>Node20</title>
<g id="a_Node000020"><a xlink:title=" ">
<polygon fill="#e0e0e0" stroke="#999999" points="512.75,-74.5 454.75,-74.5 454.75,-55.25 512.75,-55.25 512.75,-74.5"/>
<text text-anchor="middle" x="483.75" y="-61" font-family="Helvetica,sans-Serif" font-size="10.00">functional</text>
</a>
</g>
</g>
<!-- Node18&#45;&gt;Node20 -->
<g id="edge39_Node000018_Node000020" class="edge">
<title>Node18&#45;&gt;Node20</title>
<g id="a_edge39_Node000018_Node000020"><a xlink:title=" ">
<path fill="none" stroke="#63b8ff" d="M239.13,-110.03C296.93,-99.6 390.54,-82.7 443.63,-73.12"/>
<polygon fill="#63b8ff" stroke="#63b8ff" points="443.93,-76.62 453.15,-71.4 442.69,-69.73 443.93,-76.62"/>
</a>
</g>
</g>
<!-- Node21&#45;&gt;Node3 -->
<g id="edge41_Node000021_Node000003" class="edge">
<title>Node21&#45;&gt;Node3</title>
<g id="a_edge41_Node000021_Node000003"><a xlink:title=" ">
<path fill="none" stroke="#63b8ff" d="M889.74,-111.73C941.98,-103.52 999.72,-87 970.75,-55.25 940.2,-21.77 621.75,-13.09 516.97,-11.14"/>
<polygon fill="#63b8ff" stroke="#63b8ff" points="517.13,-7.64 507.07,-10.96 517.01,-14.64 517.13,-7.64"/>
</a>
</g>
</g>
<!-- Node21&#45;&gt;Node4 -->
<g id="edge42_Node000021_Node000004" class="edge">
<title>Node21&#45;&gt;Node4</title>
<g id="a_edge42_Node000021_Node000004"><a xlink:title=" ">
<path fill="none" stroke="#63b8ff" d="M889.6,-111.15C935.45,-104.32 989.48,-92.65 1003.75,-74.5 1039.5,-29.04 930.67,-15.84 874.32,-12.08"/>
<polygon fill="#63b8ff" stroke="#63b8ff" points="874.86,-8.6 864.67,-11.5 874.44,-15.59 874.86,-8.6"/>
</a>
</g>
</g>
<!-- Node21&#45;&gt;Node5 -->
<g id="edge45_Node000021_Node000005" class="edge">
<title>Node21&#45;&gt;Node5</title>
<g id="a_edge45_Node000021_Node000005"><a xlink:title=" ">
<path fill="none" stroke="#63b8ff" d="M813.14,-110.33C807.79,-103.21 800.07,-92.93 793.4,-84.05"/>
<polygon fill="#63b8ff" stroke="#63b8ff" points="796.21,-81.96 787.41,-76.07 790.62,-86.17 796.21,-81.96"/>
</a>
</g>
</g>
<!-- Node21&#45;&gt;Node6 -->
<g id="edge46_Node000021_Node000006" class="edge">
<title>Node21&#45;&gt;Node6</title>
<g id="a_edge46_Node000021_Node000006"><a xlink:title=" ">
<path fill="none" stroke="#63b8ff" d="M792.1,-110.09C765.52,-101.41 725.11,-88.21 695.36,-78.49"/>
<polygon fill="#63b8ff" stroke="#63b8ff" points="696.57,-75.2 685.98,-75.42 694.39,-81.85 696.57,-75.2"/>
</a>
</g>
</g>
<!-- Node21&#45;&gt;Node7 -->
<g id="edge47_Node000021_Node000007" class="edge">
<title>Node21&#45;&gt;Node7</title>
<g id="a_edge47_Node000021_Node000007"><a xlink:title=" ">
<path fill="none" stroke="#63b8ff" d="M834.51,-110.09C847.63,-102.06 867.07,-90.16 882.48,-80.73"/>
<polygon fill="#63b8ff" stroke="#63b8ff" points="883.93,-83.95 890.63,-75.74 880.27,-77.98 883.93,-83.95"/>
</a>
</g>
</g>
<!-- Node21&#45;&gt;Node8 -->
<g id="edge44_Node000021_Node000008" class="edge">
<title>Node21&#45;&gt;Node8</title>
<g id="a_edge44_Node000021_Node000008"><a xlink:title=" ">
<path fill="none" stroke="#63b8ff" d="M749.97,-111.48C746.85,-111.14 743.77,-110.82 740.75,-110.5 610.74,-96.83 459.09,-81.65 371.77,-72.99"/>
<polygon fill="#63b8ff" stroke="#63b8ff" points="372.2,-69.51 361.91,-72.01 371.51,-76.48 372.2,-69.51"/>
</a>
</g>
</g>
<!-- Node21&#45;&gt;Node20 -->
<g id="edge43_Node000021_Node000020" class="edge">
<title>Node21&#45;&gt;Node20</title>
<g id="a_edge43_Node000021_Node000020"><a xlink:title=" ">
<path fill="none" stroke="#63b8ff" d="M762.37,-110.03C694.54,-99.28 583.41,-81.67 524.07,-72.27"/>
<polygon fill="#63b8ff" stroke="#63b8ff" points="524.84,-68.84 514.42,-70.74 523.75,-75.76 524.84,-68.84"/>
</a>
</g>
</g>
</g>
</svg>
