<?xml version="1.0" encoding="UTF-8" standalone="no"?>
<!DOCTYPE svg PUBLIC "-//W3C//DTD SVG 1.1//EN"
 "http://www.w3.org/Graphics/SVG/1.1/DTD/svg11.dtd">
<!-- Generated by graphviz version 12.2.1 (0)
 -->
<!-- Title: ui/ConferenceApp.cpp Pages: 1 -->
<svg width="1107pt" height="248pt"
 viewBox="0.00 0.00 1107.21 248.25" xmlns="http://www.w3.org/2000/svg" xmlns:xlink="http://www.w3.org/1999/xlink">
<g id="graph0" class="graph" transform="scale(1 1) rotate(0) translate(4 244.25)">
<title>ui/ConferenceApp.cpp</title>
<!-- Node1 -->
<g id="Node000001" class="node">
<title>Node1</title>
<g id="a_Node000001"><a xlink:title=" ">
<polygon fill="#999999" stroke="#666666" points="780.71,-240.25 667.96,-240.25 667.96,-221 780.71,-221 780.71,-240.25"/>
<text text-anchor="middle" x="724.34" y="-226.75" font-family="Helvetica,sans-Serif" font-size="10.00">ui/ConferenceApp.cpp</text>
</a>
</g>
</g>
<!-- Node2 -->
<g id="Node000002" class="node">
<title>Node2</title>
<g id="a_Node000002"><a xlink:href="_conference_app_8h.html" target="_top" xlink:title=" ">
<polygon fill="white" stroke="#666666" points="480.21,-185 388.46,-185 388.46,-165.75 480.21,-165.75 480.21,-185"/>
<text text-anchor="middle" x="434.34" y="-171.5" font-family="Helvetica,sans-Serif" font-size="10.00">ConferenceApp.h</text>
</a>
</g>
</g>
<!-- Node1&#45;&gt;Node2 -->
<g id="edge1_Node000001_Node000002" class="edge">
<title>Node1&#45;&gt;Node2</title>
<g id="a_edge1_Node000001_Node000002"><a xlink:title=" ">
<path fill="none" stroke="#63b8ff" d="M674.81,-220.53C623.91,-211.19 544.76,-196.65 491.3,-186.84"/>
<polygon fill="#63b8ff" stroke="#63b8ff" points="492.26,-183.45 481.79,-185.09 491,-190.34 492.26,-183.45"/>
</a>
</g>
</g>
<!-- Node9 -->
<g id="Node000009" class="node">
<title>Node9</title>
<g id="a_Node000009"><a xlink:title=" ">
<polygon fill="#e0e0e0" stroke="#999999" points="894.09,-19.25 840.59,-19.25 840.59,0 894.09,0 894.09,-19.25"/>
<text text-anchor="middle" x="867.34" y="-5.75" font-family="Helvetica,sans-Serif" font-size="10.00">iostream</text>
</a>
</g>
</g>
<!-- Node1&#45;&gt;Node9 -->
<g id="edge24_Node000001_Node000009" class="edge">
<title>Node1&#45;&gt;Node9</title>
<g id="a_edge24_Node000001_Node000009"><a xlink:title=" ">
<path fill="none" stroke="#63b8ff" d="M781.16,-221.68C834.44,-210.89 911.28,-186.03 948.34,-129.75 966.86,-101.61 980.4,-83.69 962.34,-55.25 949.81,-35.52 925.99,-24.36 905.34,-18.13"/>
<polygon fill="#63b8ff" stroke="#63b8ff" points="906.31,-14.77 895.74,-15.55 904.49,-21.53 906.31,-14.77"/>
</a>
</g>
</g>
<!-- Node11 -->
<g id="Node000011" class="node">
<title>Node11</title>
<g id="a_Node000011"><a xlink:title=" ">
<polygon fill="#e0e0e0" stroke="#999999" points="999.96,-19.25 960.71,-19.25 960.71,0 999.96,0 999.96,-19.25"/>
<text text-anchor="middle" x="980.34" y="-5.75" font-family="Helvetica,sans-Serif" font-size="10.00">limits</text>
</a>
</g>
</g>
<!-- Node1&#45;&gt;Node11 -->
<g id="edge28_Node000001_Node000011" class="edge">
<title>Node1&#45;&gt;Node11</title>
<g id="a_edge28_Node000001_Node000011"><a xlink:title=" ">
<path fill="none" stroke="#63b8ff" d="M780.99,-224.74C820.45,-219.39 873.17,-208.23 914.34,-185 964.15,-156.89 974.23,-131.38 980.34,-74.5 981.9,-59.93 981.85,-43.39 981.43,-30.79"/>
<polygon fill="#63b8ff" stroke="#63b8ff" points="984.93,-30.68 980.99,-20.85 977.94,-30.99 984.93,-30.68"/>
</a>
</g>
</g>
<!-- Node12 -->
<g id="Node000012" class="node">
<title>Node12</title>
<g id="a_Node000012"><a xlink:title=" ">
<polygon fill="#e0e0e0" stroke="#999999" points="1099.21,-19.25 1043.46,-19.25 1043.46,0 1099.21,0 1099.21,-19.25"/>
<text text-anchor="middle" x="1071.34" y="-5.75" font-family="Helvetica,sans-Serif" font-size="10.00">algorithm</text>
</a>
</g>
</g>
<!-- Node1&#45;&gt;Node12 -->
<g id="edge26_Node000001_Node000012" class="edge">
<title>Node1&#45;&gt;Node12</title>
<g id="a_edge26_Node000001_Node000012"><a xlink:title=" ">
<path fill="none" stroke="#63b8ff" d="M781.03,-228.52C827.47,-225.27 893.27,-215.09 942.34,-185 1004.61,-146.81 1046.58,-66.36 1063.26,-29.63"/>
<polygon fill="#63b8ff" stroke="#63b8ff" points="1066.35,-31.3 1067.17,-20.74 1059.94,-28.48 1066.35,-31.3"/>
</a>
</g>
</g>
<!-- Node13 -->
<g id="Node000013" class="node">
<title>Node13</title>
<g id="a_Node000013"><a xlink:href="_assignment_logic_8h.html" target="_top" xlink:title="Logic for assigning reviewers to submissions based on Max Flow.">
<polygon fill="white" stroke="#666666" points="535.84,-129.75 396.84,-129.75 396.84,-110.5 535.84,-110.5 535.84,-129.75"/>
<text text-anchor="middle" x="466.34" y="-116.25" font-family="Helvetica,sans-Serif" font-size="10.00">services/AssignmentLogic.h</text>
</a>
</g>
</g>
<!-- Node1&#45;&gt;Node13 -->
<g id="edge53_Node000001_Node000013" class="edge">
<title>Node1&#45;&gt;Node13</title>
<g id="a_edge53_Node000001_Node000013"><a xlink:title=" ">
<path fill="none" stroke="#63b8ff" d="M702.78,-220.56C657.44,-201.49 551.99,-157.15 498.58,-134.68"/>
<polygon fill="#63b8ff" stroke="#63b8ff" points="499.98,-131.48 489.4,-130.83 497.26,-137.93 499.98,-131.48"/>
</a>
</g>
</g>
<!-- Node15 -->
<g id="Node000015" class="node">
<title>Node15</title>
<g id="a_Node000015"><a xlink:title=" ">
<polygon fill="#e0e0e0" stroke="#999999" points="712.84,-185 663.84,-185 663.84,-165.75 712.84,-165.75 712.84,-185"/>
<text text-anchor="middle" x="688.34" y="-171.5" font-family="Helvetica,sans-Serif" font-size="10.00">fstream</text>
</a>
</g>
</g>
<!-- Node1&#45;&gt;Node15 -->
<g id="edge25_Node000001_Node000015" class="edge">
<title>Node1&#45;&gt;Node15</title>
<g id="a_edge25_Node000001_Node000015"><a xlink:title=" ">
<path fill="none" stroke="#63b8ff" d="M718.39,-220.83C713.62,-213.78 706.77,-203.65 700.81,-194.83"/>
<polygon fill="#63b8ff" stroke="#63b8ff" points="703.76,-192.94 695.26,-186.61 697.96,-196.86 703.76,-192.94"/>
</a>
</g>
</g>
<!-- Node16 -->
<g id="Node000016" class="node">
<title>Node16</title>
<g id="a_Node000016"><a xlink:title=" ">
<polygon fill="#e0e0e0" stroke="#999999" points="791.84,-185 730.84,-185 730.84,-165.75 791.84,-165.75 791.84,-185"/>
<text text-anchor="middle" x="761.34" y="-171.5" font-family="Helvetica,sans-Serif" font-size="10.00">filesystem</text>
</a>
</g>
</g>
<!-- Node1&#45;&gt;Node16 -->
<g id="edge27_Node000001_Node000016" class="edge">
<title>Node1&#45;&gt;Node16</title>
<g id="a_edge27_Node000001_Node000016"><a xlink:title=" ">
<path fill="none" stroke="#63b8ff" d="M730.44,-220.83C735.4,-213.71 742.54,-203.43 748.71,-194.55"/>
<polygon fill="#63b8ff" stroke="#63b8ff" points="751.4,-196.81 754.23,-186.6 745.65,-192.82 751.4,-196.81"/>
</a>
</g>
</g>
<!-- Node17 -->
<g id="Node000017" class="node">
<title>Node17</title>
<g id="a_Node000017"><a xlink:title=" ">
<polygon fill="#e0e0e0" stroke="#999999" points="846.84,-185 809.84,-185 809.84,-165.75 846.84,-165.75 846.84,-185"/>
<text text-anchor="middle" x="828.34" y="-171.5" font-family="Helvetica,sans-Serif" font-size="10.00">tuple</text>
</a>
</g>
</g>
<!-- Node1&#45;&gt;Node17 -->
<g id="edge29_Node000001_Node000017" class="edge">
<title>Node1&#45;&gt;Node17</title>
<g id="a_edge29_Node000001_Node000017"><a xlink:title=" ">
<path fill="none" stroke="#63b8ff" d="M741.98,-220.59C757.96,-212.41 781.79,-200.21 800.37,-190.69"/>
<polygon fill="#63b8ff" stroke="#63b8ff" points="801.95,-193.82 809.26,-186.14 798.76,-187.58 801.95,-193.82"/>
</a>
</g>
</g>
<!-- Node18 -->
<g id="Node000018" class="node">
<title>Node18</title>
<g id="a_Node000018"><a xlink:href="_file_parser_8h.html" target="_top" xlink:title="Class definition for parsing input CSV files.">
<polygon fill="white" stroke="#666666" points="96.46,-129.75 18.21,-129.75 18.21,-110.5 96.46,-110.5 96.46,-129.75"/>
<text text-anchor="middle" x="57.34" y="-116.25" font-family="Helvetica,sans-Serif" font-size="10.00">io/FileParser.h</text>
</a>
</g>
</g>
<!-- Node1&#45;&gt;Node18 -->
<g id="edge30_Node000001_Node000018" class="edge">
<title>Node1&#45;&gt;Node18</title>
<g id="a_edge30_Node000001_Node000018"><a xlink:title=" ">
<path fill="none" stroke="#63b8ff" d="M667.57,-225.22C591.07,-218.82 450.8,-205.43 332.34,-185 250.04,-170.81 155.47,-147.21 101.43,-133.02"/>
<polygon fill="#63b8ff" stroke="#63b8ff" points="102.55,-129.69 91.99,-130.52 100.76,-136.46 102.55,-129.69"/>
</a>
</g>
</g>
<!-- Node19 -->
<g id="Node000019" class="node">
<title>Node19</title>
<g id="a_Node000019"><a xlink:href="_graph_builder_8h.html" target="_top" xlink:title=" ">
<polygon fill="white" stroke="#666666" points="340.46,-129.75 190.21,-129.75 190.21,-110.5 340.46,-110.5 340.46,-129.75"/>
<text text-anchor="middle" x="265.34" y="-116.25" font-family="Helvetica,sans-Serif" font-size="10.00">data_structures/GraphBuilder.h</text>
</a>
</g>
</g>
<!-- Node1&#45;&gt;Node19 -->
<g id="edge36_Node000001_Node000019" class="edge">
<title>Node1&#45;&gt;Node19</title>
<g id="a_edge36_Node000001_Node000019"><a xlink:title=" ">
<path fill="none" stroke="#63b8ff" d="M667.61,-228.86C598.02,-226.44 477.23,-217.41 379.34,-185 344.94,-173.61 309.09,-151.57 286.99,-136.61"/>
<polygon fill="#63b8ff" stroke="#63b8ff" points="289.04,-133.77 278.83,-130.96 285.06,-139.53 289.04,-133.77"/>
</a>
</g>
</g>
<!-- Node20 -->
<g id="Node000020" class="node">
<title>Node20</title>
<g id="a_Node000020"><a xlink:href="_ford_fulkerson_8h.html" target="_top" xlink:title="Implementation of the Ford&#45;Fulkerson algorithm for calculating maximum flow.">
<polygon fill="white" stroke="#666666" points="764.59,-129.75 630.09,-129.75 630.09,-110.5 764.59,-110.5 764.59,-129.75"/>
<text text-anchor="middle" x="697.34" y="-116.25" font-family="Helvetica,sans-Serif" font-size="10.00">algorithms/FordFulkerson.h</text>
</a>
</g>
</g>
<!-- Node1&#45;&gt;Node20 -->
<g id="edge42_Node000001_Node000020" class="edge">
<title>Node1&#45;&gt;Node20</title>
<g id="a_edge42_Node000001_Node000020"><a xlink:title=" ">
<path fill="none" stroke="#63b8ff" d="M699.18,-220.64C683.5,-213.57 664.61,-202.04 655.34,-185 646.14,-168.11 660.82,-149.87 675.28,-137.22"/>
<polygon fill="#63b8ff" stroke="#63b8ff" points="677.3,-140.1 682.87,-131.09 672.89,-134.65 677.3,-140.1"/>
</a>
</g>
</g>
<!-- Node22 -->
<g id="Node000022" class="node">
<title>Node22</title>
<g id="a_Node000022"><a xlink:href="_edmond_karp_8h.html" target="_top" xlink:title="Implementation of the Edmonds&#45;Karp algorithm for calculating maximum flow.">
<polygon fill="white" stroke="#666666" points="939.59,-129.75 811.09,-129.75 811.09,-110.5 939.59,-110.5 939.59,-129.75"/>
<text text-anchor="middle" x="875.34" y="-116.25" font-family="Helvetica,sans-Serif" font-size="10.00">algorithms/EdmondKarp.h</text>
</a>
</g>
</g>
<!-- Node1&#45;&gt;Node22 -->
<g id="edge47_Node000001_Node000022" class="edge">
<title>Node1&#45;&gt;Node22</title>
<g id="a_edge47_Node000001_Node000022"><a xlink:title=" ">
<path fill="none" stroke="#63b8ff" d="M781.12,-222.54C807.18,-216.55 836.61,-205.47 856.34,-185 867.65,-173.26 872.26,-155.1 874.13,-141.14"/>
<polygon fill="#63b8ff" stroke="#63b8ff" points="877.6,-141.59 875.04,-131.31 870.63,-140.94 877.6,-141.59"/>
</a>
</g>
</g>
<!-- Node3 -->
<g id="Node000003" class="node">
<title>Node3</title>
<g id="a_Node000003"><a xlink:title=" ">
<polygon fill="#e0e0e0" stroke="#999999" points="585.84,-19.25 542.84,-19.25 542.84,0 585.84,0 585.84,-19.25"/>
<text text-anchor="middle" x="564.34" y="-5.75" font-family="Helvetica,sans-Serif" font-size="10.00">vector</text>
</a>
</g>
</g>
<!-- Node2&#45;&gt;Node3 -->
<g id="edge2_Node000002_Node000003" class="edge">
<title>Node2&#45;&gt;Node3</title>
<g id="a_edge2_Node000002_Node000003"><a xlink:title=" ">
<path fill="none" stroke="#63b8ff" d="M480.47,-166.85C503.37,-160.71 529.47,-149.64 545.34,-129.75 568.02,-101.32 568.67,-56.64 566.74,-30.84"/>
<polygon fill="#63b8ff" stroke="#63b8ff" points="570.24,-30.67 565.79,-21.06 563.28,-31.35 570.24,-30.67"/>
</a>
</g>
</g>
<!-- Node4 -->
<g id="Node000004" class="node">
<title>Node4</title>
<g id="a_Node000004"><a xlink:title=" ">
<polygon fill="#e0e0e0" stroke="#999999" points="199.34,-19.25 159.34,-19.25 159.34,0 199.34,0 199.34,-19.25"/>
<text text-anchor="middle" x="179.34" y="-5.75" font-family="Helvetica,sans-Serif" font-size="10.00">string</text>
</a>
</g>
</g>
<!-- Node2&#45;&gt;Node4 -->
<g id="edge3_Node000002_Node000004" class="edge">
<title>Node2&#45;&gt;Node4</title>
<g id="a_edge3_Node000002_Node000004"><a xlink:title=" ">
<path fill="none" stroke="#63b8ff" d="M388.15,-172.94C283.29,-169.22 34.34,-157.52 9.34,-129.75 -2.61,-116.48 -5.41,-81.04 17.34,-55.25 50.16,-18.04 110.88,-10.58 147.94,-9.76"/>
<polygon fill="#63b8ff" stroke="#63b8ff" points="147.58,-13.26 157.56,-9.7 147.54,-6.26 147.58,-13.26"/>
</a>
</g>
</g>
<!-- Node5 -->
<g id="Node000005" class="node">
<title>Node5</title>
<g id="a_Node000005"><a xlink:href="_submission_8h.html" target="_top" xlink:title=" ">
<polygon fill="white" stroke="#666666" points="295.21,-74.5 185.46,-74.5 185.46,-55.25 295.21,-55.25 295.21,-74.5"/>
<text text-anchor="middle" x="240.34" y="-61" font-family="Helvetica,sans-Serif" font-size="10.00">models/Submission.h</text>
</a>
</g>
</g>
<!-- Node2&#45;&gt;Node5 -->
<g id="edge4_Node000002_Node000005" class="edge">
<title>Node2&#45;&gt;Node5</title>
<g id="a_edge4_Node000002_Node000005"><a xlink:title=" ">
<path fill="none" stroke="#63b8ff" d="M388.05,-173.07C322.37,-170.12 207.21,-160.59 181.34,-129.75 166.68,-112.28 189.87,-93.18 211.34,-80.47"/>
<polygon fill="#63b8ff" stroke="#63b8ff" points="212.9,-83.6 219.93,-75.67 209.49,-77.49 212.9,-83.6"/>
</a>
</g>
</g>
<!-- Node6 -->
<g id="Node000006" class="node">
<title>Node6</title>
<g id="a_Node000006"><a xlink:href="_reviewer_8h.html" target="_top" xlink:title=" ">
<polygon fill="white" stroke="#666666" points="166.96,-74.5 67.71,-74.5 67.71,-55.25 166.96,-55.25 166.96,-74.5"/>
<text text-anchor="middle" x="117.34" y="-61" font-family="Helvetica,sans-Serif" font-size="10.00">models/Reviewer.h</text>
</a>
</g>
</g>
<!-- Node2&#45;&gt;Node6 -->
<g id="edge6_Node000002_Node000006" class="edge">
<title>Node2&#45;&gt;Node6</title>
<g id="a_edge6_Node000002_Node000006"><a xlink:title=" ">
<path fill="none" stroke="#63b8ff" d="M388.06,-170.29C323.01,-163.9 208.44,-150.15 172.34,-129.75 153.27,-118.98 137.69,-98.97 128.05,-84.2"/>
<polygon fill="#63b8ff" stroke="#63b8ff" points="131.14,-82.54 122.9,-75.87 125.18,-86.22 131.14,-82.54"/>
</a>
</g>
</g>
<!-- Node7 -->
<g id="Node000007" class="node">
<title>Node7</title>
<g id="a_Node000007"><a xlink:href="_parameters_8h.html" target="_top" xlink:title=" ">
<polygon fill="white" stroke="#666666" points="421.84,-74.5 312.84,-74.5 312.84,-55.25 421.84,-55.25 421.84,-74.5"/>
<text text-anchor="middle" x="367.34" y="-61" font-family="Helvetica,sans-Serif" font-size="10.00">models/Parameters.h</text>
</a>
</g>
</g>
<!-- Node2&#45;&gt;Node7 -->
<g id="edge8_Node000002_Node000007" class="edge">
<title>Node2&#45;&gt;Node7</title>
<g id="a_edge8_Node000002_Node000007"><a xlink:title=" ">
<path fill="none" stroke="#63b8ff" d="M422.17,-165.36C411.84,-157.13 397.31,-144.09 388.34,-129.75 379.89,-116.25 374.48,-99 371.27,-85.83"/>
<polygon fill="#63b8ff" stroke="#63b8ff" points="374.72,-85.21 369.16,-76.19 367.88,-86.71 374.72,-85.21"/>
</a>
</g>
</g>
<!-- Node8 -->
<g id="Node000008" class="node">
<title>Node8</title>
<g id="a_Node000008"><a xlink:href="_graph_8h.html" target="_top" xlink:title=" ">
<polygon fill="white" stroke="#666666" points="751.84,-74.5 630.84,-74.5 630.84,-55.25 751.84,-55.25 751.84,-74.5"/>
<text text-anchor="middle" x="691.34" y="-61" font-family="Helvetica,sans-Serif" font-size="10.00">data_structures/Graph.h</text>
</a>
</g>
</g>
<!-- Node2&#45;&gt;Node8 -->
<g id="edge10_Node000002_Node000008" class="edge">
<title>Node2&#45;&gt;Node8</title>
<g id="a_edge10_Node000002_Node000008"><a xlink:title=" ">
<path fill="none" stroke="#63b8ff" d="M471.21,-165.29C500.77,-157.45 543.01,-145 578.34,-129.75 610.66,-115.79 645.63,-95.08 667.96,-81.05"/>
<polygon fill="#63b8ff" stroke="#63b8ff" points="669.73,-84.08 676.29,-75.76 665.97,-78.17 669.73,-84.08"/>
</a>
</g>
</g>
<!-- Node2&#45;&gt;Node13 -->
<g id="edge16_Node000002_Node000013" class="edge">
<title>Node2&#45;&gt;Node13</title>
<g id="a_edge16_Node000002_Node000013"><a xlink:title=" ">
<path fill="none" stroke="#63b8ff" d="M439.62,-165.58C443.81,-158.61 449.81,-148.62 455.07,-139.87"/>
<polygon fill="#63b8ff" stroke="#63b8ff" points="458.01,-141.78 460.16,-131.41 452.01,-138.18 458.01,-141.78"/>
</a>
</g>
</g>
<!-- Node5&#45;&gt;Node4 -->
<g id="edge5_Node000005_Node000004" class="edge">
<title>Node5&#45;&gt;Node4</title>
<g id="a_edge5_Node000005_Node000004"><a xlink:title=" ">
<path fill="none" stroke="#63b8ff" d="M229.99,-54.84C221.26,-47.22 208.55,-36.12 198.04,-26.95"/>
<polygon fill="#63b8ff" stroke="#63b8ff" points="200.51,-24.46 190.67,-20.52 195.9,-29.73 200.51,-24.46"/>
</a>
</g>
</g>
<!-- Node6&#45;&gt;Node4 -->
<g id="edge7_Node000006_Node000004" class="edge">
<title>Node6&#45;&gt;Node4</title>
<g id="a_edge7_Node000006_Node000004"><a xlink:title=" ">
<path fill="none" stroke="#63b8ff" d="M127.85,-54.84C136.72,-47.22 149.65,-36.12 160.32,-26.95"/>
<polygon fill="#63b8ff" stroke="#63b8ff" points="162.52,-29.68 167.82,-20.51 157.96,-24.37 162.52,-29.68"/>
</a>
</g>
</g>
<!-- Node7&#45;&gt;Node4 -->
<g id="edge9_Node000007_Node000004" class="edge">
<title>Node7&#45;&gt;Node4</title>
<g id="a_edge9_Node000007_Node000004"><a xlink:title=" ">
<path fill="none" stroke="#63b8ff" d="M335.44,-54.84C300.62,-44.98 245.21,-29.28 210.62,-19.49"/>
<polygon fill="#63b8ff" stroke="#63b8ff" points="211.79,-16.18 201.21,-16.82 209.88,-22.91 211.79,-16.18"/>
</a>
</g>
</g>
<!-- Node8&#45;&gt;Node3 -->
<g id="edge12_Node000008_Node000003" class="edge">
<title>Node8&#45;&gt;Node3</title>
<g id="a_edge12_Node000008_Node000003"><a xlink:title=" ">
<path fill="none" stroke="#63b8ff" d="M669.79,-54.84C649.72,-46.43 619.53,-33.77 596.59,-24.15"/>
<polygon fill="#63b8ff" stroke="#63b8ff" points="597.96,-20.93 587.38,-20.29 595.25,-27.38 597.96,-20.93"/>
</a>
</g>
</g>
<!-- Node8&#45;&gt;Node9 -->
<g id="edge11_Node000008_Node000009" class="edge">
<title>Node8&#45;&gt;Node9</title>
<g id="a_edge11_Node000008_Node000009"><a xlink:title=" ">
<path fill="none" stroke="#63b8ff" d="M721.19,-54.84C751.02,-45.82 796.98,-31.91 829.38,-22.11"/>
<polygon fill="#63b8ff" stroke="#63b8ff" points="830.22,-25.51 838.78,-19.27 828.19,-18.81 830.22,-25.51"/>
</a>
</g>
</g>
<!-- Node10 -->
<g id="Node000010" class="node">
<title>Node10</title>
<g id="a_Node000010"><a xlink:title=" ">
<polygon fill="#e0e0e0" stroke="#999999" points="724.46,-19.25 682.21,-19.25 682.21,0 724.46,0 724.46,-19.25"/>
<text text-anchor="middle" x="703.34" y="-5.75" font-family="Helvetica,sans-Serif" font-size="10.00">queue</text>
</a>
</g>
</g>
<!-- Node8&#45;&gt;Node10 -->
<g id="edge13_Node000008_Node000010" class="edge">
<title>Node8&#45;&gt;Node10</title>
<g id="a_edge13_Node000008_Node000010"><a xlink:title=" ">
<path fill="none" stroke="#63b8ff" d="M693.32,-55.08C694.8,-48.49 696.89,-39.21 698.78,-30.82"/>
<polygon fill="#63b8ff" stroke="#63b8ff" points="702.19,-31.61 700.98,-21.09 695.36,-30.07 702.19,-31.61"/>
</a>
</g>
</g>
<!-- Node8&#45;&gt;Node11 -->
<g id="edge14_Node000008_Node000011" class="edge">
<title>Node8&#45;&gt;Node11</title>
<g id="a_edge14_Node000008_Node000011"><a xlink:title=" ">
<path fill="none" stroke="#63b8ff" d="M740.69,-54.78C800.54,-43.75 899.59,-25.5 949.53,-16.3"/>
<polygon fill="#63b8ff" stroke="#63b8ff" points="949.85,-19.8 959.05,-14.55 948.59,-12.92 949.85,-19.8"/>
</a>
</g>
</g>
<!-- Node8&#45;&gt;Node12 -->
<g id="edge15_Node000008_Node000012" class="edge">
<title>Node8&#45;&gt;Node12</title>
<g id="a_edge15_Node000008_Node000012"><a xlink:title=" ">
<path fill="none" stroke="#63b8ff" d="M751.97,-55.38C830.64,-44.35 965.67,-25.43 1032.09,-16.12"/>
<polygon fill="#63b8ff" stroke="#63b8ff" points="1032.37,-19.62 1041.79,-14.77 1031.4,-12.69 1032.37,-19.62"/>
</a>
</g>
</g>
<!-- Node13&#45;&gt;Node3 -->
<g id="edge17_Node000013_Node000003" class="edge">
<title>Node13&#45;&gt;Node3</title>
<g id="a_edge17_Node000013_Node000003"><a xlink:title=" ">
<path fill="none" stroke="#63b8ff" d="M474.35,-110.25C490.58,-92.28 527.54,-51.36 548.7,-27.94"/>
<polygon fill="#63b8ff" stroke="#63b8ff" points="551.08,-30.52 555.19,-20.75 545.89,-25.82 551.08,-30.52"/>
</a>
</g>
</g>
<!-- Node13&#45;&gt;Node4 -->
<g id="edge18_Node000013_Node000004" class="edge">
<title>Node13&#45;&gt;Node4</title>
<g id="a_edge18_Node000013_Node000004"><a xlink:title=" ">
<path fill="none" stroke="#63b8ff" d="M464.07,-110.03C460.05,-95.88 450.24,-68.81 431.34,-55.25 396.47,-30.23 270.71,-17.56 211.1,-12.85"/>
<polygon fill="#63b8ff" stroke="#63b8ff" points="211.52,-9.37 201.29,-12.1 210.99,-16.35 211.52,-9.37"/>
</a>
</g>
</g>
<!-- Node13&#45;&gt;Node5 -->
<g id="edge21_Node000013_Node000005" class="edge">
<title>Node13&#45;&gt;Node5</title>
<g id="a_edge21_Node000013_Node000005"><a xlink:title=" ">
<path fill="none" stroke="#63b8ff" d="M427.74,-110.03C389.63,-101.05 331.2,-87.28 289.72,-77.51"/>
<polygon fill="#63b8ff" stroke="#63b8ff" points="290.78,-74.16 280.24,-75.28 289.17,-80.98 290.78,-74.16"/>
</a>
</g>
</g>
<!-- Node13&#45;&gt;Node6 -->
<g id="edge22_Node000013_Node000006" class="edge">
<title>Node13&#45;&gt;Node6</title>
<g id="a_edge22_Node000013_Node000006"><a xlink:title=" ">
<path fill="none" stroke="#63b8ff" d="M406.74,-110.03C343.1,-100.32 242.76,-85.01 178.52,-75.21"/>
<polygon fill="#63b8ff" stroke="#63b8ff" points="179.27,-71.78 168.85,-73.74 178.21,-78.7 179.27,-71.78"/>
</a>
</g>
</g>
<!-- Node13&#45;&gt;Node7 -->
<g id="edge23_Node000013_Node000007" class="edge">
<title>Node13&#45;&gt;Node7</title>
<g id="a_edge23_Node000013_Node000007"><a xlink:title=" ">
<path fill="none" stroke="#63b8ff" d="M449.54,-110.09C434.32,-101.91 411.64,-89.71 393.95,-80.19"/>
<polygon fill="#63b8ff" stroke="#63b8ff" points="396.01,-77.32 385.54,-75.67 392.69,-83.49 396.01,-77.32"/>
</a>
</g>
</g>
<!-- Node13&#45;&gt;Node8 -->
<g id="edge20_Node000013_Node000008" class="edge">
<title>Node13&#45;&gt;Node8</title>
<g id="a_edge20_Node000013_Node000008"><a xlink:title=" ">
<path fill="none" stroke="#63b8ff" d="M504.76,-110.03C542.62,-101.07 600.63,-87.34 641.9,-77.57"/>
<polygon fill="#63b8ff" stroke="#63b8ff" points="642.67,-80.99 651.6,-75.28 641.06,-74.18 642.67,-80.99"/>
</a>
</g>
</g>
<!-- Node14 -->
<g id="Node000014" class="node">
<title>Node14</title>
<g id="a_Node000014"><a xlink:title=" ">
<polygon fill="#e0e0e0" stroke="#999999" points="828.34,-74.5 770.34,-74.5 770.34,-55.25 828.34,-55.25 828.34,-74.5"/>
<text text-anchor="middle" x="799.34" y="-61" font-family="Helvetica,sans-Serif" font-size="10.00">functional</text>
</a>
</g>
</g>
<!-- Node13&#45;&gt;Node14 -->
<g id="edge19_Node000013_Node000014" class="edge">
<title>Node13&#45;&gt;Node14</title>
<g id="a_edge19_Node000013_Node000014"><a xlink:title=" ">
<path fill="none" stroke="#63b8ff" d="M536.32,-110.01C593.61,-102.21 677.01,-90.09 758.67,-74.89"/>
<polygon fill="#63b8ff" stroke="#63b8ff" points="759.25,-78.34 768.43,-73.05 757.96,-71.46 759.25,-78.34"/>
</a>
</g>
</g>
<!-- Node18&#45;&gt;Node3 -->
<g id="edge32_Node000018_Node000003" class="edge">
<title>Node18&#45;&gt;Node3</title>
<g id="a_edge32_Node000018_Node000003"><a xlink:title=" ">
<path fill="none" stroke="#63b8ff" d="M54.23,-110.36C50,-96.65 44.44,-70.19 58.34,-55.25 90.54,-20.63 423.97,-12.7 531.27,-11.03"/>
<polygon fill="#63b8ff" stroke="#63b8ff" points="531.18,-14.54 541.12,-10.89 531.07,-7.54 531.18,-14.54"/>
</a>
</g>
</g>
<!-- Node18&#45;&gt;Node4 -->
<g id="edge31_Node000018_Node000004" class="edge">
<title>Node18&#45;&gt;Node4</title>
<g id="a_edge31_Node000018_Node000004"><a xlink:title=" ">
<path fill="none" stroke="#63b8ff" d="M47,-110.3C33.19,-97.43 11.92,-73.1 25.34,-55.25 40.02,-35.7 107.06,-21.97 147.69,-15.28"/>
<polygon fill="#63b8ff" stroke="#63b8ff" points="148.06,-18.76 157.38,-13.74 146.96,-11.85 148.06,-18.76"/>
</a>
</g>
</g>
<!-- Node18&#45;&gt;Node5 -->
<g id="edge33_Node000018_Node000005" class="edge">
<title>Node18&#45;&gt;Node5</title>
<g id="a_edge33_Node000018_Node000005"><a xlink:title=" ">
<path fill="none" stroke="#63b8ff" d="M88.38,-110.09C118.61,-101.29 164.79,-87.86 198.3,-78.11"/>
<polygon fill="#63b8ff" stroke="#63b8ff" points="199.06,-81.53 207.69,-75.38 197.11,-74.81 199.06,-81.53"/>
</a>
</g>
</g>
<!-- Node18&#45;&gt;Node6 -->
<g id="edge34_Node000018_Node000006" class="edge">
<title>Node18&#45;&gt;Node6</title>
<g id="a_edge34_Node000018_Node000006"><a xlink:title=" ">
<path fill="none" stroke="#63b8ff" d="M67.51,-110.09C76.1,-102.47 88.6,-91.37 98.94,-82.2"/>
<polygon fill="#63b8ff" stroke="#63b8ff" points="101.02,-85.04 106.18,-75.78 96.37,-79.8 101.02,-85.04"/>
</a>
</g>
</g>
<!-- Node18&#45;&gt;Node7 -->
<g id="edge35_Node000018_Node000007" class="edge">
<title>Node18&#45;&gt;Node7</title>
<g id="a_edge35_Node000018_Node000007"><a xlink:title=" ">
<path fill="none" stroke="#63b8ff" d="M96.91,-112.33C148.93,-103.39 240.95,-87.58 303.03,-76.92"/>
<polygon fill="#63b8ff" stroke="#63b8ff" points="303.5,-80.39 312.76,-75.25 302.32,-73.49 303.5,-80.39"/>
</a>
</g>
</g>
<!-- Node19&#45;&gt;Node3 -->
<g id="edge41_Node000019_Node000003" class="edge">
<title>Node19&#45;&gt;Node3</title>
<g id="a_edge41_Node000019_Node000003"><a xlink:title=" ">
<path fill="none" stroke="#63b8ff" d="M307.62,-110.04C341.58,-102.21 390.2,-89.76 431.34,-74.5 469.54,-60.33 511.62,-39.1 538.01,-25.07"/>
<polygon fill="#63b8ff" stroke="#63b8ff" points="539.49,-28.24 546.64,-20.43 536.17,-22.08 539.49,-28.24"/>
</a>
</g>
</g>
<!-- Node19&#45;&gt;Node5 -->
<g id="edge38_Node000019_Node000005" class="edge">
<title>Node19&#45;&gt;Node5</title>
<g id="a_edge38_Node000019_Node000005"><a xlink:title=" ">
<path fill="none" stroke="#63b8ff" d="M261.21,-110.33C258.01,-103.51 253.45,-93.81 249.41,-85.2"/>
<polygon fill="#63b8ff" stroke="#63b8ff" points="252.61,-83.79 245.2,-76.23 246.28,-86.77 252.61,-83.79"/>
</a>
</g>
</g>
<!-- Node19&#45;&gt;Node6 -->
<g id="edge39_Node000019_Node000006" class="edge">
<title>Node19&#45;&gt;Node6</title>
<g id="a_edge39_Node000019_Node000006"><a xlink:title=" ">
<path fill="none" stroke="#63b8ff" d="M240.23,-110.09C216.31,-101.49 180.05,-88.44 153.11,-78.75"/>
<polygon fill="#63b8ff" stroke="#63b8ff" points="154.58,-75.56 143.99,-75.46 152.21,-82.14 154.58,-75.56"/>
</a>
</g>
</g>
<!-- Node19&#45;&gt;Node7 -->
<g id="edge40_Node000019_Node000007" class="edge">
<title>Node19&#45;&gt;Node7</title>
<g id="a_edge40_Node000019_Node000007"><a xlink:title=" ">
<path fill="none" stroke="#63b8ff" d="M282.64,-110.09C298.32,-101.91 321.69,-89.71 339.91,-80.19"/>
<polygon fill="#63b8ff" stroke="#63b8ff" points="341.36,-83.38 348.61,-75.65 338.12,-77.18 341.36,-83.38"/>
</a>
</g>
</g>
<!-- Node19&#45;&gt;Node8 -->
<g id="edge37_Node000019_Node000008" class="edge">
<title>Node19&#45;&gt;Node8</title>
<g id="a_edge37_Node000019_Node000008"><a xlink:title=" ">
<path fill="none" stroke="#63b8ff" d="M338.08,-110.03C416.68,-100.21 541.14,-84.65 619.41,-74.87"/>
<polygon fill="#63b8ff" stroke="#63b8ff" points="619.62,-78.37 629.11,-73.65 618.75,-71.42 619.62,-78.37"/>
</a>
</g>
</g>
<!-- Node20&#45;&gt;Node3 -->
<g id="edge44_Node000020_Node000003" class="edge">
<title>Node20&#45;&gt;Node3</title>
<g id="a_edge44_Node000020_Node000003"><a xlink:title=" ">
<path fill="none" stroke="#63b8ff" d="M678.77,-110.07C662.96,-101.9 640.05,-88.98 622.34,-74.5 605.54,-60.77 589.18,-42.13 578.14,-28.53"/>
<polygon fill="#63b8ff" stroke="#63b8ff" points="581.01,-26.51 572.06,-20.85 575.52,-30.86 581.01,-26.51"/>
</a>
</g>
</g>
<!-- Node20&#45;&gt;Node8 -->
<g id="edge43_Node000020_Node000008" class="edge">
<title>Node20&#45;&gt;Node8</title>
<g id="a_edge43_Node000020_Node000008"><a xlink:title=" ">
<path fill="none" stroke="#63b8ff" d="M696.34,-110.33C695.6,-103.74 694.56,-94.46 693.61,-86.07"/>
<polygon fill="#63b8ff" stroke="#63b8ff" points="697.11,-85.91 692.52,-76.36 690.16,-86.69 697.11,-85.91"/>
</a>
</g>
</g>
<!-- Node20&#45;&gt;Node14 -->
<g id="edge46_Node000020_Node000014" class="edge">
<title>Node20&#45;&gt;Node14</title>
<g id="a_edge46_Node000020_Node000014"><a xlink:title=" ">
<path fill="none" stroke="#63b8ff" d="M714.64,-110.09C730.32,-101.91 753.69,-89.71 771.91,-80.19"/>
<polygon fill="#63b8ff" stroke="#63b8ff" points="773.36,-83.38 780.61,-75.65 770.12,-77.18 773.36,-83.38"/>
</a>
</g>
</g>
<!-- Node21 -->
<g id="Node000021" class="node">
<title>Node21</title>
<g id="a_Node000021"><a xlink:title=" ">
<polygon fill="#e0e0e0" stroke="#999999" points="904.71,-74.5 845.96,-74.5 845.96,-55.25 904.71,-55.25 904.71,-74.5"/>
<text text-anchor="middle" x="875.34" y="-61" font-family="Helvetica,sans-Serif" font-size="10.00">stdexcept</text>
</a>
</g>
</g>
<!-- Node20&#45;&gt;Node21 -->
<g id="edge45_Node000020_Node000021" class="edge">
<title>Node20&#45;&gt;Node21</title>
<g id="a_edge45_Node000020_Node000021"><a xlink:title=" ">
<path fill="none" stroke="#63b8ff" d="M727.53,-110.09C756.99,-101.28 802,-87.81 834.61,-78.06"/>
<polygon fill="#63b8ff" stroke="#63b8ff" points="835.56,-81.43 844.14,-75.21 833.55,-74.72 835.56,-81.43"/>
</a>
</g>
</g>
<!-- Node22&#45;&gt;Node3 -->
<g id="edge50_Node000022_Node000003" class="edge">
<title>Node22&#45;&gt;Node3</title>
<g id="a_edge50_Node000022_Node000003"><a xlink:title=" ">
<path fill="none" stroke="#63b8ff" d="M887.45,-110.19C903.66,-97.18 928.68,-72.68 913.34,-55.25 902.93,-43.43 682.6,-21.67 597.48,-13.68"/>
<polygon fill="#63b8ff" stroke="#63b8ff" points="597.97,-10.21 587.68,-12.76 597.31,-17.18 597.97,-10.21"/>
</a>
</g>
</g>
<!-- Node22&#45;&gt;Node8 -->
<g id="edge48_Node000022_Node000008" class="edge">
<title>Node22&#45;&gt;Node8</title>
<g id="a_edge48_Node000022_Node000008"><a xlink:title=" ">
<path fill="none" stroke="#63b8ff" d="M844.12,-110.09C813.72,-101.29 767.3,-87.86 733.6,-78.11"/>
<polygon fill="#63b8ff" stroke="#63b8ff" points="734.73,-74.79 724.16,-75.37 732.79,-81.52 734.73,-74.79"/>
</a>
</g>
</g>
<!-- Node22&#45;&gt;Node10 -->
<g id="edge49_Node000022_Node000010" class="edge">
<title>Node22&#45;&gt;Node10</title>
<g id="a_edge49_Node000022_Node000010"><a xlink:title=" ">
<path fill="none" stroke="#63b8ff" d="M899.15,-110.08C926.26,-98.46 964.59,-77.16 946.34,-55.25 919.94,-23.57 796.14,-14.31 736.12,-11.66"/>
<polygon fill="#63b8ff" stroke="#63b8ff" points="736.32,-8.16 726.19,-11.26 736.04,-15.15 736.32,-8.16"/>
</a>
</g>
</g>
<!-- Node22&#45;&gt;Node14 -->
<g id="edge52_Node000022_Node000014" class="edge">
<title>Node22&#45;&gt;Node14</title>
<g id="a_edge52_Node000022_Node000014"><a xlink:title=" ">
<path fill="none" stroke="#63b8ff" d="M862.44,-110.09C851.31,-102.29 834.96,-90.84 821.7,-81.54"/>
<polygon fill="#63b8ff" stroke="#63b8ff" points="823.73,-78.69 813.53,-75.82 819.71,-84.43 823.73,-78.69"/>
</a>
</g>
</g>
<!-- Node22&#45;&gt;Node21 -->
<g id="edge51_Node000022_Node000021" class="edge">
<title>Node22&#45;&gt;Node21</title>
<g id="a_edge51_Node000022_Node000021"><a xlink:title=" ">
<path fill="none" stroke="#63b8ff" d="M875.34,-110.33C875.34,-103.82 875.34,-94.67 875.34,-86.37"/>
<polygon fill="#63b8ff" stroke="#63b8ff" points="878.84,-86.37 875.34,-76.37 871.84,-86.37 878.84,-86.37"/>
</a>
</g>
</g>
</g>
</svg>
