<?xml version="1.0" encoding="UTF-8" standalone="no"?>
<!DOCTYPE svg PUBLIC "-//W3C//DTD SVG 1.1//EN"
 "http://www.w3.org/Graphics/SVG/1.1/DTD/svg11.dtd">
<!-- Generated by graphviz version 12.2.1 (0)
 -->
<!-- Title: ui/ConferenceApp.h Pages: 1 -->
<svg width="705pt" height="138pt"
 viewBox="0.00 0.00 704.75 137.75" xmlns="http://www.w3.org/2000/svg" xmlns:xlink="http://www.w3.org/1999/xlink">
<g id="graph0" class="graph" transform="scale(1 1) rotate(0) translate(4 133.75)">
<title>ui/ConferenceApp.h</title>
<!-- Node1 -->
<g id="Node000001" class="node">
<title>Node1</title>
<g id="a_Node000001"><a xlink:title=" ">
<polygon fill="#999999" stroke="#666666" points="346.75,-129.75 244.5,-129.75 244.5,-110.5 346.75,-110.5 346.75,-129.75"/>
<text text-anchor="middle" x="295.62" y="-116.25" font-family="Helvetica,sans-Serif" font-size="10.00">ui/ConferenceApp.h</text>
</a>
</g>
</g>
<!-- Node2 -->
<g id="Node000002" class="node">
<title>Node2</title>
<g id="a_Node000002"><a xlink:title=" ">
<polygon fill="#e0e0e0" stroke="#999999" points="433.12,-19.25 390.12,-19.25 390.12,0 433.12,0 433.12,-19.25"/>
<text text-anchor="middle" x="411.62" y="-5.75" font-family="Helvetica,sans-Serif" font-size="10.00">vector</text>
</a>
</g>
</g>
<!-- Node1&#45;&gt;Node2 -->
<g id="edge1_Node000001_Node000002" class="edge">
<title>Node1&#45;&gt;Node2</title>
<g id="a_edge1_Node000001_Node000002"><a xlink:title=" ">
<path fill="none" stroke="#63b8ff" d="M343.25,-110.05C364.25,-103.62 387.35,-92.74 401.62,-74.5 411.26,-62.18 413.37,-44.35 413.29,-30.65"/>
<polygon fill="#63b8ff" stroke="#63b8ff" points="416.8,-30.85 412.83,-21.03 409.81,-31.19 416.8,-30.85"/>
</a>
</g>
</g>
<!-- Node3 -->
<g id="Node000003" class="node">
<title>Node3</title>
<g id="a_Node000003"><a xlink:title=" ">
<polygon fill="#e0e0e0" stroke="#999999" points="233.62,-19.25 193.62,-19.25 193.62,0 233.62,0 233.62,-19.25"/>
<text text-anchor="middle" x="213.62" y="-5.75" font-family="Helvetica,sans-Serif" font-size="10.00">string</text>
</a>
</g>
</g>
<!-- Node1&#45;&gt;Node3 -->
<g id="edge2_Node000001_Node000003" class="edge">
<title>Node1&#45;&gt;Node3</title>
<g id="a_edge2_Node000001_Node000003"><a xlink:title=" ">
<path fill="none" stroke="#63b8ff" d="M288.91,-110.25C275.46,-92.44 244.96,-52.08 227.18,-28.56"/>
<polygon fill="#63b8ff" stroke="#63b8ff" points="230.16,-26.7 221.34,-20.83 224.58,-30.92 230.16,-26.7"/>
</a>
</g>
</g>
<!-- Node4 -->
<g id="Node000004" class="node">
<title>Node4</title>
<g id="a_Node000004"><a xlink:href="_submission_8h.html" target="_top" xlink:title=" ">
<polygon fill="white" stroke="#666666" points="392.5,-74.5 282.75,-74.5 282.75,-55.25 392.5,-55.25 392.5,-74.5"/>
<text text-anchor="middle" x="337.62" y="-61" font-family="Helvetica,sans-Serif" font-size="10.00">models/Submission.h</text>
</a>
</g>
</g>
<!-- Node1&#45;&gt;Node4 -->
<g id="edge3_Node000001_Node000004" class="edge">
<title>Node1&#45;&gt;Node4</title>
<g id="a_edge3_Node000001_Node000004"><a xlink:title=" ">
<path fill="none" stroke="#63b8ff" d="M302.56,-110.33C308.24,-103.13 316.46,-92.71 323.52,-83.76"/>
<polygon fill="#63b8ff" stroke="#63b8ff" points="326.16,-86.07 329.6,-76.05 320.66,-81.73 326.16,-86.07"/>
</a>
</g>
</g>
<!-- Node5 -->
<g id="Node000005" class="node">
<title>Node5</title>
<g id="a_Node000005"><a xlink:href="_reviewer_8h.html" target="_top" xlink:title=" ">
<polygon fill="white" stroke="#666666" points="99.25,-74.5 0,-74.5 0,-55.25 99.25,-55.25 99.25,-74.5"/>
<text text-anchor="middle" x="49.62" y="-61" font-family="Helvetica,sans-Serif" font-size="10.00">models/Reviewer.h</text>
</a>
</g>
</g>
<!-- Node1&#45;&gt;Node5 -->
<g id="edge5_Node000001_Node000005" class="edge">
<title>Node1&#45;&gt;Node5</title>
<g id="a_edge5_Node000001_Node000005"><a xlink:title=" ">
<path fill="none" stroke="#63b8ff" d="M253.62,-110.03C211.87,-100.99 147.71,-87.11 102.52,-77.32"/>
<polygon fill="#63b8ff" stroke="#63b8ff" points="103.45,-73.95 92.94,-75.25 101.97,-80.79 103.45,-73.95"/>
</a>
</g>
</g>
<!-- Node6 -->
<g id="Node000006" class="node">
<title>Node6</title>
<g id="a_Node000006"><a xlink:href="_parameters_8h.html" target="_top" xlink:title=" ">
<polygon fill="white" stroke="#666666" points="226.12,-74.5 117.12,-74.5 117.12,-55.25 226.12,-55.25 226.12,-74.5"/>
<text text-anchor="middle" x="171.62" y="-61" font-family="Helvetica,sans-Serif" font-size="10.00">models/Parameters.h</text>
</a>
</g>
</g>
<!-- Node1&#45;&gt;Node6 -->
<g id="edge7_Node000001_Node000006" class="edge">
<title>Node1&#45;&gt;Node6</title>
<g id="a_edge7_Node000001_Node000006"><a xlink:title=" ">
<path fill="none" stroke="#63b8ff" d="M274.59,-110.09C254.99,-101.68 225.52,-89.02 203.12,-79.4"/>
<polygon fill="#63b8ff" stroke="#63b8ff" points="204.72,-76.28 194.15,-75.55 201.96,-82.71 204.72,-76.28"/>
</a>
</g>
</g>
<!-- Node7 -->
<g id="Node000007" class="node">
<title>Node7</title>
<g id="a_Node000007"><a xlink:href="_graph_8h.html" target="_top" xlink:title=" ">
<polygon fill="white" stroke="#666666" points="588.12,-74.5 467.12,-74.5 467.12,-55.25 588.12,-55.25 588.12,-74.5"/>
<text text-anchor="middle" x="527.62" y="-61" font-family="Helvetica,sans-Serif" font-size="10.00">data_structures/Graph.h</text>
</a>
</g>
</g>
<!-- Node1&#45;&gt;Node7 -->
<g id="edge9_Node000001_Node000007" class="edge">
<title>Node1&#45;&gt;Node7</title>
<g id="a_edge9_Node000001_Node000007"><a xlink:title=" ">
<path fill="none" stroke="#63b8ff" d="M335.24,-110.03C374.45,-101.03 434.61,-87.23 477.2,-77.45"/>
<polygon fill="#63b8ff" stroke="#63b8ff" points="477.73,-80.92 486.69,-75.27 476.17,-74.1 477.73,-80.92"/>
</a>
</g>
</g>
<!-- Node4&#45;&gt;Node3 -->
<g id="edge4_Node000004_Node000003" class="edge">
<title>Node4&#45;&gt;Node3</title>
<g id="a_edge4_Node000004_Node000003"><a xlink:title=" ">
<path fill="none" stroke="#63b8ff" d="M316.59,-54.84C296.76,-46.32 266.8,-33.46 244.31,-23.8"/>
<polygon fill="#63b8ff" stroke="#63b8ff" points="245.9,-20.68 235.33,-19.95 243.14,-27.11 245.9,-20.68"/>
</a>
</g>
</g>
<!-- Node5&#45;&gt;Node3 -->
<g id="edge6_Node000005_Node000003" class="edge">
<title>Node5&#45;&gt;Node3</title>
<g id="a_edge6_Node000005_Node000003"><a xlink:title=" ">
<path fill="none" stroke="#63b8ff" d="M77.45,-54.84C106.62,-45.37 152.35,-30.52 182.65,-20.68"/>
<polygon fill="#63b8ff" stroke="#63b8ff" points="183.57,-24.06 192,-17.65 181.41,-17.4 183.57,-24.06"/>
</a>
</g>
</g>
<!-- Node6&#45;&gt;Node3 -->
<g id="edge8_Node000006_Node000003" class="edge">
<title>Node6&#45;&gt;Node3</title>
<g id="a_edge8_Node000006_Node000003"><a xlink:title=" ">
<path fill="none" stroke="#63b8ff" d="M178.56,-55.08C184.24,-47.88 192.46,-37.46 199.52,-28.51"/>
<polygon fill="#63b8ff" stroke="#63b8ff" points="202.16,-30.82 205.6,-20.8 196.66,-26.48 202.16,-30.82"/>
</a>
</g>
</g>
<!-- Node7&#45;&gt;Node2 -->
<g id="edge11_Node000007_Node000002" class="edge">
<title>Node7&#45;&gt;Node2</title>
<g id="a_edge11_Node000007_Node000002"><a xlink:title=" ">
<path fill="none" stroke="#63b8ff" d="M507.95,-54.84C489.78,-46.5 462.54,-34 441.66,-24.41"/>
<polygon fill="#63b8ff" stroke="#63b8ff" points="443.32,-21.33 432.77,-20.33 440.4,-27.69 443.32,-21.33"/>
</a>
</g>
</g>
<!-- Node8 -->
<g id="Node000008" class="node">
<title>Node8</title>
<g id="a_Node000008"><a xlink:title=" ">
<polygon fill="#e0e0e0" stroke="#999999" points="636.38,-19.25 582.88,-19.25 582.88,0 636.38,0 636.38,-19.25"/>
<text text-anchor="middle" x="609.62" y="-5.75" font-family="Helvetica,sans-Serif" font-size="10.00">iostream</text>
</a>
</g>
</g>
<!-- Node7&#45;&gt;Node8 -->
<g id="edge10_Node000007_Node000008" class="edge">
<title>Node7&#45;&gt;Node8</title>
<g id="a_edge10_Node000007_Node000008"><a xlink:title=" ">
<path fill="none" stroke="#63b8ff" d="M541.54,-54.84C553.79,-46.89 571.88,-35.14 586.34,-25.75"/>
<polygon fill="#63b8ff" stroke="#63b8ff" points="587.9,-28.91 594.38,-20.53 584.08,-23.04 587.9,-28.91"/>
</a>
</g>
</g>
<!-- Node9 -->
<g id="Node000009" class="node">
<title>Node9</title>
<g id="a_Node000009"><a xlink:title=" ">
<polygon fill="#e0e0e0" stroke="#999999" points="696.75,-19.25 654.5,-19.25 654.5,0 696.75,0 696.75,-19.25"/>
<text text-anchor="middle" x="675.62" y="-5.75" font-family="Helvetica,sans-Serif" font-size="10.00">queue</text>
</a>
</g>
</g>
<!-- Node7&#45;&gt;Node9 -->
<g id="edge12_Node000007_Node000009" class="edge">
<title>Node7&#45;&gt;Node9</title>
<g id="a_edge12_Node000007_Node000009"><a xlink:title=" ">
<path fill="none" stroke="#63b8ff" d="M552.73,-54.84C577.81,-45.82 616.45,-31.92 643.7,-22.11"/>
<polygon fill="#63b8ff" stroke="#63b8ff" points="644.6,-25.51 652.82,-18.83 642.23,-18.92 644.6,-25.51"/>
</a>
</g>
</g>
<!-- Node10 -->
<g id="Node000010" class="node">
<title>Node10</title>
<g id="a_Node000010"><a xlink:title=" ">
<polygon fill="#e0e0e0" stroke="#999999" points="490.25,-19.25 451,-19.25 451,0 490.25,0 490.25,-19.25"/>
<text text-anchor="middle" x="470.62" y="-5.75" font-family="Helvetica,sans-Serif" font-size="10.00">limits</text>
</a>
</g>
</g>
<!-- Node7&#45;&gt;Node10 -->
<g id="edge13_Node000007_Node000010" class="edge">
<title>Node7&#45;&gt;Node10</title>
<g id="a_edge13_Node000007_Node000010"><a xlink:title=" ">
<path fill="none" stroke="#63b8ff" d="M517.96,-54.84C509.88,-47.3 498.16,-36.35 488.4,-27.23"/>
<polygon fill="#63b8ff" stroke="#63b8ff" points="490.95,-24.83 481.26,-20.56 486.18,-29.94 490.95,-24.83"/>
</a>
</g>
</g>
<!-- Node11 -->
<g id="Node000011" class="node">
<title>Node11</title>
<g id="a_Node000011"><a xlink:title=" ">
<polygon fill="#e0e0e0" stroke="#999999" points="564.5,-19.25 508.75,-19.25 508.75,0 564.5,0 564.5,-19.25"/>
<text text-anchor="middle" x="536.62" y="-5.75" font-family="Helvetica,sans-Serif" font-size="10.00">algorithm</text>
</a>
</g>
</g>
<!-- Node7&#45;&gt;Node11 -->
<g id="edge14_Node000007_Node000011" class="edge">
<title>Node7&#45;&gt;Node11</title>
<g id="a_edge14_Node000007_Node000011"><a xlink:title=" ">
<path fill="none" stroke="#63b8ff" d="M529.11,-55.08C530.22,-48.49 531.79,-39.21 533.21,-30.82"/>
<polygon fill="#63b8ff" stroke="#63b8ff" points="536.64,-31.55 534.85,-21.1 529.74,-30.38 536.64,-31.55"/>
</a>
</g>
</g>
</g>
</svg>
