<?xml version="1.0" encoding="UTF-8" standalone="no"?>
<!DOCTYPE svg PUBLIC "-//W3C//DTD SVG 1.1//EN"
 "http://www.w3.org/Graphics/SVG/1.1/DTD/svg11.dtd">
<!-- Generated by graphviz version 12.2.1 (0)
 -->
<!-- Title: utils/EdmondKarp.cpp Pages: 1 -->
<svg width="439pt" height="204pt"
 viewBox="0.00 0.00 439.25 204.25" xmlns="http://www.w3.org/2000/svg" xmlns:xlink="http://www.w3.org/1999/xlink">
<g id="graph0" class="graph" transform="scale(1 1) rotate(0) translate(4 200.25)">
<title>utils/EdmondKarp.cpp</title>
<!-- Node1 -->
<g id="Node000001" class="node">
<title>Node1</title>
<g id="a_Node000001"><a xlink:title=" ">
<polygon fill="#999999" stroke="#666666" points="335.38,-196.25 223.38,-196.25 223.38,-177 335.38,-177 335.38,-196.25"/>
<text text-anchor="middle" x="279.38" y="-182.75" font-family="Helvetica,sans-Serif" font-size="10.00">utils/EdmondKarp.cpp</text>
</a>
</g>
</g>
<!-- Node2 -->
<g id="Node000002" class="node">
<title>Node2</title>
<g id="a_Node000002"><a xlink:href="_edmond_karp_8h.html" target="_top" xlink:title="Implementations of the Edmonds&#45;Karp algorithm for calculating maximum flow.">
<polygon fill="white" stroke="#666666" points="221.62,-141 141.12,-141 141.12,-121.75 221.62,-121.75 221.62,-141"/>
<text text-anchor="middle" x="181.38" y="-127.5" font-family="Helvetica,sans-Serif" font-size="10.00">EdmondKarp.h</text>
</a>
</g>
</g>
<!-- Node1&#45;&gt;Node2 -->
<g id="edge1_Node000001_Node000002" class="edge">
<title>Node1&#45;&gt;Node2</title>
<g id="a_edge1_Node000001_Node000002"><a xlink:title=" ">
<path fill="none" stroke="#63b8ff" d="M262.75,-176.59C247.69,-168.41 225.23,-156.21 207.72,-146.69"/>
<polygon fill="#63b8ff" stroke="#63b8ff" points="209.87,-143.87 199.41,-142.18 206.53,-150.02 209.87,-143.87"/>
</a>
</g>
</g>
<!-- Node8 -->
<g id="Node000008" class="node">
<title>Node8</title>
<g id="a_Node000008"><a xlink:title=" ">
<polygon fill="#e0e0e0" stroke="#999999" points="431.25,-19.25 375.5,-19.25 375.5,0 431.25,0 431.25,-19.25"/>
<text text-anchor="middle" x="403.38" y="-5.75" font-family="Helvetica,sans-Serif" font-size="10.00">algorithm</text>
</a>
</g>
</g>
<!-- Node1&#45;&gt;Node8 -->
<g id="edge12_Node000001_Node000008" class="edge">
<title>Node1&#45;&gt;Node8</title>
<g id="a_edge12_Node000001_Node000008"><a xlink:title=" ">
<path fill="none" stroke="#63b8ff" d="M285.69,-176.71C305.09,-149.33 364.06,-66.11 390.41,-28.92"/>
<polygon fill="#63b8ff" stroke="#63b8ff" points="393.12,-31.15 396.04,-20.97 387.41,-27.11 393.12,-31.15"/>
</a>
</g>
</g>
<!-- Node3 -->
<g id="Node000003" class="node">
<title>Node3</title>
<g id="a_Node000003"><a xlink:href="_graph_8h.html" target="_top" xlink:title=" ">
<polygon fill="white" stroke="#666666" points="320.62,-85.75 228.12,-85.75 228.12,-55.25 320.62,-55.25 320.62,-85.75"/>
<text text-anchor="start" x="236.12" y="-72.25" font-family="Helvetica,sans-Serif" font-size="10.00">../data_structures</text>
<text text-anchor="middle" x="274.38" y="-61" font-family="Helvetica,sans-Serif" font-size="10.00">/Graph.h</text>
</a>
</g>
</g>
<!-- Node2&#45;&gt;Node3 -->
<g id="edge2_Node000002_Node000003" class="edge">
<title>Node2&#45;&gt;Node3</title>
<g id="a_edge2_Node000002_Node000003"><a xlink:title=" ">
<path fill="none" stroke="#63b8ff" d="M195.5,-121.43C207.79,-113.65 226.06,-102.09 241.93,-92.04"/>
<polygon fill="#63b8ff" stroke="#63b8ff" points="243.56,-95.15 250.14,-86.84 239.82,-89.23 243.56,-95.15"/>
</a>
</g>
</g>
<!-- Node5 -->
<g id="Node000005" class="node">
<title>Node5</title>
<g id="a_Node000005"><a xlink:title=" ">
<polygon fill="#e0e0e0" stroke="#999999" points="167.88,-19.25 124.88,-19.25 124.88,0 167.88,0 167.88,-19.25"/>
<text text-anchor="middle" x="146.38" y="-5.75" font-family="Helvetica,sans-Serif" font-size="10.00">vector</text>
</a>
</g>
</g>
<!-- Node2&#45;&gt;Node5 -->
<g id="edge9_Node000002_Node000005" class="edge">
<title>Node2&#45;&gt;Node5</title>
<g id="a_edge9_Node000002_Node000005"><a xlink:title=" ">
<path fill="none" stroke="#63b8ff" d="M178.74,-121.37C173.14,-102.22 159.93,-57.01 152.23,-30.65"/>
<polygon fill="#63b8ff" stroke="#63b8ff" points="155.63,-29.8 149.46,-21.18 148.91,-31.76 155.63,-29.8"/>
</a>
</g>
</g>
<!-- Node6 -->
<g id="Node000006" class="node">
<title>Node6</title>
<g id="a_Node000006"><a xlink:title=" ">
<polygon fill="#e0e0e0" stroke="#999999" points="228.5,-19.25 186.25,-19.25 186.25,0 228.5,0 228.5,-19.25"/>
<text text-anchor="middle" x="207.38" y="-5.75" font-family="Helvetica,sans-Serif" font-size="10.00">queue</text>
</a>
</g>
</g>
<!-- Node2&#45;&gt;Node6 -->
<g id="edge8_Node000002_Node000006" class="edge">
<title>Node2&#45;&gt;Node6</title>
<g id="a_edge8_Node000002_Node000006"><a xlink:title=" ">
<path fill="none" stroke="#63b8ff" d="M183.33,-121.37C187.49,-102.22 197.3,-57.01 203.03,-30.65"/>
<polygon fill="#63b8ff" stroke="#63b8ff" points="206.38,-31.72 205.08,-21.21 199.53,-30.24 206.38,-31.72"/>
</a>
</g>
</g>
<!-- Node9 -->
<g id="Node000009" class="node">
<title>Node9</title>
<g id="a_Node000009"><a xlink:title=" ">
<polygon fill="#e0e0e0" stroke="#999999" points="58.75,-80.12 0,-80.12 0,-60.88 58.75,-60.88 58.75,-80.12"/>
<text text-anchor="middle" x="29.38" y="-66.62" font-family="Helvetica,sans-Serif" font-size="10.00">stdexcept</text>
</a>
</g>
</g>
<!-- Node2&#45;&gt;Node9 -->
<g id="edge10_Node000002_Node000009" class="edge">
<title>Node2&#45;&gt;Node9</title>
<g id="a_edge10_Node000002_Node000009"><a xlink:title=" ">
<path fill="none" stroke="#63b8ff" d="M157.96,-121.3C132.63,-111.49 92.02,-95.76 63.22,-84.61"/>
<polygon fill="#63b8ff" stroke="#63b8ff" points="64.82,-81.48 54.23,-81.13 62.29,-88 64.82,-81.48"/>
</a>
</g>
</g>
<!-- Node10 -->
<g id="Node000010" class="node">
<title>Node10</title>
<g id="a_Node000010"><a xlink:title=" ">
<polygon fill="#e0e0e0" stroke="#999999" points="134.38,-80.12 76.38,-80.12 76.38,-60.88 134.38,-60.88 134.38,-80.12"/>
<text text-anchor="middle" x="105.38" y="-66.62" font-family="Helvetica,sans-Serif" font-size="10.00">functional</text>
</a>
</g>
</g>
<!-- Node2&#45;&gt;Node10 -->
<g id="edge11_Node000002_Node000010" class="edge">
<title>Node2&#45;&gt;Node10</title>
<g id="a_edge11_Node000002_Node000010"><a xlink:title=" ">
<path fill="none" stroke="#63b8ff" d="M169.83,-121.43C158.23,-112.44 140.08,-98.39 126,-87.48"/>
<polygon fill="#63b8ff" stroke="#63b8ff" points="128.27,-84.81 118.22,-81.45 123.98,-90.34 128.27,-84.81"/>
</a>
</g>
</g>
<!-- Node4 -->
<g id="Node000004" class="node">
<title>Node4</title>
<g id="a_Node000004"><a xlink:title=" ">
<polygon fill="#e0e0e0" stroke="#999999" points="357.12,-19.25 303.62,-19.25 303.62,0 357.12,0 357.12,-19.25"/>
<text text-anchor="middle" x="330.38" y="-5.75" font-family="Helvetica,sans-Serif" font-size="10.00">iostream</text>
</a>
</g>
</g>
<!-- Node3&#45;&gt;Node4 -->
<g id="edge3_Node000003_Node000004" class="edge">
<title>Node3&#45;&gt;Node4</title>
<g id="a_edge3_Node000003_Node000004"><a xlink:title=" ">
<path fill="none" stroke="#63b8ff" d="M288.22,-54.95C296.01,-46.76 305.78,-36.48 313.95,-27.89"/>
<polygon fill="#63b8ff" stroke="#63b8ff" points="316.34,-30.46 320.7,-20.8 311.27,-25.63 316.34,-30.46"/>
</a>
</g>
</g>
<!-- Node3&#45;&gt;Node5 -->
<g id="edge4_Node000003_Node000005" class="edge">
<title>Node3&#45;&gt;Node5</title>
<g id="a_edge4_Node000003_Node000005"><a xlink:title=" ">
<path fill="none" stroke="#63b8ff" d="M242.41,-54.8C222.16,-45.48 196.16,-33.52 176.32,-24.4"/>
<polygon fill="#63b8ff" stroke="#63b8ff" points="177.93,-21.29 167.38,-20.29 175,-27.65 177.93,-21.29"/>
</a>
</g>
</g>
<!-- Node3&#45;&gt;Node6 -->
<g id="edge5_Node000003_Node000006" class="edge">
<title>Node3&#45;&gt;Node6</title>
<g id="a_edge5_Node000003_Node000006"><a xlink:title=" ">
<path fill="none" stroke="#63b8ff" d="M257.81,-54.95C248.2,-46.5 236.06,-35.83 226.1,-27.08"/>
<polygon fill="#63b8ff" stroke="#63b8ff" points="228.66,-24.67 218.84,-20.7 224.04,-29.93 228.66,-24.67"/>
</a>
</g>
</g>
<!-- Node7 -->
<g id="Node000007" class="node">
<title>Node7</title>
<g id="a_Node000007"><a xlink:title=" ">
<polygon fill="#e0e0e0" stroke="#999999" points="286,-19.25 246.75,-19.25 246.75,0 286,0 286,-19.25"/>
<text text-anchor="middle" x="266.38" y="-5.75" font-family="Helvetica,sans-Serif" font-size="10.00">limits</text>
</a>
</g>
</g>
<!-- Node3&#45;&gt;Node7 -->
<g id="edge6_Node000003_Node000007" class="edge">
<title>Node3&#45;&gt;Node7</title>
<g id="a_edge6_Node000003_Node000007"><a xlink:title=" ">
<path fill="none" stroke="#63b8ff" d="M272.4,-54.95C271.41,-47.71 270.21,-38.84 269.14,-30.94"/>
<polygon fill="#63b8ff" stroke="#63b8ff" points="272.63,-30.64 267.81,-21.2 265.69,-31.58 272.63,-30.64"/>
</a>
</g>
</g>
<!-- Node3&#45;&gt;Node8 -->
<g id="edge7_Node000003_Node000008" class="edge">
<title>Node3&#45;&gt;Node8</title>
<g id="a_edge7_Node000003_Node000008"><a xlink:title=" ">
<path fill="none" stroke="#63b8ff" d="M306.59,-54.8C327,-45.48 353.2,-33.52 373.2,-24.4"/>
<polygon fill="#63b8ff" stroke="#63b8ff" points="374.57,-27.62 382.21,-20.28 371.66,-21.25 374.57,-27.62"/>
</a>
</g>
</g>
</g>
</svg>
