<?xml version="1.0" encoding="UTF-8" standalone="no"?>
<!DOCTYPE svg PUBLIC "-//W3C//DTD SVG 1.1//EN"
 "http://www.w3.org/Graphics/SVG/1.1/DTD/svg11.dtd">
<!-- Generated by graphviz version 12.2.1 (0)
 -->
<!-- Title: utils/EdmondKarp.h Pages: 1 -->
<svg width="484pt" height="83pt"
 viewBox="0.00 0.00 483.88 82.50" xmlns="http://www.w3.org/2000/svg" xmlns:xlink="http://www.w3.org/1999/xlink">
<g id="graph0" class="graph" transform="scale(1 1) rotate(0) translate(4 78.5)">
<title>utils/EdmondKarp.h</title>
<!-- Node1 -->
<g id="Node000001" class="node">
<title>Node1</title>
<g id="a_Node000001"><a xlink:title="Implementations of the Edmonds&#45;Karp algorithm for calculating maximum flow.">
<polygon fill="#999999" stroke="#666666" points="258.62,-74.5 157.12,-74.5 157.12,-55.25 258.62,-55.25 258.62,-74.5"/>
<text text-anchor="middle" x="207.88" y="-61" font-family="Helvetica,sans-Serif" font-size="10.00">utils/EdmondKarp.h</text>
</a>
</g>
</g>
<!-- Node2 -->
<g id="Node000002" class="node">
<title>Node2</title>
<g id="a_Node000002"><a xlink:href="main_8cpp.html" target="_top" xlink:title=" ">
<polygon fill="white" stroke="#666666" points="55.75,-19.25 0,-19.25 0,0 55.75,0 55.75,-19.25"/>
<text text-anchor="middle" x="27.88" y="-5.75" font-family="Helvetica,sans-Serif" font-size="10.00">main.cpp</text>
</a>
</g>
</g>
<!-- Node1&#45;&gt;Node2 -->
<g id="edge1_Node000001_Node000002" class="edge">
<title>Node1&#45;&gt;Node2</title>
<g id="a_edge1_Node000001_Node000002"><a xlink:title=" ">
<path fill="none" stroke="#63b8ff" d="M166.42,-51.61C132.63,-41.62 85.81,-27.76 56.18,-19"/>
<polygon fill="#63b8ff" stroke="#63b8ff" points="165.31,-54.93 175.89,-54.41 167.29,-48.22 165.31,-54.93"/>
</a>
</g>
</g>
<!-- Node3 -->
<g id="Node000003" class="node">
<title>Node3</title>
<g id="a_Node000003"><a xlink:href="maxflow__tests_8cpp.html" target="_top" xlink:title=" ">
<polygon fill="white" stroke="#666666" points="197.5,-19.25 74.25,-19.25 74.25,0 197.5,0 197.5,-19.25"/>
<text text-anchor="middle" x="135.88" y="-5.75" font-family="Helvetica,sans-Serif" font-size="10.00">tests/maxflow_tests.cpp</text>
</a>
</g>
</g>
<!-- Node1&#45;&gt;Node3 -->
<g id="edge2_Node000001_Node000003" class="edge">
<title>Node1&#45;&gt;Node3</title>
<g id="a_edge2_Node000001_Node000003"><a xlink:title=" ">
<path fill="none" stroke="#63b8ff" d="M186.7,-48.22C174.06,-38.87 158.47,-27.33 147.91,-19.52"/>
<polygon fill="#63b8ff" stroke="#63b8ff" points="184.32,-50.81 194.44,-53.94 188.49,-45.18 184.32,-50.81"/>
</a>
</g>
</g>
<!-- Node4 -->
<g id="Node000004" class="node">
<title>Node4</title>
<g id="a_Node000004"><a xlink:href="_assignment_logic_8cpp.html" target="_top" xlink:title=" ">
<polygon fill="white" stroke="#666666" points="346.25,-19.25 215.5,-19.25 215.5,0 346.25,0 346.25,-19.25"/>
<text text-anchor="middle" x="280.88" y="-5.75" font-family="Helvetica,sans-Serif" font-size="10.00">utils/AssignmentLogic.cpp</text>
</a>
</g>
</g>
<!-- Node1&#45;&gt;Node4 -->
<g id="edge3_Node000001_Node000004" class="edge">
<title>Node1&#45;&gt;Node4</title>
<g id="a_edge3_Node000001_Node000004"><a xlink:title=" ">
<path fill="none" stroke="#63b8ff" d="M229.34,-48.22C242.16,-38.87 257.97,-27.33 268.67,-19.52"/>
<polygon fill="#63b8ff" stroke="#63b8ff" points="227.5,-45.23 221.48,-53.95 231.62,-50.88 227.5,-45.23"/>
</a>
</g>
</g>
<!-- Node5 -->
<g id="Node000005" class="node">
<title>Node5</title>
<g id="a_Node000005"><a xlink:href="_edmond_karp_8cpp.html" target="_top" xlink:title=" ">
<polygon fill="white" stroke="#666666" points="475.88,-19.25 363.88,-19.25 363.88,0 475.88,0 475.88,-19.25"/>
<text text-anchor="middle" x="419.88" y="-5.75" font-family="Helvetica,sans-Serif" font-size="10.00">utils/EdmondKarp.cpp</text>
</a>
</g>
</g>
<!-- Node1&#45;&gt;Node5 -->
<g id="edge4_Node000001_Node000005" class="edge">
<title>Node1&#45;&gt;Node5</title>
<g id="a_edge4_Node000001_Node000005"><a xlink:title=" ">
<path fill="none" stroke="#63b8ff" d="M254.87,-52.07C293.75,-42.3 348.19,-28.63 383.74,-19.7"/>
<polygon fill="#63b8ff" stroke="#63b8ff" points="254.15,-48.64 245.31,-54.47 255.86,-55.43 254.15,-48.64"/>
</a>
</g>
</g>
</g>
</svg>
