<?xml version="1.0" encoding="UTF-8" standalone="no"?>
<!DOCTYPE svg PUBLIC "-//W3C//DTD SVG 1.1//EN"
 "http://www.w3.org/Graphics/SVG/1.1/DTD/svg11.dtd">
<!-- Generated by graphviz version 12.2.1 (0)
 -->
<!-- Title: algorithms/EdmondKarp.h Pages: 1 -->
<svg width="411pt" height="138pt"
 viewBox="0.00 0.00 410.50 137.75" xmlns="http://www.w3.org/2000/svg" xmlns:xlink="http://www.w3.org/1999/xlink">
<g id="graph0" class="graph" transform="scale(1 1) rotate(0) translate(4 133.75)">
<title>algorithms/EdmondKarp.h</title>
<!-- Node1 -->
<g id="Node000001" class="node">
<title>Node1</title>
<g id="a_Node000001"><a xlink:title="Implementations of the Edmonds&#45;Karp algorithm for calculating maximum flow.">
<polygon fill="#999999" stroke="#666666" points="304.75,-129.75 176.25,-129.75 176.25,-110.5 304.75,-110.5 304.75,-129.75"/>
<text text-anchor="middle" x="240.5" y="-116.25" font-family="Helvetica,sans-Serif" font-size="10.00">algorithms/EdmondKarp.h</text>
</a>
</g>
</g>
<!-- Node2 -->
<g id="Node000002" class="node">
<title>Node2</title>
<g id="a_Node000002"><a xlink:href="_graph_8h.html" target="_top" xlink:title=" ">
<polygon fill="white" stroke="#666666" points="212,-74.5 91,-74.5 91,-55.25 212,-55.25 212,-74.5"/>
<text text-anchor="middle" x="151.5" y="-61" font-family="Helvetica,sans-Serif" font-size="10.00">data_structures/Graph.h</text>
</a>
</g>
</g>
<!-- Node1&#45;&gt;Node2 -->
<g id="edge1_Node000001_Node000002" class="edge">
<title>Node1&#45;&gt;Node2</title>
<g id="a_edge1_Node000001_Node000002"><a xlink:title=" ">
<path fill="none" stroke="#63b8ff" d="M225.4,-110.09C211.98,-102.06 192.09,-90.16 176.33,-80.73"/>
<polygon fill="#63b8ff" stroke="#63b8ff" points="178.35,-77.86 167.97,-75.73 174.75,-83.87 178.35,-77.86"/>
</a>
</g>
</g>
<!-- Node4 -->
<g id="Node000004" class="node">
<title>Node4</title>
<g id="a_Node000004"><a xlink:title=" ">
<polygon fill="#e0e0e0" stroke="#999999" points="43,-19.25 0,-19.25 0,0 43,0 43,-19.25"/>
<text text-anchor="middle" x="21.5" y="-5.75" font-family="Helvetica,sans-Serif" font-size="10.00">vector</text>
</a>
</g>
</g>
<!-- Node1&#45;&gt;Node4 -->
<g id="edge8_Node000001_Node000004" class="edge">
<title>Node1&#45;&gt;Node4</title>
<g id="a_edge8_Node000001_Node000004"><a xlink:title=" ">
<path fill="none" stroke="#63b8ff" d="M180.82,-110.07C149.88,-103.5 112.42,-92.51 82.5,-74.5 62.86,-62.68 45.36,-42.88 34.19,-28.45"/>
<polygon fill="#63b8ff" stroke="#63b8ff" points="37.2,-26.64 28.43,-20.7 31.59,-30.82 37.2,-26.64"/>
</a>
</g>
</g>
<!-- Node5 -->
<g id="Node000005" class="node">
<title>Node5</title>
<g id="a_Node000005"><a xlink:title=" ">
<polygon fill="#e0e0e0" stroke="#999999" points="305.62,-19.25 263.38,-19.25 263.38,0 305.62,0 305.62,-19.25"/>
<text text-anchor="middle" x="284.5" y="-5.75" font-family="Helvetica,sans-Serif" font-size="10.00">queue</text>
</a>
</g>
</g>
<!-- Node1&#45;&gt;Node5 -->
<g id="edge7_Node000001_Node000005" class="edge">
<title>Node1&#45;&gt;Node5</title>
<g id="a_edge7_Node000001_Node000005"><a xlink:title=" ">
<path fill="none" stroke="#63b8ff" d="M242.48,-110.23C245.43,-97.69 251.48,-74.22 259.5,-55.25 263.21,-46.47 268.21,-37.2 272.76,-29.4"/>
<polygon fill="#63b8ff" stroke="#63b8ff" points="275.75,-31.22 277.93,-20.85 269.76,-27.59 275.75,-31.22"/>
</a>
</g>
</g>
<!-- Node8 -->
<g id="Node000008" class="node">
<title>Node8</title>
<g id="a_Node000008"><a xlink:title=" ">
<polygon fill="#e0e0e0" stroke="#999999" points="326.88,-74.5 268.12,-74.5 268.12,-55.25 326.88,-55.25 326.88,-74.5"/>
<text text-anchor="middle" x="297.5" y="-61" font-family="Helvetica,sans-Serif" font-size="10.00">stdexcept</text>
</a>
</g>
</g>
<!-- Node1&#45;&gt;Node8 -->
<g id="edge9_Node000001_Node000008" class="edge">
<title>Node1&#45;&gt;Node8</title>
<g id="a_edge9_Node000001_Node000008"><a xlink:title=" ">
<path fill="none" stroke="#63b8ff" d="M250.17,-110.09C258.24,-102.55 269.97,-91.6 279.72,-82.48"/>
<polygon fill="#63b8ff" stroke="#63b8ff" points="281.95,-85.19 286.87,-75.81 277.17,-80.08 281.95,-85.19"/>
</a>
</g>
</g>
<!-- Node9 -->
<g id="Node000009" class="node">
<title>Node9</title>
<g id="a_Node000009"><a xlink:title=" ">
<polygon fill="#e0e0e0" stroke="#999999" points="402.5,-74.5 344.5,-74.5 344.5,-55.25 402.5,-55.25 402.5,-74.5"/>
<text text-anchor="middle" x="373.5" y="-61" font-family="Helvetica,sans-Serif" font-size="10.00">functional</text>
</a>
</g>
</g>
<!-- Node1&#45;&gt;Node9 -->
<g id="edge10_Node000001_Node000009" class="edge">
<title>Node1&#45;&gt;Node9</title>
<g id="a_edge10_Node000001_Node000009"><a xlink:title=" ">
<path fill="none" stroke="#63b8ff" d="M263.06,-110.09C284.27,-101.6 316.27,-88.79 340.38,-79.14"/>
<polygon fill="#63b8ff" stroke="#63b8ff" points="341.44,-82.48 349.42,-75.52 338.84,-75.98 341.44,-82.48"/>
</a>
</g>
</g>
<!-- Node3 -->
<g id="Node000003" class="node">
<title>Node3</title>
<g id="a_Node000003"><a xlink:title=" ">
<polygon fill="#e0e0e0" stroke="#999999" points="114.25,-19.25 60.75,-19.25 60.75,0 114.25,0 114.25,-19.25"/>
<text text-anchor="middle" x="87.5" y="-5.75" font-family="Helvetica,sans-Serif" font-size="10.00">iostream</text>
</a>
</g>
</g>
<!-- Node2&#45;&gt;Node3 -->
<g id="edge2_Node000002_Node000003" class="edge">
<title>Node2&#45;&gt;Node3</title>
<g id="a_edge2_Node000002_Node000003"><a xlink:title=" ">
<path fill="none" stroke="#63b8ff" d="M140.64,-54.84C131.39,-47.15 117.88,-35.9 106.79,-26.68"/>
<polygon fill="#63b8ff" stroke="#63b8ff" points="109.29,-24.2 99.36,-20.49 104.81,-29.58 109.29,-24.2"/>
</a>
</g>
</g>
<!-- Node2&#45;&gt;Node4 -->
<g id="edge3_Node000002_Node000004" class="edge">
<title>Node2&#45;&gt;Node4</title>
<g id="a_edge3_Node000002_Node000004"><a xlink:title=" ">
<path fill="none" stroke="#63b8ff" d="M129.45,-54.84C108.69,-46.34 77.34,-33.5 53.77,-23.84"/>
<polygon fill="#63b8ff" stroke="#63b8ff" points="55.21,-20.65 44.63,-20.1 52.55,-27.13 55.21,-20.65"/>
</a>
</g>
</g>
<!-- Node2&#45;&gt;Node5 -->
<g id="edge4_Node000002_Node000005" class="edge">
<title>Node2&#45;&gt;Node5</title>
<g id="a_edge4_Node000002_Node000005"><a xlink:title=" ">
<path fill="none" stroke="#63b8ff" d="M174.06,-54.84C195.66,-46.2 228.44,-33.07 252.68,-23.36"/>
<polygon fill="#63b8ff" stroke="#63b8ff" points="253.76,-26.7 261.74,-19.74 251.16,-20.2 253.76,-26.7"/>
</a>
</g>
</g>
<!-- Node6 -->
<g id="Node000006" class="node">
<title>Node6</title>
<g id="a_Node000006"><a xlink:title=" ">
<polygon fill="#e0e0e0" stroke="#999999" points="171.12,-19.25 131.88,-19.25 131.88,0 171.12,0 171.12,-19.25"/>
<text text-anchor="middle" x="151.5" y="-5.75" font-family="Helvetica,sans-Serif" font-size="10.00">limits</text>
</a>
</g>
</g>
<!-- Node2&#45;&gt;Node6 -->
<g id="edge5_Node000002_Node000006" class="edge">
<title>Node2&#45;&gt;Node6</title>
<g id="a_edge5_Node000002_Node000006"><a xlink:title=" ">
<path fill="none" stroke="#63b8ff" d="M151.5,-55.08C151.5,-48.57 151.5,-39.42 151.5,-31.12"/>
<polygon fill="#63b8ff" stroke="#63b8ff" points="155,-31.12 151.5,-21.12 148,-31.12 155,-31.12"/>
</a>
</g>
</g>
<!-- Node7 -->
<g id="Node000007" class="node">
<title>Node7</title>
<g id="a_Node000007"><a xlink:title=" ">
<polygon fill="#e0e0e0" stroke="#999999" points="245.38,-19.25 189.62,-19.25 189.62,0 245.38,0 245.38,-19.25"/>
<text text-anchor="middle" x="217.5" y="-5.75" font-family="Helvetica,sans-Serif" font-size="10.00">algorithm</text>
</a>
</g>
</g>
<!-- Node2&#45;&gt;Node7 -->
<g id="edge6_Node000002_Node000007" class="edge">
<title>Node2&#45;&gt;Node7</title>
<g id="a_edge6_Node000002_Node000007"><a xlink:title=" ">
<path fill="none" stroke="#63b8ff" d="M162.7,-54.84C172.24,-47.15 186.17,-35.9 197.61,-26.68"/>
<polygon fill="#63b8ff" stroke="#63b8ff" points="199.71,-29.48 205.29,-20.48 195.31,-24.03 199.71,-29.48"/>
</a>
</g>
</g>
</g>
</svg>
