<?xml version="1.0" encoding="UTF-8" standalone="no"?>
<!DOCTYPE svg PUBLIC "-//W3C//DTD SVG 1.1//EN"
 "http://www.w3.org/Graphics/SVG/1.1/DTD/svg11.dtd">
<!-- Generated by graphviz version 12.2.1 (0)
 -->
<!-- Title: algorithms/EdmondKarp.cpp Pages: 1 -->
<svg width="443pt" height="193pt"
 viewBox="0.00 0.00 443.25 193.00" xmlns="http://www.w3.org/2000/svg" xmlns:xlink="http://www.w3.org/1999/xlink">
<g id="graph0" class="graph" transform="scale(1 1) rotate(0) translate(4 189)">
<title>algorithms/EdmondKarp.cpp</title>
<!-- Node1 -->
<g id="Node000001" class="node">
<title>Node1</title>
<g id="a_Node000001"><a xlink:title=" ">
<polygon fill="#999999" stroke="#666666" points="348.88,-185 209.88,-185 209.88,-165.75 348.88,-165.75 348.88,-185"/>
<text text-anchor="middle" x="279.38" y="-171.5" font-family="Helvetica,sans-Serif" font-size="10.00">algorithms/EdmondKarp.cpp</text>
</a>
</g>
</g>
<!-- Node2 -->
<g id="Node000002" class="node">
<title>Node2</title>
<g id="a_Node000002"><a xlink:href="_edmond_karp_8h.html" target="_top" xlink:title="Implementation of the Edmonds&#45;Karp algorithm for calculating maximum flow.">
<polygon fill="white" stroke="#666666" points="245.62,-129.75 117.12,-129.75 117.12,-110.5 245.62,-110.5 245.62,-129.75"/>
<text text-anchor="middle" x="181.38" y="-116.25" font-family="Helvetica,sans-Serif" font-size="10.00">algorithms/EdmondKarp.h</text>
</a>
</g>
</g>
<!-- Node1&#45;&gt;Node2 -->
<g id="edge1_Node000001_Node000002" class="edge">
<title>Node1&#45;&gt;Node2</title>
<g id="a_edge1_Node000001_Node000002"><a xlink:title=" ">
<path fill="none" stroke="#63b8ff" d="M262.75,-165.34C247.69,-157.16 225.23,-144.96 207.72,-135.44"/>
<polygon fill="#63b8ff" stroke="#63b8ff" points="209.87,-132.62 199.41,-130.93 206.53,-138.77 209.87,-132.62"/>
</a>
</g>
</g>
<!-- Node8 -->
<g id="Node000008" class="node">
<title>Node8</title>
<g id="a_Node000008"><a xlink:title=" ">
<polygon fill="#e0e0e0" stroke="#999999" points="435.25,-19.25 379.5,-19.25 379.5,0 435.25,0 435.25,-19.25"/>
<text text-anchor="middle" x="407.38" y="-5.75" font-family="Helvetica,sans-Serif" font-size="10.00">algorithm</text>
</a>
</g>
</g>
<!-- Node1&#45;&gt;Node8 -->
<g id="edge12_Node000001_Node000008" class="edge">
<title>Node1&#45;&gt;Node8</title>
<g id="a_edge12_Node000001_Node000008"><a xlink:title=" ">
<path fill="none" stroke="#63b8ff" d="M286.75,-165.36C300.97,-147.94 333.09,-108.38 359.38,-74.5 371.32,-59.11 384.61,-41.38 394.17,-28.51"/>
<polygon fill="#63b8ff" stroke="#63b8ff" points="396.9,-30.7 400.04,-20.58 391.27,-26.54 396.9,-30.7"/>
</a>
</g>
</g>
<!-- Node3 -->
<g id="Node000003" class="node">
<title>Node3</title>
<g id="a_Node000003"><a xlink:href="_graph_8h.html" target="_top" xlink:title=" ">
<polygon fill="white" stroke="#666666" points="349.88,-74.5 228.88,-74.5 228.88,-55.25 349.88,-55.25 349.88,-74.5"/>
<text text-anchor="middle" x="289.38" y="-61" font-family="Helvetica,sans-Serif" font-size="10.00">data_structures/Graph.h</text>
</a>
</g>
</g>
<!-- Node2&#45;&gt;Node3 -->
<g id="edge2_Node000002_Node000003" class="edge">
<title>Node2&#45;&gt;Node3</title>
<g id="a_edge2_Node000002_Node000003"><a xlink:title=" ">
<path fill="none" stroke="#63b8ff" d="M199.7,-110.09C216.45,-101.83 241.51,-89.48 260.88,-79.93"/>
<polygon fill="#63b8ff" stroke="#63b8ff" points="262.19,-83.18 269.61,-75.62 259.09,-76.9 262.19,-83.18"/>
</a>
</g>
</g>
<!-- Node5 -->
<g id="Node000005" class="node">
<title>Node5</title>
<g id="a_Node000005"><a xlink:title=" ">
<polygon fill="#e0e0e0" stroke="#999999" points="171.88,-19.25 128.88,-19.25 128.88,0 171.88,0 171.88,-19.25"/>
<text text-anchor="middle" x="150.38" y="-5.75" font-family="Helvetica,sans-Serif" font-size="10.00">vector</text>
</a>
</g>
</g>
<!-- Node2&#45;&gt;Node5 -->
<g id="edge9_Node000002_Node000005" class="edge">
<title>Node2&#45;&gt;Node5</title>
<g id="a_edge9_Node000002_Node000005"><a xlink:title=" ">
<path fill="none" stroke="#63b8ff" d="M178.84,-110.25C173.89,-92.92 162.83,-54.23 156.05,-30.49"/>
<polygon fill="#63b8ff" stroke="#63b8ff" points="159.48,-29.74 153.36,-21.08 152.74,-31.66 159.48,-29.74"/>
</a>
</g>
</g>
<!-- Node6 -->
<g id="Node000006" class="node">
<title>Node6</title>
<g id="a_Node000006"><a xlink:title=" ">
<polygon fill="#e0e0e0" stroke="#999999" points="232.5,-19.25 190.25,-19.25 190.25,0 232.5,0 232.5,-19.25"/>
<text text-anchor="middle" x="211.38" y="-5.75" font-family="Helvetica,sans-Serif" font-size="10.00">queue</text>
</a>
</g>
</g>
<!-- Node2&#45;&gt;Node6 -->
<g id="edge8_Node000002_Node000006" class="edge">
<title>Node2&#45;&gt;Node6</title>
<g id="a_edge8_Node000002_Node000006"><a xlink:title=" ">
<path fill="none" stroke="#63b8ff" d="M183.83,-110.25C188.62,-92.92 199.32,-54.23 205.88,-30.49"/>
<polygon fill="#63b8ff" stroke="#63b8ff" points="209.19,-31.66 208.48,-21.09 202.44,-29.79 209.19,-31.66"/>
</a>
</g>
</g>
<!-- Node9 -->
<g id="Node000009" class="node">
<title>Node9</title>
<g id="a_Node000009"><a xlink:title=" ">
<polygon fill="#e0e0e0" stroke="#999999" points="58.75,-74.5 0,-74.5 0,-55.25 58.75,-55.25 58.75,-74.5"/>
<text text-anchor="middle" x="29.38" y="-61" font-family="Helvetica,sans-Serif" font-size="10.00">stdexcept</text>
</a>
</g>
</g>
<!-- Node2&#45;&gt;Node9 -->
<g id="edge10_Node000002_Node000009" class="edge">
<title>Node2&#45;&gt;Node9</title>
<g id="a_edge10_Node000002_Node000009"><a xlink:title=" ">
<path fill="none" stroke="#63b8ff" d="M155.59,-110.09C131.02,-101.49 93.79,-88.44 66.12,-78.75"/>
<polygon fill="#63b8ff" stroke="#63b8ff" points="67.31,-75.46 56.71,-75.45 65,-82.06 67.31,-75.46"/>
</a>
</g>
</g>
<!-- Node10 -->
<g id="Node000010" class="node">
<title>Node10</title>
<g id="a_Node000010"><a xlink:title=" ">
<polygon fill="#e0e0e0" stroke="#999999" points="134.38,-74.5 76.38,-74.5 76.38,-55.25 134.38,-55.25 134.38,-74.5"/>
<text text-anchor="middle" x="105.38" y="-61" font-family="Helvetica,sans-Serif" font-size="10.00">functional</text>
</a>
</g>
</g>
<!-- Node2&#45;&gt;Node10 -->
<g id="edge11_Node000002_Node000010" class="edge">
<title>Node2&#45;&gt;Node10</title>
<g id="a_edge11_Node000002_Node000010"><a xlink:title=" ">
<path fill="none" stroke="#63b8ff" d="M168.48,-110.09C157.35,-102.29 141,-90.84 127.74,-81.54"/>
<polygon fill="#63b8ff" stroke="#63b8ff" points="129.77,-78.69 119.57,-75.82 125.75,-84.43 129.77,-78.69"/>
</a>
</g>
</g>
<!-- Node4 -->
<g id="Node000004" class="node">
<title>Node4</title>
<g id="a_Node000004"><a xlink:title=" ">
<polygon fill="#e0e0e0" stroke="#999999" points="361.12,-19.25 307.62,-19.25 307.62,0 361.12,0 361.12,-19.25"/>
<text text-anchor="middle" x="334.38" y="-5.75" font-family="Helvetica,sans-Serif" font-size="10.00">iostream</text>
</a>
</g>
</g>
<!-- Node3&#45;&gt;Node4 -->
<g id="edge3_Node000003_Node000004" class="edge">
<title>Node3&#45;&gt;Node4</title>
<g id="a_edge3_Node000003_Node000004"><a xlink:title=" ">
<path fill="none" stroke="#63b8ff" d="M296.81,-55.08C302.96,-47.8 311.89,-37.23 319.5,-28.23"/>
<polygon fill="#63b8ff" stroke="#63b8ff" points="322.02,-30.66 325.81,-20.77 316.68,-26.14 322.02,-30.66"/>
</a>
</g>
</g>
<!-- Node3&#45;&gt;Node5 -->
<g id="edge4_Node000003_Node000005" class="edge">
<title>Node3&#45;&gt;Node5</title>
<g id="a_edge4_Node000003_Node000005"><a xlink:title=" ">
<path fill="none" stroke="#63b8ff" d="M265.8,-54.84C242.99,-46.11 208.25,-32.79 182.83,-23.06"/>
<polygon fill="#63b8ff" stroke="#63b8ff" points="184.24,-19.85 173.65,-19.54 181.73,-26.39 184.24,-19.85"/>
</a>
</g>
</g>
<!-- Node3&#45;&gt;Node6 -->
<g id="edge5_Node000003_Node000006" class="edge">
<title>Node3&#45;&gt;Node6</title>
<g id="a_edge5_Node000003_Node000006"><a xlink:title=" ">
<path fill="none" stroke="#63b8ff" d="M276.14,-54.84C264.6,-46.96 247.61,-35.36 233.93,-26.02"/>
<polygon fill="#63b8ff" stroke="#63b8ff" points="236.15,-23.3 225.92,-20.56 232.21,-29.08 236.15,-23.3"/>
</a>
</g>
</g>
<!-- Node7 -->
<g id="Node000007" class="node">
<title>Node7</title>
<g id="a_Node000007"><a xlink:title=" ">
<polygon fill="#e0e0e0" stroke="#999999" points="290,-19.25 250.75,-19.25 250.75,0 290,0 290,-19.25"/>
<text text-anchor="middle" x="270.38" y="-5.75" font-family="Helvetica,sans-Serif" font-size="10.00">limits</text>
</a>
</g>
</g>
<!-- Node3&#45;&gt;Node7 -->
<g id="edge6_Node000003_Node000007" class="edge">
<title>Node3&#45;&gt;Node7</title>
<g id="a_edge6_Node000003_Node000007"><a xlink:title=" ">
<path fill="none" stroke="#63b8ff" d="M286.24,-55.08C283.83,-48.34 280.42,-38.77 277.37,-30.24"/>
<polygon fill="#63b8ff" stroke="#63b8ff" points="280.75,-29.28 274.09,-21.03 274.15,-31.63 280.75,-29.28"/>
</a>
</g>
</g>
<!-- Node3&#45;&gt;Node8 -->
<g id="edge7_Node000003_Node000008" class="edge">
<title>Node3&#45;&gt;Node8</title>
<g id="a_edge7_Node000003_Node000008"><a xlink:title=" ">
<path fill="none" stroke="#63b8ff" d="M309.39,-54.84C327.87,-46.5 355.58,-34 376.82,-24.41"/>
<polygon fill="#63b8ff" stroke="#63b8ff" points="378.2,-27.63 385.88,-20.33 375.33,-21.25 378.2,-27.63"/>
</a>
</g>
</g>
</g>
</svg>
