<?xml version="1.0" encoding="UTF-8" standalone="no"?>
<!DOCTYPE svg PUBLIC "-//W3C//DTD SVG 1.1//EN"
 "http://www.w3.org/Graphics/SVG/1.1/DTD/svg11.dtd">
<!-- Generated by graphviz version 12.2.1 (0)
 -->
<!-- Title: utils/EdmondKarp.h Pages: 1 -->
<svg width="396pt" height="149pt"
 viewBox="0.00 0.00 395.50 149.00" xmlns="http://www.w3.org/2000/svg" xmlns:xlink="http://www.w3.org/1999/xlink">
<g id="graph0" class="graph" transform="scale(1 1) rotate(0) translate(4 145)">
<title>utils/EdmondKarp.h</title>
<!-- Node1 -->
<g id="Node000001" class="node">
<title>Node1</title>
<g id="a_Node000001"><a xlink:title="Implementations of the Edmonds&#45;Karp algorithm for calculating maximum flow.">
<polygon fill="#999999" stroke="#666666" points="276.25,-141 174.75,-141 174.75,-121.75 276.25,-121.75 276.25,-141"/>
<text text-anchor="middle" x="225.5" y="-127.5" font-family="Helvetica,sans-Serif" font-size="10.00">utils/EdmondKarp.h</text>
</a>
</g>
</g>
<!-- Node2 -->
<g id="Node000002" class="node">
<title>Node2</title>
<g id="a_Node000002"><a xlink:href="_graph_8h.html" target="_top" xlink:title=" ">
<polygon fill="white" stroke="#666666" points="197.75,-85.75 105.25,-85.75 105.25,-55.25 197.75,-55.25 197.75,-85.75"/>
<text text-anchor="start" x="113.25" y="-72.25" font-family="Helvetica,sans-Serif" font-size="10.00">../data_structures</text>
<text text-anchor="middle" x="151.5" y="-61" font-family="Helvetica,sans-Serif" font-size="10.00">/Graph.h</text>
</a>
</g>
</g>
<!-- Node1&#45;&gt;Node2 -->
<g id="edge1_Node000001_Node000002" class="edge">
<title>Node1&#45;&gt;Node2</title>
<g id="a_edge1_Node000001_Node000002"><a xlink:title=" ">
<path fill="none" stroke="#63b8ff" d="M214.26,-121.43C204.85,-113.95 191.03,-102.95 178.76,-93.18"/>
<polygon fill="#63b8ff" stroke="#63b8ff" points="180.95,-90.46 170.95,-86.97 176.6,-95.94 180.95,-90.46"/>
</a>
</g>
</g>
<!-- Node4 -->
<g id="Node000004" class="node">
<title>Node4</title>
<g id="a_Node000004"><a xlink:title=" ">
<polygon fill="#e0e0e0" stroke="#999999" points="43,-19.25 0,-19.25 0,0 43,0 43,-19.25"/>
<text text-anchor="middle" x="21.5" y="-5.75" font-family="Helvetica,sans-Serif" font-size="10.00">vector</text>
</a>
</g>
</g>
<!-- Node1&#45;&gt;Node4 -->
<g id="edge8_Node000001_Node000004" class="edge">
<title>Node1&#45;&gt;Node4</title>
<g id="a_edge8_Node000001_Node000004"><a xlink:title=" ">
<path fill="none" stroke="#63b8ff" d="M184.46,-121.27C158,-114.22 123.61,-102.73 96.5,-85.75 71.69,-70.21 48.8,-45.04 34.99,-28.16"/>
<polygon fill="#63b8ff" stroke="#63b8ff" points="37.87,-26.16 28.91,-20.51 32.39,-30.51 37.87,-26.16"/>
</a>
</g>
</g>
<!-- Node5 -->
<g id="Node000005" class="node">
<title>Node5</title>
<g id="a_Node000005"><a xlink:title=" ">
<polygon fill="#e0e0e0" stroke="#999999" points="305.62,-19.25 263.38,-19.25 263.38,0 305.62,0 305.62,-19.25"/>
<text text-anchor="middle" x="284.5" y="-5.75" font-family="Helvetica,sans-Serif" font-size="10.00">queue</text>
</a>
</g>
</g>
<!-- Node1&#45;&gt;Node5 -->
<g id="edge7_Node000001_Node000005" class="edge">
<title>Node1&#45;&gt;Node5</title>
<g id="a_edge7_Node000001_Node000005"><a xlink:title=" ">
<path fill="none" stroke="#63b8ff" d="M226.35,-121.55C228.04,-106.99 232.74,-77.34 244.5,-55.25 249.97,-44.97 258.3,-35.16 265.95,-27.36"/>
<polygon fill="#63b8ff" stroke="#63b8ff" points="268.24,-30.01 273.01,-20.55 263.38,-24.97 268.24,-30.01"/>
</a>
</g>
</g>
<!-- Node8 -->
<g id="Node000008" class="node">
<title>Node8</title>
<g id="a_Node000008"><a xlink:title=" ">
<polygon fill="#e0e0e0" stroke="#999999" points="311.88,-80.12 253.12,-80.12 253.12,-60.88 311.88,-60.88 311.88,-80.12"/>
<text text-anchor="middle" x="282.5" y="-66.62" font-family="Helvetica,sans-Serif" font-size="10.00">stdexcept</text>
</a>
</g>
</g>
<!-- Node1&#45;&gt;Node8 -->
<g id="edge9_Node000001_Node000008" class="edge">
<title>Node1&#45;&gt;Node8</title>
<g id="a_edge9_Node000001_Node000008"><a xlink:title=" ">
<path fill="none" stroke="#63b8ff" d="M234.16,-121.43C242.53,-112.79 255.43,-99.46 265.8,-88.75"/>
<polygon fill="#63b8ff" stroke="#63b8ff" points="268.27,-91.23 272.71,-81.61 263.24,-86.36 268.27,-91.23"/>
</a>
</g>
</g>
<!-- Node9 -->
<g id="Node000009" class="node">
<title>Node9</title>
<g id="a_Node000009"><a xlink:title=" ">
<polygon fill="#e0e0e0" stroke="#999999" points="387.5,-80.12 329.5,-80.12 329.5,-60.88 387.5,-60.88 387.5,-80.12"/>
<text text-anchor="middle" x="358.5" y="-66.62" font-family="Helvetica,sans-Serif" font-size="10.00">functional</text>
</a>
</g>
</g>
<!-- Node1&#45;&gt;Node9 -->
<g id="edge10_Node000001_Node000009" class="edge">
<title>Node1&#45;&gt;Node9</title>
<g id="a_edge10_Node000001_Node000009"><a xlink:title=" ">
<path fill="none" stroke="#63b8ff" d="M245.99,-121.3C267.82,-111.64 302.64,-96.23 327.76,-85.11"/>
<polygon fill="#63b8ff" stroke="#63b8ff" points="329.09,-88.34 336.82,-81.1 326.26,-81.94 329.09,-88.34"/>
</a>
</g>
</g>
<!-- Node3 -->
<g id="Node000003" class="node">
<title>Node3</title>
<g id="a_Node000003"><a xlink:title=" ">
<polygon fill="#e0e0e0" stroke="#999999" points="114.25,-19.25 60.75,-19.25 60.75,0 114.25,0 114.25,-19.25"/>
<text text-anchor="middle" x="87.5" y="-5.75" font-family="Helvetica,sans-Serif" font-size="10.00">iostream</text>
</a>
</g>
</g>
<!-- Node2&#45;&gt;Node3 -->
<g id="edge2_Node000002_Node000003" class="edge">
<title>Node2&#45;&gt;Node3</title>
<g id="a_edge2_Node000002_Node000003"><a xlink:title=" ">
<path fill="none" stroke="#63b8ff" d="M135.68,-54.95C126.59,-46.59 115.14,-36.05 105.68,-27.35"/>
<polygon fill="#63b8ff" stroke="#63b8ff" points="108.21,-24.92 98.48,-20.73 103.47,-30.07 108.21,-24.92"/>
</a>
</g>
</g>
<!-- Node2&#45;&gt;Node4 -->
<g id="edge3_Node000002_Node000004" class="edge">
<title>Node2&#45;&gt;Node4</title>
<g id="a_edge3_Node000002_Node000004"><a xlink:title=" ">
<path fill="none" stroke="#63b8ff" d="M119.03,-54.8C98.47,-45.48 72.06,-33.52 51.91,-24.4"/>
<polygon fill="#63b8ff" stroke="#63b8ff" points="53.37,-21.22 42.82,-20.28 50.48,-27.59 53.37,-21.22"/>
</a>
</g>
</g>
<!-- Node2&#45;&gt;Node5 -->
<g id="edge4_Node000002_Node000005" class="edge">
<title>Node2&#45;&gt;Node5</title>
<g id="a_edge4_Node000002_Node000005"><a xlink:title=" ">
<path fill="none" stroke="#63b8ff" d="M184.72,-54.8C205.85,-45.44 233.02,-33.41 253.67,-24.27"/>
<polygon fill="#63b8ff" stroke="#63b8ff" points="254.99,-27.51 262.72,-20.27 252.16,-21.11 254.99,-27.51"/>
</a>
</g>
</g>
<!-- Node6 -->
<g id="Node000006" class="node">
<title>Node6</title>
<g id="a_Node000006"><a xlink:title=" ">
<polygon fill="#e0e0e0" stroke="#999999" points="171.12,-19.25 131.88,-19.25 131.88,0 171.12,0 171.12,-19.25"/>
<text text-anchor="middle" x="151.5" y="-5.75" font-family="Helvetica,sans-Serif" font-size="10.00">limits</text>
</a>
</g>
</g>
<!-- Node2&#45;&gt;Node6 -->
<g id="edge5_Node000002_Node000006" class="edge">
<title>Node2&#45;&gt;Node6</title>
<g id="a_edge5_Node000002_Node000006"><a xlink:title=" ">
<path fill="none" stroke="#63b8ff" d="M151.5,-54.95C151.5,-47.71 151.5,-38.84 151.5,-30.94"/>
<polygon fill="#63b8ff" stroke="#63b8ff" points="155,-31.21 151.5,-21.21 148,-31.21 155,-31.21"/>
</a>
</g>
</g>
<!-- Node7 -->
<g id="Node000007" class="node">
<title>Node7</title>
<g id="a_Node000007"><a xlink:title=" ">
<polygon fill="#e0e0e0" stroke="#999999" points="245.38,-19.25 189.62,-19.25 189.62,0 245.38,0 245.38,-19.25"/>
<text text-anchor="middle" x="217.5" y="-5.75" font-family="Helvetica,sans-Serif" font-size="10.00">algorithm</text>
</a>
</g>
</g>
<!-- Node2&#45;&gt;Node7 -->
<g id="edge6_Node000002_Node000007" class="edge">
<title>Node2&#45;&gt;Node7</title>
<g id="a_edge6_Node000002_Node000007"><a xlink:title=" ">
<path fill="none" stroke="#63b8ff" d="M167.81,-54.95C177.19,-46.59 189,-36.05 198.75,-27.35"/>
<polygon fill="#63b8ff" stroke="#63b8ff" points="201.06,-29.98 206.2,-20.71 196.4,-24.75 201.06,-29.98"/>
</a>
</g>
</g>
</g>
</svg>
