<?xml version="1.0" encoding="UTF-8" standalone="no"?>
<!DOCTYPE svg PUBLIC "-//W3C//DTD SVG 1.1//EN"
 "http://www.w3.org/Graphics/SVG/1.1/DTD/svg11.dtd">
<!-- Generated by graphviz version 12.2.1 (0)
 -->
<!-- Title: io/FileParser.h Pages: 1 -->
<svg width="439pt" height="138pt"
 viewBox="0.00 0.00 438.78 137.75" xmlns="http://www.w3.org/2000/svg" xmlns:xlink="http://www.w3.org/1999/xlink">
<g id="graph0" class="graph" transform="scale(1 1) rotate(0) translate(4 133.75)">
<title>io/FileParser.h</title>
<!-- Node1 -->
<g id="Node000001" class="node">
<title>Node1</title>
<g id="a_Node000001"><a xlink:title="Class definition for parsing input CSV files.">
<polygon fill="#999999" stroke="#666666" points="170.4,-129.75 92.15,-129.75 92.15,-110.5 170.4,-110.5 170.4,-129.75"/>
<text text-anchor="middle" x="131.28" y="-116.25" font-family="Helvetica,sans-Serif" font-size="10.00">io/FileParser.h</text>
</a>
</g>
</g>
<!-- Node2 -->
<g id="Node000002" class="node">
<title>Node2</title>
<g id="a_Node000002"><a xlink:title=" ">
<polygon fill="#e0e0e0" stroke="#999999" points="212.28,-19.25 172.28,-19.25 172.28,0 212.28,0 212.28,-19.25"/>
<text text-anchor="middle" x="192.28" y="-5.75" font-family="Helvetica,sans-Serif" font-size="10.00">string</text>
</a>
</g>
</g>
<!-- Node1&#45;&gt;Node2 -->
<g id="edge1_Node000001_Node000002" class="edge">
<title>Node1&#45;&gt;Node2</title>
<g id="a_edge1_Node000001_Node000002"><a xlink:title=" ">
<path fill="none" stroke="#63b8ff" d="M91.75,-113.71C46.05,-105.79 -19.75,-88.26 6.28,-55.25 25.18,-31.27 112.92,-18.71 160.84,-13.54"/>
<polygon fill="#63b8ff" stroke="#63b8ff" points="161,-17.05 170.59,-12.54 160.28,-10.08 161,-17.05"/>
</a>
</g>
</g>
<!-- Node3 -->
<g id="Node000003" class="node">
<title>Node3</title>
<g id="a_Node000003"><a xlink:title=" ">
<polygon fill="#e0e0e0" stroke="#999999" points="58.78,-74.5 15.78,-74.5 15.78,-55.25 58.78,-55.25 58.78,-74.5"/>
<text text-anchor="middle" x="37.28" y="-61" font-family="Helvetica,sans-Serif" font-size="10.00">vector</text>
</a>
</g>
</g>
<!-- Node1&#45;&gt;Node3 -->
<g id="edge2_Node000001_Node000003" class="edge">
<title>Node1&#45;&gt;Node3</title>
<g id="a_edge2_Node000001_Node000003"><a xlink:title=" ">
<path fill="none" stroke="#63b8ff" d="M115.33,-110.09C101.02,-101.98 79.75,-89.93 63.02,-80.46"/>
<polygon fill="#63b8ff" stroke="#63b8ff" points="65.04,-77.58 54.62,-75.7 61.59,-83.67 65.04,-77.58"/>
</a>
</g>
</g>
<!-- Node4 -->
<g id="Node000004" class="node">
<title>Node4</title>
<g id="a_Node000004"><a xlink:href="_submission_8h.html" target="_top" xlink:title=" ">
<polygon fill="white" stroke="#666666" points="186.15,-74.5 76.4,-74.5 76.4,-55.25 186.15,-55.25 186.15,-74.5"/>
<text text-anchor="middle" x="131.28" y="-61" font-family="Helvetica,sans-Serif" font-size="10.00">models/Submission.h</text>
</a>
</g>
</g>
<!-- Node1&#45;&gt;Node4 -->
<g id="edge3_Node000001_Node000004" class="edge">
<title>Node1&#45;&gt;Node4</title>
<g id="a_edge3_Node000001_Node000004"><a xlink:title=" ">
<path fill="none" stroke="#63b8ff" d="M131.28,-110.33C131.28,-103.82 131.28,-94.67 131.28,-86.37"/>
<polygon fill="#63b8ff" stroke="#63b8ff" points="134.78,-86.37 131.28,-76.37 127.78,-86.37 134.78,-86.37"/>
</a>
</g>
</g>
<!-- Node5 -->
<g id="Node000005" class="node">
<title>Node5</title>
<g id="a_Node000005"><a xlink:href="_reviewer_8h.html" target="_top" xlink:title=" ">
<polygon fill="white" stroke="#666666" points="303.9,-74.5 204.65,-74.5 204.65,-55.25 303.9,-55.25 303.9,-74.5"/>
<text text-anchor="middle" x="254.28" y="-61" font-family="Helvetica,sans-Serif" font-size="10.00">models/Reviewer.h</text>
</a>
</g>
</g>
<!-- Node1&#45;&gt;Node5 -->
<g id="edge5_Node000001_Node000005" class="edge">
<title>Node1&#45;&gt;Node5</title>
<g id="a_edge5_Node000001_Node000005"><a xlink:title=" ">
<path fill="none" stroke="#63b8ff" d="M152.14,-110.09C171.58,-101.68 200.82,-89.02 223.04,-79.4"/>
<polygon fill="#63b8ff" stroke="#63b8ff" points="224.13,-82.74 231.92,-75.55 221.35,-76.31 224.13,-82.74"/>
</a>
</g>
</g>
<!-- Node6 -->
<g id="Node000006" class="node">
<title>Node6</title>
<g id="a_Node000006"><a xlink:href="_parameters_8h.html" target="_top" xlink:title=" ">
<polygon fill="white" stroke="#666666" points="430.78,-74.5 321.78,-74.5 321.78,-55.25 430.78,-55.25 430.78,-74.5"/>
<text text-anchor="middle" x="376.28" y="-61" font-family="Helvetica,sans-Serif" font-size="10.00">models/Parameters.h</text>
</a>
</g>
</g>
<!-- Node1&#45;&gt;Node6 -->
<g id="edge7_Node000001_Node000006" class="edge">
<title>Node1&#45;&gt;Node6</title>
<g id="a_edge7_Node000001_Node000006"><a xlink:title=" ">
<path fill="none" stroke="#63b8ff" d="M170.64,-110.57C212.04,-101.57 277.43,-87.36 323.33,-77.38"/>
<polygon fill="#63b8ff" stroke="#63b8ff" points="324.04,-80.81 333.07,-75.27 322.56,-73.97 324.04,-80.81"/>
</a>
</g>
</g>
<!-- Node4&#45;&gt;Node2 -->
<g id="edge4_Node000004_Node000002" class="edge">
<title>Node4&#45;&gt;Node2</title>
<g id="a_edge4_Node000004_Node000002"><a xlink:title=" ">
<path fill="none" stroke="#63b8ff" d="M141.62,-54.84C150.35,-47.22 163.07,-36.12 173.57,-26.95"/>
<polygon fill="#63b8ff" stroke="#63b8ff" points="175.71,-29.73 180.94,-20.52 171.11,-24.46 175.71,-29.73"/>
</a>
</g>
</g>
<!-- Node5&#45;&gt;Node2 -->
<g id="edge6_Node000005_Node000002" class="edge">
<title>Node5&#45;&gt;Node2</title>
<g id="a_edge6_Node000005_Node000002"><a xlink:title=" ">
<path fill="none" stroke="#63b8ff" d="M243.76,-54.84C234.89,-47.22 221.97,-36.12 211.29,-26.95"/>
<polygon fill="#63b8ff" stroke="#63b8ff" points="213.65,-24.37 203.79,-20.51 209.09,-29.68 213.65,-24.37"/>
</a>
</g>
</g>
<!-- Node6&#45;&gt;Node2 -->
<g id="edge8_Node000006_Node000002" class="edge">
<title>Node6&#45;&gt;Node2</title>
<g id="a_edge8_Node000006_Node000002"><a xlink:title=" ">
<path fill="none" stroke="#63b8ff" d="M345.06,-54.84C311.07,-45 257.04,-29.37 223.18,-19.57"/>
<polygon fill="#63b8ff" stroke="#63b8ff" points="224.55,-16.32 213.97,-16.9 222.61,-23.05 224.55,-16.32"/>
</a>
</g>
</g>
</g>
</svg>
