<?xml version="1.0" encoding="UTF-8" standalone="no"?>
<!DOCTYPE svg PUBLIC "-//W3C//DTD SVG 1.1//EN"
 "http://www.w3.org/Graphics/SVG/1.1/DTD/svg11.dtd">
<!-- Generated by graphviz version 12.2.1 (0)
 -->
<!-- Title: io/FileParser.cpp Pages: 1 -->
<svg width="442pt" height="193pt"
 viewBox="0.00 0.00 441.65 193.00" xmlns="http://www.w3.org/2000/svg" xmlns:xlink="http://www.w3.org/1999/xlink">
<g id="graph0" class="graph" transform="scale(1 1) rotate(0) translate(4 189)">
<title>io/FileParser.cpp</title>
<!-- Node1 -->
<g id="Node000001" class="node">
<title>Node1</title>
<g id="a_Node000001"><a xlink:title=" ">
<polygon fill="#999999" stroke="#666666" points="326.65,-185 237.9,-185 237.9,-165.75 326.65,-165.75 326.65,-185"/>
<text text-anchor="middle" x="282.28" y="-171.5" font-family="Helvetica,sans-Serif" font-size="10.00">io/FileParser.cpp</text>
</a>
</g>
</g>
<!-- Node2 -->
<g id="Node000002" class="node">
<title>Node2</title>
<g id="a_Node000002"><a xlink:href="_file_parser_8h.html" target="_top" xlink:title="Class definition for parsing input CSV files.">
<polygon fill="white" stroke="#666666" points="170.4,-129.75 92.15,-129.75 92.15,-110.5 170.4,-110.5 170.4,-129.75"/>
<text text-anchor="middle" x="131.28" y="-116.25" font-family="Helvetica,sans-Serif" font-size="10.00">io/FileParser.h</text>
</a>
</g>
</g>
<!-- Node1&#45;&gt;Node2 -->
<g id="edge1_Node000001_Node000002" class="edge">
<title>Node1&#45;&gt;Node2</title>
<g id="a_edge1_Node000001_Node000002"><a xlink:title=" ">
<path fill="none" stroke="#63b8ff" d="M256.66,-165.34C232.26,-156.74 195.27,-143.69 167.78,-134"/>
<polygon fill="#63b8ff" stroke="#63b8ff" points="169.04,-130.73 158.45,-130.71 166.71,-137.33 169.04,-130.73"/>
</a>
</g>
</g>
<!-- Node8 -->
<g id="Node000008" class="node">
<title>Node8</title>
<g id="a_Node000008"><a xlink:title=" ">
<polygon fill="#e0e0e0" stroke="#999999" points="237.78,-129.75 188.78,-129.75 188.78,-110.5 237.78,-110.5 237.78,-129.75"/>
<text text-anchor="middle" x="213.28" y="-116.25" font-family="Helvetica,sans-Serif" font-size="10.00">fstream</text>
</a>
</g>
</g>
<!-- Node1&#45;&gt;Node8 -->
<g id="edge10_Node000001_Node000008" class="edge">
<title>Node1&#45;&gt;Node8</title>
<g id="a_edge10_Node000001_Node000008"><a xlink:title=" ">
<path fill="none" stroke="#63b8ff" d="M270.57,-165.34C260.5,-157.57 245.74,-146.17 233.72,-136.9"/>
<polygon fill="#63b8ff" stroke="#63b8ff" points="236.06,-134.29 226.01,-130.95 231.79,-139.83 236.06,-134.29"/>
</a>
</g>
</g>
<!-- Node9 -->
<g id="Node000009" class="node">
<title>Node9</title>
<g id="a_Node000009"><a xlink:title=" ">
<polygon fill="#e0e0e0" stroke="#999999" points="309.03,-129.75 255.53,-129.75 255.53,-110.5 309.03,-110.5 309.03,-129.75"/>
<text text-anchor="middle" x="282.28" y="-116.25" font-family="Helvetica,sans-Serif" font-size="10.00">iostream</text>
</a>
</g>
</g>
<!-- Node1&#45;&gt;Node9 -->
<g id="edge11_Node000001_Node000009" class="edge">
<title>Node1&#45;&gt;Node9</title>
<g id="a_edge11_Node000001_Node000009"><a xlink:title=" ">
<path fill="none" stroke="#63b8ff" d="M282.28,-165.58C282.28,-159.07 282.28,-149.92 282.28,-141.62"/>
<polygon fill="#63b8ff" stroke="#63b8ff" points="285.78,-141.62 282.28,-131.62 278.78,-141.62 285.78,-141.62"/>
</a>
</g>
</g>
<!-- Node10 -->
<g id="Node000010" class="node">
<title>Node10</title>
<g id="a_Node000010"><a xlink:title=" ">
<polygon fill="#e0e0e0" stroke="#999999" points="357.03,-129.75 327.53,-129.75 327.53,-110.5 357.03,-110.5 357.03,-129.75"/>
<text text-anchor="middle" x="342.28" y="-116.25" font-family="Helvetica,sans-Serif" font-size="10.00">set</text>
</a>
</g>
</g>
<!-- Node1&#45;&gt;Node10 -->
<g id="edge12_Node000001_Node000010" class="edge">
<title>Node1&#45;&gt;Node10</title>
<g id="a_edge12_Node000001_Node000010"><a xlink:title=" ">
<path fill="none" stroke="#63b8ff" d="M292.46,-165.34C301.04,-157.72 313.55,-146.62 323.88,-137.45"/>
<polygon fill="#63b8ff" stroke="#63b8ff" points="325.96,-140.29 331.12,-131.03 321.31,-135.05 325.96,-140.29"/>
</a>
</g>
</g>
<!-- Node11 -->
<g id="Node000011" class="node">
<title>Node11</title>
<g id="a_Node000011"><a xlink:title=" ">
<polygon fill="#e0e0e0" stroke="#999999" points="433.65,-129.75 374.9,-129.75 374.9,-110.5 433.65,-110.5 433.65,-129.75"/>
<text text-anchor="middle" x="404.28" y="-116.25" font-family="Helvetica,sans-Serif" font-size="10.00">stdexcept</text>
</a>
</g>
</g>
<!-- Node1&#45;&gt;Node11 -->
<g id="edge13_Node000001_Node000011" class="edge">
<title>Node1&#45;&gt;Node11</title>
<g id="a_edge13_Node000001_Node000011"><a xlink:title=" ">
<path fill="none" stroke="#63b8ff" d="M302.97,-165.34C322.16,-156.97 350.99,-144.38 372.99,-134.78"/>
<polygon fill="#63b8ff" stroke="#63b8ff" points="374.33,-138.02 382.09,-130.81 371.53,-131.6 374.33,-138.02"/>
</a>
</g>
</g>
<!-- Node3 -->
<g id="Node000003" class="node">
<title>Node3</title>
<g id="a_Node000003"><a xlink:title=" ">
<polygon fill="#e0e0e0" stroke="#999999" points="212.28,-19.25 172.28,-19.25 172.28,0 212.28,0 212.28,-19.25"/>
<text text-anchor="middle" x="192.28" y="-5.75" font-family="Helvetica,sans-Serif" font-size="10.00">string</text>
</a>
</g>
</g>
<!-- Node2&#45;&gt;Node3 -->
<g id="edge2_Node000002_Node000003" class="edge">
<title>Node2&#45;&gt;Node3</title>
<g id="a_edge2_Node000002_Node000003"><a xlink:title=" ">
<path fill="none" stroke="#63b8ff" d="M91.75,-113.71C46.05,-105.79 -19.75,-88.26 6.28,-55.25 25.18,-31.27 112.92,-18.71 160.84,-13.54"/>
<polygon fill="#63b8ff" stroke="#63b8ff" points="161,-17.05 170.59,-12.54 160.28,-10.08 161,-17.05"/>
</a>
</g>
</g>
<!-- Node4 -->
<g id="Node000004" class="node">
<title>Node4</title>
<g id="a_Node000004"><a xlink:title=" ">
<polygon fill="#e0e0e0" stroke="#999999" points="58.78,-74.5 15.78,-74.5 15.78,-55.25 58.78,-55.25 58.78,-74.5"/>
<text text-anchor="middle" x="37.28" y="-61" font-family="Helvetica,sans-Serif" font-size="10.00">vector</text>
</a>
</g>
</g>
<!-- Node2&#45;&gt;Node4 -->
<g id="edge3_Node000002_Node000004" class="edge">
<title>Node2&#45;&gt;Node4</title>
<g id="a_edge3_Node000002_Node000004"><a xlink:title=" ">
<path fill="none" stroke="#63b8ff" d="M115.33,-110.09C101.02,-101.98 79.75,-89.93 63.02,-80.46"/>
<polygon fill="#63b8ff" stroke="#63b8ff" points="65.04,-77.58 54.62,-75.7 61.59,-83.67 65.04,-77.58"/>
</a>
</g>
</g>
<!-- Node5 -->
<g id="Node000005" class="node">
<title>Node5</title>
<g id="a_Node000005"><a xlink:href="_submission_8h.html" target="_top" xlink:title=" ">
<polygon fill="white" stroke="#666666" points="186.15,-74.5 76.4,-74.5 76.4,-55.25 186.15,-55.25 186.15,-74.5"/>
<text text-anchor="middle" x="131.28" y="-61" font-family="Helvetica,sans-Serif" font-size="10.00">models/Submission.h</text>
</a>
</g>
</g>
<!-- Node2&#45;&gt;Node5 -->
<g id="edge4_Node000002_Node000005" class="edge">
<title>Node2&#45;&gt;Node5</title>
<g id="a_edge4_Node000002_Node000005"><a xlink:title=" ">
<path fill="none" stroke="#63b8ff" d="M131.28,-110.33C131.28,-103.82 131.28,-94.67 131.28,-86.37"/>
<polygon fill="#63b8ff" stroke="#63b8ff" points="134.78,-86.37 131.28,-76.37 127.78,-86.37 134.78,-86.37"/>
</a>
</g>
</g>
<!-- Node6 -->
<g id="Node000006" class="node">
<title>Node6</title>
<g id="a_Node000006"><a xlink:href="_reviewer_8h.html" target="_top" xlink:title=" ">
<polygon fill="white" stroke="#666666" points="303.9,-74.5 204.65,-74.5 204.65,-55.25 303.9,-55.25 303.9,-74.5"/>
<text text-anchor="middle" x="254.28" y="-61" font-family="Helvetica,sans-Serif" font-size="10.00">models/Reviewer.h</text>
</a>
</g>
</g>
<!-- Node2&#45;&gt;Node6 -->
<g id="edge6_Node000002_Node000006" class="edge">
<title>Node2&#45;&gt;Node6</title>
<g id="a_edge6_Node000002_Node000006"><a xlink:title=" ">
<path fill="none" stroke="#63b8ff" d="M152.14,-110.09C171.58,-101.68 200.82,-89.02 223.04,-79.4"/>
<polygon fill="#63b8ff" stroke="#63b8ff" points="224.13,-82.74 231.92,-75.55 221.35,-76.31 224.13,-82.74"/>
</a>
</g>
</g>
<!-- Node7 -->
<g id="Node000007" class="node">
<title>Node7</title>
<g id="a_Node000007"><a xlink:href="_parameters_8h.html" target="_top" xlink:title=" ">
<polygon fill="white" stroke="#666666" points="430.78,-74.5 321.78,-74.5 321.78,-55.25 430.78,-55.25 430.78,-74.5"/>
<text text-anchor="middle" x="376.28" y="-61" font-family="Helvetica,sans-Serif" font-size="10.00">models/Parameters.h</text>
</a>
</g>
</g>
<!-- Node2&#45;&gt;Node7 -->
<g id="edge8_Node000002_Node000007" class="edge">
<title>Node2&#45;&gt;Node7</title>
<g id="a_edge8_Node000002_Node000007"><a xlink:title=" ">
<path fill="none" stroke="#63b8ff" d="M170.64,-110.57C212.04,-101.57 277.43,-87.36 323.33,-77.38"/>
<polygon fill="#63b8ff" stroke="#63b8ff" points="324.04,-80.81 333.07,-75.27 322.56,-73.97 324.04,-80.81"/>
</a>
</g>
</g>
<!-- Node5&#45;&gt;Node3 -->
<g id="edge5_Node000005_Node000003" class="edge">
<title>Node5&#45;&gt;Node3</title>
<g id="a_edge5_Node000005_Node000003"><a xlink:title=" ">
<path fill="none" stroke="#63b8ff" d="M141.62,-54.84C150.35,-47.22 163.07,-36.12 173.57,-26.95"/>
<polygon fill="#63b8ff" stroke="#63b8ff" points="175.71,-29.73 180.94,-20.52 171.11,-24.46 175.71,-29.73"/>
</a>
</g>
</g>
<!-- Node6&#45;&gt;Node3 -->
<g id="edge7_Node000006_Node000003" class="edge">
<title>Node6&#45;&gt;Node3</title>
<g id="a_edge7_Node000006_Node000003"><a xlink:title=" ">
<path fill="none" stroke="#63b8ff" d="M243.76,-54.84C234.89,-47.22 221.97,-36.12 211.29,-26.95"/>
<polygon fill="#63b8ff" stroke="#63b8ff" points="213.65,-24.37 203.79,-20.51 209.09,-29.68 213.65,-24.37"/>
</a>
</g>
</g>
<!-- Node7&#45;&gt;Node3 -->
<g id="edge9_Node000007_Node000003" class="edge">
<title>Node7&#45;&gt;Node3</title>
<g id="a_edge9_Node000007_Node000003"><a xlink:title=" ">
<path fill="none" stroke="#63b8ff" d="M345.06,-54.84C311.07,-45 257.04,-29.37 223.18,-19.57"/>
<polygon fill="#63b8ff" stroke="#63b8ff" points="224.55,-16.32 213.97,-16.9 222.61,-23.05 224.55,-16.32"/>
</a>
</g>
</g>
</g>
</svg>
