<?xml version="1.0" encoding="UTF-8" standalone="no"?>
<!DOCTYPE svg PUBLIC "-//W3C//DTD SVG 1.1//EN"
 "http://www.w3.org/Graphics/SVG/1.1/DTD/svg11.dtd">
<!-- Generated by graphviz version 12.2.1 (0)
 -->
<!-- Title: utils/FileParser.cpp Pages: 1 -->
<svg width="418pt" height="193pt"
 viewBox="0.00 0.00 417.81 193.00" xmlns="http://www.w3.org/2000/svg" xmlns:xlink="http://www.w3.org/1999/xlink">
<g id="graph0" class="graph" transform="scale(1 1) rotate(0) translate(4 189)">
<title>utils/FileParser.cpp</title>
<!-- Node1 -->
<g id="Node000001" class="node">
<title>Node1</title>
<g id="a_Node000001"><a xlink:title=" ">
<polygon fill="#999999" stroke="#666666" points="308.06,-185 208.81,-185 208.81,-165.75 308.06,-165.75 308.06,-185"/>
<text text-anchor="middle" x="258.44" y="-171.5" font-family="Helvetica,sans-Serif" font-size="10.00">utils/FileParser.cpp</text>
</a>
</g>
</g>
<!-- Node2 -->
<g id="Node000002" class="node">
<title>Node2</title>
<g id="a_Node000002"><a xlink:href="_file_parser_8h.html" target="_top" xlink:title="Class definition for parsing input CSV files.">
<polygon fill="white" stroke="#666666" points="147.31,-129.75 79.56,-129.75 79.56,-110.5 147.31,-110.5 147.31,-129.75"/>
<text text-anchor="middle" x="113.44" y="-116.25" font-family="Helvetica,sans-Serif" font-size="10.00">FileParser.h</text>
</a>
</g>
</g>
<!-- Node1&#45;&gt;Node2 -->
<g id="edge1_Node000001_Node000002" class="edge">
<title>Node1&#45;&gt;Node2</title>
<g id="a_edge1_Node000001_Node000002"><a xlink:title=" ">
<path fill="none" stroke="#63b8ff" d="M233.84,-165.34C210.51,-156.77 175.2,-143.81 148.84,-134.13"/>
<polygon fill="#63b8ff" stroke="#63b8ff" points="150.17,-130.89 139.57,-130.72 147.75,-137.46 150.17,-130.89"/>
</a>
</g>
</g>
<!-- Node8 -->
<g id="Node000008" class="node">
<title>Node8</title>
<g id="a_Node000008"><a xlink:title=" ">
<polygon fill="#e0e0e0" stroke="#999999" points="213.94,-129.75 164.94,-129.75 164.94,-110.5 213.94,-110.5 213.94,-129.75"/>
<text text-anchor="middle" x="189.44" y="-116.25" font-family="Helvetica,sans-Serif" font-size="10.00">fstream</text>
</a>
</g>
</g>
<!-- Node1&#45;&gt;Node8 -->
<g id="edge10_Node000001_Node000008" class="edge">
<title>Node1&#45;&gt;Node8</title>
<g id="a_edge10_Node000001_Node000008"><a xlink:title=" ">
<path fill="none" stroke="#63b8ff" d="M246.73,-165.34C236.66,-157.57 221.89,-146.17 209.88,-136.9"/>
<polygon fill="#63b8ff" stroke="#63b8ff" points="212.22,-134.29 202.17,-130.95 207.94,-139.83 212.22,-134.29"/>
</a>
</g>
</g>
<!-- Node9 -->
<g id="Node000009" class="node">
<title>Node9</title>
<g id="a_Node000009"><a xlink:title=" ">
<polygon fill="#e0e0e0" stroke="#999999" points="285.19,-129.75 231.69,-129.75 231.69,-110.5 285.19,-110.5 285.19,-129.75"/>
<text text-anchor="middle" x="258.44" y="-116.25" font-family="Helvetica,sans-Serif" font-size="10.00">iostream</text>
</a>
</g>
</g>
<!-- Node1&#45;&gt;Node9 -->
<g id="edge11_Node000001_Node000009" class="edge">
<title>Node1&#45;&gt;Node9</title>
<g id="a_edge11_Node000001_Node000009"><a xlink:title=" ">
<path fill="none" stroke="#63b8ff" d="M258.44,-165.58C258.44,-159.07 258.44,-149.92 258.44,-141.62"/>
<polygon fill="#63b8ff" stroke="#63b8ff" points="261.94,-141.62 258.44,-131.62 254.94,-141.62 261.94,-141.62"/>
</a>
</g>
</g>
<!-- Node10 -->
<g id="Node000010" class="node">
<title>Node10</title>
<g id="a_Node000010"><a xlink:title=" ">
<polygon fill="#e0e0e0" stroke="#999999" points="333.19,-129.75 303.69,-129.75 303.69,-110.5 333.19,-110.5 333.19,-129.75"/>
<text text-anchor="middle" x="318.44" y="-116.25" font-family="Helvetica,sans-Serif" font-size="10.00">set</text>
</a>
</g>
</g>
<!-- Node1&#45;&gt;Node10 -->
<g id="edge12_Node000001_Node000010" class="edge">
<title>Node1&#45;&gt;Node10</title>
<g id="a_edge12_Node000001_Node000010"><a xlink:title=" ">
<path fill="none" stroke="#63b8ff" d="M268.61,-165.34C277.2,-157.72 289.7,-146.62 300.04,-137.45"/>
<polygon fill="#63b8ff" stroke="#63b8ff" points="302.12,-140.29 307.28,-131.03 297.47,-135.05 302.12,-140.29"/>
</a>
</g>
</g>
<!-- Node11 -->
<g id="Node000011" class="node">
<title>Node11</title>
<g id="a_Node000011"><a xlink:title=" ">
<polygon fill="#e0e0e0" stroke="#999999" points="409.81,-129.75 351.06,-129.75 351.06,-110.5 409.81,-110.5 409.81,-129.75"/>
<text text-anchor="middle" x="380.44" y="-116.25" font-family="Helvetica,sans-Serif" font-size="10.00">stdexcept</text>
</a>
</g>
</g>
<!-- Node1&#45;&gt;Node11 -->
<g id="edge13_Node000001_Node000011" class="edge">
<title>Node1&#45;&gt;Node11</title>
<g id="a_edge13_Node000001_Node000011"><a xlink:title=" ">
<path fill="none" stroke="#63b8ff" d="M279.13,-165.34C298.32,-156.97 327.15,-144.38 349.15,-134.78"/>
<polygon fill="#63b8ff" stroke="#63b8ff" points="350.49,-138.02 358.25,-130.81 347.69,-131.6 350.49,-138.02"/>
</a>
</g>
</g>
<!-- Node3 -->
<g id="Node000003" class="node">
<title>Node3</title>
<g id="a_Node000003"><a xlink:title=" ">
<polygon fill="#e0e0e0" stroke="#999999" points="177.44,-19.25 137.44,-19.25 137.44,0 177.44,0 177.44,-19.25"/>
<text text-anchor="middle" x="157.44" y="-5.75" font-family="Helvetica,sans-Serif" font-size="10.00">string</text>
</a>
</g>
</g>
<!-- Node2&#45;&gt;Node3 -->
<g id="edge2_Node000002_Node000003" class="edge">
<title>Node2&#45;&gt;Node3</title>
<g id="a_edge2_Node000002_Node000003"><a xlink:title=" ">
<path fill="none" stroke="#63b8ff" d="M79.27,-112.77C39.78,-103.88 -17.08,-85.33 5.44,-55.25 19.84,-36 85.46,-22.23 125.63,-15.43"/>
<polygon fill="#63b8ff" stroke="#63b8ff" points="126.15,-18.9 135.45,-13.83 125.02,-11.99 126.15,-18.9"/>
</a>
</g>
</g>
<!-- Node4 -->
<g id="Node000004" class="node">
<title>Node4</title>
<g id="a_Node000004"><a xlink:title=" ">
<polygon fill="#e0e0e0" stroke="#999999" points="57.94,-74.5 14.94,-74.5 14.94,-55.25 57.94,-55.25 57.94,-74.5"/>
<text text-anchor="middle" x="36.44" y="-61" font-family="Helvetica,sans-Serif" font-size="10.00">vector</text>
</a>
</g>
</g>
<!-- Node2&#45;&gt;Node4 -->
<g id="edge3_Node000002_Node000004" class="edge">
<title>Node2&#45;&gt;Node4</title>
<g id="a_edge3_Node000002_Node000004"><a xlink:title=" ">
<path fill="none" stroke="#63b8ff" d="M100.37,-110.09C88.98,-102.21 72.21,-90.61 58.7,-81.27"/>
<polygon fill="#63b8ff" stroke="#63b8ff" points="61.02,-78.62 50.81,-75.81 57.04,-84.38 61.02,-78.62"/>
</a>
</g>
</g>
<!-- Node5 -->
<g id="Node000005" class="node">
<title>Node5</title>
<g id="a_Node000005"><a xlink:href="_submission_8h.html" target="_top" xlink:title=" ">
<polygon fill="white" stroke="#666666" points="151.06,-74.5 75.81,-74.5 75.81,-55.25 151.06,-55.25 151.06,-74.5"/>
<text text-anchor="middle" x="113.44" y="-61" font-family="Helvetica,sans-Serif" font-size="10.00">Submission.h</text>
</a>
</g>
</g>
<!-- Node2&#45;&gt;Node5 -->
<g id="edge4_Node000002_Node000005" class="edge">
<title>Node2&#45;&gt;Node5</title>
<g id="a_edge4_Node000002_Node000005"><a xlink:title=" ">
<path fill="none" stroke="#63b8ff" d="M113.44,-110.33C113.44,-103.82 113.44,-94.67 113.44,-86.37"/>
<polygon fill="#63b8ff" stroke="#63b8ff" points="116.94,-86.37 113.44,-76.37 109.94,-86.37 116.94,-86.37"/>
</a>
</g>
</g>
<!-- Node6 -->
<g id="Node000006" class="node">
<title>Node6</title>
<g id="a_Node000006"><a xlink:href="_reviewer_8h.html" target="_top" xlink:title=" ">
<polygon fill="white" stroke="#666666" points="233.81,-74.5 169.06,-74.5 169.06,-55.25 233.81,-55.25 233.81,-74.5"/>
<text text-anchor="middle" x="201.44" y="-61" font-family="Helvetica,sans-Serif" font-size="10.00">Reviewer.h</text>
</a>
</g>
</g>
<!-- Node2&#45;&gt;Node6 -->
<g id="edge6_Node000002_Node000006" class="edge">
<title>Node2&#45;&gt;Node6</title>
<g id="a_edge6_Node000002_Node000006"><a xlink:title=" ">
<path fill="none" stroke="#63b8ff" d="M128.36,-110.09C141.64,-102.06 161.3,-90.16 176.89,-80.73"/>
<polygon fill="#63b8ff" stroke="#63b8ff" points="178.4,-83.91 185.14,-75.74 174.77,-77.92 178.4,-83.91"/>
</a>
</g>
</g>
<!-- Node7 -->
<g id="Node000007" class="node">
<title>Node7</title>
<g id="a_Node000007"><a xlink:href="_parameters_8h.html" target="_top" xlink:title=" ">
<polygon fill="white" stroke="#666666" points="326.69,-74.5 252.19,-74.5 252.19,-55.25 326.69,-55.25 326.69,-74.5"/>
<text text-anchor="middle" x="289.44" y="-61" font-family="Helvetica,sans-Serif" font-size="10.00">Parameters.h</text>
</a>
</g>
</g>
<!-- Node2&#45;&gt;Node7 -->
<g id="edge8_Node000002_Node000007" class="edge">
<title>Node2&#45;&gt;Node7</title>
<g id="a_edge8_Node000002_Node000007"><a xlink:title=" ">
<path fill="none" stroke="#63b8ff" d="M143.29,-110.09C172.24,-101.33 216.39,-87.98 248.59,-78.23"/>
<polygon fill="#63b8ff" stroke="#63b8ff" points="249.43,-81.64 257.98,-75.39 247.4,-74.94 249.43,-81.64"/>
</a>
</g>
</g>
<!-- Node5&#45;&gt;Node3 -->
<g id="edge5_Node000005_Node000003" class="edge">
<title>Node5&#45;&gt;Node3</title>
<g id="a_edge5_Node000005_Node000003"><a xlink:title=" ">
<path fill="none" stroke="#63b8ff" d="M120.7,-55.08C126.72,-47.8 135.45,-37.23 142.89,-28.23"/>
<polygon fill="#63b8ff" stroke="#63b8ff" points="145.38,-30.71 149.05,-20.78 139.98,-26.26 145.38,-30.71"/>
</a>
</g>
</g>
<!-- Node6&#45;&gt;Node3 -->
<g id="edge7_Node000006_Node000003" class="edge">
<title>Node6&#45;&gt;Node3</title>
<g id="a_edge7_Node000006_Node000003"><a xlink:title=" ">
<path fill="none" stroke="#63b8ff" d="M194.17,-55.08C188.16,-47.8 179.42,-37.23 171.98,-28.23"/>
<polygon fill="#63b8ff" stroke="#63b8ff" points="174.89,-26.26 165.82,-20.78 169.5,-30.71 174.89,-26.26"/>
</a>
</g>
</g>
<!-- Node7&#45;&gt;Node3 -->
<g id="edge9_Node000007_Node000003" class="edge">
<title>Node7&#45;&gt;Node3</title>
<g id="a_edge9_Node000007_Node000003"><a xlink:title=" ">
<path fill="none" stroke="#63b8ff" d="M267.04,-54.84C245.36,-46.09 212.3,-32.76 188.16,-23.02"/>
<polygon fill="#63b8ff" stroke="#63b8ff" points="189.75,-19.89 179.17,-19.39 187.14,-26.38 189.75,-19.89"/>
</a>
</g>
</g>
</g>
</svg>
