<?xml version="1.0" encoding="UTF-8" standalone="no"?>
<!DOCTYPE svg PUBLIC "-//W3C//DTD SVG 1.1//EN"
 "http://www.w3.org/Graphics/SVG/1.1/DTD/svg11.dtd">
<!-- Generated by graphviz version 12.2.1 (0)
 -->
<!-- Title: io/FileParser.h Pages: 1 -->
<svg width="228pt" height="83pt"
 viewBox="0.00 0.00 227.75 82.50" xmlns="http://www.w3.org/2000/svg" xmlns:xlink="http://www.w3.org/1999/xlink">
<g id="graph0" class="graph" transform="scale(1 1) rotate(0) translate(4 78.5)">
<title>io/FileParser.h</title>
<!-- Node1 -->
<g id="Node000001" class="node">
<title>Node1</title>
<g id="a_Node000001"><a xlink:title="Class definition for parsing input CSV files.">
<polygon fill="#999999" stroke="#666666" points="142.5,-74.5 64.25,-74.5 64.25,-55.25 142.5,-55.25 142.5,-74.5"/>
<text text-anchor="middle" x="103.38" y="-61" font-family="Helvetica,sans-Serif" font-size="10.00">io/FileParser.h</text>
</a>
</g>
</g>
<!-- Node2 -->
<g id="Node000002" class="node">
<title>Node2</title>
<g id="a_Node000002"><a xlink:href="_file_parser_8cpp.html" target="_top" xlink:title=" ">
<polygon fill="white" stroke="#666666" points="88.75,-19.25 0,-19.25 0,0 88.75,0 88.75,-19.25"/>
<text text-anchor="middle" x="44.38" y="-5.75" font-family="Helvetica,sans-Serif" font-size="10.00">io/FileParser.cpp</text>
</a>
</g>
</g>
<!-- Node1&#45;&gt;Node2 -->
<g id="edge1_Node000001_Node000002" class="edge">
<title>Node1&#45;&gt;Node2</title>
<g id="a_edge1_Node000001_Node000002"><a xlink:title=" ">
<path fill="none" stroke="#63b8ff" d="M85.11,-47.39C74.92,-38.19 62.63,-27.1 54.24,-19.52"/>
<polygon fill="#63b8ff" stroke="#63b8ff" points="82.47,-49.73 92.24,-53.83 87.16,-44.53 82.47,-49.73"/>
</a>
</g>
</g>
<!-- Node3 -->
<g id="Node000003" class="node">
<title>Node3</title>
<g id="a_Node000003"><a xlink:href="_conference_app_8cpp.html" target="_top" xlink:title=" ">
<polygon fill="white" stroke="#666666" points="219.75,-19.25 107,-19.25 107,0 219.75,0 219.75,-19.25"/>
<text text-anchor="middle" x="163.38" y="-5.75" font-family="Helvetica,sans-Serif" font-size="10.00">ui/ConferenceApp.cpp</text>
</a>
</g>
</g>
<!-- Node1&#45;&gt;Node3 -->
<g id="edge2_Node000001_Node000003" class="edge">
<title>Node1&#45;&gt;Node3</title>
<g id="a_edge2_Node000001_Node000003"><a xlink:title=" ">
<path fill="none" stroke="#63b8ff" d="M121.95,-47.39C132.31,-38.19 144.81,-27.1 153.35,-19.52"/>
<polygon fill="#63b8ff" stroke="#63b8ff" points="119.84,-44.58 114.69,-53.84 124.49,-49.82 119.84,-44.58"/>
</a>
</g>
</g>
</g>
</svg>
