<?xml version="1.0" encoding="UTF-8" standalone="no"?>
<!DOCTYPE svg PUBLIC "-//W3C//DTD SVG 1.1//EN"
 "http://www.w3.org/Graphics/SVG/1.1/DTD/svg11.dtd">
<!-- Generated by graphviz version 12.2.1 (0)
 -->
<!-- Title: utils/FileParser.h Pages: 1 -->
<svg width="335pt" height="138pt"
 viewBox="0.00 0.00 334.65 137.75" xmlns="http://www.w3.org/2000/svg" xmlns:xlink="http://www.w3.org/1999/xlink">
<g id="graph0" class="graph" transform="scale(1 1) rotate(0) translate(4 133.75)">
<title>utils/FileParser.h</title>
<!-- Node1 -->
<g id="Node000001" class="node">
<title>Node1</title>
<g id="a_Node000001"><a xlink:title="Class definition for parsing input CSV files.">
<polygon fill="#999999" stroke="#666666" points="157.77,-129.75 69.02,-129.75 69.02,-110.5 157.77,-110.5 157.77,-129.75"/>
<text text-anchor="middle" x="113.4" y="-116.25" font-family="Helvetica,sans-Serif" font-size="10.00">utils/FileParser.h</text>
</a>
</g>
</g>
<!-- Node2 -->
<g id="Node000002" class="node">
<title>Node2</title>
<g id="a_Node000002"><a xlink:title=" ">
<polygon fill="#e0e0e0" stroke="#999999" points="177.4,-19.25 137.4,-19.25 137.4,0 177.4,0 177.4,-19.25"/>
<text text-anchor="middle" x="157.4" y="-5.75" font-family="Helvetica,sans-Serif" font-size="10.00">string</text>
</a>
</g>
</g>
<!-- Node1&#45;&gt;Node2 -->
<g id="edge1_Node000001_Node000002" class="edge">
<title>Node1&#45;&gt;Node2</title>
<g id="a_edge1_Node000001_Node000002"><a xlink:title=" ">
<path fill="none" stroke="#63b8ff" d="M68.6,-110.23C30.45,-100.56 -15.16,-82.72 5.4,-55.25 19.81,-36 85.43,-22.23 125.59,-15.43"/>
<polygon fill="#63b8ff" stroke="#63b8ff" points="126.11,-18.9 135.42,-13.83 124.98,-11.99 126.11,-18.9"/>
</a>
</g>
</g>
<!-- Node3 -->
<g id="Node000003" class="node">
<title>Node3</title>
<g id="a_Node000003"><a xlink:title=" ">
<polygon fill="#e0e0e0" stroke="#999999" points="57.9,-74.5 14.9,-74.5 14.9,-55.25 57.9,-55.25 57.9,-74.5"/>
<text text-anchor="middle" x="36.4" y="-61" font-family="Helvetica,sans-Serif" font-size="10.00">vector</text>
</a>
</g>
</g>
<!-- Node1&#45;&gt;Node3 -->
<g id="edge2_Node000001_Node000003" class="edge">
<title>Node1&#45;&gt;Node3</title>
<g id="a_edge2_Node000001_Node000003"><a xlink:title=" ">
<path fill="none" stroke="#63b8ff" d="M100.34,-110.09C88.94,-102.21 72.17,-90.61 58.66,-81.27"/>
<polygon fill="#63b8ff" stroke="#63b8ff" points="60.98,-78.62 50.77,-75.81 57,-84.38 60.98,-78.62"/>
</a>
</g>
</g>
<!-- Node4 -->
<g id="Node000004" class="node">
<title>Node4</title>
<g id="a_Node000004"><a xlink:href="_submission_8h.html" target="_top" xlink:title=" ">
<polygon fill="white" stroke="#666666" points="151.02,-74.5 75.77,-74.5 75.77,-55.25 151.02,-55.25 151.02,-74.5"/>
<text text-anchor="middle" x="113.4" y="-61" font-family="Helvetica,sans-Serif" font-size="10.00">Submission.h</text>
</a>
</g>
</g>
<!-- Node1&#45;&gt;Node4 -->
<g id="edge3_Node000001_Node000004" class="edge">
<title>Node1&#45;&gt;Node4</title>
<g id="a_edge3_Node000001_Node000004"><a xlink:title=" ">
<path fill="none" stroke="#63b8ff" d="M113.4,-110.33C113.4,-103.82 113.4,-94.67 113.4,-86.37"/>
<polygon fill="#63b8ff" stroke="#63b8ff" points="116.9,-86.37 113.4,-76.37 109.9,-86.37 116.9,-86.37"/>
</a>
</g>
</g>
<!-- Node5 -->
<g id="Node000005" class="node">
<title>Node5</title>
<g id="a_Node000005"><a xlink:href="_reviewer_8h.html" target="_top" xlink:title=" ">
<polygon fill="white" stroke="#666666" points="233.77,-74.5 169.02,-74.5 169.02,-55.25 233.77,-55.25 233.77,-74.5"/>
<text text-anchor="middle" x="201.4" y="-61" font-family="Helvetica,sans-Serif" font-size="10.00">Reviewer.h</text>
</a>
</g>
</g>
<!-- Node1&#45;&gt;Node5 -->
<g id="edge5_Node000001_Node000005" class="edge">
<title>Node1&#45;&gt;Node5</title>
<g id="a_edge5_Node000001_Node000005"><a xlink:title=" ">
<path fill="none" stroke="#63b8ff" d="M128.33,-110.09C141.6,-102.06 161.26,-90.16 176.85,-80.73"/>
<polygon fill="#63b8ff" stroke="#63b8ff" points="178.36,-83.91 185.1,-75.74 174.73,-77.92 178.36,-83.91"/>
</a>
</g>
</g>
<!-- Node6 -->
<g id="Node000006" class="node">
<title>Node6</title>
<g id="a_Node000006"><a xlink:href="_parameters_8h.html" target="_top" xlink:title=" ">
<polygon fill="white" stroke="#666666" points="326.65,-74.5 252.15,-74.5 252.15,-55.25 326.65,-55.25 326.65,-74.5"/>
<text text-anchor="middle" x="289.4" y="-61" font-family="Helvetica,sans-Serif" font-size="10.00">Parameters.h</text>
</a>
</g>
</g>
<!-- Node1&#45;&gt;Node6 -->
<g id="edge7_Node000001_Node000006" class="edge">
<title>Node1&#45;&gt;Node6</title>
<g id="a_edge7_Node000001_Node000006"><a xlink:title=" ">
<path fill="none" stroke="#63b8ff" d="M143.25,-110.09C172.2,-101.33 216.35,-87.98 248.55,-78.23"/>
<polygon fill="#63b8ff" stroke="#63b8ff" points="249.39,-81.64 257.95,-75.39 247.36,-74.94 249.39,-81.64"/>
</a>
</g>
</g>
<!-- Node4&#45;&gt;Node2 -->
<g id="edge4_Node000004_Node000002" class="edge">
<title>Node4&#45;&gt;Node2</title>
<g id="a_edge4_Node000004_Node000002"><a xlink:title=" ">
<path fill="none" stroke="#63b8ff" d="M120.66,-55.08C126.68,-47.8 135.41,-37.23 142.85,-28.23"/>
<polygon fill="#63b8ff" stroke="#63b8ff" points="145.34,-30.71 149.01,-20.78 139.94,-26.26 145.34,-30.71"/>
</a>
</g>
</g>
<!-- Node5&#45;&gt;Node2 -->
<g id="edge6_Node000005_Node000002" class="edge">
<title>Node5&#45;&gt;Node2</title>
<g id="a_edge6_Node000005_Node000002"><a xlink:title=" ">
<path fill="none" stroke="#63b8ff" d="M194.13,-55.08C188.12,-47.8 179.38,-37.23 171.94,-28.23"/>
<polygon fill="#63b8ff" stroke="#63b8ff" points="174.85,-26.26 165.79,-20.78 169.46,-30.71 174.85,-26.26"/>
</a>
</g>
</g>
<!-- Node6&#45;&gt;Node2 -->
<g id="edge8_Node000006_Node000002" class="edge">
<title>Node6&#45;&gt;Node2</title>
<g id="a_edge8_Node000006_Node000002"><a xlink:title=" ">
<path fill="none" stroke="#63b8ff" d="M267.01,-54.84C245.32,-46.09 212.26,-32.76 188.12,-23.02"/>
<polygon fill="#63b8ff" stroke="#63b8ff" points="189.72,-19.89 179.13,-19.39 187.1,-26.38 189.72,-19.89"/>
</a>
</g>
</g>
</g>
</svg>
