<?xml version="1.0" encoding="UTF-8" standalone="no"?>
<!DOCTYPE svg PUBLIC "-//W3C//DTD SVG 1.1//EN"
 "http://www.w3.org/Graphics/SVG/1.1/DTD/svg11.dtd">
<!-- Generated by graphviz version 12.2.1 (0)
 -->
<!-- Title: algorithms/FordFulkerson.cpp Pages: 1 -->
<svg width="365pt" height="193pt"
 viewBox="0.00 0.00 365.00 193.00" xmlns="http://www.w3.org/2000/svg" xmlns:xlink="http://www.w3.org/1999/xlink">
<g id="graph0" class="graph" transform="scale(1 1) rotate(0) translate(4 189)">
<title>algorithms/FordFulkerson.cpp</title>
<!-- Node1 -->
<g id="Node000001" class="node">
<title>Node1</title>
<g id="a_Node000001"><a xlink:title=" ">
<polygon fill="#999999" stroke="#666666" points="357,-185 212,-185 212,-165.75 357,-165.75 357,-185"/>
<text text-anchor="middle" x="284.5" y="-171.5" font-family="Helvetica,sans-Serif" font-size="10.00">algorithms/FordFulkerson.cpp</text>
</a>
</g>
</g>
<!-- Node2 -->
<g id="Node000002" class="node">
<title>Node2</title>
<g id="a_Node000002"><a xlink:href="_ford_fulkerson_8h.html" target="_top" xlink:title="Implementation of the Ford&#45;Fulkerson algorithm for calculating maximum flow.">
<polygon fill="white" stroke="#666666" points="285.75,-129.75 151.25,-129.75 151.25,-110.5 285.75,-110.5 285.75,-129.75"/>
<text text-anchor="middle" x="218.5" y="-116.25" font-family="Helvetica,sans-Serif" font-size="10.00">algorithms/FordFulkerson.h</text>
</a>
</g>
</g>
<!-- Node1&#45;&gt;Node2 -->
<g id="edge1_Node000001_Node000002" class="edge">
<title>Node1&#45;&gt;Node2</title>
<g id="a_edge1_Node000001_Node000002"><a xlink:title=" ">
<path fill="none" stroke="#63b8ff" d="M273.3,-165.34C263.76,-157.65 249.83,-146.4 238.39,-137.18"/>
<polygon fill="#63b8ff" stroke="#63b8ff" points="240.69,-134.53 230.71,-130.98 236.29,-139.98 240.69,-134.53"/>
</a>
</g>
</g>
<!-- Node8 -->
<g id="Node000008" class="node">
<title>Node8</title>
<g id="a_Node000008"><a xlink:title=" ">
<polygon fill="#e0e0e0" stroke="#999999" points="342.38,-19.25 286.62,-19.25 286.62,0 342.38,0 342.38,-19.25"/>
<text text-anchor="middle" x="314.5" y="-5.75" font-family="Helvetica,sans-Serif" font-size="10.00">algorithm</text>
</a>
</g>
</g>
<!-- Node1&#45;&gt;Node8 -->
<g id="edge11_Node000001_Node000008" class="edge">
<title>Node1&#45;&gt;Node8</title>
<g id="a_edge11_Node000001_Node000008"><a xlink:title=" ">
<path fill="none" stroke="#63b8ff" d="M290.63,-165.26C301.64,-148.29 324.34,-110.33 332.5,-74.5 335.95,-59.36 330.78,-42.46 325.11,-29.85"/>
<polygon fill="#63b8ff" stroke="#63b8ff" points="328.28,-28.37 320.67,-21 322.03,-31.51 328.28,-28.37"/>
</a>
</g>
</g>
<!-- Node3 -->
<g id="Node000003" class="node">
<title>Node3</title>
<g id="a_Node000003"><a xlink:href="_graph_8h.html" target="_top" xlink:title=" ">
<polygon fill="white" stroke="#666666" points="171,-74.5 50,-74.5 50,-55.25 171,-55.25 171,-74.5"/>
<text text-anchor="middle" x="110.5" y="-61" font-family="Helvetica,sans-Serif" font-size="10.00">data_structures/Graph.h</text>
</a>
</g>
</g>
<!-- Node2&#45;&gt;Node3 -->
<g id="edge2_Node000002_Node000003" class="edge">
<title>Node2&#45;&gt;Node3</title>
<g id="a_edge2_Node000002_Node000003"><a xlink:title=" ">
<path fill="none" stroke="#63b8ff" d="M200.18,-110.09C183.42,-101.83 158.37,-89.48 139,-79.93"/>
<polygon fill="#63b8ff" stroke="#63b8ff" points="140.78,-76.9 130.27,-75.62 137.69,-83.18 140.78,-76.9"/>
</a>
</g>
</g>
<!-- Node5 -->
<g id="Node000005" class="node">
<title>Node5</title>
<g id="a_Node000005"><a xlink:title=" ">
<polygon fill="#e0e0e0" stroke="#999999" points="43,-19.25 0,-19.25 0,0 43,0 43,-19.25"/>
<text text-anchor="middle" x="21.5" y="-5.75" font-family="Helvetica,sans-Serif" font-size="10.00">vector</text>
</a>
</g>
</g>
<!-- Node2&#45;&gt;Node5 -->
<g id="edge8_Node000002_Node000005" class="edge">
<title>Node2&#45;&gt;Node5</title>
<g id="a_edge8_Node000002_Node000005"><a xlink:title=" ">
<path fill="none" stroke="#63b8ff" d="M155.15,-110C110.94,-102.42 57.01,-90.31 40.5,-74.5 28.73,-63.23 24.16,-45.02 22.43,-30.92"/>
<polygon fill="#63b8ff" stroke="#63b8ff" points="25.92,-30.65 21.63,-20.96 18.94,-31.2 25.92,-30.65"/>
</a>
</g>
</g>
<!-- Node9 -->
<g id="Node000009" class="node">
<title>Node9</title>
<g id="a_Node000009"><a xlink:title=" ">
<polygon fill="#e0e0e0" stroke="#999999" points="247.88,-74.5 189.12,-74.5 189.12,-55.25 247.88,-55.25 247.88,-74.5"/>
<text text-anchor="middle" x="218.5" y="-61" font-family="Helvetica,sans-Serif" font-size="10.00">stdexcept</text>
</a>
</g>
</g>
<!-- Node2&#45;&gt;Node9 -->
<g id="edge9_Node000002_Node000009" class="edge">
<title>Node2&#45;&gt;Node9</title>
<g id="a_edge9_Node000002_Node000009"><a xlink:title=" ">
<path fill="none" stroke="#63b8ff" d="M218.5,-110.33C218.5,-103.82 218.5,-94.67 218.5,-86.37"/>
<polygon fill="#63b8ff" stroke="#63b8ff" points="222,-86.37 218.5,-76.37 215,-86.37 222,-86.37"/>
</a>
</g>
</g>
<!-- Node10 -->
<g id="Node000010" class="node">
<title>Node10</title>
<g id="a_Node000010"><a xlink:title=" ">
<polygon fill="#e0e0e0" stroke="#999999" points="323.5,-74.5 265.5,-74.5 265.5,-55.25 323.5,-55.25 323.5,-74.5"/>
<text text-anchor="middle" x="294.5" y="-61" font-family="Helvetica,sans-Serif" font-size="10.00">functional</text>
</a>
</g>
</g>
<!-- Node2&#45;&gt;Node10 -->
<g id="edge10_Node000002_Node000010" class="edge">
<title>Node2&#45;&gt;Node10</title>
<g id="a_edge10_Node000002_Node000010"><a xlink:title=" ">
<path fill="none" stroke="#63b8ff" d="M231.39,-110.09C242.53,-102.29 258.87,-90.84 272.14,-81.54"/>
<polygon fill="#63b8ff" stroke="#63b8ff" points="274.12,-84.43 280.3,-75.82 270.11,-78.69 274.12,-84.43"/>
</a>
</g>
</g>
<!-- Node4 -->
<g id="Node000004" class="node">
<title>Node4</title>
<g id="a_Node000004"><a xlink:title=" ">
<polygon fill="#e0e0e0" stroke="#999999" points="114.25,-19.25 60.75,-19.25 60.75,0 114.25,0 114.25,-19.25"/>
<text text-anchor="middle" x="87.5" y="-5.75" font-family="Helvetica,sans-Serif" font-size="10.00">iostream</text>
</a>
</g>
</g>
<!-- Node3&#45;&gt;Node4 -->
<g id="edge3_Node000003_Node000004" class="edge">
<title>Node3&#45;&gt;Node4</title>
<g id="a_edge3_Node000003_Node000004"><a xlink:title=" ">
<path fill="none" stroke="#63b8ff" d="M106.7,-55.08C103.76,-48.26 99.56,-38.56 95.85,-29.95"/>
<polygon fill="#63b8ff" stroke="#63b8ff" points="99.16,-28.79 91.98,-21 92.73,-31.57 99.16,-28.79"/>
</a>
</g>
</g>
<!-- Node3&#45;&gt;Node5 -->
<g id="edge4_Node000003_Node000005" class="edge">
<title>Node3&#45;&gt;Node5</title>
<g id="a_edge4_Node000003_Node000005"><a xlink:title=" ">
<path fill="none" stroke="#63b8ff" d="M95.4,-54.84C81.98,-46.81 62.09,-34.91 46.33,-25.48"/>
<polygon fill="#63b8ff" stroke="#63b8ff" points="48.35,-22.61 37.97,-20.48 44.75,-28.62 48.35,-22.61"/>
</a>
</g>
</g>
<!-- Node6 -->
<g id="Node000006" class="node">
<title>Node6</title>
<g id="a_Node000006"><a xlink:title=" ">
<polygon fill="#e0e0e0" stroke="#999999" points="174.62,-19.25 132.38,-19.25 132.38,0 174.62,0 174.62,-19.25"/>
<text text-anchor="middle" x="153.5" y="-5.75" font-family="Helvetica,sans-Serif" font-size="10.00">queue</text>
</a>
</g>
</g>
<!-- Node3&#45;&gt;Node6 -->
<g id="edge5_Node000003_Node000006" class="edge">
<title>Node3&#45;&gt;Node6</title>
<g id="a_edge5_Node000003_Node000006"><a xlink:title=" ">
<path fill="none" stroke="#63b8ff" d="M117.6,-55.08C123.42,-47.88 131.83,-37.46 139.06,-28.51"/>
<polygon fill="#63b8ff" stroke="#63b8ff" points="141.73,-30.77 145.29,-20.79 136.29,-26.37 141.73,-30.77"/>
</a>
</g>
</g>
<!-- Node7 -->
<g id="Node000007" class="node">
<title>Node7</title>
<g id="a_Node000007"><a xlink:title=" ">
<polygon fill="#e0e0e0" stroke="#999999" points="232.12,-19.25 192.88,-19.25 192.88,0 232.12,0 232.12,-19.25"/>
<text text-anchor="middle" x="212.5" y="-5.75" font-family="Helvetica,sans-Serif" font-size="10.00">limits</text>
</a>
</g>
</g>
<!-- Node3&#45;&gt;Node7 -->
<g id="edge6_Node000003_Node000007" class="edge">
<title>Node3&#45;&gt;Node7</title>
<g id="a_edge6_Node000003_Node000007"><a xlink:title=" ">
<path fill="none" stroke="#63b8ff" d="M127.8,-54.84C143.48,-46.66 166.85,-34.46 185.08,-24.94"/>
<polygon fill="#63b8ff" stroke="#63b8ff" points="186.53,-28.13 193.77,-20.4 183.29,-21.93 186.53,-28.13"/>
</a>
</g>
</g>
<!-- Node3&#45;&gt;Node8 -->
<g id="edge7_Node000003_Node000008" class="edge">
<title>Node3&#45;&gt;Node8</title>
<g id="a_edge7_Node000003_Node000008"><a xlink:title=" ">
<path fill="none" stroke="#63b8ff" d="M145.11,-54.84C181.16,-45.43 237.56,-30.71 275.25,-20.87"/>
<polygon fill="#63b8ff" stroke="#63b8ff" points="276.05,-24.28 284.84,-18.37 274.28,-17.51 276.05,-24.28"/>
</a>
</g>
</g>
</g>
</svg>
