<?xml version="1.0" encoding="UTF-8" standalone="no"?>
<!DOCTYPE svg PUBLIC "-//W3C//DTD SVG 1.1//EN"
 "http://www.w3.org/Graphics/SVG/1.1/DTD/svg11.dtd">
<!-- Generated by graphviz version 12.2.1 (0)
 -->
<!-- Title: algorithms/FordFulkerson.h Pages: 1 -->
<svg width="451pt" height="83pt"
 viewBox="0.00 0.00 450.88 82.50" xmlns="http://www.w3.org/2000/svg" xmlns:xlink="http://www.w3.org/1999/xlink">
<g id="graph0" class="graph" transform="scale(1 1) rotate(0) translate(4 78.5)">
<title>algorithms/FordFulkerson.h</title>
<!-- Node1 -->
<g id="Node000001" class="node">
<title>Node1</title>
<g id="a_Node000001"><a xlink:title="Implementation of the Ford&#45;Fulkerson algorithm for calculating maximum flow.">
<polygon fill="#999999" stroke="#666666" points="304.75,-74.5 170.25,-74.5 170.25,-55.25 304.75,-55.25 304.75,-74.5"/>
<text text-anchor="middle" x="237.5" y="-61" font-family="Helvetica,sans-Serif" font-size="10.00">algorithms/FordFulkerson.h</text>
</a>
</g>
</g>
<!-- Node2 -->
<g id="Node000002" class="node">
<title>Node2</title>
<g id="a_Node000002"><a xlink:href="_ford_fulkerson_8cpp.html" target="_top" xlink:title=" ">
<polygon fill="white" stroke="#666666" points="145,-19.25 0,-19.25 0,0 145,0 145,-19.25"/>
<text text-anchor="middle" x="72.5" y="-5.75" font-family="Helvetica,sans-Serif" font-size="10.00">algorithms/FordFulkerson.cpp</text>
</a>
</g>
</g>
<!-- Node1&#45;&gt;Node2 -->
<g id="edge1_Node000001_Node000002" class="edge">
<title>Node1&#45;&gt;Node2</title>
<g id="a_edge1_Node000001_Node000002"><a xlink:title=" ">
<path fill="none" stroke="#63b8ff" d="M198.56,-51.31C168.49,-41.6 127.58,-28.4 100.63,-19.7"/>
<polygon fill="#63b8ff" stroke="#63b8ff" points="197.48,-54.64 208.07,-54.38 199.63,-47.97 197.48,-54.64"/>
</a>
</g>
</g>
<!-- Node3 -->
<g id="Node000003" class="node">
<title>Node3</title>
<g id="a_Node000003"><a xlink:href="_assignment_logic_8cpp.html" target="_top" xlink:title=" ">
<polygon fill="white" stroke="#666666" points="312.25,-19.25 162.75,-19.25 162.75,0 312.25,0 312.25,-19.25"/>
<text text-anchor="middle" x="237.5" y="-5.75" font-family="Helvetica,sans-Serif" font-size="10.00">services/AssignmentLogic.cpp</text>
</a>
</g>
</g>
<!-- Node1&#45;&gt;Node3 -->
<g id="edge2_Node000001_Node000003" class="edge">
<title>Node1&#45;&gt;Node3</title>
<g id="a_edge2_Node000001_Node000003"><a xlink:title=" ">
<path fill="none" stroke="#63b8ff" d="M237.5,-43.63C237.5,-35.34 237.5,-26.17 237.5,-19.61"/>
<polygon fill="#63b8ff" stroke="#63b8ff" points="234,-43.57 237.5,-53.57 241,-43.57 234,-43.57"/>
</a>
</g>
</g>
<!-- Node4 -->
<g id="Node000004" class="node">
<title>Node4</title>
<g id="a_Node000004"><a xlink:href="_conference_app_8cpp.html" target="_top" xlink:title=" ">
<polygon fill="white" stroke="#666666" points="442.88,-19.25 330.12,-19.25 330.12,0 442.88,0 442.88,-19.25"/>
<text text-anchor="middle" x="386.5" y="-5.75" font-family="Helvetica,sans-Serif" font-size="10.00">ui/ConferenceApp.cpp</text>
</a>
</g>
</g>
<!-- Node1&#45;&gt;Node4 -->
<g id="edge3_Node000001_Node000004" class="edge">
<title>Node1&#45;&gt;Node4</title>
<g id="a_edge3_Node000001_Node000004"><a xlink:title=" ">
<path fill="none" stroke="#63b8ff" d="M273.38,-51.05C300.47,-41.37 336.98,-28.32 361.1,-19.7"/>
<polygon fill="#63b8ff" stroke="#63b8ff" points="272.44,-47.67 264.2,-54.33 274.8,-54.26 272.44,-47.67"/>
</a>
</g>
</g>
</g>
</svg>
