<?xml version="1.0" encoding="UTF-8" standalone="no"?>
<!DOCTYPE svg PUBLIC "-//W3C//DTD SVG 1.1//EN"
 "http://www.w3.org/Graphics/SVG/1.1/DTD/svg11.dtd">
<!-- Generated by graphviz version 12.2.1 (0)
 -->
<!-- Title: algorithms/FordFulkerson.h Pages: 1 -->
<svg width="364pt" height="138pt"
 viewBox="0.00 0.00 363.50 137.75" xmlns="http://www.w3.org/2000/svg" xmlns:xlink="http://www.w3.org/1999/xlink">
<g id="graph0" class="graph" transform="scale(1 1) rotate(0) translate(4 133.75)">
<title>algorithms/FordFulkerson.h</title>
<!-- Node1 -->
<g id="Node000001" class="node">
<title>Node1</title>
<g id="a_Node000001"><a xlink:title="Implementation of the Ford&#45;Fulkerson algorithm for calculating maximum flow.">
<polygon fill="#999999" stroke="#666666" points="263.75,-129.75 129.25,-129.75 129.25,-110.5 263.75,-110.5 263.75,-129.75"/>
<text text-anchor="middle" x="196.5" y="-116.25" font-family="Helvetica,sans-Serif" font-size="10.00">algorithms/FordFulkerson.h</text>
</a>
</g>
</g>
<!-- Node2 -->
<g id="Node000002" class="node">
<title>Node2</title>
<g id="a_Node000002"><a xlink:href="_graph_8h.html" target="_top" xlink:title=" ">
<polygon fill="white" stroke="#666666" points="203,-74.5 82,-74.5 82,-55.25 203,-55.25 203,-74.5"/>
<text text-anchor="middle" x="142.5" y="-61" font-family="Helvetica,sans-Serif" font-size="10.00">data_structures/Graph.h</text>
</a>
</g>
</g>
<!-- Node1&#45;&gt;Node2 -->
<g id="edge1_Node000001_Node000002" class="edge">
<title>Node1&#45;&gt;Node2</title>
<g id="a_edge1_Node000001_Node000002"><a xlink:title=" ">
<path fill="none" stroke="#63b8ff" d="M187.58,-110.33C180.05,-102.9 169.03,-92.04 159.77,-82.91"/>
<polygon fill="#63b8ff" stroke="#63b8ff" points="162.27,-80.45 152.69,-75.92 157.35,-85.44 162.27,-80.45"/>
</a>
</g>
</g>
<!-- Node4 -->
<g id="Node000004" class="node">
<title>Node4</title>
<g id="a_Node000004"><a xlink:title=" ">
<polygon fill="#e0e0e0" stroke="#999999" points="43,-19.25 0,-19.25 0,0 43,0 43,-19.25"/>
<text text-anchor="middle" x="21.5" y="-5.75" font-family="Helvetica,sans-Serif" font-size="10.00">vector</text>
</a>
</g>
</g>
<!-- Node1&#45;&gt;Node4 -->
<g id="edge7_Node000001_Node000004" class="edge">
<title>Node1&#45;&gt;Node4</title>
<g id="a_edge7_Node000001_Node000004"><a xlink:title=" ">
<path fill="none" stroke="#63b8ff" d="M154.8,-110C129.64,-103.1 97.85,-91.8 73.5,-74.5 56.41,-62.36 41.84,-43.17 32.51,-28.99"/>
<polygon fill="#63b8ff" stroke="#63b8ff" points="35.52,-27.21 27.24,-20.61 29.59,-30.94 35.52,-27.21"/>
</a>
</g>
</g>
<!-- Node8 -->
<g id="Node000008" class="node">
<title>Node8</title>
<g id="a_Node000008"><a xlink:title=" ">
<polygon fill="#e0e0e0" stroke="#999999" points="279.88,-74.5 221.12,-74.5 221.12,-55.25 279.88,-55.25 279.88,-74.5"/>
<text text-anchor="middle" x="250.5" y="-61" font-family="Helvetica,sans-Serif" font-size="10.00">stdexcept</text>
</a>
</g>
</g>
<!-- Node1&#45;&gt;Node8 -->
<g id="edge8_Node000001_Node000008" class="edge">
<title>Node1&#45;&gt;Node8</title>
<g id="a_edge8_Node000001_Node000008"><a xlink:title=" ">
<path fill="none" stroke="#63b8ff" d="M205.42,-110.33C212.95,-102.9 223.97,-92.04 233.23,-82.91"/>
<polygon fill="#63b8ff" stroke="#63b8ff" points="235.65,-85.44 240.31,-75.92 230.73,-80.45 235.65,-85.44"/>
</a>
</g>
</g>
<!-- Node9 -->
<g id="Node000009" class="node">
<title>Node9</title>
<g id="a_Node000009"><a xlink:title=" ">
<polygon fill="#e0e0e0" stroke="#999999" points="355.5,-74.5 297.5,-74.5 297.5,-55.25 355.5,-55.25 355.5,-74.5"/>
<text text-anchor="middle" x="326.5" y="-61" font-family="Helvetica,sans-Serif" font-size="10.00">functional</text>
</a>
</g>
</g>
<!-- Node1&#45;&gt;Node9 -->
<g id="edge9_Node000001_Node000009" class="edge">
<title>Node1&#45;&gt;Node9</title>
<g id="a_edge9_Node000001_Node000009"><a xlink:title=" ">
<path fill="none" stroke="#63b8ff" d="M218.55,-110.09C239.19,-101.64 270.28,-88.9 293.8,-79.27"/>
<polygon fill="#63b8ff" stroke="#63b8ff" points="295.01,-82.56 302.94,-75.53 292.36,-76.08 295.01,-82.56"/>
</a>
</g>
</g>
<!-- Node3 -->
<g id="Node000003" class="node">
<title>Node3</title>
<g id="a_Node000003"><a xlink:title=" ">
<polygon fill="#e0e0e0" stroke="#999999" points="114.25,-19.25 60.75,-19.25 60.75,0 114.25,0 114.25,-19.25"/>
<text text-anchor="middle" x="87.5" y="-5.75" font-family="Helvetica,sans-Serif" font-size="10.00">iostream</text>
</a>
</g>
</g>
<!-- Node2&#45;&gt;Node3 -->
<g id="edge2_Node000002_Node000003" class="edge">
<title>Node2&#45;&gt;Node3</title>
<g id="a_edge2_Node000002_Node000003"><a xlink:title=" ">
<path fill="none" stroke="#63b8ff" d="M133.42,-55.08C125.66,-47.57 114.29,-36.56 104.8,-27.38"/>
<polygon fill="#63b8ff" stroke="#63b8ff" points="107.49,-25.1 97.87,-20.66 102.62,-30.13 107.49,-25.1"/>
</a>
</g>
</g>
<!-- Node2&#45;&gt;Node4 -->
<g id="edge3_Node000002_Node000004" class="edge">
<title>Node2&#45;&gt;Node4</title>
<g id="a_edge3_Node000002_Node000004"><a xlink:title=" ">
<path fill="none" stroke="#63b8ff" d="M121.97,-54.84C102.94,-46.47 74.35,-33.88 52.53,-24.28"/>
<polygon fill="#63b8ff" stroke="#63b8ff" points="54.07,-21.14 43.51,-20.31 51.26,-27.54 54.07,-21.14"/>
</a>
</g>
</g>
<!-- Node5 -->
<g id="Node000005" class="node">
<title>Node5</title>
<g id="a_Node000005"><a xlink:title=" ">
<polygon fill="#e0e0e0" stroke="#999999" points="174.62,-19.25 132.38,-19.25 132.38,0 174.62,0 174.62,-19.25"/>
<text text-anchor="middle" x="153.5" y="-5.75" font-family="Helvetica,sans-Serif" font-size="10.00">queue</text>
</a>
</g>
</g>
<!-- Node2&#45;&gt;Node5 -->
<g id="edge4_Node000002_Node000005" class="edge">
<title>Node2&#45;&gt;Node5</title>
<g id="a_edge4_Node000002_Node000005"><a xlink:title=" ">
<path fill="none" stroke="#63b8ff" d="M144.32,-55.08C145.68,-48.49 147.6,-39.21 149.33,-30.82"/>
<polygon fill="#63b8ff" stroke="#63b8ff" points="152.74,-31.59 151.34,-21.09 145.89,-30.18 152.74,-31.59"/>
</a>
</g>
</g>
<!-- Node6 -->
<g id="Node000006" class="node">
<title>Node6</title>
<g id="a_Node000006"><a xlink:title=" ">
<polygon fill="#e0e0e0" stroke="#999999" points="232.12,-19.25 192.88,-19.25 192.88,0 232.12,0 232.12,-19.25"/>
<text text-anchor="middle" x="212.5" y="-5.75" font-family="Helvetica,sans-Serif" font-size="10.00">limits</text>
</a>
</g>
</g>
<!-- Node2&#45;&gt;Node6 -->
<g id="edge5_Node000002_Node000006" class="edge">
<title>Node2&#45;&gt;Node6</title>
<g id="a_edge5_Node000002_Node000006"><a xlink:title=" ">
<path fill="none" stroke="#63b8ff" d="M154.37,-54.84C164.59,-47.07 179.57,-35.67 191.76,-26.4"/>
<polygon fill="#63b8ff" stroke="#63b8ff" points="193.76,-29.28 199.6,-20.44 189.52,-23.71 193.76,-29.28"/>
</a>
</g>
</g>
<!-- Node7 -->
<g id="Node000007" class="node">
<title>Node7</title>
<g id="a_Node000007"><a xlink:title=" ">
<polygon fill="#e0e0e0" stroke="#999999" points="306.38,-19.25 250.62,-19.25 250.62,0 306.38,0 306.38,-19.25"/>
<text text-anchor="middle" x="278.5" y="-5.75" font-family="Helvetica,sans-Serif" font-size="10.00">algorithm</text>
</a>
</g>
</g>
<!-- Node2&#45;&gt;Node7 -->
<g id="edge6_Node000002_Node000007" class="edge">
<title>Node2&#45;&gt;Node7</title>
<g id="a_edge6_Node000002_Node000007"><a xlink:title=" ">
<path fill="none" stroke="#63b8ff" d="M165.57,-54.84C187.26,-46.35 219.98,-33.54 244.63,-23.89"/>
<polygon fill="#63b8ff" stroke="#63b8ff" points="245.87,-27.16 253.91,-20.25 243.32,-20.64 245.87,-27.16"/>
</a>
</g>
</g>
</g>
</svg>
