<?xml version="1.0" encoding="UTF-8" standalone="no"?>
<!DOCTYPE svg PUBLIC "-//W3C//DTD SVG 1.1//EN"
 "http://www.w3.org/Graphics/SVG/1.1/DTD/svg11.dtd">
<!-- Generated by graphviz version 12.2.1 (0)
 -->
<!-- Title: data_structures/GraphBuilder.h Pages: 1 -->
<svg width="583pt" height="138pt"
 viewBox="0.00 0.00 583.00 137.75" xmlns="http://www.w3.org/2000/svg" xmlns:xlink="http://www.w3.org/1999/xlink">
<g id="graph0" class="graph" transform="scale(1 1) rotate(0) translate(4 133.75)">
<title>data_structures/GraphBuilder.h</title>
<!-- Node1 -->
<g id="Node000001" class="node">
<title>Node1</title>
<g id="a_Node000001"><a xlink:title=" ">
<polygon fill="#999999" stroke="#666666" points="350.62,-129.75 200.38,-129.75 200.38,-110.5 350.62,-110.5 350.62,-129.75"/>
<text text-anchor="middle" x="275.5" y="-116.25" font-family="Helvetica,sans-Serif" font-size="10.00">data_structures/GraphBuilder.h</text>
</a>
</g>
</g>
<!-- Node2 -->
<g id="Node000002" class="node">
<title>Node2</title>
<g id="a_Node000002"><a xlink:href="_graph_8h.html" target="_top" xlink:title=" ">
<polygon fill="white" stroke="#666666" points="203,-74.5 82,-74.5 82,-55.25 203,-55.25 203,-74.5"/>
<text text-anchor="middle" x="142.5" y="-61" font-family="Helvetica,sans-Serif" font-size="10.00">data_structures/Graph.h</text>
</a>
</g>
</g>
<!-- Node1&#45;&gt;Node2 -->
<g id="edge1_Node000001_Node000002" class="edge">
<title>Node1&#45;&gt;Node2</title>
<g id="a_edge1_Node000001_Node000002"><a xlink:title=" ">
<path fill="none" stroke="#63b8ff" d="M252.94,-110.09C231.73,-101.6 199.73,-88.79 175.62,-79.14"/>
<polygon fill="#63b8ff" stroke="#63b8ff" points="177.16,-75.98 166.58,-75.52 174.56,-82.48 177.16,-75.98"/>
</a>
</g>
</g>
<!-- Node4 -->
<g id="Node000004" class="node">
<title>Node4</title>
<g id="a_Node000004"><a xlink:title=" ">
<polygon fill="#e0e0e0" stroke="#999999" points="43,-19.25 0,-19.25 0,0 43,0 43,-19.25"/>
<text text-anchor="middle" x="21.5" y="-5.75" font-family="Helvetica,sans-Serif" font-size="10.00">vector</text>
</a>
</g>
</g>
<!-- Node1&#45;&gt;Node4 -->
<g id="edge13_Node000001_Node000004" class="edge">
<title>Node1&#45;&gt;Node4</title>
<g id="a_edge13_Node000001_Node000004"><a xlink:title=" ">
<path fill="none" stroke="#63b8ff" d="M200.03,-114.69C159.7,-109.44 110.64,-98.24 72.5,-74.5 54.83,-63.51 40.67,-44.15 31.8,-29.62"/>
<polygon fill="#63b8ff" stroke="#63b8ff" points="34.85,-27.9 26.83,-20.98 28.78,-31.39 34.85,-27.9"/>
</a>
</g>
</g>
<!-- Node8 -->
<g id="Node000008" class="node">
<title>Node8</title>
<g id="a_Node000008"><a xlink:href="_submission_8h.html" target="_top" xlink:title=" ">
<polygon fill="white" stroke="#666666" points="330.38,-74.5 220.62,-74.5 220.62,-55.25 330.38,-55.25 330.38,-74.5"/>
<text text-anchor="middle" x="275.5" y="-61" font-family="Helvetica,sans-Serif" font-size="10.00">models/Submission.h</text>
</a>
</g>
</g>
<!-- Node1&#45;&gt;Node8 -->
<g id="edge7_Node000001_Node000008" class="edge">
<title>Node1&#45;&gt;Node8</title>
<g id="a_edge7_Node000001_Node000008"><a xlink:title=" ">
<path fill="none" stroke="#63b8ff" d="M275.5,-110.33C275.5,-103.82 275.5,-94.67 275.5,-86.37"/>
<polygon fill="#63b8ff" stroke="#63b8ff" points="279,-86.37 275.5,-76.37 272,-86.37 279,-86.37"/>
</a>
</g>
</g>
<!-- Node10 -->
<g id="Node000010" class="node">
<title>Node10</title>
<g id="a_Node000010"><a xlink:href="_reviewer_8h.html" target="_top" xlink:title=" ">
<polygon fill="white" stroke="#666666" points="448.12,-74.5 348.88,-74.5 348.88,-55.25 448.12,-55.25 448.12,-74.5"/>
<text text-anchor="middle" x="398.5" y="-61" font-family="Helvetica,sans-Serif" font-size="10.00">models/Reviewer.h</text>
</a>
</g>
</g>
<!-- Node1&#45;&gt;Node10 -->
<g id="edge9_Node000001_Node000010" class="edge">
<title>Node1&#45;&gt;Node10</title>
<g id="a_edge9_Node000001_Node000010"><a xlink:title=" ">
<path fill="none" stroke="#63b8ff" d="M296.37,-110.09C315.8,-101.68 345.04,-89.02 367.26,-79.4"/>
<polygon fill="#63b8ff" stroke="#63b8ff" points="368.36,-82.74 376.14,-75.55 365.58,-76.31 368.36,-82.74"/>
</a>
</g>
</g>
<!-- Node11 -->
<g id="Node000011" class="node">
<title>Node11</title>
<g id="a_Node000011"><a xlink:href="_parameters_8h.html" target="_top" xlink:title=" ">
<polygon fill="white" stroke="#666666" points="575,-74.5 466,-74.5 466,-55.25 575,-55.25 575,-74.5"/>
<text text-anchor="middle" x="520.5" y="-61" font-family="Helvetica,sans-Serif" font-size="10.00">models/Parameters.h</text>
</a>
</g>
</g>
<!-- Node1&#45;&gt;Node11 -->
<g id="edge11_Node000001_Node000011" class="edge">
<title>Node1&#45;&gt;Node11</title>
<g id="a_edge11_Node000001_Node000011"><a xlink:title=" ">
<path fill="none" stroke="#63b8ff" d="M317.34,-110.03C358.92,-100.99 422.81,-87.11 467.82,-77.32"/>
<polygon fill="#63b8ff" stroke="#63b8ff" points="468.33,-80.8 477.35,-75.25 466.84,-73.96 468.33,-80.8"/>
</a>
</g>
</g>
<!-- Node3 -->
<g id="Node000003" class="node">
<title>Node3</title>
<g id="a_Node000003"><a xlink:title=" ">
<polygon fill="#e0e0e0" stroke="#999999" points="114.25,-19.25 60.75,-19.25 60.75,0 114.25,0 114.25,-19.25"/>
<text text-anchor="middle" x="87.5" y="-5.75" font-family="Helvetica,sans-Serif" font-size="10.00">iostream</text>
</a>
</g>
</g>
<!-- Node2&#45;&gt;Node3 -->
<g id="edge2_Node000002_Node000003" class="edge">
<title>Node2&#45;&gt;Node3</title>
<g id="a_edge2_Node000002_Node000003"><a xlink:title=" ">
<path fill="none" stroke="#63b8ff" d="M133.42,-55.08C125.66,-47.57 114.29,-36.56 104.8,-27.38"/>
<polygon fill="#63b8ff" stroke="#63b8ff" points="107.49,-25.1 97.87,-20.66 102.62,-30.13 107.49,-25.1"/>
</a>
</g>
</g>
<!-- Node2&#45;&gt;Node4 -->
<g id="edge3_Node000002_Node000004" class="edge">
<title>Node2&#45;&gt;Node4</title>
<g id="a_edge3_Node000002_Node000004"><a xlink:title=" ">
<path fill="none" stroke="#63b8ff" d="M121.97,-54.84C102.94,-46.47 74.35,-33.88 52.53,-24.28"/>
<polygon fill="#63b8ff" stroke="#63b8ff" points="54.07,-21.14 43.51,-20.31 51.26,-27.54 54.07,-21.14"/>
</a>
</g>
</g>
<!-- Node5 -->
<g id="Node000005" class="node">
<title>Node5</title>
<g id="a_Node000005"><a xlink:title=" ">
<polygon fill="#e0e0e0" stroke="#999999" points="174.62,-19.25 132.38,-19.25 132.38,0 174.62,0 174.62,-19.25"/>
<text text-anchor="middle" x="153.5" y="-5.75" font-family="Helvetica,sans-Serif" font-size="10.00">queue</text>
</a>
</g>
</g>
<!-- Node2&#45;&gt;Node5 -->
<g id="edge4_Node000002_Node000005" class="edge">
<title>Node2&#45;&gt;Node5</title>
<g id="a_edge4_Node000002_Node000005"><a xlink:title=" ">
<path fill="none" stroke="#63b8ff" d="M144.32,-55.08C145.68,-48.49 147.6,-39.21 149.33,-30.82"/>
<polygon fill="#63b8ff" stroke="#63b8ff" points="152.74,-31.59 151.34,-21.09 145.89,-30.18 152.74,-31.59"/>
</a>
</g>
</g>
<!-- Node6 -->
<g id="Node000006" class="node">
<title>Node6</title>
<g id="a_Node000006"><a xlink:title=" ">
<polygon fill="#e0e0e0" stroke="#999999" points="232.12,-19.25 192.88,-19.25 192.88,0 232.12,0 232.12,-19.25"/>
<text text-anchor="middle" x="212.5" y="-5.75" font-family="Helvetica,sans-Serif" font-size="10.00">limits</text>
</a>
</g>
</g>
<!-- Node2&#45;&gt;Node6 -->
<g id="edge5_Node000002_Node000006" class="edge">
<title>Node2&#45;&gt;Node6</title>
<g id="a_edge5_Node000002_Node000006"><a xlink:title=" ">
<path fill="none" stroke="#63b8ff" d="M154.37,-54.84C164.59,-47.07 179.57,-35.67 191.76,-26.4"/>
<polygon fill="#63b8ff" stroke="#63b8ff" points="193.76,-29.28 199.6,-20.44 189.52,-23.71 193.76,-29.28"/>
</a>
</g>
</g>
<!-- Node7 -->
<g id="Node000007" class="node">
<title>Node7</title>
<g id="a_Node000007"><a xlink:title=" ">
<polygon fill="#e0e0e0" stroke="#999999" points="306.38,-19.25 250.62,-19.25 250.62,0 306.38,0 306.38,-19.25"/>
<text text-anchor="middle" x="278.5" y="-5.75" font-family="Helvetica,sans-Serif" font-size="10.00">algorithm</text>
</a>
</g>
</g>
<!-- Node2&#45;&gt;Node7 -->
<g id="edge6_Node000002_Node000007" class="edge">
<title>Node2&#45;&gt;Node7</title>
<g id="a_edge6_Node000002_Node000007"><a xlink:title=" ">
<path fill="none" stroke="#63b8ff" d="M165.57,-54.84C187.26,-46.35 219.98,-33.54 244.63,-23.89"/>
<polygon fill="#63b8ff" stroke="#63b8ff" points="245.87,-27.16 253.91,-20.25 243.32,-20.64 245.87,-27.16"/>
</a>
</g>
</g>
<!-- Node9 -->
<g id="Node000009" class="node">
<title>Node9</title>
<g id="a_Node000009"><a xlink:title=" ">
<polygon fill="#e0e0e0" stroke="#999999" points="418.5,-19.25 378.5,-19.25 378.5,0 418.5,0 418.5,-19.25"/>
<text text-anchor="middle" x="398.5" y="-5.75" font-family="Helvetica,sans-Serif" font-size="10.00">string</text>
</a>
</g>
</g>
<!-- Node8&#45;&gt;Node9 -->
<g id="edge8_Node000008_Node000009" class="edge">
<title>Node8&#45;&gt;Node9</title>
<g id="a_edge8_Node000008_Node000009"><a xlink:title=" ">
<path fill="none" stroke="#63b8ff" d="M296.37,-54.84C316.04,-46.32 345.75,-33.46 368.07,-23.8"/>
<polygon fill="#63b8ff" stroke="#63b8ff" points="369.18,-27.13 376.96,-19.95 366.39,-20.71 369.18,-27.13"/>
</a>
</g>
</g>
<!-- Node10&#45;&gt;Node9 -->
<g id="edge10_Node000010_Node000009" class="edge">
<title>Node10&#45;&gt;Node9</title>
<g id="a_edge10_Node000010_Node000009"><a xlink:title=" ">
<path fill="none" stroke="#63b8ff" d="M398.5,-55.08C398.5,-48.57 398.5,-39.42 398.5,-31.12"/>
<polygon fill="#63b8ff" stroke="#63b8ff" points="402,-31.12 398.5,-21.12 395,-31.12 402,-31.12"/>
</a>
</g>
</g>
<!-- Node11&#45;&gt;Node9 -->
<g id="edge12_Node000011_Node000009" class="edge">
<title>Node11&#45;&gt;Node9</title>
<g id="a_edge12_Node000011_Node000009"><a xlink:title=" ">
<path fill="none" stroke="#63b8ff" d="M499.8,-54.84C480.5,-46.41 451.44,-33.73 429.39,-24.11"/>
<polygon fill="#63b8ff" stroke="#63b8ff" points="430.84,-20.92 420.28,-20.13 428.04,-27.34 430.84,-20.92"/>
</a>
</g>
</g>
</g>
</svg>
