<?xml version="1.0" encoding="UTF-8" standalone="no"?>
<!DOCTYPE svg PUBLIC "-//W3C//DTD SVG 1.1//EN"
 "http://www.w3.org/Graphics/SVG/1.1/DTD/svg11.dtd">
<!-- Generated by graphviz version 12.2.1 (0)
 -->
<!-- Title: data_structures/Graph.h Pages: 1 -->
<svg width="839pt" height="138pt"
 viewBox="0.00 0.00 838.50 137.75" xmlns="http://www.w3.org/2000/svg" xmlns:xlink="http://www.w3.org/1999/xlink">
<g id="graph0" class="graph" transform="scale(1 1) rotate(0) translate(4 133.75)">
<title>data_structures/Graph.h</title>
<!-- Node1 -->
<g id="Node000001" class="node">
<title>Node1</title>
<g id="a_Node000001"><a xlink:title=" ">
<polygon fill="#999999" stroke="#666666" points="446.12,-129.75 325.12,-129.75 325.12,-110.5 446.12,-110.5 446.12,-129.75"/>
<text text-anchor="middle" x="385.62" y="-116.25" font-family="Helvetica,sans-Serif" font-size="10.00">data_structures/Graph.h</text>
</a>
</g>
</g>
<!-- Node2 -->
<g id="Node000002" class="node">
<title>Node2</title>
<g id="a_Node000002"><a xlink:href="_edmond_karp_8h.html" target="_top" xlink:title="Implementations of the Edmonds&#45;Karp algorithm for calculating maximum flow.">
<polygon fill="white" stroke="#666666" points="292.88,-74.5 164.38,-74.5 164.38,-55.25 292.88,-55.25 292.88,-74.5"/>
<text text-anchor="middle" x="228.62" y="-61" font-family="Helvetica,sans-Serif" font-size="10.00">algorithms/EdmondKarp.h</text>
</a>
</g>
</g>
<!-- Node1&#45;&gt;Node2 -->
<g id="edge1_Node000001_Node000002" class="edge">
<title>Node1&#45;&gt;Node2</title>
<g id="a_edge1_Node000001_Node000002"><a xlink:title=" ">
<path fill="none" stroke="#63b8ff" d="M348.2,-106.43C319.62,-96.74 280.92,-83.61 255.39,-74.95"/>
<polygon fill="#63b8ff" stroke="#63b8ff" points="346.96,-109.71 357.56,-109.61 349.21,-103.08 346.96,-109.71"/>
</a>
</g>
</g>
<!-- Node5 -->
<g id="Node000005" class="node">
<title>Node5</title>
<g id="a_Node000005"><a xlink:href="maxflow__tests_8cpp.html" target="_top" xlink:title=" ">
<polygon fill="white" stroke="#666666" points="123.25,-19.25 0,-19.25 0,0 123.25,0 123.25,-19.25"/>
<text text-anchor="middle" x="61.62" y="-5.75" font-family="Helvetica,sans-Serif" font-size="10.00">tests/maxflow_tests.cpp</text>
</a>
</g>
</g>
<!-- Node1&#45;&gt;Node5 -->
<g id="edge14_Node000001_Node000005" class="edge">
<title>Node1&#45;&gt;Node5</title>
<g id="a_edge14_Node000001_Node000005"><a xlink:title=" ">
<path fill="none" stroke="#63b8ff" d="M313.9,-112.76C267.4,-106.83 206.28,-95.57 155.62,-74.5 122.11,-60.56 88.21,-33.66 71.79,-19.63"/>
<polygon fill="#63b8ff" stroke="#63b8ff" points="313.24,-116.21 323.59,-113.94 314.09,-109.26 313.24,-116.21"/>
</a>
</g>
</g>
<!-- Node7 -->
<g id="Node000007" class="node">
<title>Node7</title>
<g id="a_Node000007"><a xlink:href="_graph_builder_8h.html" target="_top" xlink:title=" ">
<polygon fill="white" stroke="#666666" points="460.75,-74.5 310.5,-74.5 310.5,-55.25 460.75,-55.25 460.75,-74.5"/>
<text text-anchor="middle" x="385.62" y="-61" font-family="Helvetica,sans-Serif" font-size="10.00">data_structures/GraphBuilder.h</text>
</a>
</g>
</g>
<!-- Node1&#45;&gt;Node7 -->
<g id="edge6_Node000001_Node000007" class="edge">
<title>Node1&#45;&gt;Node7</title>
<g id="a_edge6_Node000001_Node000007"><a xlink:title=" ">
<path fill="none" stroke="#63b8ff" d="M385.62,-98.88C385.62,-90.59 385.62,-81.42 385.62,-74.86"/>
<polygon fill="#63b8ff" stroke="#63b8ff" points="382.13,-98.82 385.63,-108.82 389.13,-98.82 382.13,-98.82"/>
</a>
</g>
</g>
<!-- Node9 -->
<g id="Node000009" class="node">
<title>Node9</title>
<g id="a_Node000009"><a xlink:href="_assignment_logic_8h.html" target="_top" xlink:title="Logic for assigning reviewers to submissions based on Max Flow.">
<polygon fill="white" stroke="#666666" points="618.12,-74.5 479.12,-74.5 479.12,-55.25 618.12,-55.25 618.12,-74.5"/>
<text text-anchor="middle" x="548.62" y="-61" font-family="Helvetica,sans-Serif" font-size="10.00">services/AssignmentLogic.h</text>
</a>
</g>
</g>
<!-- Node1&#45;&gt;Node9 -->
<g id="edge11_Node000001_Node000009" class="edge">
<title>Node1&#45;&gt;Node9</title>
<g id="a_edge11_Node000001_Node000009"><a xlink:title=" ">
<path fill="none" stroke="#63b8ff" d="M424.09,-106.56C453.8,-96.85 494.21,-83.65 520.84,-74.95"/>
<polygon fill="#63b8ff" stroke="#63b8ff" points="423.13,-103.19 414.71,-109.62 425.31,-109.84 423.13,-103.19"/>
</a>
</g>
</g>
<!-- Node10 -->
<g id="Node000010" class="node">
<title>Node10</title>
<g id="a_Node000010"><a xlink:href="_conference_app_8h.html" target="_top" xlink:title=" ">
<polygon fill="white" stroke="#666666" points="751.75,-74.5 649.5,-74.5 649.5,-55.25 751.75,-55.25 751.75,-74.5"/>
<text text-anchor="middle" x="700.62" y="-61" font-family="Helvetica,sans-Serif" font-size="10.00">ui/ConferenceApp.h</text>
</a>
</g>
</g>
<!-- Node1&#45;&gt;Node10 -->
<g id="edge15_Node000001_Node000010" class="edge">
<title>Node1&#45;&gt;Node10</title>
<g id="a_edge15_Node000001_Node000010"><a xlink:title=" ">
<path fill="none" stroke="#63b8ff" d="M450.44,-108.17C509.27,-98.22 594.88,-83.75 649.14,-74.58"/>
<polygon fill="#63b8ff" stroke="#63b8ff" points="450.19,-104.66 440.91,-109.78 451.35,-111.56 450.19,-104.66"/>
</a>
</g>
</g>
<!-- Node3 -->
<g id="Node000003" class="node">
<title>Node3</title>
<g id="a_Node000003"><a xlink:href="_edmond_karp_8cpp.html" target="_top" xlink:title=" ">
<polygon fill="white" stroke="#666666" points="280.12,-19.25 141.12,-19.25 141.12,0 280.12,0 280.12,-19.25"/>
<text text-anchor="middle" x="210.62" y="-5.75" font-family="Helvetica,sans-Serif" font-size="10.00">algorithms/EdmondKarp.cpp</text>
</a>
</g>
</g>
<!-- Node2&#45;&gt;Node3 -->
<g id="edge2_Node000002_Node000003" class="edge">
<title>Node2&#45;&gt;Node3</title>
<g id="a_edge2_Node000002_Node000003"><a xlink:title=" ">
<path fill="none" stroke="#63b8ff" d="M221.98,-44.21C219.12,-35.77 215.93,-26.33 213.66,-19.61"/>
<polygon fill="#63b8ff" stroke="#63b8ff" points="218.65,-45.3 225.17,-53.65 225.28,-43.05 218.65,-45.3"/>
</a>
</g>
</g>
<!-- Node4 -->
<g id="Node000004" class="node">
<title>Node4</title>
<g id="a_Node000004"><a xlink:href="_assignment_logic_8cpp.html" target="_top" xlink:title=" ">
<polygon fill="white" stroke="#666666" points="447.38,-19.25 297.88,-19.25 297.88,0 447.38,0 447.38,-19.25"/>
<text text-anchor="middle" x="372.62" y="-5.75" font-family="Helvetica,sans-Serif" font-size="10.00">services/AssignmentLogic.cpp</text>
</a>
</g>
</g>
<!-- Node2&#45;&gt;Node4 -->
<g id="edge3_Node000002_Node000004" class="edge">
<title>Node2&#45;&gt;Node4</title>
<g id="a_edge3_Node000002_Node000004"><a xlink:title=" ">
<path fill="none" stroke="#63b8ff" d="M263.65,-50.92C289.8,-41.25 324.87,-28.29 348.08,-19.7"/>
<polygon fill="#63b8ff" stroke="#63b8ff" points="262.64,-47.57 254.47,-54.32 265.07,-54.13 262.64,-47.57"/>
</a>
</g>
</g>
<!-- Node2&#45;&gt;Node5 -->
<g id="edge4_Node000002_Node000005" class="edge">
<title>Node2&#45;&gt;Node5</title>
<g id="a_edge4_Node000002_Node000005"><a xlink:title=" ">
<path fill="none" stroke="#63b8ff" d="M189.62,-51.44C159.14,-41.72 117.49,-28.44 90.09,-19.7"/>
<polygon fill="#63b8ff" stroke="#63b8ff" points="188.26,-54.68 198.85,-54.38 190.39,-48.01 188.26,-54.68"/>
</a>
</g>
</g>
<!-- Node6 -->
<g id="Node000006" class="node">
<title>Node6</title>
<g id="a_Node000006"><a xlink:href="_conference_app_8cpp.html" target="_top" xlink:title=" ">
<polygon fill="white" stroke="#666666" points="757,-19.25 644.25,-19.25 644.25,0 757,0 757,-19.25"/>
<text text-anchor="middle" x="700.62" y="-5.75" font-family="Helvetica,sans-Serif" font-size="10.00">ui/ConferenceApp.cpp</text>
</a>
</g>
</g>
<!-- Node2&#45;&gt;Node6 -->
<g id="edge5_Node000002_Node000006" class="edge">
<title>Node2&#45;&gt;Node6</title>
<g id="a_edge5_Node000002_Node000006"><a xlink:title=" ">
<path fill="none" stroke="#63b8ff" d="M304.36,-54.95C451.43,-38.43 490.42,-36.47 634.62,-19.25 637.61,-18.89 640.67,-18.52 643.75,-18.14"/>
<polygon fill="#63b8ff" stroke="#63b8ff" points="304.16,-51.45 294.61,-56.05 304.94,-58.41 304.16,-51.45"/>
</a>
</g>
</g>
<!-- Node7&#45;&gt;Node4 -->
<g id="edge8_Node000007_Node000004" class="edge">
<title>Node7&#45;&gt;Node4</title>
<g id="a_edge8_Node000007_Node000004"><a xlink:title=" ">
<path fill="none" stroke="#63b8ff" d="M380.75,-43.92C378.71,-35.55 376.44,-26.25 374.82,-19.61"/>
<polygon fill="#63b8ff" stroke="#63b8ff" points="377.35,-44.73 383.12,-53.61 384.15,-43.07 377.35,-44.73"/>
</a>
</g>
</g>
<!-- Node7&#45;&gt;Node5 -->
<g id="edge9_Node000007_Node000005" class="edge">
<title>Node7&#45;&gt;Node5</title>
<g id="a_edge9_Node000007_Node000005"><a xlink:title=" ">
<path fill="none" stroke="#63b8ff" d="M319.11,-52.94C259.46,-43.14 172.96,-28.92 117,-19.73"/>
<polygon fill="#63b8ff" stroke="#63b8ff" points="318.37,-56.37 328.8,-54.54 319.5,-49.46 318.37,-56.37"/>
</a>
</g>
</g>
<!-- Node7&#45;&gt;Node6 -->
<g id="edge10_Node000007_Node000006" class="edge">
<title>Node7&#45;&gt;Node6</title>
<g id="a_edge10_Node000007_Node000006"><a xlink:title=" ">
<path fill="none" stroke="#63b8ff" d="M450.65,-52.88C508.63,-43.08 592.5,-28.9 646.79,-19.73"/>
<polygon fill="#63b8ff" stroke="#63b8ff" points="450.19,-49.41 440.91,-54.53 451.35,-56.31 450.19,-49.41"/>
</a>
</g>
</g>
<!-- Node8 -->
<g id="Node000008" class="node">
<title>Node8</title>
<g id="a_Node000008"><a xlink:href="_graph_builder_8cpp.html" target="_top" xlink:title=" ">
<polygon fill="white" stroke="#666666" points="626,-19.25 465.25,-19.25 465.25,0 626,0 626,-19.25"/>
<text text-anchor="middle" x="545.62" y="-5.75" font-family="Helvetica,sans-Serif" font-size="10.00">data_structures/GraphBuilder.cpp</text>
</a>
</g>
</g>
<!-- Node7&#45;&gt;Node8 -->
<g id="edge7_Node000007_Node000008" class="edge">
<title>Node7&#45;&gt;Node8</title>
<g id="a_edge7_Node000007_Node000008"><a xlink:title=" ">
<path fill="none" stroke="#63b8ff" d="M423.38,-51.31C452.55,-41.6 492.21,-28.4 518.35,-19.7"/>
<polygon fill="#63b8ff" stroke="#63b8ff" points="422.59,-47.89 414.2,-54.36 424.8,-54.53 422.59,-47.89"/>
</a>
</g>
</g>
<!-- Node9&#45;&gt;Node4 -->
<g id="edge12_Node000009_Node000004" class="edge">
<title>Node9&#45;&gt;Node4</title>
<g id="a_edge12_Node000009_Node000004"><a xlink:title=" ">
<path fill="none" stroke="#63b8ff" d="M507.94,-51.57C475.78,-41.84 431.63,-28.48 402.63,-19.7"/>
<polygon fill="#63b8ff" stroke="#63b8ff" points="506.74,-54.86 517.32,-54.4 508.76,-48.16 506.74,-54.86"/>
</a>
</g>
</g>
<!-- Node9&#45;&gt;Node6 -->
<g id="edge13_Node000009_Node000006" class="edge">
<title>Node9&#45;&gt;Node6</title>
<g id="a_edge13_Node000009_Node000006"><a xlink:title=" ">
<path fill="none" stroke="#63b8ff" d="M585.23,-51.05C612.86,-41.37 650.1,-28.32 674.71,-19.7"/>
<polygon fill="#63b8ff" stroke="#63b8ff" points="584.12,-47.73 575.84,-54.34 586.43,-54.34 584.12,-47.73"/>
</a>
</g>
</g>
<!-- Node10&#45;&gt;Node6 -->
<g id="edge17_Node000010_Node000006" class="edge">
<title>Node10&#45;&gt;Node6</title>
<g id="a_edge17_Node000010_Node000006"><a xlink:title=" ">
<path fill="none" stroke="#63b8ff" d="M700.62,-43.63C700.62,-35.34 700.62,-26.17 700.62,-19.61"/>
<polygon fill="#63b8ff" stroke="#63b8ff" points="697.13,-43.57 700.63,-53.57 704.13,-43.57 697.13,-43.57"/>
</a>
</g>
</g>
<!-- Node11 -->
<g id="Node000011" class="node">
<title>Node11</title>
<g id="a_Node000011"><a xlink:href="main_8cpp.html" target="_top" xlink:title=" ">
<polygon fill="white" stroke="#666666" points="830.5,-19.25 774.75,-19.25 774.75,0 830.5,0 830.5,-19.25"/>
<text text-anchor="middle" x="802.62" y="-5.75" font-family="Helvetica,sans-Serif" font-size="10.00">main.cpp</text>
</a>
</g>
</g>
<!-- Node10&#45;&gt;Node11 -->
<g id="edge16_Node000010_Node000011" class="edge">
<title>Node10&#45;&gt;Node11</title>
<g id="a_edge16_Node000010_Node000011"><a xlink:title=" ">
<path fill="none" stroke="#63b8ff" d="M727.95,-49.61C746.16,-40.11 769.53,-27.9 785.24,-19.7"/>
<polygon fill="#63b8ff" stroke="#63b8ff" points="726.51,-46.41 719.27,-54.14 729.75,-52.62 726.51,-46.41"/>
</a>
</g>
</g>
</g>
</svg>
