<?xml version="1.0" encoding="UTF-8" standalone="no"?>
<!DOCTYPE svg PUBLIC "-//W3C//DTD SVG 1.1//EN"
 "http://www.w3.org/Graphics/SVG/1.1/DTD/svg11.dtd">
<!-- Generated by graphviz version 12.2.1 (0)
 -->
<!-- Title: data_structures/Graph.h Pages: 1 -->
<svg width="666pt" height="138pt"
 viewBox="0.00 0.00 665.50 137.75" xmlns="http://www.w3.org/2000/svg" xmlns:xlink="http://www.w3.org/1999/xlink">
<g id="graph0" class="graph" transform="scale(1 1) rotate(0) translate(4 133.75)">
<title>data_structures/Graph.h</title>
<!-- Node1 -->
<g id="Node000001" class="node">
<title>Node1</title>
<g id="a_Node000001"><a xlink:title=" ">
<polygon fill="#999999" stroke="#666666" points="455.38,-129.75 334.38,-129.75 334.38,-110.5 455.38,-110.5 455.38,-129.75"/>
<text text-anchor="middle" x="394.88" y="-116.25" font-family="Helvetica,sans-Serif" font-size="10.00">data_structures/Graph.h</text>
</a>
</g>
</g>
<!-- Node2 -->
<g id="Node000002" class="node">
<title>Node2</title>
<g id="a_Node000002"><a xlink:href="create_graphs_8h.html" target="_top" xlink:title=" ">
<polygon fill="white" stroke="#666666" points="252.5,-74.5 99.25,-74.5 99.25,-55.25 252.5,-55.25 252.5,-74.5"/>
<text text-anchor="middle" x="175.88" y="-61" font-family="Helvetica,sans-Serif" font-size="10.00">data_structures/createGraphs.h</text>
</a>
</g>
</g>
<!-- Node1&#45;&gt;Node2 -->
<g id="edge1_Node000001_Node000002" class="edge">
<title>Node1&#45;&gt;Node2</title>
<g id="a_edge1_Node000001_Node000002"><a xlink:title=" ">
<path fill="none" stroke="#63b8ff" d="M346.59,-107.38C306.4,-97.61 250,-83.9 213.21,-74.95"/>
<polygon fill="#63b8ff" stroke="#63b8ff" points="345.71,-110.77 356.25,-109.73 347.36,-103.97 345.71,-110.77"/>
</a>
</g>
</g>
<!-- Node5 -->
<g id="Node000005" class="node">
<title>Node5</title>
<g id="a_Node000005"><a xlink:href="maxflow__tests_8cpp.html" target="_top" xlink:title=" ">
<polygon fill="white" stroke="#666666" points="657.5,-19.25 534.25,-19.25 534.25,0 657.5,0 657.5,-19.25"/>
<text text-anchor="middle" x="595.88" y="-5.75" font-family="Helvetica,sans-Serif" font-size="10.00">tests/maxflow_tests.cpp</text>
</a>
</g>
</g>
<!-- Node1&#45;&gt;Node5 -->
<g id="edge6_Node000001_Node000005" class="edge">
<title>Node1&#45;&gt;Node5</title>
<g id="a_edge6_Node000001_Node000005"><a xlink:title=" ">
<path fill="none" stroke="#63b8ff" d="M441.3,-106.87C465.62,-99.41 495.35,-88.57 519.88,-74.5 547.08,-58.89 574.02,-33.19 587.32,-19.64"/>
<polygon fill="#63b8ff" stroke="#63b8ff" points="440.59,-103.43 432,-109.64 442.58,-110.14 440.59,-103.43"/>
</a>
</g>
</g>
<!-- Node7 -->
<g id="Node000007" class="node">
<title>Node7</title>
<g id="a_Node000007"><a xlink:href="_assignment_logic_8h.html" target="_top" xlink:title="Logic for assigning reviewers to submissions based on Max Flow.">
<polygon fill="white" stroke="#666666" points="391,-74.5 270.75,-74.5 270.75,-55.25 391,-55.25 391,-74.5"/>
<text text-anchor="middle" x="330.88" y="-61" font-family="Helvetica,sans-Serif" font-size="10.00">utils/AssignmentLogic.h</text>
</a>
</g>
</g>
<!-- Node1&#45;&gt;Node7 -->
<g id="edge7_Node000001_Node000007" class="edge">
<title>Node1&#45;&gt;Node7</title>
<g id="a_edge7_Node000001_Node000007"><a xlink:title=" ">
<path fill="none" stroke="#63b8ff" d="M375.39,-102.91C364.28,-93.67 350.77,-82.43 341.57,-74.77"/>
<polygon fill="#63b8ff" stroke="#63b8ff" points="372.93,-105.42 382.85,-109.12 377.41,-100.04 372.93,-105.42"/>
</a>
</g>
</g>
<!-- Node8 -->
<g id="Node000008" class="node">
<title>Node8</title>
<g id="a_Node000008"><a xlink:href="_edmond_karp_8h.html" target="_top" xlink:title="Implementations of the Edmonds&#45;Karp algorithm for calculating maximum flow.">
<polygon fill="white" stroke="#666666" points="510.62,-74.5 409.12,-74.5 409.12,-55.25 510.62,-55.25 510.62,-74.5"/>
<text text-anchor="middle" x="459.88" y="-61" font-family="Helvetica,sans-Serif" font-size="10.00">utils/EdmondKarp.h</text>
</a>
</g>
</g>
<!-- Node1&#45;&gt;Node8 -->
<g id="edge10_Node000001_Node000008" class="edge">
<title>Node1&#45;&gt;Node8</title>
<g id="a_edge10_Node000001_Node000008"><a xlink:title=" ">
<path fill="none" stroke="#63b8ff" d="M414.66,-102.91C425.95,-93.67 439.67,-82.43 449.01,-74.77"/>
<polygon fill="#63b8ff" stroke="#63b8ff" points="412.59,-100.09 407.07,-109.13 417.03,-105.5 412.59,-100.09"/>
</a>
</g>
</g>
<!-- Node3 -->
<g id="Node000003" class="node">
<title>Node3</title>
<g id="a_Node000003"><a xlink:href="create_graphs_8cpp.html" target="_top" xlink:title=" ">
<polygon fill="white" stroke="#666666" points="163.75,-19.25 0,-19.25 0,0 163.75,0 163.75,-19.25"/>
<text text-anchor="middle" x="81.88" y="-5.75" font-family="Helvetica,sans-Serif" font-size="10.00">data_structures/createGraphs.cpp</text>
</a>
</g>
</g>
<!-- Node2&#45;&gt;Node3 -->
<g id="edge2_Node000002_Node000003" class="edge">
<title>Node2&#45;&gt;Node3</title>
<g id="a_edge2_Node000002_Node000003"><a xlink:title=" ">
<path fill="none" stroke="#63b8ff" d="M150.22,-49.34C133.51,-39.88 112.24,-27.83 97.9,-19.7"/>
<polygon fill="#63b8ff" stroke="#63b8ff" points="148.19,-52.21 158.61,-54.1 151.64,-46.12 148.19,-52.21"/>
</a>
</g>
</g>
<!-- Node4 -->
<g id="Node000004" class="node">
<title>Node4</title>
<g id="a_Node000004"><a xlink:href="main_8cpp.html" target="_top" xlink:title=" ">
<polygon fill="white" stroke="#666666" points="237.75,-19.25 182,-19.25 182,0 237.75,0 237.75,-19.25"/>
<text text-anchor="middle" x="209.88" y="-5.75" font-family="Helvetica,sans-Serif" font-size="10.00">main.cpp</text>
</a>
</g>
</g>
<!-- Node2&#45;&gt;Node4 -->
<g id="edge3_Node000002_Node000004" class="edge">
<title>Node2&#45;&gt;Node4</title>
<g id="a_edge3_Node000002_Node000004"><a xlink:title=" ">
<path fill="none" stroke="#63b8ff" d="M187.51,-45.65C193.12,-36.86 199.6,-26.71 204.14,-19.61"/>
<polygon fill="#63b8ff" stroke="#63b8ff" points="184.74,-43.49 182.3,-53.81 190.64,-47.26 184.74,-43.49"/>
</a>
</g>
</g>
<!-- Node2&#45;&gt;Node5 -->
<g id="edge4_Node000002_Node000005" class="edge">
<title>Node2&#45;&gt;Node5</title>
<g id="a_edge4_Node000002_Node000005"><a xlink:title=" ">
<path fill="none" stroke="#63b8ff" d="M258.75,-53.37C339.72,-43.1 461.14,-27.71 534.02,-18.47"/>
<polygon fill="#63b8ff" stroke="#63b8ff" points="258.58,-49.86 249.1,-54.59 259.46,-56.81 258.58,-49.86"/>
</a>
</g>
</g>
<!-- Node6 -->
<g id="Node000006" class="node">
<title>Node6</title>
<g id="a_Node000006"><a xlink:href="_assignment_logic_8cpp.html" target="_top" xlink:title=" ">
<polygon fill="white" stroke="#666666" points="386.25,-19.25 255.5,-19.25 255.5,0 386.25,0 386.25,-19.25"/>
<text text-anchor="middle" x="320.88" y="-5.75" font-family="Helvetica,sans-Serif" font-size="10.00">utils/AssignmentLogic.cpp</text>
</a>
</g>
</g>
<!-- Node2&#45;&gt;Node6 -->
<g id="edge5_Node000002_Node000006" class="edge">
<title>Node2&#45;&gt;Node6</title>
<g id="a_edge5_Node000002_Node000006"><a xlink:title=" ">
<path fill="none" stroke="#63b8ff" d="M211.14,-50.92C237.47,-41.25 272.79,-28.29 296.16,-19.7"/>
<polygon fill="#63b8ff" stroke="#63b8ff" points="210.07,-47.59 201.89,-54.32 212.49,-54.16 210.07,-47.59"/>
</a>
</g>
</g>
<!-- Node7&#45;&gt;Node4 -->
<g id="edge8_Node000007_Node000004" class="edge">
<title>Node7&#45;&gt;Node4</title>
<g id="a_edge8_Node000007_Node000004"><a xlink:title=" ">
<path fill="none" stroke="#63b8ff" d="M299.96,-50.27C278.16,-40.68 249.57,-28.09 230.5,-19.7"/>
<polygon fill="#63b8ff" stroke="#63b8ff" points="298.4,-53.41 308.96,-54.23 301.22,-47 298.4,-53.41"/>
</a>
</g>
</g>
<!-- Node7&#45;&gt;Node6 -->
<g id="edge9_Node000007_Node000006" class="edge">
<title>Node7&#45;&gt;Node6</title>
<g id="a_edge9_Node000007_Node000006"><a xlink:title=" ">
<path fill="none" stroke="#63b8ff" d="M327.13,-43.92C325.56,-35.55 323.81,-26.25 322.56,-19.61"/>
<polygon fill="#63b8ff" stroke="#63b8ff" points="323.66,-44.41 328.94,-53.59 330.54,-43.12 323.66,-44.41"/>
</a>
</g>
</g>
<!-- Node8&#45;&gt;Node4 -->
<g id="edge11_Node000008_Node000004" class="edge">
<title>Node8&#45;&gt;Node4</title>
<g id="a_edge11_Node000008_Node000004"><a xlink:title=" ">
<path fill="none" stroke="#63b8ff" d="M403.85,-52.5C360.85,-43.68 300.04,-31.01 246.88,-19.25 244.04,-18.62 241.09,-17.96 238.14,-17.28"/>
<polygon fill="#63b8ff" stroke="#63b8ff" points="402.95,-55.88 413.45,-54.46 404.36,-49.03 402.95,-55.88"/>
</a>
</g>
</g>
<!-- Node8&#45;&gt;Node5 -->
<g id="edge12_Node000008_Node000005" class="edge">
<title>Node8&#45;&gt;Node5</title>
<g id="a_edge12_Node000008_Node000005"><a xlink:title=" ">
<path fill="none" stroke="#63b8ff" d="M493.62,-50.66C518.24,-41.02 550.97,-28.21 572.69,-19.7"/>
<polygon fill="#63b8ff" stroke="#63b8ff" points="492.39,-47.38 484.35,-54.29 494.94,-53.9 492.39,-47.38"/>
</a>
</g>
</g>
<!-- Node8&#45;&gt;Node6 -->
<g id="edge13_Node000008_Node000006" class="edge">
<title>Node8&#45;&gt;Node6</title>
<g id="a_edge13_Node000008_Node000006"><a xlink:title=" ">
<path fill="none" stroke="#63b8ff" d="M425.73,-50.79C400.53,-41.14 366.87,-28.25 344.57,-19.7"/>
<polygon fill="#63b8ff" stroke="#63b8ff" points="424.29,-53.99 434.88,-54.3 426.8,-47.45 424.29,-53.99"/>
</a>
</g>
</g>
<!-- Node9 -->
<g id="Node000009" class="node">
<title>Node9</title>
<g id="a_Node000009"><a xlink:href="_edmond_karp_8cpp.html" target="_top" xlink:title=" ">
<polygon fill="white" stroke="#666666" points="515.88,-19.25 403.88,-19.25 403.88,0 515.88,0 515.88,-19.25"/>
<text text-anchor="middle" x="459.88" y="-5.75" font-family="Helvetica,sans-Serif" font-size="10.00">utils/EdmondKarp.cpp</text>
</a>
</g>
</g>
<!-- Node8&#45;&gt;Node9 -->
<g id="edge14_Node000008_Node000009" class="edge">
<title>Node8&#45;&gt;Node9</title>
<g id="a_edge14_Node000008_Node000009"><a xlink:title=" ">
<path fill="none" stroke="#63b8ff" d="M459.88,-43.63C459.88,-35.34 459.88,-26.17 459.88,-19.61"/>
<polygon fill="#63b8ff" stroke="#63b8ff" points="456.38,-43.57 459.88,-53.57 463.38,-43.57 456.38,-43.57"/>
</a>
</g>
</g>
</g>
</svg>
