<?xml version="1.0" encoding="UTF-8" standalone="no"?>
<!DOCTYPE svg PUBLIC "-//W3C//DTD SVG 1.1//EN"
 "http://www.w3.org/Graphics/SVG/1.1/DTD/svg11.dtd">
<!-- Generated by graphviz version 12.2.1 (0)
 -->
<!-- Title: data_structures/Graph.h Pages: 1 -->
<svg width="1072pt" height="193pt"
 viewBox="0.00 0.00 1071.62 193.00" xmlns="http://www.w3.org/2000/svg" xmlns:xlink="http://www.w3.org/1999/xlink">
<g id="graph0" class="graph" transform="scale(1 1) rotate(0) translate(4 189)">
<title>data_structures/Graph.h</title>
<!-- Node1 -->
<g id="Node000001" class="node">
<title>Node1</title>
<g id="a_Node000001"><a xlink:title=" ">
<polygon fill="#999999" stroke="#666666" points="666,-185 545,-185 545,-165.75 666,-165.75 666,-185"/>
<text text-anchor="middle" x="605.5" y="-171.5" font-family="Helvetica,sans-Serif" font-size="10.00">data_structures/Graph.h</text>
</a>
</g>
</g>
<!-- Node2 -->
<g id="Node000002" class="node">
<title>Node2</title>
<g id="a_Node000002"><a xlink:href="_edmond_karp_8h.html" target="_top" xlink:title="Implementation of the Edmonds&#45;Karp algorithm for calculating maximum flow.">
<polygon fill="white" stroke="#666666" points="321.75,-129.75 193.25,-129.75 193.25,-110.5 321.75,-110.5 321.75,-129.75"/>
<text text-anchor="middle" x="257.5" y="-116.25" font-family="Helvetica,sans-Serif" font-size="10.00">algorithms/EdmondKarp.h</text>
</a>
</g>
</g>
<!-- Node1&#45;&gt;Node2 -->
<g id="edge1_Node000001_Node000002" class="edge">
<title>Node1&#45;&gt;Node2</title>
<g id="a_edge1_Node000001_Node000002"><a xlink:title=" ">
<path fill="none" stroke="#63b8ff" d="M534.86,-163.57C470.77,-153.76 377.33,-139.46 316.97,-130.23"/>
<polygon fill="#63b8ff" stroke="#63b8ff" points="534.16,-167 544.58,-165.05 535.22,-160.08 534.16,-167"/>
</a>
</g>
</g>
<!-- Node5 -->
<g id="Node000005" class="node">
<title>Node5</title>
<g id="a_Node000005"><a xlink:href="maxflow__tests_8cpp.html" target="_top" xlink:title=" ">
<polygon fill="white" stroke="#666666" points="319.12,-74.5 195.88,-74.5 195.88,-55.25 319.12,-55.25 319.12,-74.5"/>
<text text-anchor="middle" x="257.5" y="-61" font-family="Helvetica,sans-Serif" font-size="10.00">tests/maxflow_tests.cpp</text>
</a>
</g>
</g>
<!-- Node1&#45;&gt;Node5 -->
<g id="edge21_Node000001_Node000005" class="edge">
<title>Node1&#45;&gt;Node5</title>
<g id="a_edge21_Node000001_Node000005"><a xlink:title=" ">
<path fill="none" stroke="#63b8ff" d="M558.35,-162.46C525.44,-153.92 480.59,-141.84 441.5,-129.75 383.84,-111.92 317.13,-87.9 282.02,-74.99"/>
<polygon fill="#63b8ff" stroke="#63b8ff" points="557.44,-165.84 568,-164.95 559.19,-159.06 557.44,-165.84"/>
</a>
</g>
</g>
<!-- Node7 -->
<g id="Node000007" class="node">
<title>Node7</title>
<g id="a_Node000007"><a xlink:href="_ford_fulkerson_8h.html" target="_top" xlink:title="Implementation of the Ford&#45;Fulkerson algorithm for calculating maximum flow.">
<polygon fill="white" stroke="#666666" points="775.75,-129.75 641.25,-129.75 641.25,-110.5 775.75,-110.5 775.75,-129.75"/>
<text text-anchor="middle" x="708.5" y="-116.25" font-family="Helvetica,sans-Serif" font-size="10.00">algorithms/FordFulkerson.h</text>
</a>
</g>
</g>
<!-- Node1&#45;&gt;Node7 -->
<g id="edge6_Node000001_Node000007" class="edge">
<title>Node1&#45;&gt;Node7</title>
<g id="a_edge6_Node000001_Node000007"><a xlink:title=" ">
<path fill="none" stroke="#63b8ff" d="M633.09,-160.11C651.48,-150.61 675.08,-138.4 690.94,-130.2"/>
<polygon fill="#63b8ff" stroke="#63b8ff" points="631.59,-156.95 624.32,-164.65 634.81,-163.16 631.59,-156.95"/>
</a>
</g>
</g>
<!-- Node9 -->
<g id="Node000009" class="node">
<title>Node9</title>
<g id="a_Node000009"><a xlink:href="_graph_builder_8h.html" target="_top" xlink:title=" ">
<polygon fill="white" stroke="#666666" points="600.62,-129.75 450.38,-129.75 450.38,-110.5 600.62,-110.5 600.62,-129.75"/>
<text text-anchor="middle" x="525.5" y="-116.25" font-family="Helvetica,sans-Serif" font-size="10.00">data_structures/GraphBuilder.h</text>
</a>
</g>
</g>
<!-- Node1&#45;&gt;Node9 -->
<g id="edge10_Node000001_Node000009" class="edge">
<title>Node1&#45;&gt;Node9</title>
<g id="a_edge10_Node000001_Node000009"><a xlink:title=" ">
<path fill="none" stroke="#63b8ff" d="M582.45,-159.03C568.43,-149.7 551,-138.1 539.14,-130.2"/>
<polygon fill="#63b8ff" stroke="#63b8ff" points="580.41,-161.88 590.67,-164.5 584.28,-156.05 580.41,-161.88"/>
</a>
</g>
</g>
<!-- Node11 -->
<g id="Node000011" class="node">
<title>Node11</title>
<g id="a_Node000011"><a xlink:href="_assignment_logic_8h.html" target="_top" xlink:title="Logic for assigning reviewers to submissions based on Max Flow.">
<polygon fill="white" stroke="#666666" points="958,-129.75 819,-129.75 819,-110.5 958,-110.5 958,-129.75"/>
<text text-anchor="middle" x="888.5" y="-116.25" font-family="Helvetica,sans-Serif" font-size="10.00">services/AssignmentLogic.h</text>
</a>
</g>
</g>
<!-- Node1&#45;&gt;Node11 -->
<g id="edge15_Node000001_Node000011" class="edge">
<title>Node1&#45;&gt;Node11</title>
<g id="a_edge15_Node000001_Node000011"><a xlink:title=" ">
<path fill="none" stroke="#63b8ff" d="M664.92,-163.19C717.05,-153.39 791.91,-139.3 840.37,-130.18"/>
<polygon fill="#63b8ff" stroke="#63b8ff" points="664.5,-159.71 655.32,-165 665.79,-166.59 664.5,-159.71"/>
</a>
</g>
</g>
<!-- Node12 -->
<g id="Node000012" class="node">
<title>Node12</title>
<g id="a_Node000012"><a xlink:href="_conference_app_8h.html" target="_top" xlink:title=" ">
<polygon fill="white" stroke="#666666" points="1063.62,-74.5 961.38,-74.5 961.38,-55.25 1063.62,-55.25 1063.62,-74.5"/>
<text text-anchor="middle" x="1012.5" y="-61" font-family="Helvetica,sans-Serif" font-size="10.00">ui/ConferenceApp.h</text>
</a>
</g>
</g>
<!-- Node1&#45;&gt;Node12 -->
<g id="edge22_Node000001_Node000012" class="edge">
<title>Node1&#45;&gt;Node12</title>
<g id="a_edge22_Node000001_Node000012"><a xlink:title=" ">
<path fill="none" stroke="#63b8ff" d="M677.74,-172.32C769.07,-168.57 920.1,-158.15 967.5,-129.75 989.14,-116.78 1003.09,-88.94 1009.1,-74.68"/>
<polygon fill="#63b8ff" stroke="#63b8ff" points="677.73,-168.82 667.88,-172.71 678.01,-175.82 677.73,-168.82"/>
</a>
</g>
</g>
<!-- Node3 -->
<g id="Node000003" class="node">
<title>Node3</title>
<g id="a_Node000003"><a xlink:href="_edmond_karp_8cpp.html" target="_top" xlink:title=" ">
<polygon fill="white" stroke="#666666" points="139,-74.5 0,-74.5 0,-55.25 139,-55.25 139,-74.5"/>
<text text-anchor="middle" x="69.5" y="-61" font-family="Helvetica,sans-Serif" font-size="10.00">algorithms/EdmondKarp.cpp</text>
</a>
</g>
</g>
<!-- Node2&#45;&gt;Node3 -->
<g id="edge2_Node000002_Node000003" class="edge">
<title>Node2&#45;&gt;Node3</title>
<g id="a_edge2_Node000002_Node000003"><a xlink:title=" ">
<path fill="none" stroke="#63b8ff" d="M214.94,-107.07C180.52,-97.32 132.8,-83.8 101.55,-74.95"/>
<polygon fill="#63b8ff" stroke="#63b8ff" points="213.58,-110.32 224.15,-109.68 215.48,-103.59 213.58,-110.32"/>
</a>
</g>
</g>
<!-- Node4 -->
<g id="Node000004" class="node">
<title>Node4</title>
<g id="a_Node000004"><a xlink:href="_assignment_logic_8cpp.html" target="_top" xlink:title=" ">
<polygon fill="white" stroke="#666666" points="703.25,-74.5 553.75,-74.5 553.75,-55.25 703.25,-55.25 703.25,-74.5"/>
<text text-anchor="middle" x="628.5" y="-61" font-family="Helvetica,sans-Serif" font-size="10.00">services/AssignmentLogic.cpp</text>
</a>
</g>
</g>
<!-- Node2&#45;&gt;Node4 -->
<g id="edge3_Node000002_Node000004" class="edge">
<title>Node2&#45;&gt;Node4</title>
<g id="a_edge3_Node000002_Node000004"><a xlink:title=" ">
<path fill="none" stroke="#63b8ff" d="M331.96,-108.44C400.31,-98.63 500.48,-84.25 565.1,-74.98"/>
<polygon fill="#63b8ff" stroke="#63b8ff" points="331.76,-104.93 322.35,-109.82 332.75,-111.86 331.76,-104.93"/>
</a>
</g>
</g>
<!-- Node2&#45;&gt;Node5 -->
<g id="edge4_Node000002_Node000005" class="edge">
<title>Node2&#45;&gt;Node5</title>
<g id="a_edge4_Node000002_Node000005"><a xlink:title=" ">
<path fill="none" stroke="#63b8ff" d="M257.5,-98.88C257.5,-90.59 257.5,-81.42 257.5,-74.86"/>
<polygon fill="#63b8ff" stroke="#63b8ff" points="254,-98.82 257.5,-108.82 261,-98.82 254,-98.82"/>
</a>
</g>
</g>
<!-- Node6 -->
<g id="Node000006" class="node">
<title>Node6</title>
<g id="a_Node000006"><a xlink:href="_conference_app_8cpp.html" target="_top" xlink:title=" ">
<polygon fill="white" stroke="#666666" points="787.88,-19.25 675.12,-19.25 675.12,0 787.88,0 787.88,-19.25"/>
<text text-anchor="middle" x="731.5" y="-5.75" font-family="Helvetica,sans-Serif" font-size="10.00">ui/ConferenceApp.cpp</text>
</a>
</g>
</g>
<!-- Node2&#45;&gt;Node6 -->
<g id="edge5_Node000002_Node000006" class="edge">
<title>Node2&#45;&gt;Node6</title>
<g id="a_edge5_Node000002_Node000006"><a xlink:title=" ">
<path fill="none" stroke="#63b8ff" d="M223.88,-105.47C198,-93.06 169.32,-73.9 186.5,-55.25 219.11,-19.86 541.92,-12.54 674.8,-11.02"/>
<polygon fill="#63b8ff" stroke="#63b8ff" points="222.36,-108.62 232.92,-109.57 225.26,-102.25 222.36,-108.62"/>
</a>
</g>
</g>
<!-- Node7&#45;&gt;Node4 -->
<g id="edge8_Node000007_Node000004" class="edge">
<title>Node7&#45;&gt;Node4</title>
<g id="a_edge8_Node000007_Node000004"><a xlink:title=" ">
<path fill="none" stroke="#63b8ff" d="M685.45,-103.78C671.43,-94.45 654,-82.85 642.14,-74.95"/>
<polygon fill="#63b8ff" stroke="#63b8ff" points="683.41,-106.63 693.67,-109.25 687.28,-100.8 683.41,-106.63"/>
</a>
</g>
</g>
<!-- Node7&#45;&gt;Node6 -->
<g id="edge9_Node000007_Node000006" class="edge">
<title>Node7&#45;&gt;Node6</title>
<g id="a_edge9_Node000007_Node000006"><a xlink:title=" ">
<path fill="none" stroke="#63b8ff" d="M712.74,-99.1C717.77,-75.4 725.91,-36.97 729.59,-19.63"/>
<polygon fill="#63b8ff" stroke="#63b8ff" points="709.35,-98.26 710.7,-108.77 716.19,-99.71 709.35,-98.26"/>
</a>
</g>
</g>
<!-- Node8 -->
<g id="Node000008" class="node">
<title>Node8</title>
<g id="a_Node000008"><a xlink:href="_ford_fulkerson_8cpp.html" target="_top" xlink:title=" ">
<polygon fill="white" stroke="#666666" points="905,-74.5 760,-74.5 760,-55.25 905,-55.25 905,-74.5"/>
<text text-anchor="middle" x="832.5" y="-61" font-family="Helvetica,sans-Serif" font-size="10.00">algorithms/FordFulkerson.cpp</text>
</a>
</g>
</g>
<!-- Node7&#45;&gt;Node8 -->
<g id="edge7_Node000007_Node000008" class="edge">
<title>Node7&#45;&gt;Node8</title>
<g id="a_edge7_Node000007_Node000008"><a xlink:title=" ">
<path fill="none" stroke="#63b8ff" d="M739.87,-105.65C762.25,-96.04 791.73,-83.38 811.36,-74.95"/>
<polygon fill="#63b8ff" stroke="#63b8ff" points="738.73,-102.33 730.93,-109.49 741.5,-108.76 738.73,-102.33"/>
</a>
</g>
</g>
<!-- Node9&#45;&gt;Node4 -->
<g id="edge12_Node000009_Node000004" class="edge">
<title>Node9&#45;&gt;Node4</title>
<g id="a_edge12_Node000009_Node000004"><a xlink:title=" ">
<path fill="none" stroke="#63b8ff" d="M553.09,-104.86C571.48,-95.36 595.08,-83.15 610.94,-74.95"/>
<polygon fill="#63b8ff" stroke="#63b8ff" points="551.59,-101.7 544.32,-109.4 554.81,-107.91 551.59,-101.7"/>
</a>
</g>
</g>
<!-- Node9&#45;&gt;Node5 -->
<g id="edge13_Node000009_Node000005" class="edge">
<title>Node9&#45;&gt;Node5</title>
<g id="a_edge13_Node000009_Node000005"><a xlink:title=" ">
<path fill="none" stroke="#63b8ff" d="M468.61,-107.82C419.27,-98.02 348.78,-84.01 303.08,-74.93"/>
<polygon fill="#63b8ff" stroke="#63b8ff" points="467.76,-111.22 478.25,-109.74 469.12,-104.35 467.76,-111.22"/>
</a>
</g>
</g>
<!-- Node9&#45;&gt;Node6 -->
<g id="edge14_Node000009_Node000006" class="edge">
<title>Node9&#45;&gt;Node6</title>
<g id="a_edge14_Node000009_Node000006"><a xlink:title=" ">
<path fill="none" stroke="#63b8ff" d="M526.34,-99.22C528.01,-85.04 532.54,-66.57 544.5,-55.25 563.16,-37.58 627.04,-25.02 674.99,-17.82"/>
<polygon fill="#63b8ff" stroke="#63b8ff" points="522.88,-98.54 525.61,-108.77 529.86,-99.07 522.88,-98.54"/>
</a>
</g>
</g>
<!-- Node10 -->
<g id="Node000010" class="node">
<title>Node10</title>
<g id="a_Node000010"><a xlink:href="_graph_builder_8cpp.html" target="_top" xlink:title=" ">
<polygon fill="white" stroke="#666666" points="497.88,-74.5 337.12,-74.5 337.12,-55.25 497.88,-55.25 497.88,-74.5"/>
<text text-anchor="middle" x="417.5" y="-61" font-family="Helvetica,sans-Serif" font-size="10.00">data_structures/GraphBuilder.cpp</text>
</a>
</g>
</g>
<!-- Node9&#45;&gt;Node10 -->
<g id="edge11_Node000009_Node000010" class="edge">
<title>Node9&#45;&gt;Node10</title>
<g id="a_edge11_Node000009_Node000010"><a xlink:title=" ">
<path fill="none" stroke="#63b8ff" d="M497.11,-105.12C477.75,-95.58 452.7,-83.23 435.91,-74.95"/>
<polygon fill="#63b8ff" stroke="#63b8ff" points="495.3,-108.14 505.82,-109.42 498.4,-101.86 495.3,-108.14"/>
</a>
</g>
</g>
<!-- Node11&#45;&gt;Node4 -->
<g id="edge16_Node000011_Node000004" class="edge">
<title>Node11&#45;&gt;Node4</title>
<g id="a_edge16_Node000011_Node000004"><a xlink:title=" ">
<path fill="none" stroke="#63b8ff" d="M833.01,-107.76C785.15,-97.96 716.96,-83.99 672.72,-74.93"/>
<polygon fill="#63b8ff" stroke="#63b8ff" points="832.12,-111.15 842.62,-109.73 833.52,-104.29 832.12,-111.15"/>
</a>
</g>
</g>
<!-- Node11&#45;&gt;Node6 -->
<g id="edge17_Node000011_Node000006" class="edge">
<title>Node11&#45;&gt;Node6</title>
<g id="a_edge17_Node000011_Node000006"><a xlink:title=" ">
<path fill="none" stroke="#63b8ff" d="M904.7,-101.56C915.29,-87.9 925.32,-69.02 914.5,-55.25 898.95,-35.45 835.88,-23.32 788.1,-16.8"/>
<polygon fill="#63b8ff" stroke="#63b8ff" points="902.28,-99 898.51,-108.9 907.63,-103.52 902.28,-99"/>
</a>
</g>
</g>
<!-- Node11&#45;&gt;Node12 -->
<g id="edge18_Node000011_Node000012" class="edge">
<title>Node11&#45;&gt;Node12</title>
<g id="a_edge18_Node000011_Node000012"><a xlink:title=" ">
<path fill="none" stroke="#63b8ff" d="M919.87,-105.65C942.25,-96.04 971.73,-83.38 991.36,-74.95"/>
<polygon fill="#63b8ff" stroke="#63b8ff" points="918.73,-102.33 910.93,-109.49 921.5,-108.76 918.73,-102.33"/>
</a>
</g>
</g>
<!-- Node12&#45;&gt;Node6 -->
<g id="edge20_Node000012_Node000006" class="edge">
<title>Node12&#45;&gt;Node6</title>
<g id="a_edge20_Node000012_Node000006"><a xlink:title=" ">
<path fill="none" stroke="#63b8ff" d="M953.5,-52.69C901.74,-42.89 827.41,-28.8 779.29,-19.68"/>
<polygon fill="#63b8ff" stroke="#63b8ff" points="952.55,-56.08 963.03,-54.5 953.85,-49.2 952.55,-56.08"/>
</a>
</g>
</g>
<!-- Node13 -->
<g id="Node000013" class="node">
<title>Node13</title>
<g id="a_Node000013"><a xlink:href="main_8cpp.html" target="_top" xlink:title=" ">
<polygon fill="white" stroke="#666666" points="1040.38,-19.25 984.62,-19.25 984.62,0 1040.38,0 1040.38,-19.25"/>
<text text-anchor="middle" x="1012.5" y="-5.75" font-family="Helvetica,sans-Serif" font-size="10.00">main.cpp</text>
</a>
</g>
</g>
<!-- Node12&#45;&gt;Node13 -->
<g id="edge19_Node000012_Node000013" class="edge">
<title>Node12&#45;&gt;Node13</title>
<g id="a_edge19_Node000012_Node000013"><a xlink:title=" ">
<path fill="none" stroke="#63b8ff" d="M1012.5,-43.63C1012.5,-35.34 1012.5,-26.17 1012.5,-19.61"/>
<polygon fill="#63b8ff" stroke="#63b8ff" points="1009,-43.57 1012.5,-53.57 1016,-43.57 1009,-43.57"/>
</a>
</g>
</g>
</g>
</svg>
