<?xml version="1.0" encoding="UTF-8" standalone="no"?>
<!DOCTYPE svg PUBLIC "-//W3C//DTD SVG 1.1//EN"
 "http://www.w3.org/Graphics/SVG/1.1/DTD/svg11.dtd">
<!-- Generated by graphviz version 12.2.1 (0)
 -->
<!-- Title: data_structures/GraphBuilder.h Pages: 1 -->
<svg width="608pt" height="83pt"
 viewBox="0.00 0.00 607.75 82.50" xmlns="http://www.w3.org/2000/svg" xmlns:xlink="http://www.w3.org/1999/xlink">
<g id="graph0" class="graph" transform="scale(1 1) rotate(0) translate(4 78.5)">
<title>data_structures/GraphBuilder.h</title>
<!-- Node1 -->
<g id="Node000001" class="node">
<title>Node1</title>
<g id="a_Node000001"><a xlink:title=" ">
<polygon fill="#999999" stroke="#666666" points="405.5,-74.5 255.25,-74.5 255.25,-55.25 405.5,-55.25 405.5,-74.5"/>
<text text-anchor="middle" x="330.38" y="-61" font-family="Helvetica,sans-Serif" font-size="10.00">data_structures/GraphBuilder.h</text>
</a>
</g>
</g>
<!-- Node2 -->
<g id="Node000002" class="node">
<title>Node2</title>
<g id="a_Node000002"><a xlink:href="_graph_builder_8cpp.html" target="_top" xlink:title=" ">
<polygon fill="white" stroke="#666666" points="160.75,-19.25 0,-19.25 0,0 160.75,0 160.75,-19.25"/>
<text text-anchor="middle" x="80.38" y="-5.75" font-family="Helvetica,sans-Serif" font-size="10.00">data_structures/GraphBuilder.cpp</text>
</a>
</g>
</g>
<!-- Node1&#45;&gt;Node2 -->
<g id="edge1_Node000001_Node000002" class="edge">
<title>Node1&#45;&gt;Node2</title>
<g id="a_edge1_Node000001_Node000002"><a xlink:title=" ">
<path fill="none" stroke="#63b8ff" d="M276.43,-52.38C230.45,-42.59 165.25,-28.7 122.89,-19.68"/>
<polygon fill="#63b8ff" stroke="#63b8ff" points="275.69,-55.81 286.2,-54.47 277.15,-48.96 275.69,-55.81"/>
</a>
</g>
</g>
<!-- Node3 -->
<g id="Node000003" class="node">
<title>Node3</title>
<g id="a_Node000003"><a xlink:href="_assignment_logic_8cpp.html" target="_top" xlink:title=" ">
<polygon fill="white" stroke="#666666" points="328.12,-19.25 178.62,-19.25 178.62,0 328.12,0 328.12,-19.25"/>
<text text-anchor="middle" x="253.38" y="-5.75" font-family="Helvetica,sans-Serif" font-size="10.00">services/AssignmentLogic.cpp</text>
</a>
</g>
</g>
<!-- Node1&#45;&gt;Node3 -->
<g id="edge2_Node000001_Node000003" class="edge">
<title>Node1&#45;&gt;Node3</title>
<g id="a_edge2_Node000001_Node000003"><a xlink:title=" ">
<path fill="none" stroke="#63b8ff" d="M308.19,-48.53C294.69,-39.2 277.92,-27.6 266.5,-19.7"/>
<polygon fill="#63b8ff" stroke="#63b8ff" points="305.85,-51.17 316.07,-53.98 309.83,-45.41 305.85,-51.17"/>
</a>
</g>
</g>
<!-- Node4 -->
<g id="Node000004" class="node">
<title>Node4</title>
<g id="a_Node000004"><a xlink:href="maxflow__tests_8cpp.html" target="_top" xlink:title=" ">
<polygon fill="white" stroke="#666666" points="469,-19.25 345.75,-19.25 345.75,0 469,0 469,-19.25"/>
<text text-anchor="middle" x="407.38" y="-5.75" font-family="Helvetica,sans-Serif" font-size="10.00">tests/maxflow_tests.cpp</text>
</a>
</g>
</g>
<!-- Node1&#45;&gt;Node4 -->
<g id="edge3_Node000001_Node000004" class="edge">
<title>Node1&#45;&gt;Node4</title>
<g id="a_edge3_Node000001_Node000004"><a xlink:title=" ">
<path fill="none" stroke="#63b8ff" d="M352.56,-48.53C366.06,-39.2 382.83,-27.6 394.25,-19.7"/>
<polygon fill="#63b8ff" stroke="#63b8ff" points="350.92,-45.41 344.68,-53.98 354.9,-51.17 350.92,-45.41"/>
</a>
</g>
</g>
<!-- Node5 -->
<g id="Node000005" class="node">
<title>Node5</title>
<g id="a_Node000005"><a xlink:href="_conference_app_8cpp.html" target="_top" xlink:title=" ">
<polygon fill="white" stroke="#666666" points="599.75,-19.25 487,-19.25 487,0 599.75,0 599.75,-19.25"/>
<text text-anchor="middle" x="543.38" y="-5.75" font-family="Helvetica,sans-Serif" font-size="10.00">ui/ConferenceApp.cpp</text>
</a>
</g>
</g>
<!-- Node1&#45;&gt;Node5 -->
<g id="edge4_Node000001_Node000005" class="edge">
<title>Node1&#45;&gt;Node5</title>
<g id="a_edge4_Node000001_Node000005"><a xlink:title=" ">
<path fill="none" stroke="#63b8ff" d="M377.59,-52.07C416.66,-42.3 471.35,-28.63 507.07,-19.7"/>
<polygon fill="#63b8ff" stroke="#63b8ff" points="376.83,-48.65 367.98,-54.47 378.53,-55.44 376.83,-48.65"/>
</a>
</g>
</g>
</g>
</svg>
