<?xml version="1.0" encoding="UTF-8" standalone="no"?>
<!DOCTYPE svg PUBLIC "-//W3C//DTD SVG 1.1//EN"
 "http://www.w3.org/Graphics/SVG/1.1/DTD/svg11.dtd">
<!-- Generated by graphviz version 12.2.1 (0)
 -->
<!-- Title: data_structures/GraphBuilder.cpp Pages: 1 -->
<svg width="695pt" height="193pt"
 viewBox="0.00 0.00 695.25 193.00" xmlns="http://www.w3.org/2000/svg" xmlns:xlink="http://www.w3.org/1999/xlink">
<g id="graph0" class="graph" transform="scale(1 1) rotate(0) translate(4 189)">
<title>data_structures/GraphBuilder.cpp</title>
<!-- Node1 -->
<g id="Node000001" class="node">
<title>Node1</title>
<g id="a_Node000001"><a xlink:title=" ">
<polygon fill="#999999" stroke="#666666" points="436.12,-185 275.38,-185 275.38,-165.75 436.12,-165.75 436.12,-185"/>
<text text-anchor="middle" x="355.75" y="-171.5" font-family="Helvetica,sans-Serif" font-size="10.00">data_structures/GraphBuilder.cpp</text>
</a>
</g>
</g>
<!-- Node2 -->
<g id="Node000002" class="node">
<title>Node2</title>
<g id="a_Node000002"><a xlink:title=" ">
<polygon fill="#e0e0e0" stroke="#999999" points="53.5,-19.25 0,-19.25 0,0 53.5,0 53.5,-19.25"/>
<text text-anchor="middle" x="26.75" y="-5.75" font-family="Helvetica,sans-Serif" font-size="10.00">iostream</text>
</a>
</g>
</g>
<!-- Node1&#45;&gt;Node2 -->
<g id="edge1_Node000001_Node000002" class="edge">
<title>Node1&#45;&gt;Node2</title>
<g id="a_edge1_Node000001_Node000002"><a xlink:title=" ">
<path fill="none" stroke="#63b8ff" d="M275.04,-168.37C234.04,-162.64 184.61,-151.49 144.75,-129.75 98.5,-104.53 58.67,-55.43 39.3,-28.82"/>
<polygon fill="#63b8ff" stroke="#63b8ff" points="42.21,-26.89 33.57,-20.76 36.51,-30.94 42.21,-26.89"/>
</a>
</g>
</g>
<!-- Node3 -->
<g id="Node000003" class="node">
<title>Node3</title>
<g id="a_Node000003"><a xlink:title=" ">
<polygon fill="#e0e0e0" stroke="#999999" points="550.25,-129.75 501.25,-129.75 501.25,-110.5 550.25,-110.5 550.25,-129.75"/>
<text text-anchor="middle" x="525.75" y="-116.25" font-family="Helvetica,sans-Serif" font-size="10.00">fstream</text>
</a>
</g>
</g>
<!-- Node1&#45;&gt;Node3 -->
<g id="edge2_Node000001_Node000003" class="edge">
<title>Node1&#45;&gt;Node3</title>
<g id="a_edge2_Node000001_Node000003"><a xlink:title=" ">
<path fill="none" stroke="#63b8ff" d="M384.59,-165.34C413.7,-156.22 458.71,-142.13 490.05,-132.31"/>
<polygon fill="#63b8ff" stroke="#63b8ff" points="490.98,-135.68 499.48,-129.35 488.89,-129 490.98,-135.68"/>
</a>
</g>
</g>
<!-- Node4 -->
<g id="Node000004" class="node">
<title>Node4</title>
<g id="a_Node000004"><a xlink:title=" ">
<polygon fill="#e0e0e0" stroke="#999999" points="468.75,-19.25 428.75,-19.25 428.75,0 468.75,0 468.75,-19.25"/>
<text text-anchor="middle" x="448.75" y="-5.75" font-family="Helvetica,sans-Serif" font-size="10.00">string</text>
</a>
</g>
</g>
<!-- Node1&#45;&gt;Node4 -->
<g id="edge3_Node000001_Node000004" class="edge">
<title>Node1&#45;&gt;Node4</title>
<g id="a_edge3_Node000001_Node000004"><a xlink:title=" ">
<path fill="none" stroke="#63b8ff" d="M346.7,-165.42C338.91,-157.04 328.24,-143.73 323.75,-129.75 313.62,-98.23 304.67,-82.31 323.75,-55.25 344.75,-25.45 387.53,-15.44 417.16,-12.14"/>
<polygon fill="#63b8ff" stroke="#63b8ff" points="417.4,-15.63 427.05,-11.26 416.78,-8.66 417.4,-15.63"/>
</a>
</g>
</g>
<!-- Node5 -->
<g id="Node000005" class="node">
<title>Node5</title>
<g id="a_Node000005"><a xlink:title=" ">
<polygon fill="#e0e0e0" stroke="#999999" points="127.62,-19.25 71.88,-19.25 71.88,0 127.62,0 127.62,-19.25"/>
<text text-anchor="middle" x="99.75" y="-5.75" font-family="Helvetica,sans-Serif" font-size="10.00">algorithm</text>
</a>
</g>
</g>
<!-- Node1&#45;&gt;Node5 -->
<g id="edge4_Node000001_Node000005" class="edge">
<title>Node1&#45;&gt;Node5</title>
<g id="a_edge4_Node000001_Node000005"><a xlink:title=" ">
<path fill="none" stroke="#63b8ff" d="M283.82,-165.28C226.78,-154.05 149.88,-129.2 107.75,-74.5 98.25,-62.16 96.72,-44.33 97.3,-30.64"/>
<polygon fill="#63b8ff" stroke="#63b8ff" points="100.76,-31.28 98.13,-21.02 93.78,-30.68 100.76,-31.28"/>
</a>
</g>
</g>
<!-- Node6 -->
<g id="Node000006" class="node">
<title>Node6</title>
<g id="a_Node000006"><a xlink:title=" ">
<polygon fill="#e0e0e0" stroke="#999999" points="597.5,-129.75 568,-129.75 568,-110.5 597.5,-110.5 597.5,-129.75"/>
<text text-anchor="middle" x="582.75" y="-116.25" font-family="Helvetica,sans-Serif" font-size="10.00">set</text>
</a>
</g>
</g>
<!-- Node1&#45;&gt;Node6 -->
<g id="edge5_Node000001_Node000006" class="edge">
<title>Node1&#45;&gt;Node6</title>
<g id="a_edge5_Node000001_Node000006"><a xlink:title=" ">
<path fill="none" stroke="#63b8ff" d="M406.98,-165.28C446.04,-157.88 501.28,-146.39 556.99,-130.27"/>
<polygon fill="#63b8ff" stroke="#63b8ff" points="557.71,-133.71 566.31,-127.53 555.73,-126.99 557.71,-133.71"/>
</a>
</g>
</g>
<!-- Node7 -->
<g id="Node000007" class="node">
<title>Node7</title>
<g id="a_Node000007"><a xlink:href="_graph_builder_8h.html" target="_top" xlink:title=" ">
<polygon fill="white" stroke="#666666" points="482.88,-129.75 332.62,-129.75 332.62,-110.5 482.88,-110.5 482.88,-129.75"/>
<text text-anchor="middle" x="407.75" y="-116.25" font-family="Helvetica,sans-Serif" font-size="10.00">data_structures/GraphBuilder.h</text>
</a>
</g>
</g>
<!-- Node1&#45;&gt;Node7 -->
<g id="edge6_Node000001_Node000007" class="edge">
<title>Node1&#45;&gt;Node7</title>
<g id="a_edge6_Node000001_Node000007"><a xlink:title=" ">
<path fill="none" stroke="#63b8ff" d="M364.34,-165.58C371.59,-158.15 382.2,-147.29 391.12,-138.16"/>
<polygon fill="#63b8ff" stroke="#63b8ff" points="393.44,-140.79 397.92,-131.19 388.43,-135.9 393.44,-140.79"/>
</a>
</g>
</g>
<!-- Node8 -->
<g id="Node000008" class="node">
<title>Node8</title>
<g id="a_Node000008"><a xlink:href="_graph_8h.html" target="_top" xlink:title=" ">
<polygon fill="white" stroke="#666666" points="238.25,-74.5 117.25,-74.5 117.25,-55.25 238.25,-55.25 238.25,-74.5"/>
<text text-anchor="middle" x="177.75" y="-61" font-family="Helvetica,sans-Serif" font-size="10.00">data_structures/Graph.h</text>
</a>
</g>
</g>
<!-- Node7&#45;&gt;Node8 -->
<g id="edge7_Node000007_Node000008" class="edge">
<title>Node7&#45;&gt;Node8</title>
<g id="a_edge7_Node000007_Node000008"><a xlink:title=" ">
<path fill="none" stroke="#63b8ff" d="M368.47,-110.03C329.69,-101.05 270.22,-87.28 228.01,-77.51"/>
<polygon fill="#63b8ff" stroke="#63b8ff" points="228.87,-74.12 218.34,-75.27 227.29,-80.94 228.87,-74.12"/>
</a>
</g>
</g>
<!-- Node9 -->
<g id="Node000009" class="node">
<title>Node9</title>
<g id="a_Node000009"><a xlink:title=" ">
<polygon fill="#e0e0e0" stroke="#999999" points="306.25,-19.25 263.25,-19.25 263.25,0 306.25,0 306.25,-19.25"/>
<text text-anchor="middle" x="284.75" y="-5.75" font-family="Helvetica,sans-Serif" font-size="10.00">vector</text>
</a>
</g>
</g>
<!-- Node7&#45;&gt;Node9 -->
<g id="edge19_Node000007_Node000009" class="edge">
<title>Node7&#45;&gt;Node9</title>
<g id="a_edge19_Node000007_Node000009"><a xlink:title=" ">
<path fill="none" stroke="#63b8ff" d="M382.77,-110.02C364.8,-102.55 340.82,-90.58 323.75,-74.5 310.3,-61.83 299.76,-43.53 293.05,-29.76"/>
<polygon fill="#63b8ff" stroke="#63b8ff" points="296.31,-28.49 288.96,-20.86 289.95,-31.41 296.31,-28.49"/>
</a>
</g>
</g>
<!-- Node12 -->
<g id="Node000012" class="node">
<title>Node12</title>
<g id="a_Node000012"><a xlink:href="_submission_8h.html" target="_top" xlink:title=" ">
<polygon fill="white" stroke="#666666" points="442.62,-74.5 332.88,-74.5 332.88,-55.25 442.62,-55.25 442.62,-74.5"/>
<text text-anchor="middle" x="387.75" y="-61" font-family="Helvetica,sans-Serif" font-size="10.00">models/Submission.h</text>
</a>
</g>
</g>
<!-- Node7&#45;&gt;Node12 -->
<g id="edge13_Node000007_Node000012" class="edge">
<title>Node7&#45;&gt;Node12</title>
<g id="a_edge13_Node000007_Node000012"><a xlink:title=" ">
<path fill="none" stroke="#63b8ff" d="M404.45,-110.33C401.92,-103.59 398.32,-94.02 395.12,-85.49"/>
<polygon fill="#63b8ff" stroke="#63b8ff" points="398.45,-84.41 391.66,-76.28 391.9,-86.87 398.45,-84.41"/>
</a>
</g>
</g>
<!-- Node13 -->
<g id="Node000013" class="node">
<title>Node13</title>
<g id="a_Node000013"><a xlink:href="_reviewer_8h.html" target="_top" xlink:title=" ">
<polygon fill="white" stroke="#666666" points="560.38,-74.5 461.12,-74.5 461.12,-55.25 560.38,-55.25 560.38,-74.5"/>
<text text-anchor="middle" x="510.75" y="-61" font-family="Helvetica,sans-Serif" font-size="10.00">models/Reviewer.h</text>
</a>
</g>
</g>
<!-- Node7&#45;&gt;Node13 -->
<g id="edge15_Node000007_Node000013" class="edge">
<title>Node7&#45;&gt;Node13</title>
<g id="a_edge15_Node000007_Node000013"><a xlink:title=" ">
<path fill="none" stroke="#63b8ff" d="M425.22,-110.09C441.06,-101.91 464.66,-89.71 483.06,-80.19"/>
<polygon fill="#63b8ff" stroke="#63b8ff" points="484.57,-83.35 491.85,-75.65 481.36,-77.13 484.57,-83.35"/>
</a>
</g>
</g>
<!-- Node14 -->
<g id="Node000014" class="node">
<title>Node14</title>
<g id="a_Node000014"><a xlink:href="_parameters_8h.html" target="_top" xlink:title=" ">
<polygon fill="white" stroke="#666666" points="687.25,-74.5 578.25,-74.5 578.25,-55.25 687.25,-55.25 687.25,-74.5"/>
<text text-anchor="middle" x="632.75" y="-61" font-family="Helvetica,sans-Serif" font-size="10.00">models/Parameters.h</text>
</a>
</g>
</g>
<!-- Node7&#45;&gt;Node14 -->
<g id="edge17_Node000007_Node000014" class="edge">
<title>Node7&#45;&gt;Node14</title>
<g id="a_edge17_Node000007_Node000014"><a xlink:title=" ">
<path fill="none" stroke="#63b8ff" d="M446.17,-110.03C484.03,-101.07 542.04,-87.34 583.32,-77.57"/>
<polygon fill="#63b8ff" stroke="#63b8ff" points="584.09,-80.99 593.01,-75.28 582.48,-74.18 584.09,-80.99"/>
</a>
</g>
</g>
<!-- Node8&#45;&gt;Node2 -->
<g id="edge8_Node000008_Node000002" class="edge">
<title>Node8&#45;&gt;Node2</title>
<g id="a_edge8_Node000008_Node000002"><a xlink:title=" ">
<path fill="none" stroke="#63b8ff" d="M152.13,-54.84C127.73,-46.24 90.74,-33.19 63.25,-23.5"/>
<polygon fill="#63b8ff" stroke="#63b8ff" points="64.51,-20.23 53.92,-20.21 62.18,-26.83 64.51,-20.23"/>
</a>
</g>
</g>
<!-- Node8&#45;&gt;Node5 -->
<g id="edge12_Node000008_Node000005" class="edge">
<title>Node8&#45;&gt;Node5</title>
<g id="a_edge12_Node000008_Node000005"><a xlink:title=" ">
<path fill="none" stroke="#63b8ff" d="M164.52,-54.84C152.98,-46.96 135.98,-35.36 122.3,-26.02"/>
<polygon fill="#63b8ff" stroke="#63b8ff" points="124.53,-23.3 114.3,-20.56 120.58,-29.08 124.53,-23.3"/>
</a>
</g>
</g>
<!-- Node8&#45;&gt;Node9 -->
<g id="edge9_Node000008_Node000009" class="edge">
<title>Node8&#45;&gt;Node9</title>
<g id="a_edge9_Node000008_Node000009"><a xlink:title=" ">
<path fill="none" stroke="#63b8ff" d="M195.9,-54.84C212.43,-46.62 237.09,-34.34 256.25,-24.81"/>
<polygon fill="#63b8ff" stroke="#63b8ff" points="257.76,-27.97 265.15,-20.38 254.64,-21.7 257.76,-27.97"/>
</a>
</g>
</g>
<!-- Node10 -->
<g id="Node000010" class="node">
<title>Node10</title>
<g id="a_Node000010"><a xlink:title=" ">
<polygon fill="#e0e0e0" stroke="#999999" points="187.88,-19.25 145.62,-19.25 145.62,0 187.88,0 187.88,-19.25"/>
<text text-anchor="middle" x="166.75" y="-5.75" font-family="Helvetica,sans-Serif" font-size="10.00">queue</text>
</a>
</g>
</g>
<!-- Node8&#45;&gt;Node10 -->
<g id="edge10_Node000008_Node000010" class="edge">
<title>Node8&#45;&gt;Node10</title>
<g id="a_edge10_Node000008_Node000010"><a xlink:title=" ">
<path fill="none" stroke="#63b8ff" d="M175.93,-55.08C174.57,-48.49 172.65,-39.21 170.92,-30.82"/>
<polygon fill="#63b8ff" stroke="#63b8ff" points="174.36,-30.18 168.91,-21.09 167.51,-31.59 174.36,-30.18"/>
</a>
</g>
</g>
<!-- Node11 -->
<g id="Node000011" class="node">
<title>Node11</title>
<g id="a_Node000011"><a xlink:title=" ">
<polygon fill="#e0e0e0" stroke="#999999" points="245.38,-19.25 206.12,-19.25 206.12,0 245.38,0 245.38,-19.25"/>
<text text-anchor="middle" x="225.75" y="-5.75" font-family="Helvetica,sans-Serif" font-size="10.00">limits</text>
</a>
</g>
</g>
<!-- Node8&#45;&gt;Node11 -->
<g id="edge11_Node000008_Node000011" class="edge">
<title>Node8&#45;&gt;Node11</title>
<g id="a_edge11_Node000008_Node000011"><a xlink:title=" ">
<path fill="none" stroke="#63b8ff" d="M185.68,-55.08C192.31,-47.73 201.97,-37.01 210.14,-27.94"/>
<polygon fill="#63b8ff" stroke="#63b8ff" points="212.54,-30.5 216.64,-20.73 207.34,-25.82 212.54,-30.5"/>
</a>
</g>
</g>
<!-- Node12&#45;&gt;Node4 -->
<g id="edge14_Node000012_Node000004" class="edge">
<title>Node12&#45;&gt;Node4</title>
<g id="a_edge14_Node000012_Node000004"><a xlink:title=" ">
<path fill="none" stroke="#63b8ff" d="M398.1,-54.84C406.83,-47.22 419.54,-36.12 430.05,-26.95"/>
<polygon fill="#63b8ff" stroke="#63b8ff" points="432.18,-29.73 437.41,-20.52 427.58,-24.46 432.18,-29.73"/>
</a>
</g>
</g>
<!-- Node13&#45;&gt;Node4 -->
<g id="edge16_Node000013_Node000004" class="edge">
<title>Node13&#45;&gt;Node4</title>
<g id="a_edge16_Node000013_Node000004"><a xlink:title=" ">
<path fill="none" stroke="#63b8ff" d="M500.23,-54.84C491.36,-47.22 478.44,-36.12 467.76,-26.95"/>
<polygon fill="#63b8ff" stroke="#63b8ff" points="470.13,-24.37 460.26,-20.51 465.57,-29.68 470.13,-24.37"/>
</a>
</g>
</g>
<!-- Node14&#45;&gt;Node4 -->
<g id="edge18_Node000014_Node000004" class="edge">
<title>Node14&#45;&gt;Node4</title>
<g id="a_edge18_Node000014_Node000004"><a xlink:title=" ">
<path fill="none" stroke="#63b8ff" d="M601.54,-54.84C567.55,-45 513.52,-29.37 479.65,-19.57"/>
<polygon fill="#63b8ff" stroke="#63b8ff" points="481.03,-16.32 470.45,-16.9 479.08,-23.05 481.03,-16.32"/>
</a>
</g>
</g>
</g>
</svg>
