<?xml version="1.0" encoding="UTF-8" standalone="no"?>
<!DOCTYPE svg PUBLIC "-//W3C//DTD SVG 1.1//EN"
 "http://www.w3.org/Graphics/SVG/1.1/DTD/svg11.dtd">
<!-- Generated by graphviz version 12.2.1 (0)
 -->
<!-- Title: data_structures/Graph.h Pages: 1 -->
<svg width="315pt" height="83pt"
 viewBox="0.00 0.00 314.62 82.50" xmlns="http://www.w3.org/2000/svg" xmlns:xlink="http://www.w3.org/1999/xlink">
<g id="graph0" class="graph" transform="scale(1 1) rotate(0) translate(4 78.5)">
<title>data_structures/Graph.h</title>
<!-- Node1 -->
<g id="Node000001" class="node">
<title>Node1</title>
<g id="a_Node000001"><a xlink:title=" ">
<polygon fill="#999999" stroke="#666666" points="214.25,-74.5 93.25,-74.5 93.25,-55.25 214.25,-55.25 214.25,-74.5"/>
<text text-anchor="middle" x="153.75" y="-61" font-family="Helvetica,sans-Serif" font-size="10.00">data_structures/Graph.h</text>
</a>
</g>
</g>
<!-- Node2 -->
<g id="Node000002" class="node">
<title>Node2</title>
<g id="a_Node000002"><a xlink:title=" ">
<polygon fill="#e0e0e0" stroke="#999999" points="53.5,-19.25 0,-19.25 0,0 53.5,0 53.5,-19.25"/>
<text text-anchor="middle" x="26.75" y="-5.75" font-family="Helvetica,sans-Serif" font-size="10.00">iostream</text>
</a>
</g>
</g>
<!-- Node1&#45;&gt;Node2 -->
<g id="edge1_Node000001_Node000002" class="edge">
<title>Node1&#45;&gt;Node2</title>
<g id="a_edge1_Node000001_Node000002"><a xlink:title=" ">
<path fill="none" stroke="#63b8ff" d="M132.21,-54.84C112.14,-46.43 81.95,-33.77 59,-24.15"/>
<polygon fill="#63b8ff" stroke="#63b8ff" points="60.37,-20.93 49.8,-20.29 57.66,-27.38 60.37,-20.93"/>
</a>
</g>
</g>
<!-- Node3 -->
<g id="Node000003" class="node">
<title>Node3</title>
<g id="a_Node000003"><a xlink:title=" ">
<polygon fill="#e0e0e0" stroke="#999999" points="114.25,-19.25 71.25,-19.25 71.25,0 114.25,0 114.25,-19.25"/>
<text text-anchor="middle" x="92.75" y="-5.75" font-family="Helvetica,sans-Serif" font-size="10.00">vector</text>
</a>
</g>
</g>
<!-- Node1&#45;&gt;Node3 -->
<g id="edge2_Node000001_Node000003" class="edge">
<title>Node1&#45;&gt;Node3</title>
<g id="a_edge2_Node000001_Node000003"><a xlink:title=" ">
<path fill="none" stroke="#63b8ff" d="M143.4,-54.84C134.67,-47.22 121.96,-36.12 111.45,-26.95"/>
<polygon fill="#63b8ff" stroke="#63b8ff" points="113.92,-24.46 104.09,-20.52 109.32,-29.73 113.92,-24.46"/>
</a>
</g>
</g>
<!-- Node4 -->
<g id="Node000004" class="node">
<title>Node4</title>
<g id="a_Node000004"><a xlink:title=" ">
<polygon fill="#e0e0e0" stroke="#999999" points="174.88,-19.25 132.62,-19.25 132.62,0 174.88,0 174.88,-19.25"/>
<text text-anchor="middle" x="153.75" y="-5.75" font-family="Helvetica,sans-Serif" font-size="10.00">queue</text>
</a>
</g>
</g>
<!-- Node1&#45;&gt;Node4 -->
<g id="edge3_Node000001_Node000004" class="edge">
<title>Node1&#45;&gt;Node4</title>
<g id="a_edge3_Node000001_Node000004"><a xlink:title=" ">
<path fill="none" stroke="#63b8ff" d="M153.75,-55.08C153.75,-48.57 153.75,-39.42 153.75,-31.12"/>
<polygon fill="#63b8ff" stroke="#63b8ff" points="157.25,-31.12 153.75,-21.12 150.25,-31.12 157.25,-31.12"/>
</a>
</g>
</g>
<!-- Node5 -->
<g id="Node000005" class="node">
<title>Node5</title>
<g id="a_Node000005"><a xlink:title=" ">
<polygon fill="#e0e0e0" stroke="#999999" points="232.38,-19.25 193.12,-19.25 193.12,0 232.38,0 232.38,-19.25"/>
<text text-anchor="middle" x="212.75" y="-5.75" font-family="Helvetica,sans-Serif" font-size="10.00">limits</text>
</a>
</g>
</g>
<!-- Node1&#45;&gt;Node5 -->
<g id="edge4_Node000001_Node000005" class="edge">
<title>Node1&#45;&gt;Node5</title>
<g id="a_edge4_Node000001_Node000005"><a xlink:title=" ">
<path fill="none" stroke="#63b8ff" d="M163.76,-54.84C172.12,-47.3 184.25,-36.35 194.35,-27.23"/>
<polygon fill="#63b8ff" stroke="#63b8ff" points="196.69,-29.84 201.77,-20.54 192,-24.64 196.69,-29.84"/>
</a>
</g>
</g>
<!-- Node6 -->
<g id="Node000006" class="node">
<title>Node6</title>
<g id="a_Node000006"><a xlink:title=" ">
<polygon fill="#e0e0e0" stroke="#999999" points="306.62,-19.25 250.88,-19.25 250.88,0 306.62,0 306.62,-19.25"/>
<text text-anchor="middle" x="278.75" y="-5.75" font-family="Helvetica,sans-Serif" font-size="10.00">algorithm</text>
</a>
</g>
</g>
<!-- Node1&#45;&gt;Node6 -->
<g id="edge5_Node000001_Node000006" class="edge">
<title>Node1&#45;&gt;Node6</title>
<g id="a_edge5_Node000001_Node000006"><a xlink:title=" ">
<path fill="none" stroke="#63b8ff" d="M174.95,-54.84C194.71,-46.43 224.42,-33.77 247,-24.15"/>
<polygon fill="#63b8ff" stroke="#63b8ff" points="248.22,-27.43 256.05,-20.3 245.48,-20.99 248.22,-27.43"/>
</a>
</g>
</g>
</g>
</svg>
