<?xml version="1.0" encoding="UTF-8" standalone="no"?>
<!DOCTYPE svg PUBLIC "-//W3C//DTD SVG 1.1//EN"
 "http://www.w3.org/Graphics/SVG/1.1/DTD/svg11.dtd">
<!-- Generated by graphviz version 12.2.1 (0)
 -->
<!-- Title: models/Parameters.h Pages: 1 -->
<svg width="819pt" height="193pt"
 viewBox="0.00 0.00 818.50 193.00" xmlns="http://www.w3.org/2000/svg" xmlns:xlink="http://www.w3.org/1999/xlink">
<g id="graph0" class="graph" transform="scale(1 1) rotate(0) translate(4 189)">
<title>models/Parameters.h</title>
<!-- Node1 -->
<g id="Node000001" class="node">
<title>Node1</title>
<g id="a_Node000001"><a xlink:title=" ">
<polygon fill="#999999" stroke="#666666" points="444.88,-185 335.88,-185 335.88,-165.75 444.88,-165.75 444.88,-185"/>
<text text-anchor="middle" x="390.38" y="-171.5" font-family="Helvetica,sans-Serif" font-size="10.00">models/Parameters.h</text>
</a>
</g>
</g>
<!-- Node2 -->
<g id="Node000002" class="node">
<title>Node2</title>
<g id="a_Node000002"><a xlink:href="_graph_builder_8h.html" target="_top" xlink:title=" ">
<polygon fill="white" stroke="#666666" points="465.5,-129.75 315.25,-129.75 315.25,-110.5 465.5,-110.5 465.5,-129.75"/>
<text text-anchor="middle" x="390.38" y="-116.25" font-family="Helvetica,sans-Serif" font-size="10.00">data_structures/GraphBuilder.h</text>
</a>
</g>
</g>
<!-- Node1&#45;&gt;Node2 -->
<g id="edge1_Node000001_Node000002" class="edge">
<title>Node1&#45;&gt;Node2</title>
<g id="a_edge1_Node000001_Node000002"><a xlink:title=" ">
<path fill="none" stroke="#63b8ff" d="M390.38,-154.13C390.38,-145.84 390.38,-136.67 390.38,-130.11"/>
<polygon fill="#63b8ff" stroke="#63b8ff" points="386.88,-154.07 390.38,-164.07 393.88,-154.07 386.88,-154.07"/>
</a>
</g>
</g>
<!-- Node5 -->
<g id="Node000005" class="node">
<title>Node5</title>
<g id="a_Node000005"><a xlink:href="maxflow__tests_8cpp.html" target="_top" xlink:title=" ">
<polygon fill="white" stroke="#666666" points="268,-74.5 144.75,-74.5 144.75,-55.25 268,-55.25 268,-74.5"/>
<text text-anchor="middle" x="206.38" y="-61" font-family="Helvetica,sans-Serif" font-size="10.00">tests/maxflow_tests.cpp</text>
</a>
</g>
</g>
<!-- Node1&#45;&gt;Node5 -->
<g id="edge15_Node000001_Node000005" class="edge">
<title>Node1&#45;&gt;Node5</title>
<g id="a_edge15_Node000001_Node000005"><a xlink:title=" ">
<path fill="none" stroke="#63b8ff" d="M362.37,-160.21C345.89,-151.7 324.74,-140.47 306.38,-129.75 274.71,-111.26 238.73,-87.6 219.75,-74.9"/>
<polygon fill="#63b8ff" stroke="#63b8ff" points="360.61,-163.24 371.1,-164.69 363.8,-157.01 360.61,-163.24"/>
</a>
</g>
</g>
<!-- Node7 -->
<g id="Node000007" class="node">
<title>Node7</title>
<g id="a_Node000007"><a xlink:href="_file_parser_8h.html" target="_top" xlink:title="Class definition for parsing input CSV files.">
<polygon fill="white" stroke="#666666" points="155.5,-129.75 77.25,-129.75 77.25,-110.5 155.5,-110.5 155.5,-129.75"/>
<text text-anchor="middle" x="116.38" y="-116.25" font-family="Helvetica,sans-Serif" font-size="10.00">io/FileParser.h</text>
</a>
</g>
</g>
<!-- Node1&#45;&gt;Node7 -->
<g id="edge6_Node000001_Node000007" class="edge">
<title>Node1&#45;&gt;Node7</title>
<g id="a_edge6_Node000001_Node000007"><a xlink:title=" ">
<path fill="none" stroke="#63b8ff" d="M332.31,-163.09C279.22,-152.77 202.13,-137.79 155.86,-128.8"/>
<polygon fill="#63b8ff" stroke="#63b8ff" points="331.61,-166.52 342.1,-164.99 332.95,-159.65 331.61,-166.52"/>
</a>
</g>
</g>
<!-- Node9 -->
<g id="Node000009" class="node">
<title>Node9</title>
<g id="a_Node000009"><a xlink:href="_assignment_logic_8h.html" target="_top" xlink:title="Logic for assigning reviewers to submissions based on Max Flow.">
<polygon fill="white" stroke="#666666" points="667.88,-129.75 528.88,-129.75 528.88,-110.5 667.88,-110.5 667.88,-129.75"/>
<text text-anchor="middle" x="598.38" y="-116.25" font-family="Helvetica,sans-Serif" font-size="10.00">services/AssignmentLogic.h</text>
</a>
</g>
</g>
<!-- Node1&#45;&gt;Node9 -->
<g id="edge9_Node000001_Node000009" class="edge">
<title>Node1&#45;&gt;Node9</title>
<g id="a_edge9_Node000001_Node000009"><a xlink:title=" ">
<path fill="none" stroke="#63b8ff" d="M436.48,-162.57C474.63,-152.8 528.04,-139.13 562.92,-130.2"/>
<polygon fill="#63b8ff" stroke="#63b8ff" points="435.95,-159.1 427.13,-164.97 437.68,-165.88 435.95,-159.1"/>
</a>
</g>
</g>
<!-- Node10 -->
<g id="Node000010" class="node">
<title>Node10</title>
<g id="a_Node000010"><a xlink:href="_conference_app_8h.html" target="_top" xlink:title=" ">
<polygon fill="white" stroke="#666666" points="810.5,-74.5 708.25,-74.5 708.25,-55.25 810.5,-55.25 810.5,-74.5"/>
<text text-anchor="middle" x="759.38" y="-61" font-family="Helvetica,sans-Serif" font-size="10.00">ui/ConferenceApp.h</text>
</a>
</g>
</g>
<!-- Node1&#45;&gt;Node10 -->
<g id="edge16_Node000001_Node000010" class="edge">
<title>Node1&#45;&gt;Node10</title>
<g id="a_edge16_Node000001_Node000010"><a xlink:title=" ">
<path fill="none" stroke="#63b8ff" d="M456.45,-173.46C516.36,-170.49 605.95,-160.62 677.38,-129.75 708.18,-116.43 737.51,-88.75 751.25,-74.6"/>
<polygon fill="#63b8ff" stroke="#63b8ff" points="456.6,-169.95 446.76,-173.89 456.91,-176.94 456.6,-169.95"/>
</a>
</g>
</g>
<!-- Node3 -->
<g id="Node000003" class="node">
<title>Node3</title>
<g id="a_Node000003"><a xlink:href="_graph_builder_8cpp.html" target="_top" xlink:title=" ">
<polygon fill="white" stroke="#666666" points="446.75,-74.5 286,-74.5 286,-55.25 446.75,-55.25 446.75,-74.5"/>
<text text-anchor="middle" x="366.38" y="-61" font-family="Helvetica,sans-Serif" font-size="10.00">data_structures/GraphBuilder.cpp</text>
</a>
</g>
</g>
<!-- Node2&#45;&gt;Node3 -->
<g id="edge2_Node000002_Node000003" class="edge">
<title>Node2&#45;&gt;Node3</title>
<g id="a_edge2_Node000002_Node000003"><a xlink:title=" ">
<path fill="none" stroke="#63b8ff" d="M381.77,-100.04C377.9,-91.46 373.52,-81.73 370.42,-74.86"/>
<polygon fill="#63b8ff" stroke="#63b8ff" points="378.49,-101.27 385.79,-108.95 384.87,-98.4 378.49,-101.27"/>
</a>
</g>
</g>
<!-- Node4 -->
<g id="Node000004" class="node">
<title>Node4</title>
<g id="a_Node000004"><a xlink:href="_assignment_logic_8cpp.html" target="_top" xlink:title=" ">
<polygon fill="white" stroke="#666666" points="652.12,-74.5 502.62,-74.5 502.62,-55.25 652.12,-55.25 652.12,-74.5"/>
<text text-anchor="middle" x="577.38" y="-61" font-family="Helvetica,sans-Serif" font-size="10.00">services/AssignmentLogic.cpp</text>
</a>
</g>
</g>
<!-- Node2&#45;&gt;Node4 -->
<g id="edge3_Node000002_Node000004" class="edge">
<title>Node2&#45;&gt;Node4</title>
<g id="a_edge3_Node000002_Node000004"><a xlink:title=" ">
<path fill="none" stroke="#63b8ff" d="M433.16,-106.94C467.36,-97.2 514.55,-83.77 545.5,-74.95"/>
<polygon fill="#63b8ff" stroke="#63b8ff" points="432.21,-103.57 423.55,-109.68 434.13,-110.3 432.21,-103.57"/>
</a>
</g>
</g>
<!-- Node2&#45;&gt;Node5 -->
<g id="edge4_Node000002_Node000005" class="edge">
<title>Node2&#45;&gt;Node5</title>
<g id="a_edge4_Node000002_Node000005"><a xlink:title=" ">
<path fill="none" stroke="#63b8ff" d="M348.28,-106.94C314.62,-97.2 268.19,-83.77 237.74,-74.95"/>
<polygon fill="#63b8ff" stroke="#63b8ff" points="347.13,-110.25 357.71,-109.67 349.08,-103.53 347.13,-110.25"/>
</a>
</g>
</g>
<!-- Node6 -->
<g id="Node000006" class="node">
<title>Node6</title>
<g id="a_Node000006"><a xlink:href="_conference_app_8cpp.html" target="_top" xlink:title=" ">
<polygon fill="white" stroke="#666666" points="622.75,-19.25 510,-19.25 510,0 622.75,0 622.75,-19.25"/>
<text text-anchor="middle" x="566.38" y="-5.75" font-family="Helvetica,sans-Serif" font-size="10.00">ui/ConferenceApp.cpp</text>
</a>
</g>
</g>
<!-- Node2&#45;&gt;Node6 -->
<g id="edge5_Node000002_Node000006" class="edge">
<title>Node2&#45;&gt;Node6</title>
<g id="a_edge5_Node000002_Node000006"><a xlink:title=" ">
<path fill="none" stroke="#63b8ff" d="M414.32,-104.22C435.17,-91.24 466.24,-71.95 493.38,-55.25 513.49,-42.87 536.78,-28.65 551.54,-19.66"/>
<polygon fill="#63b8ff" stroke="#63b8ff" points="412.61,-101.15 405.97,-109.41 416.31,-107.1 412.61,-101.15"/>
</a>
</g>
</g>
<!-- Node7&#45;&gt;Node6 -->
<g id="edge8_Node000007_Node000006" class="edge">
<title>Node7&#45;&gt;Node6</title>
<g id="a_edge8_Node000007_Node000006"><a xlink:title=" ">
<path fill="none" stroke="#63b8ff" d="M116.79,-98.74C118.25,-84.33 122.7,-65.76 135.38,-55.25 163.64,-31.81 399.5,-18.17 509.86,-13.01"/>
<polygon fill="#63b8ff" stroke="#63b8ff" points="113.31,-98.34 116.24,-108.52 120.3,-98.74 113.31,-98.34"/>
</a>
</g>
</g>
<!-- Node8 -->
<g id="Node000008" class="node">
<title>Node8</title>
<g id="a_Node000008"><a xlink:href="_file_parser_8cpp.html" target="_top" xlink:title=" ">
<polygon fill="white" stroke="#666666" points="88.75,-74.5 0,-74.5 0,-55.25 88.75,-55.25 88.75,-74.5"/>
<text text-anchor="middle" x="44.38" y="-61" font-family="Helvetica,sans-Serif" font-size="10.00">io/FileParser.cpp</text>
</a>
</g>
</g>
<!-- Node7&#45;&gt;Node8 -->
<g id="edge7_Node000007_Node000008" class="edge">
<title>Node7&#45;&gt;Node8</title>
<g id="a_edge7_Node000007_Node000008"><a xlink:title=" ">
<path fill="none" stroke="#63b8ff" d="M95.2,-103.47C82.56,-94.12 66.97,-82.58 56.41,-74.77"/>
<polygon fill="#63b8ff" stroke="#63b8ff" points="92.82,-106.06 102.94,-109.19 96.99,-100.43 92.82,-106.06"/>
</a>
</g>
</g>
<!-- Node9&#45;&gt;Node4 -->
<g id="edge10_Node000009_Node000004" class="edge">
<title>Node9&#45;&gt;Node4</title>
<g id="a_edge10_Node000009_Node000004"><a xlink:title=" ">
<path fill="none" stroke="#63b8ff" d="M590.73,-99.75C587.38,-91.24 583.6,-81.65 580.92,-74.86"/>
<polygon fill="#63b8ff" stroke="#63b8ff" points="587.43,-100.91 594.35,-108.92 593.94,-98.34 587.43,-100.91"/>
</a>
</g>
</g>
<!-- Node9&#45;&gt;Node6 -->
<g id="edge11_Node000009_Node000006" class="edge">
<title>Node9&#45;&gt;Node6</title>
<g id="a_edge11_Node000009_Node000006"><a xlink:title=" ">
<path fill="none" stroke="#63b8ff" d="M629.32,-104.91C650.86,-92.92 673.7,-74.66 661.38,-55.25 649.85,-37.1 628.76,-26.2 609.38,-19.72"/>
<polygon fill="#63b8ff" stroke="#63b8ff" points="627.92,-101.69 620.66,-109.41 631.15,-107.9 627.92,-101.69"/>
</a>
</g>
</g>
<!-- Node9&#45;&gt;Node10 -->
<g id="edge12_Node000009_Node000010" class="edge">
<title>Node9&#45;&gt;Node10</title>
<g id="a_edge12_Node000009_Node000010"><a xlink:title=" ">
<path fill="none" stroke="#63b8ff" d="M636.37,-106.56C665.71,-96.85 705.63,-83.65 731.93,-74.95"/>
<polygon fill="#63b8ff" stroke="#63b8ff" points="635.52,-103.15 627.12,-109.62 637.72,-109.8 635.52,-103.15"/>
</a>
</g>
</g>
<!-- Node10&#45;&gt;Node6 -->
<g id="edge14_Node000010_Node000006" class="edge">
<title>Node10&#45;&gt;Node6</title>
<g id="a_edge14_Node000010_Node000006"><a xlink:title=" ">
<path fill="none" stroke="#63b8ff" d="M715.68,-51.82C680.34,-42.07 631.36,-28.55 599.28,-19.7"/>
<polygon fill="#63b8ff" stroke="#63b8ff" points="714.61,-55.15 725.18,-54.44 716.47,-48.41 714.61,-55.15"/>
</a>
</g>
</g>
<!-- Node11 -->
<g id="Node000011" class="node">
<title>Node11</title>
<g id="a_Node000011"><a xlink:href="main_8cpp.html" target="_top" xlink:title=" ">
<polygon fill="white" stroke="#666666" points="787.25,-19.25 731.5,-19.25 731.5,0 787.25,0 787.25,-19.25"/>
<text text-anchor="middle" x="759.38" y="-5.75" font-family="Helvetica,sans-Serif" font-size="10.00">main.cpp</text>
</a>
</g>
</g>
<!-- Node10&#45;&gt;Node11 -->
<g id="edge13_Node000010_Node000011" class="edge">
<title>Node10&#45;&gt;Node11</title>
<g id="a_edge13_Node000010_Node000011"><a xlink:title=" ">
<path fill="none" stroke="#63b8ff" d="M759.38,-43.63C759.38,-35.34 759.38,-26.17 759.38,-19.61"/>
<polygon fill="#63b8ff" stroke="#63b8ff" points="755.88,-43.57 759.38,-53.57 762.88,-43.57 755.88,-43.57"/>
</a>
</g>
</g>
</g>
</svg>
