<?xml version="1.0" encoding="UTF-8" standalone="no"?>
<!DOCTYPE svg PUBLIC "-//W3C//DTD SVG 1.1//EN"
 "http://www.w3.org/Graphics/SVG/1.1/DTD/svg11.dtd">
<!-- Generated by graphviz version 12.2.1 (0)
 -->
<!-- Title: models/Parameters.h Pages: 1 -->
<svg width="789pt" height="138pt"
 viewBox="0.00 0.00 788.50 137.75" xmlns="http://www.w3.org/2000/svg" xmlns:xlink="http://www.w3.org/1999/xlink">
<g id="graph0" class="graph" transform="scale(1 1) rotate(0) translate(4 133.75)">
<title>models/Parameters.h</title>
<!-- Node1 -->
<g id="Node000001" class="node">
<title>Node1</title>
<g id="a_Node000001"><a xlink:title=" ">
<polygon fill="#999999" stroke="#666666" points="471.12,-129.75 362.12,-129.75 362.12,-110.5 471.12,-110.5 471.12,-129.75"/>
<text text-anchor="middle" x="416.62" y="-116.25" font-family="Helvetica,sans-Serif" font-size="10.00">models/Parameters.h</text>
</a>
</g>
</g>
<!-- Node2 -->
<g id="Node000002" class="node">
<title>Node2</title>
<g id="a_Node000002"><a xlink:href="_graph_builder_8h.html" target="_top" xlink:title=" ">
<polygon fill="white" stroke="#666666" points="328.75,-74.5 178.5,-74.5 178.5,-55.25 328.75,-55.25 328.75,-74.5"/>
<text text-anchor="middle" x="253.62" y="-61" font-family="Helvetica,sans-Serif" font-size="10.00">data_structures/GraphBuilder.h</text>
</a>
</g>
</g>
<!-- Node1&#45;&gt;Node2 -->
<g id="edge1_Node000001_Node000002" class="edge">
<title>Node1&#45;&gt;Node2</title>
<g id="a_edge1_Node000001_Node000002"><a xlink:title=" ">
<path fill="none" stroke="#63b8ff" d="M378.16,-106.56C348.45,-96.85 308.04,-83.65 281.41,-74.95"/>
<polygon fill="#63b8ff" stroke="#63b8ff" points="376.94,-109.84 387.54,-109.62 379.12,-103.19 376.94,-109.84"/>
</a>
</g>
</g>
<!-- Node5 -->
<g id="Node000005" class="node">
<title>Node5</title>
<g id="a_Node000005"><a xlink:href="maxflow__tests_8cpp.html" target="_top" xlink:title=" ">
<polygon fill="white" stroke="#666666" points="123.25,-19.25 0,-19.25 0,0 123.25,0 123.25,-19.25"/>
<text text-anchor="middle" x="61.62" y="-5.75" font-family="Helvetica,sans-Serif" font-size="10.00">tests/maxflow_tests.cpp</text>
</a>
</g>
</g>
<!-- Node1&#45;&gt;Node5 -->
<g id="edge12_Node000001_Node000005" class="edge">
<title>Node1&#45;&gt;Node5</title>
<g id="a_edge12_Node000001_Node000005"><a xlink:title=" ">
<path fill="none" stroke="#63b8ff" d="M350.53,-113.61C299.79,-107.87 228.66,-96.48 169.62,-74.5 132.06,-60.51 92.7,-33.64 73.53,-19.62"/>
<polygon fill="#63b8ff" stroke="#63b8ff" points="349.85,-117.06 360.17,-114.66 350.6,-110.1 349.85,-117.06"/>
</a>
</g>
</g>
<!-- Node7 -->
<g id="Node000007" class="node">
<title>Node7</title>
<g id="a_Node000007"><a xlink:href="_file_parser_8h.html" target="_top" xlink:title="Class definition for parsing input CSV files.">
<polygon fill="white" stroke="#666666" points="582.75,-74.5 504.5,-74.5 504.5,-55.25 582.75,-55.25 582.75,-74.5"/>
<text text-anchor="middle" x="543.62" y="-61" font-family="Helvetica,sans-Serif" font-size="10.00">io/FileParser.h</text>
</a>
</g>
</g>
<!-- Node1&#45;&gt;Node7 -->
<g id="edge6_Node000001_Node000007" class="edge">
<title>Node1&#45;&gt;Node7</title>
<g id="a_edge6_Node000001_Node000007"><a xlink:title=" ">
<path fill="none" stroke="#63b8ff" d="M448.76,-105.65C471.67,-96.04 501.87,-83.38 521.98,-74.95"/>
<polygon fill="#63b8ff" stroke="#63b8ff" points="447.43,-102.41 439.56,-109.51 450.14,-108.87 447.43,-102.41"/>
</a>
</g>
</g>
<!-- Node9 -->
<g id="Node000009" class="node">
<title>Node9</title>
<g id="a_Node000009"><a xlink:href="_assignment_logic_8h.html" target="_top" xlink:title="Logic for assigning reviewers to submissions based on Max Flow.">
<polygon fill="white" stroke="#666666" points="486.12,-74.5 347.12,-74.5 347.12,-55.25 486.12,-55.25 486.12,-74.5"/>
<text text-anchor="middle" x="416.62" y="-61" font-family="Helvetica,sans-Serif" font-size="10.00">services/AssignmentLogic.h</text>
</a>
</g>
</g>
<!-- Node1&#45;&gt;Node9 -->
<g id="edge9_Node000001_Node000009" class="edge">
<title>Node1&#45;&gt;Node9</title>
<g id="a_edge9_Node000001_Node000009"><a xlink:title=" ">
<path fill="none" stroke="#63b8ff" d="M416.62,-98.88C416.62,-90.59 416.62,-81.42 416.62,-74.86"/>
<polygon fill="#63b8ff" stroke="#63b8ff" points="413.13,-98.82 416.63,-108.82 420.13,-98.82 413.13,-98.82"/>
</a>
</g>
</g>
<!-- Node10 -->
<g id="Node000010" class="node">
<title>Node10</title>
<g id="a_Node000010"><a xlink:href="_conference_app_8h.html" target="_top" xlink:title=" ">
<polygon fill="white" stroke="#666666" points="702.75,-74.5 600.5,-74.5 600.5,-55.25 702.75,-55.25 702.75,-74.5"/>
<text text-anchor="middle" x="651.62" y="-61" font-family="Helvetica,sans-Serif" font-size="10.00">ui/ConferenceApp.h</text>
</a>
</g>
</g>
<!-- Node1&#45;&gt;Node10 -->
<g id="edge13_Node000001_Node000010" class="edge">
<title>Node1&#45;&gt;Node10</title>
<g id="a_edge13_Node000001_Node000010"><a xlink:title=" ">
<path fill="none" stroke="#63b8ff" d="M467.88,-107.51C511.08,-97.72 572.01,-83.92 611.66,-74.93"/>
<polygon fill="#63b8ff" stroke="#63b8ff" points="467.21,-104.07 458.23,-109.7 468.76,-110.9 467.21,-104.07"/>
</a>
</g>
</g>
<!-- Node3 -->
<g id="Node000003" class="node">
<title>Node3</title>
<g id="a_Node000003"><a xlink:href="_graph_builder_8cpp.html" target="_top" xlink:title=" ">
<polygon fill="white" stroke="#666666" points="302,-19.25 141.25,-19.25 141.25,0 302,0 302,-19.25"/>
<text text-anchor="middle" x="221.62" y="-5.75" font-family="Helvetica,sans-Serif" font-size="10.00">data_structures/GraphBuilder.cpp</text>
</a>
</g>
</g>
<!-- Node2&#45;&gt;Node3 -->
<g id="edge2_Node000002_Node000003" class="edge">
<title>Node2&#45;&gt;Node3</title>
<g id="a_edge2_Node000002_Node000003"><a xlink:title=" ">
<path fill="none" stroke="#63b8ff" d="M242.5,-45.37C237.26,-36.64 231.25,-26.64 227.02,-19.61"/>
<polygon fill="#63b8ff" stroke="#63b8ff" points="239.41,-47.02 247.56,-53.78 245.41,-43.41 239.41,-47.02"/>
</a>
</g>
</g>
<!-- Node4 -->
<g id="Node000004" class="node">
<title>Node4</title>
<g id="a_Node000004"><a xlink:href="_assignment_logic_8cpp.html" target="_top" xlink:title=" ">
<polygon fill="white" stroke="#666666" points="469.38,-19.25 319.88,-19.25 319.88,0 469.38,0 469.38,-19.25"/>
<text text-anchor="middle" x="394.62" y="-5.75" font-family="Helvetica,sans-Serif" font-size="10.00">services/AssignmentLogic.cpp</text>
</a>
</g>
</g>
<!-- Node2&#45;&gt;Node4 -->
<g id="edge3_Node000002_Node000004" class="edge">
<title>Node2&#45;&gt;Node4</title>
<g id="a_edge3_Node000002_Node000004"><a xlink:title=" ">
<path fill="none" stroke="#63b8ff" d="M288.26,-50.79C313.83,-41.14 347.96,-28.25 370.59,-19.7"/>
<polygon fill="#63b8ff" stroke="#63b8ff" points="287.08,-47.5 278.96,-54.31 289.55,-54.05 287.08,-47.5"/>
</a>
</g>
</g>
<!-- Node2&#45;&gt;Node5 -->
<g id="edge4_Node000002_Node000005" class="edge">
<title>Node2&#45;&gt;Node5</title>
<g id="a_edge4_Node000002_Node000005"><a xlink:title=" ">
<path fill="none" stroke="#63b8ff" d="M210.16,-51.82C175,-42.07 126.27,-28.55 94.35,-19.7"/>
<polygon fill="#63b8ff" stroke="#63b8ff" points="209.02,-55.14 219.6,-54.44 210.9,-48.39 209.02,-55.14"/>
</a>
</g>
</g>
<!-- Node6 -->
<g id="Node000006" class="node">
<title>Node6</title>
<g id="a_Node000006"><a xlink:href="_conference_app_8cpp.html" target="_top" xlink:title=" ">
<polygon fill="white" stroke="#666666" points="600,-19.25 487.25,-19.25 487.25,0 600,0 600,-19.25"/>
<text text-anchor="middle" x="543.62" y="-5.75" font-family="Helvetica,sans-Serif" font-size="10.00">ui/ConferenceApp.cpp</text>
</a>
</g>
</g>
<!-- Node2&#45;&gt;Node6 -->
<g id="edge5_Node000002_Node000006" class="edge">
<title>Node2&#45;&gt;Node6</title>
<g id="a_edge5_Node000002_Node000006"><a xlink:title=" ">
<path fill="none" stroke="#63b8ff" d="M314.18,-52.76C367.61,-42.94 444.54,-28.82 494.31,-19.68"/>
<polygon fill="#63b8ff" stroke="#63b8ff" points="313.84,-49.26 304.64,-54.51 315.1,-56.14 313.84,-49.26"/>
</a>
</g>
</g>
<!-- Node7&#45;&gt;Node6 -->
<g id="edge8_Node000007_Node000006" class="edge">
<title>Node7&#45;&gt;Node6</title>
<g id="a_edge8_Node000007_Node000006"><a xlink:title=" ">
<path fill="none" stroke="#63b8ff" d="M543.62,-43.63C543.62,-35.34 543.62,-26.17 543.62,-19.61"/>
<polygon fill="#63b8ff" stroke="#63b8ff" points="540.13,-43.57 543.63,-53.57 547.13,-43.57 540.13,-43.57"/>
</a>
</g>
</g>
<!-- Node8 -->
<g id="Node000008" class="node">
<title>Node8</title>
<g id="a_Node000008"><a xlink:href="_file_parser_8cpp.html" target="_top" xlink:title=" ">
<polygon fill="white" stroke="#666666" points="707,-19.25 618.25,-19.25 618.25,0 707,0 707,-19.25"/>
<text text-anchor="middle" x="662.62" y="-5.75" font-family="Helvetica,sans-Serif" font-size="10.00">io/FileParser.cpp</text>
</a>
</g>
</g>
<!-- Node7&#45;&gt;Node8 -->
<g id="edge7_Node000007_Node000008" class="edge">
<title>Node7&#45;&gt;Node8</title>
<g id="a_edge7_Node000007_Node000008"><a xlink:title=" ">
<path fill="none" stroke="#63b8ff" d="M574.03,-50.27C595.46,-40.68 623.59,-28.09 642.34,-19.7"/>
<polygon fill="#63b8ff" stroke="#63b8ff" points="572.89,-46.94 565.19,-54.22 575.75,-53.33 572.89,-46.94"/>
</a>
</g>
</g>
<!-- Node9&#45;&gt;Node4 -->
<g id="edge10_Node000009_Node000004" class="edge">
<title>Node9&#45;&gt;Node4</title>
<g id="a_edge10_Node000009_Node000004"><a xlink:title=" ">
<path fill="none" stroke="#63b8ff" d="M408.62,-44.5C405.1,-35.99 401.14,-26.4 398.34,-19.61"/>
<polygon fill="#63b8ff" stroke="#63b8ff" points="405.36,-45.78 412.41,-53.68 411.83,-43.1 405.36,-45.78"/>
</a>
</g>
</g>
<!-- Node9&#45;&gt;Node6 -->
<g id="edge11_Node000009_Node000006" class="edge">
<title>Node9&#45;&gt;Node6</title>
<g id="a_edge11_Node000009_Node000006"><a xlink:title=" ">
<path fill="none" stroke="#63b8ff" d="M448.76,-50.4C471.67,-40.79 501.87,-28.13 521.98,-19.7"/>
<polygon fill="#63b8ff" stroke="#63b8ff" points="447.43,-47.16 439.56,-54.26 450.14,-53.62 447.43,-47.16"/>
</a>
</g>
</g>
<!-- Node10&#45;&gt;Node6 -->
<g id="edge15_Node000010_Node000006" class="edge">
<title>Node10&#45;&gt;Node6</title>
<g id="a_edge15_Node000010_Node000006"><a xlink:title=" ">
<path fill="none" stroke="#63b8ff" d="M623.23,-49.87C603.88,-40.33 578.82,-27.98 562.04,-19.7"/>
<polygon fill="#63b8ff" stroke="#63b8ff" points="621.43,-52.89 631.95,-54.17 624.53,-46.61 621.43,-52.89"/>
</a>
</g>
</g>
<!-- Node11 -->
<g id="Node000011" class="node">
<title>Node11</title>
<g id="a_Node000011"><a xlink:href="main_8cpp.html" target="_top" xlink:title=" ">
<polygon fill="white" stroke="#666666" points="780.5,-19.25 724.75,-19.25 724.75,0 780.5,0 780.5,-19.25"/>
<text text-anchor="middle" x="752.62" y="-5.75" font-family="Helvetica,sans-Serif" font-size="10.00">main.cpp</text>
</a>
</g>
</g>
<!-- Node10&#45;&gt;Node11 -->
<g id="edge14_Node000010_Node000011" class="edge">
<title>Node10&#45;&gt;Node11</title>
<g id="a_edge14_Node000010_Node000011"><a xlink:title=" ">
<path fill="none" stroke="#63b8ff" d="M678.94,-49.48C696.92,-39.99 719.93,-27.86 735.41,-19.7"/>
<polygon fill="#63b8ff" stroke="#63b8ff" points="677.31,-46.38 670.1,-54.14 680.58,-52.57 677.31,-46.38"/>
</a>
</g>
</g>
</g>
</svg>
