<?xml version="1.0" encoding="UTF-8" standalone="no"?>
<!DOCTYPE svg PUBLIC "-//W3C//DTD SVG 1.1//EN"
 "http://www.w3.org/Graphics/SVG/1.1/DTD/svg11.dtd">
<!-- Generated by graphviz version 12.2.1 (0)
 -->
<!-- Title: utils/Parameters.h Pages: 1 -->
<svg width="653pt" height="138pt"
 viewBox="0.00 0.00 653.25 137.75" xmlns="http://www.w3.org/2000/svg" xmlns:xlink="http://www.w3.org/1999/xlink">
<g id="graph0" class="graph" transform="scale(1 1) rotate(0) translate(4 133.75)">
<title>utils/Parameters.h</title>
<!-- Node1 -->
<g id="Node000001" class="node">
<title>Node1</title>
<g id="a_Node000001"><a xlink:title=" ">
<polygon fill="#999999" stroke="#666666" points="447.38,-129.75 351.88,-129.75 351.88,-110.5 447.38,-110.5 447.38,-129.75"/>
<text text-anchor="middle" x="399.62" y="-116.25" font-family="Helvetica,sans-Serif" font-size="10.00">utils/Parameters.h</text>
</a>
</g>
</g>
<!-- Node2 -->
<g id="Node000002" class="node">
<title>Node2</title>
<g id="a_Node000002"><a xlink:href="create_graphs_8h.html" target="_top" xlink:title=" ">
<polygon fill="white" stroke="#666666" points="321.25,-74.5 168,-74.5 168,-55.25 321.25,-55.25 321.25,-74.5"/>
<text text-anchor="middle" x="244.62" y="-61" font-family="Helvetica,sans-Serif" font-size="10.00">data_structures/createGraphs.h</text>
</a>
</g>
</g>
<!-- Node1&#45;&gt;Node2 -->
<g id="edge1_Node000001_Node000002" class="edge">
<title>Node1&#45;&gt;Node2</title>
<g id="a_edge1_Node000001_Node000002"><a xlink:title=" ">
<path fill="none" stroke="#63b8ff" d="M362.68,-106.43C334.46,-96.74 296.25,-83.61 271.05,-74.95"/>
<polygon fill="#63b8ff" stroke="#63b8ff" points="361.31,-109.66 371.9,-109.6 363.58,-103.04 361.31,-109.66"/>
</a>
</g>
</g>
<!-- Node4 -->
<g id="Node000004" class="node">
<title>Node4</title>
<g id="a_Node000004"><a xlink:href="main_8cpp.html" target="_top" xlink:title=" ">
<polygon fill="white" stroke="#666666" points="527.5,-19.25 471.75,-19.25 471.75,0 527.5,0 527.5,-19.25"/>
<text text-anchor="middle" x="499.62" y="-5.75" font-family="Helvetica,sans-Serif" font-size="10.00">main.cpp</text>
</a>
</g>
</g>
<!-- Node1&#45;&gt;Node4 -->
<g id="edge6_Node000001_Node000004" class="edge">
<title>Node1&#45;&gt;Node4</title>
<g id="a_edge6_Node000001_Node000004"><a xlink:title=" ">
<path fill="none" stroke="#63b8ff" d="M429.01,-104.87C442.37,-97.28 457.63,-86.93 468.62,-74.5 483.49,-57.7 492.89,-32.5 497.08,-19.34"/>
<polygon fill="#63b8ff" stroke="#63b8ff" points="427.73,-101.59 420.58,-109.41 431.05,-107.75 427.73,-101.59"/>
</a>
</g>
</g>
<!-- Node5 -->
<g id="Node000005" class="node">
<title>Node5</title>
<g id="a_Node000005"><a xlink:href="maxflow__tests_8cpp.html" target="_top" xlink:title=" ">
<polygon fill="white" stroke="#666666" points="123.25,-19.25 0,-19.25 0,0 123.25,0 123.25,-19.25"/>
<text text-anchor="middle" x="61.62" y="-5.75" font-family="Helvetica,sans-Serif" font-size="10.00">tests/maxflow_tests.cpp</text>
</a>
</g>
</g>
<!-- Node1&#45;&gt;Node5 -->
<g id="edge7_Node000001_Node000005" class="edge">
<title>Node1&#45;&gt;Node5</title>
<g id="a_edge7_Node000001_Node000005"><a xlink:title=" ">
<path fill="none" stroke="#63b8ff" d="M340.17,-114.75C290.23,-109.53 217.77,-98.31 158.62,-74.5 124.21,-60.65 89.16,-33.71 72.16,-19.65"/>
<polygon fill="#63b8ff" stroke="#63b8ff" points="339.61,-118.21 349.9,-115.71 340.3,-111.25 339.61,-118.21"/>
</a>
</g>
</g>
<!-- Node7 -->
<g id="Node000007" class="node">
<title>Node7</title>
<g id="a_Node000007"><a xlink:href="_assignment_logic_8h.html" target="_top" xlink:title="Logic for assigning reviewers to submissions based on Max Flow.">
<polygon fill="white" stroke="#666666" points="459.75,-74.5 339.5,-74.5 339.5,-55.25 459.75,-55.25 459.75,-74.5"/>
<text text-anchor="middle" x="399.62" y="-61" font-family="Helvetica,sans-Serif" font-size="10.00">utils/AssignmentLogic.h</text>
</a>
</g>
</g>
<!-- Node1&#45;&gt;Node7 -->
<g id="edge8_Node000001_Node000007" class="edge">
<title>Node1&#45;&gt;Node7</title>
<g id="a_edge8_Node000001_Node000007"><a xlink:title=" ">
<path fill="none" stroke="#63b8ff" d="M399.62,-98.88C399.62,-90.59 399.62,-81.42 399.62,-74.86"/>
<polygon fill="#63b8ff" stroke="#63b8ff" points="396.13,-98.82 399.63,-108.82 403.13,-98.82 396.13,-98.82"/>
</a>
</g>
</g>
<!-- Node8 -->
<g id="Node000008" class="node">
<title>Node8</title>
<g id="a_Node000008"><a xlink:href="_file_parser_8h.html" target="_top" xlink:title="Class definition for parsing input CSV files.">
<polygon fill="white" stroke="#666666" points="604,-74.5 515.25,-74.5 515.25,-55.25 604,-55.25 604,-74.5"/>
<text text-anchor="middle" x="559.62" y="-61" font-family="Helvetica,sans-Serif" font-size="10.00">utils/FileParser.h</text>
</a>
</g>
</g>
<!-- Node1&#45;&gt;Node8 -->
<g id="edge11_Node000001_Node000008" class="edge">
<title>Node1&#45;&gt;Node8</title>
<g id="a_edge11_Node000001_Node000008"><a xlink:title=" ">
<path fill="none" stroke="#63b8ff" d="M437.38,-106.56C466.55,-96.85 506.21,-83.65 532.35,-74.95"/>
<polygon fill="#63b8ff" stroke="#63b8ff" points="436.59,-103.14 428.2,-109.61 438.8,-109.78 436.59,-103.14"/>
</a>
</g>
</g>
<!-- Node3 -->
<g id="Node000003" class="node">
<title>Node3</title>
<g id="a_Node000003"><a xlink:href="create_graphs_8cpp.html" target="_top" xlink:title=" ">
<polygon fill="white" stroke="#666666" points="305.5,-19.25 141.75,-19.25 141.75,0 305.5,0 305.5,-19.25"/>
<text text-anchor="middle" x="223.62" y="-5.75" font-family="Helvetica,sans-Serif" font-size="10.00">data_structures/createGraphs.cpp</text>
</a>
</g>
</g>
<!-- Node2&#45;&gt;Node3 -->
<g id="edge2_Node000002_Node000003" class="edge">
<title>Node2&#45;&gt;Node3</title>
<g id="a_edge2_Node000002_Node000003"><a xlink:title=" ">
<path fill="none" stroke="#63b8ff" d="M236.98,-44.5C233.63,-35.99 229.85,-26.4 227.17,-19.61"/>
<polygon fill="#63b8ff" stroke="#63b8ff" points="233.68,-45.66 240.6,-53.67 240.19,-43.09 233.68,-45.66"/>
</a>
</g>
</g>
<!-- Node2&#45;&gt;Node4 -->
<g id="edge3_Node000002_Node000004" class="edge">
<title>Node2&#45;&gt;Node4</title>
<g id="a_edge3_Node000002_Node000004"><a xlink:title=" ">
<path fill="none" stroke="#63b8ff" d="M301.7,-52.63C345.73,-43.85 408.12,-31.18 462.62,-19.25 465.46,-18.63 468.41,-17.97 471.36,-17.3"/>
<polygon fill="#63b8ff" stroke="#63b8ff" points="301.24,-49.15 292.12,-54.54 302.61,-56.02 301.24,-49.15"/>
</a>
</g>
</g>
<!-- Node2&#45;&gt;Node5 -->
<g id="edge4_Node000002_Node000005" class="edge">
<title>Node2&#45;&gt;Node5</title>
<g id="a_edge4_Node000002_Node000005"><a xlink:title=" ">
<path fill="none" stroke="#63b8ff" d="M202.76,-51.69C169.29,-41.95 123.11,-28.52 92.82,-19.7"/>
<polygon fill="#63b8ff" stroke="#63b8ff" points="201.55,-54.99 212.13,-54.42 203.5,-48.26 201.55,-54.99"/>
</a>
</g>
</g>
<!-- Node6 -->
<g id="Node000006" class="node">
<title>Node6</title>
<g id="a_Node000006"><a xlink:href="_assignment_logic_8cpp.html" target="_top" xlink:title=" ">
<polygon fill="white" stroke="#666666" points="454,-19.25 323.25,-19.25 323.25,0 454,0 454,-19.25"/>
<text text-anchor="middle" x="388.62" y="-5.75" font-family="Helvetica,sans-Serif" font-size="10.00">utils/AssignmentLogic.cpp</text>
</a>
</g>
</g>
<!-- Node2&#45;&gt;Node6 -->
<g id="edge5_Node000002_Node000006" class="edge">
<title>Node2&#45;&gt;Node6</title>
<g id="a_edge5_Node000002_Node000006"><a xlink:title=" ">
<path fill="none" stroke="#63b8ff" d="M279.65,-50.92C305.8,-41.25 340.87,-28.29 364.08,-19.7"/>
<polygon fill="#63b8ff" stroke="#63b8ff" points="278.64,-47.57 270.47,-54.32 281.07,-54.13 278.64,-47.57"/>
</a>
</g>
</g>
<!-- Node7&#45;&gt;Node4 -->
<g id="edge9_Node000007_Node000004" class="edge">
<title>Node7&#45;&gt;Node4</title>
<g id="a_edge9_Node000007_Node000004"><a xlink:title=" ">
<path fill="none" stroke="#63b8ff" d="M426.67,-49.48C444.48,-39.99 467.25,-27.86 482.58,-19.7"/>
<polygon fill="#63b8ff" stroke="#63b8ff" points="425.11,-46.34 417.92,-54.13 428.4,-52.52 425.11,-46.34"/>
</a>
</g>
</g>
<!-- Node7&#45;&gt;Node6 -->
<g id="edge10_Node000007_Node000006" class="edge">
<title>Node7&#45;&gt;Node6</title>
<g id="a_edge10_Node000007_Node000006"><a xlink:title=" ">
<path fill="none" stroke="#63b8ff" d="M395.5,-43.92C393.77,-35.55 391.85,-26.25 390.48,-19.61"/>
<polygon fill="#63b8ff" stroke="#63b8ff" points="392.05,-44.51 397.5,-53.6 398.91,-43.1 392.05,-44.51"/>
</a>
</g>
</g>
<!-- Node8&#45;&gt;Node4 -->
<g id="edge12_Node000008_Node000004" class="edge">
<title>Node8&#45;&gt;Node4</title>
<g id="a_edge12_Node000008_Node000004"><a xlink:title=" ">
<path fill="none" stroke="#63b8ff" d="M541.05,-47.39C530.69,-38.19 518.19,-27.1 509.65,-19.52"/>
<polygon fill="#63b8ff" stroke="#63b8ff" points="538.51,-49.82 548.31,-53.84 543.16,-44.58 538.51,-49.82"/>
</a>
</g>
</g>
<!-- Node9 -->
<g id="Node000009" class="node">
<title>Node9</title>
<g id="a_Node000009"><a xlink:href="_file_parser_8cpp.html" target="_top" xlink:title=" ">
<polygon fill="white" stroke="#666666" points="645.25,-19.25 546,-19.25 546,0 645.25,0 645.25,-19.25"/>
<text text-anchor="middle" x="595.62" y="-5.75" font-family="Helvetica,sans-Serif" font-size="10.00">utils/FileParser.cpp</text>
</a>
</g>
</g>
<!-- Node8&#45;&gt;Node9 -->
<g id="edge13_Node000008_Node000009" class="edge">
<title>Node8&#45;&gt;Node9</title>
<g id="a_edge13_Node000008_Node000009"><a xlink:title=" ">
<path fill="none" stroke="#63b8ff" d="M571.94,-45.65C577.89,-36.86 584.75,-26.71 589.55,-19.61"/>
<polygon fill="#63b8ff" stroke="#63b8ff" points="569.12,-43.58 566.42,-53.83 574.92,-47.5 569.12,-43.58"/>
</a>
</g>
</g>
</g>
</svg>
