<?xml version="1.0" encoding="UTF-8" standalone="no"?>
<!DOCTYPE svg PUBLIC "-//W3C//DTD SVG 1.1//EN"
 "http://www.w3.org/Graphics/SVG/1.1/DTD/svg11.dtd">
<!-- Generated by graphviz version 12.2.1 (0)
 -->
<!-- Title: models/Reviewer.cpp Pages: 1 -->
<svg width="178pt" height="138pt"
 viewBox="0.00 0.00 178.38 137.75" xmlns="http://www.w3.org/2000/svg" xmlns:xlink="http://www.w3.org/1999/xlink">
<g id="graph0" class="graph" transform="scale(1 1) rotate(0) translate(4 133.75)">
<title>models/Reviewer.cpp</title>
<!-- Node1 -->
<g id="Node000001" class="node">
<title>Node1</title>
<g id="a_Node000001"><a xlink:title=" ">
<polygon fill="#999999" stroke="#666666" points="151.5,-129.75 41.75,-129.75 41.75,-110.5 151.5,-110.5 151.5,-129.75"/>
<text text-anchor="middle" x="96.62" y="-116.25" font-family="Helvetica,sans-Serif" font-size="10.00">models/Reviewer.cpp</text>
</a>
</g>
</g>
<!-- Node2 -->
<g id="Node000002" class="node">
<title>Node2</title>
<g id="a_Node000002"><a xlink:href="_reviewer_8h.html" target="_top" xlink:title=" ">
<polygon fill="white" stroke="#666666" points="99.25,-74.5 0,-74.5 0,-55.25 99.25,-55.25 99.25,-74.5"/>
<text text-anchor="middle" x="49.62" y="-61" font-family="Helvetica,sans-Serif" font-size="10.00">models/Reviewer.h</text>
</a>
</g>
</g>
<!-- Node1&#45;&gt;Node2 -->
<g id="edge1_Node000001_Node000002" class="edge">
<title>Node1&#45;&gt;Node2</title>
<g id="a_edge1_Node000001_Node000002"><a xlink:title=" ">
<path fill="none" stroke="#63b8ff" d="M88.86,-110.33C82.44,-103.05 73.11,-92.48 65.16,-83.48"/>
<polygon fill="#63b8ff" stroke="#63b8ff" points="67.8,-81.18 58.56,-75.99 62.55,-85.81 67.8,-81.18"/>
</a>
</g>
</g>
<!-- Node4 -->
<g id="Node000004" class="node">
<title>Node4</title>
<g id="a_Node000004"><a xlink:title=" ">
<polygon fill="#e0e0e0" stroke="#999999" points="170.38,-74.5 116.88,-74.5 116.88,-55.25 170.38,-55.25 170.38,-74.5"/>
<text text-anchor="middle" x="143.62" y="-61" font-family="Helvetica,sans-Serif" font-size="10.00">iostream</text>
</a>
</g>
</g>
<!-- Node1&#45;&gt;Node4 -->
<g id="edge3_Node000001_Node000004" class="edge">
<title>Node1&#45;&gt;Node4</title>
<g id="a_edge3_Node000001_Node000004"><a xlink:title=" ">
<path fill="none" stroke="#63b8ff" d="M104.39,-110.33C110.81,-103.05 120.14,-92.48 128.09,-83.48"/>
<polygon fill="#63b8ff" stroke="#63b8ff" points="130.7,-85.81 134.69,-75.99 125.45,-81.18 130.7,-85.81"/>
</a>
</g>
</g>
<!-- Node3 -->
<g id="Node000003" class="node">
<title>Node3</title>
<g id="a_Node000003"><a xlink:title=" ">
<polygon fill="#e0e0e0" stroke="#999999" points="69.62,-19.25 29.62,-19.25 29.62,0 69.62,0 69.62,-19.25"/>
<text text-anchor="middle" x="49.62" y="-5.75" font-family="Helvetica,sans-Serif" font-size="10.00">string</text>
</a>
</g>
</g>
<!-- Node2&#45;&gt;Node3 -->
<g id="edge2_Node000002_Node000003" class="edge">
<title>Node2&#45;&gt;Node3</title>
<g id="a_edge2_Node000002_Node000003"><a xlink:title=" ">
<path fill="none" stroke="#63b8ff" d="M49.62,-55.08C49.62,-48.57 49.62,-39.42 49.62,-31.12"/>
<polygon fill="#63b8ff" stroke="#63b8ff" points="53.13,-31.12 49.63,-21.12 46.13,-31.12 53.13,-31.12"/>
</a>
</g>
</g>
</g>
</svg>
