<?xml version="1.0" encoding="UTF-8" standalone="no"?>
<!DOCTYPE svg PUBLIC "-//W3C//DTD SVG 1.1//EN"
 "http://www.w3.org/Graphics/SVG/1.1/DTD/svg11.dtd">
<!-- Generated by graphviz version 12.2.1 (0)
 -->
<!-- Title: utils/Reviewer.cpp Pages: 1 -->
<svg width="144pt" height="138pt"
 viewBox="0.00 0.00 144.12 137.75" xmlns="http://www.w3.org/2000/svg" xmlns:xlink="http://www.w3.org/1999/xlink">
<g id="graph0" class="graph" transform="scale(1 1) rotate(0) translate(4 133.75)">
<title>utils/Reviewer.cpp</title>
<!-- Node1 -->
<g id="Node000001" class="node">
<title>Node1</title>
<g id="a_Node000001"><a xlink:title=" ">
<polygon fill="#999999" stroke="#666666" points="118.5,-129.75 22.25,-129.75 22.25,-110.5 118.5,-110.5 118.5,-129.75"/>
<text text-anchor="middle" x="70.38" y="-116.25" font-family="Helvetica,sans-Serif" font-size="10.00">utils/Reviewer.cpp</text>
</a>
</g>
</g>
<!-- Node2 -->
<g id="Node000002" class="node">
<title>Node2</title>
<g id="a_Node000002"><a xlink:href="_reviewer_8h.html" target="_top" xlink:title=" ">
<polygon fill="white" stroke="#666666" points="64.75,-74.5 0,-74.5 0,-55.25 64.75,-55.25 64.75,-74.5"/>
<text text-anchor="middle" x="32.38" y="-61" font-family="Helvetica,sans-Serif" font-size="10.00">Reviewer.h</text>
</a>
</g>
</g>
<!-- Node1&#45;&gt;Node2 -->
<g id="edge1_Node000001_Node000002" class="edge">
<title>Node1&#45;&gt;Node2</title>
<g id="a_edge1_Node000001_Node000002"><a xlink:title=" ">
<path fill="none" stroke="#63b8ff" d="M64.1,-110.33C59.02,-103.21 51.68,-92.93 45.34,-84.05"/>
<polygon fill="#63b8ff" stroke="#63b8ff" points="48.32,-82.2 39.67,-76.09 42.63,-86.26 48.32,-82.2"/>
</a>
</g>
</g>
<!-- Node4 -->
<g id="Node000004" class="node">
<title>Node4</title>
<g id="a_Node000004"><a xlink:title=" ">
<polygon fill="#e0e0e0" stroke="#999999" points="136.12,-74.5 82.62,-74.5 82.62,-55.25 136.12,-55.25 136.12,-74.5"/>
<text text-anchor="middle" x="109.38" y="-61" font-family="Helvetica,sans-Serif" font-size="10.00">iostream</text>
</a>
</g>
</g>
<!-- Node1&#45;&gt;Node4 -->
<g id="edge3_Node000001_Node000004" class="edge">
<title>Node1&#45;&gt;Node4</title>
<g id="a_edge3_Node000001_Node000004"><a xlink:title=" ">
<path fill="none" stroke="#63b8ff" d="M76.82,-110.33C82.03,-103.21 89.56,-92.93 96.07,-84.05"/>
<polygon fill="#63b8ff" stroke="#63b8ff" points="98.82,-86.22 101.9,-76.08 93.17,-82.08 98.82,-86.22"/>
</a>
</g>
</g>
<!-- Node3 -->
<g id="Node000003" class="node">
<title>Node3</title>
<g id="a_Node000003"><a xlink:title=" ">
<polygon fill="#e0e0e0" stroke="#999999" points="52.38,-19.25 12.38,-19.25 12.38,0 52.38,0 52.38,-19.25"/>
<text text-anchor="middle" x="32.38" y="-5.75" font-family="Helvetica,sans-Serif" font-size="10.00">string</text>
</a>
</g>
</g>
<!-- Node2&#45;&gt;Node3 -->
<g id="edge2_Node000002_Node000003" class="edge">
<title>Node2&#45;&gt;Node3</title>
<g id="a_edge2_Node000002_Node000003"><a xlink:title=" ">
<path fill="none" stroke="#63b8ff" d="M32.38,-55.08C32.38,-48.57 32.38,-39.42 32.38,-31.12"/>
<polygon fill="#63b8ff" stroke="#63b8ff" points="35.88,-31.12 32.38,-21.12 28.88,-31.12 35.88,-31.12"/>
</a>
</g>
</g>
</g>
</svg>
