<?xml version="1.0" encoding="UTF-8" standalone="no"?>
<!DOCTYPE svg PUBLIC "-//W3C//DTD SVG 1.1//EN"
 "http://www.w3.org/Graphics/SVG/1.1/DTD/svg11.dtd">
<!-- Generated by graphviz version 12.2.1 (0)
 -->
<!-- Title: models/Submission.h Pages: 1 -->
<svg width="862pt" height="193pt"
 viewBox="0.00 0.00 861.50 193.00" xmlns="http://www.w3.org/2000/svg" xmlns:xlink="http://www.w3.org/1999/xlink">
<g id="graph0" class="graph" transform="scale(1 1) rotate(0) translate(4 189)">
<title>models/Submission.h</title>
<!-- Node1 -->
<g id="Node000001" class="node">
<title>Node1</title>
<g id="a_Node000001"><a xlink:title=" ">
<polygon fill="#999999" stroke="#666666" points="580.25,-185 470.5,-185 470.5,-165.75 580.25,-165.75 580.25,-185"/>
<text text-anchor="middle" x="525.38" y="-171.5" font-family="Helvetica,sans-Serif" font-size="10.00">models/Submission.h</text>
</a>
</g>
</g>
<!-- Node2 -->
<g id="Node000002" class="node">
<title>Node2</title>
<g id="a_Node000002"><a xlink:href="_graph_builder_8h.html" target="_top" xlink:title=" ">
<polygon fill="white" stroke="#666666" points="519.5,-129.75 369.25,-129.75 369.25,-110.5 519.5,-110.5 519.5,-129.75"/>
<text text-anchor="middle" x="444.38" y="-116.25" font-family="Helvetica,sans-Serif" font-size="10.00">data_structures/GraphBuilder.h</text>
</a>
</g>
</g>
<!-- Node1&#45;&gt;Node2 -->
<g id="edge1_Node000001_Node000002" class="edge">
<title>Node1&#45;&gt;Node2</title>
<g id="a_edge1_Node000001_Node000002"><a xlink:title=" ">
<path fill="none" stroke="#63b8ff" d="M502.04,-159.03C487.84,-149.7 470.19,-138.1 458.18,-130.2"/>
<polygon fill="#63b8ff" stroke="#63b8ff" points="500.09,-161.94 510.37,-164.51 503.94,-156.09 500.09,-161.94"/>
</a>
</g>
</g>
<!-- Node5 -->
<g id="Node000005" class="node">
<title>Node5</title>
<g id="a_Node000005"><a xlink:href="maxflow__tests_8cpp.html" target="_top" xlink:title=" ">
<polygon fill="white" stroke="#666666" points="268,-74.5 144.75,-74.5 144.75,-55.25 268,-55.25 268,-74.5"/>
<text text-anchor="middle" x="206.38" y="-61" font-family="Helvetica,sans-Serif" font-size="10.00">tests/maxflow_tests.cpp</text>
</a>
</g>
</g>
<!-- Node1&#45;&gt;Node5 -->
<g id="edge16_Node000001_Node000005" class="edge">
<title>Node1&#45;&gt;Node5</title>
<g id="a_edge16_Node000001_Node000005"><a xlink:title=" ">
<path fill="none" stroke="#63b8ff" d="M475.1,-162.57C442.15,-154.4 398.31,-142.69 360.38,-129.75 311.06,-112.93 254.96,-88.19 226,-74.97"/>
<polygon fill="#63b8ff" stroke="#63b8ff" points="474.26,-165.97 484.81,-164.95 475.93,-159.17 474.26,-165.97"/>
</a>
</g>
</g>
<!-- Node7 -->
<g id="Node000007" class="node">
<title>Node7</title>
<g id="a_Node000007"><a xlink:href="_file_parser_8h.html" target="_top" xlink:title="Class definition for parsing input CSV files.">
<polygon fill="white" stroke="#666666" points="155.5,-129.75 77.25,-129.75 77.25,-110.5 155.5,-110.5 155.5,-129.75"/>
<text text-anchor="middle" x="116.38" y="-116.25" font-family="Helvetica,sans-Serif" font-size="10.00">io/FileParser.h</text>
</a>
</g>
</g>
<!-- Node1&#45;&gt;Node7 -->
<g id="edge6_Node000001_Node000007" class="edge">
<title>Node1&#45;&gt;Node7</title>
<g id="a_edge6_Node000001_Node000007"><a xlink:title=" ">
<path fill="none" stroke="#63b8ff" d="M459.03,-165.74C373.13,-154.55 226.16,-135.42 155.96,-126.28"/>
<polygon fill="#63b8ff" stroke="#63b8ff" points="458.35,-169.18 468.71,-167 459.25,-162.24 458.35,-169.18"/>
</a>
</g>
</g>
<!-- Node9 -->
<g id="Node000009" class="node">
<title>Node9</title>
<g id="a_Node000009"><a xlink:href="_submission_8cpp.html" target="_top" xlink:title=" ">
<polygon fill="white" stroke="#666666" points="853.5,-129.75 733.25,-129.75 733.25,-110.5 853.5,-110.5 853.5,-129.75"/>
<text text-anchor="middle" x="793.38" y="-116.25" font-family="Helvetica,sans-Serif" font-size="10.00">models/Submission.cpp</text>
</a>
</g>
</g>
<!-- Node1&#45;&gt;Node9 -->
<g id="edge9_Node000001_Node000009" class="edge">
<title>Node1&#45;&gt;Node9</title>
<g id="a_edge9_Node000001_Node000009"><a xlink:title=" ">
<path fill="none" stroke="#63b8ff" d="M582.27,-163.07C631.61,-153.27 702.1,-139.26 747.8,-130.18"/>
<polygon fill="#63b8ff" stroke="#63b8ff" points="581.75,-159.6 572.63,-164.99 583.12,-166.47 581.75,-159.6"/>
</a>
</g>
</g>
<!-- Node10 -->
<g id="Node000010" class="node">
<title>Node10</title>
<g id="a_Node000010"><a xlink:href="_assignment_logic_8h.html" target="_top" xlink:title="Logic for assigning reviewers to submissions based on Max Flow.">
<polygon fill="white" stroke="#666666" points="676.88,-129.75 537.88,-129.75 537.88,-110.5 676.88,-110.5 676.88,-129.75"/>
<text text-anchor="middle" x="607.38" y="-116.25" font-family="Helvetica,sans-Serif" font-size="10.00">services/AssignmentLogic.h</text>
</a>
</g>
</g>
<!-- Node1&#45;&gt;Node10 -->
<g id="edge10_Node000001_Node000010" class="edge">
<title>Node1&#45;&gt;Node10</title>
<g id="a_edge10_Node000001_Node000010"><a xlink:title=" ">
<path fill="none" stroke="#63b8ff" d="M548.58,-159.3C563.03,-149.92 581.12,-138.17 593.4,-130.2"/>
<polygon fill="#63b8ff" stroke="#63b8ff" points="547.04,-156.14 540.55,-164.52 550.85,-162.01 547.04,-156.14"/>
</a>
</g>
</g>
<!-- Node11 -->
<g id="Node000011" class="node">
<title>Node11</title>
<g id="a_Node000011"><a xlink:href="_conference_app_8h.html" target="_top" xlink:title=" ">
<polygon fill="white" stroke="#666666" points="810.5,-74.5 708.25,-74.5 708.25,-55.25 810.5,-55.25 810.5,-74.5"/>
<text text-anchor="middle" x="759.38" y="-61" font-family="Helvetica,sans-Serif" font-size="10.00">ui/ConferenceApp.h</text>
</a>
</g>
</g>
<!-- Node1&#45;&gt;Node11 -->
<g id="edge17_Node000001_Node000011" class="edge">
<title>Node1&#45;&gt;Node11</title>
<g id="a_edge17_Node000001_Node000011"><a xlink:title=" ">
<path fill="none" stroke="#63b8ff" d="M591.86,-162.97C621.92,-156.08 657.17,-145.5 686.38,-129.75 713.65,-115.04 739.43,-88.48 751.77,-74.7"/>
<polygon fill="#63b8ff" stroke="#63b8ff" points="591.11,-159.55 582.1,-165.11 592.61,-166.39 591.11,-159.55"/>
</a>
</g>
</g>
<!-- Node3 -->
<g id="Node000003" class="node">
<title>Node3</title>
<g id="a_Node000003"><a xlink:href="_graph_builder_8cpp.html" target="_top" xlink:title=" ">
<polygon fill="white" stroke="#666666" points="446.75,-74.5 286,-74.5 286,-55.25 446.75,-55.25 446.75,-74.5"/>
<text text-anchor="middle" x="366.38" y="-61" font-family="Helvetica,sans-Serif" font-size="10.00">data_structures/GraphBuilder.cpp</text>
</a>
</g>
</g>
<!-- Node2&#45;&gt;Node3 -->
<g id="edge2_Node000002_Node000003" class="edge">
<title>Node2&#45;&gt;Node3</title>
<g id="a_edge2_Node000002_Node000003"><a xlink:title=" ">
<path fill="none" stroke="#63b8ff" d="M421.9,-103.78C408.23,-94.45 391.23,-82.85 379.67,-74.95"/>
<polygon fill="#63b8ff" stroke="#63b8ff" points="419.66,-106.49 429.89,-109.24 423.61,-100.71 419.66,-106.49"/>
</a>
</g>
</g>
<!-- Node4 -->
<g id="Node000004" class="node">
<title>Node4</title>
<g id="a_Node000004"><a xlink:href="_assignment_logic_8cpp.html" target="_top" xlink:title=" ">
<polygon fill="white" stroke="#666666" points="652.12,-74.5 502.62,-74.5 502.62,-55.25 652.12,-55.25 652.12,-74.5"/>
<text text-anchor="middle" x="577.38" y="-61" font-family="Helvetica,sans-Serif" font-size="10.00">services/AssignmentLogic.cpp</text>
</a>
</g>
</g>
<!-- Node2&#45;&gt;Node4 -->
<g id="edge3_Node000002_Node000004" class="edge">
<title>Node2&#45;&gt;Node4</title>
<g id="a_edge3_Node000002_Node000004"><a xlink:title=" ">
<path fill="none" stroke="#63b8ff" d="M477.37,-105.91C501.45,-96.27 533.46,-83.46 554.7,-74.95"/>
<polygon fill="#63b8ff" stroke="#63b8ff" points="476.32,-102.56 468.34,-109.53 478.93,-109.06 476.32,-102.56"/>
</a>
</g>
</g>
<!-- Node2&#45;&gt;Node5 -->
<g id="edge4_Node000002_Node000005" class="edge">
<title>Node2&#45;&gt;Node5</title>
<g id="a_edge4_Node000002_Node000005"><a xlink:title=" ">
<path fill="none" stroke="#63b8ff" d="M392.74,-107.57C348.98,-97.78 287.09,-83.94 246.85,-74.93"/>
<polygon fill="#63b8ff" stroke="#63b8ff" points="391.73,-110.93 402.25,-109.7 393.26,-104.1 391.73,-110.93"/>
</a>
</g>
</g>
<!-- Node6 -->
<g id="Node000006" class="node">
<title>Node6</title>
<g id="a_Node000006"><a xlink:href="_conference_app_8cpp.html" target="_top" xlink:title=" ">
<polygon fill="white" stroke="#666666" points="622.75,-19.25 510,-19.25 510,0 622.75,0 622.75,-19.25"/>
<text text-anchor="middle" x="566.38" y="-5.75" font-family="Helvetica,sans-Serif" font-size="10.00">ui/ConferenceApp.cpp</text>
</a>
</g>
</g>
<!-- Node2&#45;&gt;Node6 -->
<g id="edge5_Node000002_Node000006" class="edge">
<title>Node2&#45;&gt;Node6</title>
<g id="a_edge5_Node000002_Node000006"><a xlink:title=" ">
<path fill="none" stroke="#63b8ff" d="M455.82,-100.71C464.88,-87.09 478.47,-68.66 493.38,-55.25 509.83,-40.45 531.86,-27.76 547.4,-19.74"/>
<polygon fill="#63b8ff" stroke="#63b8ff" points="453.11,-98.45 450.64,-108.75 459,-102.24 453.11,-98.45"/>
</a>
</g>
</g>
<!-- Node7&#45;&gt;Node6 -->
<g id="edge8_Node000007_Node000006" class="edge">
<title>Node7&#45;&gt;Node6</title>
<g id="a_edge8_Node000007_Node000006"><a xlink:title=" ">
<path fill="none" stroke="#63b8ff" d="M116.79,-98.74C118.25,-84.33 122.7,-65.76 135.38,-55.25 163.64,-31.81 399.5,-18.17 509.86,-13.01"/>
<polygon fill="#63b8ff" stroke="#63b8ff" points="113.31,-98.34 116.24,-108.52 120.3,-98.74 113.31,-98.34"/>
</a>
</g>
</g>
<!-- Node8 -->
<g id="Node000008" class="node">
<title>Node8</title>
<g id="a_Node000008"><a xlink:href="_file_parser_8cpp.html" target="_top" xlink:title=" ">
<polygon fill="white" stroke="#666666" points="88.75,-74.5 0,-74.5 0,-55.25 88.75,-55.25 88.75,-74.5"/>
<text text-anchor="middle" x="44.38" y="-61" font-family="Helvetica,sans-Serif" font-size="10.00">io/FileParser.cpp</text>
</a>
</g>
</g>
<!-- Node7&#45;&gt;Node8 -->
<g id="edge7_Node000007_Node000008" class="edge">
<title>Node7&#45;&gt;Node8</title>
<g id="a_edge7_Node000007_Node000008"><a xlink:title=" ">
<path fill="none" stroke="#63b8ff" d="M95.2,-103.47C82.56,-94.12 66.97,-82.58 56.41,-74.77"/>
<polygon fill="#63b8ff" stroke="#63b8ff" points="92.82,-106.06 102.94,-109.19 96.99,-100.43 92.82,-106.06"/>
</a>
</g>
</g>
<!-- Node10&#45;&gt;Node4 -->
<g id="edge11_Node000010_Node000004" class="edge">
<title>Node10&#45;&gt;Node4</title>
<g id="a_edge11_Node000010_Node000004"><a xlink:title=" ">
<path fill="none" stroke="#63b8ff" d="M596.79,-100.33C591.91,-91.67 586.35,-81.81 582.44,-74.86"/>
<polygon fill="#63b8ff" stroke="#63b8ff" points="593.72,-102.02 601.68,-109.01 599.82,-98.58 593.72,-102.02"/>
</a>
</g>
</g>
<!-- Node10&#45;&gt;Node6 -->
<g id="edge12_Node000010_Node000006" class="edge">
<title>Node10&#45;&gt;Node6</title>
<g id="a_edge12_Node000010_Node000006"><a xlink:title=" ">
<path fill="none" stroke="#63b8ff" d="M634.51,-104.13C653.23,-91.74 672.84,-73.31 661.38,-55.25 649.85,-37.1 628.76,-26.2 609.38,-19.72"/>
<polygon fill="#63b8ff" stroke="#63b8ff" points="632.92,-100.99 626.26,-109.23 636.6,-106.95 632.92,-100.99"/>
</a>
</g>
</g>
<!-- Node10&#45;&gt;Node11 -->
<g id="edge13_Node000010_Node000011" class="edge">
<title>Node10&#45;&gt;Node11</title>
<g id="a_edge13_Node000010_Node000011"><a xlink:title=" ">
<path fill="none" stroke="#63b8ff" d="M643.98,-106.3C671.61,-96.62 708.85,-83.57 733.46,-74.95"/>
<polygon fill="#63b8ff" stroke="#63b8ff" points="642.87,-102.98 634.59,-109.59 645.18,-109.59 642.87,-102.98"/>
</a>
</g>
</g>
<!-- Node11&#45;&gt;Node6 -->
<g id="edge15_Node000011_Node000006" class="edge">
<title>Node11&#45;&gt;Node6</title>
<g id="a_edge15_Node000011_Node000006"><a xlink:title=" ">
<path fill="none" stroke="#63b8ff" d="M715.68,-51.82C680.34,-42.07 631.36,-28.55 599.28,-19.7"/>
<polygon fill="#63b8ff" stroke="#63b8ff" points="714.61,-55.15 725.18,-54.44 716.47,-48.41 714.61,-55.15"/>
</a>
</g>
</g>
<!-- Node12 -->
<g id="Node000012" class="node">
<title>Node12</title>
<g id="a_Node000012"><a xlink:href="main_8cpp.html" target="_top" xlink:title=" ">
<polygon fill="white" stroke="#666666" points="787.25,-19.25 731.5,-19.25 731.5,0 787.25,0 787.25,-19.25"/>
<text text-anchor="middle" x="759.38" y="-5.75" font-family="Helvetica,sans-Serif" font-size="10.00">main.cpp</text>
</a>
</g>
</g>
<!-- Node11&#45;&gt;Node12 -->
<g id="edge14_Node000011_Node000012" class="edge">
<title>Node11&#45;&gt;Node12</title>
<g id="a_edge14_Node000011_Node000012"><a xlink:title=" ">
<path fill="none" stroke="#63b8ff" d="M759.38,-43.63C759.38,-35.34 759.38,-26.17 759.38,-19.61"/>
<polygon fill="#63b8ff" stroke="#63b8ff" points="755.88,-43.57 759.38,-53.57 762.88,-43.57 755.88,-43.57"/>
</a>
</g>
</g>
</g>
</svg>
