<?xml version="1.0" encoding="UTF-8" standalone="no"?>
<!DOCTYPE svg PUBLIC "-//W3C//DTD SVG 1.1//EN"
 "http://www.w3.org/Graphics/SVG/1.1/DTD/svg11.dtd">
<!-- Generated by graphviz version 12.2.1 (0)
 -->
<!-- Title: utils/Submission.cpp Pages: 1 -->
<svg width="154pt" height="138pt"
 viewBox="0.00 0.00 154.38 137.75" xmlns="http://www.w3.org/2000/svg" xmlns:xlink="http://www.w3.org/1999/xlink">
<g id="graph0" class="graph" transform="scale(1 1) rotate(0) translate(4 133.75)">
<title>utils/Submission.cpp</title>
<!-- Node1 -->
<g id="Node000001" class="node">
<title>Node1</title>
<g id="a_Node000001"><a xlink:title=" ">
<polygon fill="#999999" stroke="#666666" points="132,-129.75 25.25,-129.75 25.25,-110.5 132,-110.5 132,-129.75"/>
<text text-anchor="middle" x="78.62" y="-116.25" font-family="Helvetica,sans-Serif" font-size="10.00">utils/Submission.cpp</text>
</a>
</g>
</g>
<!-- Node2 -->
<g id="Node000002" class="node">
<title>Node2</title>
<g id="a_Node000002"><a xlink:href="_submission_8h.html" target="_top" xlink:title=" ">
<polygon fill="white" stroke="#666666" points="75.25,-74.5 0,-74.5 0,-55.25 75.25,-55.25 75.25,-74.5"/>
<text text-anchor="middle" x="37.62" y="-61" font-family="Helvetica,sans-Serif" font-size="10.00">Submission.h</text>
</a>
</g>
</g>
<!-- Node1&#45;&gt;Node2 -->
<g id="edge1_Node000001_Node000002" class="edge">
<title>Node1&#45;&gt;Node2</title>
<g id="a_edge1_Node000001_Node000002"><a xlink:title=" ">
<path fill="none" stroke="#63b8ff" d="M71.85,-110.33C66.31,-103.13 58.28,-92.71 51.4,-83.76"/>
<polygon fill="#63b8ff" stroke="#63b8ff" points="54.34,-81.85 45.47,-76.06 48.79,-86.12 54.34,-81.85"/>
</a>
</g>
</g>
<!-- Node4 -->
<g id="Node000004" class="node">
<title>Node4</title>
<g id="a_Node000004"><a xlink:title=" ">
<polygon fill="#e0e0e0" stroke="#999999" points="146.38,-74.5 92.88,-74.5 92.88,-55.25 146.38,-55.25 146.38,-74.5"/>
<text text-anchor="middle" x="119.62" y="-61" font-family="Helvetica,sans-Serif" font-size="10.00">iostream</text>
</a>
</g>
</g>
<!-- Node1&#45;&gt;Node4 -->
<g id="edge3_Node000001_Node000004" class="edge">
<title>Node1&#45;&gt;Node4</title>
<g id="a_edge3_Node000001_Node000004"><a xlink:title=" ">
<path fill="none" stroke="#63b8ff" d="M85.4,-110.33C90.94,-103.13 98.97,-92.71 105.85,-83.76"/>
<polygon fill="#63b8ff" stroke="#63b8ff" points="108.46,-86.12 111.78,-76.06 102.91,-81.85 108.46,-86.12"/>
</a>
</g>
</g>
<!-- Node3 -->
<g id="Node000003" class="node">
<title>Node3</title>
<g id="a_Node000003"><a xlink:title=" ">
<polygon fill="#e0e0e0" stroke="#999999" points="57.62,-19.25 17.62,-19.25 17.62,0 57.62,0 57.62,-19.25"/>
<text text-anchor="middle" x="37.62" y="-5.75" font-family="Helvetica,sans-Serif" font-size="10.00">string</text>
</a>
</g>
</g>
<!-- Node2&#45;&gt;Node3 -->
<g id="edge2_Node000002_Node000003" class="edge">
<title>Node2&#45;&gt;Node3</title>
<g id="a_edge2_Node000002_Node000003"><a xlink:title=" ">
<path fill="none" stroke="#63b8ff" d="M37.62,-55.08C37.62,-48.57 37.62,-39.42 37.62,-31.12"/>
<polygon fill="#63b8ff" stroke="#63b8ff" points="41.13,-31.12 37.63,-21.12 34.13,-31.12 41.13,-31.12"/>
</a>
</g>
</g>
</g>
</svg>
