<?xml version="1.0" encoding="UTF-8" standalone="no"?>
<!DOCTYPE svg PUBLIC "-//W3C//DTD SVG 1.1//EN"
 "http://www.w3.org/Graphics/SVG/1.1/DTD/svg11.dtd">
<!-- Generated by graphviz version 12.2.1 (0)
 -->
<!-- Title: models/Submission.cpp Pages: 1 -->
<svg width="190pt" height="138pt"
 viewBox="0.00 0.00 189.62 137.75" xmlns="http://www.w3.org/2000/svg" xmlns:xlink="http://www.w3.org/1999/xlink">
<g id="graph0" class="graph" transform="scale(1 1) rotate(0) translate(4 133.75)">
<title>models/Submission.cpp</title>
<!-- Node1 -->
<g id="Node000001" class="node">
<title>Node1</title>
<g id="a_Node000001"><a xlink:title=" ">
<polygon fill="#999999" stroke="#666666" points="165,-129.75 44.75,-129.75 44.75,-110.5 165,-110.5 165,-129.75"/>
<text text-anchor="middle" x="104.88" y="-116.25" font-family="Helvetica,sans-Serif" font-size="10.00">models/Submission.cpp</text>
</a>
</g>
</g>
<!-- Node2 -->
<g id="Node000002" class="node">
<title>Node2</title>
<g id="a_Node000002"><a xlink:href="_submission_8h.html" target="_top" xlink:title=" ">
<polygon fill="white" stroke="#666666" points="109.75,-74.5 0,-74.5 0,-55.25 109.75,-55.25 109.75,-74.5"/>
<text text-anchor="middle" x="54.88" y="-61" font-family="Helvetica,sans-Serif" font-size="10.00">models/Submission.h</text>
</a>
</g>
</g>
<!-- Node1&#45;&gt;Node2 -->
<g id="edge1_Node000001_Node000002" class="edge">
<title>Node1&#45;&gt;Node2</title>
<g id="a_edge1_Node000001_Node000002"><a xlink:title=" ">
<path fill="none" stroke="#63b8ff" d="M96.62,-110.33C89.71,-102.98 79.65,-92.26 71.14,-83.19"/>
<polygon fill="#63b8ff" stroke="#63b8ff" points="73.74,-80.86 64.35,-75.96 68.64,-85.65 73.74,-80.86"/>
</a>
</g>
</g>
<!-- Node4 -->
<g id="Node000004" class="node">
<title>Node4</title>
<g id="a_Node000004"><a xlink:title=" ">
<polygon fill="#e0e0e0" stroke="#999999" points="181.62,-74.5 128.12,-74.5 128.12,-55.25 181.62,-55.25 181.62,-74.5"/>
<text text-anchor="middle" x="154.88" y="-61" font-family="Helvetica,sans-Serif" font-size="10.00">iostream</text>
</a>
</g>
</g>
<!-- Node1&#45;&gt;Node4 -->
<g id="edge3_Node000001_Node000004" class="edge">
<title>Node1&#45;&gt;Node4</title>
<g id="a_edge3_Node000001_Node000004"><a xlink:title=" ">
<path fill="none" stroke="#63b8ff" d="M113.13,-110.33C120.04,-102.98 130.1,-92.26 138.61,-83.19"/>
<polygon fill="#63b8ff" stroke="#63b8ff" points="141.11,-85.65 145.4,-75.96 136.01,-80.86 141.11,-85.65"/>
</a>
</g>
</g>
<!-- Node3 -->
<g id="Node000003" class="node">
<title>Node3</title>
<g id="a_Node000003"><a xlink:title=" ">
<polygon fill="#e0e0e0" stroke="#999999" points="74.88,-19.25 34.88,-19.25 34.88,0 74.88,0 74.88,-19.25"/>
<text text-anchor="middle" x="54.88" y="-5.75" font-family="Helvetica,sans-Serif" font-size="10.00">string</text>
</a>
</g>
</g>
<!-- Node2&#45;&gt;Node3 -->
<g id="edge2_Node000002_Node000003" class="edge">
<title>Node2&#45;&gt;Node3</title>
<g id="a_edge2_Node000002_Node000003"><a xlink:title=" ">
<path fill="none" stroke="#63b8ff" d="M54.88,-55.08C54.88,-48.57 54.88,-39.42 54.88,-31.12"/>
<polygon fill="#63b8ff" stroke="#63b8ff" points="58.38,-31.12 54.88,-21.12 51.38,-31.12 58.38,-31.12"/>
</a>
</g>
</g>
</g>
</svg>
