<?xml version="1.0" encoding="UTF-8" standalone="no"?>
<!DOCTYPE svg PUBLIC "-//W3C//DTD SVG 1.1//EN"
 "http://www.w3.org/Graphics/SVG/1.1/DTD/svg11.dtd">
<!-- Generated by graphviz version 12.2.1 (0)
 -->
<!-- Title: services/AssignmentLogic.h Pages: 1 -->
<svg width="782pt" height="140pt"
 viewBox="0.00 0.00 781.62 140.00" xmlns="http://www.w3.org/2000/svg" xmlns:xlink="http://www.w3.org/1999/xlink">
<g id="graph0" class="graph" transform="scale(1 1) rotate(0) translate(4 136)">
<title>services/AssignmentLogic.h</title>
<!-- Node1 -->
<g id="Node000001" class="node">
<title>Node1</title>
<g id="a_Node000001"><a xlink:title="Logic for assigning reviewers to submissions based on Max Flow.">
<polygon fill="#999999" stroke="#666666" points="366,-132 227,-132 227,-112 366,-112 366,-132"/>
<text text-anchor="middle" x="296.5" y="-118.5" font-family="Helvetica,sans-Serif" font-size="10.00">services/AssignmentLogic.h</text>
</a>
</g>
</g>
<!-- Node2 -->
<g id="Node000002" class="node">
<title>Node2</title>
<g id="a_Node000002"><a xlink:title=" ">
<polygon fill="#e0e0e0" stroke="#999999" points="510,-20 467,-20 467,0 510,0 510,-20"/>
<text text-anchor="middle" x="488.5" y="-6.5" font-family="Helvetica,sans-Serif" font-size="10.00">vector</text>
</a>
</g>
</g>
<!-- Node1&#45;&gt;Node2 -->
<g id="edge1_Node000001_Node000002" class="edge">
<title>Node1&#45;&gt;Node2</title>
<g id="a_edge1_Node000001_Node000002"><a xlink:title=" ">
<path fill="none" stroke="#63b8ff" d="M366.23,-111.86C410.89,-104.53 463.24,-92.7 478.5,-76 489.34,-64.14 491.29,-45.67 490.84,-31.44"/>
<polygon fill="#63b8ff" stroke="#63b8ff" points="494.35,-31.52 490.11,-21.82 487.37,-32.05 494.35,-31.52"/>
</a>
</g>
</g>
<!-- Node3 -->
<g id="Node000003" class="node">
<title>Node3</title>
<g id="a_Node000003"><a xlink:title=" ">
<polygon fill="#e0e0e0" stroke="#999999" points="237.5,-20 197.5,-20 197.5,0 237.5,0 237.5,-20"/>
<text text-anchor="middle" x="217.5" y="-6.5" font-family="Helvetica,sans-Serif" font-size="10.00">string</text>
</a>
</g>
</g>
<!-- Node1&#45;&gt;Node3 -->
<g id="edge2_Node000001_Node000003" class="edge">
<title>Node1&#45;&gt;Node3</title>
<g id="a_edge2_Node000001_Node000003"><a xlink:title=" ">
<path fill="none" stroke="#63b8ff" d="M226.51,-115.61C200.2,-109.77 172.74,-98.28 156.5,-76 142.96,-57.43 165.65,-38.54 187.1,-25.94"/>
<polygon fill="#63b8ff" stroke="#63b8ff" points="188.65,-29.08 195.72,-21.19 185.27,-22.95 188.65,-29.08"/>
</a>
</g>
</g>
<!-- Node4 -->
<g id="Node000004" class="node">
<title>Node4</title>
<g id="a_Node000004"><a xlink:title=" ">
<polygon fill="#e0e0e0" stroke="#999999" points="223.5,-76 165.5,-76 165.5,-56 223.5,-56 223.5,-76"/>
<text text-anchor="middle" x="194.5" y="-62.5" font-family="Helvetica,sans-Serif" font-size="10.00">functional</text>
</a>
</g>
</g>
<!-- Node1&#45;&gt;Node4 -->
<g id="edge3_Node000001_Node000004" class="edge">
<title>Node1&#45;&gt;Node4</title>
<g id="a_edge3_Node000001_Node000004"><a xlink:title=" ">
<path fill="none" stroke="#63b8ff" d="M278.73,-111.59C263.18,-103.36 240.32,-91.26 222.34,-81.74"/>
<polygon fill="#63b8ff" stroke="#63b8ff" points="224.22,-78.77 213.74,-77.19 220.94,-84.96 224.22,-78.77"/>
</a>
</g>
</g>
<!-- Node5 -->
<g id="Node000005" class="node">
<title>Node5</title>
<g id="a_Node000005"><a xlink:href="Graph_8h.html" target="_top" xlink:title=" ">
<polygon fill="white" stroke="#666666" points="665,-76 544,-76 544,-56 665,-56 665,-76"/>
<text text-anchor="middle" x="604.5" y="-62.5" font-family="Helvetica,sans-Serif" font-size="10.00">data_structures/Graph.h</text>
</a>
</g>
</g>
<!-- Node1&#45;&gt;Node5 -->
<g id="edge4_Node000001_Node000005" class="edge">
<title>Node1&#45;&gt;Node5</title>
<g id="a_edge4_Node000001_Node000005"><a xlink:title=" ">
<path fill="none" stroke="#63b8ff" d="M350.5,-111.53C403.12,-102.31 483.18,-88.27 539.32,-78.43"/>
<polygon fill="#63b8ff" stroke="#63b8ff" points="539.82,-81.89 549.07,-76.72 538.62,-75 539.82,-81.89"/>
</a>
</g>
</g>
<!-- Node10 -->
<g id="Node000010" class="node">
<title>Node10</title>
<g id="a_Node000010"><a xlink:href="Submission_8h.html" target="_top" xlink:title=" ">
<polygon fill="white" stroke="#666666" points="351.38,-76 241.62,-76 241.62,-56 351.38,-56 351.38,-76"/>
<text text-anchor="middle" x="296.5" y="-62.5" font-family="Helvetica,sans-Serif" font-size="10.00">models/Submission.h</text>
</a>
</g>
</g>
<!-- Node1&#45;&gt;Node10 -->
<g id="edge10_Node000001_Node000010" class="edge">
<title>Node1&#45;&gt;Node10</title>
<g id="a_edge10_Node000001_Node000010"><a xlink:title=" ">
<path fill="none" stroke="#63b8ff" d="M296.5,-111.59C296.5,-105.01 296.5,-95.96 296.5,-87.73"/>
<polygon fill="#63b8ff" stroke="#63b8ff" points="300,-87.81 296.5,-77.81 293,-87.81 300,-87.81"/>
</a>
</g>
</g>
<!-- Node11 -->
<g id="Node000011" class="node">
<title>Node11</title>
<g id="a_Node000011"><a xlink:href="Reviewer_8h.html" target="_top" xlink:title=" ">
<polygon fill="white" stroke="#666666" points="469.12,-76 369.88,-76 369.88,-56 469.12,-56 469.12,-76"/>
<text text-anchor="middle" x="419.5" y="-62.5" font-family="Helvetica,sans-Serif" font-size="10.00">models/Reviewer.h</text>
</a>
</g>
</g>
<!-- Node1&#45;&gt;Node11 -->
<g id="edge12_Node000001_Node000011" class="edge">
<title>Node1&#45;&gt;Node11</title>
<g id="a_edge12_Node000001_Node000011"><a xlink:title=" ">
<path fill="none" stroke="#63b8ff" d="M317.92,-111.59C337.12,-103.17 365.54,-90.69 387.44,-81.07"/>
<polygon fill="#63b8ff" stroke="#63b8ff" points="388.77,-84.31 396.52,-77.09 385.96,-77.9 388.77,-84.31"/>
</a>
</g>
</g>
<!-- Node12 -->
<g id="Node000012" class="node">
<title>Node12</title>
<g id="a_Node000012"><a xlink:href="Parameters_8h.html" target="_top" xlink:title=" ">
<polygon fill="white" stroke="#666666" points="109,-76 0,-76 0,-56 109,-56 109,-76"/>
<text text-anchor="middle" x="54.5" y="-62.5" font-family="Helvetica,sans-Serif" font-size="10.00">models/Parameters.h</text>
</a>
</g>
</g>
<!-- Node1&#45;&gt;Node12 -->
<g id="edge14_Node000001_Node000012" class="edge">
<title>Node1&#45;&gt;Node12</title>
<g id="a_edge14_Node000001_Node000012"><a xlink:title=" ">
<path fill="none" stroke="#63b8ff" d="M254.07,-111.53C213.42,-102.46 151.92,-88.74 107.94,-78.93"/>
<polygon fill="#63b8ff" stroke="#63b8ff" points="108.88,-75.55 98.36,-76.79 107.36,-82.38 108.88,-75.55"/>
</a>
</g>
</g>
<!-- Node5&#45;&gt;Node2 -->
<g id="edge6_Node000005_Node000002" class="edge">
<title>Node5&#45;&gt;Node2</title>
<g id="a_edge6_Node000005_Node000002"><a xlink:title=" ">
<path fill="none" stroke="#63b8ff" d="M584.29,-55.59C566.27,-47.21 539.63,-34.8 519.02,-25.21"/>
<polygon fill="#63b8ff" stroke="#63b8ff" points="520.78,-22.17 510.24,-21.12 517.82,-28.51 520.78,-22.17"/>
</a>
</g>
</g>
<!-- Node6 -->
<g id="Node000006" class="node">
<title>Node6</title>
<g id="a_Node000006"><a xlink:title=" ">
<polygon fill="#e0e0e0" stroke="#999999" points="713.25,-20 659.75,-20 659.75,0 713.25,0 713.25,-20"/>
<text text-anchor="middle" x="686.5" y="-6.5" font-family="Helvetica,sans-Serif" font-size="10.00">iostream</text>
</a>
</g>
</g>
<!-- Node5&#45;&gt;Node6 -->
<g id="edge5_Node000005_Node000006" class="edge">
<title>Node5&#45;&gt;Node6</title>
<g id="a_edge5_Node000005_Node000006"><a xlink:title=" ">
<path fill="none" stroke="#63b8ff" d="M618.78,-55.59C630.94,-47.59 648.64,-35.93 662.9,-26.54"/>
<polygon fill="#63b8ff" stroke="#63b8ff" points="664.41,-29.73 670.84,-21.31 660.56,-23.89 664.41,-29.73"/>
</a>
</g>
</g>
<!-- Node7 -->
<g id="Node000007" class="node">
<title>Node7</title>
<g id="a_Node000007"><a xlink:title=" ">
<polygon fill="#e0e0e0" stroke="#999999" points="773.62,-20 731.38,-20 731.38,0 773.62,0 773.62,-20"/>
<text text-anchor="middle" x="752.5" y="-6.5" font-family="Helvetica,sans-Serif" font-size="10.00">queue</text>
</a>
</g>
</g>
<!-- Node5&#45;&gt;Node7 -->
<g id="edge7_Node000005_Node000007" class="edge">
<title>Node5&#45;&gt;Node7</title>
<g id="a_edge7_Node000005_Node000007"><a xlink:title=" ">
<path fill="none" stroke="#63b8ff" d="M630.28,-55.59C655.46,-46.4 693.85,-32.4 720.87,-22.54"/>
<polygon fill="#63b8ff" stroke="#63b8ff" points="721.71,-25.96 729.9,-19.24 719.31,-19.38 721.71,-25.96"/>
</a>
</g>
</g>
<!-- Node8 -->
<g id="Node000008" class="node">
<title>Node8</title>
<g id="a_Node000008"><a xlink:title=" ">
<polygon fill="#e0e0e0" stroke="#999999" points="567.12,-20 527.88,-20 527.88,0 567.12,0 567.12,-20"/>
<text text-anchor="middle" x="547.5" y="-6.5" font-family="Helvetica,sans-Serif" font-size="10.00">limits</text>
</a>
</g>
</g>
<!-- Node5&#45;&gt;Node8 -->
<g id="edge8_Node000005_Node000008" class="edge">
<title>Node5&#45;&gt;Node8</title>
<g id="a_edge8_Node000005_Node000008"><a xlink:title=" ">
<path fill="none" stroke="#63b8ff" d="M594.57,-55.59C586.56,-48.01 575.08,-37.13 565.47,-28.02"/>
<polygon fill="#63b8ff" stroke="#63b8ff" points="568.08,-25.68 558.41,-21.34 563.27,-30.76 568.08,-25.68"/>
</a>
</g>
</g>
<!-- Node9 -->
<g id="Node000009" class="node">
<title>Node9</title>
<g id="a_Node000009"><a xlink:title=" ">
<polygon fill="#e0e0e0" stroke="#999999" points="641.38,-20 585.62,-20 585.62,0 641.38,0 641.38,-20"/>
<text text-anchor="middle" x="613.5" y="-6.5" font-family="Helvetica,sans-Serif" font-size="10.00">algorithm</text>
</a>
</g>
</g>
<!-- Node5&#45;&gt;Node9 -->
<g id="edge9_Node000005_Node000009" class="edge">
<title>Node5&#45;&gt;Node9</title>
<g id="a_edge9_Node000005_Node000009"><a xlink:title=" ">
<path fill="none" stroke="#63b8ff" d="M606.07,-55.59C607.18,-48.93 608.71,-39.75 610.09,-31.44"/>
<polygon fill="#63b8ff" stroke="#63b8ff" points="613.51,-32.23 611.7,-21.79 606.61,-31.08 613.51,-32.23"/>
</a>
</g>
</g>
<!-- Node10&#45;&gt;Node3 -->
<g id="edge11_Node000010_Node000003" class="edge">
<title>Node10&#45;&gt;Node3</title>
<g id="a_edge11_Node000010_Node000003"><a xlink:title=" ">
<path fill="none" stroke="#63b8ff" d="M282.74,-55.59C271.14,-47.67 254.3,-36.16 240.64,-26.82"/>
<polygon fill="#63b8ff" stroke="#63b8ff" points="242.85,-24.09 232.62,-21.33 238.9,-29.87 242.85,-24.09"/>
</a>
</g>
</g>
<!-- Node11&#45;&gt;Node3 -->
<g id="edge13_Node000011_Node000003" class="edge">
<title>Node11&#45;&gt;Node3</title>
<g id="a_edge13_Node000011_Node000003"><a xlink:title=" ">
<path fill="none" stroke="#63b8ff" d="M384.31,-55.59C346.07,-45.37 285.51,-29.18 248.84,-19.38"/>
<polygon fill="#63b8ff" stroke="#63b8ff" points="249.86,-16.03 239.3,-16.83 248.05,-22.79 249.86,-16.03"/>
</a>
</g>
</g>
<!-- Node12&#45;&gt;Node3 -->
<g id="edge15_Node000012_Node000003" class="edge">
<title>Node12&#45;&gt;Node3</title>
<g id="a_edge15_Node000012_Node000003"><a xlink:title=" ">
<path fill="none" stroke="#63b8ff" d="M82.89,-55.59C111.85,-46 156.64,-31.16 186.5,-21.27"/>
<polygon fill="#63b8ff" stroke="#63b8ff" points="187.33,-24.68 195.72,-18.22 185.12,-18.04 187.33,-24.68"/>
</a>
</g>
</g>
</g>
</svg>
