<?xml version="1.0" encoding="UTF-8" standalone="no"?>
<!DOCTYPE svg PUBLIC "-//W3C//DTD SVG 1.1//EN"
 "http://www.w3.org/Graphics/SVG/1.1/DTD/svg11.dtd">
<!-- Generated by graphviz version 12.2.1 (0)
 -->
<!-- Title: services/AssignmentLogic.cpp Pages: 1 -->
<svg width="881pt" height="196pt"
 viewBox="0.00 0.00 881.38 196.00" xmlns="http://www.w3.org/2000/svg" xmlns:xlink="http://www.w3.org/1999/xlink">
<g id="graph0" class="graph" transform="scale(1 1) rotate(0) translate(4 192)">
<title>services/AssignmentLogic.cpp</title>
<!-- Node1 -->
<g id="Node000001" class="node">
<title>Node1</title>
<g id="a_Node000001"><a xlink:title=" ">
<polygon fill="#999999" stroke="#666666" points="489.5,-188 340,-188 340,-168 489.5,-168 489.5,-188"/>
<text text-anchor="middle" x="414.75" y="-174.5" font-family="Helvetica,sans-Serif" font-size="10.00">services/AssignmentLogic.cpp</text>
</a>
</g>
</g>
<!-- Node2 -->
<g id="Node000002" class="node">
<title>Node2</title>
<g id="a_Node000002"><a xlink:href="AssignmentLogic_8h.html" target="_top" xlink:title="Logic for assigning reviewers to submissions based on Max Flow.">
<polygon fill="white" stroke="#666666" points="484.25,-132 345.25,-132 345.25,-112 484.25,-112 484.25,-132"/>
<text text-anchor="middle" x="414.75" y="-118.5" font-family="Helvetica,sans-Serif" font-size="10.00">services/AssignmentLogic.h</text>
</a>
</g>
</g>
<!-- Node1&#45;&gt;Node2 -->
<g id="edge1_Node000001_Node000002" class="edge">
<title>Node1&#45;&gt;Node2</title>
<g id="a_edge1_Node000001_Node000002"><a xlink:title=" ">
<path fill="none" stroke="#63b8ff" d="M414.75,-167.59C414.75,-161.01 414.75,-151.96 414.75,-143.73"/>
<polygon fill="#63b8ff" stroke="#63b8ff" points="418.25,-143.81 414.75,-133.81 411.25,-143.81 418.25,-143.81"/>
</a>
</g>
</g>
<!-- Node7 -->
<g id="Node000007" class="node">
<title>Node7</title>
<g id="a_Node000007"><a xlink:title=" ">
<polygon fill="#e0e0e0" stroke="#999999" points="53.5,-20 0,-20 0,0 53.5,0 53.5,-20"/>
<text text-anchor="middle" x="26.75" y="-6.5" font-family="Helvetica,sans-Serif" font-size="10.00">iostream</text>
</a>
</g>
</g>
<!-- Node1&#45;&gt;Node7 -->
<g id="edge30_Node000001_Node000007" class="edge">
<title>Node1&#45;&gt;Node7</title>
<g id="a_edge30_Node000001_Node000007"><a xlink:title=" ">
<path fill="none" stroke="#63b8ff" d="M339.74,-172.55C254.6,-166.54 121.7,-153.96 76.75,-132 44.84,-116.41 33.49,-108.75 19.75,-76 13.77,-61.74 16.14,-44.24 19.66,-30.99"/>
<polygon fill="#63b8ff" stroke="#63b8ff" points="22.93,-32.27 22.57,-21.68 16.25,-30.19 22.93,-32.27"/>
</a>
</g>
</g>
<!-- Node10 -->
<g id="Node000010" class="node">
<title>Node10</title>
<g id="a_Node000010"><a xlink:title=" ">
<polygon fill="#e0e0e0" stroke="#999999" points="133.62,-20 77.88,-20 77.88,0 133.62,0 133.62,-20"/>
<text text-anchor="middle" x="105.75" y="-6.5" font-family="Helvetica,sans-Serif" font-size="10.00">algorithm</text>
</a>
</g>
</g>
<!-- Node1&#45;&gt;Node10 -->
<g id="edge31_Node000001_Node000010" class="edge">
<title>Node1&#45;&gt;Node10</title>
<g id="a_edge31_Node000001_Node000010"><a xlink:title=" ">
<path fill="none" stroke="#63b8ff" d="M339.86,-169.3C237.09,-156.88 61.22,-128.37 27.75,-76 13.94,-54.39 41.01,-36.36 66.96,-24.81"/>
<polygon fill="#63b8ff" stroke="#63b8ff" points="68.23,-28.07 76.11,-20.99 65.53,-21.61 68.23,-28.07"/>
</a>
</g>
</g>
<!-- Node14 -->
<g id="Node000014" class="node">
<title>Node14</title>
<g id="a_Node000014"><a xlink:href="GraphBuilder_8h.html" target="_top" xlink:title=" ">
<polygon fill="white" stroke="#666666" points="652.88,-132 502.62,-132 502.62,-112 652.88,-112 652.88,-132"/>
<text text-anchor="middle" x="577.75" y="-118.5" font-family="Helvetica,sans-Serif" font-size="10.00">data_structures/GraphBuilder.h</text>
</a>
</g>
</g>
<!-- Node1&#45;&gt;Node14 -->
<g id="edge17_Node000001_Node000014" class="edge">
<title>Node1&#45;&gt;Node14</title>
<g id="a_edge17_Node000001_Node000014"><a xlink:title=" ">
<path fill="none" stroke="#63b8ff" d="M443.14,-167.59C469.51,-158.86 509.01,-145.77 538.41,-136.03"/>
<polygon fill="#63b8ff" stroke="#63b8ff" points="539.31,-139.42 547.7,-132.96 537.11,-132.78 539.31,-139.42"/>
</a>
</g>
</g>
<!-- Node15 -->
<g id="Node000015" class="node">
<title>Node15</title>
<g id="a_Node000015"><a xlink:href="EdmondKarp_8h.html" target="_top" xlink:title="Implementations of the Edmonds&#45;Karp algorithm for calculating maximum flow.">
<polygon fill="white" stroke="#666666" points="286,-132 157.5,-132 157.5,-112 286,-112 286,-132"/>
<text text-anchor="middle" x="221.75" y="-118.5" font-family="Helvetica,sans-Serif" font-size="10.00">algorithms/EdmondKarp.h</text>
</a>
</g>
</g>
<!-- Node1&#45;&gt;Node15 -->
<g id="edge23_Node000001_Node000015" class="edge">
<title>Node1&#45;&gt;Node15</title>
<g id="a_edge23_Node000001_Node000015"><a xlink:title=" ">
<path fill="none" stroke="#63b8ff" d="M381.13,-167.59C349.36,-158.71 301.49,-145.31 266.5,-135.52"/>
<polygon fill="#63b8ff" stroke="#63b8ff" points="267.66,-132.21 257.09,-132.89 265.78,-138.95 267.66,-132.21"/>
</a>
</g>
</g>
<!-- Node17 -->
<g id="Node000017" class="node">
<title>Node17</title>
<g id="a_Node000017"><a xlink:title=" ">
<polygon fill="#e0e0e0" stroke="#999999" points="720.25,-132 671.25,-132 671.25,-112 720.25,-112 720.25,-132"/>
<text text-anchor="middle" x="695.75" y="-118.5" font-family="Helvetica,sans-Serif" font-size="10.00">fstream</text>
</a>
</g>
</g>
<!-- Node1&#45;&gt;Node17 -->
<g id="edge29_Node000001_Node000017" class="edge">
<title>Node1&#45;&gt;Node17</title>
<g id="a_edge29_Node000001_Node000017"><a xlink:title=" ">
<path fill="none" stroke="#63b8ff" d="M474.15,-167.52C521.8,-159.62 590.62,-147.52 659.82,-132.28"/>
<polygon fill="#63b8ff" stroke="#63b8ff" points="660.44,-135.73 669.45,-130.14 658.92,-128.9 660.44,-135.73"/>
</a>
</g>
</g>
<!-- Node18 -->
<g id="Node000018" class="node">
<title>Node18</title>
<g id="a_Node000018"><a xlink:title=" ">
<polygon fill="#e0e0e0" stroke="#999999" points="775.25,-132 738.25,-132 738.25,-112 775.25,-112 775.25,-132"/>
<text text-anchor="middle" x="756.75" y="-118.5" font-family="Helvetica,sans-Serif" font-size="10.00">tuple</text>
</a>
</g>
</g>
<!-- Node1&#45;&gt;Node18 -->
<g id="edge32_Node000001_Node000018" class="edge">
<title>Node1&#45;&gt;Node18</title>
<g id="a_edge32_Node000001_Node000018"><a xlink:title=" ">
<path fill="none" stroke="#63b8ff" d="M489.92,-170.1C551.55,-163.58 641.12,-152.09 727,-132.32"/>
<polygon fill="#63b8ff" stroke="#63b8ff" points="727.58,-135.77 736.52,-130.08 725.98,-128.96 727.58,-135.77"/>
</a>
</g>
</g>
<!-- Node3 -->
<g id="Node000003" class="node">
<title>Node3</title>
<g id="a_Node000003"><a xlink:title=" ">
<polygon fill="#e0e0e0" stroke="#999999" points="417.25,-20 374.25,-20 374.25,0 417.25,0 417.25,-20"/>
<text text-anchor="middle" x="395.75" y="-6.5" font-family="Helvetica,sans-Serif" font-size="10.00">vector</text>
</a>
</g>
</g>
<!-- Node2&#45;&gt;Node3 -->
<g id="edge2_Node000002_Node000003" class="edge">
<title>Node2&#45;&gt;Node3</title>
<g id="a_edge2_Node000002_Node000003"><a xlink:title=" ">
<path fill="none" stroke="#63b8ff" d="M413.13,-111.62C410.09,-94.01 403.45,-55.59 399.32,-31.65"/>
<polygon fill="#63b8ff" stroke="#63b8ff" points="402.77,-31.1 397.62,-21.85 395.88,-32.3 402.77,-31.1"/>
</a>
</g>
</g>
<!-- Node4 -->
<g id="Node000004" class="node">
<title>Node4</title>
<g id="a_Node000004"><a xlink:title=" ">
<polygon fill="#e0e0e0" stroke="#999999" points="618.75,-20 578.75,-20 578.75,0 618.75,0 618.75,-20"/>
<text text-anchor="middle" x="598.75" y="-6.5" font-family="Helvetica,sans-Serif" font-size="10.00">string</text>
</a>
</g>
</g>
<!-- Node2&#45;&gt;Node4 -->
<g id="edge3_Node000002_Node000004" class="edge">
<title>Node2&#45;&gt;Node4</title>
<g id="a_edge3_Node000002_Node000004"><a xlink:title=" ">
<path fill="none" stroke="#63b8ff" d="M420.62,-111.69C429.87,-97.71 449.14,-71.33 471.75,-56 501.1,-36.11 540.21,-24 567.24,-17.42"/>
<polygon fill="#63b8ff" stroke="#63b8ff" points="567.94,-20.86 576.9,-15.2 566.37,-14.03 567.94,-20.86"/>
</a>
</g>
</g>
<!-- Node5 -->
<g id="Node000005" class="node">
<title>Node5</title>
<g id="a_Node000005"><a xlink:title=" ">
<polygon fill="#e0e0e0" stroke="#999999" points="208.75,-76 150.75,-76 150.75,-56 208.75,-56 208.75,-76"/>
<text text-anchor="middle" x="179.75" y="-62.5" font-family="Helvetica,sans-Serif" font-size="10.00">functional</text>
</a>
</g>
</g>
<!-- Node2&#45;&gt;Node5 -->
<g id="edge4_Node000002_Node000005" class="edge">
<title>Node2&#45;&gt;Node5</title>
<g id="a_edge4_Node000002_Node000005"><a xlink:title=" ">
<path fill="none" stroke="#63b8ff" d="M372.84,-111.53C335.28,-103.02 278.38,-90.07 220.1,-76.53"/>
<polygon fill="#63b8ff" stroke="#63b8ff" points="221.21,-73.2 210.68,-74.34 219.62,-80.02 221.21,-73.2"/>
</a>
</g>
</g>
<!-- Node6 -->
<g id="Node000006" class="node">
<title>Node6</title>
<g id="a_Node000006"><a xlink:href="Graph_8h.html" target="_top" xlink:title=" ">
<polygon fill="white" stroke="#666666" points="348.25,-76 227.25,-76 227.25,-56 348.25,-56 348.25,-76"/>
<text text-anchor="middle" x="287.75" y="-62.5" font-family="Helvetica,sans-Serif" font-size="10.00">data_structures/Graph.h</text>
</a>
</g>
</g>
<!-- Node2&#45;&gt;Node6 -->
<g id="edge5_Node000002_Node000006" class="edge">
<title>Node2&#45;&gt;Node6</title>
<g id="a_edge5_Node000002_Node000006"><a xlink:title=" ">
<path fill="none" stroke="#63b8ff" d="M392.63,-111.59C372.72,-103.13 343.2,-90.58 320.54,-80.94"/>
<polygon fill="#63b8ff" stroke="#63b8ff" points="322.01,-77.76 311.44,-77.07 319.27,-84.21 322.01,-77.76"/>
</a>
</g>
</g>
<!-- Node11 -->
<g id="Node000011" class="node">
<title>Node11</title>
<g id="a_Node000011"><a xlink:href="Submission_8h.html" target="_top" xlink:title=" ">
<polygon fill="white" stroke="#666666" points="590.62,-76 480.88,-76 480.88,-56 590.62,-56 590.62,-76"/>
<text text-anchor="middle" x="535.75" y="-62.5" font-family="Helvetica,sans-Serif" font-size="10.00">models/Submission.h</text>
</a>
</g>
</g>
<!-- Node2&#45;&gt;Node11 -->
<g id="edge11_Node000002_Node000011" class="edge">
<title>Node2&#45;&gt;Node11</title>
<g id="a_edge11_Node000002_Node000011"><a xlink:title=" ">
<path fill="none" stroke="#63b8ff" d="M435.83,-111.59C454.71,-103.17 482.67,-90.69 504.21,-81.07"/>
<polygon fill="#63b8ff" stroke="#63b8ff" points="505.42,-84.37 513.13,-77.1 502.57,-77.98 505.42,-84.37"/>
</a>
</g>
</g>
<!-- Node12 -->
<g id="Node000012" class="node">
<title>Node12</title>
<g id="a_Node000012"><a xlink:href="Reviewer_8h.html" target="_top" xlink:title=" ">
<polygon fill="white" stroke="#666666" points="873.38,-76 774.12,-76 774.12,-56 873.38,-56 873.38,-76"/>
<text text-anchor="middle" x="823.75" y="-62.5" font-family="Helvetica,sans-Serif" font-size="10.00">models/Reviewer.h</text>
</a>
</g>
</g>
<!-- Node2&#45;&gt;Node12 -->
<g id="edge13_Node000002_Node000012" class="edge">
<title>Node2&#45;&gt;Node12</title>
<g id="a_edge13_Node000002_Node000012"><a xlink:title=" ">
<path fill="none" stroke="#63b8ff" d="M484.59,-111.78C562.83,-101.45 688.39,-84.87 762.8,-75.05"/>
<polygon fill="#63b8ff" stroke="#63b8ff" points="762.89,-78.57 772.34,-73.79 761.97,-71.63 762.89,-78.57"/>
</a>
</g>
</g>
<!-- Node13 -->
<g id="Node000013" class="node">
<title>Node13</title>
<g id="a_Node000013"><a xlink:href="Parameters_8h.html" target="_top" xlink:title=" ">
<polygon fill="white" stroke="#666666" points="717.25,-76 608.25,-76 608.25,-56 717.25,-56 717.25,-76"/>
<text text-anchor="middle" x="662.75" y="-62.5" font-family="Helvetica,sans-Serif" font-size="10.00">models/Parameters.h</text>
</a>
</g>
</g>
<!-- Node2&#45;&gt;Node13 -->
<g id="edge15_Node000002_Node000013" class="edge">
<title>Node2&#45;&gt;Node13</title>
<g id="a_edge15_Node000002_Node000013"><a xlink:title=" ">
<path fill="none" stroke="#63b8ff" d="M458.23,-111.53C499.98,-102.44 563.18,-88.68 608.27,-78.86"/>
<polygon fill="#63b8ff" stroke="#63b8ff" points="608.81,-82.33 617.84,-76.78 607.32,-75.49 608.81,-82.33"/>
</a>
</g>
</g>
<!-- Node6&#45;&gt;Node3 -->
<g id="edge7_Node000006_Node000003" class="edge">
<title>Node6&#45;&gt;Node3</title>
<g id="a_edge7_Node000006_Node000003"><a xlink:title=" ">
<path fill="none" stroke="#63b8ff" d="M306.56,-55.59C323.11,-47.32 347.46,-35.14 366.54,-25.6"/>
<polygon fill="#63b8ff" stroke="#63b8ff" points="368.06,-28.76 375.44,-21.16 364.93,-22.5 368.06,-28.76"/>
</a>
</g>
</g>
<!-- Node6&#45;&gt;Node7 -->
<g id="edge6_Node000006_Node000007" class="edge">
<title>Node6&#45;&gt;Node7</title>
<g id="a_edge6_Node000006_Node000007"><a xlink:title=" ">
<path fill="none" stroke="#63b8ff" d="M241.16,-55.55C196.81,-46.52 128.2,-32.48 68.75,-20 67.55,-19.75 66.32,-19.49 65.09,-19.23"/>
<polygon fill="#63b8ff" stroke="#63b8ff" points="65.84,-15.81 55.34,-17.16 64.39,-22.66 65.84,-15.81"/>
</a>
</g>
</g>
<!-- Node8 -->
<g id="Node000008" class="node">
<title>Node8</title>
<g id="a_Node000008"><a xlink:title=" ">
<polygon fill="#e0e0e0" stroke="#999999" points="196.88,-20 154.62,-20 154.62,0 196.88,0 196.88,-20"/>
<text text-anchor="middle" x="175.75" y="-6.5" font-family="Helvetica,sans-Serif" font-size="10.00">queue</text>
</a>
</g>
</g>
<!-- Node6&#45;&gt;Node8 -->
<g id="edge8_Node000006_Node000008" class="edge">
<title>Node6&#45;&gt;Node8</title>
<g id="a_edge8_Node000006_Node000008"><a xlink:title=" ">
<path fill="none" stroke="#63b8ff" d="M268.24,-55.59C251,-47.28 225.59,-35.03 205.76,-25.47"/>
<polygon fill="#63b8ff" stroke="#63b8ff" points="207.3,-22.33 196.77,-21.14 204.26,-28.63 207.3,-22.33"/>
</a>
</g>
</g>
<!-- Node9 -->
<g id="Node000009" class="node">
<title>Node9</title>
<g id="a_Node000009"><a xlink:title=" ">
<polygon fill="#e0e0e0" stroke="#999999" points="307.38,-20 268.12,-20 268.12,0 307.38,0 307.38,-20"/>
<text text-anchor="middle" x="287.75" y="-6.5" font-family="Helvetica,sans-Serif" font-size="10.00">limits</text>
</a>
</g>
</g>
<!-- Node6&#45;&gt;Node9 -->
<g id="edge9_Node000006_Node000009" class="edge">
<title>Node6&#45;&gt;Node9</title>
<g id="a_edge9_Node000006_Node000009"><a xlink:title=" ">
<path fill="none" stroke="#63b8ff" d="M287.75,-55.59C287.75,-49.01 287.75,-39.96 287.75,-31.73"/>
<polygon fill="#63b8ff" stroke="#63b8ff" points="291.25,-31.81 287.75,-21.81 284.25,-31.81 291.25,-31.81"/>
</a>
</g>
</g>
<!-- Node6&#45;&gt;Node10 -->
<g id="edge10_Node000006_Node000010" class="edge">
<title>Node6&#45;&gt;Node10</title>
<g id="a_edge10_Node000006_Node000010"><a xlink:title=" ">
<path fill="none" stroke="#63b8ff" d="M256.05,-55.59C225.12,-46.42 178.01,-32.44 144.79,-22.58"/>
<polygon fill="#63b8ff" stroke="#63b8ff" points="146.13,-19.33 135.55,-19.84 144.14,-26.04 146.13,-19.33"/>
</a>
</g>
</g>
<!-- Node11&#45;&gt;Node4 -->
<g id="edge12_Node000011_Node000004" class="edge">
<title>Node11&#45;&gt;Node4</title>
<g id="a_edge12_Node000011_Node000004"><a xlink:title=" ">
<path fill="none" stroke="#63b8ff" d="M546.72,-55.59C555.67,-47.93 568.52,-36.91 579.21,-27.75"/>
<polygon fill="#63b8ff" stroke="#63b8ff" points="581.44,-30.45 586.75,-21.28 576.88,-25.13 581.44,-30.45"/>
</a>
</g>
</g>
<!-- Node12&#45;&gt;Node4 -->
<g id="edge14_Node000012_Node000004" class="edge">
<title>Node12&#45;&gt;Node4</title>
<g id="a_edge14_Node000012_Node000004"><a xlink:title=" ">
<path fill="none" stroke="#63b8ff" d="M784.3,-55.53C740.37,-44.99 670.25,-28.16 629.96,-18.49"/>
<polygon fill="#63b8ff" stroke="#63b8ff" points="630.97,-15.13 620.43,-16.2 629.34,-21.94 630.97,-15.13"/>
</a>
</g>
</g>
<!-- Node13&#45;&gt;Node4 -->
<g id="edge16_Node000013_Node000004" class="edge">
<title>Node13&#45;&gt;Node4</title>
<g id="a_edge16_Node000013_Node000004"><a xlink:title=" ">
<path fill="none" stroke="#63b8ff" d="M651.6,-55.59C642.42,-47.85 629.2,-36.69 618.27,-27.47"/>
<polygon fill="#63b8ff" stroke="#63b8ff" points="620.83,-25.05 610.93,-21.27 616.31,-30.4 620.83,-25.05"/>
</a>
</g>
</g>
<!-- Node14&#45;&gt;Node3 -->
<g id="edge22_Node000014_Node000003" class="edge">
<title>Node14&#45;&gt;Node3</title>
<g id="a_edge22_Node000014_Node000003"><a xlink:title=" ">
<path fill="none" stroke="#63b8ff" d="M653.19,-112.23C702.64,-103.47 753.57,-86.72 726.75,-56 707.29,-33.72 508.61,-18.37 428.73,-13.06"/>
<polygon fill="#63b8ff" stroke="#63b8ff" points="429.13,-9.57 418.92,-12.42 428.67,-16.56 429.13,-9.57"/>
</a>
</g>
</g>
<!-- Node14&#45;&gt;Node6 -->
<g id="edge18_Node000014_Node000006" class="edge">
<title>Node14&#45;&gt;Node6</title>
<g id="a_edge18_Node000014_Node000006"><a xlink:title=" ">
<path fill="none" stroke="#63b8ff" d="M526.9,-111.53C477.57,-102.35 402.61,-88.39 349.79,-78.55"/>
<polygon fill="#63b8ff" stroke="#63b8ff" points="350.5,-75.12 340.03,-76.73 349.22,-82.01 350.5,-75.12"/>
</a>
</g>
</g>
<!-- Node14&#45;&gt;Node11 -->
<g id="edge19_Node000014_Node000011" class="edge">
<title>Node14&#45;&gt;Node11</title>
<g id="a_edge19_Node000014_Node000011"><a xlink:title=" ">
<path fill="none" stroke="#63b8ff" d="M570.43,-111.59C564.77,-104.32 556.76,-94.02 549.86,-85.15"/>
<polygon fill="#63b8ff" stroke="#63b8ff" points="552.81,-83.24 543.91,-77.49 547.29,-87.54 552.81,-83.24"/>
</a>
</g>
</g>
<!-- Node14&#45;&gt;Node12 -->
<g id="edge20_Node000014_Node000012" class="edge">
<title>Node14&#45;&gt;Node12</title>
<g id="a_edge20_Node000014_Node000012"><a xlink:title=" ">
<path fill="none" stroke="#63b8ff" d="M620.88,-111.53C662.21,-102.46 724.72,-88.74 769.42,-78.93"/>
<polygon fill="#63b8ff" stroke="#63b8ff" points="770.17,-82.34 779.19,-76.78 768.67,-75.51 770.17,-82.34"/>
</a>
</g>
</g>
<!-- Node14&#45;&gt;Node13 -->
<g id="edge21_Node000014_Node000013" class="edge">
<title>Node14&#45;&gt;Node13</title>
<g id="a_edge21_Node000014_Node000013"><a xlink:title=" ">
<path fill="none" stroke="#63b8ff" d="M592.56,-111.59C605.15,-103.59 623.5,-91.93 638.28,-82.54"/>
<polygon fill="#63b8ff" stroke="#63b8ff" points="639.99,-85.61 646.55,-77.29 636.23,-79.7 639.99,-85.61"/>
</a>
</g>
</g>
<!-- Node15&#45;&gt;Node3 -->
<g id="edge26_Node000015_Node000003" class="edge">
<title>Node15&#45;&gt;Node3</title>
<g id="a_edge26_Node000015_Node000003"><a xlink:title=" ">
<path fill="none" stroke="#63b8ff" d="M279.51,-111.55C305.56,-105 335.43,-94.08 357.75,-76 372.34,-64.19 382.52,-45.17 388.64,-30.75"/>
<polygon fill="#63b8ff" stroke="#63b8ff" points="391.76,-32.4 392.14,-21.81 385.24,-29.85 391.76,-32.4"/>
</a>
</g>
</g>
<!-- Node15&#45;&gt;Node5 -->
<g id="edge28_Node000015_Node000005" class="edge">
<title>Node15&#45;&gt;Node5</title>
<g id="a_edge28_Node000015_Node000005"><a xlink:title=" ">
<path fill="none" stroke="#63b8ff" d="M214.43,-111.59C208.77,-104.32 200.76,-94.02 193.86,-85.15"/>
<polygon fill="#63b8ff" stroke="#63b8ff" points="196.81,-83.24 187.91,-77.49 191.29,-87.54 196.81,-83.24"/>
</a>
</g>
</g>
<!-- Node15&#45;&gt;Node6 -->
<g id="edge24_Node000015_Node000006" class="edge">
<title>Node15&#45;&gt;Node6</title>
<g id="a_edge24_Node000015_Node000006"><a xlink:title=" ">
<path fill="none" stroke="#63b8ff" d="M233.25,-111.59C242.71,-103.85 256.35,-92.69 267.62,-83.47"/>
<polygon fill="#63b8ff" stroke="#63b8ff" points="269.69,-86.3 275.21,-77.26 265.26,-80.88 269.69,-86.3"/>
</a>
</g>
</g>
<!-- Node15&#45;&gt;Node8 -->
<g id="edge25_Node000015_Node000008" class="edge">
<title>Node15&#45;&gt;Node8</title>
<g id="a_edge25_Node000015_Node000008"><a xlink:title=" ">
<path fill="none" stroke="#63b8ff" d="M189.06,-111.54C171.74,-104.68 151.97,-93.47 141.75,-76 132.47,-60.13 144.47,-41.49 156.7,-28.24"/>
<polygon fill="#63b8ff" stroke="#63b8ff" points="158.87,-31.02 163.48,-21.48 153.93,-26.07 158.87,-31.02"/>
</a>
</g>
</g>
<!-- Node16 -->
<g id="Node000016" class="node">
<title>Node16</title>
<g id="a_Node000016"><a xlink:title=" ">
<polygon fill="#e0e0e0" stroke="#999999" points="95.12,-76 36.38,-76 36.38,-56 95.12,-56 95.12,-76"/>
<text text-anchor="middle" x="65.75" y="-62.5" font-family="Helvetica,sans-Serif" font-size="10.00">stdexcept</text>
</a>
</g>
</g>
<!-- Node15&#45;&gt;Node16 -->
<g id="edge27_Node000015_Node000016" class="edge">
<title>Node15&#45;&gt;Node16</title>
<g id="a_edge27_Node000015_Node000016"><a xlink:title=" ">
<path fill="none" stroke="#63b8ff" d="M194.58,-111.59C169.45,-102.9 131.87,-89.89 103.77,-80.16"/>
<polygon fill="#63b8ff" stroke="#63b8ff" points="105.16,-76.94 94.57,-76.97 102.87,-83.55 105.16,-76.94"/>
</a>
</g>
</g>
</g>
</svg>
