<?xml version="1.0" encoding="UTF-8" standalone="no"?>
<!DOCTYPE svg PUBLIC "-//W3C//DTD SVG 1.1//EN"
 "http://www.w3.org/Graphics/SVG/1.1/DTD/svg11.dtd">
<!-- Generated by graphviz version 12.2.1 (0)
 -->
<!-- Title: ConferenceApp Pages: 1 -->
<svg width="177pt" height="100pt"
 viewBox="0.00 0.00 177.02 99.75" xmlns="http://www.w3.org/2000/svg" xmlns:xlink="http://www.w3.org/1999/xlink">
<g id="graph0" class="graph" transform="scale(1 1) rotate(0) translate(4 95.75)">
<title>ConferenceApp</title>
<!-- Node1 -->
<g id="Node000001" class="node">
<title>Node1</title>
<g id="a_Node000001"><a xlink:title="Main application controller handling CLI interactions and batch mode.">
<polygon fill="#999999" stroke="#666666" points="117.88,-19.25 34.38,-19.25 34.38,0 117.88,0 117.88,-19.25"/>
<text text-anchor="middle" x="76.12" y="-5.75" font-family="Helvetica,sans-Serif" font-size="10.00">ConferenceApp</text>
</a>
</g>
</g>
<!-- Node2 -->
<g id="Node000002" class="node">
<title>Node2</title>
<g id="a_Node000002"><a xlink:href="struct_parameters.html" target="_top" xlink:title="Struct to hold global configuration parameters.">
<polygon fill="white" stroke="#666666" points="66.25,-91.75 0,-91.75 0,-72.5 66.25,-72.5 66.25,-91.75"/>
<text text-anchor="middle" x="33.12" y="-78.25" font-family="Helvetica,sans-Serif" font-size="10.00">Parameters</text>
</a>
</g>
</g>
<!-- Node2&#45;&gt;Node1 -->
<g id="edge1_Node000001_Node000002" class="edge">
<title>Node2&#45;&gt;Node1</title>
<g id="a_edge1_Node000001_Node000002"><a xlink:title=" ">
<path fill="none" stroke="#9a32cd" stroke-dasharray="5,2" d="M38.85,-61.44C41.61,-53.57 45.37,-44.64 50.12,-37.25 54.32,-30.73 60.29,-24.47 65.46,-19.66"/>
<polygon fill="#9a32cd" stroke="#9a32cd" points="35.57,-60.19 35.88,-70.78 42.24,-62.31 35.57,-60.19"/>
</a>
</g>
<text text-anchor="start" x="53.12" y="-42" font-family="Helvetica,sans-Serif" font-size="10.00" fill="grey">mParams</text>
</g>
<!-- Node3 -->
<g id="Node000003" class="node">
<title>Node3</title>
<g id="a_Node000003"><a xlink:href="class_graph.html" target="_top" xlink:title=" ">
<polygon fill="white" stroke="#666666" points="155.5,-91.75 84.75,-91.75 84.75,-72.5 155.5,-72.5 155.5,-91.75"/>
<text text-anchor="middle" x="120.12" y="-78.25" font-family="Helvetica,sans-Serif" font-size="10.00">Graph&lt; int &gt;</text>
</a>
</g>
</g>
<!-- Node3&#45;&gt;Node1 -->
<g id="edge2_Node000001_Node000003" class="edge">
<title>Node3&#45;&gt;Node1</title>
<g id="a_edge2_Node000001_Node000003"><a xlink:title=" ">
<path fill="none" stroke="#9a32cd" stroke-dasharray="5,2" d="M111.55,-61.71C107.81,-53.89 103.13,-44.92 98.12,-37.25 94.06,-31.02 88.78,-24.58 84.4,-19.59"/>
<polygon fill="#9a32cd" stroke="#9a32cd" points="108.32,-63.06 115.67,-70.69 114.68,-60.14 108.32,-63.06"/>
</a>
</g>
<text text-anchor="start" x="110.52" y="-42" font-family="Helvetica,sans-Serif" font-size="10.00" fill="grey">mFlowGraph</text>
</g>
</g>
</svg>
