<?xml version="1.0" encoding="UTF-8" standalone="no"?>
<!DOCTYPE svg PUBLIC "-//W3C//DTD SVG 1.1//EN"
 "http://www.w3.org/Graphics/SVG/1.1/DTD/svg11.dtd">
<!-- Generated by graphviz version 12.2.1 (0)
 -->
<!-- Title: ConferenceApp Pages: 1 -->
<svg width="178pt" height="102pt"
 viewBox="0.00 0.00 177.67 102.00" xmlns="http://www.w3.org/2000/svg" xmlns:xlink="http://www.w3.org/1999/xlink">
<g id="graph0" class="graph" transform="scale(1 1) rotate(0) translate(4 98)">
<title>ConferenceApp</title>
<!-- Node1 -->
<g id="Node000001" class="node">
<title>Node1</title>
<g id="a_Node000001"><a xlink:title="Main application controller handling CLI interactions and batch mode.">
<polygon fill="#999999" stroke="#666666" points="117.88,-20 34.38,-20 34.38,0 117.88,0 117.88,-20"/>
<text text-anchor="middle" x="76.12" y="-6.5" font-family="Helvetica,sans-Serif" font-size="10.00">ConferenceApp</text>
</a>
</g>
</g>
<!-- Node2 -->
<g id="Node000002" class="node">
<title>Node2</title>
<g id="a_Node000002"><a xlink:href="structParameters.html" target="_top" xlink:title="Struct to hold global configuration parameters.">
<polygon fill="white" stroke="#666666" points="66.25,-94 0,-94 0,-74 66.25,-74 66.25,-94"/>
<text text-anchor="middle" x="33.12" y="-80.5" font-family="Helvetica,sans-Serif" font-size="10.00">Parameters</text>
</a>
</g>
</g>
<!-- Node2&#45;&gt;Node1 -->
<g id="edge1_Node000001_Node000002" class="edge">
<title>Node2&#45;&gt;Node1</title>
<g id="a_edge1_Node000001_Node000002"><a xlink:title=" ">
<path fill="none" stroke="#9a32cd" stroke-dasharray="5,2" d="M38.81,-62.8C41.56,-54.74 45.33,-45.59 50.12,-38 54.23,-31.51 60.07,-25.27 65.18,-20.42"/>
<polygon fill="#9a32cd" stroke="#9a32cd" points="35.55,-61.49 35.94,-72.08 42.23,-63.56 35.55,-61.49"/>
</a>
</g>
<text text-anchor="start" x="53.12" y="-43.5" font-family="Helvetica,sans-Serif" font-size="10.00" fill="grey">mParams</text>
</g>
<!-- Node3 -->
<g id="Node000003" class="node">
<title>Node3</title>
<g id="a_Node000003"><a xlink:href="classGraph.html" target="_top" xlink:title=" ">
<polygon fill="white" stroke="#666666" points="155.5,-94 84.75,-94 84.75,-74 155.5,-74 155.5,-94"/>
<text text-anchor="middle" x="120.12" y="-80.5" font-family="Helvetica,sans-Serif" font-size="10.00">Graph&lt; int &gt;</text>
</a>
</g>
</g>
<!-- Node3&#45;&gt;Node1 -->
<g id="edge2_Node000001_Node000003" class="edge">
<title>Node3&#45;&gt;Node1</title>
<g id="a_edge2_Node000001_Node000003"><a xlink:title=" ">
<path fill="none" stroke="#9a32cd" stroke-dasharray="5,2" d="M111.72,-63.37C107.96,-55.28 103.22,-45.97 98.12,-38 94.08,-31.68 88.8,-25.15 84.42,-20.1"/>
<polygon fill="#9a32cd" stroke="#9a32cd" points="108.44,-64.61 115.71,-72.32 114.84,-61.76 108.44,-64.61"/>
</a>
</g>
<text text-anchor="start" x="111.17" y="-43.5" font-family="Helvetica,sans-Serif" font-size="10.00" fill="grey">mFlowGraph</text>
</g>
</g>
</svg>
