<?xml version="1.0" encoding="UTF-8" standalone="no"?>
<!DOCTYPE svg PUBLIC "-//W3C//DTD SVG 1.1//EN"
 "http://www.w3.org/Graphics/SVG/1.1/DTD/svg11.dtd">
<!-- Generated by graphviz version 12.2.1 (0)
 -->
<!-- Title: ui/ConferenceApp.h Pages: 1 -->
<svg width="194pt" height="84pt"
 viewBox="0.00 0.00 194.25 84.00" xmlns="http://www.w3.org/2000/svg" xmlns:xlink="http://www.w3.org/1999/xlink">
<g id="graph0" class="graph" transform="scale(1 1) rotate(0) translate(4 80)">
<title>ui/ConferenceApp.h</title>
<!-- Node1 -->
<g id="Node000001" class="node">
<title>Node1</title>
<g id="a_Node000001"><a xlink:title=" ">
<polygon fill="#999999" stroke="#666666" points="130,-76 27.75,-76 27.75,-56 130,-56 130,-76"/>
<text text-anchor="middle" x="78.88" y="-62.5" font-family="Helvetica,sans-Serif" font-size="10.00">ui/ConferenceApp.h</text>
</a>
</g>
</g>
<!-- Node2 -->
<g id="Node000002" class="node">
<title>Node2</title>
<g id="a_Node000002"><a xlink:href="main_8cpp.html" target="_top" xlink:title=" ">
<polygon fill="white" stroke="#666666" points="55.75,-20 0,-20 0,0 55.75,0 55.75,-20"/>
<text text-anchor="middle" x="27.88" y="-6.5" font-family="Helvetica,sans-Serif" font-size="10.00">main.cpp</text>
</a>
</g>
</g>
<!-- Node1&#45;&gt;Node2 -->
<g id="edge1_Node000001_Node000002" class="edge">
<title>Node1&#45;&gt;Node2</title>
<g id="a_edge1_Node000001_Node000002"><a xlink:title=" ">
<path fill="none" stroke="#63b8ff" d="M62.14,-47.29C53.64,-38.28 43.65,-27.7 36.66,-20.3"/>
<polygon fill="#63b8ff" stroke="#63b8ff" points="59.54,-49.63 68.95,-54.49 64.63,-44.82 59.54,-49.63"/>
</a>
</g>
</g>
<!-- Node3 -->
<g id="Node000003" class="node">
<title>Node3</title>
<g id="a_Node000003"><a xlink:href="ConferenceApp_8cpp.html" target="_top" xlink:title=" ">
<polygon fill="white" stroke="#666666" points="186.25,-20 73.5,-20 73.5,0 186.25,0 186.25,-20"/>
<text text-anchor="middle" x="129.88" y="-6.5" font-family="Helvetica,sans-Serif" font-size="10.00">ui/ConferenceApp.cpp</text>
</a>
</g>
</g>
<!-- Node1&#45;&gt;Node3 -->
<g id="edge2_Node000001_Node000003" class="edge">
<title>Node1&#45;&gt;Node3</title>
<g id="a_edge2_Node000001_Node000003"><a xlink:title=" ">
<path fill="none" stroke="#63b8ff" d="M95.61,-47.29C104.11,-38.28 114.1,-27.7 121.09,-20.3"/>
<polygon fill="#63b8ff" stroke="#63b8ff" points="93.12,-44.82 88.8,-54.49 98.21,-49.63 93.12,-44.82"/>
</a>
</g>
</g>
</g>
</svg>
