<?xml version="1.0" encoding="UTF-8" standalone="no"?>
<!DOCTYPE svg PUBLIC "-//W3C//DTD SVG 1.1//EN"
 "http://www.w3.org/Graphics/SVG/1.1/DTD/svg11.dtd">
<!-- Generated by graphviz version 12.2.1 (0)
 -->
<!-- Title: ui/ConferenceApp.cpp Pages: 1 -->
<svg width="1035pt" height="196pt"
 viewBox="0.00 0.00 1034.56 196.00" xmlns="http://www.w3.org/2000/svg" xmlns:xlink="http://www.w3.org/1999/xlink">
<g id="graph0" class="graph" transform="scale(1 1) rotate(0) translate(4 192)">
<title>ui/ConferenceApp.cpp</title>
<!-- Node1 -->
<g id="Node000001" class="node">
<title>Node1</title>
<g id="a_Node000001"><a xlink:title=" ">
<polygon fill="#999999" stroke="#666666" points="425.12,-188 312.38,-188 312.38,-168 425.12,-168 425.12,-188"/>
<text text-anchor="middle" x="368.75" y="-174.5" font-family="Helvetica,sans-Serif" font-size="10.00">ui/ConferenceApp.cpp</text>
</a>
</g>
</g>
<!-- Node2 -->
<g id="Node000002" class="node">
<title>Node2</title>
<g id="a_Node000002"><a xlink:href="ConferenceApp_8h.html" target="_top" xlink:title=" ">
<polygon fill="white" stroke="#666666" points="563.62,-132 471.88,-132 471.88,-112 563.62,-112 563.62,-132"/>
<text text-anchor="middle" x="517.75" y="-118.5" font-family="Helvetica,sans-Serif" font-size="10.00">ConferenceApp.h</text>
</a>
</g>
</g>
<!-- Node1&#45;&gt;Node2 -->
<g id="edge1_Node000001_Node000002" class="edge">
<title>Node1&#45;&gt;Node2</title>
<g id="a_edge1_Node000001_Node000002"><a xlink:title=" ">
<path fill="none" stroke="#63b8ff" d="M394.7,-167.59C418.59,-158.94 454.28,-146 481.08,-136.29"/>
<polygon fill="#63b8ff" stroke="#63b8ff" points="481.96,-139.69 490.17,-133 479.58,-133.11 481.96,-139.69"/>
</a>
</g>
</g>
<!-- Node9 -->
<g id="Node000009" class="node">
<title>Node9</title>
<g id="a_Node000009"><a xlink:title=" ">
<polygon fill="#e0e0e0" stroke="#999999" points="53.5,-20 0,-20 0,0 53.5,0 53.5,-20"/>
<text text-anchor="middle" x="26.75" y="-6.5" font-family="Helvetica,sans-Serif" font-size="10.00">iostream</text>
</a>
</g>
</g>
<!-- Node1&#45;&gt;Node9 -->
<g id="edge16_Node000001_Node000009" class="edge">
<title>Node1&#45;&gt;Node9</title>
<g id="a_edge16_Node000001_Node000009"><a xlink:title=" ">
<path fill="none" stroke="#63b8ff" d="M312.17,-173.82C241.15,-168.83 124.41,-157.02 89.75,-132 55.78,-107.47 38.67,-59.06 31.35,-31.49"/>
<polygon fill="#63b8ff" stroke="#63b8ff" points="34.78,-30.8 29,-21.92 27.98,-32.46 34.78,-30.8"/>
</a>
</g>
</g>
<!-- Node11 -->
<g id="Node000011" class="node">
<title>Node11</title>
<g id="a_Node000011"><a xlink:title=" ">
<polygon fill="#e0e0e0" stroke="#999999" points="151.38,-20 112.12,-20 112.12,0 151.38,0 151.38,-20"/>
<text text-anchor="middle" x="131.75" y="-6.5" font-family="Helvetica,sans-Serif" font-size="10.00">limits</text>
</a>
</g>
</g>
<!-- Node1&#45;&gt;Node11 -->
<g id="edge20_Node000001_Node000011" class="edge">
<title>Node1&#45;&gt;Node11</title>
<g id="a_edge20_Node000001_Node000011"><a xlink:title=" ">
<path fill="none" stroke="#63b8ff" d="M312.13,-175.8C241.4,-172.96 126.41,-163.49 99.75,-132 94.31,-125.57 87,-98.84 100.75,-56 103.85,-46.35 109.76,-36.91 115.6,-29.19"/>
<polygon fill="#63b8ff" stroke="#63b8ff" points="118.17,-31.58 121.78,-21.62 112.75,-27.15 118.17,-31.58"/>
</a>
</g>
</g>
<!-- Node12 -->
<g id="Node000012" class="node">
<title>Node12</title>
<g id="a_Node000012"><a xlink:title=" ">
<polygon fill="#e0e0e0" stroke="#999999" points="245.62,-20 189.88,-20 189.88,0 245.62,0 245.62,-20"/>
<text text-anchor="middle" x="217.75" y="-6.5" font-family="Helvetica,sans-Serif" font-size="10.00">algorithm</text>
</a>
</g>
</g>
<!-- Node1&#45;&gt;Node12 -->
<g id="edge18_Node000001_Node000012" class="edge">
<title>Node1&#45;&gt;Node12</title>
<g id="a_edge18_Node000001_Node000012"><a xlink:title=" ">
<path fill="none" stroke="#63b8ff" d="M311.99,-175.1C245.21,-171.52 140.28,-161.28 115.75,-132 94.06,-106.11 97.31,-84.3 115.75,-56 129.67,-34.64 156.28,-23.35 178.83,-17.42"/>
<polygon fill="#63b8ff" stroke="#63b8ff" points="179.41,-20.87 188.35,-15.19 177.82,-14.06 179.41,-20.87"/>
</a>
</g>
</g>
<!-- Node13 -->
<g id="Node000013" class="node">
<title>Node13</title>
<g id="a_Node000013"><a xlink:title=" ">
<polygon fill="#e0e0e0" stroke="#999999" points="320.25,-132 271.25,-132 271.25,-112 320.25,-112 320.25,-132"/>
<text text-anchor="middle" x="295.75" y="-118.5" font-family="Helvetica,sans-Serif" font-size="10.00">fstream</text>
</a>
</g>
</g>
<!-- Node1&#45;&gt;Node13 -->
<g id="edge17_Node000001_Node000013" class="edge">
<title>Node1&#45;&gt;Node13</title>
<g id="a_edge17_Node000001_Node000013"><a xlink:title=" ">
<path fill="none" stroke="#63b8ff" d="M356.03,-167.59C345.36,-159.7 329.87,-148.24 317.27,-138.92"/>
<polygon fill="#63b8ff" stroke="#63b8ff" points="319.66,-136.33 309.54,-133.2 315.49,-141.96 319.66,-136.33"/>
</a>
</g>
</g>
<!-- Node14 -->
<g id="Node000014" class="node">
<title>Node14</title>
<g id="a_Node000014"><a xlink:title=" ">
<polygon fill="#e0e0e0" stroke="#999999" points="399.25,-132 338.25,-132 338.25,-112 399.25,-112 399.25,-132"/>
<text text-anchor="middle" x="368.75" y="-118.5" font-family="Helvetica,sans-Serif" font-size="10.00">filesystem</text>
</a>
</g>
</g>
<!-- Node1&#45;&gt;Node14 -->
<g id="edge19_Node000001_Node000014" class="edge">
<title>Node1&#45;&gt;Node14</title>
<g id="a_edge19_Node000001_Node000014"><a xlink:title=" ">
<path fill="none" stroke="#63b8ff" d="M368.75,-167.59C368.75,-161.01 368.75,-151.96 368.75,-143.73"/>
<polygon fill="#63b8ff" stroke="#63b8ff" points="372.25,-143.81 368.75,-133.81 365.25,-143.81 372.25,-143.81"/>
</a>
</g>
</g>
<!-- Node15 -->
<g id="Node000015" class="node">
<title>Node15</title>
<g id="a_Node000015"><a xlink:title=" ">
<polygon fill="#e0e0e0" stroke="#999999" points="454.25,-132 417.25,-132 417.25,-112 454.25,-112 454.25,-132"/>
<text text-anchor="middle" x="435.75" y="-118.5" font-family="Helvetica,sans-Serif" font-size="10.00">tuple</text>
</a>
</g>
</g>
<!-- Node1&#45;&gt;Node15 -->
<g id="edge21_Node000001_Node000015" class="edge">
<title>Node1&#45;&gt;Node15</title>
<g id="a_edge21_Node000001_Node000015"><a xlink:title=" ">
<path fill="none" stroke="#63b8ff" d="M380.42,-167.59C390.03,-159.85 403.88,-148.69 415.32,-139.47"/>
<polygon fill="#63b8ff" stroke="#63b8ff" points="417.45,-142.25 423.03,-133.25 413.05,-136.8 417.45,-142.25"/>
</a>
</g>
</g>
<!-- Node16 -->
<g id="Node000016" class="node">
<title>Node16</title>
<g id="a_Node000016"><a xlink:href="FileParser_8h.html" target="_top" xlink:title="Class definition for parsing input CSV files.">
<polygon fill="white" stroke="#666666" points="985.88,-132 907.62,-132 907.62,-112 985.88,-112 985.88,-132"/>
<text text-anchor="middle" x="946.75" y="-118.5" font-family="Helvetica,sans-Serif" font-size="10.00">io/FileParser.h</text>
</a>
</g>
</g>
<!-- Node1&#45;&gt;Node16 -->
<g id="edge22_Node000001_Node000016" class="edge">
<title>Node1&#45;&gt;Node16</title>
<g id="a_edge22_Node000001_Node000016"><a xlink:title=" ">
<path fill="none" stroke="#63b8ff" d="M425.43,-174.06C520.58,-168.73 718.64,-155.86 895.88,-132.27"/>
<polygon fill="#63b8ff" stroke="#63b8ff" points="896.31,-135.74 905.75,-130.93 895.37,-128.8 896.31,-135.74"/>
</a>
</g>
</g>
<!-- Node17 -->
<g id="Node000017" class="node">
<title>Node17</title>
<g id="a_Node000017"><a xlink:href="GraphBuilder_8h.html" target="_top" xlink:title=" ">
<polygon fill="white" stroke="#666666" points="731.88,-132 581.62,-132 581.62,-112 731.88,-112 731.88,-132"/>
<text text-anchor="middle" x="656.75" y="-118.5" font-family="Helvetica,sans-Serif" font-size="10.00">data_structures/GraphBuilder.h</text>
</a>
</g>
</g>
<!-- Node1&#45;&gt;Node17 -->
<g id="edge28_Node000001_Node000017" class="edge">
<title>Node1&#45;&gt;Node17</title>
<g id="a_edge28_Node000001_Node000017"><a xlink:title=" ">
<path fill="none" stroke="#63b8ff" d="M419.25,-167.53C468.24,-158.35 542.68,-144.39 595.14,-134.55"/>
<polygon fill="#63b8ff" stroke="#63b8ff" points="595.64,-138.02 604.83,-132.74 594.35,-131.14 595.64,-138.02"/>
</a>
</g>
</g>
<!-- Node18 -->
<g id="Node000018" class="node">
<title>Node18</title>
<g id="a_Node000018"><a xlink:href="EdmondKarp_8h.html" target="_top" xlink:title="Implementations of the Edmonds&#45;Karp algorithm for calculating maximum flow.">
<polygon fill="white" stroke="#666666" points="253,-132 124.5,-132 124.5,-112 253,-112 253,-132"/>
<text text-anchor="middle" x="188.75" y="-118.5" font-family="Helvetica,sans-Serif" font-size="10.00">algorithms/EdmondKarp.h</text>
</a>
</g>
</g>
<!-- Node1&#45;&gt;Node18 -->
<g id="edge34_Node000001_Node000018" class="edge">
<title>Node1&#45;&gt;Node18</title>
<g id="a_edge34_Node000001_Node000018"><a xlink:title=" ">
<path fill="none" stroke="#63b8ff" d="M337.4,-167.59C308.02,-158.78 263.89,-145.54 231.34,-135.78"/>
<polygon fill="#63b8ff" stroke="#63b8ff" points="232.38,-132.44 221.8,-132.91 230.37,-139.14 232.38,-132.44"/>
</a>
</g>
</g>
<!-- Node21 -->
<g id="Node000021" class="node">
<title>Node21</title>
<g id="a_Node000021"><a xlink:href="AssignmentLogic_8h.html" target="_top" xlink:title="Logic for assigning reviewers to submissions based on Max Flow.">
<polygon fill="white" stroke="#666666" points="889.25,-132 750.25,-132 750.25,-112 889.25,-112 889.25,-132"/>
<text text-anchor="middle" x="819.75" y="-118.5" font-family="Helvetica,sans-Serif" font-size="10.00">services/AssignmentLogic.h</text>
</a>
</g>
</g>
<!-- Node1&#45;&gt;Node21 -->
<g id="edge40_Node000001_Node000021" class="edge">
<title>Node1&#45;&gt;Node21</title>
<g id="a_edge40_Node000001_Node000021"><a xlink:title=" ">
<path fill="none" stroke="#63b8ff" d="M425.41,-170.22C504.48,-160.75 648.34,-143.52 738.72,-132.7"/>
<polygon fill="#63b8ff" stroke="#63b8ff" points="739,-136.19 748.51,-131.53 738.17,-129.24 739,-136.19"/>
</a>
</g>
</g>
<!-- Node3 -->
<g id="Node000003" class="node">
<title>Node3</title>
<g id="a_Node000003"><a xlink:title=" ">
<polygon fill="#e0e0e0" stroke="#999999" points="505.25,-20 462.25,-20 462.25,0 505.25,0 505.25,-20"/>
<text text-anchor="middle" x="483.75" y="-6.5" font-family="Helvetica,sans-Serif" font-size="10.00">vector</text>
</a>
</g>
</g>
<!-- Node2&#45;&gt;Node3 -->
<g id="edge2_Node000002_Node000003" class="edge">
<title>Node2&#45;&gt;Node3</title>
<g id="a_edge2_Node000002_Node000003"><a xlink:title=" ">
<path fill="none" stroke="#63b8ff" d="M490.08,-111.53C474.03,-104.45 455.18,-93.02 445.75,-76 436.65,-59.59 449.71,-41.14 462.93,-28.11"/>
<polygon fill="#63b8ff" stroke="#63b8ff" points="465.25,-30.73 470.29,-21.41 460.54,-25.55 465.25,-30.73"/>
</a>
</g>
</g>
<!-- Node4 -->
<g id="Node000004" class="node">
<title>Node4</title>
<g id="a_Node000004"><a xlink:title=" ">
<polygon fill="#e0e0e0" stroke="#999999" points="862.75,-20 822.75,-20 822.75,0 862.75,0 862.75,-20"/>
<text text-anchor="middle" x="842.75" y="-6.5" font-family="Helvetica,sans-Serif" font-size="10.00">string</text>
</a>
</g>
</g>
<!-- Node2&#45;&gt;Node4 -->
<g id="edge3_Node000002_Node000004" class="edge">
<title>Node2&#45;&gt;Node4</title>
<g id="a_edge3_Node000002_Node000004"><a xlink:title=" ">
<path fill="none" stroke="#63b8ff" d="M526.08,-111.74C539.6,-97.33 567.85,-69.79 597.75,-56 669.26,-23.03 762.98,-14.2 811.14,-11.84"/>
<polygon fill="#63b8ff" stroke="#63b8ff" points="811.01,-15.35 820.85,-11.44 810.72,-8.36 811.01,-15.35"/>
</a>
</g>
</g>
<!-- Node5 -->
<g id="Node000005" class="node">
<title>Node5</title>
<g id="a_Node000005"><a xlink:href="Submission_8h.html" target="_top" xlink:title=" ">
<polygon fill="white" stroke="#666666" points="834.62,-76 724.88,-76 724.88,-56 834.62,-56 834.62,-76"/>
<text text-anchor="middle" x="779.75" y="-62.5" font-family="Helvetica,sans-Serif" font-size="10.00">models/Submission.h</text>
</a>
</g>
</g>
<!-- Node2&#45;&gt;Node5 -->
<g id="edge4_Node000002_Node000005" class="edge">
<title>Node2&#45;&gt;Node5</title>
<g id="a_edge4_Node000002_Node000005"><a xlink:title=" ">
<path fill="none" stroke="#63b8ff" d="M563.69,-111.53C607.98,-102.4 675.13,-88.56 722.8,-78.74"/>
<polygon fill="#63b8ff" stroke="#63b8ff" points="723.3,-82.21 732.38,-76.76 721.88,-75.35 723.3,-82.21"/>
</a>
</g>
</g>
<!-- Node6 -->
<g id="Node000006" class="node">
<title>Node6</title>
<g id="a_Node000006"><a xlink:href="Reviewer_8h.html" target="_top" xlink:title=" ">
<polygon fill="white" stroke="#666666" points="706.38,-76 607.12,-76 607.12,-56 706.38,-56 706.38,-76"/>
<text text-anchor="middle" x="656.75" y="-62.5" font-family="Helvetica,sans-Serif" font-size="10.00">models/Reviewer.h</text>
</a>
</g>
</g>
<!-- Node2&#45;&gt;Node6 -->
<g id="edge6_Node000002_Node000006" class="edge">
<title>Node2&#45;&gt;Node6</title>
<g id="a_edge6_Node000002_Node000006"><a xlink:title=" ">
<path fill="none" stroke="#63b8ff" d="M541.96,-111.59C564.05,-103.01 596.95,-90.23 621.87,-80.55"/>
<polygon fill="#63b8ff" stroke="#63b8ff" points="622.88,-83.91 630.94,-77.03 620.35,-77.39 622.88,-83.91"/>
</a>
</g>
</g>
<!-- Node7 -->
<g id="Node000007" class="node">
<title>Node7</title>
<g id="a_Node000007"><a xlink:href="Parameters_8h.html" target="_top" xlink:title=" ">
<polygon fill="white" stroke="#666666" points="961.25,-76 852.25,-76 852.25,-56 961.25,-56 961.25,-76"/>
<text text-anchor="middle" x="906.75" y="-62.5" font-family="Helvetica,sans-Serif" font-size="10.00">models/Parameters.h</text>
</a>
</g>
</g>
<!-- Node2&#45;&gt;Node7 -->
<g id="edge8_Node000002_Node000007" class="edge">
<title>Node2&#45;&gt;Node7</title>
<g id="a_edge8_Node000002_Node000007"><a xlink:title=" ">
<path fill="none" stroke="#63b8ff" d="M563.95,-113.34C566.93,-112.87 569.88,-112.43 572.75,-112 689.3,-94.73 721.46,-92.7 840.38,-76.45"/>
<polygon fill="#63b8ff" stroke="#63b8ff" points="840.85,-79.92 850.28,-75.09 839.9,-72.98 840.85,-79.92"/>
</a>
</g>
</g>
<!-- Node8 -->
<g id="Node000008" class="node">
<title>Node8</title>
<g id="a_Node000008"><a xlink:href="Graph_8h.html" target="_top" xlink:title=" ">
<polygon fill="white" stroke="#666666" points="360.25,-76 239.25,-76 239.25,-56 360.25,-56 360.25,-76"/>
<text text-anchor="middle" x="299.75" y="-62.5" font-family="Helvetica,sans-Serif" font-size="10.00">data_structures/Graph.h</text>
</a>
</g>
</g>
<!-- Node2&#45;&gt;Node8 -->
<g id="edge10_Node000002_Node000008" class="edge">
<title>Node2&#45;&gt;Node8</title>
<g id="a_edge10_Node000002_Node000008"><a xlink:title=" ">
<path fill="none" stroke="#63b8ff" d="M479.53,-111.53C443.22,-102.54 388.45,-88.97 348.9,-79.18"/>
<polygon fill="#63b8ff" stroke="#63b8ff" points="349.95,-75.83 339.4,-76.82 348.26,-82.62 349.95,-75.83"/>
</a>
</g>
</g>
<!-- Node5&#45;&gt;Node4 -->
<g id="edge5_Node000005_Node000004" class="edge">
<title>Node5&#45;&gt;Node4</title>
<g id="a_edge5_Node000005_Node000004"><a xlink:title=" ">
<path fill="none" stroke="#63b8ff" d="M790.72,-55.59C799.67,-47.93 812.52,-36.91 823.21,-27.75"/>
<polygon fill="#63b8ff" stroke="#63b8ff" points="825.44,-30.45 830.75,-21.28 820.88,-25.13 825.44,-30.45"/>
</a>
</g>
</g>
<!-- Node6&#45;&gt;Node4 -->
<g id="edge7_Node000006_Node000004" class="edge">
<title>Node6&#45;&gt;Node4</title>
<g id="a_edge7_Node000006_Node000004"><a xlink:title=" ">
<path fill="none" stroke="#63b8ff" d="M689.15,-55.59C723.65,-45.58 777.87,-29.83 811.81,-19.98"/>
<polygon fill="#63b8ff" stroke="#63b8ff" points="812.4,-23.45 821.03,-17.31 810.45,-16.73 812.4,-23.45"/>
</a>
</g>
</g>
<!-- Node7&#45;&gt;Node4 -->
<g id="edge9_Node000007_Node000004" class="edge">
<title>Node7&#45;&gt;Node4</title>
<g id="a_edge9_Node000007_Node000004"><a xlink:title=" ">
<path fill="none" stroke="#63b8ff" d="M895.6,-55.59C886.42,-47.85 873.2,-36.69 862.27,-27.47"/>
<polygon fill="#63b8ff" stroke="#63b8ff" points="864.83,-25.05 854.93,-21.27 860.31,-30.4 864.83,-25.05"/>
</a>
</g>
</g>
<!-- Node8&#45;&gt;Node3 -->
<g id="edge12_Node000008_Node000003" class="edge">
<title>Node8&#45;&gt;Node3</title>
<g id="a_edge12_Node000008_Node000003"><a xlink:title=" ">
<path fill="none" stroke="#63b8ff" d="M331.8,-55.59C365.29,-45.77 417.54,-30.43 451.21,-20.55"/>
<polygon fill="#63b8ff" stroke="#63b8ff" points="451.8,-24.02 460.41,-17.85 449.83,-17.31 451.8,-24.02"/>
</a>
</g>
</g>
<!-- Node8&#45;&gt;Node9 -->
<g id="edge11_Node000008_Node000009" class="edge">
<title>Node8&#45;&gt;Node9</title>
<g id="a_edge11_Node000008_Node000009"><a xlink:title=" ">
<path fill="none" stroke="#63b8ff" d="M251.88,-55.53C198.65,-45 113.74,-28.21 64.83,-18.53"/>
<polygon fill="#63b8ff" stroke="#63b8ff" points="65.77,-15.15 55.28,-16.64 64.41,-22.02 65.77,-15.15"/>
</a>
</g>
</g>
<!-- Node10 -->
<g id="Node000010" class="node">
<title>Node10</title>
<g id="a_Node000010"><a xlink:title=" ">
<polygon fill="#e0e0e0" stroke="#999999" points="315.88,-20 273.62,-20 273.62,0 315.88,0 315.88,-20"/>
<text text-anchor="middle" x="294.75" y="-6.5" font-family="Helvetica,sans-Serif" font-size="10.00">queue</text>
</a>
</g>
</g>
<!-- Node8&#45;&gt;Node10 -->
<g id="edge13_Node000008_Node000010" class="edge">
<title>Node8&#45;&gt;Node10</title>
<g id="a_edge13_Node000008_Node000010"><a xlink:title=" ">
<path fill="none" stroke="#63b8ff" d="M298.88,-55.59C298.27,-49.01 297.43,-39.96 296.67,-31.73"/>
<polygon fill="#63b8ff" stroke="#63b8ff" points="300.16,-31.44 295.75,-21.81 293.19,-32.09 300.16,-31.44"/>
</a>
</g>
</g>
<!-- Node8&#45;&gt;Node11 -->
<g id="edge14_Node000008_Node000011" class="edge">
<title>Node8&#45;&gt;Node11</title>
<g id="a_edge14_Node000008_Node000011"><a xlink:title=" ">
<path fill="none" stroke="#63b8ff" d="M270.49,-55.59C240.31,-45.89 193.44,-30.83 162.67,-20.94"/>
<polygon fill="#63b8ff" stroke="#63b8ff" points="163.77,-17.61 153.17,-17.89 161.62,-24.28 163.77,-17.61"/>
</a>
</g>
</g>
<!-- Node8&#45;&gt;Node12 -->
<g id="edge15_Node000008_Node000012" class="edge">
<title>Node8&#45;&gt;Node12</title>
<g id="a_edge15_Node000008_Node000012"><a xlink:title=" ">
<path fill="none" stroke="#63b8ff" d="M285.47,-55.59C273.31,-47.59 255.61,-35.93 241.35,-26.54"/>
<polygon fill="#63b8ff" stroke="#63b8ff" points="243.69,-23.89 233.41,-21.31 239.84,-29.73 243.69,-23.89"/>
</a>
</g>
</g>
<!-- Node16&#45;&gt;Node3 -->
<g id="edge24_Node000016_Node000003" class="edge">
<title>Node16&#45;&gt;Node3</title>
<g id="a_edge24_Node000016_Node000003"><a xlink:title=" ">
<path fill="none" stroke="#63b8ff" d="M960.27,-111.71C977.98,-98.45 1004.98,-73.74 988.75,-56 956.93,-21.22 624.68,-13.14 517.13,-11.42"/>
<polygon fill="#63b8ff" stroke="#63b8ff" points="517.3,-7.93 507.25,-11.28 517.19,-14.93 517.3,-7.93"/>
</a>
</g>
</g>
<!-- Node16&#45;&gt;Node4 -->
<g id="edge23_Node000016_Node000004" class="edge">
<title>Node16&#45;&gt;Node4</title>
<g id="a_edge23_Node000016_Node000004"><a xlink:title=" ">
<path fill="none" stroke="#63b8ff" d="M973.05,-111.54C1001.23,-99.94 1039.66,-78.96 1021.75,-56 1003.81,-32.99 920.78,-19.94 874.37,-14.33"/>
<polygon fill="#63b8ff" stroke="#63b8ff" points="874.99,-10.88 864.65,-13.2 874.18,-17.83 874.99,-10.88"/>
</a>
</g>
</g>
<!-- Node16&#45;&gt;Node5 -->
<g id="edge25_Node000016_Node000005" class="edge">
<title>Node16&#45;&gt;Node5</title>
<g id="a_edge25_Node000016_Node000005"><a xlink:title=" ">
<path fill="none" stroke="#63b8ff" d="M917.66,-111.59C890.53,-102.82 849.82,-89.66 819.66,-79.9"/>
<polygon fill="#63b8ff" stroke="#63b8ff" points="821.1,-76.69 810.51,-76.95 818.94,-83.35 821.1,-76.69"/>
</a>
</g>
</g>
<!-- Node16&#45;&gt;Node6 -->
<g id="edge26_Node000016_Node000006" class="edge">
<title>Node16&#45;&gt;Node6</title>
<g id="a_edge26_Node000016_Node000006"><a xlink:title=" ">
<path fill="none" stroke="#63b8ff" d="M907.2,-113.58C904.34,-113.04 901.5,-112.51 898.75,-112 837.17,-100.5 766.77,-87.42 717.84,-78.33"/>
<polygon fill="#63b8ff" stroke="#63b8ff" points="718.77,-74.95 708.3,-76.56 717.49,-81.83 718.77,-74.95"/>
</a>
</g>
</g>
<!-- Node16&#45;&gt;Node7 -->
<g id="edge27_Node000016_Node000007" class="edge">
<title>Node16&#45;&gt;Node7</title>
<g id="a_edge27_Node000016_Node000007"><a xlink:title=" ">
<path fill="none" stroke="#63b8ff" d="M939.78,-111.59C934.45,-104.39 926.92,-94.23 920.4,-85.43"/>
<polygon fill="#63b8ff" stroke="#63b8ff" points="923.3,-83.47 914.54,-77.51 917.68,-87.63 923.3,-83.47"/>
</a>
</g>
</g>
<!-- Node17&#45;&gt;Node3 -->
<g id="edge33_Node000017_Node000003" class="edge">
<title>Node17&#45;&gt;Node3</title>
<g id="a_edge33_Node000017_Node000003"><a xlink:title=" ">
<path fill="none" stroke="#63b8ff" d="M642,-111.62C612.12,-92.63 544.22,-49.45 507.83,-26.31"/>
<polygon fill="#63b8ff" stroke="#63b8ff" points="510.06,-23.58 499.74,-21.17 506.3,-29.49 510.06,-23.58"/>
</a>
</g>
</g>
<!-- Node17&#45;&gt;Node5 -->
<g id="edge30_Node000017_Node000005" class="edge">
<title>Node17&#45;&gt;Node5</title>
<g id="a_edge30_Node000017_Node000005"><a xlink:title=" ">
<path fill="none" stroke="#63b8ff" d="M678.17,-111.59C697.37,-103.17 725.79,-90.69 747.69,-81.07"/>
<polygon fill="#63b8ff" stroke="#63b8ff" points="749.02,-84.31 756.77,-77.09 746.21,-77.9 749.02,-84.31"/>
</a>
</g>
</g>
<!-- Node17&#45;&gt;Node6 -->
<g id="edge31_Node000017_Node000006" class="edge">
<title>Node17&#45;&gt;Node6</title>
<g id="a_edge31_Node000017_Node000006"><a xlink:title=" ">
<path fill="none" stroke="#63b8ff" d="M656.75,-111.59C656.75,-105.01 656.75,-95.96 656.75,-87.73"/>
<polygon fill="#63b8ff" stroke="#63b8ff" points="660.25,-87.81 656.75,-77.81 653.25,-87.81 660.25,-87.81"/>
</a>
</g>
</g>
<!-- Node17&#45;&gt;Node7 -->
<g id="edge32_Node000017_Node000007" class="edge">
<title>Node17&#45;&gt;Node7</title>
<g id="a_edge32_Node000017_Node000007"><a xlink:title=" ">
<path fill="none" stroke="#63b8ff" d="M700.58,-111.53C742.67,-102.44 806.38,-88.68 851.83,-78.86"/>
<polygon fill="#63b8ff" stroke="#63b8ff" points="852.45,-82.31 861.49,-76.78 850.97,-75.47 852.45,-82.31"/>
</a>
</g>
</g>
<!-- Node17&#45;&gt;Node8 -->
<g id="edge29_Node000017_Node000008" class="edge">
<title>Node17&#45;&gt;Node8</title>
<g id="a_edge29_Node000017_Node000008"><a xlink:title=" ">
<path fill="none" stroke="#63b8ff" d="M594.16,-111.53C531.96,-102.12 436.7,-87.71 371.49,-77.85"/>
<polygon fill="#63b8ff" stroke="#63b8ff" points="372.39,-74.45 361.98,-76.41 371.34,-81.37 372.39,-74.45"/>
</a>
</g>
</g>
<!-- Node18&#45;&gt;Node3 -->
<g id="edge37_Node000018_Node000003" class="edge">
<title>Node18&#45;&gt;Node3</title>
<g id="a_edge37_Node000018_Node000003"><a xlink:title=" ">
<path fill="none" stroke="#63b8ff" d="M243.03,-111.56C279.63,-104.22 328.57,-92.49 369.75,-76 402.98,-62.69 438.36,-41.23 460.74,-26.64"/>
<polygon fill="#63b8ff" stroke="#63b8ff" points="462.66,-29.57 469.07,-21.13 458.8,-23.73 462.66,-29.57"/>
</a>
</g>
</g>
<!-- Node18&#45;&gt;Node8 -->
<g id="edge35_Node000018_Node000008" class="edge">
<title>Node18&#45;&gt;Node8</title>
<g id="a_edge35_Node000018_Node000008"><a xlink:title=" ">
<path fill="none" stroke="#63b8ff" d="M208.08,-111.59C225.17,-103.28 250.35,-91.03 270,-81.47"/>
<polygon fill="#63b8ff" stroke="#63b8ff" points="271.44,-84.66 278.9,-77.14 268.38,-78.37 271.44,-84.66"/>
</a>
</g>
</g>
<!-- Node18&#45;&gt;Node10 -->
<g id="edge36_Node000018_Node000010" class="edge">
<title>Node18&#45;&gt;Node10</title>
<g id="a_edge36_Node000018_Node000010"><a xlink:title=" ">
<path fill="none" stroke="#63b8ff" d="M193.23,-111.82C200.03,-98.49 213.99,-73.43 230.75,-56 241.71,-44.6 255.93,-34.27 268.19,-26.38"/>
<polygon fill="#63b8ff" stroke="#63b8ff" points="269.96,-29.4 276.62,-21.16 266.27,-23.45 269.96,-29.4"/>
</a>
</g>
</g>
<!-- Node19 -->
<g id="Node000019" class="node">
<title>Node19</title>
<g id="a_Node000019"><a xlink:title=" ">
<polygon fill="#e0e0e0" stroke="#999999" points="183.12,-76 124.38,-76 124.38,-56 183.12,-56 183.12,-76"/>
<text text-anchor="middle" x="153.75" y="-62.5" font-family="Helvetica,sans-Serif" font-size="10.00">stdexcept</text>
</a>
</g>
</g>
<!-- Node18&#45;&gt;Node19 -->
<g id="edge38_Node000018_Node000019" class="edge">
<title>Node18&#45;&gt;Node19</title>
<g id="a_edge38_Node000018_Node000019"><a xlink:title=" ">
<path fill="none" stroke="#63b8ff" d="M182.65,-111.59C178.04,-104.47 171.54,-94.45 165.88,-85.72"/>
<polygon fill="#63b8ff" stroke="#63b8ff" points="168.98,-84.06 160.6,-77.57 163.1,-87.86 168.98,-84.06"/>
</a>
</g>
</g>
<!-- Node20 -->
<g id="Node000020" class="node">
<title>Node20</title>
<g id="a_Node000020"><a xlink:title=" ">
<polygon fill="#e0e0e0" stroke="#999999" points="512.75,-76 454.75,-76 454.75,-56 512.75,-56 512.75,-76"/>
<text text-anchor="middle" x="483.75" y="-62.5" font-family="Helvetica,sans-Serif" font-size="10.00">functional</text>
</a>
</g>
</g>
<!-- Node18&#45;&gt;Node20 -->
<g id="edge39_Node000018_Node000020" class="edge">
<title>Node18&#45;&gt;Node20</title>
<g id="a_edge39_Node000018_Node000020"><a xlink:title=" ">
<path fill="none" stroke="#63b8ff" d="M240.47,-111.53C298.24,-100.96 390.52,-84.07 443.27,-74.41"/>
<polygon fill="#63b8ff" stroke="#63b8ff" points="443.83,-77.87 453.04,-72.62 442.57,-70.98 443.83,-77.87"/>
</a>
</g>
</g>
<!-- Node21&#45;&gt;Node3 -->
<g id="edge41_Node000021_Node000003" class="edge">
<title>Node21&#45;&gt;Node3</title>
<g id="a_edge41_Node000021_Node000003"><a xlink:title=" ">
<path fill="none" stroke="#63b8ff" d="M889.52,-113.28C941.84,-104.79 999.84,-87.9 970.75,-56 940.21,-22.5 621.75,-13.58 516.97,-11.54"/>
<polygon fill="#63b8ff" stroke="#63b8ff" points="517.14,-8.04 507.07,-11.36 517.01,-15.04 517.14,-8.04"/>
</a>
</g>
</g>
<!-- Node21&#45;&gt;Node4 -->
<g id="edge42_Node000021_Node000004" class="edge">
<title>Node21&#45;&gt;Node4</title>
<g id="a_edge42_Node000021_Node000004"><a xlink:title=" ">
<path fill="none" stroke="#63b8ff" d="M889.61,-112.88C935.46,-105.95 989.49,-94.17 1003.75,-76 1039.54,-30.4 930.69,-16.63 874.32,-12.6"/>
<polygon fill="#63b8ff" stroke="#63b8ff" points="874.88,-9.13 864.67,-11.98 874.43,-16.11 874.88,-9.13"/>
</a>
</g>
</g>
<!-- Node21&#45;&gt;Node5 -->
<g id="edge45_Node000021_Node000005" class="edge">
<title>Node21&#45;&gt;Node5</title>
<g id="a_edge45_Node000021_Node000005"><a xlink:title=" ">
<path fill="none" stroke="#63b8ff" d="M812.78,-111.59C807.45,-104.39 799.92,-94.23 793.4,-85.43"/>
<polygon fill="#63b8ff" stroke="#63b8ff" points="796.3,-83.47 787.54,-77.51 790.68,-87.63 796.3,-83.47"/>
</a>
</g>
</g>
<!-- Node21&#45;&gt;Node6 -->
<g id="edge46_Node000021_Node000006" class="edge">
<title>Node21&#45;&gt;Node6</title>
<g id="a_edge46_Node000021_Node000006"><a xlink:title=" ">
<path fill="none" stroke="#63b8ff" d="M791.36,-111.59C764.99,-102.86 725.49,-89.77 696.09,-80.03"/>
<polygon fill="#63b8ff" stroke="#63b8ff" points="697.39,-76.78 686.8,-76.96 695.19,-83.42 697.39,-76.78"/>
</a>
</g>
</g>
<!-- Node21&#45;&gt;Node7 -->
<g id="edge47_Node000021_Node000007" class="edge">
<title>Node21&#45;&gt;Node7</title>
<g id="a_edge47_Node000021_Node000007"><a xlink:title=" ">
<path fill="none" stroke="#63b8ff" d="M834.9,-111.59C847.8,-103.59 866.58,-91.93 881.71,-82.54"/>
<polygon fill="#63b8ff" stroke="#63b8ff" points="883.54,-85.53 890.19,-77.28 879.85,-79.58 883.54,-85.53"/>
</a>
</g>
</g>
<!-- Node21&#45;&gt;Node8 -->
<g id="edge44_Node000021_Node000008" class="edge">
<title>Node21&#45;&gt;Node8</title>
<g id="a_edge44_Node000021_Node000008"><a xlink:title=" ">
<path fill="none" stroke="#63b8ff" d="M749.97,-113.01C746.85,-112.66 743.77,-112.33 740.75,-112 610.77,-97.97 459.11,-82.74 371.77,-74.09"/>
<polygon fill="#63b8ff" stroke="#63b8ff" points="372.21,-70.61 361.91,-73.11 371.52,-77.58 372.21,-70.61"/>
</a>
</g>
</g>
<!-- Node21&#45;&gt;Node20 -->
<g id="edge43_Node000021_Node000020" class="edge">
<title>Node21&#45;&gt;Node20</title>
<g id="a_edge43_Node000021_Node000020"><a xlink:title=" ">
<path fill="none" stroke="#63b8ff" d="M760.84,-111.53C692.91,-100.61 583.05,-82.96 524.14,-73.49"/>
<polygon fill="#63b8ff" stroke="#63b8ff" points="524.99,-70.08 514.56,-71.95 523.88,-76.99 524.99,-70.08"/>
</a>
</g>
</g>
</g>
</svg>
