<?xml version="1.0" encoding="UTF-8" standalone="no"?>
<!DOCTYPE svg PUBLIC "-//W3C//DTD SVG 1.1//EN"
 "http://www.w3.org/Graphics/SVG/1.1/DTD/svg11.dtd">
<!-- Generated by graphviz version 12.2.1 (0)
 -->
<!-- Title: data_structures/createGraphs.h Pages: 1 -->
<svg width="534pt" height="138pt"
 viewBox="0.00 0.00 533.75 137.75" xmlns="http://www.w3.org/2000/svg" xmlns:xlink="http://www.w3.org/1999/xlink">
<g id="graph0" class="graph" transform="scale(1 1) rotate(0) translate(4 133.75)">
<title>data_structures/createGraphs.h</title>
<!-- Node1 -->
<g id="Node000001" class="node">
<title>Node1</title>
<g id="a_Node000001"><a xlink:title=" ">
<polygon fill="#999999" stroke="#666666" points="314.12,-129.75 160.88,-129.75 160.88,-110.5 314.12,-110.5 314.12,-129.75"/>
<text text-anchor="middle" x="237.5" y="-116.25" font-family="Helvetica,sans-Serif" font-size="10.00">data_structures/createGraphs.h</text>
</a>
</g>
</g>
<!-- Node2 -->
<g id="Node000002" class="node">
<title>Node2</title>
<g id="a_Node000002"><a xlink:href="_graph_8h.html" target="_top" xlink:title=" ">
<polygon fill="white" stroke="#666666" points="166.75,-74.5 116.25,-74.5 116.25,-55.25 166.75,-55.25 166.75,-74.5"/>
<text text-anchor="middle" x="141.5" y="-61" font-family="Helvetica,sans-Serif" font-size="10.00">Graph.h</text>
</a>
</g>
</g>
<!-- Node1&#45;&gt;Node2 -->
<g id="edge1_Node000001_Node000002" class="edge">
<title>Node1&#45;&gt;Node2</title>
<g id="a_edge1_Node000001_Node000002"><a xlink:title=" ">
<path fill="none" stroke="#63b8ff" d="M221.21,-110.09C206.6,-101.98 184.87,-89.93 167.79,-80.46"/>
<polygon fill="#63b8ff" stroke="#63b8ff" points="169.63,-77.48 159.19,-75.69 166.24,-83.6 169.63,-77.48"/>
</a>
</g>
</g>
<!-- Node4 -->
<g id="Node000004" class="node">
<title>Node4</title>
<g id="a_Node000004"><a xlink:title=" ">
<polygon fill="#e0e0e0" stroke="#999999" points="43,-19.25 0,-19.25 0,0 43,0 43,-19.25"/>
<text text-anchor="middle" x="21.5" y="-5.75" font-family="Helvetica,sans-Serif" font-size="10.00">vector</text>
</a>
</g>
</g>
<!-- Node1&#45;&gt;Node4 -->
<g id="edge13_Node000001_Node000004" class="edge">
<title>Node1&#45;&gt;Node4</title>
<g id="a_edge13_Node000001_Node000004"><a xlink:title=" ">
<path fill="none" stroke="#63b8ff" d="M201.52,-110.01C174.72,-102.46 137.69,-90.4 107.5,-74.5 82.23,-61.19 56.33,-40.87 39.65,-26.73"/>
<polygon fill="#63b8ff" stroke="#63b8ff" points="42.4,-24.48 32.54,-20.59 37.82,-29.77 42.4,-24.48"/>
</a>
</g>
</g>
<!-- Node8 -->
<g id="Node000008" class="node">
<title>Node8</title>
<g id="a_Node000008"><a xlink:href="_submission_8h.html" target="_top" xlink:title=" ">
<polygon fill="white" stroke="#666666" points="290.12,-74.5 184.88,-74.5 184.88,-55.25 290.12,-55.25 290.12,-74.5"/>
<text text-anchor="middle" x="237.5" y="-61" font-family="Helvetica,sans-Serif" font-size="10.00">../utils/Submission.h</text>
</a>
</g>
</g>
<!-- Node1&#45;&gt;Node8 -->
<g id="edge7_Node000001_Node000008" class="edge">
<title>Node1&#45;&gt;Node8</title>
<g id="a_edge7_Node000001_Node000008"><a xlink:title=" ">
<path fill="none" stroke="#63b8ff" d="M237.5,-110.33C237.5,-103.82 237.5,-94.67 237.5,-86.37"/>
<polygon fill="#63b8ff" stroke="#63b8ff" points="241,-86.37 237.5,-76.37 234,-86.37 241,-86.37"/>
</a>
</g>
</g>
<!-- Node10 -->
<g id="Node000010" class="node">
<title>Node10</title>
<g id="a_Node000010"><a xlink:href="_reviewer_8h.html" target="_top" xlink:title=" ">
<polygon fill="white" stroke="#666666" points="402.88,-74.5 308.12,-74.5 308.12,-55.25 402.88,-55.25 402.88,-74.5"/>
<text text-anchor="middle" x="355.5" y="-61" font-family="Helvetica,sans-Serif" font-size="10.00">../utils/Reviewer.h</text>
</a>
</g>
</g>
<!-- Node1&#45;&gt;Node10 -->
<g id="edge9_Node000001_Node000010" class="edge">
<title>Node1&#45;&gt;Node10</title>
<g id="a_edge9_Node000001_Node000010"><a xlink:title=" ">
<path fill="none" stroke="#63b8ff" d="M257.52,-110.09C275.99,-101.75 303.71,-89.25 324.95,-79.66"/>
<polygon fill="#63b8ff" stroke="#63b8ff" points="326.33,-82.88 334.01,-75.58 323.45,-76.5 326.33,-82.88"/>
</a>
</g>
</g>
<!-- Node11 -->
<g id="Node000011" class="node">
<title>Node11</title>
<g id="a_Node000011"><a xlink:href="_parameters_8h.html" target="_top" xlink:title=" ">
<polygon fill="white" stroke="#666666" points="525.75,-74.5 421.25,-74.5 421.25,-55.25 525.75,-55.25 525.75,-74.5"/>
<text text-anchor="middle" x="473.5" y="-61" font-family="Helvetica,sans-Serif" font-size="10.00">../utils/Parameters.h</text>
</a>
</g>
</g>
<!-- Node1&#45;&gt;Node11 -->
<g id="edge11_Node000001_Node000011" class="edge">
<title>Node1&#45;&gt;Node11</title>
<g id="a_edge11_Node000001_Node000011"><a xlink:title=" ">
<path fill="none" stroke="#63b8ff" d="M277.8,-110.03C317.68,-101.03 378.88,-87.23 422.21,-77.45"/>
<polygon fill="#63b8ff" stroke="#63b8ff" points="422.9,-80.88 431.89,-75.26 421.36,-74.05 422.9,-80.88"/>
</a>
</g>
</g>
<!-- Node3 -->
<g id="Node000003" class="node">
<title>Node3</title>
<g id="a_Node000003"><a xlink:title=" ">
<polygon fill="#e0e0e0" stroke="#999999" points="114.25,-19.25 60.75,-19.25 60.75,0 114.25,0 114.25,-19.25"/>
<text text-anchor="middle" x="87.5" y="-5.75" font-family="Helvetica,sans-Serif" font-size="10.00">iostream</text>
</a>
</g>
</g>
<!-- Node2&#45;&gt;Node3 -->
<g id="edge2_Node000002_Node000003" class="edge">
<title>Node2&#45;&gt;Node3</title>
<g id="a_edge2_Node000002_Node000003"><a xlink:title=" ">
<path fill="none" stroke="#63b8ff" d="M132.58,-55.08C125.05,-47.65 114.03,-36.79 104.77,-27.66"/>
<polygon fill="#63b8ff" stroke="#63b8ff" points="107.27,-25.2 97.69,-20.67 102.35,-30.19 107.27,-25.2"/>
</a>
</g>
</g>
<!-- Node2&#45;&gt;Node4 -->
<g id="edge3_Node000002_Node000004" class="edge">
<title>Node2&#45;&gt;Node4</title>
<g id="a_edge3_Node000002_Node000004"><a xlink:title=" ">
<path fill="none" stroke="#63b8ff" d="M121.14,-54.84C102.27,-46.47 73.91,-33.88 52.27,-24.28"/>
<polygon fill="#63b8ff" stroke="#63b8ff" points="53.9,-21.17 43.34,-20.32 51.06,-27.57 53.9,-21.17"/>
</a>
</g>
</g>
<!-- Node5 -->
<g id="Node000005" class="node">
<title>Node5</title>
<g id="a_Node000005"><a xlink:title=" ">
<polygon fill="#e0e0e0" stroke="#999999" points="174.62,-19.25 132.38,-19.25 132.38,0 174.62,0 174.62,-19.25"/>
<text text-anchor="middle" x="153.5" y="-5.75" font-family="Helvetica,sans-Serif" font-size="10.00">queue</text>
</a>
</g>
</g>
<!-- Node2&#45;&gt;Node5 -->
<g id="edge4_Node000002_Node000005" class="edge">
<title>Node2&#45;&gt;Node5</title>
<g id="a_edge4_Node000002_Node000005"><a xlink:title=" ">
<path fill="none" stroke="#63b8ff" d="M143.48,-55.08C144.97,-48.49 147.06,-39.21 148.95,-30.82"/>
<polygon fill="#63b8ff" stroke="#63b8ff" points="152.36,-31.61 151.14,-21.09 145.53,-30.07 152.36,-31.61"/>
</a>
</g>
</g>
<!-- Node6 -->
<g id="Node000006" class="node">
<title>Node6</title>
<g id="a_Node000006"><a xlink:title=" ">
<polygon fill="#e0e0e0" stroke="#999999" points="232.12,-19.25 192.88,-19.25 192.88,0 232.12,0 232.12,-19.25"/>
<text text-anchor="middle" x="212.5" y="-5.75" font-family="Helvetica,sans-Serif" font-size="10.00">limits</text>
</a>
</g>
</g>
<!-- Node2&#45;&gt;Node6 -->
<g id="edge5_Node000002_Node000006" class="edge">
<title>Node2&#45;&gt;Node6</title>
<g id="a_edge5_Node000002_Node000006"><a xlink:title=" ">
<path fill="none" stroke="#63b8ff" d="M153.54,-54.84C163.91,-47.07 179.1,-35.67 191.47,-26.4"/>
<polygon fill="#63b8ff" stroke="#63b8ff" points="193.52,-29.23 199.42,-20.43 189.32,-23.63 193.52,-29.23"/>
</a>
</g>
</g>
<!-- Node7 -->
<g id="Node000007" class="node">
<title>Node7</title>
<g id="a_Node000007"><a xlink:title=" ">
<polygon fill="#e0e0e0" stroke="#999999" points="306.38,-19.25 250.62,-19.25 250.62,0 306.38,0 306.38,-19.25"/>
<text text-anchor="middle" x="278.5" y="-5.75" font-family="Helvetica,sans-Serif" font-size="10.00">algorithm</text>
</a>
</g>
</g>
<!-- Node2&#45;&gt;Node7 -->
<g id="edge6_Node000002_Node000007" class="edge">
<title>Node2&#45;&gt;Node7</title>
<g id="a_edge6_Node000002_Node000007"><a xlink:title=" ">
<path fill="none" stroke="#63b8ff" d="M164.74,-54.84C186.69,-46.31 219.85,-33.42 244.71,-23.76"/>
<polygon fill="#63b8ff" stroke="#63b8ff" points="245.68,-27.14 253.74,-20.25 243.15,-20.61 245.68,-27.14"/>
</a>
</g>
</g>
<!-- Node9 -->
<g id="Node000009" class="node">
<title>Node9</title>
<g id="a_Node000009"><a xlink:title=" ">
<polygon fill="#e0e0e0" stroke="#999999" points="375.5,-19.25 335.5,-19.25 335.5,0 375.5,0 375.5,-19.25"/>
<text text-anchor="middle" x="355.5" y="-5.75" font-family="Helvetica,sans-Serif" font-size="10.00">string</text>
</a>
</g>
</g>
<!-- Node8&#45;&gt;Node9 -->
<g id="edge8_Node000008_Node000009" class="edge">
<title>Node8&#45;&gt;Node9</title>
<g id="a_edge8_Node000008_Node000009"><a xlink:title=" ">
<path fill="none" stroke="#63b8ff" d="M257.52,-54.84C275.99,-46.5 303.71,-34 324.95,-24.41"/>
<polygon fill="#63b8ff" stroke="#63b8ff" points="326.33,-27.63 334.01,-20.33 323.45,-21.25 326.33,-27.63"/>
</a>
</g>
</g>
<!-- Node10&#45;&gt;Node9 -->
<g id="edge10_Node000010_Node000009" class="edge">
<title>Node10&#45;&gt;Node9</title>
<g id="a_edge10_Node000010_Node000009"><a xlink:title=" ">
<path fill="none" stroke="#63b8ff" d="M355.5,-55.08C355.5,-48.57 355.5,-39.42 355.5,-31.12"/>
<polygon fill="#63b8ff" stroke="#63b8ff" points="359,-31.12 355.5,-21.12 352,-31.12 359,-31.12"/>
</a>
</g>
</g>
<!-- Node11&#45;&gt;Node9 -->
<g id="edge12_Node000011_Node000009" class="edge">
<title>Node11&#45;&gt;Node9</title>
<g id="a_edge12_Node000011_Node000009"><a xlink:title=" ">
<path fill="none" stroke="#63b8ff" d="M453.48,-54.84C435.01,-46.5 407.29,-34 386.05,-24.41"/>
<polygon fill="#63b8ff" stroke="#63b8ff" points="387.55,-21.25 376.99,-20.33 384.67,-27.63 387.55,-21.25"/>
</a>
</g>
</g>
</g>
</svg>
