<?xml version="1.0" encoding="UTF-8" standalone="no"?>
<!DOCTYPE svg PUBLIC "-//W3C//DTD SVG 1.1//EN"
 "http://www.w3.org/Graphics/SVG/1.1/DTD/svg11.dtd">
<!-- Generated by graphviz version 12.2.1 (0)
 -->
<!-- Title: data_structures/createGraphs.h Pages: 1 -->
<svg width="536pt" height="83pt"
 viewBox="0.00 0.00 536.25 82.50" xmlns="http://www.w3.org/2000/svg" xmlns:xlink="http://www.w3.org/1999/xlink">
<g id="graph0" class="graph" transform="scale(1 1) rotate(0) translate(4 78.5)">
<title>data_structures/createGraphs.h</title>
<!-- Node1 -->
<g id="Node000001" class="node">
<title>Node1</title>
<g id="a_Node000001"><a xlink:title=" ">
<polygon fill="#999999" stroke="#666666" points="340.5,-74.5 187.25,-74.5 187.25,-55.25 340.5,-55.25 340.5,-74.5"/>
<text text-anchor="middle" x="263.88" y="-61" font-family="Helvetica,sans-Serif" font-size="10.00">data_structures/createGraphs.h</text>
</a>
</g>
</g>
<!-- Node2 -->
<g id="Node000002" class="node">
<title>Node2</title>
<g id="a_Node000002"><a xlink:href="create_graphs_8cpp.html" target="_top" xlink:title=" ">
<polygon fill="white" stroke="#666666" points="163.75,-19.25 0,-19.25 0,0 163.75,0 163.75,-19.25"/>
<text text-anchor="middle" x="81.88" y="-5.75" font-family="Helvetica,sans-Serif" font-size="10.00">data_structures/createGraphs.cpp</text>
</a>
</g>
</g>
<!-- Node1&#45;&gt;Node2 -->
<g id="edge1_Node000001_Node000002" class="edge">
<title>Node1&#45;&gt;Node2</title>
<g id="a_edge1_Node000001_Node000002"><a xlink:title=" ">
<path fill="none" stroke="#63b8ff" d="M222.24,-51.69C188.95,-41.95 143.02,-28.52 112.9,-19.7"/>
<polygon fill="#63b8ff" stroke="#63b8ff" points="220.97,-54.97 231.55,-54.42 222.93,-48.25 220.97,-54.97"/>
</a>
</g>
</g>
<!-- Node3 -->
<g id="Node000003" class="node">
<title>Node3</title>
<g id="a_Node000003"><a xlink:href="main_8cpp.html" target="_top" xlink:title=" ">
<polygon fill="white" stroke="#666666" points="237.75,-19.25 182,-19.25 182,0 237.75,0 237.75,-19.25"/>
<text text-anchor="middle" x="209.88" y="-5.75" font-family="Helvetica,sans-Serif" font-size="10.00">main.cpp</text>
</a>
</g>
</g>
<!-- Node1&#45;&gt;Node3 -->
<g id="edge2_Node000001_Node000003" class="edge">
<title>Node1&#45;&gt;Node3</title>
<g id="a_edge2_Node000001_Node000003"><a xlink:title=" ">
<path fill="none" stroke="#63b8ff" d="M246.84,-47.07C237.61,-37.98 226.58,-27.1 218.99,-19.61"/>
<polygon fill="#63b8ff" stroke="#63b8ff" points="244.3,-49.49 253.88,-54.02 249.22,-44.51 244.3,-49.49"/>
</a>
</g>
</g>
<!-- Node4 -->
<g id="Node000004" class="node">
<title>Node4</title>
<g id="a_Node000004"><a xlink:href="maxflow__tests_8cpp.html" target="_top" xlink:title=" ">
<polygon fill="white" stroke="#666666" points="379.5,-19.25 256.25,-19.25 256.25,0 379.5,0 379.5,-19.25"/>
<text text-anchor="middle" x="317.88" y="-5.75" font-family="Helvetica,sans-Serif" font-size="10.00">tests/maxflow_tests.cpp</text>
</a>
</g>
</g>
<!-- Node1&#45;&gt;Node4 -->
<g id="edge3_Node000001_Node000004" class="edge">
<title>Node1&#45;&gt;Node4</title>
<g id="a_edge3_Node000001_Node000004"><a xlink:title=" ">
<path fill="none" stroke="#63b8ff" d="M280.91,-47.07C290.14,-37.98 301.17,-27.1 308.76,-19.61"/>
<polygon fill="#63b8ff" stroke="#63b8ff" points="278.53,-44.51 273.87,-54.02 283.45,-49.49 278.53,-44.51"/>
</a>
</g>
</g>
<!-- Node5 -->
<g id="Node000005" class="node">
<title>Node5</title>
<g id="a_Node000005"><a xlink:href="_assignment_logic_8cpp.html" target="_top" xlink:title=" ">
<polygon fill="white" stroke="#666666" points="528.25,-19.25 397.5,-19.25 397.5,0 528.25,0 528.25,-19.25"/>
<text text-anchor="middle" x="462.88" y="-5.75" font-family="Helvetica,sans-Serif" font-size="10.00">utils/AssignmentLogic.cpp</text>
</a>
</g>
</g>
<!-- Node1&#45;&gt;Node5 -->
<g id="edge4_Node000001_Node000005" class="edge">
<title>Node1&#45;&gt;Node5</title>
<g id="a_edge4_Node000001_Node000005"><a xlink:title=" ">
<path fill="none" stroke="#63b8ff" d="M308.46,-51.95C344.93,-42.19 395.73,-28.59 428.95,-19.7"/>
<polygon fill="#63b8ff" stroke="#63b8ff" points="307.85,-48.48 299.09,-54.45 309.66,-55.25 307.85,-48.48"/>
</a>
</g>
</g>
</g>
</svg>
