<?xml version="1.0" encoding="UTF-8" standalone="no"?>
<!DOCTYPE svg PUBLIC "-//W3C//DTD SVG 1.1//EN"
 "http://www.w3.org/Graphics/SVG/1.1/DTD/svg11.dtd">
<!-- Generated by graphviz version 12.2.1 (0)
 -->
<!-- Title: data_structures/createGraphs.cpp Pages: 1 -->
<svg width="631pt" height="193pt"
 viewBox="0.00 0.00 631.00 193.00" xmlns="http://www.w3.org/2000/svg" xmlns:xlink="http://www.w3.org/1999/xlink">
<g id="graph0" class="graph" transform="scale(1 1) rotate(0) translate(4 189)">
<title>data_structures/createGraphs.cpp</title>
<!-- Node1 -->
<g id="Node000001" class="node">
<title>Node1</title>
<g id="a_Node000001"><a xlink:title=" ">
<polygon fill="#999999" stroke="#666666" points="371.62,-185 207.88,-185 207.88,-165.75 371.62,-165.75 371.62,-185"/>
<text text-anchor="middle" x="289.75" y="-171.5" font-family="Helvetica,sans-Serif" font-size="10.00">data_structures/createGraphs.cpp</text>
</a>
</g>
</g>
<!-- Node2 -->
<g id="Node000002" class="node">
<title>Node2</title>
<g id="a_Node000002"><a xlink:title=" ">
<polygon fill="#e0e0e0" stroke="#999999" points="53.5,-19.25 0,-19.25 0,0 53.5,0 53.5,-19.25"/>
<text text-anchor="middle" x="26.75" y="-5.75" font-family="Helvetica,sans-Serif" font-size="10.00">iostream</text>
</a>
</g>
</g>
<!-- Node1&#45;&gt;Node2 -->
<g id="edge1_Node000001_Node000002" class="edge">
<title>Node1&#45;&gt;Node2</title>
<g id="a_edge1_Node000001_Node000002"><a xlink:title=" ">
<path fill="none" stroke="#63b8ff" d="M254.04,-165.27C228.42,-157.86 193.63,-145.97 165.75,-129.75 116.09,-100.85 67.24,-53.35 42.83,-27.94"/>
<polygon fill="#63b8ff" stroke="#63b8ff" points="45.44,-25.61 36.03,-20.76 40.36,-30.42 45.44,-25.61"/>
</a>
</g>
</g>
<!-- Node3 -->
<g id="Node000003" class="node">
<title>Node3</title>
<g id="a_Node000003"><a xlink:title=" ">
<polygon fill="#e0e0e0" stroke="#999999" points="437.25,-129.75 388.25,-129.75 388.25,-110.5 437.25,-110.5 437.25,-129.75"/>
<text text-anchor="middle" x="412.75" y="-116.25" font-family="Helvetica,sans-Serif" font-size="10.00">fstream</text>
</a>
</g>
</g>
<!-- Node1&#45;&gt;Node3 -->
<g id="edge2_Node000001_Node000003" class="edge">
<title>Node1&#45;&gt;Node3</title>
<g id="a_edge2_Node000001_Node000003"><a xlink:title=" ">
<path fill="none" stroke="#63b8ff" d="M310.62,-165.34C330.05,-156.93 359.29,-144.27 381.51,-134.65"/>
<polygon fill="#63b8ff" stroke="#63b8ff" points="382.61,-137.99 390.39,-130.8 379.83,-131.56 382.61,-137.99"/>
</a>
</g>
</g>
<!-- Node4 -->
<g id="Node000004" class="node">
<title>Node4</title>
<g id="a_Node000004"><a xlink:title=" ">
<polygon fill="#e0e0e0" stroke="#999999" points="416.75,-19.25 376.75,-19.25 376.75,0 416.75,0 416.75,-19.25"/>
<text text-anchor="middle" x="396.75" y="-5.75" font-family="Helvetica,sans-Serif" font-size="10.00">string</text>
</a>
</g>
</g>
<!-- Node1&#45;&gt;Node4 -->
<g id="edge3_Node000001_Node000004" class="edge">
<title>Node1&#45;&gt;Node4</title>
<g id="a_edge3_Node000001_Node000004"><a xlink:title=" ">
<path fill="none" stroke="#63b8ff" d="M284.56,-165.32C273.1,-143.98 248.48,-89.77 272.75,-55.25 293.56,-25.64 336.01,-15.58 365.4,-12.22"/>
<polygon fill="#63b8ff" stroke="#63b8ff" points="365.57,-15.72 375.21,-11.32 364.93,-8.75 365.57,-15.72"/>
</a>
</g>
</g>
<!-- Node5 -->
<g id="Node000005" class="node">
<title>Node5</title>
<g id="a_Node000005"><a xlink:title=" ">
<polygon fill="#e0e0e0" stroke="#999999" points="127.62,-19.25 71.88,-19.25 71.88,0 127.62,0 127.62,-19.25"/>
<text text-anchor="middle" x="99.75" y="-5.75" font-family="Helvetica,sans-Serif" font-size="10.00">algorithm</text>
</a>
</g>
</g>
<!-- Node1&#45;&gt;Node5 -->
<g id="edge4_Node000001_Node000005" class="edge">
<title>Node1&#45;&gt;Node5</title>
<g id="a_edge4_Node000001_Node000005"><a xlink:title=" ">
<path fill="none" stroke="#63b8ff" d="M266.79,-165.32C232.61,-150.81 168.15,-119.35 128.75,-74.5 117.43,-61.62 109.79,-43.59 105.21,-29.97"/>
<polygon fill="#63b8ff" stroke="#63b8ff" points="108.68,-29.35 102.4,-20.82 101.99,-31.41 108.68,-29.35"/>
</a>
</g>
</g>
<!-- Node6 -->
<g id="Node000006" class="node">
<title>Node6</title>
<g id="a_Node000006"><a xlink:title=" ">
<polygon fill="#e0e0e0" stroke="#999999" points="484.5,-129.75 455,-129.75 455,-110.5 484.5,-110.5 484.5,-129.75"/>
<text text-anchor="middle" x="469.75" y="-116.25" font-family="Helvetica,sans-Serif" font-size="10.00">set</text>
</a>
</g>
</g>
<!-- Node1&#45;&gt;Node6 -->
<g id="edge5_Node000001_Node000006" class="edge">
<title>Node1&#45;&gt;Node6</title>
<g id="a_edge5_Node000001_Node000006"><a xlink:title=" ">
<path fill="none" stroke="#63b8ff" d="M324.92,-165.26C354.59,-157.38 398.39,-145.3 444.03,-130.48"/>
<polygon fill="#63b8ff" stroke="#63b8ff" points="444.87,-133.88 453.28,-127.44 442.69,-127.23 444.87,-133.88"/>
</a>
</g>
</g>
<!-- Node7 -->
<g id="Node000007" class="node">
<title>Node7</title>
<g id="a_Node000007"><a xlink:href="create_graphs_8h.html" target="_top" xlink:title=" ">
<polygon fill="white" stroke="#666666" points="370.12,-129.75 281.38,-129.75 281.38,-110.5 370.12,-110.5 370.12,-129.75"/>
<text text-anchor="middle" x="325.75" y="-116.25" font-family="Helvetica,sans-Serif" font-size="10.00">./createGraphs.h</text>
</a>
</g>
</g>
<!-- Node1&#45;&gt;Node7 -->
<g id="edge6_Node000001_Node000007" class="edge">
<title>Node1&#45;&gt;Node7</title>
<g id="a_edge6_Node000001_Node000007"><a xlink:title=" ">
<path fill="none" stroke="#63b8ff" d="M295.69,-165.58C300.46,-158.53 307.31,-148.4 313.27,-139.58"/>
<polygon fill="#63b8ff" stroke="#63b8ff" points="316.13,-141.61 318.83,-131.36 310.33,-137.69 316.13,-141.61"/>
</a>
</g>
</g>
<!-- Node8 -->
<g id="Node000008" class="node">
<title>Node8</title>
<g id="a_Node000008"><a xlink:href="_graph_8h.html" target="_top" xlink:title=" ">
<polygon fill="white" stroke="#666666" points="188,-74.5 137.5,-74.5 137.5,-55.25 188,-55.25 188,-74.5"/>
<text text-anchor="middle" x="162.75" y="-61" font-family="Helvetica,sans-Serif" font-size="10.00">Graph.h</text>
</a>
</g>
</g>
<!-- Node7&#45;&gt;Node8 -->
<g id="edge7_Node000007_Node000008" class="edge">
<title>Node7&#45;&gt;Node8</title>
<g id="a_edge7_Node000007_Node000008"><a xlink:title=" ">
<path fill="none" stroke="#63b8ff" d="M298.1,-110.09C270.88,-101.2 229.15,-87.57 199.22,-77.79"/>
<polygon fill="#63b8ff" stroke="#63b8ff" points="200.42,-74.5 189.82,-74.72 198.24,-81.15 200.42,-74.5"/>
</a>
</g>
</g>
<!-- Node9 -->
<g id="Node000009" class="node">
<title>Node9</title>
<g id="a_Node000009"><a xlink:title=" ">
<polygon fill="#e0e0e0" stroke="#999999" points="306.25,-19.25 263.25,-19.25 263.25,0 306.25,0 306.25,-19.25"/>
<text text-anchor="middle" x="284.75" y="-5.75" font-family="Helvetica,sans-Serif" font-size="10.00">vector</text>
</a>
</g>
</g>
<!-- Node7&#45;&gt;Node9 -->
<g id="edge19_Node000007_Node000009" class="edge">
<title>Node7&#45;&gt;Node9</title>
<g id="a_edge19_Node000007_Node000009"><a xlink:title=" ">
<path fill="none" stroke="#63b8ff" d="M308.65,-110.15C296.13,-102.53 280.11,-90.31 272.75,-74.5 266.2,-60.42 270.16,-43.01 275.23,-29.92"/>
<polygon fill="#63b8ff" stroke="#63b8ff" points="278.28,-31.68 279.12,-21.11 271.88,-28.85 278.28,-31.68"/>
</a>
</g>
</g>
<!-- Node12 -->
<g id="Node000012" class="node">
<title>Node12</title>
<g id="a_Node000012"><a xlink:href="_submission_8h.html" target="_top" xlink:title=" ">
<polygon fill="white" stroke="#666666" points="387.38,-74.5 282.12,-74.5 282.12,-55.25 387.38,-55.25 387.38,-74.5"/>
<text text-anchor="middle" x="334.75" y="-61" font-family="Helvetica,sans-Serif" font-size="10.00">../utils/Submission.h</text>
</a>
</g>
</g>
<!-- Node7&#45;&gt;Node12 -->
<g id="edge13_Node000007_Node000012" class="edge">
<title>Node7&#45;&gt;Node12</title>
<g id="a_edge13_Node000007_Node000012"><a xlink:title=" ">
<path fill="none" stroke="#63b8ff" d="M327.24,-110.33C328.35,-103.74 329.92,-94.46 331.34,-86.07"/>
<polygon fill="#63b8ff" stroke="#63b8ff" points="334.76,-86.8 332.98,-76.35 327.86,-85.63 334.76,-86.8"/>
</a>
</g>
</g>
<!-- Node13 -->
<g id="Node000013" class="node">
<title>Node13</title>
<g id="a_Node000013"><a xlink:href="_reviewer_8h.html" target="_top" xlink:title=" ">
<polygon fill="white" stroke="#666666" points="500.12,-74.5 405.38,-74.5 405.38,-55.25 500.12,-55.25 500.12,-74.5"/>
<text text-anchor="middle" x="452.75" y="-61" font-family="Helvetica,sans-Serif" font-size="10.00">../utils/Reviewer.h</text>
</a>
</g>
</g>
<!-- Node7&#45;&gt;Node13 -->
<g id="edge15_Node000007_Node000013" class="edge">
<title>Node7&#45;&gt;Node13</title>
<g id="a_edge15_Node000007_Node000013"><a xlink:title=" ">
<path fill="none" stroke="#63b8ff" d="M347.29,-110.09C367.36,-101.68 397.55,-89.02 420.5,-79.4"/>
<polygon fill="#63b8ff" stroke="#63b8ff" points="421.84,-82.63 429.7,-75.54 419.13,-76.18 421.84,-82.63"/>
</a>
</g>
</g>
<!-- Node14 -->
<g id="Node000014" class="node">
<title>Node14</title>
<g id="a_Node000014"><a xlink:href="_parameters_8h.html" target="_top" xlink:title=" ">
<polygon fill="white" stroke="#666666" points="623,-74.5 518.5,-74.5 518.5,-55.25 623,-55.25 623,-74.5"/>
<text text-anchor="middle" x="570.75" y="-61" font-family="Helvetica,sans-Serif" font-size="10.00">../utils/Parameters.h</text>
</a>
</g>
</g>
<!-- Node7&#45;&gt;Node14 -->
<g id="edge17_Node000007_Node000014" class="edge">
<title>Node7&#45;&gt;Node14</title>
<g id="a_edge17_Node000007_Node000014"><a xlink:title=" ">
<path fill="none" stroke="#63b8ff" d="M367.59,-110.03C409.17,-100.99 473.06,-87.11 518.07,-77.32"/>
<polygon fill="#63b8ff" stroke="#63b8ff" points="518.58,-80.8 527.6,-75.25 517.09,-73.96 518.58,-80.8"/>
</a>
</g>
</g>
<!-- Node8&#45;&gt;Node2 -->
<g id="edge8_Node000008_Node000002" class="edge">
<title>Node8&#45;&gt;Node2</title>
<g id="a_edge8_Node000008_Node000002"><a xlink:title=" ">
<path fill="none" stroke="#63b8ff" d="M139.68,-54.84C117.99,-46.35 85.27,-33.54 60.62,-23.89"/>
<polygon fill="#63b8ff" stroke="#63b8ff" points="61.93,-20.64 51.34,-20.25 59.38,-27.16 61.93,-20.64"/>
</a>
</g>
</g>
<!-- Node8&#45;&gt;Node5 -->
<g id="edge12_Node000008_Node000005" class="edge">
<title>Node8&#45;&gt;Node5</title>
<g id="a_edge12_Node000008_Node000005"><a xlink:title=" ">
<path fill="none" stroke="#63b8ff" d="M152.06,-54.84C143.05,-47.22 129.92,-36.12 119.07,-26.95"/>
<polygon fill="#63b8ff" stroke="#63b8ff" points="121.33,-24.28 111.44,-20.5 116.81,-29.63 121.33,-24.28"/>
</a>
</g>
</g>
<!-- Node8&#45;&gt;Node9 -->
<g id="edge9_Node000008_Node000009" class="edge">
<title>Node8&#45;&gt;Node9</title>
<g id="a_edge9_Node000008_Node000009"><a xlink:title=" ">
<path fill="none" stroke="#63b8ff" d="M183.45,-54.84C202.64,-46.47 231.46,-33.88 253.47,-24.28"/>
<polygon fill="#63b8ff" stroke="#63b8ff" points="254.8,-27.52 262.57,-20.31 252,-21.1 254.8,-27.52"/>
</a>
</g>
</g>
<!-- Node10 -->
<g id="Node000010" class="node">
<title>Node10</title>
<g id="a_Node000010"><a xlink:title=" ">
<polygon fill="#e0e0e0" stroke="#999999" points="187.88,-19.25 145.62,-19.25 145.62,0 187.88,0 187.88,-19.25"/>
<text text-anchor="middle" x="166.75" y="-5.75" font-family="Helvetica,sans-Serif" font-size="10.00">queue</text>
</a>
</g>
</g>
<!-- Node8&#45;&gt;Node10 -->
<g id="edge10_Node000008_Node000010" class="edge">
<title>Node8&#45;&gt;Node10</title>
<g id="a_edge10_Node000008_Node000010"><a xlink:title=" ">
<path fill="none" stroke="#63b8ff" d="M163.41,-55.08C163.91,-48.49 164.6,-39.21 165.23,-30.82"/>
<polygon fill="#63b8ff" stroke="#63b8ff" points="168.7,-31.35 165.96,-21.12 161.72,-30.83 168.7,-31.35"/>
</a>
</g>
</g>
<!-- Node11 -->
<g id="Node000011" class="node">
<title>Node11</title>
<g id="a_Node000011"><a xlink:title=" ">
<polygon fill="#e0e0e0" stroke="#999999" points="245.38,-19.25 206.12,-19.25 206.12,0 245.38,0 245.38,-19.25"/>
<text text-anchor="middle" x="225.75" y="-5.75" font-family="Helvetica,sans-Serif" font-size="10.00">limits</text>
</a>
</g>
</g>
<!-- Node8&#45;&gt;Node11 -->
<g id="edge11_Node000008_Node000011" class="edge">
<title>Node8&#45;&gt;Node11</title>
<g id="a_edge11_Node000008_Node000011"><a xlink:title=" ">
<path fill="none" stroke="#63b8ff" d="M173.44,-54.84C182.45,-47.22 195.58,-36.12 206.43,-26.95"/>
<polygon fill="#63b8ff" stroke="#63b8ff" points="208.69,-29.63 214.06,-20.5 204.17,-24.28 208.69,-29.63"/>
</a>
</g>
</g>
<!-- Node12&#45;&gt;Node4 -->
<g id="edge14_Node000012_Node000004" class="edge">
<title>Node12&#45;&gt;Node4</title>
<g id="a_edge14_Node000012_Node000004"><a xlink:title=" ">
<path fill="none" stroke="#63b8ff" d="M345.27,-54.84C354.14,-47.22 367.06,-36.12 377.74,-26.95"/>
<polygon fill="#63b8ff" stroke="#63b8ff" points="379.93,-29.68 385.24,-20.51 375.37,-24.37 379.93,-29.68"/>
</a>
</g>
</g>
<!-- Node13&#45;&gt;Node4 -->
<g id="edge16_Node000013_Node000004" class="edge">
<title>Node13&#45;&gt;Node4</title>
<g id="a_edge16_Node000013_Node000004"><a xlink:title=" ">
<path fill="none" stroke="#63b8ff" d="M443.25,-54.84C435.32,-47.3 423.8,-36.35 414.21,-27.23"/>
<polygon fill="#63b8ff" stroke="#63b8ff" points="416.86,-24.92 407.21,-20.57 412.04,-29.99 416.86,-24.92"/>
</a>
</g>
</g>
<!-- Node14&#45;&gt;Node4 -->
<g id="edge18_Node000014_Node000004" class="edge">
<title>Node14&#45;&gt;Node4</title>
<g id="a_edge18_Node000014_Node000004"><a xlink:title=" ">
<path fill="none" stroke="#63b8ff" d="M541.23,-54.84C509.8,-45.22 460.25,-30.06 428.12,-20.23"/>
<polygon fill="#63b8ff" stroke="#63b8ff" points="429.18,-16.89 418.59,-17.31 427.13,-23.58 429.18,-16.89"/>
</a>
</g>
</g>
</g>
</svg>
