<?xml version="1.0" encoding="UTF-8" standalone="no"?>
<!DOCTYPE svg PUBLIC "-//W3C//DTD SVG 1.1//EN"
 "http://www.w3.org/Graphics/SVG/1.1/DTD/svg11.dtd">
<!-- Generated by graphviz version 12.2.1 (0)
 -->
<!-- Title: TestDiff_OurSolution Pages: 1 -->
<svg width="429pt" height="359pt"
 viewBox="0.00 0.00 428.75 359.00" xmlns="http://www.w3.org/2000/svg" xmlns:xlink="http://www.w3.org/1999/xlink">
<g id="graph0" class="graph" transform="scale(1 1) rotate(0) translate(4 355)">
<title>TestDiff_OurSolution</title>
<polygon fill="white" stroke="none" points="-4,4 -4,-355 424.75,-355 424.75,4 -4,4"/>
<text text-anchor="middle" x="210.38" y="-7.05" font-family="Times,serif" font-size="11.00">Our Solution: Rev1,Rev2 at cap 2. Rev3,Rev4 at cap 1. Total flow = 6.</text>
<!-- SOURCE -->
<g id="node1" class="node">
<title>SOURCE</title>
<polygon fill="#ffcc80" stroke="black" points="74.5,-273.25 0,-273.25 0,-237.25 74.5,-237.25 74.5,-273.25"/>
<text text-anchor="middle" x="37.25" y="-249.82" font-family="Helvetica,sans-Serif" font-size="14.00">SOURCE</text>
</g>
<!-- SUB#1\npri=1 sec=2 -->
<g id="node3" class="node">
<title>SUB#1\npri=1 sec=2</title>
<polygon fill="#bbdefb" stroke="black" points="210.5,-275 123.25,-275 123.25,-235.5 210.5,-235.5 210.5,-275"/>
<text text-anchor="middle" x="166.88" y="-257.7" font-family="Helvetica,sans-Serif" font-size="14.00">SUB#1</text>
<text text-anchor="middle" x="166.88" y="-241.95" font-family="Helvetica,sans-Serif" font-size="14.00">pri=1 sec=2</text>
</g>
<!-- SOURCE&#45;&gt;SUB#1\npri=1 sec=2 -->
<g id="edge1" class="edge">
<title>SOURCE&#45;&gt;SUB#1\npri=1 sec=2</title>
<path fill="none" stroke="#1976d2" stroke-width="2" d="M74.82,-255.25C85.86,-255.25 98.23,-255.25 110.21,-255.25"/>
<polygon fill="#1976d2" stroke="#1976d2" stroke-width="2" points="109.95,-258.75 119.95,-255.25 109.95,-251.75 109.95,-258.75"/>
<text text-anchor="middle" x="98.88" y="-257.2" font-family="Helvetica,sans-Serif" font-size="9.00">2/2</text>
</g>
<!-- SUB#2\npri=3 sec=2 -->
<g id="node4" class="node">
<title>SUB#2\npri=3 sec=2</title>
<polygon fill="#bbdefb" stroke="black" points="210.5,-333 123.25,-333 123.25,-293.5 210.5,-293.5 210.5,-333"/>
<text text-anchor="middle" x="166.88" y="-315.7" font-family="Helvetica,sans-Serif" font-size="14.00">SUB#2</text>
<text text-anchor="middle" x="166.88" y="-299.95" font-family="Helvetica,sans-Serif" font-size="14.00">pri=3 sec=2</text>
</g>
<!-- SOURCE&#45;&gt;SUB#2\npri=3 sec=2 -->
<g id="edge2" class="edge">
<title>SOURCE&#45;&gt;SUB#2\npri=3 sec=2</title>
<path fill="none" stroke="#1976d2" stroke-width="2" d="M74.82,-271.87C86.21,-277.05 99.02,-282.87 111.36,-288.47"/>
<polygon fill="#1976d2" stroke="#1976d2" stroke-width="2" points="109.67,-291.55 120.23,-292.5 112.57,-285.18 109.67,-291.55"/>
<text text-anchor="middle" x="98.88" y="-286.2" font-family="Helvetica,sans-Serif" font-size="9.00">2/2</text>
</g>
<!-- SUB#3\npri=4 sec=2 -->
<g id="node5" class="node">
<title>SUB#3\npri=4 sec=2</title>
<polygon fill="#bbdefb" stroke="black" points="210.5,-217 123.25,-217 123.25,-177.5 210.5,-177.5 210.5,-217"/>
<text text-anchor="middle" x="166.88" y="-199.7" font-family="Helvetica,sans-Serif" font-size="14.00">SUB#3</text>
<text text-anchor="middle" x="166.88" y="-183.95" font-family="Helvetica,sans-Serif" font-size="14.00">pri=4 sec=2</text>
</g>
<!-- SOURCE&#45;&gt;SUB#3\npri=4 sec=2 -->
<g id="edge3" class="edge">
<title>SOURCE&#45;&gt;SUB#3\npri=4 sec=2</title>
<path fill="none" stroke="#1976d2" stroke-width="2" d="M74.82,-238.63C86.21,-233.45 99.02,-227.63 111.36,-222.03"/>
<polygon fill="#1976d2" stroke="#1976d2" stroke-width="2" points="112.57,-225.32 120.23,-218 109.67,-218.95 112.57,-225.32"/>
<text text-anchor="middle" x="98.88" y="-231.67" font-family="Helvetica,sans-Serif" font-size="9.00">2/2</text>
</g>
<!-- SINK -->
<g id="node2" class="node">
<title>SINK</title>
<polygon fill="#80cbc4" stroke="black" points="420.75,-198.25 366.75,-198.25 366.75,-162.25 420.75,-162.25 420.75,-198.25"/>
<text text-anchor="middle" x="393.75" y="-174.82" font-family="Helvetica,sans-Serif" font-size="14.00">SINK</text>
</g>
<!-- REV#1\npri=2 -->
<g id="node6" class="node">
<title>REV#1\npri=2</title>
<polygon fill="#c8e6c9" stroke="black" points="318,-351 259.25,-351 259.25,-311.5 318,-311.5 318,-351"/>
<text text-anchor="middle" x="288.62" y="-333.7" font-family="Helvetica,sans-Serif" font-size="14.00">REV#1</text>
<text text-anchor="middle" x="288.62" y="-317.95" font-family="Helvetica,sans-Serif" font-size="14.00">pri=2</text>
</g>
<!-- SUB#1\npri=1 sec=2&#45;&gt;REV#1\npri=2 -->
<g id="edge4" class="edge">
<title>SUB#1\npri=1 sec=2&#45;&gt;REV#1\npri=2</title>
<path fill="none" stroke="blue" stroke-width="2" d="M210.96,-261.15C221.55,-264.04 232.38,-268.34 241.25,-274.75 250.87,-281.7 250.7,-287.99 259.34,-300.97"/>
<polygon fill="blue" stroke="blue" stroke-width="2" points="256.33,-302.8 265.14,-308.69 261.93,-298.6 256.33,-302.8"/>
<text text-anchor="middle" x="234.88" y="-276.7" font-family="Helvetica,sans-Serif" font-size="9.00">1/1</text>
</g>
<!-- REV#2\npri=2 -->
<g id="node7" class="node">
<title>REV#2\npri=2</title>
<polygon fill="#c8e6c9" stroke="black" points="318,-293 259.25,-293 259.25,-253.5 318,-253.5 318,-293"/>
<text text-anchor="middle" x="288.62" y="-275.7" font-family="Helvetica,sans-Serif" font-size="14.00">REV#2</text>
<text text-anchor="middle" x="288.62" y="-259.95" font-family="Helvetica,sans-Serif" font-size="14.00">pri=2</text>
</g>
<!-- SUB#1\npri=1 sec=2&#45;&gt;REV#2\npri=2 -->
<g id="edge5" class="edge">
<title>SUB#1\npri=1 sec=2&#45;&gt;REV#2\npri=2</title>
<path fill="none" stroke="blue" stroke-width="2" d="M210.96,-239.55C221.01,-237.86 231.59,-237.7 241.25,-240.75 245.73,-242.16 250.16,-244.18 254.39,-246.53"/>
<polygon fill="blue" stroke="blue" stroke-width="2" points="252.19,-249.28 262.51,-251.71 255.96,-243.38 252.19,-249.28"/>
<text text-anchor="middle" x="234.88" y="-242.7" font-family="Helvetica,sans-Serif" font-size="9.00">1/1</text>
</g>
<!-- SUB#2\npri=3 sec=2&#45;&gt;REV#1\npri=2 -->
<g id="edge6" class="edge">
<title>SUB#2\npri=3 sec=2&#45;&gt;REV#1\npri=2</title>
<path fill="none" stroke="blue" stroke-width="2" d="M210.77,-319.7C222.25,-321.42 234.64,-323.29 246.05,-325"/>
<polygon fill="blue" stroke="blue" stroke-width="2" points="245.47,-328.45 255.88,-326.48 246.51,-321.53 245.47,-328.45"/>
<text text-anchor="middle" x="234.88" y="-325.81" font-family="Helvetica,sans-Serif" font-size="9.00">1/1</text>
</g>
<!-- SUB#2\npri=3 sec=2&#45;&gt;REV#2\npri=2 -->
<g id="edge7" class="edge">
<title>SUB#2\npri=3 sec=2&#45;&gt;REV#2\npri=2</title>
<path fill="none" stroke="blue" stroke-width="2" d="M210.77,-298.92C222.5,-295 235.18,-290.77 246.79,-286.89"/>
<polygon fill="blue" stroke="blue" stroke-width="2" points="247.63,-290.3 256,-283.81 245.41,-283.66 247.63,-290.3"/>
<text text-anchor="middle" x="234.88" y="-294" font-family="Helvetica,sans-Serif" font-size="9.00">1/1</text>
</g>
<!-- REV#3\npri=2 -->
<g id="node8" class="node">
<title>REV#3\npri=2</title>
<polygon fill="#c8e6c9" stroke="black" points="318,-235 259.25,-235 259.25,-195.5 318,-195.5 318,-235"/>
<text text-anchor="middle" x="288.62" y="-217.7" font-family="Helvetica,sans-Serif" font-size="14.00">REV#3</text>
<text text-anchor="middle" x="288.62" y="-201.95" font-family="Helvetica,sans-Serif" font-size="14.00">pri=2</text>
</g>
<!-- SUB#3\npri=4 sec=2&#45;&gt;REV#3\npri=2 -->
<g id="edge8" class="edge">
<title>SUB#3\npri=4 sec=2&#45;&gt;REV#3\npri=2</title>
<path fill="none" stroke="blue" stroke-width="2" d="M210.77,-203.7C222.25,-205.42 234.64,-207.29 246.05,-209"/>
<polygon fill="blue" stroke="blue" stroke-width="2" points="245.47,-212.45 255.88,-210.48 246.51,-205.53 245.47,-212.45"/>
<text text-anchor="middle" x="234.88" y="-209.81" font-family="Helvetica,sans-Serif" font-size="9.00">1/1</text>
</g>
<!-- REV#4\npri=2 -->
<g id="node9" class="node">
<title>REV#4\npri=2</title>
<polygon fill="#c8e6c9" stroke="black" points="318,-177 259.25,-177 259.25,-137.5 318,-137.5 318,-177"/>
<text text-anchor="middle" x="288.62" y="-159.7" font-family="Helvetica,sans-Serif" font-size="14.00">REV#4</text>
<text text-anchor="middle" x="288.62" y="-143.95" font-family="Helvetica,sans-Serif" font-size="14.00">pri=2</text>
</g>
<!-- SUB#3\npri=4 sec=2&#45;&gt;REV#4\npri=2 -->
<g id="edge9" class="edge">
<title>SUB#3\npri=4 sec=2&#45;&gt;REV#4\npri=2</title>
<path fill="none" stroke="blue" stroke-width="2" d="M210.77,-182.92C222.5,-179 235.18,-174.77 246.79,-170.89"/>
<polygon fill="blue" stroke="blue" stroke-width="2" points="247.63,-174.3 256,-167.81 245.41,-167.66 247.63,-174.3"/>
<text text-anchor="middle" x="234.88" y="-178" font-family="Helvetica,sans-Serif" font-size="9.00">1/1</text>
</g>
<!-- REV#1\npri=2&#45;&gt;SINK -->
<g id="edge12" class="edge">
<title>REV#1\npri=2&#45;&gt;SINK</title>
<path fill="none" stroke="#388e3c" stroke-width="2" d="M310.38,-311.18C313.05,-308.27 315.66,-305.25 318,-302.25 341.2,-272.48 363.19,-235.08 377.24,-209.58"/>
<polygon fill="#388e3c" stroke="#388e3c" stroke-width="2" points="380.15,-211.56 381.84,-201.1 373.99,-208.22 380.15,-211.56"/>
<text text-anchor="middle" x="342.38" y="-278.84" font-family="Helvetica,sans-Serif" font-size="9.00">2/2</text>
</g>
<!-- REV#2\npri=2&#45;&gt;SINK -->
<g id="edge13" class="edge">
<title>REV#2\npri=2&#45;&gt;SINK</title>
<path fill="none" stroke="#388e3c" stroke-width="2" d="M312,-253.07C326.91,-239.62 346.68,-221.79 362.93,-207.14"/>
<polygon fill="#388e3c" stroke="#388e3c" stroke-width="2" points="365.18,-209.82 370.27,-200.53 360.5,-204.62 365.18,-209.82"/>
<text text-anchor="middle" x="342.38" y="-231.49" font-family="Helvetica,sans-Serif" font-size="9.00">2/2</text>
</g>
<!-- REV#3\npri=2&#45;&gt;SINK -->
<g id="edge10" class="edge">
<title>REV#3\npri=2&#45;&gt;SINK</title>
<path fill="none" stroke="#388e3c" stroke-width="2" d="M318.35,-205.5C329.38,-201.76 342.16,-197.42 353.98,-193.41"/>
<polygon fill="#388e3c" stroke="#388e3c" stroke-width="2" points="355.09,-196.73 363.43,-190.2 352.84,-190.1 355.09,-196.73"/>
<text text-anchor="middle" x="342.38" y="-200.75" font-family="Helvetica,sans-Serif" font-size="9.00">1/2</text>
</g>
<!-- REV#4\npri=2&#45;&gt;SINK -->
<g id="edge11" class="edge">
<title>REV#4\npri=2&#45;&gt;SINK</title>
<path fill="none" stroke="#388e3c" stroke-width="2" d="M318.35,-163.66C329.26,-166.09 341.88,-168.91 353.6,-171.52"/>
<polygon fill="#388e3c" stroke="#388e3c" stroke-width="2" points="352.82,-174.93 363.34,-173.69 354.34,-168.1 352.82,-174.93"/>
<text text-anchor="middle" x="342.38" y="-172.08" font-family="Helvetica,sans-Serif" font-size="9.00">1/2</text>
</g>
<!-- REV#5\npri=2 -->
<g id="node10" class="node">
<title>REV#5\npri=2</title>
<polygon fill="#e0e0e0" stroke="black" points="318,-119 259.25,-119 259.25,-79.5 318,-79.5 318,-119"/>
<text text-anchor="middle" x="288.62" y="-101.7" font-family="Helvetica,sans-Serif" font-size="14.00">REV#5</text>
<text text-anchor="middle" x="288.62" y="-85.95" font-family="Helvetica,sans-Serif" font-size="14.00">pri=2</text>
</g>
<!-- REV#5\npri=2&#45;&gt;SINK -->
<g id="edge14" class="edge">
<title>REV#5\npri=2&#45;&gt;SINK</title>
<path fill="none" stroke="gray" stroke-dasharray="5,2" d="M315.38,-119.48C329.12,-130.27 346.14,-143.64 360.72,-155.09"/>
<polygon fill="gray" stroke="gray" points="358.22,-157.58 368.24,-161 362.54,-152.07 358.22,-157.58"/>
<text text-anchor="middle" x="342.38" y="-146.55" font-family="Helvetica,sans-Serif" font-size="9.00">0/2</text>
</g>
<!-- REV#6\npri=2 -->
<g id="node11" class="node">
<title>REV#6\npri=2</title>
<polygon fill="#e0e0e0" stroke="black" points="318,-61 259.25,-61 259.25,-21.5 318,-21.5 318,-61"/>
<text text-anchor="middle" x="288.62" y="-43.7" font-family="Helvetica,sans-Serif" font-size="14.00">REV#6</text>
<text text-anchor="middle" x="288.62" y="-27.95" font-family="Helvetica,sans-Serif" font-size="14.00">pri=2</text>
</g>
<!-- REV#6\npri=2&#45;&gt;SINK -->
<g id="edge15" class="edge">
<title>REV#6\npri=2&#45;&gt;SINK</title>
<path fill="none" stroke="gray" stroke-dasharray="5,2" d="M310.25,-61.42C312.94,-64.31 315.59,-67.31 318,-70.25 339.68,-96.75 361.33,-129.46 375.7,-152.29"/>
<polygon fill="gray" stroke="gray" points="372.71,-154.11 380.97,-160.74 378.65,-150.41 372.71,-154.11"/>
<text text-anchor="middle" x="342.38" y="-113.16" font-family="Helvetica,sans-Serif" font-size="9.00">0/2</text>
</g>
</g>
</svg>
