<?xml version="1.0" encoding="UTF-8" standalone="no"?>
<!DOCTYPE svg PUBLIC "-//W3C//DTD SVG 1.1//EN"
 "http://www.w3.org/Graphics/SVG/1.1/DTD/svg11.dtd">
<!-- Generated by graphviz version 12.2.1 (0)
 -->
<!-- Title: MaxFlowReviewAssignment Pages: 1 -->
<svg width="557pt" height="437pt"
 viewBox="0.00 0.00 557.47 436.90" xmlns="http://www.w3.org/2000/svg" xmlns:xlink="http://www.w3.org/1999/xlink">
<g id="graph0" class="graph" transform="scale(1 1) rotate(0) translate(4 432.9)">
<title>MaxFlowReviewAssignment</title>
<g id="clust1" class="cluster">
<title>cluster_submissions</title>
<polygon fill="none" stroke="#1976d2" stroke-dasharray="5,2" points="173,-238.2 173,-356.4 455,-356.4 455,-238.2 173,-238.2"/>
<text text-anchor="middle" x="254.88" y="-339.1" font-family="Helvetica,sans-Serif" font-weight="bold" font-size="14.00" fill="#0d47a1">Submissions (Domain)</text>
</g>
<g id="clust2" class="cluster">
<title>cluster_reviewers</title>
<polygon fill="none" stroke="#388e3c" stroke-dasharray="5,2" points="8,-72.5 8,-190.7 426,-190.7 426,-72.5 8,-72.5"/>
<text text-anchor="middle" x="86.5" y="-173.4" font-family="Helvetica,sans-Serif" font-weight="bold" font-size="14.00" fill="#1b5e20">Reviewers (Expertise)</text>
</g>
<!-- Source -->
<g id="node1" class="node">
<title>Source</title>
<path fill="#ffcc80" stroke="#333333" d="M330.45,-428.9C330.45,-428.9 275.55,-428.9 275.55,-428.9 269.55,-428.9 263.55,-422.9 263.55,-416.9 263.55,-416.9 263.55,-404.9 263.55,-404.9 263.55,-398.9 269.55,-392.9 275.55,-392.9 275.55,-392.9 330.45,-392.9 330.45,-392.9 336.45,-392.9 342.45,-398.9 342.45,-404.9 342.45,-404.9 342.45,-416.9 342.45,-416.9 342.45,-422.9 336.45,-428.9 330.45,-428.9"/>
<text text-anchor="middle" x="303" y="-405.47" font-family="Helvetica,sans-Serif" font-size="14.00">Source (S)</text>
</g>
<!-- Sub1 -->
<g id="node3" class="node">
<title>Sub1</title>
<path fill="white" stroke="#333333" d="M286.57,-312.65C286.57,-312.65 205.43,-312.65 205.43,-312.65 199.43,-312.65 193.43,-306.65 193.43,-300.65 193.43,-300.65 193.43,-270.2 193.43,-270.2 193.43,-264.2 199.43,-258.2 205.43,-258.2 205.43,-258.2 286.57,-258.2 286.57,-258.2 292.57,-258.2 298.57,-264.2 298.57,-270.2 298.57,-270.2 298.57,-300.65 298.57,-300.65 298.57,-306.65 292.57,-312.65 286.57,-312.65"/>
<text text-anchor="middle" x="246" y="-295.75" font-family="Helvetica,sans-Serif" font-size="14.00">Sub 1</text>
<text text-anchor="middle" x="246" y="-280" font-family="Helvetica,sans-Serif" font-size="14.00">Primary: AI</text>
<text text-anchor="middle" x="246" y="-264.25" font-family="Helvetica,sans-Serif" font-size="14.00">Secondary: DB</text>
</g>
<!-- Source&#45;&gt;Sub1 -->
<g id="edge1" class="edge">
<title>Source&#45;&gt;Sub1</title>
<path fill="none" stroke="#1976d2" stroke-width="2" d="M282.5,-392.52C277.38,-387.31 272.34,-381.27 268.75,-374.9 260.3,-359.9 254.92,-341.7 251.53,-325.72"/>
<polygon fill="#1976d2" stroke="#1976d2" stroke-width="2" points="254.98,-325.1 249.69,-315.91 248.1,-326.39 254.98,-325.1"/>
<text text-anchor="middle" x="307.38" y="-366.35" font-family="Helvetica,sans-Serif" font-size="9.00" fill="#1976d2"> cap = MinReviews</text>
</g>
<!-- Sub2 -->
<g id="node4" class="node">
<title>Sub2</title>
<path fill="white" stroke="#333333" d="M423.32,-312.65C423.32,-312.65 328.68,-312.65 328.68,-312.65 322.68,-312.65 316.68,-306.65 316.68,-300.65 316.68,-300.65 316.68,-270.2 316.68,-270.2 316.68,-264.2 322.68,-258.2 328.68,-258.2 328.68,-258.2 423.32,-258.2 423.32,-258.2 429.32,-258.2 435.32,-264.2 435.32,-270.2 435.32,-270.2 435.32,-300.65 435.32,-300.65 435.32,-306.65 429.32,-312.65 423.32,-312.65"/>
<text text-anchor="middle" x="376" y="-295.75" font-family="Helvetica,sans-Serif" font-size="14.00">Sub 2</text>
<text text-anchor="middle" x="376" y="-280" font-family="Helvetica,sans-Serif" font-size="14.00">Primary: DB</text>
<text text-anchor="middle" x="376" y="-264.25" font-family="Helvetica,sans-Serif" font-size="14.00">Secondary: None</text>
</g>
<!-- Source&#45;&gt;Sub2 -->
<g id="edge2" class="edge">
<title>Source&#45;&gt;Sub2</title>
<path fill="none" stroke="#1976d2" stroke-width="2" d="M328.9,-392.72C335.17,-387.59 341.39,-381.54 346,-374.9 356.22,-360.19 363.21,-341.7 367.85,-325.43"/>
<polygon fill="#1976d2" stroke="#1976d2" stroke-width="2" points="371.2,-326.46 370.32,-315.9 364.42,-324.7 371.2,-326.46"/>
<text text-anchor="middle" x="389.98" y="-366.35" font-family="Helvetica,sans-Serif" font-size="9.00" fill="#1976d2"> cap = MinReviews</text>
</g>
<!-- Sink -->
<g id="node2" class="node">
<title>Sink</title>
<path fill="#80cbc4" stroke="#333333" d="M235.82,-36C235.82,-36 198.18,-36 198.18,-36 192.18,-36 186.18,-30 186.18,-24 186.18,-24 186.18,-12 186.18,-12 186.18,-6 192.18,0 198.18,0 198.18,0 235.82,0 235.82,0 241.82,0 247.82,-6 247.82,-12 247.82,-12 247.82,-24 247.82,-24 247.82,-30 241.82,-36 235.82,-36"/>
<text text-anchor="middle" x="217" y="-12.57" font-family="Helvetica,sans-Serif" font-size="14.00">Sink (T)</text>
</g>
<!-- Rev1 -->
<g id="node5" class="node">
<title>Rev1</title>
<path fill="white" stroke="#333333" d="M134.32,-146.95C134.32,-146.95 39.67,-146.95 39.67,-146.95 33.67,-146.95 27.67,-140.95 27.67,-134.95 27.67,-134.95 27.67,-104.5 27.67,-104.5 27.67,-98.5 33.67,-92.5 39.67,-92.5 39.67,-92.5 134.32,-92.5 134.32,-92.5 140.32,-92.5 146.32,-98.5 146.32,-104.5 146.32,-104.5 146.32,-134.95 146.32,-134.95 146.32,-140.95 140.32,-146.95 134.32,-146.95"/>
<text text-anchor="middle" x="87" y="-130.05" font-family="Helvetica,sans-Serif" font-size="14.00">Rev A</text>
<text text-anchor="middle" x="87" y="-114.3" font-family="Helvetica,sans-Serif" font-size="14.00">Primary: AI</text>
<text text-anchor="middle" x="87" y="-98.55" font-family="Helvetica,sans-Serif" font-size="14.00">Secondary: None</text>
</g>
<!-- Sub1&#45;&gt;Rev1 -->
<g id="edge3" class="edge">
<title>Sub1&#45;&gt;Rev1</title>
<path fill="none" stroke="#ffd700" stroke-width="1.5" d="M193.39,-276.73C142.69,-268.11 71.28,-252.39 54.5,-230.2 38.6,-209.18 47.98,-180.46 60.67,-157.72"/>
<polygon fill="#ffd700" stroke="#ffd700" stroke-width="1.5" points="63.54,-159.74 65.69,-149.36 57.54,-156.13 63.54,-159.74"/>
<text text-anchor="middle" x="113.75" y="-221.65" font-family="Helvetica,sans-Serif" font-size="9.00" fill="#cca300"> cap = 1</text>
<text text-anchor="middle" x="113.75" y="-211.15" font-family="Helvetica,sans-Serif" font-size="9.00" fill="#cca300">Mode 1,2,3: Primary=Primary</text>
<text text-anchor="middle" x="113.75" y="-200.65" font-family="Helvetica,sans-Serif" font-size="9.00" fill="#cca300">(AI = AI)</text>
</g>
<!-- Rev2 -->
<g id="node6" class="node">
<title>Rev2</title>
<path fill="white" stroke="#333333" d="M257.57,-146.95C257.57,-146.95 176.43,-146.95 176.43,-146.95 170.43,-146.95 164.43,-140.95 164.43,-134.95 164.43,-134.95 164.43,-104.5 164.43,-104.5 164.43,-98.5 170.43,-92.5 176.43,-92.5 176.43,-92.5 257.57,-92.5 257.57,-92.5 263.57,-92.5 269.57,-98.5 269.57,-104.5 269.57,-104.5 269.57,-134.95 269.57,-134.95 269.57,-140.95 263.57,-146.95 257.57,-146.95"/>
<text text-anchor="middle" x="217" y="-130.05" font-family="Helvetica,sans-Serif" font-size="14.00">Rev B</text>
<text text-anchor="middle" x="217" y="-114.3" font-family="Helvetica,sans-Serif" font-size="14.00">Primary: ML</text>
<text text-anchor="middle" x="217" y="-98.55" font-family="Helvetica,sans-Serif" font-size="14.00">Secondary: DB</text>
</g>
<!-- Sub1&#45;&gt;Rev2 -->
<g id="edge5" class="edge">
<title>Sub1&#45;&gt;Rev2</title>
<path fill="none" stroke="#f44336" stroke-dasharray="1,5" d="M203.47,-257.82C194.59,-250.08 186.44,-240.81 181.5,-230.2 170.5,-206.59 179.91,-178.64 191.79,-156.89"/>
<polygon fill="#f44336" stroke="#f44336" points="194.75,-158.77 196.79,-148.37 188.71,-155.23 194.75,-158.77"/>
<text text-anchor="middle" x="236.25" y="-221.65" font-family="Helvetica,sans-Serif" font-size="9.00" fill="#f44336"> cap = 1</text>
<text text-anchor="middle" x="236.25" y="-211.15" font-family="Helvetica,sans-Serif" font-size="9.00" fill="#f44336">Mode 3: Sub.Sec=Rev.Sec</text>
<text text-anchor="middle" x="236.25" y="-200.65" font-family="Helvetica,sans-Serif" font-size="9.00" fill="#f44336">(DB = DB)</text>
</g>
<!-- Rev3 -->
<g id="node7" class="node">
<title>Rev3</title>
<path fill="white" stroke="#333333" d="M394.32,-146.95C394.32,-146.95 299.68,-146.95 299.68,-146.95 293.68,-146.95 287.68,-140.95 287.68,-134.95 287.68,-134.95 287.68,-104.5 287.68,-104.5 287.68,-98.5 293.68,-92.5 299.68,-92.5 299.68,-92.5 394.32,-92.5 394.32,-92.5 400.32,-92.5 406.32,-98.5 406.32,-104.5 406.32,-104.5 406.32,-134.95 406.32,-134.95 406.32,-140.95 400.32,-146.95 394.32,-146.95"/>
<text text-anchor="middle" x="347" y="-130.05" font-family="Helvetica,sans-Serif" font-size="14.00">Rev C</text>
<text text-anchor="middle" x="347" y="-114.3" font-family="Helvetica,sans-Serif" font-size="14.00">Primary: DB</text>
<text text-anchor="middle" x="347" y="-98.55" font-family="Helvetica,sans-Serif" font-size="14.00">Secondary: None</text>
</g>
<!-- Sub1&#45;&gt;Rev3 -->
<g id="edge4" class="edge">
<title>Sub1&#45;&gt;Rev3</title>
<path fill="none" stroke="#ff9800" stroke-dasharray="5,2" d="M270.12,-257.75C277.25,-249.24 284.81,-239.6 291,-230.2 306.25,-207.07 320.42,-179.26 330.7,-157.46"/>
<polygon fill="#ff9800" stroke="#ff9800" points="333.75,-159.2 334.78,-148.66 327.4,-156.26 333.75,-159.2"/>
<text text-anchor="middle" x="364.62" y="-221.65" font-family="Helvetica,sans-Serif" font-size="9.00" fill="#ff9800"> cap = 1</text>
<text text-anchor="middle" x="364.62" y="-211.15" font-family="Helvetica,sans-Serif" font-size="9.00" fill="#ff9800">Mode 2,3: Sub.Sec=Rev.Pri</text>
<text text-anchor="middle" x="364.62" y="-200.65" font-family="Helvetica,sans-Serif" font-size="9.00" fill="#ff9800">(DB = DB)</text>
</g>
<!-- Sub2&#45;&gt;Rev3 -->
<g id="edge6" class="edge">
<title>Sub2&#45;&gt;Rev3</title>
<path fill="none" stroke="#ffd700" stroke-width="1.5" d="M408.45,-257.83C415.97,-249.82 422.95,-240.41 427,-230.2 432.16,-217.19 432.44,-211.6 427,-198.7 420.02,-182.15 407.62,-167.36 394.63,-155.24"/>
<polygon fill="#ffd700" stroke="#ffd700" stroke-width="1.5" points="397.12,-152.77 387.31,-148.78 392.49,-158.02 397.12,-152.77"/>
<text text-anchor="middle" x="490.22" y="-221.65" font-family="Helvetica,sans-Serif" font-size="9.00" fill="#cca300"> cap = 1</text>
<text text-anchor="middle" x="490.22" y="-211.15" font-family="Helvetica,sans-Serif" font-size="9.00" fill="#cca300">Mode 1,2,3: Primary=Primary</text>
<text text-anchor="middle" x="490.22" y="-200.65" font-family="Helvetica,sans-Serif" font-size="9.00" fill="#cca300">(DB = DB)</text>
</g>
<!-- Rev1&#45;&gt;Sink -->
<g id="edge7" class="edge">
<title>Rev1&#45;&gt;Sink</title>
<path fill="none" stroke="#388e3c" stroke-width="2" d="M101.43,-92.09C109.48,-79.21 120.51,-64.34 133.5,-54 145.27,-44.63 159.91,-37.38 173.63,-31.96"/>
<polygon fill="#388e3c" stroke="#388e3c" stroke-width="2" points="174.82,-35.25 183.01,-28.54 172.42,-28.68 174.82,-35.25"/>
<text text-anchor="middle" x="173.25" y="-55.95" font-family="Helvetica,sans-Serif" font-size="9.00" fill="#388e3c"> cap = MaxReviews</text>
</g>
<!-- Rev2&#45;&gt;Sink -->
<g id="edge8" class="edge">
<title>Rev2&#45;&gt;Sink</title>
<path fill="none" stroke="#388e3c" stroke-width="2" d="M217,-92C217,-78.76 217,-62.72 217,-49.05"/>
<polygon fill="#388e3c" stroke="#388e3c" stroke-width="2" points="220.5,-49.4 217,-39.4 213.5,-49.4 220.5,-49.4"/>
<text text-anchor="middle" x="256.75" y="-55.95" font-family="Helvetica,sans-Serif" font-size="9.00" fill="#388e3c"> cap = MaxReviews</text>
</g>
<!-- Rev3&#45;&gt;Sink -->
<g id="edge9" class="edge">
<title>Rev3&#45;&gt;Sink</title>
<path fill="none" stroke="#388e3c" stroke-width="2" d="M332.79,-92.07C324.84,-79.19 313.93,-64.32 301,-54 288.97,-44.39 273.93,-37.03 259.91,-31.59"/>
<polygon fill="#388e3c" stroke="#388e3c" stroke-width="2" points="261.39,-28.41 250.8,-28.32 259.03,-34.99 261.39,-28.41"/>
<text text-anchor="middle" x="351.77" y="-55.95" font-family="Helvetica,sans-Serif" font-size="9.00" fill="#388e3c"> cap = MaxReviews</text>
</g>
</g>
</svg>
