<?xml version="1.0" encoding="UTF-8" standalone="no"?>
<!DOCTYPE svg PUBLIC "-//W3C//DTD SVG 1.1//EN"
 "http://www.w3.org/Graphics/SVG/1.1/DTD/svg11.dtd">
<!-- Generated by graphviz version 12.2.1 (0)
 -->
<!-- Title: T22_Example Pages: 1 -->
<svg width="408pt" height="174pt"
 viewBox="0.00 0.00 407.75 173.50" xmlns="http://www.w3.org/2000/svg" xmlns:xlink="http://www.w3.org/1999/xlink">
<g id="graph0" class="graph" transform="scale(1 1) rotate(0) translate(4 169.5)">
<title>T22_Example</title>
<!-- SOURCE -->
<g id="node1" class="node">
<title>SOURCE</title>
<polygon fill="#ffcc80" stroke="black" points="74.5,-77.5 0,-77.5 0,-41.5 74.5,-41.5 74.5,-77.5"/>
<text text-anchor="middle" x="37.25" y="-53.7" font-family="Helvetica,sans-Serif" font-size="14.00">SOURCE</text>
</g>
<!-- SUB#1\nTopic: 1 -->
<g id="node3" class="node">
<title>SUB#1\nTopic: 1</title>
<polygon fill="#bbdefb" stroke="black" points="185.75,-109.5 123.25,-109.5 123.25,-71.5 185.75,-71.5 185.75,-109.5"/>
<text text-anchor="middle" x="154.5" y="-92.2" font-family="Helvetica,sans-Serif" font-size="14.00">SUB#1</text>
<text text-anchor="middle" x="154.5" y="-77.2" font-family="Helvetica,sans-Serif" font-size="14.00">Topic: 1</text>
</g>
<!-- SOURCE&#45;&gt;SUB#1\nTopic: 1 -->
<g id="edge1" class="edge">
<title>SOURCE&#45;&gt;SUB#1\nTopic: 1</title>
<path fill="none" stroke="#1976d2" stroke-width="2" d="M74.72,-69.31C86.15,-72.38 98.86,-75.8 110.69,-78.98"/>
<polygon fill="#1976d2" stroke="#1976d2" stroke-width="2" points="109.58,-82.31 120.15,-81.53 111.4,-75.55 109.58,-82.31"/>
<text text-anchor="middle" x="98.88" y="-78.06" font-family="Helvetica,sans-Serif" font-size="9.00">1/1</text>
</g>
<!-- SUB#2\nTopic: 2 -->
<g id="node4" class="node">
<title>SUB#2\nTopic: 2</title>
<polygon fill="#bbdefb" stroke="black" points="185.75,-51.5 123.25,-51.5 123.25,-13.5 185.75,-13.5 185.75,-51.5"/>
<text text-anchor="middle" x="154.5" y="-34.2" font-family="Helvetica,sans-Serif" font-size="14.00">SUB#2</text>
<text text-anchor="middle" x="154.5" y="-19.2" font-family="Helvetica,sans-Serif" font-size="14.00">Topic: 2</text>
</g>
<!-- SOURCE&#45;&gt;SUB#2\nTopic: 2 -->
<g id="edge2" class="edge">
<title>SOURCE&#45;&gt;SUB#2\nTopic: 2</title>
<path fill="none" stroke="#1976d2" stroke-width="2" d="M74.72,-50.96C86.15,-48.28 98.86,-45.3 110.69,-42.53"/>
<polygon fill="#1976d2" stroke="#1976d2" stroke-width="2" points="111.18,-46.01 120.12,-40.32 109.59,-39.19 111.18,-46.01"/>
<text text-anchor="middle" x="98.88" y="-47.2" font-family="Helvetica,sans-Serif" font-size="9.00">1/1</text>
</g>
<!-- SINK -->
<g id="node2" class="node">
<title>SINK</title>
<polygon fill="#80cbc4" stroke="black" points="399.75,-108.5 345.75,-108.5 345.75,-72.5 399.75,-72.5 399.75,-108.5"/>
<text text-anchor="middle" x="372.75" y="-84.7" font-family="Helvetica,sans-Serif" font-size="14.00">SINK</text>
</g>
<!-- REV#1\nTopic: 1 -->
<g id="node5" class="node">
<title>REV#1\nTopic: 1</title>
<polygon fill="#c8e6c9" stroke="black" points="297,-165.5 234.5,-165.5 234.5,-127.5 297,-127.5 297,-165.5"/>
<text text-anchor="middle" x="265.75" y="-148.2" font-family="Helvetica,sans-Serif" font-size="14.00">REV#1</text>
<text text-anchor="middle" x="265.75" y="-133.2" font-family="Helvetica,sans-Serif" font-size="14.00">Topic: 1</text>
</g>
<!-- SUB#1\nTopic: 1&#45;&gt;REV#1\nTopic: 1 -->
<g id="edge3" class="edge">
<title>SUB#1\nTopic: 1&#45;&gt;REV#1\nTopic: 1</title>
<path fill="none" stroke="blue" stroke-width="2" d="M186.22,-106.25C197.61,-112.08 210.71,-118.8 222.92,-125.06"/>
<polygon fill="blue" stroke="blue" stroke-width="2" points="221.07,-128.04 231.56,-129.49 224.26,-121.81 221.07,-128.04"/>
<text text-anchor="middle" x="210.12" y="-121.38" font-family="Helvetica,sans-Serif" font-size="9.00">1/1</text>
</g>
<!-- REV#2\nTopic: 1 -->
<g id="node6" class="node">
<title>REV#2\nTopic: 1</title>
<polygon fill="#c8e6c9" stroke="black" points="297,-109.5 234.5,-109.5 234.5,-71.5 297,-71.5 297,-109.5"/>
<text text-anchor="middle" x="265.75" y="-92.2" font-family="Helvetica,sans-Serif" font-size="14.00">REV#2</text>
<text text-anchor="middle" x="265.75" y="-77.2" font-family="Helvetica,sans-Serif" font-size="14.00">Topic: 1</text>
</g>
<!-- SUB#1\nTopic: 1&#45;&gt;REV#2\nTopic: 1 -->
<g id="edge5" class="edge">
<title>SUB#1\nTopic: 1&#45;&gt;REV#2\nTopic: 1</title>
<path fill="none" stroke="gray" stroke-dasharray="5,2" d="M186.22,-90.5C197.61,-90.5 210.71,-90.5 222.92,-90.5"/>
<polygon fill="gray" stroke="gray" points="222.74,-94 232.74,-90.5 222.74,-87 222.74,-94"/>
<text text-anchor="middle" x="210.12" y="-91.7" font-family="Helvetica,sans-Serif" font-size="9.00">0/1</text>
</g>
<!-- REV#3\nTopic: 2\nRISKY! -->
<g id="node7" class="node">
<title>REV#3\nTopic: 2\nRISKY!</title>
<polygon fill="#ffcdd2" stroke="#d32f2f" stroke-width="2" points="297,-53 234.5,-53 234.5,0 297,0 297,-53"/>
<text text-anchor="middle" x="265.75" y="-35.7" font-family="Helvetica,sans-Serif" font-size="14.00">REV#3</text>
<text text-anchor="middle" x="265.75" y="-20.7" font-family="Helvetica,sans-Serif" font-size="14.00">Topic: 2</text>
<text text-anchor="middle" x="265.75" y="-5.7" font-family="Helvetica,sans-Serif" font-size="14.00">RISKY!</text>
</g>
<!-- SUB#2\nTopic: 2&#45;&gt;REV#3\nTopic: 2\nRISKY! -->
<g id="edge4" class="edge">
<title>SUB#2\nTopic: 2&#45;&gt;REV#3\nTopic: 2\nRISKY!</title>
<path fill="none" stroke="blue" stroke-width="2" d="M186.22,-30.81C197.04,-30.22 209.43,-29.54 221.11,-28.9"/>
<polygon fill="blue" stroke="blue" stroke-width="2" points="221.06,-32.4 230.86,-28.36 220.68,-25.42 221.06,-32.4"/>
<text text-anchor="middle" x="210.12" y="-30.88" font-family="Helvetica,sans-Serif" font-size="9.00">1/1</text>
</g>
<!-- REV#1\nTopic: 1&#45;&gt;SINK -->
<g id="edge6" class="edge">
<title>REV#1\nTopic: 1&#45;&gt;SINK</title>
<path fill="none" stroke="#388e3c" stroke-width="2" d="M297.4,-130.15C308.96,-123.99 322.24,-116.9 334.35,-110.45"/>
<polygon fill="#388e3c" stroke="#388e3c" stroke-width="2" points="335.66,-113.72 342.83,-105.92 332.36,-107.54 335.66,-113.72"/>
<text text-anchor="middle" x="321.38" y="-121.38" font-family="Helvetica,sans-Serif" font-size="9.00">1/2</text>
</g>
<!-- REV#2\nTopic: 1&#45;&gt;SINK -->
<g id="edge7" class="edge">
<title>REV#2\nTopic: 1&#45;&gt;SINK</title>
<path fill="none" stroke="gray" stroke-dasharray="5,2" d="M297.4,-90.5C308.96,-90.5 322.24,-90.5 334.35,-90.5"/>
<polygon fill="gray" stroke="gray" points="333.99,-94 343.99,-90.5 333.99,-87 333.99,-94"/>
<text text-anchor="middle" x="321.38" y="-91.7" font-family="Helvetica,sans-Serif" font-size="9.00">0/2</text>
</g>
<!-- REV#3\nTopic: 2\nRISKY!&#45;&gt;SINK -->
<g id="edge8" class="edge">
<title>REV#3\nTopic: 2\nRISKY!&#45;&gt;SINK</title>
<path fill="none" stroke="#388e3c" stroke-width="2" d="M297.97,-45.53C309.42,-52.51 322.5,-60.48 334.43,-67.76"/>
<polygon fill="#388e3c" stroke="#388e3c" stroke-width="2" points="332.49,-70.67 342.85,-72.88 336.13,-64.69 332.49,-70.67"/>
<text text-anchor="middle" x="321.38" y="-63.53" font-family="Helvetica,sans-Serif" font-size="9.00">1/2</text>
</g>
</g>
</svg>
