<?xml version="1.0" encoding="UTF-8" standalone="no"?>
<!DOCTYPE svg PUBLIC "-//W3C//DTD SVG 1.1//EN"
 "http://www.w3.org/Graphics/SVG/1.1/DTD/svg11.dtd">
<!-- Generated by graphviz version 12.2.1 (0)
 -->
<!-- Title: T21_Example Pages: 1 -->
<svg width="408pt" height="158pt"
 viewBox="0.00 0.00 407.75 158.00" xmlns="http://www.w3.org/2000/svg" xmlns:xlink="http://www.w3.org/1999/xlink">
<g id="graph0" class="graph" transform="scale(1 1) rotate(0) translate(4 154)">
<title>T21_Example</title>
<!-- SOURCE -->
<g id="node1" class="node">
<title>SOURCE</title>
<polygon fill="#ffcc80" stroke="black" points="74.5,-64 0,-64 0,-28 74.5,-28 74.5,-64"/>
<text text-anchor="middle" x="37.25" y="-40.2" font-family="Helvetica,sans-Serif" font-size="14.00">SOURCE</text>
</g>
<!-- SUB#1\nTopic: 1 -->
<g id="node3" class="node">
<title>SUB#1\nTopic: 1</title>
<polygon fill="#bbdefb" stroke="black" points="185.75,-94 123.25,-94 123.25,-56 185.75,-56 185.75,-94"/>
<text text-anchor="middle" x="154.5" y="-76.7" font-family="Helvetica,sans-Serif" font-size="14.00">SUB#1</text>
<text text-anchor="middle" x="154.5" y="-61.7" font-family="Helvetica,sans-Serif" font-size="14.00">Topic: 1</text>
</g>
<!-- SOURCE&#45;&gt;SUB#1\nTopic: 1 -->
<g id="edge1" class="edge">
<title>SOURCE&#45;&gt;SUB#1\nTopic: 1</title>
<path fill="none" stroke="#1976d2" stroke-width="2" d="M74.72,-55.18C86.15,-58.05 98.86,-61.25 110.69,-64.23"/>
<polygon fill="#1976d2" stroke="#1976d2" stroke-width="2" points="109.58,-67.56 120.13,-66.6 111.29,-60.77 109.58,-67.56"/>
<text text-anchor="middle" x="98.88" y="-63.44" font-family="Helvetica,sans-Serif" font-size="9.00">2/2</text>
</g>
<!-- SUB#2\nTopic: 2 -->
<g id="node4" class="node">
<title>SUB#2\nTopic: 2</title>
<polygon fill="#bbdefb" stroke="black" points="185.75,-38 123.25,-38 123.25,0 185.75,0 185.75,-38"/>
<text text-anchor="middle" x="154.5" y="-20.7" font-family="Helvetica,sans-Serif" font-size="14.00">SUB#2</text>
<text text-anchor="middle" x="154.5" y="-5.7" font-family="Helvetica,sans-Serif" font-size="14.00">Topic: 2</text>
</g>
<!-- SOURCE&#45;&gt;SUB#2\nTopic: 2 -->
<g id="edge2" class="edge">
<title>SOURCE&#45;&gt;SUB#2\nTopic: 2</title>
<path fill="none" stroke="#1976d2" stroke-width="2" d="M74.72,-37.46C86.15,-34.78 98.86,-31.8 110.69,-29.03"/>
<polygon fill="#1976d2" stroke="#1976d2" stroke-width="2" points="111.18,-32.51 120.12,-26.82 109.59,-25.69 111.18,-32.51"/>
<text text-anchor="middle" x="98.88" y="-33.7" font-family="Helvetica,sans-Serif" font-size="9.00">1/2</text>
</g>
<!-- SINK -->
<g id="node2" class="node">
<title>SINK</title>
<polygon fill="#80cbc4" stroke="black" points="399.75,-93 345.75,-93 345.75,-57 399.75,-57 399.75,-93"/>
<text text-anchor="middle" x="372.75" y="-69.2" font-family="Helvetica,sans-Serif" font-size="14.00">SINK</text>
</g>
<!-- REV#1\nTopic: 1 -->
<g id="node5" class="node">
<title>REV#1\nTopic: 1</title>
<polygon fill="#c8e6c9" stroke="black" points="297,-150 234.5,-150 234.5,-112 297,-112 297,-150"/>
<text text-anchor="middle" x="265.75" y="-132.7" font-family="Helvetica,sans-Serif" font-size="14.00">REV#1</text>
<text text-anchor="middle" x="265.75" y="-117.7" font-family="Helvetica,sans-Serif" font-size="14.00">Topic: 1</text>
</g>
<!-- SUB#1\nTopic: 1&#45;&gt;REV#1\nTopic: 1 -->
<g id="edge3" class="edge">
<title>SUB#1\nTopic: 1&#45;&gt;REV#1\nTopic: 1</title>
<path fill="none" stroke="blue" stroke-width="2" d="M186.22,-90.75C197.61,-96.58 210.71,-103.3 222.92,-109.56"/>
<polygon fill="blue" stroke="blue" stroke-width="2" points="221.07,-112.54 231.56,-113.99 224.26,-106.31 221.07,-112.54"/>
<text text-anchor="middle" x="210.12" y="-105.88" font-family="Helvetica,sans-Serif" font-size="9.00">1/1</text>
</g>
<!-- REV#2\nTopic: 1 -->
<g id="node6" class="node">
<title>REV#2\nTopic: 1</title>
<polygon fill="#c8e6c9" stroke="black" points="297,-94 234.5,-94 234.5,-56 297,-56 297,-94"/>
<text text-anchor="middle" x="265.75" y="-76.7" font-family="Helvetica,sans-Serif" font-size="14.00">REV#2</text>
<text text-anchor="middle" x="265.75" y="-61.7" font-family="Helvetica,sans-Serif" font-size="14.00">Topic: 1</text>
</g>
<!-- SUB#1\nTopic: 1&#45;&gt;REV#2\nTopic: 1 -->
<g id="edge4" class="edge">
<title>SUB#1\nTopic: 1&#45;&gt;REV#2\nTopic: 1</title>
<path fill="none" stroke="blue" stroke-width="2" d="M186.22,-75C197.14,-75 209.64,-75 221.4,-75"/>
<polygon fill="blue" stroke="blue" stroke-width="2" points="221.23,-78.5 231.23,-75 221.23,-71.5 221.23,-78.5"/>
<text text-anchor="middle" x="210.12" y="-76.2" font-family="Helvetica,sans-Serif" font-size="9.00">1/1</text>
</g>
<!-- REV#3\nTopic: 2 -->
<g id="node7" class="node">
<title>REV#3\nTopic: 2</title>
<polygon fill="#c8e6c9" stroke="black" points="297,-38 234.5,-38 234.5,0 297,0 297,-38"/>
<text text-anchor="middle" x="265.75" y="-20.7" font-family="Helvetica,sans-Serif" font-size="14.00">REV#3</text>
<text text-anchor="middle" x="265.75" y="-5.7" font-family="Helvetica,sans-Serif" font-size="14.00">Topic: 2</text>
</g>
<!-- SUB#2\nTopic: 2&#45;&gt;REV#3\nTopic: 2 -->
<g id="edge5" class="edge">
<title>SUB#2\nTopic: 2&#45;&gt;REV#3\nTopic: 2</title>
<path fill="none" stroke="blue" stroke-width="2" d="M186.22,-19C197.14,-19 209.64,-19 221.4,-19"/>
<polygon fill="blue" stroke="blue" stroke-width="2" points="221.23,-22.5 231.23,-19 221.23,-15.5 221.23,-22.5"/>
<text text-anchor="middle" x="210.12" y="-20.2" font-family="Helvetica,sans-Serif" font-size="9.00">1/1</text>
</g>
<!-- REV#1\nTopic: 1&#45;&gt;SINK -->
<g id="edge6" class="edge">
<title>REV#1\nTopic: 1&#45;&gt;SINK</title>
<path fill="none" stroke="#388e3c" stroke-width="2" d="M297.4,-114.65C308.96,-108.49 322.24,-101.4 334.35,-94.95"/>
<polygon fill="#388e3c" stroke="#388e3c" stroke-width="2" points="335.66,-98.22 342.83,-90.42 332.36,-92.04 335.66,-98.22"/>
<text text-anchor="middle" x="321.38" y="-105.88" font-family="Helvetica,sans-Serif" font-size="9.00">1/2</text>
</g>
<!-- REV#2\nTopic: 1&#45;&gt;SINK -->
<g id="edge7" class="edge">
<title>REV#2\nTopic: 1&#45;&gt;SINK</title>
<path fill="none" stroke="#388e3c" stroke-width="2" d="M297.4,-75C308.49,-75 321.15,-75 332.85,-75"/>
<polygon fill="#388e3c" stroke="#388e3c" stroke-width="2" points="332.48,-78.5 342.48,-75 332.48,-71.5 332.48,-78.5"/>
<text text-anchor="middle" x="321.38" y="-76.2" font-family="Helvetica,sans-Serif" font-size="9.00">1/2</text>
</g>
<!-- REV#3\nTopic: 2&#45;&gt;SINK -->
<g id="edge8" class="edge">
<title>REV#3\nTopic: 2&#45;&gt;SINK</title>
<path fill="none" stroke="#388e3c" stroke-width="2" d="M297.4,-35.35C308.96,-41.51 322.24,-48.6 334.35,-55.05"/>
<polygon fill="#388e3c" stroke="#388e3c" stroke-width="2" points="332.36,-57.96 342.83,-59.58 335.66,-51.78 332.36,-57.96"/>
<text text-anchor="middle" x="321.38" y="-51.55" font-family="Helvetica,sans-Serif" font-size="9.00">1/2</text>
</g>
</g>
</svg>
