<?xml version="1.0" encoding="UTF-8" standalone="no"?>
<!DOCTYPE svg PUBLIC "-//W3C//DTD SVG 1.1//EN"
 "http://www.w3.org/Graphics/SVG/1.1/DTD/svg11.dtd">
<!-- Generated by graphviz version 12.2.1 (0)
 -->
<!-- Title: T21_Example Pages: 1 -->
<svg width="408pt" height="164pt"
 viewBox="0.00 0.00 407.75 163.50" xmlns="http://www.w3.org/2000/svg" xmlns:xlink="http://www.w3.org/1999/xlink">
<g id="graph0" class="graph" transform="scale(1 1) rotate(0) translate(4 159.5)">
<title>T21_Example</title>
<polygon fill="white" stroke="none" points="-4,4 -4,-159.5 403.75,-159.5 403.75,4 -4,4"/>
<!-- SOURCE -->
<g id="node1" class="node">
<title>SOURCE</title>
<polygon fill="#ffcc80" stroke="black" points="74.5,-66.75 0,-66.75 0,-30.75 74.5,-30.75 74.5,-66.75"/>
<text text-anchor="middle" x="37.25" y="-43.33" font-family="Helvetica,sans-Serif" font-size="14.00">SOURCE</text>
</g>
<!-- SUB#1\nTopic: 1 -->
<g id="node3" class="node">
<title>SUB#1\nTopic: 1</title>
<polygon fill="#bbdefb" stroke="black" points="185.75,-97.5 123.25,-97.5 123.25,-58 185.75,-58 185.75,-97.5"/>
<text text-anchor="middle" x="154.5" y="-80.2" font-family="Helvetica,sans-Serif" font-size="14.00">SUB#1</text>
<text text-anchor="middle" x="154.5" y="-64.45" font-family="Helvetica,sans-Serif" font-size="14.00">Topic: 1</text>
</g>
<!-- SOURCE&#45;&gt;SUB#1\nTopic: 1 -->
<g id="edge1" class="edge">
<title>SOURCE&#45;&gt;SUB#1\nTopic: 1</title>
<path fill="none" stroke="#1976d2" stroke-width="2" d="M74.72,-57.93C86.15,-60.8 98.86,-64 110.69,-66.98"/>
<polygon fill="#1976d2" stroke="#1976d2" stroke-width="2" points="109.58,-70.31 120.13,-69.35 111.29,-63.52 109.58,-70.31"/>
<text text-anchor="middle" x="98.88" y="-66.94" font-family="Helvetica,sans-Serif" font-size="9.00">2/2</text>
</g>
<!-- SUB#2\nTopic: 2 -->
<g id="node4" class="node">
<title>SUB#2\nTopic: 2</title>
<polygon fill="#bbdefb" stroke="black" points="185.75,-39.5 123.25,-39.5 123.25,0 185.75,0 185.75,-39.5"/>
<text text-anchor="middle" x="154.5" y="-22.2" font-family="Helvetica,sans-Serif" font-size="14.00">SUB#2</text>
<text text-anchor="middle" x="154.5" y="-6.45" font-family="Helvetica,sans-Serif" font-size="14.00">Topic: 2</text>
</g>
<!-- SOURCE&#45;&gt;SUB#2\nTopic: 2 -->
<g id="edge2" class="edge">
<title>SOURCE&#45;&gt;SUB#2\nTopic: 2</title>
<path fill="none" stroke="#1976d2" stroke-width="2" d="M74.72,-39.57C86.15,-36.7 98.86,-33.5 110.69,-30.52"/>
<polygon fill="#1976d2" stroke="#1976d2" stroke-width="2" points="111.29,-33.98 120.13,-28.15 109.58,-27.19 111.29,-33.98"/>
<text text-anchor="middle" x="98.88" y="-36.2" font-family="Helvetica,sans-Serif" font-size="9.00">1/2</text>
</g>
<!-- SINK -->
<g id="node2" class="node">
<title>SINK</title>
<polygon fill="#80cbc4" stroke="black" points="399.75,-95.75 345.75,-95.75 345.75,-59.75 399.75,-59.75 399.75,-95.75"/>
<text text-anchor="middle" x="372.75" y="-72.33" font-family="Helvetica,sans-Serif" font-size="14.00">SINK</text>
</g>
<!-- REV#1\nTopic: 1 -->
<g id="node5" class="node">
<title>REV#1\nTopic: 1</title>
<polygon fill="#c8e6c9" stroke="black" points="297,-155.5 234.5,-155.5 234.5,-116 297,-116 297,-155.5"/>
<text text-anchor="middle" x="265.75" y="-138.2" font-family="Helvetica,sans-Serif" font-size="14.00">REV#1</text>
<text text-anchor="middle" x="265.75" y="-122.45" font-family="Helvetica,sans-Serif" font-size="14.00">Topic: 1</text>
</g>
<!-- SUB#1\nTopic: 1&#45;&gt;REV#1\nTopic: 1 -->
<g id="edge3" class="edge">
<title>SUB#1\nTopic: 1&#45;&gt;REV#1\nTopic: 1</title>
<path fill="none" stroke="blue" stroke-width="2" d="M186.22,-94.06C197.61,-100.1 210.71,-107.06 222.92,-113.54"/>
<polygon fill="blue" stroke="blue" stroke-width="2" points="221.11,-116.54 231.58,-118.14 224.39,-110.36 221.11,-116.54"/>
<text text-anchor="middle" x="210.12" y="-110.44" font-family="Helvetica,sans-Serif" font-size="9.00">1/1</text>
</g>
<!-- REV#2\nTopic: 1 -->
<g id="node6" class="node">
<title>REV#2\nTopic: 1</title>
<polygon fill="#c8e6c9" stroke="black" points="297,-97.5 234.5,-97.5 234.5,-58 297,-58 297,-97.5"/>
<text text-anchor="middle" x="265.75" y="-80.2" font-family="Helvetica,sans-Serif" font-size="14.00">REV#2</text>
<text text-anchor="middle" x="265.75" y="-64.45" font-family="Helvetica,sans-Serif" font-size="14.00">Topic: 1</text>
</g>
<!-- SUB#1\nTopic: 1&#45;&gt;REV#2\nTopic: 1 -->
<g id="edge4" class="edge">
<title>SUB#1\nTopic: 1&#45;&gt;REV#2\nTopic: 1</title>
<path fill="none" stroke="blue" stroke-width="2" d="M186.22,-77.75C197.14,-77.75 209.64,-77.75 221.4,-77.75"/>
<polygon fill="blue" stroke="blue" stroke-width="2" points="221.23,-81.25 231.23,-77.75 221.23,-74.25 221.23,-81.25"/>
<text text-anchor="middle" x="210.12" y="-79.7" font-family="Helvetica,sans-Serif" font-size="9.00">1/1</text>
</g>
<!-- REV#3\nTopic: 2 -->
<g id="node7" class="node">
<title>REV#3\nTopic: 2</title>
<polygon fill="#c8e6c9" stroke="black" points="297,-39.5 234.5,-39.5 234.5,0 297,0 297,-39.5"/>
<text text-anchor="middle" x="265.75" y="-22.2" font-family="Helvetica,sans-Serif" font-size="14.00">REV#3</text>
<text text-anchor="middle" x="265.75" y="-6.45" font-family="Helvetica,sans-Serif" font-size="14.00">Topic: 2</text>
</g>
<!-- SUB#2\nTopic: 2&#45;&gt;REV#3\nTopic: 2 -->
<g id="edge5" class="edge">
<title>SUB#2\nTopic: 2&#45;&gt;REV#3\nTopic: 2</title>
<path fill="none" stroke="blue" stroke-width="2" d="M186.22,-19.75C197.14,-19.75 209.64,-19.75 221.4,-19.75"/>
<polygon fill="blue" stroke="blue" stroke-width="2" points="221.23,-23.25 231.23,-19.75 221.23,-16.25 221.23,-23.25"/>
<text text-anchor="middle" x="210.12" y="-21.7" font-family="Helvetica,sans-Serif" font-size="9.00">1/1</text>
</g>
<!-- REV#1\nTopic: 1&#45;&gt;SINK -->
<g id="edge6" class="edge">
<title>REV#1\nTopic: 1&#45;&gt;SINK</title>
<path fill="none" stroke="#388e3c" stroke-width="2" d="M297.4,-118.82C308.96,-112.43 322.24,-105.1 334.35,-98.41"/>
<polygon fill="#388e3c" stroke="#388e3c" stroke-width="2" points="335.8,-101.61 342.86,-93.71 332.41,-95.48 335.8,-101.61"/>
<text text-anchor="middle" x="321.38" y="-110.44" font-family="Helvetica,sans-Serif" font-size="9.00">1/2</text>
</g>
<!-- REV#2\nTopic: 1&#45;&gt;SINK -->
<g id="edge7" class="edge">
<title>REV#2\nTopic: 1&#45;&gt;SINK</title>
<path fill="none" stroke="#388e3c" stroke-width="2" d="M297.4,-77.75C308.49,-77.75 321.15,-77.75 332.85,-77.75"/>
<polygon fill="#388e3c" stroke="#388e3c" stroke-width="2" points="332.48,-81.25 342.48,-77.75 332.48,-74.25 332.48,-81.25"/>
<text text-anchor="middle" x="321.38" y="-79.7" font-family="Helvetica,sans-Serif" font-size="9.00">1/2</text>
</g>
<!-- REV#3\nTopic: 2&#45;&gt;SINK -->
<g id="edge8" class="edge">
<title>REV#3\nTopic: 2&#45;&gt;SINK</title>
<path fill="none" stroke="#388e3c" stroke-width="2" d="M297.4,-36.68C308.96,-43.07 322.24,-50.4 334.35,-57.09"/>
<polygon fill="#388e3c" stroke="#388e3c" stroke-width="2" points="332.41,-60.02 342.86,-61.79 335.8,-53.89 332.41,-60.02"/>
<text text-anchor="middle" x="321.38" y="-54.17" font-family="Helvetica,sans-Serif" font-size="9.00">1/2</text>
</g>
</g>
</svg>
