<?xml version="1.0" encoding="UTF-8" standalone="no"?>
<!DOCTYPE svg PUBLIC "-//W3C//DTD SVG 1.1//EN"
 "http://www.w3.org/Graphics/SVG/1.1/DTD/svg11.dtd">
<!-- Generated by graphviz version 12.2.1 (0)
 -->
<!-- Title: T24_Example Pages: 1 -->
<svg width="418pt" height="268pt"
 viewBox="0.00 0.00 417.50 268.06" xmlns="http://www.w3.org/2000/svg" xmlns:xlink="http://www.w3.org/1999/xlink">
<g id="graph0" class="graph" transform="scale(1 1) rotate(0) translate(4 264.06)">
<title>T24_Example</title>
<polygon fill="white" stroke="none" points="-4,4 -4,-264.06 413.5,-264.06 413.5,4 -4,4"/>
<!-- SOURCE -->
<g id="node1" class="node">
<title>SOURCE</title>
<polygon fill="#ffcc80" stroke="black" points="74.5,-155.62 0,-155.62 0,-119.62 74.5,-119.62 74.5,-155.62"/>
<text text-anchor="middle" x="37.25" y="-132.2" font-family="Helvetica,sans-Serif" font-size="14.00">SOURCE</text>
</g>
<!-- SUB#1\npri=1\nsec=2 -->
<g id="node3" class="node">
<title>SUB#1\npri=1\nsec=2</title>
<polygon fill="#bbdefb" stroke="black" points="182,-220.25 123.25,-220.25 123.25,-165 182,-165 182,-220.25"/>
<text text-anchor="middle" x="152.62" y="-202.95" font-family="Helvetica,sans-Serif" font-size="14.00">SUB#1</text>
<text text-anchor="middle" x="152.62" y="-187.2" font-family="Helvetica,sans-Serif" font-size="14.00">pri=1</text>
<text text-anchor="middle" x="152.62" y="-171.45" font-family="Helvetica,sans-Serif" font-size="14.00">sec=2</text>
</g>
<!-- SOURCE&#45;&gt;SUB#1\npri=1\nsec=2 -->
<g id="edge1" class="edge">
<title>SOURCE&#45;&gt;SUB#1\npri=1\nsec=2</title>
<path fill="none" stroke="#1976d2" stroke-width="2" d="M74.75,-155.33C86.5,-161.03 99.58,-167.38 111.57,-173.19"/>
<polygon fill="#1976d2" stroke="#1976d2" stroke-width="2" points="109.86,-176.25 120.38,-177.47 112.91,-169.95 109.86,-176.25"/>
<text text-anchor="middle" x="98.88" y="-172" font-family="Helvetica,sans-Serif" font-size="9.00">1/1</text>
</g>
<!-- SUB#2\npri=3\nsec=1 -->
<g id="node4" class="node">
<title>SUB#2\npri=3\nsec=1</title>
<polygon fill="#bbdefb" stroke="black" points="182,-129.25 123.25,-129.25 123.25,-74 182,-74 182,-129.25"/>
<text text-anchor="middle" x="152.62" y="-111.95" font-family="Helvetica,sans-Serif" font-size="14.00">SUB#2</text>
<text text-anchor="middle" x="152.62" y="-96.2" font-family="Helvetica,sans-Serif" font-size="14.00">pri=3</text>
<text text-anchor="middle" x="152.62" y="-80.45" font-family="Helvetica,sans-Serif" font-size="14.00">sec=1</text>
</g>
<!-- SOURCE&#45;&gt;SUB#2\npri=3\nsec=1 -->
<g id="edge2" class="edge">
<title>SOURCE&#45;&gt;SUB#2\npri=3\nsec=1</title>
<path fill="none" stroke="#1976d2" stroke-width="2" d="M74.75,-126.04C86.25,-122.38 99.03,-118.33 110.82,-114.58"/>
<polygon fill="#1976d2" stroke="#1976d2" stroke-width="2" points="111.75,-117.96 120.22,-111.6 109.63,-111.29 111.75,-117.96"/>
<text text-anchor="middle" x="98.88" y="-121.58" font-family="Helvetica,sans-Serif" font-size="9.00">1/1</text>
</g>
<!-- SINK -->
<g id="node2" class="node">
<title>SINK</title>
<polygon fill="#80cbc4" stroke="black" points="409.5,-118.62 355.5,-118.62 355.5,-82.62 409.5,-82.62 409.5,-118.62"/>
<text text-anchor="middle" x="382.5" y="-95.2" font-family="Helvetica,sans-Serif" font-size="14.00">SINK</text>
</g>
<!-- REV#1\npri=1\nsec=3 -->
<g id="node5" class="node">
<title>REV#1\npri=1\nsec=3</title>
<polygon fill="#c8e6c9" stroke="black" points="306.75,-128.25 248,-128.25 248,-73 306.75,-73 306.75,-128.25"/>
<text text-anchor="middle" x="277.38" y="-110.95" font-family="Helvetica,sans-Serif" font-size="14.00">REV#1</text>
<text text-anchor="middle" x="277.38" y="-95.2" font-family="Helvetica,sans-Serif" font-size="14.00">pri=1</text>
<text text-anchor="middle" x="277.38" y="-79.45" font-family="Helvetica,sans-Serif" font-size="14.00">sec=3</text>
</g>
<!-- SUB#1\npri=1\nsec=2&#45;&gt;REV#1\npri=1\nsec=3 -->
<g id="edge3" class="edge">
<title>SUB#1\npri=1\nsec=2&#45;&gt;REV#1\npri=1\nsec=3</title>
<path fill="none" stroke="#ffd700" stroke-width="2.5" d="M182.27,-189.85C197.79,-187.09 216.5,-181.59 230,-170.62 240.68,-161.95 239.79,-154.5 246.79,-140.25"/>
<polygon fill="#ffd700" stroke="#ffd700" stroke-width="2.5" points="249.68,-142.25 251.67,-131.84 243.63,-138.73 249.68,-142.25"/>
<text text-anchor="middle" x="215" y="-208.15" font-family="Helvetica,sans-Serif" font-size="9.00" fill="#cca300">1/1</text>
<text text-anchor="middle" x="215" y="-197.65" font-family="Helvetica,sans-Serif" font-size="9.00" fill="#cca300">cost=0</text>
<text text-anchor="middle" x="215" y="-187.15" font-family="Helvetica,sans-Serif" font-size="9.00" fill="#cca300">pri=pri</text>
</g>
<!-- REV#2\npri=2\nsec=3 -->
<g id="node6" class="node">
<title>REV#2\npri=2\nsec=3</title>
<polygon fill="#c8e6c9" stroke="black" points="306.75,-201.25 248,-201.25 248,-146 306.75,-146 306.75,-201.25"/>
<text text-anchor="middle" x="277.38" y="-183.95" font-family="Helvetica,sans-Serif" font-size="14.00">REV#2</text>
<text text-anchor="middle" x="277.38" y="-168.2" font-family="Helvetica,sans-Serif" font-size="14.00">pri=2</text>
<text text-anchor="middle" x="277.38" y="-152.45" font-family="Helvetica,sans-Serif" font-size="14.00">sec=3</text>
</g>
<!-- SUB#1\npri=1\nsec=2&#45;&gt;REV#2\npri=2\nsec=3 -->
<g id="edge5" class="edge">
<title>SUB#1\npri=1\nsec=2&#45;&gt;REV#2\npri=2\nsec=3</title>
<path fill="none" stroke="#ff9800" stroke-dasharray="5,2" d="M182.36,-216.9C196.71,-226.02 214.31,-232.65 230,-225.62 237.99,-222.04 245.18,-216.33 251.37,-209.97"/>
<polygon fill="#ff9800" stroke="#ff9800" points="253.68,-212.64 257.66,-202.82 248.43,-208.01 253.68,-212.64"/>
<text text-anchor="middle" x="215" y="-251.51" font-family="Helvetica,sans-Serif" font-size="9.00" fill="#ff9800">0/1</text>
<text text-anchor="middle" x="215" y="-241.01" font-family="Helvetica,sans-Serif" font-size="9.00" fill="#ff9800">cost=1</text>
<text text-anchor="middle" x="215" y="-230.51" font-family="Helvetica,sans-Serif" font-size="9.00" fill="#ff9800">sec=pri</text>
</g>
<!-- SUB#2\npri=3\nsec=1&#45;&gt;REV#1\npri=1\nsec=3 -->
<g id="edge6" class="edge">
<title>SUB#2\npri=3\nsec=1&#45;&gt;REV#1\npri=1\nsec=3</title>
<path fill="none" stroke="#ff9800" stroke-dasharray="5,2" d="M182.11,-89.05C187.92,-87 194.07,-85.21 200,-84.12 213.12,-81.73 216.86,-81.86 230,-84.12 232.3,-84.52 234.64,-85.02 236.99,-85.6"/>
<polygon fill="#ff9800" stroke="#ff9800" points="235.81,-88.9 246.39,-88.34 237.77,-82.18 235.81,-88.9"/>
<text text-anchor="middle" x="215" y="-107.08" font-family="Helvetica,sans-Serif" font-size="9.00" fill="#ff9800">0/1</text>
<text text-anchor="middle" x="215" y="-96.58" font-family="Helvetica,sans-Serif" font-size="9.00" fill="#ff9800">cost=1</text>
<text text-anchor="middle" x="215" y="-86.08" font-family="Helvetica,sans-Serif" font-size="9.00" fill="#ff9800">sec=pri</text>
</g>
<!-- SUB#2\npri=3\nsec=1&#45;&gt;REV#2\npri=2\nsec=3 -->
<g id="edge7" class="edge">
<title>SUB#2\npri=3\nsec=1&#45;&gt;REV#2\npri=2\nsec=3</title>
<path fill="none" stroke="#ff9800" stroke-dasharray="5,2" d="M182.21,-114.14C196.85,-120.93 214.74,-129.81 230,-139.12 232.73,-140.79 235.5,-142.58 238.26,-144.43"/>
<polygon fill="#ff9800" stroke="#ff9800" points="236.06,-147.16 246.26,-150.02 240.07,-141.42 236.06,-147.16"/>
<text text-anchor="middle" x="215" y="-162.07" font-family="Helvetica,sans-Serif" font-size="9.00" fill="#ff9800">0/1</text>
<text text-anchor="middle" x="215" y="-151.57" font-family="Helvetica,sans-Serif" font-size="9.00" fill="#ff9800">cost=1</text>
<text text-anchor="middle" x="215" y="-141.07" font-family="Helvetica,sans-Serif" font-size="9.00" fill="#ff9800">pri=sec</text>
</g>
<!-- REV#3\npri=3\nsec=1 -->
<g id="node7" class="node">
<title>REV#3\npri=3\nsec=1</title>
<polygon fill="#c8e6c9" stroke="black" points="306.75,-55.25 248,-55.25 248,0 306.75,0 306.75,-55.25"/>
<text text-anchor="middle" x="277.38" y="-37.95" font-family="Helvetica,sans-Serif" font-size="14.00">REV#3</text>
<text text-anchor="middle" x="277.38" y="-22.2" font-family="Helvetica,sans-Serif" font-size="14.00">pri=3</text>
<text text-anchor="middle" x="277.38" y="-6.45" font-family="Helvetica,sans-Serif" font-size="14.00">sec=1</text>
</g>
<!-- SUB#2\npri=3\nsec=1&#45;&gt;REV#3\npri=3\nsec=1 -->
<g id="edge4" class="edge">
<title>SUB#2\npri=3\nsec=1&#45;&gt;REV#3\npri=3\nsec=1</title>
<path fill="none" stroke="#ffd700" stroke-width="2.5" d="M171.89,-73.75C179.52,-64.04 189.14,-53.9 200,-47.12 210.26,-40.72 222.55,-36.41 234.23,-33.52"/>
<polygon fill="#ffd700" stroke="#ffd700" stroke-width="2.5" points="234.74,-36.99 243.81,-31.51 233.31,-30.14 234.74,-36.99"/>
<text text-anchor="middle" x="215" y="-70.08" font-family="Helvetica,sans-Serif" font-size="9.00" fill="#cca300">1/1</text>
<text text-anchor="middle" x="215" y="-59.58" font-family="Helvetica,sans-Serif" font-size="9.00" fill="#cca300">cost=0</text>
<text text-anchor="middle" x="215" y="-49.08" font-family="Helvetica,sans-Serif" font-size="9.00" fill="#cca300">pri=pri</text>
</g>
<!-- REV#1\npri=1\nsec=3&#45;&gt;SINK -->
<g id="edge8" class="edge">
<title>REV#1\npri=1\nsec=3&#45;&gt;SINK</title>
<path fill="none" stroke="#388e3c" stroke-width="2" d="M307.1,-100.62C318.01,-100.62 330.63,-100.62 342.35,-100.62"/>
<polygon fill="#388e3c" stroke="#388e3c" stroke-width="2" points="342.02,-104.13 352.02,-100.63 342.02,-97.13 342.02,-104.13"/>
<text text-anchor="middle" x="331.12" y="-102.58" font-family="Helvetica,sans-Serif" font-size="9.00">1/2</text>
</g>
<!-- REV#2\npri=2\nsec=3&#45;&gt;SINK -->
<g id="edge9" class="edge">
<title>REV#2\npri=2\nsec=3&#45;&gt;SINK</title>
<path fill="none" stroke="gray" stroke-dasharray="5,2" d="M307.1,-153.29C319.16,-144.75 333.32,-134.73 346.02,-125.74"/>
<polygon fill="gray" stroke="gray" points="348.02,-128.61 354.16,-119.98 343.98,-122.9 348.02,-128.61"/>
<text text-anchor="middle" x="331.12" y="-141.26" font-family="Helvetica,sans-Serif" font-size="9.00">0/2</text>
</g>
<!-- REV#3\npri=3\nsec=1&#45;&gt;SINK -->
<g id="edge10" class="edge">
<title>REV#3\npri=3\nsec=1&#45;&gt;SINK</title>
<path fill="none" stroke="#388e3c" stroke-width="2" d="M307.1,-47.96C318.81,-56.25 332.49,-65.93 344.9,-74.71"/>
<polygon fill="#388e3c" stroke="#388e3c" stroke-width="2" points="342.74,-77.48 352.93,-80.4 346.79,-71.76 342.74,-77.48"/>
<text text-anchor="middle" x="331.12" y="-70.45" font-family="Helvetica,sans-Serif" font-size="9.00">1/2</text>
</g>
</g>
</svg>
