<?xml version="1.0" encoding="UTF-8" standalone="no"?>
<!DOCTYPE svg PUBLIC "-//W3C//DTD SVG 1.1//EN"
 "http://www.w3.org/Graphics/SVG/1.1/DTD/svg11.dtd">
<!-- Generated by graphviz version 12.2.1 (0)
 -->
<!-- Title: T23_Remove_Rev1_Rev3 Pages: 1 -->
<svg width="422pt" height="242pt"
 viewBox="0.00 0.00 422.00 241.75" xmlns="http://www.w3.org/2000/svg" xmlns:xlink="http://www.w3.org/1999/xlink">
<g id="graph0" class="graph" transform="scale(1 1) rotate(0) translate(4 237.75)">
<title>T23_Remove_Rev1_Rev3</title>
<polygon fill="white" stroke="none" points="-4,4 -4,-237.75 418,-237.75 418,4 -4,4"/>
<text text-anchor="middle" x="207" y="-6.85" font-family="Times,serif" font-size="12.00" fill="#d32f2f">K=2: Remove {Rev1, Rev3} &#45;&gt; Flow=3 &lt; 6 &#45;&gt; CRITICAL</text>
<!-- SOURCE -->
<g id="node1" class="node">
<title>SOURCE</title>
<polygon fill="#ffcc80" stroke="black" points="80.12,-118 5.62,-118 5.62,-82 80.12,-82 80.12,-118"/>
<text text-anchor="middle" x="42.88" y="-94.58" font-family="Helvetica,sans-Serif" font-size="14.00">SOURCE</text>
</g>
<!-- SUB#1\nTopic: A -->
<g id="node3" class="node">
<title>SUB#1\nTopic: A</title>
<polygon fill="#bbdefb" stroke="black" points="198.5,-119.75 134.5,-119.75 134.5,-80.25 198.5,-80.25 198.5,-119.75"/>
<text text-anchor="middle" x="166.5" y="-102.45" font-family="Helvetica,sans-Serif" font-size="14.00">SUB#1</text>
<text text-anchor="middle" x="166.5" y="-86.7" font-family="Helvetica,sans-Serif" font-size="14.00">Topic: A</text>
</g>
<!-- SOURCE&#45;&gt;SUB#1\nTopic: A -->
<g id="edge1" class="edge">
<title>SOURCE&#45;&gt;SUB#1\nTopic: A</title>
<path fill="none" stroke="#1976d2" stroke-width="2" d="M80.37,-100C93.28,-100 107.94,-100 121.41,-100"/>
<polygon fill="#1976d2" stroke="#1976d2" stroke-width="2" points="121.35,-103.5 131.35,-100 121.35,-96.5 121.35,-103.5"/>
<text text-anchor="middle" x="110.12" y="-101.95" font-family="Helvetica,sans-Serif" font-size="9.00">2/2</text>
</g>
<!-- SUB#2\nTopic: B -->
<g id="node4" class="node">
<title>SUB#2\nTopic: B</title>
<polygon fill="#bbdefb" stroke="black" points="198.5,-61.75 134.5,-61.75 134.5,-22.25 198.5,-22.25 198.5,-61.75"/>
<text text-anchor="middle" x="166.5" y="-44.45" font-family="Helvetica,sans-Serif" font-size="14.00">SUB#2</text>
<text text-anchor="middle" x="166.5" y="-28.7" font-family="Helvetica,sans-Serif" font-size="14.00">Topic: B</text>
</g>
<!-- SOURCE&#45;&gt;SUB#2\nTopic: B -->
<g id="edge2" class="edge">
<title>SOURCE&#45;&gt;SUB#2\nTopic: B</title>
<path fill="none" stroke="#1976d2" stroke-width="2" d="M80.37,-82.6C93.68,-76.25 108.85,-69.01 122.67,-62.42"/>
<polygon fill="#1976d2" stroke="#1976d2" stroke-width="2" points="124.13,-65.61 131.65,-58.14 121.11,-59.29 124.13,-65.61"/>
<text text-anchor="middle" x="110.12" y="-72.95" font-family="Helvetica,sans-Serif" font-size="9.00">2/2</text>
</g>
<!-- SUB#3\nTopic: A -->
<g id="node5" class="node">
<title>SUB#3\nTopic: A</title>
<polygon fill="#bbdefb" stroke="black" points="198.5,-177.75 134.5,-177.75 134.5,-138.25 198.5,-138.25 198.5,-177.75"/>
<text text-anchor="middle" x="166.5" y="-160.45" font-family="Helvetica,sans-Serif" font-size="14.00">SUB#3</text>
<text text-anchor="middle" x="166.5" y="-144.7" font-family="Helvetica,sans-Serif" font-size="14.00">Topic: A</text>
</g>
<!-- SOURCE&#45;&gt;SUB#3\nTopic: A -->
<g id="edge3" class="edge">
<title>SOURCE&#45;&gt;SUB#3\nTopic: A</title>
<path fill="none" stroke="#1976d2" stroke-width="2" d="M80.37,-117.4C93.68,-123.75 108.85,-130.99 122.67,-137.58"/>
<polygon fill="#1976d2" stroke="#1976d2" stroke-width="2" points="121.11,-140.71 131.65,-141.86 124.13,-134.39 121.11,-140.71"/>
<text text-anchor="middle" x="110.12" y="-136.14" font-family="Helvetica,sans-Serif" font-size="9.00">2/2</text>
</g>
<!-- SINK -->
<g id="node2" class="node">
<title>SINK</title>
<polygon fill="#80cbc4" stroke="black" points="414,-89 360,-89 360,-53 414,-53 414,-89"/>
<text text-anchor="middle" x="387" y="-65.58" font-family="Helvetica,sans-Serif" font-size="14.00">SINK</text>
</g>
<!-- REV#2\nTopic: A -->
<g id="node7" class="node">
<title>REV#2\nTopic: A</title>
<polygon fill="#c8e6c9" stroke="black" points="311.25,-119.75 247.25,-119.75 247.25,-80.25 311.25,-80.25 311.25,-119.75"/>
<text text-anchor="middle" x="279.25" y="-102.45" font-family="Helvetica,sans-Serif" font-size="14.00">REV#2</text>
<text text-anchor="middle" x="279.25" y="-86.7" font-family="Helvetica,sans-Serif" font-size="14.00">Topic: A</text>
</g>
<!-- SUB#1\nTopic: A&#45;&gt;REV#2\nTopic: A -->
<g id="edge4" class="edge">
<title>SUB#1\nTopic: A&#45;&gt;REV#2\nTopic: A</title>
<path fill="none" stroke="blue" stroke-width="2" d="M198.94,-100C209.91,-100 222.42,-100 234.22,-100"/>
<polygon fill="blue" stroke="blue" stroke-width="2" points="234.09,-103.5 244.09,-100 234.09,-96.5 234.09,-103.5"/>
<text text-anchor="middle" x="222.88" y="-101.95" font-family="Helvetica,sans-Serif" font-size="9.00">1/1</text>
</g>
<!-- REV#4\nTopic: B -->
<g id="node9" class="node">
<title>REV#4\nTopic: B</title>
<polygon fill="#c8e6c9" stroke="black" points="311.25,-61.75 247.25,-61.75 247.25,-22.25 311.25,-22.25 311.25,-61.75"/>
<text text-anchor="middle" x="279.25" y="-44.45" font-family="Helvetica,sans-Serif" font-size="14.00">REV#4</text>
<text text-anchor="middle" x="279.25" y="-28.7" font-family="Helvetica,sans-Serif" font-size="14.00">Topic: B</text>
</g>
<!-- SUB#2\nTopic: B&#45;&gt;REV#4\nTopic: B -->
<g id="edge6" class="edge">
<title>SUB#2\nTopic: B&#45;&gt;REV#4\nTopic: B</title>
<path fill="none" stroke="blue" stroke-width="2" d="M198.94,-42C209.91,-42 222.42,-42 234.22,-42"/>
<polygon fill="blue" stroke="blue" stroke-width="2" points="234.09,-45.5 244.09,-42 234.09,-38.5 234.09,-45.5"/>
<text text-anchor="middle" x="222.88" y="-43.95" font-family="Helvetica,sans-Serif" font-size="9.00">1/1</text>
</g>
<!-- SUB#3\nTopic: A&#45;&gt;REV#2\nTopic: A -->
<g id="edge5" class="edge">
<title>SUB#3\nTopic: A&#45;&gt;REV#2\nTopic: A</title>
<path fill="none" stroke="blue" stroke-width="2" d="M198.94,-141.53C210.38,-135.55 223.5,-128.67 235.74,-122.26"/>
<polygon fill="blue" stroke="blue" stroke-width="2" points="237.2,-125.45 244.43,-117.71 233.95,-119.25 237.2,-125.45"/>
<text text-anchor="middle" x="222.88" y="-132.69" font-family="Helvetica,sans-Serif" font-size="9.00">1/1</text>
</g>
<!-- REV#1\nREMOVED -->
<g id="node6" class="node">
<title>REV#1\nREMOVED</title>
<polygon fill="none" stroke="#d32f2f" stroke-dasharray="5,2" points="85.75,-175.75 0,-175.75 0,-136.25 85.75,-136.25 85.75,-175.75"/>
<text text-anchor="middle" x="42.88" y="-158.45" font-family="Helvetica,sans-Serif" font-size="14.00">REV#1</text>
<text text-anchor="middle" x="42.88" y="-142.7" font-family="Helvetica,sans-Serif" font-size="14.00">REMOVED</text>
</g>
<!-- REV#2\nTopic: A&#45;&gt;SINK -->
<g id="edge7" class="edge">
<title>REV#2\nTopic: A&#45;&gt;SINK</title>
<path fill="none" stroke="#388e3c" stroke-width="2" d="M311.69,-91.38C322.96,-88.29 335.79,-84.77 347.58,-81.54"/>
<polygon fill="#388e3c" stroke="#388e3c" stroke-width="2" points="348.21,-84.99 356.93,-78.97 346.36,-78.24 348.21,-84.99"/>
<text text-anchor="middle" x="335.62" y="-88.32" font-family="Helvetica,sans-Serif" font-size="9.00">2/2</text>
</g>
<!-- REV#3\nREMOVED -->
<g id="node8" class="node">
<title>REV#3\nREMOVED</title>
<polygon fill="none" stroke="#d32f2f" stroke-dasharray="5,2" points="85.75,-233.75 0,-233.75 0,-194.25 85.75,-194.25 85.75,-233.75"/>
<text text-anchor="middle" x="42.88" y="-216.45" font-family="Helvetica,sans-Serif" font-size="14.00">REV#3</text>
<text text-anchor="middle" x="42.88" y="-200.7" font-family="Helvetica,sans-Serif" font-size="14.00">REMOVED</text>
</g>
<!-- REV#4\nTopic: B&#45;&gt;SINK -->
<g id="edge8" class="edge">
<title>REV#4\nTopic: B&#45;&gt;SINK</title>
<path fill="none" stroke="#388e3c" stroke-width="2" d="M311.69,-50.62C322.96,-53.71 335.79,-57.23 347.58,-60.46"/>
<polygon fill="#388e3c" stroke="#388e3c" stroke-width="2" points="346.36,-63.76 356.93,-63.03 348.21,-57.01 346.36,-63.76"/>
<text text-anchor="middle" x="335.62" y="-60.19" font-family="Helvetica,sans-Serif" font-size="9.00">1/2</text>
</g>
</g>
</svg>
