<?xml version="1.0" encoding="UTF-8" standalone="no"?>
<!DOCTYPE svg PUBLIC "-//W3C//DTD SVG 1.1//EN"
 "http://www.w3.org/Graphics/SVG/1.1/DTD/svg11.dtd">
<!-- Generated by graphviz version 12.2.1 (0)
 -->
<!-- Title: T23_Baseline Pages: 1 -->
<svg width="411pt" height="214pt"
 viewBox="0.00 0.00 410.75 214.00" xmlns="http://www.w3.org/2000/svg" xmlns:xlink="http://www.w3.org/1999/xlink">
<g id="graph0" class="graph" transform="scale(1 1) rotate(0) translate(4 210)">
<title>T23_Baseline</title>
<!-- SOURCE -->
<g id="node1" class="node">
<title>SOURCE</title>
<polygon fill="#ffcc80" stroke="black" points="74.5,-132 0,-132 0,-96 74.5,-96 74.5,-132"/>
<text text-anchor="middle" x="37.25" y="-108.2" font-family="Helvetica,sans-Serif" font-size="14.00">SOURCE</text>
</g>
<!-- SUB#1\nTopic: A -->
<g id="node3" class="node">
<title>SUB#1\nTopic: A</title>
<polygon fill="#bbdefb" stroke="black" points="187.25,-133 123.25,-133 123.25,-95 187.25,-95 187.25,-133"/>
<text text-anchor="middle" x="155.25" y="-115.7" font-family="Helvetica,sans-Serif" font-size="14.00">SUB#1</text>
<text text-anchor="middle" x="155.25" y="-100.7" font-family="Helvetica,sans-Serif" font-size="14.00">Topic: A</text>
</g>
<!-- SOURCE&#45;&gt;SUB#1\nTopic: A -->
<g id="edge1" class="edge">
<title>SOURCE&#45;&gt;SUB#1\nTopic: A</title>
<path fill="none" stroke="#1976d2" stroke-width="2" d="M74.95,-114C86.14,-114 98.56,-114 110.18,-114"/>
<polygon fill="#1976d2" stroke="#1976d2" stroke-width="2" points="109.83,-117.5 119.83,-114 109.83,-110.5 109.83,-117.5"/>
<text text-anchor="middle" x="98.88" y="-115.2" font-family="Helvetica,sans-Serif" font-size="9.00">1/1</text>
</g>
<!-- SUB#2\nTopic: B -->
<g id="node4" class="node">
<title>SUB#2\nTopic: B</title>
<polygon fill="#bbdefb" stroke="black" points="187.25,-77 123.25,-77 123.25,-39 187.25,-39 187.25,-77"/>
<text text-anchor="middle" x="155.25" y="-59.7" font-family="Helvetica,sans-Serif" font-size="14.00">SUB#2</text>
<text text-anchor="middle" x="155.25" y="-44.7" font-family="Helvetica,sans-Serif" font-size="14.00">Topic: B</text>
</g>
<!-- SOURCE&#45;&gt;SUB#2\nTopic: B -->
<g id="edge2" class="edge">
<title>SOURCE&#45;&gt;SUB#2\nTopic: B</title>
<path fill="none" stroke="#1976d2" stroke-width="2" d="M74.95,-96.28C86.5,-90.71 99.36,-84.5 111.3,-78.73"/>
<polygon fill="#1976d2" stroke="#1976d2" stroke-width="2" points="112.65,-81.97 120.13,-74.47 109.61,-75.67 112.65,-81.97"/>
<text text-anchor="middle" x="98.88" y="-88.88" font-family="Helvetica,sans-Serif" font-size="9.00">1/1</text>
</g>
<!-- SUB#3\nTopic: A -->
<g id="node5" class="node">
<title>SUB#3\nTopic: A</title>
<polygon fill="#bbdefb" stroke="black" points="187.25,-189 123.25,-189 123.25,-151 187.25,-151 187.25,-189"/>
<text text-anchor="middle" x="155.25" y="-171.7" font-family="Helvetica,sans-Serif" font-size="14.00">SUB#3</text>
<text text-anchor="middle" x="155.25" y="-156.7" font-family="Helvetica,sans-Serif" font-size="14.00">Topic: A</text>
</g>
<!-- SOURCE&#45;&gt;SUB#3\nTopic: A -->
<g id="edge3" class="edge">
<title>SOURCE&#45;&gt;SUB#3\nTopic: A</title>
<path fill="none" stroke="#1976d2" stroke-width="2" d="M74.95,-131.72C86.5,-137.29 99.36,-143.5 111.3,-149.27"/>
<polygon fill="#1976d2" stroke="#1976d2" stroke-width="2" points="109.61,-152.33 120.13,-153.53 112.65,-146.03 109.61,-152.33"/>
<text text-anchor="middle" x="98.88" y="-146.55" font-family="Helvetica,sans-Serif" font-size="9.00">1/1</text>
</g>
<!-- SINK -->
<g id="node2" class="node">
<title>SINK</title>
<polygon fill="#80cbc4" stroke="black" points="402.75,-115 348.75,-115 348.75,-79 402.75,-79 402.75,-115"/>
<text text-anchor="middle" x="375.75" y="-91.2" font-family="Helvetica,sans-Serif" font-size="14.00">SINK</text>
</g>
<!-- REV#1\nTopic: A -->
<g id="node6" class="node">
<title>REV#1\nTopic: A</title>
<polygon fill="#c8e6c9" stroke="black" points="300,-206 236,-206 236,-168 300,-168 300,-206"/>
<text text-anchor="middle" x="268" y="-188.7" font-family="Helvetica,sans-Serif" font-size="14.00">REV#1</text>
<text text-anchor="middle" x="268" y="-173.7" font-family="Helvetica,sans-Serif" font-size="14.00">Topic: A</text>
</g>
<!-- SUB#1\nTopic: A&#45;&gt;REV#1\nTopic: A -->
<g id="edge4" class="edge">
<title>SUB#1\nTopic: A&#45;&gt;REV#1\nTopic: A</title>
<path fill="none" stroke="blue" stroke-width="2" d="M187.5,-120.84C197.84,-124.09 209,-128.73 218,-135.25 226.55,-141.44 227.22,-146.65 235.97,-157.8"/>
<polygon fill="blue" stroke="blue" stroke-width="2" points="233.31,-160.07 242.51,-165.32 238.59,-155.48 233.31,-160.07"/>
<text text-anchor="middle" x="211.62" y="-136.45" font-family="Helvetica,sans-Serif" font-size="9.00">1/1</text>
</g>
<!-- REV#2\nTopic: A -->
<g id="node7" class="node">
<title>REV#2\nTopic: A</title>
<polygon fill="#c8e6c9" stroke="black" points="300,-150 236,-150 236,-112 300,-112 300,-150"/>
<text text-anchor="middle" x="268" y="-132.7" font-family="Helvetica,sans-Serif" font-size="14.00">REV#2</text>
<text text-anchor="middle" x="268" y="-117.7" font-family="Helvetica,sans-Serif" font-size="14.00">Topic: A</text>
</g>
<!-- SUB#1\nTopic: A&#45;&gt;REV#2\nTopic: A -->
<g id="edge5" class="edge">
<title>SUB#1\nTopic: A&#45;&gt;REV#2\nTopic: A</title>
<path fill="none" stroke="gray" stroke-dasharray="5,2" d="M187.52,-100.14C197.33,-97.5 208.17,-96.34 218,-99.25 223.19,-100.79 228.36,-103.06 233.27,-105.71"/>
<polygon fill="gray" stroke="gray" points="231.28,-108.59 241.65,-110.75 234.88,-102.59 231.28,-108.59"/>
<text text-anchor="middle" x="211.62" y="-100.45" font-family="Helvetica,sans-Serif" font-size="9.00">0/1</text>
</g>
<!-- REV#3\nTopic: B -->
<g id="node8" class="node">
<title>REV#3\nTopic: B</title>
<polygon fill="#c8e6c9" stroke="black" points="300,-94 236,-94 236,-56 300,-56 300,-94"/>
<text text-anchor="middle" x="268" y="-76.7" font-family="Helvetica,sans-Serif" font-size="14.00">REV#3</text>
<text text-anchor="middle" x="268" y="-61.7" font-family="Helvetica,sans-Serif" font-size="14.00">Topic: B</text>
</g>
<!-- SUB#2\nTopic: B&#45;&gt;REV#3\nTopic: B -->
<g id="edge8" class="edge">
<title>SUB#2\nTopic: B&#45;&gt;REV#3\nTopic: B</title>
<path fill="none" stroke="blue" stroke-width="2" d="M187.69,-62.83C198.77,-64.53 211.44,-66.47 223.35,-68.3"/>
<polygon fill="blue" stroke="blue" stroke-width="2" points="222.46,-71.7 232.87,-69.76 223.52,-64.78 222.46,-71.7"/>
<text text-anchor="middle" x="211.62" y="-68.21" font-family="Helvetica,sans-Serif" font-size="9.00">1/1</text>
</g>
<!-- REV#4\nTopic: B -->
<g id="node9" class="node">
<title>REV#4\nTopic: B</title>
<polygon fill="#c8e6c9" stroke="black" points="300,-38 236,-38 236,0 300,0 300,-38"/>
<text text-anchor="middle" x="268" y="-20.7" font-family="Helvetica,sans-Serif" font-size="14.00">REV#4</text>
<text text-anchor="middle" x="268" y="-5.7" font-family="Helvetica,sans-Serif" font-size="14.00">Topic: B</text>
</g>
<!-- SUB#2\nTopic: B&#45;&gt;REV#4\nTopic: B -->
<g id="edge9" class="edge">
<title>SUB#2\nTopic: B&#45;&gt;REV#4\nTopic: B</title>
<path fill="none" stroke="gray" stroke-dasharray="5,2" d="M187.69,-46.93C199.36,-42.82 212.79,-38.09 225.24,-33.7"/>
<polygon fill="gray" stroke="gray" points="226.17,-37.09 234.44,-30.47 223.84,-30.49 226.17,-37.09"/>
<text text-anchor="middle" x="211.62" y="-40.87" font-family="Helvetica,sans-Serif" font-size="9.00">0/1</text>
</g>
<!-- SUB#3\nTopic: A&#45;&gt;REV#1\nTopic: A -->
<g id="edge6" class="edge">
<title>SUB#3\nTopic: A&#45;&gt;REV#1\nTopic: A</title>
<path fill="none" stroke="gray" stroke-dasharray="5,2" d="M187.69,-174.83C199.13,-176.58 212.25,-178.6 224.49,-180.47"/>
<polygon fill="gray" stroke="gray" points="223.95,-183.93 234.37,-181.99 225.02,-177.01 223.95,-183.93"/>
<text text-anchor="middle" x="211.62" y="-180.21" font-family="Helvetica,sans-Serif" font-size="9.00">0/1</text>
</g>
<!-- SUB#3\nTopic: A&#45;&gt;REV#2\nTopic: A -->
<g id="edge7" class="edge">
<title>SUB#3\nTopic: A&#45;&gt;REV#2\nTopic: A</title>
<path fill="none" stroke="blue" stroke-width="2" d="M187.69,-158.93C198.89,-154.98 211.71,-150.47 223.73,-146.24"/>
<polygon fill="blue" stroke="blue" stroke-width="2" points="224.74,-149.59 233.01,-142.97 222.41,-142.99 224.74,-149.59"/>
<text text-anchor="middle" x="211.62" y="-152.87" font-family="Helvetica,sans-Serif" font-size="9.00">1/1</text>
</g>
<!-- REV#1\nTopic: A&#45;&gt;SINK -->
<g id="edge10" class="edge">
<title>REV#1\nTopic: A&#45;&gt;SINK</title>
<path fill="none" stroke="#388e3c" stroke-width="2" d="M291.69,-167.69C306.76,-154.86 326.77,-137.84 343.36,-123.71"/>
<polygon fill="#388e3c" stroke="#388e3c" stroke-width="2" points="345.53,-126.46 350.88,-117.32 341,-121.13 345.53,-126.46"/>
<text text-anchor="middle" x="324.38" y="-145.9" font-family="Helvetica,sans-Serif" font-size="9.00">1/2</text>
</g>
<!-- REV#2\nTopic: A&#45;&gt;SINK -->
<g id="edge11" class="edge">
<title>REV#2\nTopic: A&#45;&gt;SINK</title>
<path fill="none" stroke="#388e3c" stroke-width="2" d="M300.44,-120.89C311.71,-117.27 324.54,-113.14 336.33,-109.35"/>
<polygon fill="#388e3c" stroke="#388e3c" stroke-width="2" points="337.26,-112.73 345.71,-106.34 335.12,-106.06 337.26,-112.73"/>
<text text-anchor="middle" x="324.38" y="-116.22" font-family="Helvetica,sans-Serif" font-size="9.00">1/2</text>
</g>
<!-- REV#3\nTopic: B&#45;&gt;SINK -->
<g id="edge12" class="edge">
<title>REV#3\nTopic: B&#45;&gt;SINK</title>
<path fill="none" stroke="#388e3c" stroke-width="2" d="M300.44,-81.54C311.59,-83.86 324.27,-86.5 335.95,-88.93"/>
<polygon fill="#388e3c" stroke="#388e3c" stroke-width="2" points="335.13,-92.33 345.63,-90.94 336.55,-85.48 335.13,-92.33"/>
<text text-anchor="middle" x="324.38" y="-88.52" font-family="Helvetica,sans-Serif" font-size="9.00">1/2</text>
</g>
<!-- REV#4\nTopic: B&#45;&gt;SINK -->
<g id="edge13" class="edge">
<title>REV#4\nTopic: B&#45;&gt;SINK</title>
<path fill="none" stroke="gray" stroke-dasharray="5,2" d="M295.41,-38.48C309.06,-48.55 325.88,-60.96 340.52,-71.75"/>
<polygon fill="gray" stroke="gray" points="338.42,-74.55 348.55,-77.67 342.58,-68.92 338.42,-74.55"/>
<text text-anchor="middle" x="324.38" y="-63.87" font-family="Helvetica,sans-Serif" font-size="9.00">0/2</text>
</g>
</g>
</svg>
