<?xml version="1.0" encoding="UTF-8" standalone="no"?>
<!DOCTYPE svg PUBLIC "-//W3C//DTD SVG 1.1//EN"
 "http://www.w3.org/Graphics/SVG/1.1/DTD/svg11.dtd">
<!-- Generated by graphviz version 12.2.1 (0)
 -->
<!-- Title: MaxFlowReviewAssignment Pages: 1 -->
<svg width="557pt" height="427pt"
 viewBox="0.00 0.00 557.24 427.15" xmlns="http://www.w3.org/2000/svg" xmlns:xlink="http://www.w3.org/1999/xlink">
<g id="graph0" class="graph" transform="scale(1 1) rotate(0) translate(4 423.15)">
<title>MaxFlowReviewAssignment</title>
<g id="clust1" class="cluster">
<title>cluster_submissions</title>
<polygon fill="none" stroke="#1976d2" stroke-dasharray="5,2" points="173,-232.2 173,-347.4 455,-347.4 455,-232.2 173,-232.2"/>
<text text-anchor="middle" x="254.88" y="-330.1" font-family="Helvetica,sans-Serif" font-weight="bold" font-size="14.00" fill="#0d47a1">Submissions (Domain)</text>
</g>
<g id="clust2" class="cluster">
<title>cluster_reviewers</title>
<polygon fill="none" stroke="#388e3c" stroke-dasharray="5,2" points="8,-71.75 8,-186.95 426,-186.95 426,-71.75 8,-71.75"/>
<text text-anchor="middle" x="86.5" y="-169.65" font-family="Helvetica,sans-Serif" font-weight="bold" font-size="14.00" fill="#1b5e20">Reviewers (Expertise)</text>
</g>
<!-- Source -->
<g id="node1" class="node">
<title>Source</title>
<path fill="#ffcc80" stroke="#333333" d="M330.45,-419.15C330.45,-419.15 275.55,-419.15 275.55,-419.15 269.55,-419.15 263.55,-413.15 263.55,-407.15 263.55,-407.15 263.55,-395.15 263.55,-395.15 263.55,-389.15 269.55,-383.15 275.55,-383.15 275.55,-383.15 330.45,-383.15 330.45,-383.15 336.45,-383.15 342.45,-389.15 342.45,-395.15 342.45,-395.15 342.45,-407.15 342.45,-407.15 342.45,-413.15 336.45,-419.15 330.45,-419.15"/>
<text text-anchor="middle" x="303" y="-395.35" font-family="Helvetica,sans-Serif" font-size="14.00">Source (S)</text>
</g>
<!-- Sub1 -->
<g id="node3" class="node">
<title>Sub1</title>
<path fill="white" stroke="#333333" d="M286.57,-304.4C286.57,-304.4 205.43,-304.4 205.43,-304.4 199.43,-304.4 193.43,-298.4 193.43,-292.4 193.43,-292.4 193.43,-264.2 193.43,-264.2 193.43,-258.2 199.43,-252.2 205.43,-252.2 205.43,-252.2 286.57,-252.2 286.57,-252.2 292.57,-252.2 298.57,-258.2 298.57,-264.2 298.57,-264.2 298.57,-292.4 298.57,-292.4 298.57,-298.4 292.57,-304.4 286.57,-304.4"/>
<text text-anchor="middle" x="246" y="-287.5" font-family="Helvetica,sans-Serif" font-size="14.00">Sub 1</text>
<text text-anchor="middle" x="246" y="-272.5" font-family="Helvetica,sans-Serif" font-size="14.00">Primary: AI</text>
<text text-anchor="middle" x="246" y="-257.5" font-family="Helvetica,sans-Serif" font-size="14.00">Secondary: DB</text>
</g>
<!-- Source&#45;&gt;Sub1 -->
<g id="edge1" class="edge">
<title>Source&#45;&gt;Sub1</title>
<path fill="none" stroke="#1976d2" stroke-width="2" d="M282.53,-382.76C277.41,-377.54 272.36,-371.51 268.75,-365.15 260.42,-350.49 255.05,-332.68 251.64,-317.1"/>
<polygon fill="#1976d2" stroke="#1976d2" stroke-width="2" points="255.14,-316.76 249.79,-307.62 248.27,-318.1 255.14,-316.76"/>
<text text-anchor="middle" x="307.38" y="-356.6" font-family="Helvetica,sans-Serif" font-size="9.00" fill="#1976d2"> cap = MinReviews</text>
</g>
<!-- Sub2 -->
<g id="node4" class="node">
<title>Sub2</title>
<path fill="white" stroke="#333333" d="M423.32,-304.4C423.32,-304.4 328.68,-304.4 328.68,-304.4 322.68,-304.4 316.68,-298.4 316.68,-292.4 316.68,-292.4 316.68,-264.2 316.68,-264.2 316.68,-258.2 322.68,-252.2 328.68,-252.2 328.68,-252.2 423.32,-252.2 423.32,-252.2 429.32,-252.2 435.32,-258.2 435.32,-264.2 435.32,-264.2 435.32,-292.4 435.32,-292.4 435.32,-298.4 429.32,-304.4 423.32,-304.4"/>
<text text-anchor="middle" x="376" y="-287.5" font-family="Helvetica,sans-Serif" font-size="14.00">Sub 2</text>
<text text-anchor="middle" x="376" y="-272.5" font-family="Helvetica,sans-Serif" font-size="14.00">Primary: DB</text>
<text text-anchor="middle" x="376" y="-257.5" font-family="Helvetica,sans-Serif" font-size="14.00">Secondary: None</text>
</g>
<!-- Source&#45;&gt;Sub2 -->
<g id="edge2" class="edge">
<title>Source&#45;&gt;Sub2</title>
<path fill="none" stroke="#1976d2" stroke-width="2" d="M328.86,-382.95C335.13,-377.81 341.36,-371.77 346,-365.15 356.09,-350.77 363.08,-332.68 367.75,-316.81"/>
<polygon fill="#1976d2" stroke="#1976d2" stroke-width="2" points="371.01,-318.17 370.23,-307.6 364.25,-316.34 371.01,-318.17"/>
<text text-anchor="middle" x="389.89" y="-356.6" font-family="Helvetica,sans-Serif" font-size="9.00" fill="#1976d2"> cap = MinReviews</text>
</g>
<!-- Sink -->
<g id="node2" class="node">
<title>Sink</title>
<path fill="#80cbc4" stroke="#333333" d="M235.82,-36C235.82,-36 198.18,-36 198.18,-36 192.18,-36 186.18,-30 186.18,-24 186.18,-24 186.18,-12 186.18,-12 186.18,-6 192.18,0 198.18,0 198.18,0 235.82,0 235.82,0 241.82,0 247.82,-6 247.82,-12 247.82,-12 247.82,-24 247.82,-24 247.82,-30 241.82,-36 235.82,-36"/>
<text text-anchor="middle" x="217" y="-12.2" font-family="Helvetica,sans-Serif" font-size="14.00">Sink (T)</text>
</g>
<!-- Rev1 -->
<g id="node5" class="node">
<title>Rev1</title>
<path fill="white" stroke="#333333" d="M134.32,-143.95C134.32,-143.95 39.67,-143.95 39.67,-143.95 33.67,-143.95 27.67,-137.95 27.67,-131.95 27.67,-131.95 27.67,-103.75 27.67,-103.75 27.67,-97.75 33.67,-91.75 39.67,-91.75 39.67,-91.75 134.32,-91.75 134.32,-91.75 140.32,-91.75 146.32,-97.75 146.32,-103.75 146.32,-103.75 146.32,-131.95 146.32,-131.95 146.32,-137.95 140.32,-143.95 134.32,-143.95"/>
<text text-anchor="middle" x="87" y="-127.05" font-family="Helvetica,sans-Serif" font-size="14.00">Rev A</text>
<text text-anchor="middle" x="87" y="-112.05" font-family="Helvetica,sans-Serif" font-size="14.00">Primary: AI</text>
<text text-anchor="middle" x="87" y="-97.05" font-family="Helvetica,sans-Serif" font-size="14.00">Secondary: None</text>
</g>
<!-- Sub1&#45;&gt;Rev1 -->
<g id="edge3" class="edge">
<title>Sub1&#45;&gt;Rev1</title>
<path fill="none" stroke="#ffd700" stroke-width="1.5" d="M192.93,-269.85C142.28,-261.51 71.26,-246.24 54.5,-224.2 39.07,-203.91 48.49,-176.21 61.09,-154.31"/>
<polygon fill="#ffd700" stroke="#ffd700" stroke-width="1.5" points="63.94,-156.35 66.23,-146.01 57.99,-152.66 63.94,-156.35"/>
<text text-anchor="middle" x="113.75" y="-215.65" font-family="Helvetica,sans-Serif" font-size="9.00" fill="#cca300"> cap = 1</text>
<text text-anchor="middle" x="113.75" y="-205.9" font-family="Helvetica,sans-Serif" font-size="9.00" fill="#cca300">Mode 1,2,3: Primary=Primary</text>
<text text-anchor="middle" x="113.75" y="-196.15" font-family="Helvetica,sans-Serif" font-size="9.00" fill="#cca300">(AI = AI)</text>
</g>
<!-- Rev2 -->
<g id="node6" class="node">
<title>Rev2</title>
<path fill="white" stroke="#333333" d="M257.57,-143.95C257.57,-143.95 176.43,-143.95 176.43,-143.95 170.43,-143.95 164.43,-137.95 164.43,-131.95 164.43,-131.95 164.43,-103.75 164.43,-103.75 164.43,-97.75 170.43,-91.75 176.43,-91.75 176.43,-91.75 257.57,-91.75 257.57,-91.75 263.57,-91.75 269.57,-97.75 269.57,-103.75 269.57,-103.75 269.57,-131.95 269.57,-131.95 269.57,-137.95 263.57,-143.95 257.57,-143.95"/>
<text text-anchor="middle" x="217" y="-127.05" font-family="Helvetica,sans-Serif" font-size="14.00">Rev B</text>
<text text-anchor="middle" x="217" y="-112.05" font-family="Helvetica,sans-Serif" font-size="14.00">Primary: ML</text>
<text text-anchor="middle" x="217" y="-97.05" font-family="Helvetica,sans-Serif" font-size="14.00">Secondary: DB</text>
</g>
<!-- Sub1&#45;&gt;Rev2 -->
<g id="edge5" class="edge">
<title>Sub1&#45;&gt;Rev2</title>
<path fill="none" stroke="#f44336" stroke-dasharray="1,5" d="M204.15,-251.96C195.02,-244.27 186.58,-234.96 181.5,-224.2 170.81,-201.55 180.08,-174.79 191.82,-153.91"/>
<polygon fill="#f44336" stroke="#f44336" points="194.74,-155.84 196.92,-145.47 188.75,-152.22 194.74,-155.84"/>
<text text-anchor="middle" x="236.25" y="-215.65" font-family="Helvetica,sans-Serif" font-size="9.00" fill="#f44336"> cap = 1</text>
<text text-anchor="middle" x="236.25" y="-205.9" font-family="Helvetica,sans-Serif" font-size="9.00" fill="#f44336">Mode 3: Sub.Sec=Rev.Sec</text>
<text text-anchor="middle" x="236.25" y="-196.15" font-family="Helvetica,sans-Serif" font-size="9.00" fill="#f44336">(DB = DB)</text>
</g>
<!-- Rev3 -->
<g id="node7" class="node">
<title>Rev3</title>
<path fill="white" stroke="#333333" d="M394.32,-143.95C394.32,-143.95 299.68,-143.95 299.68,-143.95 293.68,-143.95 287.68,-137.95 287.68,-131.95 287.68,-131.95 287.68,-103.75 287.68,-103.75 287.68,-97.75 293.68,-91.75 299.68,-91.75 299.68,-91.75 394.32,-91.75 394.32,-91.75 400.32,-91.75 406.32,-97.75 406.32,-103.75 406.32,-103.75 406.32,-131.95 406.32,-131.95 406.32,-137.95 400.32,-143.95 394.32,-143.95"/>
<text text-anchor="middle" x="347" y="-127.05" font-family="Helvetica,sans-Serif" font-size="14.00">Rev C</text>
<text text-anchor="middle" x="347" y="-112.05" font-family="Helvetica,sans-Serif" font-size="14.00">Primary: DB</text>
<text text-anchor="middle" x="347" y="-97.05" font-family="Helvetica,sans-Serif" font-size="14.00">Secondary: None</text>
</g>
<!-- Sub1&#45;&gt;Rev3 -->
<g id="edge4" class="edge">
<title>Sub1&#45;&gt;Rev3</title>
<path fill="none" stroke="#ff9800" stroke-dasharray="5,2" d="M269.6,-251.72C276.87,-243.26 284.63,-233.6 291,-224.2 306.01,-202.05 320.14,-175.43 330.44,-154.49"/>
<polygon fill="#ff9800" stroke="#ff9800" points="333.45,-156.3 334.66,-145.78 327.15,-153.25 333.45,-156.3"/>
<text text-anchor="middle" x="364.5" y="-215.65" font-family="Helvetica,sans-Serif" font-size="9.00" fill="#ff9800"> cap = 1</text>
<text text-anchor="middle" x="364.5" y="-205.9" font-family="Helvetica,sans-Serif" font-size="9.00" fill="#ff9800">Mode 2,3: Sub.Sec=Rev.Pri</text>
<text text-anchor="middle" x="364.5" y="-196.15" font-family="Helvetica,sans-Serif" font-size="9.00" fill="#ff9800">(DB = DB)</text>
</g>
<!-- Sub2&#45;&gt;Rev3 -->
<g id="edge6" class="edge">
<title>Sub2&#45;&gt;Rev3</title>
<path fill="none" stroke="#ffd700" stroke-width="1.5" d="M407.9,-251.92C415.63,-243.95 422.85,-234.52 427,-224.2 431.85,-212.14 432.12,-206.9 427,-194.95 419.94,-178.49 407.38,-163.91 394.27,-152.02"/>
<polygon fill="#ffd700" stroke="#ffd700" stroke-width="1.5" points="396.76,-149.55 386.89,-145.71 392.21,-154.87 396.76,-149.55"/>
<text text-anchor="middle" x="489.99" y="-215.65" font-family="Helvetica,sans-Serif" font-size="9.00" fill="#cca300"> cap = 1</text>
<text text-anchor="middle" x="489.99" y="-205.9" font-family="Helvetica,sans-Serif" font-size="9.00" fill="#cca300">Mode 1,2,3: Primary=Primary</text>
<text text-anchor="middle" x="489.99" y="-196.15" font-family="Helvetica,sans-Serif" font-size="9.00" fill="#cca300">(DB = DB)</text>
</g>
<!-- Rev1&#45;&gt;Sink -->
<g id="edge7" class="edge">
<title>Rev1&#45;&gt;Sink</title>
<path fill="none" stroke="#388e3c" stroke-width="2" d="M101.38,-91.31C109.48,-78.73 120.58,-64.14 133.5,-54 145.33,-44.71 159.99,-37.48 173.7,-32.06"/>
<polygon fill="#388e3c" stroke="#388e3c" stroke-width="2" points="174.89,-35.35 183.08,-28.63 172.49,-28.78 174.89,-35.35"/>
<text text-anchor="middle" x="173.25" y="-55.2" font-family="Helvetica,sans-Serif" font-size="9.00" fill="#388e3c"> cap = MaxReviews</text>
</g>
<!-- Rev2&#45;&gt;Sink -->
<g id="edge8" class="edge">
<title>Rev2&#45;&gt;Sink</title>
<path fill="none" stroke="#388e3c" stroke-width="2" d="M217,-91.4C217,-78.4 217,-62.51 217,-48.93"/>
<polygon fill="#388e3c" stroke="#388e3c" stroke-width="2" points="220.5,-49.34 217,-39.34 213.5,-49.34 220.5,-49.34"/>
<text text-anchor="middle" x="256.75" y="-55.2" font-family="Helvetica,sans-Serif" font-size="9.00" fill="#388e3c"> cap = MaxReviews</text>
</g>
<!-- Rev3&#45;&gt;Sink -->
<g id="edge9" class="edge">
<title>Rev3&#45;&gt;Sink</title>
<path fill="none" stroke="#388e3c" stroke-width="2" d="M332.84,-91.29C324.84,-78.71 313.86,-64.12 301,-54 289,-44.55 274.08,-37.25 260.16,-31.82"/>
<polygon fill="#388e3c" stroke="#388e3c" stroke-width="2" points="261.73,-28.66 251.13,-28.55 259.34,-35.24 261.73,-28.66"/>
<text text-anchor="middle" x="350.16" y="-55.2" font-family="Helvetica,sans-Serif" font-size="9.00" fill="#388e3c"> cap = MaxReviews</text>
</g>
</g>
</svg>
