<?xml version="1.0" encoding="UTF-8" standalone="no"?>
<!DOCTYPE svg PUBLIC "-//W3C//DTD SVG 1.1//EN"
 "http://www.w3.org/Graphics/SVG/1.1/DTD/svg11.dtd">
<!-- Generated by graphviz version 12.2.1 (0)
 -->
<!-- Title: T23_Remove_Rev1_Rev2 Pages: 1 -->
<svg width="422pt" height="256pt"
 viewBox="0.00 0.00 422.00 256.00" xmlns="http://www.w3.org/2000/svg" xmlns:xlink="http://www.w3.org/1999/xlink">
<g id="graph0" class="graph" transform="scale(1 1) rotate(0) translate(4 252)">
<title>T23_Remove_Rev1_Rev2</title>
<text text-anchor="middle" x="207" y="-21.1" font-family="Times,serif" font-size="12.00" fill="#d32f2f">K=2: Remove {Rev1, Rev2} &#45;&gt; Flow=1 &lt; 3 &#45;&gt; CRITICAL</text>
<text text-anchor="middle" x="207" y="-6.85" font-family="Times,serif" font-size="12.00" fill="#d32f2f">(Sub1 and Sub3 have no matching reviewers)</text>
<!-- SOURCE -->
<g id="node1" class="node">
<title>SOURCE</title>
<polygon fill="#ffcc80" stroke="black" points="80.12,-132.25 5.62,-132.25 5.62,-96.25 80.12,-96.25 80.12,-132.25"/>
<text text-anchor="middle" x="42.88" y="-108.83" font-family="Helvetica,sans-Serif" font-size="14.00">SOURCE</text>
</g>
<!-- SUB#1\nTopic: A -->
<g id="node3" class="node">
<title>SUB#1\nTopic: A</title>
<polygon fill="#bbdefb" stroke="black" points="198.5,-192 134.5,-192 134.5,-152.5 198.5,-152.5 198.5,-192"/>
<text text-anchor="middle" x="166.5" y="-174.7" font-family="Helvetica,sans-Serif" font-size="14.00">SUB#1</text>
<text text-anchor="middle" x="166.5" y="-158.95" font-family="Helvetica,sans-Serif" font-size="14.00">Topic: A</text>
</g>
<!-- SOURCE&#45;&gt;SUB#1\nTopic: A -->
<g id="edge1" class="edge">
<title>SOURCE&#45;&gt;SUB#1\nTopic: A</title>
<path fill="none" stroke="gray" stroke-dasharray="5,2" d="M80.37,-131.65C94.22,-138.26 110.08,-145.82 124.34,-152.62"/>
<polygon fill="gray" stroke="gray" points="122.48,-155.61 133.01,-156.76 125.49,-149.29 122.48,-155.61"/>
<text text-anchor="middle" x="110.12" y="-150.39" font-family="Helvetica,sans-Serif" font-size="9.00">0/1</text>
</g>
<!-- SUB#2\nTopic: B -->
<g id="node4" class="node">
<title>SUB#2\nTopic: B</title>
<polygon fill="#bbdefb" stroke="black" points="198.5,-134 134.5,-134 134.5,-94.5 198.5,-94.5 198.5,-134"/>
<text text-anchor="middle" x="166.5" y="-116.7" font-family="Helvetica,sans-Serif" font-size="14.00">SUB#2</text>
<text text-anchor="middle" x="166.5" y="-100.95" font-family="Helvetica,sans-Serif" font-size="14.00">Topic: B</text>
</g>
<!-- SOURCE&#45;&gt;SUB#2\nTopic: B -->
<g id="edge2" class="edge">
<title>SOURCE&#45;&gt;SUB#2\nTopic: B</title>
<path fill="none" stroke="#1976d2" stroke-width="2" d="M80.37,-114.25C93.28,-114.25 107.94,-114.25 121.41,-114.25"/>
<polygon fill="#1976d2" stroke="#1976d2" stroke-width="2" points="121.35,-117.75 131.35,-114.25 121.35,-110.75 121.35,-117.75"/>
<text text-anchor="middle" x="110.12" y="-116.2" font-family="Helvetica,sans-Serif" font-size="9.00">1/1</text>
</g>
<!-- SUB#3\nTopic: A -->
<g id="node5" class="node">
<title>SUB#3\nTopic: A</title>
<polygon fill="#bbdefb" stroke="black" points="198.5,-76 134.5,-76 134.5,-36.5 198.5,-36.5 198.5,-76"/>
<text text-anchor="middle" x="166.5" y="-58.7" font-family="Helvetica,sans-Serif" font-size="14.00">SUB#3</text>
<text text-anchor="middle" x="166.5" y="-42.95" font-family="Helvetica,sans-Serif" font-size="14.00">Topic: A</text>
</g>
<!-- SOURCE&#45;&gt;SUB#3\nTopic: A -->
<g id="edge3" class="edge">
<title>SOURCE&#45;&gt;SUB#3\nTopic: A</title>
<path fill="none" stroke="gray" stroke-dasharray="5,2" d="M80.37,-96.85C94.22,-90.24 110.08,-82.68 124.34,-75.88"/>
<polygon fill="gray" stroke="gray" points="125.49,-79.21 133.01,-71.74 122.48,-72.89 125.49,-79.21"/>
<text text-anchor="middle" x="110.12" y="-87.2" font-family="Helvetica,sans-Serif" font-size="9.00">0/1</text>
</g>
<!-- SINK -->
<g id="node2" class="node">
<title>SINK</title>
<polygon fill="#80cbc4" stroke="black" points="414,-129.25 360,-129.25 360,-93.25 414,-93.25 414,-129.25"/>
<text text-anchor="middle" x="387" y="-105.83" font-family="Helvetica,sans-Serif" font-size="14.00">SINK</text>
</g>
<!-- REV#3\nTopic: B -->
<g id="node8" class="node">
<title>REV#3\nTopic: B</title>
<polygon fill="#c8e6c9" stroke="black" points="311.25,-160 247.25,-160 247.25,-120.5 311.25,-120.5 311.25,-160"/>
<text text-anchor="middle" x="279.25" y="-142.7" font-family="Helvetica,sans-Serif" font-size="14.00">REV#3</text>
<text text-anchor="middle" x="279.25" y="-126.95" font-family="Helvetica,sans-Serif" font-size="14.00">Topic: B</text>
</g>
<!-- SUB#2\nTopic: B&#45;&gt;REV#3\nTopic: B -->
<g id="edge4" class="edge">
<title>SUB#2\nTopic: B&#45;&gt;REV#3\nTopic: B</title>
<path fill="none" stroke="blue" stroke-width="2" d="M198.94,-121.63C210.02,-124.23 222.69,-127.21 234.6,-130"/>
<polygon fill="blue" stroke="blue" stroke-width="2" points="233.63,-133.37 244.17,-132.25 235.23,-126.56 233.63,-133.37"/>
<text text-anchor="middle" x="222.88" y="-129.98" font-family="Helvetica,sans-Serif" font-size="9.00">1/1</text>
</g>
<!-- REV#4\nTopic: B -->
<g id="node9" class="node">
<title>REV#4\nTopic: B</title>
<polygon fill="#c8e6c9" stroke="black" points="311.25,-102 247.25,-102 247.25,-62.5 311.25,-62.5 311.25,-102"/>
<text text-anchor="middle" x="279.25" y="-84.7" font-family="Helvetica,sans-Serif" font-size="14.00">REV#4</text>
<text text-anchor="middle" x="279.25" y="-68.95" font-family="Helvetica,sans-Serif" font-size="14.00">Topic: B</text>
</g>
<!-- SUB#2\nTopic: B&#45;&gt;REV#4\nTopic: B -->
<g id="edge5" class="edge">
<title>SUB#2\nTopic: B&#45;&gt;REV#4\nTopic: B</title>
<path fill="none" stroke="gray" stroke-dasharray="5,2" d="M198.94,-105.17C210.5,-101.83 223.77,-97.99 236.12,-94.42"/>
<polygon fill="gray" stroke="gray" points="237.02,-97.8 245.66,-91.67 235.08,-91.08 237.02,-97.8"/>
<text text-anchor="middle" x="222.88" y="-101.16" font-family="Helvetica,sans-Serif" font-size="9.00">0/1</text>
</g>
<!-- REV#1\nREMOVED -->
<g id="node6" class="node">
<title>REV#1\nREMOVED</title>
<polygon fill="none" stroke="#d32f2f" stroke-dasharray="5,2" points="85.75,-190 0,-190 0,-150.5 85.75,-150.5 85.75,-190"/>
<text text-anchor="middle" x="42.88" y="-172.7" font-family="Helvetica,sans-Serif" font-size="14.00">REV#1</text>
<text text-anchor="middle" x="42.88" y="-156.95" font-family="Helvetica,sans-Serif" font-size="14.00">REMOVED</text>
</g>
<!-- REV#2\nREMOVED -->
<g id="node7" class="node">
<title>REV#2\nREMOVED</title>
<polygon fill="none" stroke="#d32f2f" stroke-dasharray="5,2" points="85.75,-248 0,-248 0,-208.5 85.75,-208.5 85.75,-248"/>
<text text-anchor="middle" x="42.88" y="-230.7" font-family="Helvetica,sans-Serif" font-size="14.00">REV#2</text>
<text text-anchor="middle" x="42.88" y="-214.95" font-family="Helvetica,sans-Serif" font-size="14.00">REMOVED</text>
</g>
<!-- REV#3\nTopic: B&#45;&gt;SINK -->
<g id="edge6" class="edge">
<title>REV#3\nTopic: B&#45;&gt;SINK</title>
<path fill="none" stroke="#388e3c" stroke-width="2" d="M311.69,-131.63C322.96,-128.54 335.79,-125.02 347.58,-121.79"/>
<polygon fill="#388e3c" stroke="#388e3c" stroke-width="2" points="348.21,-125.24 356.93,-119.22 346.36,-118.49 348.21,-125.24"/>
<text text-anchor="middle" x="335.62" y="-128.57" font-family="Helvetica,sans-Serif" font-size="9.00">1/2</text>
</g>
<!-- REV#4\nTopic: B&#45;&gt;SINK -->
<g id="edge7" class="edge">
<title>REV#4\nTopic: B&#45;&gt;SINK</title>
<path fill="none" stroke="gray" stroke-dasharray="5,2" d="M311.69,-90.87C323.44,-94.09 336.88,-97.78 349.08,-101.13"/>
<polygon fill="gray" stroke="gray" points="347.82,-104.41 358.39,-103.68 349.67,-97.66 347.82,-104.41"/>
<text text-anchor="middle" x="335.62" y="-100.44" font-family="Helvetica,sans-Serif" font-size="9.00">0/2</text>
</g>
</g>
</svg>
