<?xml version="1.0" encoding="UTF-8" standalone="no"?>
<!DOCTYPE svg PUBLIC "-//W3C//DTD SVG 1.1//EN"
 "http://www.w3.org/Graphics/SVG/1.1/DTD/svg11.dtd">
<!-- Generated by graphviz version 12.2.1 (0)
 -->
<!-- Title: T24_Example Pages: 1 -->
<svg width="433pt" height="271pt"
 viewBox="0.00 0.00 433.25 270.59" xmlns="http://www.w3.org/2000/svg" xmlns:xlink="http://www.w3.org/1999/xlink">
<g id="graph0" class="graph" transform="scale(1 1) rotate(0) translate(4 266.59)">
<title>T24_Example</title>
<!-- SOURCE -->
<g id="node1" class="node">
<title>SOURCE</title>
<polygon fill="#ffcc80" stroke="black" points="74.5,-155.62 0,-155.62 0,-119.62 74.5,-119.62 74.5,-155.62"/>
<text text-anchor="middle" x="37.25" y="-132.2" font-family="Helvetica,sans-Serif" font-size="14.00">SOURCE</text>
</g>
<!-- SUB#1\npri=1\nsec=2 -->
<g id="node3" class="node">
<title>SUB#1\npri=1\nsec=2</title>
<polygon fill="#bbdefb" stroke="black" points="182,-220.25 123.25,-220.25 123.25,-165 182,-165 182,-220.25"/>
<text text-anchor="middle" x="152.62" y="-202.95" font-family="Helvetica,sans-Serif" font-size="14.00">SUB#1</text>
<text text-anchor="middle" x="152.62" y="-187.2" font-family="Helvetica,sans-Serif" font-size="14.00">pri=1</text>
<text text-anchor="middle" x="152.62" y="-171.45" font-family="Helvetica,sans-Serif" font-size="14.00">sec=2</text>
</g>
<!-- SOURCE&#45;&gt;SUB#1\npri=1\nsec=2 -->
<g id="edge1" class="edge">
<title>SOURCE&#45;&gt;SUB#1\npri=1\nsec=2</title>
<path fill="none" stroke="#1976d2" stroke-width="2" d="M74.75,-155.33C86.5,-161.03 99.58,-167.38 111.57,-173.19"/>
<polygon fill="#1976d2" stroke="#1976d2" stroke-width="2" points="109.86,-176.25 120.38,-177.47 112.91,-169.95 109.86,-176.25"/>
<text text-anchor="middle" x="98.88" y="-172" font-family="Helvetica,sans-Serif" font-size="9.00">1/1</text>
</g>
<!-- SUB#2\npri=3\nsec=1 -->
<g id="node4" class="node">
<title>SUB#2\npri=3\nsec=1</title>
<polygon fill="#bbdefb" stroke="black" points="182,-129.25 123.25,-129.25 123.25,-74 182,-74 182,-129.25"/>
<text text-anchor="middle" x="152.62" y="-111.95" font-family="Helvetica,sans-Serif" font-size="14.00">SUB#2</text>
<text text-anchor="middle" x="152.62" y="-96.2" font-family="Helvetica,sans-Serif" font-size="14.00">pri=3</text>
<text text-anchor="middle" x="152.62" y="-80.45" font-family="Helvetica,sans-Serif" font-size="14.00">sec=1</text>
</g>
<!-- SOURCE&#45;&gt;SUB#2\npri=3\nsec=1 -->
<g id="edge2" class="edge">
<title>SOURCE&#45;&gt;SUB#2\npri=3\nsec=1</title>
<path fill="none" stroke="#1976d2" stroke-width="2" d="M74.75,-126.04C86.25,-122.38 99.03,-118.33 110.82,-114.58"/>
<polygon fill="#1976d2" stroke="#1976d2" stroke-width="2" points="111.75,-117.96 120.22,-111.6 109.63,-111.29 111.75,-117.96"/>
<text text-anchor="middle" x="98.88" y="-121.58" font-family="Helvetica,sans-Serif" font-size="9.00">1/1</text>
</g>
<!-- SINK -->
<g id="node2" class="node">
<title>SINK</title>
<polygon fill="#80cbc4" stroke="black" points="425.25,-118.62 371.25,-118.62 371.25,-82.62 425.25,-82.62 425.25,-118.62"/>
<text text-anchor="middle" x="398.25" y="-95.2" font-family="Helvetica,sans-Serif" font-size="14.00">SINK</text>
</g>
<!-- REV#1\npri=1\nsec=3 -->
<g id="node5" class="node">
<title>REV#1\npri=1\nsec=3</title>
<polygon fill="#c8e6c9" stroke="black" points="322.5,-128.25 263.75,-128.25 263.75,-73 322.5,-73 322.5,-128.25"/>
<text text-anchor="middle" x="293.12" y="-110.95" font-family="Helvetica,sans-Serif" font-size="14.00">REV#1</text>
<text text-anchor="middle" x="293.12" y="-95.2" font-family="Helvetica,sans-Serif" font-size="14.00">pri=1</text>
<text text-anchor="middle" x="293.12" y="-79.45" font-family="Helvetica,sans-Serif" font-size="14.00">sec=3</text>
</g>
<!-- SUB#1\npri=1\nsec=2&#45;&gt;REV#1\npri=1\nsec=3 -->
<g id="edge3" class="edge">
<title>SUB#1\npri=1\nsec=2&#45;&gt;REV#1\npri=1\nsec=3</title>
<path fill="none" stroke="#ffd700" stroke-width="2.5" d="M182.44,-191.81C202.07,-189.91 227.68,-184.62 245.75,-170.62 256.63,-162.2 255.61,-154.6 262.57,-140.28"/>
<polygon fill="#ffd700" stroke="#ffd700" stroke-width="2.5" points="265.47,-142.26 267.43,-131.84 259.4,-138.76 265.47,-142.26"/>
<text text-anchor="middle" x="222.88" y="-211.99" font-family="Helvetica,sans-Serif" font-size="9.00" fill="#cca300">1/1</text>
<text text-anchor="middle" x="222.88" y="-201.49" font-family="Helvetica,sans-Serif" font-size="9.00" fill="#cca300">mode 1,2,3</text>
<text text-anchor="middle" x="222.88" y="-190.99" font-family="Helvetica,sans-Serif" font-size="9.00" fill="#cca300">pri=pri</text>
</g>
<!-- REV#2\npri=2\nsec=3 -->
<g id="node6" class="node">
<title>REV#2\npri=2\nsec=3</title>
<polygon fill="#c8e6c9" stroke="black" points="322.5,-201.25 263.75,-201.25 263.75,-146 322.5,-146 322.5,-201.25"/>
<text text-anchor="middle" x="293.12" y="-183.95" font-family="Helvetica,sans-Serif" font-size="14.00">REV#2</text>
<text text-anchor="middle" x="293.12" y="-168.2" font-family="Helvetica,sans-Serif" font-size="14.00">pri=2</text>
<text text-anchor="middle" x="293.12" y="-152.45" font-family="Helvetica,sans-Serif" font-size="14.00">sec=3</text>
</g>
<!-- SUB#1\npri=1\nsec=2&#45;&gt;REV#2\npri=2\nsec=3 -->
<g id="edge5" class="edge">
<title>SUB#1\npri=1\nsec=2&#45;&gt;REV#2\npri=2\nsec=3</title>
<path fill="none" stroke="#ff9800" stroke-dasharray="5,2" d="M182.33,-217.06C187.88,-220.58 193.88,-223.67 200,-225.62 219.37,-231.81 227.19,-233.94 245.75,-225.62 253.74,-222.04 260.93,-216.33 267.12,-209.97"/>
<polygon fill="#ff9800" stroke="#ff9800" points="269.43,-212.64 273.41,-202.82 264.18,-208.01 269.43,-212.64"/>
<text text-anchor="middle" x="222.88" y="-254.04" font-family="Helvetica,sans-Serif" font-size="9.00" fill="#ff9800">0/1</text>
<text text-anchor="middle" x="222.88" y="-243.54" font-family="Helvetica,sans-Serif" font-size="9.00" fill="#ff9800">mode 2,3</text>
<text text-anchor="middle" x="222.88" y="-233.04" font-family="Helvetica,sans-Serif" font-size="9.00" fill="#ff9800">sec=pri</text>
</g>
<!-- SUB#2\npri=3\nsec=1&#45;&gt;REV#1\npri=1\nsec=3 -->
<g id="edge6" class="edge">
<title>SUB#2\npri=3\nsec=1&#45;&gt;REV#1\npri=1\nsec=3</title>
<path fill="none" stroke="#ff9800" stroke-dasharray="5,2" d="M182.11,-89.05C187.92,-87 194.07,-85.21 200,-84.12 220,-80.48 225.71,-80.67 245.75,-84.12 248.05,-84.52 250.39,-85.02 252.74,-85.6"/>
<polygon fill="#ff9800" stroke="#ff9800" points="251.56,-88.9 262.14,-88.34 253.52,-82.18 251.56,-88.9"/>
<text text-anchor="middle" x="222.88" y="-107.08" font-family="Helvetica,sans-Serif" font-size="9.00" fill="#ff9800">0/1</text>
<text text-anchor="middle" x="222.88" y="-96.58" font-family="Helvetica,sans-Serif" font-size="9.00" fill="#ff9800">mode 2,3</text>
<text text-anchor="middle" x="222.88" y="-86.08" font-family="Helvetica,sans-Serif" font-size="9.00" fill="#ff9800">sec=pri</text>
</g>
<!-- SUB#2\npri=3\nsec=1&#45;&gt;REV#2\npri=2\nsec=3 -->
<g id="edge7" class="edge">
<title>SUB#2\npri=3\nsec=1&#45;&gt;REV#2\npri=2\nsec=3</title>
<path fill="none" stroke="#ff9800" stroke-dasharray="5,2" d="M182.3,-111.17C200.93,-117.88 225.44,-127.68 245.75,-139.12 248.54,-140.7 251.35,-142.41 254.14,-144.21"/>
<polygon fill="#ff9800" stroke="#ff9800" points="251.96,-146.96 262.2,-149.7 255.9,-141.18 251.96,-146.96"/>
<text text-anchor="middle" x="222.88" y="-162.07" font-family="Helvetica,sans-Serif" font-size="9.00" fill="#ff9800">0/1</text>
<text text-anchor="middle" x="222.88" y="-151.57" font-family="Helvetica,sans-Serif" font-size="9.00" fill="#ff9800">mode 3</text>
<text text-anchor="middle" x="222.88" y="-141.07" font-family="Helvetica,sans-Serif" font-size="9.00" fill="#ff9800">pri=sec</text>
</g>
<!-- REV#3\npri=3\nsec=1 -->
<g id="node7" class="node">
<title>REV#3\npri=3\nsec=1</title>
<polygon fill="#c8e6c9" stroke="black" points="322.5,-55.25 263.75,-55.25 263.75,0 322.5,0 322.5,-55.25"/>
<text text-anchor="middle" x="293.12" y="-37.95" font-family="Helvetica,sans-Serif" font-size="14.00">REV#3</text>
<text text-anchor="middle" x="293.12" y="-22.2" font-family="Helvetica,sans-Serif" font-size="14.00">pri=3</text>
<text text-anchor="middle" x="293.12" y="-6.45" font-family="Helvetica,sans-Serif" font-size="14.00">sec=1</text>
</g>
<!-- SUB#2\npri=3\nsec=1&#45;&gt;REV#3\npri=3\nsec=1 -->
<g id="edge4" class="edge">
<title>SUB#2\npri=3\nsec=1&#45;&gt;REV#3\npri=3\nsec=1</title>
<path fill="none" stroke="#ffd700" stroke-width="2.5" d="M171.17,-73.51C178.83,-63.41 188.67,-52.86 200,-46.12 215.01,-37.2 233.57,-32.51 250.09,-30.06"/>
<polygon fill="#ffd700" stroke="#ffd700" stroke-width="2.5" points="250.09,-33.59 259.61,-28.94 249.27,-26.64 250.09,-33.59"/>
<text text-anchor="middle" x="222.88" y="-69.08" font-family="Helvetica,sans-Serif" font-size="9.00" fill="#cca300">1/1</text>
<text text-anchor="middle" x="222.88" y="-58.58" font-family="Helvetica,sans-Serif" font-size="9.00" fill="#cca300">mode 1,2,3</text>
<text text-anchor="middle" x="222.88" y="-48.08" font-family="Helvetica,sans-Serif" font-size="9.00" fill="#cca300">pri=pri</text>
</g>
<!-- REV#1\npri=1\nsec=3&#45;&gt;SINK -->
<g id="edge8" class="edge">
<title>REV#1\npri=1\nsec=3&#45;&gt;SINK</title>
<path fill="none" stroke="#388e3c" stroke-width="2" d="M322.85,-100.62C333.76,-100.62 346.38,-100.62 358.1,-100.62"/>
<polygon fill="#388e3c" stroke="#388e3c" stroke-width="2" points="357.77,-104.13 367.77,-100.63 357.77,-97.13 357.77,-104.13"/>
<text text-anchor="middle" x="346.88" y="-102.58" font-family="Helvetica,sans-Serif" font-size="9.00">1/2</text>
</g>
<!-- REV#2\npri=2\nsec=3&#45;&gt;SINK -->
<g id="edge9" class="edge">
<title>REV#2\npri=2\nsec=3&#45;&gt;SINK</title>
<path fill="none" stroke="gray" stroke-dasharray="5,2" d="M322.85,-153.29C334.91,-144.75 349.07,-134.73 361.77,-125.74"/>
<polygon fill="gray" stroke="gray" points="363.77,-128.61 369.91,-119.98 359.73,-122.9 363.77,-128.61"/>
<text text-anchor="middle" x="346.88" y="-141.26" font-family="Helvetica,sans-Serif" font-size="9.00">0/2</text>
</g>
<!-- REV#3\npri=3\nsec=1&#45;&gt;SINK -->
<g id="edge10" class="edge">
<title>REV#3\npri=3\nsec=1&#45;&gt;SINK</title>
<path fill="none" stroke="#388e3c" stroke-width="2" d="M322.85,-47.96C334.56,-56.25 348.24,-65.93 360.65,-74.71"/>
<polygon fill="#388e3c" stroke="#388e3c" stroke-width="2" points="358.49,-77.48 368.68,-80.4 362.54,-71.76 358.49,-77.48"/>
<text text-anchor="middle" x="346.88" y="-70.45" font-family="Helvetica,sans-Serif" font-size="9.00">1/2</text>
</g>
</g>
</svg>
