<?xml version="1.0" encoding="UTF-8" standalone="no"?>
<!DOCTYPE svg PUBLIC "-//W3C//DTD SVG 1.1//EN"
 "http://www.w3.org/Graphics/SVG/1.1/DTD/svg11.dtd">
<!-- Generated by graphviz version 12.2.1 (0)
 -->
<!-- Title: T24_Example Pages: 1 -->
<svg width="433pt" height="255pt"
 viewBox="0.00 0.00 433.25 254.76" xmlns="http://www.w3.org/2000/svg" xmlns:xlink="http://www.w3.org/1999/xlink">
<g id="graph0" class="graph" transform="scale(1 1) rotate(0) translate(4 250.76)">
<title>T24_Example</title>
<!-- SOURCE -->
<g id="node1" class="node">
<title>SOURCE</title>
<polygon fill="#ffcc80" stroke="black" points="74.5,-148.5 0,-148.5 0,-112.5 74.5,-112.5 74.5,-148.5"/>
<text text-anchor="middle" x="37.25" y="-124.7" font-family="Helvetica,sans-Serif" font-size="14.00">SOURCE</text>
</g>
<!-- SUB#1\npri=1\nsec=2 -->
<g id="node3" class="node">
<title>SUB#1\npri=1\nsec=2</title>
<polygon fill="#bbdefb" stroke="black" points="182,-209 123.25,-209 123.25,-156 182,-156 182,-209"/>
<text text-anchor="middle" x="152.62" y="-191.7" font-family="Helvetica,sans-Serif" font-size="14.00">SUB#1</text>
<text text-anchor="middle" x="152.62" y="-176.7" font-family="Helvetica,sans-Serif" font-size="14.00">pri=1</text>
<text text-anchor="middle" x="152.62" y="-161.7" font-family="Helvetica,sans-Serif" font-size="14.00">sec=2</text>
</g>
<!-- SOURCE&#45;&gt;SUB#1\npri=1\nsec=2 -->
<g id="edge1" class="edge">
<title>SOURCE&#45;&gt;SUB#1\npri=1\nsec=2</title>
<path fill="none" stroke="#1976d2" stroke-width="2" d="M74.75,-147.24C86.5,-152.63 99.58,-158.63 111.57,-164.13"/>
<polygon fill="#1976d2" stroke="#1976d2" stroke-width="2" points="109.8,-167.17 120.35,-168.16 112.72,-160.81 109.8,-167.17"/>
<text text-anchor="middle" x="98.88" y="-162.36" font-family="Helvetica,sans-Serif" font-size="9.00">1/1</text>
</g>
<!-- SUB#2\npri=3\nsec=1 -->
<g id="node4" class="node">
<title>SUB#2\npri=3\nsec=1</title>
<polygon fill="#bbdefb" stroke="black" points="182,-122 123.25,-122 123.25,-69 182,-69 182,-122"/>
<text text-anchor="middle" x="152.62" y="-104.7" font-family="Helvetica,sans-Serif" font-size="14.00">SUB#2</text>
<text text-anchor="middle" x="152.62" y="-89.7" font-family="Helvetica,sans-Serif" font-size="14.00">pri=3</text>
<text text-anchor="middle" x="152.62" y="-74.7" font-family="Helvetica,sans-Serif" font-size="14.00">sec=1</text>
</g>
<!-- SOURCE&#45;&gt;SUB#2\npri=3\nsec=1 -->
<g id="edge2" class="edge">
<title>SOURCE&#45;&gt;SUB#2\npri=3\nsec=1</title>
<path fill="none" stroke="#1976d2" stroke-width="2" d="M74.75,-119.23C86.25,-115.68 99.03,-111.74 110.82,-108.1"/>
<polygon fill="#1976d2" stroke="#1976d2" stroke-width="2" points="111.69,-111.49 120.21,-105.2 109.63,-104.8 111.69,-111.49"/>
<text text-anchor="middle" x="98.88" y="-114.2" font-family="Helvetica,sans-Serif" font-size="9.00">1/1</text>
</g>
<!-- SINK -->
<g id="node2" class="node">
<title>SINK</title>
<polygon fill="#80cbc4" stroke="black" points="425.25,-115.5 371.25,-115.5 371.25,-79.5 425.25,-79.5 425.25,-115.5"/>
<text text-anchor="middle" x="398.25" y="-91.7" font-family="Helvetica,sans-Serif" font-size="14.00">SINK</text>
</g>
<!-- REV#1\npri=1\nsec=3 -->
<g id="node5" class="node">
<title>REV#1\npri=1\nsec=3</title>
<polygon fill="#c8e6c9" stroke="black" points="322.5,-124 263.75,-124 263.75,-71 322.5,-71 322.5,-124"/>
<text text-anchor="middle" x="293.12" y="-106.7" font-family="Helvetica,sans-Serif" font-size="14.00">REV#1</text>
<text text-anchor="middle" x="293.12" y="-91.7" font-family="Helvetica,sans-Serif" font-size="14.00">pri=1</text>
<text text-anchor="middle" x="293.12" y="-76.7" font-family="Helvetica,sans-Serif" font-size="14.00">sec=3</text>
</g>
<!-- SUB#1\npri=1\nsec=2&#45;&gt;REV#1\npri=1\nsec=3 -->
<g id="edge3" class="edge">
<title>SUB#1\npri=1\nsec=2&#45;&gt;REV#1\npri=1\nsec=3</title>
<path fill="none" stroke="#ffd700" stroke-width="2.5" d="M182.43,-181.06C201.82,-178.85 227.13,-173.47 245.75,-160.5 255.09,-153.99 255.62,-148.21 262.91,-135.88"/>
<polygon fill="#ffd700" stroke="#ffd700" stroke-width="2.5" points="265.8,-137.87 268.42,-127.6 259.97,-133.99 265.8,-137.87"/>
<text text-anchor="middle" x="222.88" y="-198.86" font-family="Helvetica,sans-Serif" font-size="9.00" fill="#cca300">1/1</text>
<text text-anchor="middle" x="222.88" y="-189.11" font-family="Helvetica,sans-Serif" font-size="9.00" fill="#cca300">mode 1,2,3</text>
<text text-anchor="middle" x="222.88" y="-179.36" font-family="Helvetica,sans-Serif" font-size="9.00" fill="#cca300">pri=pri</text>
</g>
<!-- REV#2\npri=2\nsec=3 -->
<g id="node6" class="node">
<title>REV#2\npri=2\nsec=3</title>
<polygon fill="#c8e6c9" stroke="black" points="322.5,-195 263.75,-195 263.75,-142 322.5,-142 322.5,-195"/>
<text text-anchor="middle" x="293.12" y="-177.7" font-family="Helvetica,sans-Serif" font-size="14.00">REV#2</text>
<text text-anchor="middle" x="293.12" y="-162.7" font-family="Helvetica,sans-Serif" font-size="14.00">pri=2</text>
<text text-anchor="middle" x="293.12" y="-147.7" font-family="Helvetica,sans-Serif" font-size="14.00">sec=3</text>
</g>
<!-- SUB#1\npri=1\nsec=2&#45;&gt;REV#2\npri=2\nsec=3 -->
<g id="edge5" class="edge">
<title>SUB#1\npri=1\nsec=2&#45;&gt;REV#2\npri=2\nsec=3</title>
<path fill="none" stroke="#ff9800" stroke-dasharray="5,2" d="M182.31,-204.58C187.91,-207.85 193.93,-210.71 200,-212.5 219.5,-218.26 226.86,-220.03 245.75,-212.5 251.55,-210.19 257.04,-206.77 262.07,-202.84"/>
<polygon fill="#ff9800" stroke="#ff9800" points="264.27,-205.56 269.48,-196.34 259.65,-200.3 264.27,-205.56"/>
<text text-anchor="middle" x="222.88" y="-238.21" font-family="Helvetica,sans-Serif" font-size="9.00" fill="#ff9800">0/1</text>
<text text-anchor="middle" x="222.88" y="-228.46" font-family="Helvetica,sans-Serif" font-size="9.00" fill="#ff9800">mode 2,3</text>
<text text-anchor="middle" x="222.88" y="-218.71" font-family="Helvetica,sans-Serif" font-size="9.00" fill="#ff9800">sec=pri</text>
</g>
<!-- SUB#2\npri=3\nsec=1&#45;&gt;REV#1\npri=1\nsec=3 -->
<g id="edge6" class="edge">
<title>SUB#2\npri=3\nsec=1&#45;&gt;REV#1\npri=1\nsec=3</title>
<path fill="none" stroke="#ff9800" stroke-dasharray="5,2" d="M182.17,-83.82C187.98,-81.92 194.11,-80.25 200,-79.25 220.05,-75.84 225.77,-75.46 245.75,-79.25 248.07,-79.69 250.43,-80.25 252.79,-80.89"/>
<polygon fill="#ff9800" stroke="#ff9800" points="251.65,-84.2 262.24,-83.92 253.79,-77.53 251.65,-84.2"/>
<text text-anchor="middle" x="222.88" y="-99.95" font-family="Helvetica,sans-Serif" font-size="9.00" fill="#ff9800">0/1</text>
<text text-anchor="middle" x="222.88" y="-90.2" font-family="Helvetica,sans-Serif" font-size="9.00" fill="#ff9800">mode 2,3</text>
<text text-anchor="middle" x="222.88" y="-80.45" font-family="Helvetica,sans-Serif" font-size="9.00" fill="#ff9800">sec=pri</text>
</g>
<!-- SUB#2\npri=3\nsec=1&#45;&gt;REV#2\npri=2\nsec=3 -->
<g id="edge7" class="edge">
<title>SUB#2\npri=3\nsec=1&#45;&gt;REV#2\npri=2\nsec=3</title>
<path fill="none" stroke="#ff9800" stroke-dasharray="5,2" d="M182.47,-104.15C201.17,-110.36 225.69,-119.67 245.75,-131.25 248.56,-132.87 251.38,-134.66 254.16,-136.54"/>
<polygon fill="#ff9800" stroke="#ff9800" points="252.03,-139.32 262.19,-142.34 256.13,-133.65 252.03,-139.32"/>
<text text-anchor="middle" x="222.88" y="-151.95" font-family="Helvetica,sans-Serif" font-size="9.00" fill="#ff9800">0/1</text>
<text text-anchor="middle" x="222.88" y="-142.2" font-family="Helvetica,sans-Serif" font-size="9.00" fill="#ff9800">mode 3</text>
<text text-anchor="middle" x="222.88" y="-132.45" font-family="Helvetica,sans-Serif" font-size="9.00" fill="#ff9800">pri=sec</text>
</g>
<!-- REV#3\npri=3\nsec=1 -->
<g id="node7" class="node">
<title>REV#3\npri=3\nsec=1</title>
<polygon fill="#c8e6c9" stroke="black" points="322.5,-53 263.75,-53 263.75,0 322.5,0 322.5,-53"/>
<text text-anchor="middle" x="293.12" y="-35.7" font-family="Helvetica,sans-Serif" font-size="14.00">REV#3</text>
<text text-anchor="middle" x="293.12" y="-20.7" font-family="Helvetica,sans-Serif" font-size="14.00">pri=3</text>
<text text-anchor="middle" x="293.12" y="-5.7" font-family="Helvetica,sans-Serif" font-size="14.00">sec=1</text>
</g>
<!-- SUB#2\npri=3\nsec=1&#45;&gt;REV#3\npri=3\nsec=1 -->
<g id="edge4" class="edge">
<title>SUB#2\npri=3\nsec=1&#45;&gt;REV#3\npri=3\nsec=1</title>
<path fill="none" stroke="#ffd700" stroke-width="2.5" d="M171.63,-68.65C179.29,-59.22 189.01,-49.43 200,-43.25 215.16,-34.72 233.75,-30.39 250.25,-28.25"/>
<polygon fill="#ffd700" stroke="#ffd700" stroke-width="2.5" points="250.13,-31.78 259.73,-27.29 249.43,-24.81 250.13,-31.78"/>
<text text-anchor="middle" x="222.88" y="-63.95" font-family="Helvetica,sans-Serif" font-size="9.00" fill="#cca300">1/1</text>
<text text-anchor="middle" x="222.88" y="-54.2" font-family="Helvetica,sans-Serif" font-size="9.00" fill="#cca300">mode 1,2,3</text>
<text text-anchor="middle" x="222.88" y="-44.45" font-family="Helvetica,sans-Serif" font-size="9.00" fill="#cca300">pri=pri</text>
</g>
<!-- REV#1\npri=1\nsec=3&#45;&gt;SINK -->
<g id="edge8" class="edge">
<title>REV#1\npri=1\nsec=3&#45;&gt;SINK</title>
<path fill="none" stroke="#388e3c" stroke-width="2" d="M322.85,-97.5C333.76,-97.5 346.38,-97.5 358.1,-97.5"/>
<polygon fill="#388e3c" stroke="#388e3c" stroke-width="2" points="357.77,-101 367.77,-97.5 357.77,-94 357.77,-101"/>
<text text-anchor="middle" x="346.88" y="-98.7" font-family="Helvetica,sans-Serif" font-size="9.00">1/2</text>
</g>
<!-- REV#2\npri=2\nsec=3&#45;&gt;SINK -->
<g id="edge9" class="edge">
<title>REV#2\npri=2\nsec=3&#45;&gt;SINK</title>
<path fill="none" stroke="gray" stroke-dasharray="5,2" d="M322.85,-148.72C334.82,-140.48 348.84,-130.83 361.47,-122.13"/>
<polygon fill="gray" stroke="gray" points="363.3,-125.12 369.55,-116.57 359.33,-119.36 363.3,-125.12"/>
<text text-anchor="middle" x="346.88" y="-136.33" font-family="Helvetica,sans-Serif" font-size="9.00">0/2</text>
</g>
<!-- REV#3\npri=3\nsec=1&#45;&gt;SINK -->
<g id="edge10" class="edge">
<title>REV#3\npri=3\nsec=1&#45;&gt;SINK</title>
<path fill="none" stroke="#388e3c" stroke-width="2" d="M322.85,-46.28C334.47,-54.27 348.02,-63.61 360.35,-72.1"/>
<polygon fill="#388e3c" stroke="#388e3c" stroke-width="2" points="358.08,-74.78 368.3,-77.57 362.05,-69.02 358.08,-74.78"/>
<text text-anchor="middle" x="346.88" y="-67.45" font-family="Helvetica,sans-Serif" font-size="9.00">1/2</text>
</g>
</g>
</svg>
