<?xml version="1.0" encoding="UTF-8" standalone="no"?>
<!DOCTYPE svg PUBLIC "-//W3C//DTD SVG 1.1//EN"
 "http://www.w3.org/Graphics/SVG/1.1/DTD/svg11.dtd">
<!-- Generated by graphviz version 12.2.1 (0)
 -->
<!-- Title: MaxFlowReviewAssignment Pages: 1 -->
<svg width="558pt" height="383pt"
 viewBox="0.00 0.00 557.81 383.15" xmlns="http://www.w3.org/2000/svg" xmlns:xlink="http://www.w3.org/1999/xlink">
<g id="graph0" class="graph" transform="scale(1 1) rotate(0) translate(4 379.15)">
<title>MaxFlowReviewAssignment</title>
<g id="clust1" class="cluster">
<title>cluster_submissions</title>
<polygon fill="none" stroke="#1976d2" stroke-dasharray="5,2" points="185,-212.2 185,-303.4 443,-303.4 443,-212.2 185,-212.2"/>
<text text-anchor="middle" x="314" y="-286.1" font-family="Helvetica,sans-Serif" font-weight="bold" font-size="14.00" fill="#0d47a1">Submissions (Domain)</text>
</g>
<g id="clust2" class="cluster">
<title>cluster_reviewers</title>
<polygon fill="none" stroke="#388e3c" stroke-dasharray="5,2" points="8,-73.75 8,-164.95 402,-164.95 402,-73.75 8,-73.75"/>
<text text-anchor="middle" x="205" y="-147.65" font-family="Helvetica,sans-Serif" font-weight="bold" font-size="14.00" fill="#1b5e20">Reviewers (Expertise)</text>
</g>
<!-- Source -->
<g id="node1" class="node">
<title>Source</title>
<path fill="#ffcc80" stroke="#333333" d="M330.45,-375.15C330.45,-375.15 275.55,-375.15 275.55,-375.15 269.55,-375.15 263.55,-369.15 263.55,-363.15 263.55,-363.15 263.55,-351.15 263.55,-351.15 263.55,-345.15 269.55,-339.15 275.55,-339.15 275.55,-339.15 330.45,-339.15 330.45,-339.15 336.45,-339.15 342.45,-345.15 342.45,-351.15 342.45,-351.15 342.45,-363.15 342.45,-363.15 342.45,-369.15 336.45,-375.15 330.45,-375.15"/>
<text text-anchor="middle" x="303" y="-351.35" font-family="Helvetica,sans-Serif" font-size="14.00">Source (S)</text>
</g>
<!-- Sub1 -->
<g id="node3" class="node">
<title>Sub1</title>
<path fill="white" stroke="#333333" d="M286.57,-272.4C286.57,-272.4 205.43,-272.4 205.43,-272.4 199.43,-272.4 193.43,-266.4 193.43,-260.4 193.43,-260.4 193.43,-232.2 193.43,-232.2 193.43,-226.2 199.43,-220.2 205.43,-220.2 205.43,-220.2 286.57,-220.2 286.57,-220.2 292.57,-220.2 298.57,-226.2 298.57,-232.2 298.57,-232.2 298.57,-260.4 298.57,-260.4 298.57,-266.4 292.57,-272.4 286.57,-272.4"/>
<text text-anchor="middle" x="246" y="-255.5" font-family="Helvetica,sans-Serif" font-size="14.00">Sub 1</text>
<text text-anchor="middle" x="246" y="-240.5" font-family="Helvetica,sans-Serif" font-size="14.00">Primary: AI</text>
<text text-anchor="middle" x="246" y="-225.5" font-family="Helvetica,sans-Serif" font-size="14.00">Secondary: DB</text>
</g>
<!-- Source&#45;&gt;Sub1 -->
<g id="edge1" class="edge">
<title>Source&#45;&gt;Sub1</title>
<path fill="none" stroke="#1976d2" stroke-width="2" d="M282.69,-338.66C277.58,-333.45 272.49,-327.43 268.75,-321.15 262.25,-310.23 257.45,-297.28 253.97,-285.29"/>
<polygon fill="#1976d2" stroke="#1976d2" stroke-width="2" points="257.39,-284.53 251.47,-275.74 250.62,-286.3 257.39,-284.53"/>
<text text-anchor="middle" x="307.38" y="-312.6" font-family="Helvetica,sans-Serif" font-size="9.00" fill="#1976d2"> cap = MinReviews</text>
<polyline fill="none" stroke="#1976d2" points="346,-311.4 268.75,-311.4 282.57,-338.54"/>
</g>
<!-- Sub2 -->
<g id="node4" class="node">
<title>Sub2</title>
<path fill="white" stroke="#333333" d="M423.32,-272.4C423.32,-272.4 328.68,-272.4 328.68,-272.4 322.68,-272.4 316.68,-266.4 316.68,-260.4 316.68,-260.4 316.68,-232.2 316.68,-232.2 316.68,-226.2 322.68,-220.2 328.68,-220.2 328.68,-220.2 423.32,-220.2 423.32,-220.2 429.32,-220.2 435.32,-226.2 435.32,-232.2 435.32,-232.2 435.32,-260.4 435.32,-260.4 435.32,-266.4 429.32,-272.4 423.32,-272.4"/>
<text text-anchor="middle" x="376" y="-255.5" font-family="Helvetica,sans-Serif" font-size="14.00">Sub 2</text>
<text text-anchor="middle" x="376" y="-240.5" font-family="Helvetica,sans-Serif" font-size="14.00">Primary: DB</text>
<text text-anchor="middle" x="376" y="-225.5" font-family="Helvetica,sans-Serif" font-size="14.00">Secondary: None</text>
</g>
<!-- Source&#45;&gt;Sub2 -->
<g id="edge2" class="edge">
<title>Source&#45;&gt;Sub2</title>
<path fill="none" stroke="#1976d2" stroke-width="2" d="M328.64,-338.79C334.91,-333.65 341.19,-327.65 346,-321.15 353.94,-310.41 360.15,-297.28 364.82,-285.08"/>
<polygon fill="#1976d2" stroke="#1976d2" stroke-width="2" points="368.1,-286.3 368.12,-275.7 361.5,-283.97 368.1,-286.3"/>
<text text-anchor="middle" x="390.58" y="-312.6" font-family="Helvetica,sans-Serif" font-size="9.00" fill="#1976d2"> cap = MinReviews</text>
<polyline fill="none" stroke="#1976d2" points="429.21,-311.4 351.96,-311.4 358.07,-300.77"/>
</g>
<!-- Sink -->
<g id="node2" class="node">
<title>Sink</title>
<path fill="#80cbc4" stroke="#333333" d="M223.82,-36C223.82,-36 186.18,-36 186.18,-36 180.18,-36 174.18,-30 174.18,-24 174.18,-24 174.18,-12 174.18,-12 174.18,-6 180.18,0 186.18,0 186.18,0 223.82,0 223.82,0 229.82,0 235.82,-6 235.82,-12 235.82,-12 235.82,-24 235.82,-24 235.82,-30 229.82,-36 223.82,-36"/>
<text text-anchor="middle" x="205" y="-12.2" font-family="Helvetica,sans-Serif" font-size="14.00">Sink (T)</text>
</g>
<!-- Rev1 -->
<g id="node5" class="node">
<title>Rev1</title>
<path fill="white" stroke="#333333" d="M122.32,-133.95C122.32,-133.95 27.67,-133.95 27.67,-133.95 21.67,-133.95 15.67,-127.95 15.67,-121.95 15.67,-121.95 15.67,-93.75 15.67,-93.75 15.67,-87.75 21.67,-81.75 27.67,-81.75 27.67,-81.75 122.32,-81.75 122.32,-81.75 128.32,-81.75 134.32,-87.75 134.32,-93.75 134.32,-93.75 134.32,-121.95 134.32,-121.95 134.32,-127.95 128.32,-133.95 122.32,-133.95"/>
<text text-anchor="middle" x="75" y="-117.05" font-family="Helvetica,sans-Serif" font-size="14.00">Rev A</text>
<text text-anchor="middle" x="75" y="-102.05" font-family="Helvetica,sans-Serif" font-size="14.00">Primary: AI</text>
<text text-anchor="middle" x="75" y="-87.05" font-family="Helvetica,sans-Serif" font-size="14.00">Secondary: None</text>
</g>
<!-- Sub1&#45;&gt;Rev1 -->
<g id="edge3" class="edge">
<title>Sub1&#45;&gt;Rev1</title>
<path fill="none" stroke="#4caf50" stroke-width="1.5" d="M193.27,-240.79C142.43,-235.22 70.73,-223.72 53.5,-202.2 40.7,-186.22 45.19,-164.01 53.29,-145.27"/>
<polygon fill="#4caf50" stroke="#4caf50" stroke-width="1.5" points="56.35,-146.99 57.55,-136.46 50.05,-143.94 56.35,-146.99"/>
<text text-anchor="middle" x="112.75" y="-193.65" font-family="Helvetica,sans-Serif" font-size="9.00" fill="#4caf50"> cap = 1</text>
<text text-anchor="middle" x="112.75" y="-183.9" font-family="Helvetica,sans-Serif" font-size="9.00" fill="#4caf50">Mode 1,2,3: Primary=Primary</text>
<text text-anchor="middle" x="112.75" y="-174.15" font-family="Helvetica,sans-Serif" font-size="9.00" fill="#4caf50">(AI = AI)</text>
<polyline fill="none" stroke="#4caf50" points="172,-172.95 53.5,-172.95 102.87,-225.51"/>
</g>
<!-- Rev2 -->
<g id="node6" class="node">
<title>Rev2</title>
<path fill="white" stroke="#333333" d="M245.57,-133.95C245.57,-133.95 164.43,-133.95 164.43,-133.95 158.43,-133.95 152.43,-127.95 152.43,-121.95 152.43,-121.95 152.43,-93.75 152.43,-93.75 152.43,-87.75 158.43,-81.75 164.43,-81.75 164.43,-81.75 245.57,-81.75 245.57,-81.75 251.57,-81.75 257.57,-87.75 257.57,-93.75 257.57,-93.75 257.57,-121.95 257.57,-121.95 257.57,-127.95 251.57,-133.95 245.57,-133.95"/>
<text text-anchor="middle" x="205" y="-117.05" font-family="Helvetica,sans-Serif" font-size="14.00">Rev B</text>
<text text-anchor="middle" x="205" y="-102.05" font-family="Helvetica,sans-Serif" font-size="14.00">Primary: ML</text>
<text text-anchor="middle" x="205" y="-87.05" font-family="Helvetica,sans-Serif" font-size="14.00">Secondary: DB</text>
</g>
<!-- Sub1&#45;&gt;Rev2 -->
<g id="edge5" class="edge">
<title>Sub1&#45;&gt;Rev2</title>
<path fill="none" stroke="#f44336" stroke-dasharray="1,5" d="M196.23,-219.93C190.32,-214.86 185.12,-208.97 181.5,-202.2 172,-184.42 176.67,-162.66 184.27,-144.63"/>
<polygon fill="#f44336" stroke="#f44336" points="187.43,-146.14 188.49,-135.6 181.09,-143.17 187.43,-146.14"/>
<text text-anchor="middle" x="236.25" y="-193.65" font-family="Helvetica,sans-Serif" font-size="9.00" fill="#f44336"> cap = 1</text>
<text text-anchor="middle" x="236.25" y="-183.9" font-family="Helvetica,sans-Serif" font-size="9.00" fill="#f44336">Mode 3: Sub.Sec=Rev.Sec</text>
<text text-anchor="middle" x="236.25" y="-174.15" font-family="Helvetica,sans-Serif" font-size="9.00" fill="#f44336">(DB = DB)</text>
<polyline fill="none" stroke="#f44336" points="291,-172.95 181.5,-172.95 196.21,-219.92"/>
</g>
<!-- Rev3 -->
<g id="node7" class="node">
<title>Rev3</title>
<path fill="white" stroke="#333333" d="M382.32,-133.95C382.32,-133.95 287.68,-133.95 287.68,-133.95 281.68,-133.95 275.68,-127.95 275.68,-121.95 275.68,-121.95 275.68,-93.75 275.68,-93.75 275.68,-87.75 281.68,-81.75 287.68,-81.75 287.68,-81.75 382.32,-81.75 382.32,-81.75 388.32,-81.75 394.32,-87.75 394.32,-93.75 394.32,-93.75 394.32,-121.95 394.32,-121.95 394.32,-127.95 388.32,-133.95 382.32,-133.95"/>
<text text-anchor="middle" x="335" y="-117.05" font-family="Helvetica,sans-Serif" font-size="14.00">Rev C</text>
<text text-anchor="middle" x="335" y="-102.05" font-family="Helvetica,sans-Serif" font-size="14.00">Primary: DB</text>
<text text-anchor="middle" x="335" y="-87.05" font-family="Helvetica,sans-Serif" font-size="14.00">Secondary: None</text>
</g>
<!-- Sub1&#45;&gt;Rev3 -->
<g id="edge4" class="edge">
<title>Sub1&#45;&gt;Rev3</title>
<path fill="none" stroke="#ff9800" stroke-dasharray="5,2" d="M275.74,-219.84C281.21,-214.35 286.58,-208.35 291,-202.2 303.62,-184.65 314.12,-162.91 321.69,-144.83"/>
<polygon fill="#ff9800" stroke="#ff9800" points="324.84,-146.37 325.35,-135.79 318.35,-143.75 324.84,-146.37"/>
<text text-anchor="middle" x="364.78" y="-193.65" font-family="Helvetica,sans-Serif" font-size="9.00" fill="#ff9800"> cap = 1</text>
<text text-anchor="middle" x="364.78" y="-183.9" font-family="Helvetica,sans-Serif" font-size="9.00" fill="#ff9800">Mode 2,3: Sub.Sec=Rev.Pri</text>
<text text-anchor="middle" x="364.78" y="-174.15" font-family="Helvetica,sans-Serif" font-size="9.00" fill="#ff9800">(DB = DB)</text>
<polyline fill="none" stroke="#ff9800" points="421.03,-172.95 308.53,-172.95 313.54,-163.07"/>
</g>
<!-- Sub2&#45;&gt;Rev3 -->
<g id="edge6" class="edge">
<title>Sub2&#45;&gt;Rev3</title>
<path fill="none" stroke="#4caf50" stroke-width="1.5" d="M414.26,-219.79C419.42,-214.61 423.97,-208.72 427,-202.2 432.47,-190.41 433.02,-184.47 427,-172.95 420.45,-160.41 410.21,-149.83 398.9,-141.1"/>
<polygon fill="#4caf50" stroke="#4caf50" stroke-width="1.5" points="401.23,-138.46 391.06,-135.52 397.18,-144.16 401.23,-138.46"/>
<text text-anchor="middle" x="490.56" y="-193.65" font-family="Helvetica,sans-Serif" font-size="9.00" fill="#4caf50"> cap = 1</text>
<text text-anchor="middle" x="490.56" y="-183.9" font-family="Helvetica,sans-Serif" font-size="9.00" fill="#4caf50">Mode 1,2,3: Primary=Primary</text>
<text text-anchor="middle" x="490.56" y="-174.15" font-family="Helvetica,sans-Serif" font-size="9.00" fill="#4caf50">(DB = DB)</text>
<polyline fill="none" stroke="#4caf50" points="549.81,-172.95 431.31,-172.95 431.31,-187.47"/>
</g>
<!-- Rev1&#45;&gt;Sink -->
<g id="edge7" class="edge">
<title>Rev1&#45;&gt;Sink</title>
<path fill="none" stroke="#388e3c" stroke-width="2" d="M93.35,-81.47C101.2,-71.92 110.98,-61.56 121.5,-54 133.62,-45.29 148.23,-38.23 161.82,-32.79"/>
<polygon fill="#388e3c" stroke="#388e3c" stroke-width="2" points="162.95,-36.1 171.08,-29.31 160.49,-29.55 162.95,-36.1"/>
<text text-anchor="middle" x="161.25" y="-55.2" font-family="Helvetica,sans-Serif" font-size="9.00" fill="#388e3c"> cap = MaxReviews</text>
<polyline fill="none" stroke="#388e3c" points="201,-54 121.5,-54 151.82,-37.03"/>
</g>
<!-- Rev2&#45;&gt;Sink -->
<g id="edge8" class="edge">
<title>Rev2&#45;&gt;Sink</title>
<path fill="none" stroke="#388e3c" stroke-width="2" d="M205,-81.44C205,-71.36 205,-59.69 205,-49.19"/>
<polygon fill="#388e3c" stroke="#388e3c" stroke-width="2" points="208.5,-49.31 205,-39.31 201.5,-49.31 208.5,-49.31"/>
<text text-anchor="middle" x="244.75" y="-55.2" font-family="Helvetica,sans-Serif" font-size="9.00" fill="#388e3c"> cap = MaxReviews</text>
<polyline fill="none" stroke="#388e3c" points="284.5,-54 205,-54 205,-58.78"/>
</g>
<!-- Rev3&#45;&gt;Sink -->
<g id="edge9" class="edge">
<title>Rev3&#45;&gt;Sink</title>
<path fill="none" stroke="#388e3c" stroke-width="2" d="M316.9,-81.45C309.14,-71.9 299.46,-61.54 289,-54 276.83,-45.23 262.14,-38.15 248.46,-32.71"/>
<polygon fill="#388e3c" stroke="#388e3c" stroke-width="2" points="249.72,-29.45 239.13,-29.24 247.28,-36.01 249.72,-29.45"/>
<text text-anchor="middle" x="339.05" y="-55.2" font-family="Helvetica,sans-Serif" font-size="9.00" fill="#388e3c"> cap = MaxReviews</text>
<polyline fill="none" stroke="#388e3c" points="378.8,-54 299.3,-54 315.05,-79.2"/>
</g>
</g>
</svg>
