<?xml version="1.0" encoding="UTF-8" standalone="no"?>
<!DOCTYPE svg PUBLIC "-//W3C//DTD SVG 1.1//EN"
 "http://www.w3.org/Graphics/SVG/1.1/DTD/svg11.dtd">
<!-- Generated by graphviz version 12.2.1 (0)
 -->
<!-- Title: MaxFlowReviewAssignment Pages: 1 -->
<svg width="849pt" height="259pt"
 viewBox="0.00 0.00 849.25 259.00" xmlns="http://www.w3.org/2000/svg" xmlns:xlink="http://www.w3.org/1999/xlink">
<g id="graph0" class="graph" transform="scale(1 1) rotate(0) translate(4 255)">
<title>MaxFlowReviewAssignment</title>
<g id="clust1" class="cluster">
<title>cluster_submissions</title>
<polygon fill="none" stroke="#1976d2" stroke-dasharray="5,2" points="193.25,-15 193.25,-179 357,-179 357,-15 193.25,-15"/>
<text text-anchor="middle" x="275.12" y="-161.7" font-family="Helvetica,sans-Serif" font-weight="bold" font-size="14.00" fill="#1976d2">Submissions (Domain)</text>
</g>
<g id="clust2" class="cluster">
<title>cluster_reviewers</title>
<polygon fill="none" stroke="#388e3c" stroke-dasharray="5,2" points="505.25,-8 505.25,-243 662.25,-243 662.25,-8 505.25,-8"/>
<text text-anchor="middle" x="583.75" y="-225.7" font-family="Helvetica,sans-Serif" font-weight="bold" font-size="14.00" fill="#388e3c">Reviewers (Expertise)</text>
</g>
<!-- Source -->
<g id="node1" class="node">
<title>Source</title>
<path fill="#ffcc80" stroke="#333333" d="M68.5,-103C68.5,-103 12,-103 12,-103 6,-103 0,-97 0,-91 0,-91 0,-79 0,-79 0,-73 6,-67 12,-67 12,-67 68.5,-67 68.5,-67 74.5,-67 80.5,-73 80.5,-79 80.5,-79 80.5,-91 80.5,-91 80.5,-97 74.5,-103 68.5,-103"/>
<text text-anchor="middle" x="40.25" y="-79.2" font-family="Helvetica,sans-Serif" font-size="14.00">Source (S)</text>
</g>
<!-- Sub1 -->
<g id="node3" class="node">
<title>Sub1</title>
<path fill="white" stroke="#333333" d="M316,-147.5C316,-147.5 233.25,-147.5 233.25,-147.5 227.25,-147.5 221.25,-141.5 221.25,-135.5 221.25,-135.5 221.25,-106.5 221.25,-106.5 221.25,-100.5 227.25,-94.5 233.25,-94.5 233.25,-94.5 316,-94.5 316,-94.5 322,-94.5 328,-100.5 328,-106.5 328,-106.5 328,-135.5 328,-135.5 328,-141.5 322,-147.5 316,-147.5"/>
<text text-anchor="middle" x="274.62" y="-130.2" font-family="Helvetica,sans-Serif" font-size="14.00">Sub 1</text>
<text text-anchor="middle" x="274.62" y="-115.2" font-family="Helvetica,sans-Serif" font-size="14.00">Primary: AI</text>
<text text-anchor="middle" x="274.62" y="-100.2" font-family="Helvetica,sans-Serif" font-size="14.00">Secondary: DB</text>
</g>
<!-- Source&#45;&gt;Sub1 -->
<g id="edge1" class="edge">
<title>Source&#45;&gt;Sub1</title>
<path fill="none" stroke="#1976d2" stroke-width="2" d="M80.93,-91.15C115.86,-96.56 167.41,-104.54 208.39,-110.89"/>
<polygon fill="#1976d2" stroke="#1976d2" stroke-width="2" points="207.61,-114.31 218.03,-112.39 208.68,-107.4 207.61,-114.31"/>
<text text-anchor="middle" x="140.88" y="-107.97" font-family="Helvetica,sans-Serif" font-size="10.00" fill="#1976d2"> cap = MinReviews</text>
</g>
<!-- Sub2 -->
<g id="node4" class="node">
<title>Sub2</title>
<path fill="white" stroke="#333333" d="M322.75,-76.5C322.75,-76.5 226.5,-76.5 226.5,-76.5 220.5,-76.5 214.5,-70.5 214.5,-64.5 214.5,-64.5 214.5,-35.5 214.5,-35.5 214.5,-29.5 220.5,-23.5 226.5,-23.5 226.5,-23.5 322.75,-23.5 322.75,-23.5 328.75,-23.5 334.75,-29.5 334.75,-35.5 334.75,-35.5 334.75,-64.5 334.75,-64.5 334.75,-70.5 328.75,-76.5 322.75,-76.5"/>
<text text-anchor="middle" x="274.62" y="-59.2" font-family="Helvetica,sans-Serif" font-size="14.00">Sub 2</text>
<text text-anchor="middle" x="274.62" y="-44.2" font-family="Helvetica,sans-Serif" font-size="14.00">Primary: DB</text>
<text text-anchor="middle" x="274.62" y="-29.2" font-family="Helvetica,sans-Serif" font-size="14.00">Secondary: None</text>
</g>
<!-- Source&#45;&gt;Sub2 -->
<g id="edge2" class="edge">
<title>Source&#45;&gt;Sub2</title>
<path fill="none" stroke="#1976d2" stroke-width="2" d="M80.93,-79.02C113.85,-74.07 161.5,-66.89 201.19,-60.91"/>
<polygon fill="#1976d2" stroke="#1976d2" stroke-width="2" points="201.68,-64.38 211.04,-59.43 200.63,-57.45 201.68,-64.38"/>
<text text-anchor="middle" x="140.88" y="-77.36" font-family="Helvetica,sans-Serif" font-size="10.00" fill="#1976d2"> cap = MinReviews</text>
</g>
<!-- Sink -->
<g id="node2" class="node">
<title>Sink</title>
<path fill="#80cbc4" stroke="#333333" d="M829.25,-132C829.25,-132 790,-132 790,-132 784,-132 778,-126 778,-120 778,-120 778,-108 778,-108 778,-102 784,-96 790,-96 790,-96 829.25,-96 829.25,-96 835.25,-96 841.25,-102 841.25,-108 841.25,-108 841.25,-120 841.25,-120 841.25,-126 835.25,-132 829.25,-132"/>
<text text-anchor="middle" x="809.62" y="-108.2" font-family="Helvetica,sans-Serif" font-size="14.00">Sink (T)</text>
</g>
<!-- Rev1 -->
<g id="node5" class="node">
<title>Rev1</title>
<path fill="white" stroke="#333333" d="M631.38,-211.5C631.38,-211.5 535.12,-211.5 535.12,-211.5 529.12,-211.5 523.12,-205.5 523.12,-199.5 523.12,-199.5 523.12,-170.5 523.12,-170.5 523.12,-164.5 529.12,-158.5 535.12,-158.5 535.12,-158.5 631.38,-158.5 631.38,-158.5 637.38,-158.5 643.38,-164.5 643.38,-170.5 643.38,-170.5 643.38,-199.5 643.38,-199.5 643.38,-205.5 637.38,-211.5 631.38,-211.5"/>
<text text-anchor="middle" x="583.25" y="-194.2" font-family="Helvetica,sans-Serif" font-size="14.00">Rev A</text>
<text text-anchor="middle" x="583.25" y="-179.2" font-family="Helvetica,sans-Serif" font-size="14.00">Primary: AI</text>
<text text-anchor="middle" x="583.25" y="-164.2" font-family="Helvetica,sans-Serif" font-size="14.00">Secondary: None</text>
</g>
<!-- Sub1&#45;&gt;Rev1 -->
<g id="edge3" class="edge">
<title>Sub1&#45;&gt;Rev1</title>
<path fill="none" stroke="#4caf50" stroke-width="1.5" d="M328.1,-143.48C340.66,-148.19 354.16,-152.72 367,-156 414.22,-168.05 468.62,-175.32 510.92,-179.57"/>
<polygon fill="#4caf50" stroke="#4caf50" stroke-width="1.5" points="510.53,-183.05 520.82,-180.53 511.2,-176.08 510.53,-183.05"/>
<text text-anchor="middle" x="431.12" y="-202.03" font-family="Helvetica,sans-Serif" font-size="10.00" fill="#4caf50"> cap = 1</text>
<text text-anchor="middle" x="431.12" y="-190.78" font-family="Helvetica,sans-Serif" font-size="10.00" fill="#4caf50">Mode 1,2,3: Primary=Primary</text>
<text text-anchor="middle" x="431.12" y="-179.53" font-family="Helvetica,sans-Serif" font-size="10.00" fill="#4caf50">(AI = AI)</text>
</g>
<!-- Rev2 -->
<g id="node6" class="node">
<title>Rev2</title>
<path fill="white" stroke="#333333" d="M624.62,-140.5C624.62,-140.5 541.88,-140.5 541.88,-140.5 535.88,-140.5 529.88,-134.5 529.88,-128.5 529.88,-128.5 529.88,-99.5 529.88,-99.5 529.88,-93.5 535.88,-87.5 541.88,-87.5 541.88,-87.5 624.62,-87.5 624.62,-87.5 630.62,-87.5 636.62,-93.5 636.62,-99.5 636.62,-99.5 636.62,-128.5 636.62,-128.5 636.62,-134.5 630.62,-140.5 624.62,-140.5"/>
<text text-anchor="middle" x="583.25" y="-123.2" font-family="Helvetica,sans-Serif" font-size="14.00">Rev B</text>
<text text-anchor="middle" x="583.25" y="-108.2" font-family="Helvetica,sans-Serif" font-size="14.00">Primary: ML</text>
<text text-anchor="middle" x="583.25" y="-93.2" font-family="Helvetica,sans-Serif" font-size="14.00">Secondary: DB</text>
</g>
<!-- Sub1&#45;&gt;Rev2 -->
<g id="edge5" class="edge">
<title>Sub1&#45;&gt;Rev2</title>
<path fill="none" stroke="#f44336" stroke-dasharray="1,5" d="M328.34,-119.8C380.96,-118.6 461.89,-116.75 518.19,-115.46"/>
<polygon fill="#f44336" stroke="#f44336" points="518.03,-118.97 527.95,-115.24 517.87,-111.97 518.03,-118.97"/>
<text text-anchor="middle" x="431.12" y="-142.99" font-family="Helvetica,sans-Serif" font-size="10.00" fill="#f44336"> cap = 1</text>
<text text-anchor="middle" x="431.12" y="-131.74" font-family="Helvetica,sans-Serif" font-size="10.00" fill="#f44336">Mode 3: Sub.Sec=Rev.Sec</text>
<text text-anchor="middle" x="431.12" y="-120.49" font-family="Helvetica,sans-Serif" font-size="10.00" fill="#f44336">(DB = DB)</text>
</g>
<!-- Rev3 -->
<g id="node7" class="node">
<title>Rev3</title>
<path fill="white" stroke="#333333" d="M631.38,-69.5C631.38,-69.5 535.12,-69.5 535.12,-69.5 529.12,-69.5 523.12,-63.5 523.12,-57.5 523.12,-57.5 523.12,-28.5 523.12,-28.5 523.12,-22.5 529.12,-16.5 535.12,-16.5 535.12,-16.5 631.38,-16.5 631.38,-16.5 637.38,-16.5 643.38,-22.5 643.38,-28.5 643.38,-28.5 643.38,-57.5 643.38,-57.5 643.38,-63.5 637.38,-69.5 631.38,-69.5"/>
<text text-anchor="middle" x="583.25" y="-52.2" font-family="Helvetica,sans-Serif" font-size="14.00">Rev C</text>
<text text-anchor="middle" x="583.25" y="-37.2" font-family="Helvetica,sans-Serif" font-size="14.00">Primary: DB</text>
<text text-anchor="middle" x="583.25" y="-22.2" font-family="Helvetica,sans-Serif" font-size="14.00">Secondary: None</text>
</g>
<!-- Sub1&#45;&gt;Rev3 -->
<g id="edge4" class="edge">
<title>Sub1&#45;&gt;Rev3</title>
<path fill="none" stroke="#ff9800" stroke-dasharray="5,2" d="M328.25,-100.69C338.03,-96.27 347.99,-91.31 357,-86 361.84,-83.14 361.84,-80.5 367,-78.25 412.73,-58.33 468.39,-49.58 511.66,-45.77"/>
<polygon fill="#ff9800" stroke="#ff9800" points="511.74,-49.28 521.43,-44.99 511.18,-42.3 511.74,-49.28"/>
<text text-anchor="middle" x="431.12" y="-102.5" font-family="Helvetica,sans-Serif" font-size="10.00" fill="#ff9800"> cap = 1</text>
<text text-anchor="middle" x="431.12" y="-91.25" font-family="Helvetica,sans-Serif" font-size="10.00" fill="#ff9800">Mode 2,3: Sub.Sec=Rev.Pri</text>
<text text-anchor="middle" x="431.12" y="-80" font-family="Helvetica,sans-Serif" font-size="10.00" fill="#ff9800">(DB = DB)</text>
</g>
<!-- Sub2&#45;&gt;Rev3 -->
<g id="edge6" class="edge">
<title>Sub2&#45;&gt;Rev3</title>
<path fill="none" stroke="#4caf50" stroke-width="1.5" d="M327.56,-23.06C340.15,-17.76 353.79,-13 367,-10.25 422.8,1.36 439.17,-0.04 495.25,-10.25 500.48,-11.2 505.81,-12.45 511.12,-13.91"/>
<polygon fill="#4caf50" stroke="#4caf50" stroke-width="1.5" points="509.92,-17.2 520.5,-16.73 511.93,-10.5 509.92,-17.2"/>
<text text-anchor="middle" x="431.12" y="-34.5" font-family="Helvetica,sans-Serif" font-size="10.00" fill="#4caf50"> cap = 1</text>
<text text-anchor="middle" x="431.12" y="-23.25" font-family="Helvetica,sans-Serif" font-size="10.00" fill="#4caf50">Mode 1,2,3: Primary=Primary</text>
<text text-anchor="middle" x="431.12" y="-12" font-family="Helvetica,sans-Serif" font-size="10.00" fill="#4caf50">(DB = DB)</text>
</g>
<!-- Rev1&#45;&gt;Sink -->
<g id="edge7" class="edge">
<title>Rev1&#45;&gt;Sink</title>
<path fill="none" stroke="#388e3c" stroke-width="2" d="M643.79,-166.16C682.06,-154.05 730.91,-138.59 765.46,-127.66"/>
<polygon fill="#388e3c" stroke="#388e3c" stroke-width="2" points="766.14,-131.12 774.62,-124.76 764.03,-124.44 766.14,-131.12"/>
<text text-anchor="middle" x="716.12" y="-157.61" font-family="Helvetica,sans-Serif" font-size="10.00" fill="#388e3c"> cap = MaxReviews</text>
</g>
<!-- Rev2&#45;&gt;Sink -->
<g id="edge8" class="edge">
<title>Rev2&#45;&gt;Sink</title>
<path fill="none" stroke="#388e3c" stroke-width="2" d="M636.86,-114C675.85,-114 728.37,-114 765.03,-114"/>
<polygon fill="#388e3c" stroke="#388e3c" stroke-width="2" points="764.74,-117.5 774.74,-114 764.74,-110.5 764.74,-117.5"/>
<text text-anchor="middle" x="716.12" y="-115.75" font-family="Helvetica,sans-Serif" font-size="10.00" fill="#388e3c"> cap = MaxReviews</text>
</g>
<!-- Rev3&#45;&gt;Sink -->
<g id="edge9" class="edge">
<title>Rev3&#45;&gt;Sink</title>
<path fill="none" stroke="#388e3c" stroke-width="2" d="M643.79,-61.84C682.06,-73.95 730.91,-89.41 765.46,-100.34"/>
<polygon fill="#388e3c" stroke="#388e3c" stroke-width="2" points="764.03,-103.56 774.62,-103.24 766.14,-96.88 764.03,-103.56"/>
<text text-anchor="middle" x="716.12" y="-98.59" font-family="Helvetica,sans-Serif" font-size="10.00" fill="#388e3c"> cap = MaxReviews</text>
</g>
</g>
</svg>
