<?xml version="1.0" encoding="UTF-8" standalone="no"?>
<!DOCTYPE svg PUBLIC "-//W3C//DTD SVG 1.1//EN"
 "http://www.w3.org/Graphics/SVG/1.1/DTD/svg11.dtd">
<!-- Generated by graphviz version 12.2.1 (0)
 -->
<!-- Title: MaxFlowReviewAssignment Pages: 1 -->
<svg width="803pt" height="306pt"
 viewBox="0.00 0.00 802.73 306.00" xmlns="http://www.w3.org/2000/svg" xmlns:xlink="http://www.w3.org/1999/xlink">
<g id="graph0" class="graph" transform="scale(1 1) rotate(0) translate(4 302)">
<title>MaxFlowReviewAssignment</title>
<g id="clust1" class="cluster">
<title>cluster_submissions</title>
<polygon fill="none" stroke="#1976d2" stroke-dasharray="5,2" points="260.73,-66 260.73,-256 419.23,-256 419.23,-66 260.73,-66"/>
<text text-anchor="middle" x="339.98" y="-238.7" font-family="Helvetica,sans-Serif" font-weight="bold" font-size="14.00" fill="#1976d2">Submissions (Papers)</text>
</g>
<g id="clust2" class="cluster">
<title>cluster_reviewers</title>
<polygon fill="none" stroke="#388e3c" stroke-dasharray="5,2" points="475.23,-8 475.23,-290 615.73,-290 615.73,-8 475.23,-8"/>
<text text-anchor="middle" x="545.48" y="-272.7" font-family="Helvetica,sans-Serif" font-weight="bold" font-size="14.00" fill="#388e3c">Reviewers (People)</text>
</g>
<!-- Source -->
<g id="node1" class="node">
<title>Source</title>
<polygon fill="#ffcc80" stroke="#333333" points="73.99,-167 0,-149 73.99,-131 147.98,-149 73.99,-167"/>
<polyline fill="none" stroke="#333333" points="11.66,-151.84 11.66,-146.16"/>
<polyline fill="none" stroke="#333333" points="62.33,-133.84 85.65,-133.84"/>
<polyline fill="none" stroke="#333333" points="136.32,-146.16 136.32,-151.84"/>
<polyline fill="none" stroke="#333333" points="85.65,-164.16 62.33,-164.16"/>
<text text-anchor="middle" x="73.99" y="-143.2" font-family="Helvetica,sans-Serif" font-size="14.00">Source (S)</text>
</g>
<!-- Sub1 -->
<g id="node3" class="node">
<title>Sub1</title>
<ellipse fill="white" stroke="#333333" cx="339.48" cy="-192" rx="33.31" ry="33.31"/>
<text text-anchor="middle" x="339.48" y="-186.2" font-family="Helvetica,sans-Serif" font-size="14.00">Sub 1</text>
</g>
<!-- Source&#45;&gt;Sub1 -->
<g id="edge1" class="edge">
<title>Source&#45;&gt;Sub1</title>
<path fill="none" stroke="#1976d2" stroke-width="2" d="M119.69,-156.29C168.24,-164.22 245.35,-176.8 293.87,-184.72"/>
<polygon fill="#1976d2" stroke="#1976d2" stroke-width="2" points="293.03,-188.13 303.46,-186.28 294.16,-181.22 293.03,-188.13"/>
<text text-anchor="middle" x="208.36" y="-189.86" font-family="Helvetica,sans-Serif" font-size="10.00" fill="#1976d2"> cap = MinReviews</text>
<text text-anchor="middle" x="208.36" y="-178.61" font-family="Helvetica,sans-Serif" font-size="10.00" fill="#1976d2"> (e.g., 2)</text>
</g>
<!-- Sub2 -->
<g id="node4" class="node">
<title>Sub2</title>
<ellipse fill="white" stroke="#333333" cx="339.48" cy="-107" rx="33.31" ry="33.31"/>
<text text-anchor="middle" x="339.48" y="-101.2" font-family="Helvetica,sans-Serif" font-size="14.00">Sub 2</text>
</g>
<!-- Source&#45;&gt;Sub2 -->
<g id="edge2" class="edge">
<title>Source&#45;&gt;Sub2</title>
<path fill="none" stroke="#1976d2" stroke-width="2" d="M120.29,-141.78C168.71,-134.06 245.02,-121.9 293.37,-114.19"/>
<polygon fill="#1976d2" stroke="#1976d2" stroke-width="2" points="293.9,-117.65 303.23,-112.62 292.8,-110.74 293.9,-117.65"/>
<text text-anchor="middle" x="208.36" y="-147.22" font-family="Helvetica,sans-Serif" font-size="10.00" fill="#1976d2"> cap = MinReviews</text>
<text text-anchor="middle" x="208.36" y="-135.97" font-family="Helvetica,sans-Serif" font-size="10.00" fill="#1976d2"> (e.g., 2)</text>
</g>
<!-- Sink -->
<g id="node2" class="node">
<title>Sink</title>
<polygon fill="#80cbc4" stroke="#333333" points="794.73,-169.62 731.48,-169.62 731.48,-106.38 794.73,-106.38 794.73,-169.62"/>
<polyline fill="none" stroke="#333333" points="743.48,-169.62 731.48,-157.62"/>
<polyline fill="none" stroke="#333333" points="731.48,-118.38 743.48,-106.38"/>
<polyline fill="none" stroke="#333333" points="782.73,-106.38 794.73,-118.38"/>
<polyline fill="none" stroke="#333333" points="794.73,-157.62 782.73,-169.62"/>
<text text-anchor="middle" x="763.11" y="-132.2" font-family="Helvetica,sans-Serif" font-size="14.00">Sink (T)</text>
</g>
<!-- Rev1 -->
<g id="node5" class="node">
<title>Rev1</title>
<ellipse fill="white" stroke="#333333" cx="544.98" cy="-225" rx="34.28" ry="34.28"/>
<text text-anchor="middle" x="544.98" y="-219.2" font-family="Helvetica,sans-Serif" font-size="14.00">Rev A</text>
</g>
<!-- Sub1&#45;&gt;Rev1 -->
<g id="edge3" class="edge">
<title>Sub1&#45;&gt;Rev1</title>
<path fill="none" stroke="#555555" d="M372.73,-197.23C406.96,-202.78 461.29,-211.59 499.56,-217.8"/>
<polygon fill="#555555" stroke="#555555" points="498.95,-221.24 509.38,-219.39 500.07,-214.33 498.95,-221.24"/>
<text text-anchor="middle" x="447.23" y="-224.46" font-family="Helvetica,sans-Serif" font-size="10.00"> cap = 1</text>
<text text-anchor="middle" x="447.23" y="-213.21" font-family="Helvetica,sans-Serif" font-size="10.00"> (Match)</text>
</g>
<!-- Rev2 -->
<g id="node6" class="node">
<title>Rev2</title>
<ellipse fill="white" stroke="#333333" cx="544.98" cy="-138" rx="34.28" ry="34.28"/>
<text text-anchor="middle" x="544.98" y="-132.2" font-family="Helvetica,sans-Serif" font-size="14.00">Rev B</text>
</g>
<!-- Sub1&#45;&gt;Rev2 -->
<g id="edge4" class="edge">
<title>Sub1&#45;&gt;Rev2</title>
<path fill="none" stroke="#555555" d="M371.84,-183.68C406.34,-174.53 462.02,-159.75 500.67,-149.49"/>
<polygon fill="#555555" stroke="#555555" points="501.36,-152.93 510.13,-146.98 499.56,-146.17 501.36,-152.93"/>
<text text-anchor="middle" x="447.23" y="-181.23" font-family="Helvetica,sans-Serif" font-size="10.00"> cap = 1</text>
<text text-anchor="middle" x="447.23" y="-169.98" font-family="Helvetica,sans-Serif" font-size="10.00"> (Match)</text>
</g>
<!-- Sub2&#45;&gt;Rev2 -->
<g id="edge5" class="edge">
<title>Sub2&#45;&gt;Rev2</title>
<path fill="none" stroke="#555555" d="M372.73,-111.91C406.96,-117.13 461.29,-125.4 499.56,-131.23"/>
<polygon fill="#555555" stroke="#555555" points="498.97,-134.68 509.38,-132.73 500.02,-127.76 498.97,-134.68"/>
<text text-anchor="middle" x="447.23" y="-138.28" font-family="Helvetica,sans-Serif" font-size="10.00"> cap = 1</text>
<text text-anchor="middle" x="447.23" y="-127.03" font-family="Helvetica,sans-Serif" font-size="10.00"> (Match)</text>
</g>
<!-- Rev3 -->
<g id="node7" class="node">
<title>Rev3</title>
<ellipse fill="white" stroke="#333333" cx="544.98" cy="-51" rx="34.77" ry="34.77"/>
<text text-anchor="middle" x="544.98" y="-45.2" font-family="Helvetica,sans-Serif" font-size="14.00">Rev C</text>
</g>
<!-- Sub2&#45;&gt;Rev3 -->
<g id="edge6" class="edge">
<title>Sub2&#45;&gt;Rev3</title>
<path fill="none" stroke="#555555" d="M371.84,-98.37C406.13,-88.93 461.36,-73.74 499.99,-63.11"/>
<polygon fill="#555555" stroke="#555555" points="500.74,-66.53 509.45,-60.5 498.88,-59.78 500.74,-66.53"/>
<text text-anchor="middle" x="447.23" y="-95.35" font-family="Helvetica,sans-Serif" font-size="10.00"> cap = 1</text>
<text text-anchor="middle" x="447.23" y="-84.1" font-family="Helvetica,sans-Serif" font-size="10.00"> (Match)</text>
</g>
<!-- Rev1&#45;&gt;Sink -->
<g id="edge7" class="edge">
<title>Rev1&#45;&gt;Sink</title>
<path fill="none" stroke="#388e3c" stroke-width="2" d="M578.08,-215.23C612.26,-204.42 667.62,-185.78 713.48,-165 715.48,-164.1 717.5,-163.14 719.53,-162.15"/>
<polygon fill="#388e3c" stroke="#388e3c" stroke-width="2" points="721.12,-165.27 728.41,-157.58 717.92,-159.04 721.12,-165.27"/>
<text text-anchor="middle" x="669.61" y="-211.71" font-family="Helvetica,sans-Serif" font-size="10.00" fill="#388e3c"> cap = MaxReviews</text>
<text text-anchor="middle" x="669.61" y="-200.46" font-family="Helvetica,sans-Serif" font-size="10.00" fill="#388e3c"> (e.g., 3)</text>
</g>
<!-- Rev2&#45;&gt;Sink -->
<g id="edge8" class="edge">
<title>Rev2&#45;&gt;Sink</title>
<path fill="none" stroke="#388e3c" stroke-width="2" d="M579.75,-138C617.06,-138 677.26,-138 718.21,-138"/>
<polygon fill="#388e3c" stroke="#388e3c" stroke-width="2" points="718,-141.5 728,-138 718,-134.5 718,-141.5"/>
<text text-anchor="middle" x="669.61" y="-151" font-family="Helvetica,sans-Serif" font-size="10.00" fill="#388e3c"> cap = MaxReviews</text>
<text text-anchor="middle" x="669.61" y="-139.75" font-family="Helvetica,sans-Serif" font-size="10.00" fill="#388e3c"> (e.g., 3)</text>
</g>
<!-- Rev3&#45;&gt;Sink -->
<g id="edge9" class="edge">
<title>Rev3&#45;&gt;Sink</title>
<path fill="none" stroke="#388e3c" stroke-width="2" d="M578.67,-61.17C612.86,-72.18 667.81,-90.95 713.48,-111.5 715.47,-112.39 717.49,-113.34 719.52,-114.32"/>
<polygon fill="#388e3c" stroke="#388e3c" stroke-width="2" points="717.87,-117.41 728.38,-118.81 721.04,-111.16 717.87,-117.41"/>
<text text-anchor="middle" x="669.61" y="-124.5" font-family="Helvetica,sans-Serif" font-size="10.00" fill="#388e3c"> cap = MaxReviews</text>
<text text-anchor="middle" x="669.61" y="-113.25" font-family="Helvetica,sans-Serif" font-size="10.00" fill="#388e3c"> (e.g., 3)</text>
</g>
</g>
</svg>
