<?xml version="1.0" encoding="UTF-8" standalone="no"?>
<!DOCTYPE svg PUBLIC "-//W3C//DTD SVG 1.1//EN"
 "http://www.w3.org/Graphics/SVG/1.1/DTD/svg11.dtd">
<!-- Generated by graphviz version 12.2.1 (0)
 -->
<!-- Title: T22_Example Pages: 1 -->
<svg width="408pt" height="178pt"
 viewBox="0.00 0.00 407.75 178.38" xmlns="http://www.w3.org/2000/svg" xmlns:xlink="http://www.w3.org/1999/xlink">
<g id="graph0" class="graph" transform="scale(1 1) rotate(0) translate(4 174.38)">
<title>T22_Example</title>
<polygon fill="white" stroke="none" points="-4,4 -4,-174.38 403.75,-174.38 403.75,4 -4,4"/>
<!-- SOURCE -->
<g id="node1" class="node">
<title>SOURCE</title>
<polygon fill="#ffcc80" stroke="black" points="74.5,-79.62 0,-79.62 0,-43.62 74.5,-43.62 74.5,-79.62"/>
<text text-anchor="middle" x="37.25" y="-56.2" font-family="Helvetica,sans-Serif" font-size="14.00">SOURCE</text>
</g>
<!-- SUB#1\nTopic: 1 -->
<g id="node3" class="node">
<title>SUB#1\nTopic: 1</title>
<polygon fill="#bbdefb" stroke="black" points="185.75,-112.38 123.25,-112.38 123.25,-72.88 185.75,-72.88 185.75,-112.38"/>
<text text-anchor="middle" x="154.5" y="-95.08" font-family="Helvetica,sans-Serif" font-size="14.00">SUB#1</text>
<text text-anchor="middle" x="154.5" y="-79.33" font-family="Helvetica,sans-Serif" font-size="14.00">Topic: 1</text>
</g>
<!-- SOURCE&#45;&gt;SUB#1\nTopic: 1 -->
<g id="edge1" class="edge">
<title>SOURCE&#45;&gt;SUB#1\nTopic: 1</title>
<path fill="none" stroke="#1976d2" stroke-width="2" d="M74.72,-71.43C86.15,-74.51 98.86,-77.93 110.69,-81.11"/>
<polygon fill="#1976d2" stroke="#1976d2" stroke-width="2" points="109.58,-84.44 120.15,-83.65 111.4,-77.68 109.58,-84.44"/>
<text text-anchor="middle" x="98.88" y="-80.93" font-family="Helvetica,sans-Serif" font-size="9.00">1/1</text>
</g>
<!-- SUB#2\nTopic: 2 -->
<g id="node4" class="node">
<title>SUB#2\nTopic: 2</title>
<polygon fill="#bbdefb" stroke="black" points="185.75,-52.38 123.25,-52.38 123.25,-12.88 185.75,-12.88 185.75,-52.38"/>
<text text-anchor="middle" x="154.5" y="-35.08" font-family="Helvetica,sans-Serif" font-size="14.00">SUB#2</text>
<text text-anchor="middle" x="154.5" y="-19.32" font-family="Helvetica,sans-Serif" font-size="14.00">Topic: 2</text>
</g>
<!-- SOURCE&#45;&gt;SUB#2\nTopic: 2 -->
<g id="edge2" class="edge">
<title>SOURCE&#45;&gt;SUB#2\nTopic: 2</title>
<path fill="none" stroke="#1976d2" stroke-width="2" d="M74.72,-52.45C86.15,-49.57 98.86,-46.37 110.69,-43.4"/>
<polygon fill="#1976d2" stroke="#1976d2" stroke-width="2" points="111.29,-46.86 120.13,-41.02 109.58,-40.07 111.29,-46.86"/>
<text text-anchor="middle" x="98.88" y="-49.08" font-family="Helvetica,sans-Serif" font-size="9.00">1/1</text>
</g>
<!-- SINK -->
<g id="node2" class="node">
<title>SINK</title>
<polygon fill="#80cbc4" stroke="black" points="399.75,-110.62 345.75,-110.62 345.75,-74.62 399.75,-74.62 399.75,-110.62"/>
<text text-anchor="middle" x="372.75" y="-87.2" font-family="Helvetica,sans-Serif" font-size="14.00">SINK</text>
</g>
<!-- REV#1\nTopic: 1 -->
<g id="node5" class="node">
<title>REV#1\nTopic: 1</title>
<polygon fill="#c8e6c9" stroke="black" points="297,-170.38 234.5,-170.38 234.5,-130.88 297,-130.88 297,-170.38"/>
<text text-anchor="middle" x="265.75" y="-153.07" font-family="Helvetica,sans-Serif" font-size="14.00">REV#1</text>
<text text-anchor="middle" x="265.75" y="-137.32" font-family="Helvetica,sans-Serif" font-size="14.00">Topic: 1</text>
</g>
<!-- SUB#1\nTopic: 1&#45;&gt;REV#1\nTopic: 1 -->
<g id="edge3" class="edge">
<title>SUB#1\nTopic: 1&#45;&gt;REV#1\nTopic: 1</title>
<path fill="none" stroke="blue" stroke-width="2" d="M186.22,-108.94C197.61,-114.98 210.71,-121.94 222.92,-128.42"/>
<polygon fill="blue" stroke="blue" stroke-width="2" points="221.11,-131.42 231.58,-133.02 224.39,-125.24 221.11,-131.42"/>
<text text-anchor="middle" x="210.12" y="-125.31" font-family="Helvetica,sans-Serif" font-size="9.00">1/1</text>
</g>
<!-- REV#2\nTopic: 1 -->
<g id="node6" class="node">
<title>REV#2\nTopic: 1</title>
<polygon fill="#c8e6c9" stroke="black" points="297,-112.38 234.5,-112.38 234.5,-72.88 297,-72.88 297,-112.38"/>
<text text-anchor="middle" x="265.75" y="-95.08" font-family="Helvetica,sans-Serif" font-size="14.00">REV#2</text>
<text text-anchor="middle" x="265.75" y="-79.33" font-family="Helvetica,sans-Serif" font-size="14.00">Topic: 1</text>
</g>
<!-- SUB#1\nTopic: 1&#45;&gt;REV#2\nTopic: 1 -->
<g id="edge5" class="edge">
<title>SUB#1\nTopic: 1&#45;&gt;REV#2\nTopic: 1</title>
<path fill="none" stroke="gray" stroke-dasharray="5,2" d="M186.22,-92.62C197.61,-92.62 210.71,-92.62 222.92,-92.62"/>
<polygon fill="gray" stroke="gray" points="222.74,-96.13 232.74,-92.63 222.74,-89.13 222.74,-96.13"/>
<text text-anchor="middle" x="210.12" y="-94.58" font-family="Helvetica,sans-Serif" font-size="9.00">0/1</text>
</g>
<!-- REV#3\nTopic: 2\nRISKY! -->
<g id="node7" class="node">
<title>REV#3\nTopic: 2\nRISKY!</title>
<polygon fill="#ffcdd2" stroke="#d32f2f" stroke-width="2" points="297,-55.25 234.5,-55.25 234.5,0 297,0 297,-55.25"/>
<text text-anchor="middle" x="265.75" y="-37.95" font-family="Helvetica,sans-Serif" font-size="14.00">REV#3</text>
<text text-anchor="middle" x="265.75" y="-22.2" font-family="Helvetica,sans-Serif" font-size="14.00">Topic: 2</text>
<text text-anchor="middle" x="265.75" y="-6.45" font-family="Helvetica,sans-Serif" font-size="14.00">RISKY!</text>
</g>
<!-- SUB#2\nTopic: 2&#45;&gt;REV#3\nTopic: 2\nRISKY! -->
<g id="edge4" class="edge">
<title>SUB#2\nTopic: 2&#45;&gt;REV#3\nTopic: 2\nRISKY!</title>
<path fill="none" stroke="blue" stroke-width="2" d="M186.22,-31.22C197.04,-30.72 209.43,-30.16 221.11,-29.62"/>
<polygon fill="blue" stroke="blue" stroke-width="2" points="221.03,-33.13 230.86,-29.18 220.71,-26.14 221.03,-33.13"/>
<text text-anchor="middle" x="210.12" y="-32.22" font-family="Helvetica,sans-Serif" font-size="9.00">1/1</text>
</g>
<!-- REV#1\nTopic: 1&#45;&gt;SINK -->
<g id="edge6" class="edge">
<title>REV#1\nTopic: 1&#45;&gt;SINK</title>
<path fill="none" stroke="#388e3c" stroke-width="2" d="M297.4,-133.69C308.96,-127.31 322.24,-119.97 334.35,-113.28"/>
<polygon fill="#388e3c" stroke="#388e3c" stroke-width="2" points="335.8,-116.48 342.86,-108.59 332.41,-110.36 335.8,-116.48"/>
<text text-anchor="middle" x="321.38" y="-125.31" font-family="Helvetica,sans-Serif" font-size="9.00">1/2</text>
</g>
<!-- REV#2\nTopic: 1&#45;&gt;SINK -->
<g id="edge7" class="edge">
<title>REV#2\nTopic: 1&#45;&gt;SINK</title>
<path fill="none" stroke="gray" stroke-dasharray="5,2" d="M297.4,-92.62C308.96,-92.62 322.24,-92.62 334.35,-92.62"/>
<polygon fill="gray" stroke="gray" points="333.99,-96.13 343.99,-92.63 333.99,-89.13 333.99,-96.13"/>
<text text-anchor="middle" x="321.38" y="-94.58" font-family="Helvetica,sans-Serif" font-size="9.00">0/2</text>
</g>
<!-- REV#3\nTopic: 2\nRISKY!&#45;&gt;SINK -->
<g id="edge8" class="edge">
<title>REV#3\nTopic: 2\nRISKY!&#45;&gt;SINK</title>
<path fill="none" stroke="#388e3c" stroke-width="2" d="M297.97,-46.95C309.42,-54.04 322.5,-62.14 334.43,-69.53"/>
<polygon fill="#388e3c" stroke="#388e3c" stroke-width="2" points="332.52,-72.45 342.86,-74.74 336.2,-66.5 332.52,-72.45"/>
<text text-anchor="middle" x="321.38" y="-65.97" font-family="Helvetica,sans-Serif" font-size="9.00">1/2</text>
</g>
</g>
</svg>
