<?xml version="1.0" encoding="UTF-8" standalone="no"?>
<!DOCTYPE svg PUBLIC "-//W3C//DTD SVG 1.1//EN"
 "http://www.w3.org/Graphics/SVG/1.1/DTD/svg11.dtd">
<!-- Generated by graphviz version 12.2.1 (0)
 -->
<!-- Title: T23_Baseline Pages: 1 -->
<svg width="411pt" height="222pt"
 viewBox="0.00 0.00 410.75 221.50" xmlns="http://www.w3.org/2000/svg" xmlns:xlink="http://www.w3.org/1999/xlink">
<g id="graph0" class="graph" transform="scale(1 1) rotate(0) translate(4 217.5)">
<title>T23_Baseline</title>
<!-- SOURCE -->
<g id="node1" class="node">
<title>SOURCE</title>
<polygon fill="#ffcc80" stroke="black" points="74.5,-135.75 0,-135.75 0,-99.75 74.5,-99.75 74.5,-135.75"/>
<text text-anchor="middle" x="37.25" y="-112.33" font-family="Helvetica,sans-Serif" font-size="14.00">SOURCE</text>
</g>
<!-- SUB#1\nTopic: A -->
<g id="node3" class="node">
<title>SUB#1\nTopic: A</title>
<polygon fill="#bbdefb" stroke="black" points="187.25,-137.5 123.25,-137.5 123.25,-98 187.25,-98 187.25,-137.5"/>
<text text-anchor="middle" x="155.25" y="-120.2" font-family="Helvetica,sans-Serif" font-size="14.00">SUB#1</text>
<text text-anchor="middle" x="155.25" y="-104.45" font-family="Helvetica,sans-Serif" font-size="14.00">Topic: A</text>
</g>
<!-- SOURCE&#45;&gt;SUB#1\nTopic: A -->
<g id="edge1" class="edge">
<title>SOURCE&#45;&gt;SUB#1\nTopic: A</title>
<path fill="none" stroke="#1976d2" stroke-width="2" d="M74.95,-117.75C86.14,-117.75 98.56,-117.75 110.18,-117.75"/>
<polygon fill="#1976d2" stroke="#1976d2" stroke-width="2" points="109.83,-121.25 119.83,-117.75 109.83,-114.25 109.83,-121.25"/>
<text text-anchor="middle" x="98.88" y="-119.7" font-family="Helvetica,sans-Serif" font-size="9.00">2/2</text>
</g>
<!-- SUB#2\nTopic: B -->
<g id="node4" class="node">
<title>SUB#2\nTopic: B</title>
<polygon fill="#bbdefb" stroke="black" points="187.25,-79.5 123.25,-79.5 123.25,-40 187.25,-40 187.25,-79.5"/>
<text text-anchor="middle" x="155.25" y="-62.2" font-family="Helvetica,sans-Serif" font-size="14.00">SUB#2</text>
<text text-anchor="middle" x="155.25" y="-46.45" font-family="Helvetica,sans-Serif" font-size="14.00">Topic: B</text>
</g>
<!-- SOURCE&#45;&gt;SUB#2\nTopic: B -->
<g id="edge2" class="edge">
<title>SOURCE&#45;&gt;SUB#2\nTopic: B</title>
<path fill="none" stroke="#1976d2" stroke-width="2" d="M74.95,-99.4C86.5,-93.62 99.36,-87.19 111.3,-81.22"/>
<polygon fill="#1976d2" stroke="#1976d2" stroke-width="2" points="112.77,-84.4 120.15,-76.8 109.64,-78.14 112.77,-84.4"/>
<text text-anchor="middle" x="98.88" y="-92.44" font-family="Helvetica,sans-Serif" font-size="9.00">2/2</text>
</g>
<!-- SUB#3\nTopic: A -->
<g id="node5" class="node">
<title>SUB#3\nTopic: A</title>
<polygon fill="#bbdefb" stroke="black" points="187.25,-195.5 123.25,-195.5 123.25,-156 187.25,-156 187.25,-195.5"/>
<text text-anchor="middle" x="155.25" y="-178.2" font-family="Helvetica,sans-Serif" font-size="14.00">SUB#3</text>
<text text-anchor="middle" x="155.25" y="-162.45" font-family="Helvetica,sans-Serif" font-size="14.00">Topic: A</text>
</g>
<!-- SOURCE&#45;&gt;SUB#3\nTopic: A -->
<g id="edge3" class="edge">
<title>SOURCE&#45;&gt;SUB#3\nTopic: A</title>
<path fill="none" stroke="#1976d2" stroke-width="2" d="M74.95,-136.1C86.5,-141.88 99.36,-148.31 111.3,-154.28"/>
<polygon fill="#1976d2" stroke="#1976d2" stroke-width="2" points="109.64,-157.36 120.15,-158.7 112.77,-151.1 109.64,-157.36"/>
<text text-anchor="middle" x="98.88" y="-152.17" font-family="Helvetica,sans-Serif" font-size="9.00">2/2</text>
</g>
<!-- SINK -->
<g id="node2" class="node">
<title>SINK</title>
<polygon fill="#80cbc4" stroke="black" points="402.75,-118.75 348.75,-118.75 348.75,-82.75 402.75,-82.75 402.75,-118.75"/>
<text text-anchor="middle" x="375.75" y="-95.33" font-family="Helvetica,sans-Serif" font-size="14.00">SINK</text>
</g>
<!-- REV#1\nTopic: A -->
<g id="node6" class="node">
<title>REV#1\nTopic: A</title>
<polygon fill="#c8e6c9" stroke="black" points="300,-213.5 236,-213.5 236,-174 300,-174 300,-213.5"/>
<text text-anchor="middle" x="268" y="-196.2" font-family="Helvetica,sans-Serif" font-size="14.00">REV#1</text>
<text text-anchor="middle" x="268" y="-180.45" font-family="Helvetica,sans-Serif" font-size="14.00">Topic: A</text>
</g>
<!-- SUB#1\nTopic: A&#45;&gt;REV#1\nTopic: A -->
<g id="edge4" class="edge">
<title>SUB#1\nTopic: A&#45;&gt;REV#1\nTopic: A</title>
<path fill="none" stroke="blue" stroke-width="2" d="M187.56,-125.22C197.91,-128.67 209.05,-133.54 218,-140.25 226.7,-146.77 227.24,-152.12 236.22,-163.85"/>
<polygon fill="blue" stroke="blue" stroke-width="2" points="233.41,-165.95 242.54,-171.32 238.76,-161.43 233.41,-165.95"/>
<text text-anchor="middle" x="211.62" y="-142.2" font-family="Helvetica,sans-Serif" font-size="9.00">1/1</text>
</g>
<!-- REV#2\nTopic: A -->
<g id="node7" class="node">
<title>REV#2\nTopic: A</title>
<polygon fill="#c8e6c9" stroke="black" points="300,-155.5 236,-155.5 236,-116 300,-116 300,-155.5"/>
<text text-anchor="middle" x="268" y="-138.2" font-family="Helvetica,sans-Serif" font-size="14.00">REV#2</text>
<text text-anchor="middle" x="268" y="-122.45" font-family="Helvetica,sans-Serif" font-size="14.00">Topic: A</text>
</g>
<!-- SUB#1\nTopic: A&#45;&gt;REV#2\nTopic: A -->
<g id="edge5" class="edge">
<title>SUB#1\nTopic: A&#45;&gt;REV#2\nTopic: A</title>
<path fill="none" stroke="blue" stroke-width="2" d="M187.55,-104.01C197.36,-101.4 208.19,-100.29 218,-103.25 222.62,-104.64 227.21,-106.63 231.61,-108.94"/>
<polygon fill="blue" stroke="blue" stroke-width="2" points="229.79,-111.93 240.16,-114.09 233.4,-105.93 229.79,-111.93"/>
<text text-anchor="middle" x="211.62" y="-105.2" font-family="Helvetica,sans-Serif" font-size="9.00">1/1</text>
</g>
<!-- REV#3\nTopic: B -->
<g id="node8" class="node">
<title>REV#3\nTopic: B</title>
<polygon fill="#c8e6c9" stroke="black" points="300,-97.5 236,-97.5 236,-58 300,-58 300,-97.5"/>
<text text-anchor="middle" x="268" y="-80.2" font-family="Helvetica,sans-Serif" font-size="14.00">REV#3</text>
<text text-anchor="middle" x="268" y="-64.45" font-family="Helvetica,sans-Serif" font-size="14.00">Topic: B</text>
</g>
<!-- SUB#2\nTopic: B&#45;&gt;REV#3\nTopic: B -->
<g id="edge8" class="edge">
<title>SUB#2\nTopic: B&#45;&gt;REV#3\nTopic: B</title>
<path fill="none" stroke="blue" stroke-width="2" d="M187.69,-64.86C198.77,-66.66 211.44,-68.72 223.35,-70.66"/>
<polygon fill="blue" stroke="blue" stroke-width="2" points="222.44,-74.05 232.88,-72.2 223.57,-67.14 222.44,-74.05"/>
<text text-anchor="middle" x="211.62" y="-71.24" font-family="Helvetica,sans-Serif" font-size="9.00">1/1</text>
</g>
<!-- REV#4\nTopic: B -->
<g id="node9" class="node">
<title>REV#4\nTopic: B</title>
<polygon fill="#c8e6c9" stroke="black" points="300,-39.5 236,-39.5 236,0 300,0 300,-39.5"/>
<text text-anchor="middle" x="268" y="-22.2" font-family="Helvetica,sans-Serif" font-size="14.00">REV#4</text>
<text text-anchor="middle" x="268" y="-6.45" font-family="Helvetica,sans-Serif" font-size="14.00">Topic: B</text>
</g>
<!-- SUB#2\nTopic: B&#45;&gt;REV#4\nTopic: B -->
<g id="edge9" class="edge">
<title>SUB#2\nTopic: B&#45;&gt;REV#4\nTopic: B</title>
<path fill="none" stroke="blue" stroke-width="2" d="M187.69,-48.39C198.89,-44.35 211.71,-39.72 223.73,-35.38"/>
<polygon fill="blue" stroke="blue" stroke-width="2" points="224.8,-38.71 233.02,-32.02 222.42,-32.13 224.8,-38.71"/>
<text text-anchor="middle" x="211.62" y="-42.9" font-family="Helvetica,sans-Serif" font-size="9.00">1/1</text>
</g>
<!-- SUB#3\nTopic: A&#45;&gt;REV#1\nTopic: A -->
<g id="edge6" class="edge">
<title>SUB#3\nTopic: A&#45;&gt;REV#1\nTopic: A</title>
<path fill="none" stroke="gray" stroke-dasharray="5,2" d="M187.69,-180.86C199.25,-182.74 212.52,-184.9 224.87,-186.9"/>
<polygon fill="gray" stroke="gray" points="223.94,-190.3 234.37,-188.45 225.06,-183.39 223.94,-190.3"/>
<text text-anchor="middle" x="211.62" y="-187.24" font-family="Helvetica,sans-Serif" font-size="9.00">0/1</text>
</g>
<!-- SUB#3\nTopic: A&#45;&gt;REV#2\nTopic: A -->
<g id="edge7" class="edge">
<title>SUB#3\nTopic: A&#45;&gt;REV#2\nTopic: A</title>
<path fill="none" stroke="gray" stroke-dasharray="5,2" d="M187.69,-164.39C199.36,-160.18 212.79,-155.33 225.24,-150.83"/>
<polygon fill="gray" stroke="gray" points="226.22,-154.2 234.44,-147.51 223.85,-147.61 226.22,-154.2"/>
<text text-anchor="middle" x="211.62" y="-158.9" font-family="Helvetica,sans-Serif" font-size="9.00">0/1</text>
</g>
<!-- REV#1\nTopic: A&#45;&gt;SINK -->
<g id="edge10" class="edge">
<title>REV#1\nTopic: A&#45;&gt;SINK</title>
<path fill="none" stroke="#388e3c" stroke-width="2" d="M291.95,-173.57C307.38,-159.99 327.9,-141.96 344.64,-127.23"/>
<polygon fill="#388e3c" stroke="#388e3c" stroke-width="2" points="346.53,-130.23 351.73,-121 341.91,-124.97 346.53,-130.23"/>
<text text-anchor="middle" x="324.38" y="-151.99" font-family="Helvetica,sans-Serif" font-size="9.00">1/2</text>
</g>
<!-- REV#2\nTopic: A&#45;&gt;SINK -->
<g id="edge11" class="edge">
<title>REV#2\nTopic: A&#45;&gt;SINK</title>
<path fill="none" stroke="#388e3c" stroke-width="2" d="M300.44,-125.34C311.71,-121.61 324.54,-117.37 336.33,-113.47"/>
<polygon fill="#388e3c" stroke="#388e3c" stroke-width="2" points="337.33,-116.82 345.72,-110.36 335.13,-110.18 337.33,-116.82"/>
<text text-anchor="middle" x="324.38" y="-121.25" font-family="Helvetica,sans-Serif" font-size="9.00">1/2</text>
</g>
<!-- REV#3\nTopic: B&#45;&gt;SINK -->
<g id="edge12" class="edge">
<title>REV#3\nTopic: B&#45;&gt;SINK</title>
<path fill="none" stroke="#388e3c" stroke-width="2" d="M300.44,-84.59C311.59,-87.01 324.27,-89.77 335.95,-92.31"/>
<polygon fill="#388e3c" stroke="#388e3c" stroke-width="2" points="335.12,-95.71 345.64,-94.42 336.61,-88.87 335.12,-95.71"/>
<text text-anchor="middle" x="324.38" y="-92.58" font-family="Helvetica,sans-Serif" font-size="9.00">1/2</text>
</g>
<!-- REV#4\nTopic: B&#45;&gt;SINK -->
<g id="edge13" class="edge">
<title>REV#4\nTopic: B&#45;&gt;SINK</title>
<path fill="none" stroke="#388e3c" stroke-width="2" d="M295.41,-39.98C309.1,-50.46 325.97,-63.39 340.63,-74.62"/>
<polygon fill="#388e3c" stroke="#388e3c" stroke-width="2" points="338.37,-77.29 348.44,-80.59 342.63,-71.74 338.37,-77.29"/>
<text text-anchor="middle" x="324.38" y="-67.05" font-family="Helvetica,sans-Serif" font-size="9.00">1/2</text>
</g>
</g>
</svg>
