<?xml version="1.0" encoding="UTF-8" standalone="no"?>
<!DOCTYPE svg PUBLIC "-//W3C//DTD SVG 1.1//EN"
 "http://www.w3.org/Graphics/SVG/1.1/DTD/svg11.dtd">
<!-- Generated by graphviz version 12.2.1 (0)
 -->
<!-- Title: T23_Remove_Rev1_Rev2 Pages: 1 -->
<svg width="422pt" height="250pt"
 viewBox="0.00 0.00 422.00 249.50" xmlns="http://www.w3.org/2000/svg" xmlns:xlink="http://www.w3.org/1999/xlink">
<g id="graph0" class="graph" transform="scale(1 1) rotate(0) translate(4 245.5)">
<title>T23_Remove_Rev1_Rev2</title>
<text text-anchor="middle" x="207" y="-21.1" font-family="Times,serif" font-size="12.00" fill="#d32f2f">K=2: Remove {Rev1, Rev2} &#45;&gt; Flow=1 &lt; 3 &#45;&gt; CRITICAL</text>
<text text-anchor="middle" x="207" y="-6.85" font-family="Times,serif" font-size="12.00" fill="#d32f2f">(Sub1 and Sub3 have no matching reviewers)</text>
<!-- SOURCE -->
<g id="node1" class="node">
<title>SOURCE</title>
<polygon fill="#ffcc80" stroke="black" points="80.12,-129.5 5.62,-129.5 5.62,-93.5 80.12,-93.5 80.12,-129.5"/>
<text text-anchor="middle" x="42.88" y="-105.7" font-family="Helvetica,sans-Serif" font-size="14.00">SOURCE</text>
</g>
<!-- SUB#1\nTopic: A -->
<g id="node3" class="node">
<title>SUB#1\nTopic: A</title>
<polygon fill="#bbdefb" stroke="black" points="198.5,-186.5 134.5,-186.5 134.5,-148.5 198.5,-148.5 198.5,-186.5"/>
<text text-anchor="middle" x="166.5" y="-169.2" font-family="Helvetica,sans-Serif" font-size="14.00">SUB#1</text>
<text text-anchor="middle" x="166.5" y="-154.2" font-family="Helvetica,sans-Serif" font-size="14.00">Topic: A</text>
</g>
<!-- SOURCE&#45;&gt;SUB#1\nTopic: A -->
<g id="edge1" class="edge">
<title>SOURCE&#45;&gt;SUB#1\nTopic: A</title>
<path fill="none" stroke="gray" stroke-dasharray="5,2" d="M80.37,-128.3C94.08,-134.62 109.78,-141.84 123.92,-148.36"/>
<polygon fill="gray" stroke="gray" points="122.46,-151.53 133,-152.54 125.38,-145.18 122.46,-151.53"/>
<text text-anchor="middle" x="110.12" y="-145.72" font-family="Helvetica,sans-Serif" font-size="9.00">0/1</text>
</g>
<!-- SUB#2\nTopic: B -->
<g id="node4" class="node">
<title>SUB#2\nTopic: B</title>
<polygon fill="#bbdefb" stroke="black" points="198.5,-130.5 134.5,-130.5 134.5,-92.5 198.5,-92.5 198.5,-130.5"/>
<text text-anchor="middle" x="166.5" y="-113.2" font-family="Helvetica,sans-Serif" font-size="14.00">SUB#2</text>
<text text-anchor="middle" x="166.5" y="-98.2" font-family="Helvetica,sans-Serif" font-size="14.00">Topic: B</text>
</g>
<!-- SOURCE&#45;&gt;SUB#2\nTopic: B -->
<g id="edge2" class="edge">
<title>SOURCE&#45;&gt;SUB#2\nTopic: B</title>
<path fill="none" stroke="#1976d2" stroke-width="2" d="M80.37,-111.5C93.28,-111.5 107.94,-111.5 121.41,-111.5"/>
<polygon fill="#1976d2" stroke="#1976d2" stroke-width="2" points="121.35,-115 131.35,-111.5 121.35,-108 121.35,-115"/>
<text text-anchor="middle" x="110.12" y="-112.7" font-family="Helvetica,sans-Serif" font-size="9.00">1/1</text>
</g>
<!-- SUB#3\nTopic: A -->
<g id="node5" class="node">
<title>SUB#3\nTopic: A</title>
<polygon fill="#bbdefb" stroke="black" points="198.5,-74.5 134.5,-74.5 134.5,-36.5 198.5,-36.5 198.5,-74.5"/>
<text text-anchor="middle" x="166.5" y="-57.2" font-family="Helvetica,sans-Serif" font-size="14.00">SUB#3</text>
<text text-anchor="middle" x="166.5" y="-42.2" font-family="Helvetica,sans-Serif" font-size="14.00">Topic: A</text>
</g>
<!-- SOURCE&#45;&gt;SUB#3\nTopic: A -->
<g id="edge3" class="edge">
<title>SOURCE&#45;&gt;SUB#3\nTopic: A</title>
<path fill="none" stroke="gray" stroke-dasharray="5,2" d="M80.37,-94.7C94.08,-88.38 109.78,-81.16 123.92,-74.64"/>
<polygon fill="gray" stroke="gray" points="125.38,-77.82 133,-70.46 122.46,-71.47 125.38,-77.82"/>
<text text-anchor="middle" x="110.12" y="-84.7" font-family="Helvetica,sans-Serif" font-size="9.00">0/1</text>
</g>
<!-- SINK -->
<g id="node2" class="node">
<title>SINK</title>
<polygon fill="#80cbc4" stroke="black" points="414,-125.5 360,-125.5 360,-89.5 414,-89.5 414,-125.5"/>
<text text-anchor="middle" x="387" y="-101.7" font-family="Helvetica,sans-Serif" font-size="14.00">SINK</text>
</g>
<!-- REV#3\nTopic: B -->
<g id="node8" class="node">
<title>REV#3\nTopic: B</title>
<polygon fill="#c8e6c9" stroke="black" points="311.25,-155.5 247.25,-155.5 247.25,-117.5 311.25,-117.5 311.25,-155.5"/>
<text text-anchor="middle" x="279.25" y="-138.2" font-family="Helvetica,sans-Serif" font-size="14.00">REV#3</text>
<text text-anchor="middle" x="279.25" y="-123.2" font-family="Helvetica,sans-Serif" font-size="14.00">Topic: B</text>
</g>
<!-- SUB#2\nTopic: B&#45;&gt;REV#3\nTopic: B -->
<g id="edge4" class="edge">
<title>SUB#2\nTopic: B&#45;&gt;REV#3\nTopic: B</title>
<path fill="none" stroke="blue" stroke-width="2" d="M198.94,-118.6C210.02,-121.1 222.69,-123.96 234.6,-126.65"/>
<polygon fill="blue" stroke="blue" stroke-width="2" points="233.64,-130.02 244.16,-128.81 235.18,-123.19 233.64,-130.02"/>
<text text-anchor="middle" x="222.88" y="-125.95" font-family="Helvetica,sans-Serif" font-size="9.00">1/1</text>
</g>
<!-- REV#4\nTopic: B -->
<g id="node9" class="node">
<title>REV#4\nTopic: B</title>
<polygon fill="#c8e6c9" stroke="black" points="311.25,-99.5 247.25,-99.5 247.25,-61.5 311.25,-61.5 311.25,-99.5"/>
<text text-anchor="middle" x="279.25" y="-82.2" font-family="Helvetica,sans-Serif" font-size="14.00">REV#4</text>
<text text-anchor="middle" x="279.25" y="-67.2" font-family="Helvetica,sans-Serif" font-size="14.00">Topic: B</text>
</g>
<!-- SUB#2\nTopic: B&#45;&gt;REV#4\nTopic: B -->
<g id="edge5" class="edge">
<title>SUB#2\nTopic: B&#45;&gt;REV#4\nTopic: B</title>
<path fill="none" stroke="gray" stroke-dasharray="5,2" d="M198.94,-102.7C210.5,-99.47 223.77,-95.75 236.12,-92.29"/>
<polygon fill="gray" stroke="gray" points="236.97,-95.69 245.66,-89.62 235.08,-88.95 236.97,-95.69"/>
<text text-anchor="middle" x="222.88" y="-98.13" font-family="Helvetica,sans-Serif" font-size="9.00">0/1</text>
</g>
<!-- REV#1\nREMOVED -->
<g id="node6" class="node">
<title>REV#1\nREMOVED</title>
<polygon fill="none" stroke="#d32f2f" stroke-dasharray="5,2" points="85.75,-185.5 0,-185.5 0,-147.5 85.75,-147.5 85.75,-185.5"/>
<text text-anchor="middle" x="42.88" y="-168.2" font-family="Helvetica,sans-Serif" font-size="14.00">REV#1</text>
<text text-anchor="middle" x="42.88" y="-153.2" font-family="Helvetica,sans-Serif" font-size="14.00">REMOVED</text>
</g>
<!-- REV#2\nREMOVED -->
<g id="node7" class="node">
<title>REV#2\nREMOVED</title>
<polygon fill="none" stroke="#d32f2f" stroke-dasharray="5,2" points="85.75,-241.5 0,-241.5 0,-203.5 85.75,-203.5 85.75,-241.5"/>
<text text-anchor="middle" x="42.88" y="-224.2" font-family="Helvetica,sans-Serif" font-size="14.00">REV#2</text>
<text text-anchor="middle" x="42.88" y="-209.2" font-family="Helvetica,sans-Serif" font-size="14.00">REMOVED</text>
</g>
<!-- REV#3\nTopic: B&#45;&gt;SINK -->
<g id="edge6" class="edge">
<title>REV#3\nTopic: B&#45;&gt;SINK</title>
<path fill="none" stroke="#388e3c" stroke-width="2" d="M311.69,-127.88C322.96,-124.79 335.79,-121.27 347.58,-118.04"/>
<polygon fill="#388e3c" stroke="#388e3c" stroke-width="2" points="348.21,-121.49 356.93,-115.47 346.36,-114.74 348.21,-121.49"/>
<text text-anchor="middle" x="335.62" y="-124.07" font-family="Helvetica,sans-Serif" font-size="9.00">1/2</text>
</g>
<!-- REV#4\nTopic: B&#45;&gt;SINK -->
<g id="edge7" class="edge">
<title>REV#4\nTopic: B&#45;&gt;SINK</title>
<path fill="none" stroke="gray" stroke-dasharray="5,2" d="M311.69,-88.53C323.32,-91.5 336.61,-94.89 348.71,-97.98"/>
<polygon fill="gray" stroke="gray" points="347.82,-101.36 358.38,-100.45 349.55,-94.58 347.82,-101.36"/>
<text text-anchor="middle" x="335.62" y="-96.82" font-family="Helvetica,sans-Serif" font-size="9.00">0/2</text>
</g>
</g>
</svg>
