<?xml version="1.0" encoding="UTF-8" standalone="no"?>
<!DOCTYPE svg PUBLIC "-//W3C//DTD SVG 1.1//EN"
 "http://www.w3.org/Graphics/SVG/1.1/DTD/svg11.dtd">
<!-- Generated by graphviz version 12.2.1 (0)
 -->
<!-- Title: MaxFlow Pages: 1 -->
<svg width="403pt" height="367pt"
 viewBox="0.00 0.00 403.25 367.08" xmlns="http://www.w3.org/2000/svg" xmlns:xlink="http://www.w3.org/1999/xlink">
<g id="graph0" class="graph" transform="scale(1 1) rotate(0) translate(4 363.08)">
<title>MaxFlow</title>
<!-- SOURCE -->
<g id="node1" class="node">
<title>SOURCE</title>
<polygon fill="white" stroke="black" points="69.25,-172.82 0,-172.82 0,-136.82 69.25,-136.82 69.25,-172.82"/>
<text text-anchor="middle" x="34.62" y="-149.77" font-family="Times,serif" font-size="14.00">SOURCE</text>
</g>
<!-- SUB#1 -->
<g id="node2" class="node">
<title>SUB#1</title>
<polygon fill="white" stroke="black" points="178.25,-339.82 122.5,-339.82 122.5,-303.82 178.25,-303.82 178.25,-339.82"/>
<text text-anchor="middle" x="150.38" y="-316.77" font-family="Times,serif" font-size="14.00">SUB#1</text>
</g>
<!-- SOURCE&#45;&gt;SUB#1 -->
<g id="edge1" class="edge">
<title>SOURCE&#45;&gt;SUB#1</title>
<path fill="none" stroke="blue" stroke-width="2" d="M48.01,-173.01C67.71,-201.92 106.31,-258.6 129.78,-293.06"/>
<polygon fill="blue" stroke="blue" stroke-width="2" points="126.6,-294.61 135.12,-300.9 132.39,-290.66 126.6,-294.61"/>
<text text-anchor="middle" x="95.88" y="-256.48" font-family="Times,serif" font-size="14.00">2/2</text>
</g>
<!-- SUB#2 -->
<g id="node3" class="node">
<title>SUB#2</title>
<polygon fill="white" stroke="black" points="178.25,-219.82 122.5,-219.82 122.5,-183.82 178.25,-183.82 178.25,-219.82"/>
<text text-anchor="middle" x="150.38" y="-196.77" font-family="Times,serif" font-size="14.00">SUB#2</text>
</g>
<!-- SOURCE&#45;&gt;SUB#2 -->
<g id="edge2" class="edge">
<title>SOURCE&#45;&gt;SUB#2</title>
<path fill="none" stroke="blue" stroke-width="2" d="M69.45,-168.8C82.38,-174.14 97.23,-180.28 110.6,-185.8"/>
<polygon fill="blue" stroke="blue" stroke-width="2" points="108.98,-188.92 119.56,-189.5 111.65,-182.45 108.98,-188.92"/>
<text text-anchor="middle" x="95.88" y="-185.73" font-family="Times,serif" font-size="14.00">2/2</text>
</g>
<!-- SUB#3 -->
<g id="node4" class="node">
<title>SUB#3</title>
<polygon fill="white" stroke="black" points="178.25,-92.82 122.5,-92.82 122.5,-56.82 178.25,-56.82 178.25,-92.82"/>
<text text-anchor="middle" x="150.38" y="-69.77" font-family="Times,serif" font-size="14.00">SUB#3</text>
</g>
<!-- SOURCE&#45;&gt;SUB#3 -->
<g id="edge3" class="edge">
<title>SOURCE&#45;&gt;SUB#3</title>
<path fill="none" stroke="blue" stroke-width="2" d="M61.72,-136.47C76.89,-125.8 96.25,-112.19 112.91,-100.47"/>
<polygon fill="blue" stroke="blue" stroke-width="2" points="114.76,-103.45 120.92,-94.83 110.73,-97.72 114.76,-103.45"/>
<text text-anchor="middle" x="95.88" y="-120.42" font-family="Times,serif" font-size="14.00">2/2</text>
</g>
<!-- SUB#4 -->
<g id="node5" class="node">
<title>SUB#4</title>
<polygon fill="white" stroke="black" points="178.25,-146.82 122.5,-146.82 122.5,-110.82 178.25,-110.82 178.25,-146.82"/>
<text text-anchor="middle" x="150.38" y="-123.77" font-family="Times,serif" font-size="14.00">SUB#4</text>
</g>
<!-- SOURCE&#45;&gt;SUB#4 -->
<g id="edge4" class="edge">
<title>SOURCE&#45;&gt;SUB#4</title>
<path fill="none" stroke="blue" stroke-width="2" d="M69.45,-147.09C82.12,-144.2 96.63,-140.88 109.78,-137.87"/>
<polygon fill="blue" stroke="blue" stroke-width="2" points="110.43,-141.31 119.4,-135.67 108.87,-134.49 110.43,-141.31"/>
<text text-anchor="middle" x="95.88" y="-145.8" font-family="Times,serif" font-size="14.00">2/2</text>
</g>
<!-- REV#1 -->
<g id="node6" class="node">
<title>REV#1</title>
<polygon fill="white" stroke="black" points="288,-306.82 231.5,-306.82 231.5,-270.82 288,-270.82 288,-306.82"/>
<text text-anchor="middle" x="259.75" y="-283.77" font-family="Times,serif" font-size="14.00">REV#1</text>
</g>
<!-- SUB#1&#45;&gt;REV#1 -->
<g id="edge5" class="edge">
<title>SUB#1&#45;&gt;REV#1</title>
<path fill="none" stroke="blue" stroke-width="2" d="M178.57,-337.9C189.65,-342.37 202.44,-344.8 213.5,-339.82 224.21,-335.01 233.41,-326.27 240.67,-317.37"/>
<polygon fill="blue" stroke="blue" stroke-width="2" points="243.35,-319.63 246.47,-309.51 237.72,-315.48 243.35,-319.63"/>
<text text-anchor="middle" x="204.88" y="-345.78" font-family="Times,serif" font-size="14.00">1/1</text>
</g>
<!-- REV#2 -->
<g id="node7" class="node">
<title>REV#2</title>
<polygon fill="white" stroke="black" points="288,-252.82 231.5,-252.82 231.5,-216.82 288,-216.82 288,-252.82"/>
<text text-anchor="middle" x="259.75" y="-229.77" font-family="Times,serif" font-size="14.00">REV#2</text>
</g>
<!-- SUB#1&#45;&gt;REV#2 -->
<g id="edge6" class="edge">
<title>SUB#1&#45;&gt;REV#2</title>
<path fill="none" stroke="blue" stroke-width="2" d="M178.58,-317.09C190.44,-313.88 203.82,-308.56 213.5,-299.82 225.1,-289.35 222.34,-280.49 231.52,-263.94"/>
<polygon fill="blue" stroke="blue" stroke-width="2" points="234.32,-266.07 236.85,-255.78 228.46,-262.24 234.32,-266.07"/>
<text text-anchor="middle" x="204.88" y="-313.63" font-family="Times,serif" font-size="14.00">1/1</text>
</g>
<!-- SUB#2&#45;&gt;REV#1 -->
<g id="edge7" class="edge">
<title>SUB#2&#45;&gt;REV#1</title>
<path fill="none" stroke="blue" stroke-width="2" d="M169.14,-220.04C177.16,-227.95 186.92,-237.14 196.25,-244.82 203.87,-251.1 212.34,-257.44 220.52,-263.28"/>
<polygon fill="blue" stroke="blue" stroke-width="2" points="218.34,-266.03 228.54,-268.89 222.35,-260.29 218.34,-266.03"/>
<text text-anchor="middle" x="204.88" y="-260.89" font-family="Times,serif" font-size="14.00">1/1</text>
</g>
<!-- SUB#2&#45;&gt;REV#2 -->
<g id="edge8" class="edge">
<title>SUB#2&#45;&gt;REV#2</title>
<path fill="none" stroke="blue" stroke-width="2" d="M178.67,-213.51C184.42,-215.76 190.49,-217.99 196.25,-219.82 203.38,-222.1 211.07,-224.21 218.53,-226.09"/>
<polygon fill="blue" stroke="blue" stroke-width="2" points="217.65,-229.47 228.19,-228.4 219.28,-222.67 217.65,-229.47"/>
<text text-anchor="middle" x="204.88" y="-227.91" font-family="Times,serif" font-size="14.00">1/1</text>
</g>
<!-- REV#3 -->
<g id="node8" class="node">
<title>REV#3</title>
<polygon fill="white" stroke="black" points="288,-80.82 231.5,-80.82 231.5,-44.82 288,-44.82 288,-80.82"/>
<text text-anchor="middle" x="259.75" y="-57.77" font-family="Times,serif" font-size="14.00">REV#3</text>
</g>
<!-- SUB#2&#45;&gt;REV#3 -->
<g id="edge9" class="edge">
<title>SUB#2&#45;&gt;REV#3</title>
<path fill="none" stroke="black" d="M171.09,-183.52C186.68,-168.81 206.86,-149.13 213.5,-139.82 224.12,-124.94 222.33,-118.64 231.5,-102.82 233.87,-98.73 236.52,-94.51 239.2,-90.41"/>
<polygon fill="black" stroke="black" points="241.89,-92.69 244.57,-82.44 236.08,-88.77 241.89,-92.69"/>
<text text-anchor="middle" x="204.88" y="-161.8" font-family="Times,serif" font-size="14.00">0/1</text>
</g>
<!-- REV#4 -->
<g id="node9" class="node">
<title>REV#4</title>
<polygon fill="white" stroke="black" points="288,-147.82 231.5,-147.82 231.5,-111.82 288,-111.82 288,-147.82"/>
<text text-anchor="middle" x="259.75" y="-124.77" font-family="Times,serif" font-size="14.00">REV#4</text>
</g>
<!-- SUB#2&#45;&gt;REV#4 -->
<g id="edge10" class="edge">
<title>SUB#2&#45;&gt;REV#4</title>
<path fill="none" stroke="black" d="M178.73,-195.33C190.08,-191.85 203.03,-186.8 213.5,-179.82 222.8,-173.63 231.46,-165.1 238.66,-156.84"/>
<polygon fill="black" stroke="black" points="241.23,-159.21 244.9,-149.27 235.83,-154.76 241.23,-159.21"/>
<text text-anchor="middle" x="204.88" y="-191.55" font-family="Times,serif" font-size="14.00">0/1</text>
</g>
<!-- SUB#3&#45;&gt;REV#3 -->
<g id="edge11" class="edge">
<title>SUB#3&#45;&gt;REV#3</title>
<path fill="none" stroke="blue" stroke-width="2" d="M157.16,-56.34C163.64,-39.14 175.99,-14.53 196.25,-3.32 215.32,7.22 232.9,-13.42 244.52,-33.22"/>
<polygon fill="blue" stroke="blue" stroke-width="2" points="241.36,-34.74 249.2,-41.87 247.52,-31.41 241.36,-34.74"/>
<text text-anchor="middle" x="204.88" y="-6.52" font-family="Times,serif" font-size="14.00">1/1</text>
</g>
<!-- SUB#3&#45;&gt;REV#4 -->
<g id="edge12" class="edge">
<title>SUB#3&#45;&gt;REV#4</title>
<path fill="none" stroke="blue" stroke-width="2" d="M178.64,-85.99C189.63,-90.72 202.31,-96.48 213.5,-102.32 215.7,-103.47 217.94,-104.69 220.19,-105.94"/>
<polygon fill="blue" stroke="blue" stroke-width="2" points="218.29,-108.88 228.7,-110.86 221.79,-102.82 218.29,-108.88"/>
<text text-anchor="middle" x="204.88" y="-105.52" font-family="Times,serif" font-size="14.00">1/1</text>
</g>
<!-- SUB#4&#45;&gt;REV#3 -->
<g id="edge13" class="edge">
<title>SUB#4&#45;&gt;REV#3</title>
<path fill="none" stroke="blue" stroke-width="2" d="M170.73,-110.44C173.36,-107.64 175.94,-104.72 178.25,-101.82 187.59,-90.11 183.78,-81.62 196.25,-73.32 202.76,-68.99 210.48,-66.25 218.23,-64.56"/>
<polygon fill="blue" stroke="blue" stroke-width="2" points="218.75,-68.02 228.11,-63.06 217.69,-61.1 218.75,-68.02"/>
<text text-anchor="middle" x="204.88" y="-76.52" font-family="Times,serif" font-size="14.00">1/1</text>
</g>
<!-- SUB#4&#45;&gt;REV#4 -->
<g id="edge14" class="edge">
<title>SUB#4&#45;&gt;REV#4</title>
<path fill="none" stroke="blue" stroke-width="2" d="M178.38,-124.97C184.26,-124.29 190.45,-123.68 196.25,-123.32 203.9,-122.86 205.85,-122.78 213.5,-123.32 215.1,-123.44 216.74,-123.57 218.38,-123.73"/>
<polygon fill="blue" stroke="blue" stroke-width="2" points="217.71,-127.18 228.05,-124.86 218.52,-120.22 217.71,-127.18"/>
<text text-anchor="middle" x="204.88" y="-126.52" font-family="Times,serif" font-size="14.00">1/1</text>
</g>
<!-- SINK -->
<g id="node10" class="node">
<title>SINK</title>
<polygon fill="white" stroke="black" points="395.25,-182.82 341.25,-182.82 341.25,-146.82 395.25,-146.82 395.25,-182.82"/>
<text text-anchor="middle" x="368.25" y="-159.77" font-family="Times,serif" font-size="14.00">SINK</text>
</g>
<!-- REV#1&#45;&gt;SINK -->
<g id="edge15" class="edge">
<title>REV#1&#45;&gt;SINK</title>
<path fill="none" stroke="blue" stroke-width="2" d="M279.29,-270.59C282.22,-267.68 285.2,-264.68 288,-261.82 303.9,-245.61 308.67,-242.24 323.25,-224.82 331.53,-214.93 340.05,-203.62 347.36,-193.51"/>
<polygon fill="blue" stroke="blue" stroke-width="2" points="350.04,-195.78 352.99,-185.6 344.34,-191.72 350.04,-195.78"/>
<text text-anchor="middle" x="314.62" y="-246.97" font-family="Times,serif" font-size="14.00">2/2</text>
</g>
<!-- REV#2&#45;&gt;SINK -->
<g id="edge16" class="edge">
<title>REV#2&#45;&gt;SINK</title>
<path fill="none" stroke="blue" stroke-width="2" d="M288.45,-216.61C301.2,-208.24 316.49,-198.18 330.21,-189.17"/>
<polygon fill="blue" stroke="blue" stroke-width="2" points="331.82,-192.3 338.26,-183.88 327.98,-186.45 331.82,-192.3"/>
<text text-anchor="middle" x="314.62" y="-207.21" font-family="Times,serif" font-size="14.00">2/2</text>
</g>
<!-- REV#3&#45;&gt;SINK -->
<g id="edge17" class="edge">
<title>REV#3&#45;&gt;SINK</title>
<path fill="none" stroke="blue" stroke-width="2" d="M279.79,-81.06C296.2,-96.77 320.11,-119.68 338.79,-137.57"/>
<polygon fill="blue" stroke="blue" stroke-width="2" points="336.19,-139.92 345.83,-144.31 341.03,-134.86 336.19,-139.92"/>
<text text-anchor="middle" x="314.62" y="-123.13" font-family="Times,serif" font-size="14.00">2/2</text>
</g>
<!-- REV#4&#45;&gt;SINK -->
<g id="edge18" class="edge">
<title>REV#4&#45;&gt;SINK</title>
<path fill="none" stroke="blue" stroke-width="2" d="M288.45,-138.93C300.69,-142.95 315.29,-147.75 328.57,-152.11"/>
<polygon fill="blue" stroke="blue" stroke-width="2" points="327.32,-155.38 337.91,-155.18 329.5,-148.73 327.32,-155.38"/>
<text text-anchor="middle" x="314.62" y="-152.62" font-family="Times,serif" font-size="14.00">2/2</text>
</g>
</g>
</svg>
