<?xml version="1.0" encoding="UTF-8" standalone="no"?>
<!DOCTYPE svg PUBLIC "-//W3C//DTD SVG 1.1//EN"
 "http://www.w3.org/Graphics/SVG/1.1/DTD/svg11.dtd">
<!-- Generated by graphviz version 12.2.1 (0)
 -->
<!-- Title: algorithms/EdmondKarp.h Pages: 1 -->
<svg width="586pt" height="84pt"
 viewBox="0.00 0.00 585.88 84.00" xmlns="http://www.w3.org/2000/svg" xmlns:xlink="http://www.w3.org/1999/xlink">
<g id="graph0" class="graph" transform="scale(1 1) rotate(0) translate(4 80)">
<title>algorithms/EdmondKarp.h</title>
<!-- Node1 -->
<g id="Node000001" class="node">
<title>Node1</title>
<g id="a_Node000001"><a xlink:title="Implementations of the Edmonds&#45;Karp algorithm for calculating maximum flow.">
<polygon fill="#999999" stroke="#666666" points="372.75,-76 244.25,-76 244.25,-56 372.75,-56 372.75,-76"/>
<text text-anchor="middle" x="308.5" y="-62.5" font-family="Helvetica,sans-Serif" font-size="10.00">algorithms/EdmondKarp.h</text>
</a>
</g>
</g>
<!-- Node2 -->
<g id="Node000002" class="node">
<title>Node2</title>
<g id="a_Node000002"><a xlink:href="EdmondKarp_8cpp.html" target="_top" xlink:title=" ">
<polygon fill="white" stroke="#666666" points="139,-20 0,-20 0,0 139,0 139,-20"/>
<text text-anchor="middle" x="69.5" y="-6.5" font-family="Helvetica,sans-Serif" font-size="10.00">algorithms/EdmondKarp.cpp</text>
</a>
</g>
</g>
<!-- Node1&#45;&gt;Node2 -->
<g id="edge1_Node000001_Node000002" class="edge">
<title>Node1&#45;&gt;Node2</title>
<g id="a_edge1_Node000001_Node000002"><a xlink:title=" ">
<path fill="none" stroke="#63b8ff" d="M255.39,-53C211.96,-43.19 151.4,-29.51 111.36,-20.46"/>
<polygon fill="#63b8ff" stroke="#63b8ff" points="254.59,-56.41 265.12,-55.2 256.14,-49.58 254.59,-56.41"/>
</a>
</g>
</g>
<!-- Node3 -->
<g id="Node000003" class="node">
<title>Node3</title>
<g id="a_Node000003"><a xlink:href="AssignmentLogic_8cpp.html" target="_top" xlink:title=" ">
<polygon fill="white" stroke="#666666" points="306.25,-20 156.75,-20 156.75,0 306.25,0 306.25,-20"/>
<text text-anchor="middle" x="231.5" y="-6.5" font-family="Helvetica,sans-Serif" font-size="10.00">services/AssignmentLogic.cpp</text>
</a>
</g>
</g>
<!-- Node1&#45;&gt;Node3 -->
<g id="edge2_Node000001_Node000003" class="edge">
<title>Node1&#45;&gt;Node3</title>
<g id="a_edge2_Node000001_Node000003"><a xlink:title=" ">
<path fill="none" stroke="#63b8ff" d="M285.68,-49C272.45,-39.72 256.24,-28.35 245.02,-20.48"/>
<polygon fill="#63b8ff" stroke="#63b8ff" points="283.65,-51.85 293.85,-54.72 287.67,-46.12 283.65,-51.85"/>
</a>
</g>
</g>
<!-- Node4 -->
<g id="Node000004" class="node">
<title>Node4</title>
<g id="a_Node000004"><a xlink:href="maxflow__tests_8cpp.html" target="_top" xlink:title=" ">
<polygon fill="white" stroke="#666666" points="447.12,-20 323.88,-20 323.88,0 447.12,0 447.12,-20"/>
<text text-anchor="middle" x="385.5" y="-6.5" font-family="Helvetica,sans-Serif" font-size="10.00">tests/maxflow_tests.cpp</text>
</a>
</g>
</g>
<!-- Node1&#45;&gt;Node4 -->
<g id="edge3_Node000001_Node000004" class="edge">
<title>Node1&#45;&gt;Node4</title>
<g id="a_edge3_Node000001_Node000004"><a xlink:title=" ">
<path fill="none" stroke="#63b8ff" d="M331.32,-49C344.55,-39.72 360.76,-28.35 371.98,-20.48"/>
<polygon fill="#63b8ff" stroke="#63b8ff" points="329.33,-46.12 323.15,-54.72 333.35,-51.85 329.33,-46.12"/>
</a>
</g>
</g>
<!-- Node5 -->
<g id="Node000005" class="node">
<title>Node5</title>
<g id="a_Node000005"><a xlink:href="ConferenceApp_8cpp.html" target="_top" xlink:title=" ">
<polygon fill="white" stroke="#666666" points="577.88,-20 465.12,-20 465.12,0 577.88,0 577.88,-20"/>
<text text-anchor="middle" x="521.5" y="-6.5" font-family="Helvetica,sans-Serif" font-size="10.00">ui/ConferenceApp.cpp</text>
</a>
</g>
</g>
<!-- Node1&#45;&gt;Node5 -->
<g id="edge4_Node000001_Node000005" class="edge">
<title>Node1&#45;&gt;Node5</title>
<g id="a_edge4_Node000001_Node000005"><a xlink:title=" ">
<path fill="none" stroke="#63b8ff" d="M356.57,-52.81C395.19,-43.02 448.65,-29.47 484.11,-20.48"/>
<polygon fill="#63b8ff" stroke="#63b8ff" points="355.9,-49.37 347.07,-55.22 357.62,-56.16 355.9,-49.37"/>
</a>
</g>
</g>
</g>
</svg>
