<?xml version="1.0" encoding="UTF-8" standalone="no"?>
<!DOCTYPE svg PUBLIC "-//W3C//DTD SVG 1.1//EN"
 "http://www.w3.org/Graphics/SVG/1.1/DTD/svg11.dtd">
<!-- Generated by graphviz version 12.2.1 (0)
 -->
<!-- Title: algorithms/EdmondKarp.h Pages: 1 -->
<svg width="411pt" height="140pt"
 viewBox="0.00 0.00 410.50 140.00" xmlns="http://www.w3.org/2000/svg" xmlns:xlink="http://www.w3.org/1999/xlink">
<g id="graph0" class="graph" transform="scale(1 1) rotate(0) translate(4 136)">
<title>algorithms/EdmondKarp.h</title>
<!-- Node1 -->
<g id="Node000001" class="node">
<title>Node1</title>
<g id="a_Node000001"><a xlink:title="Implementations of the Edmonds&#45;Karp algorithm for calculating maximum flow.">
<polygon fill="#999999" stroke="#666666" points="304.75,-132 176.25,-132 176.25,-112 304.75,-112 304.75,-132"/>
<text text-anchor="middle" x="240.5" y="-118.5" font-family="Helvetica,sans-Serif" font-size="10.00">algorithms/EdmondKarp.h</text>
</a>
</g>
</g>
<!-- Node2 -->
<g id="Node000002" class="node">
<title>Node2</title>
<g id="a_Node000002"><a xlink:href="Graph_8h.html" target="_top" xlink:title=" ">
<polygon fill="white" stroke="#666666" points="212,-76 91,-76 91,-56 212,-56 212,-76"/>
<text text-anchor="middle" x="151.5" y="-62.5" font-family="Helvetica,sans-Serif" font-size="10.00">data_structures/Graph.h</text>
</a>
</g>
</g>
<!-- Node1&#45;&gt;Node2 -->
<g id="edge1_Node000001_Node000002" class="edge">
<title>Node1&#45;&gt;Node2</title>
<g id="a_edge1_Node000001_Node000002"><a xlink:title=" ">
<path fill="none" stroke="#63b8ff" d="M225,-111.59C211.68,-103.51 192.22,-91.71 176.67,-82.27"/>
<polygon fill="#63b8ff" stroke="#63b8ff" points="178.78,-79.46 168.42,-77.26 175.15,-85.44 178.78,-79.46"/>
</a>
</g>
</g>
<!-- Node4 -->
<g id="Node000004" class="node">
<title>Node4</title>
<g id="a_Node000004"><a xlink:title=" ">
<polygon fill="#e0e0e0" stroke="#999999" points="43,-20 0,-20 0,0 43,0 43,-20"/>
<text text-anchor="middle" x="21.5" y="-6.5" font-family="Helvetica,sans-Serif" font-size="10.00">vector</text>
</a>
</g>
</g>
<!-- Node1&#45;&gt;Node4 -->
<g id="edge8_Node000001_Node000004" class="edge">
<title>Node1&#45;&gt;Node4</title>
<g id="a_edge8_Node000001_Node000004"><a xlink:title=" ">
<path fill="none" stroke="#63b8ff" d="M179.23,-111.56C148.57,-104.9 111.85,-93.88 82.5,-76 62.96,-64.09 45.64,-44.25 34.49,-29.62"/>
<polygon fill="#63b8ff" stroke="#63b8ff" points="37.44,-27.71 28.71,-21.7 31.78,-31.84 37.44,-27.71"/>
</a>
</g>
</g>
<!-- Node5 -->
<g id="Node000005" class="node">
<title>Node5</title>
<g id="a_Node000005"><a xlink:title=" ">
<polygon fill="#e0e0e0" stroke="#999999" points="305.62,-20 263.38,-20 263.38,0 305.62,0 305.62,-20"/>
<text text-anchor="middle" x="284.5" y="-6.5" font-family="Helvetica,sans-Serif" font-size="10.00">queue</text>
</a>
</g>
</g>
<!-- Node1&#45;&gt;Node5 -->
<g id="edge7_Node000001_Node000005" class="edge">
<title>Node1&#45;&gt;Node5</title>
<g id="a_edge7_Node000001_Node000005"><a xlink:title=" ">
<path fill="none" stroke="#63b8ff" d="M242.57,-111.52C245.53,-98.66 251.52,-75.09 259.5,-56 263.19,-47.16 268.18,-37.82 272.73,-29.97"/>
<polygon fill="#63b8ff" stroke="#63b8ff" points="275.58,-32.02 277.72,-21.64 269.57,-28.42 275.58,-32.02"/>
</a>
</g>
</g>
<!-- Node8 -->
<g id="Node000008" class="node">
<title>Node8</title>
<g id="a_Node000008"><a xlink:title=" ">
<polygon fill="#e0e0e0" stroke="#999999" points="326.88,-76 268.12,-76 268.12,-56 326.88,-56 326.88,-76"/>
<text text-anchor="middle" x="297.5" y="-62.5" font-family="Helvetica,sans-Serif" font-size="10.00">stdexcept</text>
</a>
</g>
</g>
<!-- Node1&#45;&gt;Node8 -->
<g id="edge9_Node000001_Node000008" class="edge">
<title>Node1&#45;&gt;Node8</title>
<g id="a_edge9_Node000001_Node000008"><a xlink:title=" ">
<path fill="none" stroke="#63b8ff" d="M250.43,-111.59C258.44,-104.01 269.92,-93.13 279.53,-84.02"/>
<polygon fill="#63b8ff" stroke="#63b8ff" points="281.73,-86.76 286.59,-77.34 276.92,-81.68 281.73,-86.76"/>
</a>
</g>
</g>
<!-- Node9 -->
<g id="Node000009" class="node">
<title>Node9</title>
<g id="a_Node000009"><a xlink:title=" ">
<polygon fill="#e0e0e0" stroke="#999999" points="402.5,-76 344.5,-76 344.5,-56 402.5,-56 402.5,-76"/>
<text text-anchor="middle" x="373.5" y="-62.5" font-family="Helvetica,sans-Serif" font-size="10.00">functional</text>
</a>
</g>
</g>
<!-- Node1&#45;&gt;Node9 -->
<g id="edge10_Node000001_Node000009" class="edge">
<title>Node1&#45;&gt;Node9</title>
<g id="a_edge10_Node000001_Node000009"><a xlink:title=" ">
<path fill="none" stroke="#63b8ff" d="M263.67,-111.59C284.71,-103.05 316,-90.35 339.8,-80.68"/>
<polygon fill="#63b8ff" stroke="#63b8ff" points="340.8,-84.05 348.75,-77.05 338.17,-77.57 340.8,-84.05"/>
</a>
</g>
</g>
<!-- Node3 -->
<g id="Node000003" class="node">
<title>Node3</title>
<g id="a_Node000003"><a xlink:title=" ">
<polygon fill="#e0e0e0" stroke="#999999" points="114.25,-20 60.75,-20 60.75,0 114.25,0 114.25,-20"/>
<text text-anchor="middle" x="87.5" y="-6.5" font-family="Helvetica,sans-Serif" font-size="10.00">iostream</text>
</a>
</g>
</g>
<!-- Node2&#45;&gt;Node3 -->
<g id="edge2_Node000002_Node000003" class="edge">
<title>Node2&#45;&gt;Node3</title>
<g id="a_edge2_Node000002_Node000003"><a xlink:title=" ">
<path fill="none" stroke="#63b8ff" d="M140.35,-55.59C131.17,-47.85 117.95,-36.69 107.02,-27.47"/>
<polygon fill="#63b8ff" stroke="#63b8ff" points="109.58,-25.05 99.68,-21.27 105.06,-30.4 109.58,-25.05"/>
</a>
</g>
</g>
<!-- Node2&#45;&gt;Node4 -->
<g id="edge3_Node000002_Node000004" class="edge">
<title>Node2&#45;&gt;Node4</title>
<g id="a_edge3_Node000002_Node000004"><a xlink:title=" ">
<path fill="none" stroke="#63b8ff" d="M128.86,-55.59C108.13,-46.99 77.23,-34.15 53.9,-24.46"/>
<polygon fill="#63b8ff" stroke="#63b8ff" points="55.43,-21.3 44.85,-20.7 52.74,-27.77 55.43,-21.3"/>
</a>
</g>
</g>
<!-- Node2&#45;&gt;Node5 -->
<g id="edge4_Node000002_Node000005" class="edge">
<title>Node2&#45;&gt;Node5</title>
<g id="a_edge4_Node000002_Node000005"><a xlink:title=" ">
<path fill="none" stroke="#63b8ff" d="M174.67,-55.59C196.22,-46.84 228.54,-33.72 252.54,-23.97"/>
<polygon fill="#63b8ff" stroke="#63b8ff" points="253.57,-27.34 261.52,-20.33 250.93,-20.85 253.57,-27.34"/>
</a>
</g>
</g>
<!-- Node6 -->
<g id="Node000006" class="node">
<title>Node6</title>
<g id="a_Node000006"><a xlink:title=" ">
<polygon fill="#e0e0e0" stroke="#999999" points="171.12,-20 131.88,-20 131.88,0 171.12,0 171.12,-20"/>
<text text-anchor="middle" x="151.5" y="-6.5" font-family="Helvetica,sans-Serif" font-size="10.00">limits</text>
</a>
</g>
</g>
<!-- Node2&#45;&gt;Node6 -->
<g id="edge5_Node000002_Node000006" class="edge">
<title>Node2&#45;&gt;Node6</title>
<g id="a_edge5_Node000002_Node000006"><a xlink:title=" ">
<path fill="none" stroke="#63b8ff" d="M151.5,-55.59C151.5,-49.01 151.5,-39.96 151.5,-31.73"/>
<polygon fill="#63b8ff" stroke="#63b8ff" points="155,-31.81 151.5,-21.81 148,-31.81 155,-31.81"/>
</a>
</g>
</g>
<!-- Node7 -->
<g id="Node000007" class="node">
<title>Node7</title>
<g id="a_Node000007"><a xlink:title=" ">
<polygon fill="#e0e0e0" stroke="#999999" points="245.38,-20 189.62,-20 189.62,0 245.38,0 245.38,-20"/>
<text text-anchor="middle" x="217.5" y="-6.5" font-family="Helvetica,sans-Serif" font-size="10.00">algorithm</text>
</a>
</g>
</g>
<!-- Node2&#45;&gt;Node7 -->
<g id="edge6_Node000002_Node000007" class="edge">
<title>Node2&#45;&gt;Node7</title>
<g id="a_edge6_Node000002_Node000007"><a xlink:title=" ">
<path fill="none" stroke="#63b8ff" d="M163,-55.59C172.46,-47.85 186.1,-36.69 197.37,-27.47"/>
<polygon fill="#63b8ff" stroke="#63b8ff" points="199.44,-30.3 204.96,-21.26 195.01,-24.88 199.44,-30.3"/>
</a>
</g>
</g>
</g>
</svg>
