<?xml version="1.0" encoding="UTF-8" standalone="no"?>
<!DOCTYPE svg PUBLIC "-//W3C//DTD SVG 1.1//EN"
 "http://www.w3.org/Graphics/SVG/1.1/DTD/svg11.dtd">
<!-- Generated by graphviz version 12.2.1 (0)
 -->
<!-- Title: algorithms/EdmondKarp.cpp Pages: 1 -->
<svg width="443pt" height="196pt"
 viewBox="0.00 0.00 443.25 196.00" xmlns="http://www.w3.org/2000/svg" xmlns:xlink="http://www.w3.org/1999/xlink">
<g id="graph0" class="graph" transform="scale(1 1) rotate(0) translate(4 192)">
<title>algorithms/EdmondKarp.cpp</title>
<!-- Node1 -->
<g id="Node000001" class="node">
<title>Node1</title>
<g id="a_Node000001"><a xlink:title=" ">
<polygon fill="#999999" stroke="#666666" points="348.88,-188 209.88,-188 209.88,-168 348.88,-168 348.88,-188"/>
<text text-anchor="middle" x="279.38" y="-174.5" font-family="Helvetica,sans-Serif" font-size="10.00">algorithms/EdmondKarp.cpp</text>
</a>
</g>
</g>
<!-- Node2 -->
<g id="Node000002" class="node">
<title>Node2</title>
<g id="a_Node000002"><a xlink:href="EdmondKarp_8h.html" target="_top" xlink:title="Implementations of the Edmonds&#45;Karp algorithm for calculating maximum flow.">
<polygon fill="white" stroke="#666666" points="245.62,-132 117.12,-132 117.12,-112 245.62,-112 245.62,-132"/>
<text text-anchor="middle" x="181.38" y="-118.5" font-family="Helvetica,sans-Serif" font-size="10.00">algorithms/EdmondKarp.h</text>
</a>
</g>
</g>
<!-- Node1&#45;&gt;Node2 -->
<g id="edge1_Node000001_Node000002" class="edge">
<title>Node1&#45;&gt;Node2</title>
<g id="a_edge1_Node000001_Node000002"><a xlink:title=" ">
<path fill="none" stroke="#63b8ff" d="M262.3,-167.59C247.5,-159.44 225.81,-147.48 208.61,-138"/>
<polygon fill="#63b8ff" stroke="#63b8ff" points="210.35,-134.97 199.9,-133.21 206.97,-141.1 210.35,-134.97"/>
</a>
</g>
</g>
<!-- Node8 -->
<g id="Node000008" class="node">
<title>Node8</title>
<g id="a_Node000008"><a xlink:title=" ">
<polygon fill="#e0e0e0" stroke="#999999" points="435.25,-20 379.5,-20 379.5,0 435.25,0 435.25,-20"/>
<text text-anchor="middle" x="407.38" y="-6.5" font-family="Helvetica,sans-Serif" font-size="10.00">algorithm</text>
</a>
</g>
</g>
<!-- Node1&#45;&gt;Node8 -->
<g id="edge12_Node000001_Node000008" class="edge">
<title>Node1&#45;&gt;Node8</title>
<g id="a_edge12_Node000001_Node000008"><a xlink:title=" ">
<path fill="none" stroke="#63b8ff" d="M286.98,-167.61C301.33,-149.87 333.28,-110.11 359.38,-76 371.33,-60.37 384.59,-42.36 394.14,-29.26"/>
<polygon fill="#63b8ff" stroke="#63b8ff" points="396.7,-31.7 399.75,-21.55 391.04,-27.58 396.7,-31.7"/>
</a>
</g>
</g>
<!-- Node3 -->
<g id="Node000003" class="node">
<title>Node3</title>
<g id="a_Node000003"><a xlink:href="Graph_8h.html" target="_top" xlink:title=" ">
<polygon fill="white" stroke="#666666" points="349.88,-76 228.88,-76 228.88,-56 349.88,-56 349.88,-76"/>
<text text-anchor="middle" x="289.38" y="-62.5" font-family="Helvetica,sans-Serif" font-size="10.00">data_structures/Graph.h</text>
</a>
</g>
</g>
<!-- Node2&#45;&gt;Node3 -->
<g id="edge2_Node000002_Node000003" class="edge">
<title>Node2&#45;&gt;Node3</title>
<g id="a_edge2_Node000002_Node000003"><a xlink:title=" ">
<path fill="none" stroke="#63b8ff" d="M200.19,-111.59C216.73,-103.32 241.09,-91.14 260.17,-81.6"/>
<polygon fill="#63b8ff" stroke="#63b8ff" points="261.68,-84.76 269.06,-77.16 258.55,-78.5 261.68,-84.76"/>
</a>
</g>
</g>
<!-- Node5 -->
<g id="Node000005" class="node">
<title>Node5</title>
<g id="a_Node000005"><a xlink:title=" ">
<polygon fill="#e0e0e0" stroke="#999999" points="171.88,-20 128.88,-20 128.88,0 171.88,0 171.88,-20"/>
<text text-anchor="middle" x="150.38" y="-6.5" font-family="Helvetica,sans-Serif" font-size="10.00">vector</text>
</a>
</g>
</g>
<!-- Node2&#45;&gt;Node5 -->
<g id="edge9_Node000002_Node000005" class="edge">
<title>Node2&#45;&gt;Node5</title>
<g id="a_edge9_Node000002_Node000005"><a xlink:title=" ">
<path fill="none" stroke="#63b8ff" d="M178.73,-111.62C173.74,-93.92 162.84,-55.24 156.1,-31.32"/>
<polygon fill="#63b8ff" stroke="#63b8ff" points="159.5,-30.49 153.42,-21.81 152.77,-32.39 159.5,-30.49"/>
</a>
</g>
</g>
<!-- Node6 -->
<g id="Node000006" class="node">
<title>Node6</title>
<g id="a_Node000006"><a xlink:title=" ">
<polygon fill="#e0e0e0" stroke="#999999" points="232.5,-20 190.25,-20 190.25,0 232.5,0 232.5,-20"/>
<text text-anchor="middle" x="211.38" y="-6.5" font-family="Helvetica,sans-Serif" font-size="10.00">queue</text>
</a>
</g>
</g>
<!-- Node2&#45;&gt;Node6 -->
<g id="edge8_Node000002_Node000006" class="edge">
<title>Node2&#45;&gt;Node6</title>
<g id="a_edge8_Node000002_Node000006"><a xlink:title=" ">
<path fill="none" stroke="#63b8ff" d="M183.93,-111.62C188.76,-93.92 199.31,-55.24 205.83,-31.32"/>
<polygon fill="#63b8ff" stroke="#63b8ff" points="209.17,-32.38 208.43,-21.82 202.42,-30.54 209.17,-32.38"/>
</a>
</g>
</g>
<!-- Node9 -->
<g id="Node000009" class="node">
<title>Node9</title>
<g id="a_Node000009"><a xlink:title=" ">
<polygon fill="#e0e0e0" stroke="#999999" points="58.75,-76 0,-76 0,-56 58.75,-56 58.75,-76"/>
<text text-anchor="middle" x="29.38" y="-62.5" font-family="Helvetica,sans-Serif" font-size="10.00">stdexcept</text>
</a>
</g>
</g>
<!-- Node2&#45;&gt;Node9 -->
<g id="edge10_Node000002_Node000009" class="edge">
<title>Node2&#45;&gt;Node9</title>
<g id="a_edge10_Node000002_Node000009"><a xlink:title=" ">
<path fill="none" stroke="#63b8ff" d="M154.9,-111.59C130.53,-102.94 94.12,-90 66.79,-80.29"/>
<polygon fill="#63b8ff" stroke="#63b8ff" points="68.08,-77.04 57.48,-76.99 65.74,-83.63 68.08,-77.04"/>
</a>
</g>
</g>
<!-- Node10 -->
<g id="Node000010" class="node">
<title>Node10</title>
<g id="a_Node000010"><a xlink:title=" ">
<polygon fill="#e0e0e0" stroke="#999999" points="134.38,-76 76.38,-76 76.38,-56 134.38,-56 134.38,-76"/>
<text text-anchor="middle" x="105.38" y="-62.5" font-family="Helvetica,sans-Serif" font-size="10.00">functional</text>
</a>
</g>
</g>
<!-- Node2&#45;&gt;Node10 -->
<g id="edge11_Node000002_Node000010" class="edge">
<title>Node2&#45;&gt;Node10</title>
<g id="a_edge11_Node000002_Node000010"><a xlink:title=" ">
<path fill="none" stroke="#63b8ff" d="M168.14,-111.59C157.09,-103.74 141.09,-92.38 128.02,-83.09"/>
<polygon fill="#63b8ff" stroke="#63b8ff" points="130.13,-80.3 119.95,-77.36 126.07,-86 130.13,-80.3"/>
</a>
</g>
</g>
<!-- Node4 -->
<g id="Node000004" class="node">
<title>Node4</title>
<g id="a_Node000004"><a xlink:title=" ">
<polygon fill="#e0e0e0" stroke="#999999" points="361.12,-20 307.62,-20 307.62,0 361.12,0 361.12,-20"/>
<text text-anchor="middle" x="334.38" y="-6.5" font-family="Helvetica,sans-Serif" font-size="10.00">iostream</text>
</a>
</g>
</g>
<!-- Node3&#45;&gt;Node4 -->
<g id="edge3_Node000003_Node000004" class="edge">
<title>Node3&#45;&gt;Node4</title>
<g id="a_edge3_Node000003_Node000004"><a xlink:title=" ">
<path fill="none" stroke="#63b8ff" d="M297.21,-55.59C303.34,-48.24 312.05,-37.8 319.49,-28.87"/>
<polygon fill="#63b8ff" stroke="#63b8ff" points="321.94,-31.38 325.66,-21.46 316.57,-26.9 321.94,-31.38"/>
</a>
</g>
</g>
<!-- Node3&#45;&gt;Node5 -->
<g id="edge4_Node000003_Node000005" class="edge">
<title>Node3&#45;&gt;Node5</title>
<g id="a_edge4_Node000003_Node000005"><a xlink:title=" ">
<path fill="none" stroke="#63b8ff" d="M265.16,-55.59C242.26,-46.7 207.74,-33.29 182.54,-23.49"/>
<polygon fill="#63b8ff" stroke="#63b8ff" points="184.03,-20.32 173.44,-19.96 181.49,-26.84 184.03,-20.32"/>
</a>
</g>
</g>
<!-- Node3&#45;&gt;Node6 -->
<g id="edge5_Node000003_Node000006" class="edge">
<title>Node3&#45;&gt;Node6</title>
<g id="a_edge5_Node000003_Node000006"><a xlink:title=" ">
<path fill="none" stroke="#63b8ff" d="M275.79,-55.59C264.34,-47.67 247.71,-36.16 234.22,-26.82"/>
<polygon fill="#63b8ff" stroke="#63b8ff" points="236.53,-24.16 226.31,-21.34 232.54,-29.91 236.53,-24.16"/>
</a>
</g>
</g>
<!-- Node7 -->
<g id="Node000007" class="node">
<title>Node7</title>
<g id="a_Node000007"><a xlink:title=" ">
<polygon fill="#e0e0e0" stroke="#999999" points="290,-20 250.75,-20 250.75,0 290,0 290,-20"/>
<text text-anchor="middle" x="270.38" y="-6.5" font-family="Helvetica,sans-Serif" font-size="10.00">limits</text>
</a>
</g>
</g>
<!-- Node3&#45;&gt;Node7 -->
<g id="edge6_Node000003_Node000007" class="edge">
<title>Node3&#45;&gt;Node7</title>
<g id="a_edge6_Node000003_Node000007"><a xlink:title=" ">
<path fill="none" stroke="#63b8ff" d="M286.07,-55.59C283.7,-48.86 280.41,-39.53 277.47,-31.15"/>
<polygon fill="#63b8ff" stroke="#63b8ff" points="280.77,-30 274.15,-21.73 274.17,-32.32 280.77,-30"/>
</a>
</g>
</g>
<!-- Node3&#45;&gt;Node8 -->
<g id="edge7_Node000003_Node000008" class="edge">
<title>Node3&#45;&gt;Node8</title>
<g id="a_edge7_Node000003_Node000008"><a xlink:title=" ">
<path fill="none" stroke="#63b8ff" d="M309.93,-55.59C328.26,-47.21 355.36,-34.8 376.33,-25.21"/>
<polygon fill="#63b8ff" stroke="#63b8ff" points="377.65,-28.45 385.28,-21.11 374.73,-22.09 377.65,-28.45"/>
</a>
</g>
</g>
</g>
</svg>
