<?xml version="1.0" encoding="UTF-8" standalone="no"?>
<!DOCTYPE svg PUBLIC "-//W3C//DTD SVG 1.1//EN"
 "http://www.w3.org/Graphics/SVG/1.1/DTD/svg11.dtd">
<!-- Generated by graphviz version 12.2.1 (0)
 -->
<!-- Title: io/FileParser.h Pages: 1 -->
<svg width="228pt" height="84pt"
 viewBox="0.00 0.00 227.75 84.00" xmlns="http://www.w3.org/2000/svg" xmlns:xlink="http://www.w3.org/1999/xlink">
<g id="graph0" class="graph" transform="scale(1 1) rotate(0) translate(4 80)">
<title>io/FileParser.h</title>
<!-- Node1 -->
<g id="Node000001" class="node">
<title>Node1</title>
<g id="a_Node000001"><a xlink:title="Class definition for parsing input CSV files.">
<polygon fill="#999999" stroke="#666666" points="142.5,-76 64.25,-76 64.25,-56 142.5,-56 142.5,-76"/>
<text text-anchor="middle" x="103.38" y="-62.5" font-family="Helvetica,sans-Serif" font-size="10.00">io/FileParser.h</text>
</a>
</g>
</g>
<!-- Node2 -->
<g id="Node000002" class="node">
<title>Node2</title>
<g id="a_Node000002"><a xlink:href="FileParser_8cpp.html" target="_top" xlink:title=" ">
<polygon fill="white" stroke="#666666" points="88.75,-20 0,-20 0,0 88.75,0 88.75,-20"/>
<text text-anchor="middle" x="44.38" y="-6.5" font-family="Helvetica,sans-Serif" font-size="10.00">io/FileParser.cpp</text>
</a>
</g>
</g>
<!-- Node1&#45;&gt;Node2 -->
<g id="edge1_Node000001_Node000002" class="edge">
<title>Node1&#45;&gt;Node2</title>
<g id="a_edge1_Node000001_Node000002"><a xlink:title=" ">
<path fill="none" stroke="#63b8ff" d="M84.63,-47.85C74.66,-38.72 62.79,-27.86 54.53,-20.3"/>
<polygon fill="#63b8ff" stroke="#63b8ff" points="82.24,-50.4 91.98,-54.57 86.97,-45.24 82.24,-50.4"/>
</a>
</g>
</g>
<!-- Node3 -->
<g id="Node000003" class="node">
<title>Node3</title>
<g id="a_Node000003"><a xlink:href="ConferenceApp_8cpp.html" target="_top" xlink:title=" ">
<polygon fill="white" stroke="#666666" points="219.75,-20 107,-20 107,0 219.75,0 219.75,-20"/>
<text text-anchor="middle" x="163.38" y="-6.5" font-family="Helvetica,sans-Serif" font-size="10.00">ui/ConferenceApp.cpp</text>
</a>
</g>
</g>
<!-- Node1&#45;&gt;Node3 -->
<g id="edge2_Node000001_Node000003" class="edge">
<title>Node1&#45;&gt;Node3</title>
<g id="a_edge2_Node000001_Node000003"><a xlink:title=" ">
<path fill="none" stroke="#63b8ff" d="M122.12,-48.13C132.33,-38.94 144.56,-27.93 153.04,-20.3"/>
<polygon fill="#63b8ff" stroke="#63b8ff" points="120.04,-45.29 114.95,-54.58 124.73,-50.49 120.04,-45.29"/>
</a>
</g>
</g>
</g>
</svg>
