<?xml version="1.0" encoding="UTF-8" standalone="no"?>
<!DOCTYPE svg PUBLIC "-//W3C//DTD SVG 1.1//EN"
 "http://www.w3.org/Graphics/SVG/1.1/DTD/svg11.dtd">
<!-- Generated by graphviz version 12.2.1 (0)
 -->
<!-- Title: io/FileParser.cpp Pages: 1 -->
<svg width="442pt" height="196pt"
 viewBox="0.00 0.00 441.68 196.00" xmlns="http://www.w3.org/2000/svg" xmlns:xlink="http://www.w3.org/1999/xlink">
<g id="graph0" class="graph" transform="scale(1 1) rotate(0) translate(4 192)">
<title>io/FileParser.cpp</title>
<!-- Node1 -->
<g id="Node000001" class="node">
<title>Node1</title>
<g id="a_Node000001"><a xlink:title=" ">
<polygon fill="#999999" stroke="#666666" points="326.68,-188 237.93,-188 237.93,-168 326.68,-168 326.68,-188"/>
<text text-anchor="middle" x="282.3" y="-174.5" font-family="Helvetica,sans-Serif" font-size="10.00">io/FileParser.cpp</text>
</a>
</g>
</g>
<!-- Node2 -->
<g id="Node000002" class="node">
<title>Node2</title>
<g id="a_Node000002"><a xlink:href="FileParser_8h.html" target="_top" xlink:title="Class definition for parsing input CSV files.">
<polygon fill="white" stroke="#666666" points="170.43,-132 92.18,-132 92.18,-112 170.43,-112 170.43,-132"/>
<text text-anchor="middle" x="131.3" y="-118.5" font-family="Helvetica,sans-Serif" font-size="10.00">io/FileParser.h</text>
</a>
</g>
</g>
<!-- Node1&#45;&gt;Node2 -->
<g id="edge1_Node000001_Node000002" class="edge">
<title>Node1&#45;&gt;Node2</title>
<g id="a_edge1_Node000001_Node000002"><a xlink:title=" ">
<path fill="none" stroke="#63b8ff" d="M256,-167.59C231.79,-158.94 195.63,-146 168.47,-136.29"/>
<polygon fill="#63b8ff" stroke="#63b8ff" points="169.83,-133.06 159.24,-132.99 167.47,-139.65 169.83,-133.06"/>
</a>
</g>
</g>
<!-- Node8 -->
<g id="Node000008" class="node">
<title>Node8</title>
<g id="a_Node000008"><a xlink:title=" ">
<polygon fill="#e0e0e0" stroke="#999999" points="237.8,-132 188.8,-132 188.8,-112 237.8,-112 237.8,-132"/>
<text text-anchor="middle" x="213.3" y="-118.5" font-family="Helvetica,sans-Serif" font-size="10.00">fstream</text>
</a>
</g>
</g>
<!-- Node1&#45;&gt;Node8 -->
<g id="edge10_Node000001_Node000008" class="edge">
<title>Node1&#45;&gt;Node8</title>
<g id="a_edge10_Node000001_Node000008"><a xlink:title=" ">
<path fill="none" stroke="#63b8ff" d="M270.28,-167.59C260.29,-159.77 245.84,-148.46 233.99,-139.19"/>
<polygon fill="#63b8ff" stroke="#63b8ff" points="236.41,-136.64 226.38,-133.23 232.09,-142.15 236.41,-136.64"/>
</a>
</g>
</g>
<!-- Node9 -->
<g id="Node000009" class="node">
<title>Node9</title>
<g id="a_Node000009"><a xlink:title=" ">
<polygon fill="#e0e0e0" stroke="#999999" points="309.05,-132 255.55,-132 255.55,-112 309.05,-112 309.05,-132"/>
<text text-anchor="middle" x="282.3" y="-118.5" font-family="Helvetica,sans-Serif" font-size="10.00">iostream</text>
</a>
</g>
</g>
<!-- Node1&#45;&gt;Node9 -->
<g id="edge11_Node000001_Node000009" class="edge">
<title>Node1&#45;&gt;Node9</title>
<g id="a_edge11_Node000001_Node000009"><a xlink:title=" ">
<path fill="none" stroke="#63b8ff" d="M282.3,-167.59C282.3,-161.01 282.3,-151.96 282.3,-143.73"/>
<polygon fill="#63b8ff" stroke="#63b8ff" points="285.8,-143.81 282.3,-133.81 278.8,-143.81 285.8,-143.81"/>
</a>
</g>
</g>
<!-- Node10 -->
<g id="Node000010" class="node">
<title>Node10</title>
<g id="a_Node000010"><a xlink:title=" ">
<polygon fill="#e0e0e0" stroke="#999999" points="357.05,-132 327.55,-132 327.55,-112 357.05,-112 357.05,-132"/>
<text text-anchor="middle" x="342.3" y="-118.5" font-family="Helvetica,sans-Serif" font-size="10.00">set</text>
</a>
</g>
</g>
<!-- Node1&#45;&gt;Node10 -->
<g id="edge12_Node000001_Node000010" class="edge">
<title>Node1&#45;&gt;Node10</title>
<g id="a_edge12_Node000001_Node000010"><a xlink:title=" ">
<path fill="none" stroke="#63b8ff" d="M292.75,-167.59C301.27,-159.93 313.51,-148.91 323.7,-139.75"/>
<polygon fill="#63b8ff" stroke="#63b8ff" points="325.75,-142.6 330.85,-133.31 321.07,-137.4 325.75,-142.6"/>
</a>
</g>
</g>
<!-- Node11 -->
<g id="Node000011" class="node">
<title>Node11</title>
<g id="a_Node000011"><a xlink:title=" ">
<polygon fill="#e0e0e0" stroke="#999999" points="433.68,-132 374.93,-132 374.93,-112 433.68,-112 433.68,-132"/>
<text text-anchor="middle" x="404.3" y="-118.5" font-family="Helvetica,sans-Serif" font-size="10.00">stdexcept</text>
</a>
</g>
</g>
<!-- Node1&#45;&gt;Node11 -->
<g id="edge13_Node000001_Node000011" class="edge">
<title>Node1&#45;&gt;Node11</title>
<g id="a_edge13_Node000001_Node000011"><a xlink:title=" ">
<path fill="none" stroke="#63b8ff" d="M303.55,-167.59C322.59,-159.17 350.78,-146.69 372.51,-137.07"/>
<polygon fill="#63b8ff" stroke="#63b8ff" points="373.77,-140.34 381.5,-133.09 370.94,-133.94 373.77,-140.34"/>
</a>
</g>
</g>
<!-- Node3 -->
<g id="Node000003" class="node">
<title>Node3</title>
<g id="a_Node000003"><a xlink:title=" ">
<polygon fill="#e0e0e0" stroke="#999999" points="212.3,-20 172.3,-20 172.3,0 212.3,0 212.3,-20"/>
<text text-anchor="middle" x="192.3" y="-6.5" font-family="Helvetica,sans-Serif" font-size="10.00">string</text>
</a>
</g>
</g>
<!-- Node2&#45;&gt;Node3 -->
<g id="edge2_Node000002_Node000003" class="edge">
<title>Node2&#45;&gt;Node3</title>
<g id="a_edge2_Node000002_Node000003"><a xlink:title=" ">
<path fill="none" stroke="#63b8ff" d="M91.75,-115.35C46.04,-107.14 -19.79,-89.16 6.3,-56 25.2,-31.99 112.94,-19.25 160.86,-13.98"/>
<polygon fill="#63b8ff" stroke="#63b8ff" points="161.03,-17.48 170.61,-12.96 160.3,-10.52 161.03,-17.48"/>
</a>
</g>
</g>
<!-- Node4 -->
<g id="Node000004" class="node">
<title>Node4</title>
<g id="a_Node000004"><a xlink:title=" ">
<polygon fill="#e0e0e0" stroke="#999999" points="58.8,-76 15.8,-76 15.8,-56 58.8,-56 58.8,-76"/>
<text text-anchor="middle" x="37.3" y="-62.5" font-family="Helvetica,sans-Serif" font-size="10.00">vector</text>
</a>
</g>
</g>
<!-- Node2&#45;&gt;Node4 -->
<g id="edge3_Node000002_Node000004" class="edge">
<title>Node2&#45;&gt;Node4</title>
<g id="a_edge3_Node000002_Node000004"><a xlink:title=" ">
<path fill="none" stroke="#63b8ff" d="M114.93,-111.59C100.73,-103.44 79.92,-91.48 63.42,-82"/>
<polygon fill="#63b8ff" stroke="#63b8ff" points="65.53,-79.18 55.12,-77.23 62.04,-85.25 65.53,-79.18"/>
</a>
</g>
</g>
<!-- Node5 -->
<g id="Node000005" class="node">
<title>Node5</title>
<g id="a_Node000005"><a xlink:href="Submission_8h.html" target="_top" xlink:title=" ">
<polygon fill="white" stroke="#666666" points="186.18,-76 76.43,-76 76.43,-56 186.18,-56 186.18,-76"/>
<text text-anchor="middle" x="131.3" y="-62.5" font-family="Helvetica,sans-Serif" font-size="10.00">models/Submission.h</text>
</a>
</g>
</g>
<!-- Node2&#45;&gt;Node5 -->
<g id="edge4_Node000002_Node000005" class="edge">
<title>Node2&#45;&gt;Node5</title>
<g id="a_edge4_Node000002_Node000005"><a xlink:title=" ">
<path fill="none" stroke="#63b8ff" d="M131.3,-111.59C131.3,-105.01 131.3,-95.96 131.3,-87.73"/>
<polygon fill="#63b8ff" stroke="#63b8ff" points="134.8,-87.81 131.3,-77.81 127.8,-87.81 134.8,-87.81"/>
</a>
</g>
</g>
<!-- Node6 -->
<g id="Node000006" class="node">
<title>Node6</title>
<g id="a_Node000006"><a xlink:href="Reviewer_8h.html" target="_top" xlink:title=" ">
<polygon fill="white" stroke="#666666" points="303.93,-76 204.68,-76 204.68,-56 303.93,-56 303.93,-76"/>
<text text-anchor="middle" x="254.3" y="-62.5" font-family="Helvetica,sans-Serif" font-size="10.00">models/Reviewer.h</text>
</a>
</g>
</g>
<!-- Node2&#45;&gt;Node6 -->
<g id="edge6_Node000002_Node000006" class="edge">
<title>Node2&#45;&gt;Node6</title>
<g id="a_edge6_Node000002_Node000006"><a xlink:title=" ">
<path fill="none" stroke="#63b8ff" d="M152.73,-111.59C171.92,-103.17 200.34,-90.69 222.24,-81.07"/>
<polygon fill="#63b8ff" stroke="#63b8ff" points="223.58,-84.31 231.32,-77.09 220.76,-77.9 223.58,-84.31"/>
</a>
</g>
</g>
<!-- Node7 -->
<g id="Node000007" class="node">
<title>Node7</title>
<g id="a_Node000007"><a xlink:href="Parameters_8h.html" target="_top" xlink:title=" ">
<polygon fill="white" stroke="#666666" points="430.8,-76 321.8,-76 321.8,-56 430.8,-56 430.8,-76"/>
<text text-anchor="middle" x="376.3" y="-62.5" font-family="Helvetica,sans-Serif" font-size="10.00">models/Parameters.h</text>
</a>
</g>
</g>
<!-- Node2&#45;&gt;Node7 -->
<g id="edge8_Node000002_Node000007" class="edge">
<title>Node2&#45;&gt;Node7</title>
<g id="a_edge8_Node000002_Node000007"><a xlink:title=" ">
<path fill="none" stroke="#63b8ff" d="M170.67,-112.32C211.69,-103.28 276.27,-89.05 322.1,-78.95"/>
<polygon fill="#63b8ff" stroke="#63b8ff" points="322.84,-82.37 331.85,-76.8 321.33,-75.53 322.84,-82.37"/>
</a>
</g>
</g>
<!-- Node5&#45;&gt;Node3 -->
<g id="edge5_Node000005_Node000003" class="edge">
<title>Node5&#45;&gt;Node3</title>
<g id="a_edge5_Node000005_Node000003"><a xlink:title=" ">
<path fill="none" stroke="#63b8ff" d="M141.93,-55.59C150.59,-47.93 163.03,-36.91 173.39,-27.75"/>
<polygon fill="#63b8ff" stroke="#63b8ff" points="175.5,-30.55 180.67,-21.3 170.86,-25.31 175.5,-30.55"/>
</a>
</g>
</g>
<!-- Node6&#45;&gt;Node3 -->
<g id="edge7_Node000006_Node000003" class="edge">
<title>Node6&#45;&gt;Node3</title>
<g id="a_edge7_Node000006_Node000003"><a xlink:title=" ">
<path fill="none" stroke="#63b8ff" d="M243.5,-55.59C234.7,-47.93 222.05,-36.91 211.53,-27.75"/>
<polygon fill="#63b8ff" stroke="#63b8ff" points="213.96,-25.22 204.12,-21.29 209.36,-30.5 213.96,-25.22"/>
</a>
</g>
</g>
<!-- Node7&#45;&gt;Node3 -->
<g id="edge9_Node000007_Node000003" class="edge">
<title>Node7&#45;&gt;Node3</title>
<g id="a_edge9_Node000007_Node000003"><a xlink:title=" ">
<path fill="none" stroke="#63b8ff" d="M344.25,-55.59C310.36,-45.65 257.24,-30.06 223.62,-20.19"/>
<polygon fill="#63b8ff" stroke="#63b8ff" points="224.64,-16.84 214.06,-17.39 222.67,-23.56 224.64,-16.84"/>
</a>
</g>
</g>
</g>
</svg>
