<?xml version="1.0" encoding="UTF-8" standalone="no"?>
<!DOCTYPE svg PUBLIC "-//W3C//DTD SVG 1.1//EN"
 "http://www.w3.org/Graphics/SVG/1.1/DTD/svg11.dtd">
<!-- Generated by graphviz version 12.2.1 (0)
 -->
<!-- Title: data_structures/GraphBuilder.cpp Pages: 1 -->
<svg width="695pt" height="196pt"
 viewBox="0.00 0.00 695.25 196.00" xmlns="http://www.w3.org/2000/svg" xmlns:xlink="http://www.w3.org/1999/xlink">
<g id="graph0" class="graph" transform="scale(1 1) rotate(0) translate(4 192)">
<title>data_structures/GraphBuilder.cpp</title>
<!-- Node1 -->
<g id="Node000001" class="node">
<title>Node1</title>
<g id="a_Node000001"><a xlink:title=" ">
<polygon fill="#999999" stroke="#666666" points="436.12,-188 275.38,-188 275.38,-168 436.12,-168 436.12,-188"/>
<text text-anchor="middle" x="355.75" y="-174.5" font-family="Helvetica,sans-Serif" font-size="10.00">data_structures/GraphBuilder.cpp</text>
</a>
</g>
</g>
<!-- Node2 -->
<g id="Node000002" class="node">
<title>Node2</title>
<g id="a_Node000002"><a xlink:title=" ">
<polygon fill="#e0e0e0" stroke="#999999" points="53.5,-20 0,-20 0,0 53.5,0 53.5,-20"/>
<text text-anchor="middle" x="26.75" y="-6.5" font-family="Helvetica,sans-Serif" font-size="10.00">iostream</text>
</a>
</g>
</g>
<!-- Node1&#45;&gt;Node2 -->
<g id="edge1_Node000001_Node000002" class="edge">
<title>Node1&#45;&gt;Node2</title>
<g id="a_edge1_Node000001_Node000002"><a xlink:title=" ">
<path fill="none" stroke="#63b8ff" d="M274.97,-170.95C233.95,-165.19 184.52,-153.93 144.75,-132 98.27,-106.37 58.56,-56.54 39.26,-29.52"/>
<polygon fill="#63b8ff" stroke="#63b8ff" points="42.34,-27.82 33.76,-21.61 36.6,-31.82 42.34,-27.82"/>
</a>
</g>
</g>
<!-- Node3 -->
<g id="Node000003" class="node">
<title>Node3</title>
<g id="a_Node000003"><a xlink:title=" ">
<polygon fill="#e0e0e0" stroke="#999999" points="550.25,-132 501.25,-132 501.25,-112 550.25,-112 550.25,-132"/>
<text text-anchor="middle" x="525.75" y="-118.5" font-family="Helvetica,sans-Serif" font-size="10.00">fstream</text>
</a>
</g>
</g>
<!-- Node1&#45;&gt;Node3 -->
<g id="edge2_Node000001_Node000003" class="edge">
<title>Node1&#45;&gt;Node3</title>
<g id="a_edge2_Node000001_Node000003"><a xlink:title=" ">
<path fill="none" stroke="#63b8ff" d="M385.36,-167.59C414.51,-158.34 459.04,-144.19 490.11,-134.32"/>
<polygon fill="#63b8ff" stroke="#63b8ff" points="490.98,-137.72 499.45,-131.35 488.86,-131.05 490.98,-137.72"/>
</a>
</g>
</g>
<!-- Node4 -->
<g id="Node000004" class="node">
<title>Node4</title>
<g id="a_Node000004"><a xlink:title=" ">
<polygon fill="#e0e0e0" stroke="#999999" points="468.75,-20 428.75,-20 428.75,0 468.75,0 468.75,-20"/>
<text text-anchor="middle" x="448.75" y="-6.5" font-family="Helvetica,sans-Serif" font-size="10.00">string</text>
</a>
</g>
</g>
<!-- Node1&#45;&gt;Node4 -->
<g id="edge3_Node000001_Node000004" class="edge">
<title>Node1&#45;&gt;Node4</title>
<g id="a_edge3_Node000001_Node000004"><a xlink:title=" ">
<path fill="none" stroke="#63b8ff" d="M346.39,-167.63C338.63,-159.14 328.18,-145.88 323.75,-132 313.48,-99.82 304.33,-83.64 323.75,-56 344.73,-26.15 387.52,-16.01 417.15,-12.61"/>
<polygon fill="#63b8ff" stroke="#63b8ff" points="417.41,-16.1 427.05,-11.7 416.77,-9.13 417.41,-16.1"/>
</a>
</g>
</g>
<!-- Node5 -->
<g id="Node000005" class="node">
<title>Node5</title>
<g id="a_Node000005"><a xlink:title=" ">
<polygon fill="#e0e0e0" stroke="#999999" points="127.62,-20 71.88,-20 71.88,0 127.62,0 127.62,-20"/>
<text text-anchor="middle" x="99.75" y="-6.5" font-family="Helvetica,sans-Serif" font-size="10.00">algorithm</text>
</a>
</g>
</g>
<!-- Node1&#45;&gt;Node5 -->
<g id="edge4_Node000001_Node000005" class="edge">
<title>Node1&#45;&gt;Node5</title>
<g id="a_edge4_Node000001_Node000005"><a xlink:title=" ">
<path fill="none" stroke="#63b8ff" d="M283.48,-167.53C226.44,-156.03 149.71,-130.82 107.75,-76 98.23,-63.56 96.64,-45.67 97.2,-31.81"/>
<polygon fill="#63b8ff" stroke="#63b8ff" points="100.68,-32.25 98.03,-22 93.7,-31.67 100.68,-32.25"/>
</a>
</g>
</g>
<!-- Node6 -->
<g id="Node000006" class="node">
<title>Node6</title>
<g id="a_Node000006"><a xlink:title=" ">
<polygon fill="#e0e0e0" stroke="#999999" points="597.5,-132 568,-132 568,-112 597.5,-112 597.5,-132"/>
<text text-anchor="middle" x="582.75" y="-118.5" font-family="Helvetica,sans-Serif" font-size="10.00">set</text>
</a>
</g>
</g>
<!-- Node1&#45;&gt;Node6 -->
<g id="edge5_Node000001_Node000006" class="edge">
<title>Node1&#45;&gt;Node6</title>
<g id="a_edge5_Node000001_Node000006"><a xlink:title=" ">
<path fill="none" stroke="#63b8ff" d="M409.17,-167.58C448.08,-160.19 502.16,-148.83 556.84,-132.56"/>
<polygon fill="#63b8ff" stroke="#63b8ff" points="557.77,-135.94 566.33,-129.69 555.74,-129.24 557.77,-135.94"/>
</a>
</g>
</g>
<!-- Node7 -->
<g id="Node000007" class="node">
<title>Node7</title>
<g id="a_Node000007"><a xlink:href="GraphBuilder_8h.html" target="_top" xlink:title=" ">
<polygon fill="white" stroke="#666666" points="482.88,-132 332.62,-132 332.62,-112 482.88,-112 482.88,-132"/>
<text text-anchor="middle" x="407.75" y="-118.5" font-family="Helvetica,sans-Serif" font-size="10.00">data_structures/GraphBuilder.h</text>
</a>
</g>
</g>
<!-- Node1&#45;&gt;Node7 -->
<g id="edge6_Node000001_Node000007" class="edge">
<title>Node1&#45;&gt;Node7</title>
<g id="a_edge6_Node000001_Node000007"><a xlink:title=" ">
<path fill="none" stroke="#63b8ff" d="M364.81,-167.59C371.97,-160.16 382.16,-149.58 390.82,-140.58"/>
<polygon fill="#63b8ff" stroke="#63b8ff" points="393.33,-143.02 397.75,-133.39 388.29,-138.16 393.33,-143.02"/>
</a>
</g>
</g>
<!-- Node8 -->
<g id="Node000008" class="node">
<title>Node8</title>
<g id="a_Node000008"><a xlink:href="Graph_8h.html" target="_top" xlink:title=" ">
<polygon fill="white" stroke="#666666" points="238.25,-76 117.25,-76 117.25,-56 238.25,-56 238.25,-76"/>
<text text-anchor="middle" x="177.75" y="-62.5" font-family="Helvetica,sans-Serif" font-size="10.00">data_structures/Graph.h</text>
</a>
</g>
</g>
<!-- Node7&#45;&gt;Node8 -->
<g id="edge7_Node000007_Node000008" class="edge">
<title>Node7&#45;&gt;Node8</title>
<g id="a_edge7_Node000007_Node000008"><a xlink:title=" ">
<path fill="none" stroke="#63b8ff" d="M367.42,-111.53C328.95,-102.5 270.83,-88.85 229.08,-79.05"/>
<polygon fill="#63b8ff" stroke="#63b8ff" points="230.04,-75.68 219.5,-76.8 228.44,-82.5 230.04,-75.68"/>
</a>
</g>
</g>
<!-- Node9 -->
<g id="Node000009" class="node">
<title>Node9</title>
<g id="a_Node000009"><a xlink:title=" ">
<polygon fill="#e0e0e0" stroke="#999999" points="306.25,-20 263.25,-20 263.25,0 306.25,0 306.25,-20"/>
<text text-anchor="middle" x="284.75" y="-6.5" font-family="Helvetica,sans-Serif" font-size="10.00">vector</text>
</a>
</g>
</g>
<!-- Node7&#45;&gt;Node9 -->
<g id="edge19_Node000007_Node000009" class="edge">
<title>Node7&#45;&gt;Node9</title>
<g id="a_edge19_Node000007_Node000009"><a xlink:title=" ">
<path fill="none" stroke="#63b8ff" d="M382.35,-111.66C364.41,-104.11 340.64,-92.09 323.75,-76 310.35,-63.24 299.9,-44.88 293.21,-30.93"/>
<polygon fill="#63b8ff" stroke="#63b8ff" points="296.41,-29.52 289.11,-21.84 290.03,-32.4 296.41,-29.52"/>
</a>
</g>
</g>
<!-- Node12 -->
<g id="Node000012" class="node">
<title>Node12</title>
<g id="a_Node000012"><a xlink:href="Submission_8h.html" target="_top" xlink:title=" ">
<polygon fill="white" stroke="#666666" points="442.62,-76 332.88,-76 332.88,-56 442.62,-56 442.62,-76"/>
<text text-anchor="middle" x="387.75" y="-62.5" font-family="Helvetica,sans-Serif" font-size="10.00">models/Submission.h</text>
</a>
</g>
</g>
<!-- Node7&#45;&gt;Node12 -->
<g id="edge13_Node000007_Node000012" class="edge">
<title>Node7&#45;&gt;Node12</title>
<g id="a_edge13_Node000007_Node000012"><a xlink:title=" ">
<path fill="none" stroke="#63b8ff" d="M404.27,-111.59C401.74,-104.78 398.24,-95.32 395.11,-86.86"/>
<polygon fill="#63b8ff" stroke="#63b8ff" points="398.47,-85.88 391.72,-77.72 391.91,-88.31 398.47,-85.88"/>
</a>
</g>
</g>
<!-- Node13 -->
<g id="Node000013" class="node">
<title>Node13</title>
<g id="a_Node000013"><a xlink:href="Reviewer_8h.html" target="_top" xlink:title=" ">
<polygon fill="white" stroke="#666666" points="560.38,-76 461.12,-76 461.12,-56 560.38,-56 560.38,-76"/>
<text text-anchor="middle" x="510.75" y="-62.5" font-family="Helvetica,sans-Serif" font-size="10.00">models/Reviewer.h</text>
</a>
</g>
</g>
<!-- Node7&#45;&gt;Node13 -->
<g id="edge15_Node000007_Node000013" class="edge">
<title>Node7&#45;&gt;Node13</title>
<g id="a_edge15_Node000007_Node000013"><a xlink:title=" ">
<path fill="none" stroke="#63b8ff" d="M425.69,-111.59C441.4,-103.36 464.48,-91.26 482.64,-81.74"/>
<polygon fill="#63b8ff" stroke="#63b8ff" points="484.1,-84.93 491.33,-77.18 480.85,-78.73 484.1,-84.93"/>
</a>
</g>
</g>
<!-- Node14 -->
<g id="Node000014" class="node">
<title>Node14</title>
<g id="a_Node000014"><a xlink:href="Parameters_8h.html" target="_top" xlink:title=" ">
<polygon fill="white" stroke="#666666" points="687.25,-76 578.25,-76 578.25,-56 687.25,-56 687.25,-76"/>
<text text-anchor="middle" x="632.75" y="-62.5" font-family="Helvetica,sans-Serif" font-size="10.00">models/Parameters.h</text>
</a>
</g>
</g>
<!-- Node7&#45;&gt;Node14 -->
<g id="edge17_Node000007_Node000014" class="edge">
<title>Node7&#45;&gt;Node14</title>
<g id="a_edge17_Node000007_Node000014"><a xlink:title=" ">
<path fill="none" stroke="#63b8ff" d="M447.2,-111.53C484.76,-102.52 541.45,-88.91 582.28,-79.11"/>
<polygon fill="#63b8ff" stroke="#63b8ff" points="582.97,-82.55 591.87,-76.81 581.33,-75.74 582.97,-82.55"/>
</a>
</g>
</g>
<!-- Node8&#45;&gt;Node2 -->
<g id="edge8_Node000008_Node000002" class="edge">
<title>Node8&#45;&gt;Node2</title>
<g id="a_edge8_Node000008_Node000002"><a xlink:title=" ">
<path fill="none" stroke="#63b8ff" d="M151.45,-55.59C127.24,-46.94 91.07,-34 63.91,-24.29"/>
<polygon fill="#63b8ff" stroke="#63b8ff" points="65.28,-21.06 54.68,-20.99 62.92,-27.65 65.28,-21.06"/>
</a>
</g>
</g>
<!-- Node8&#45;&gt;Node5 -->
<g id="edge12_Node000008_Node000005" class="edge">
<title>Node8&#45;&gt;Node5</title>
<g id="a_edge12_Node000008_Node000005"><a xlink:title=" ">
<path fill="none" stroke="#63b8ff" d="M164.16,-55.59C152.71,-47.67 136.09,-36.16 122.59,-26.82"/>
<polygon fill="#63b8ff" stroke="#63b8ff" points="124.9,-24.16 114.69,-21.34 120.92,-29.91 124.9,-24.16"/>
</a>
</g>
</g>
<!-- Node8&#45;&gt;Node9 -->
<g id="edge9_Node000008_Node000009" class="edge">
<title>Node8&#45;&gt;Node9</title>
<g id="a_edge9_Node000008_Node000009"><a xlink:title=" ">
<path fill="none" stroke="#63b8ff" d="M196.39,-55.59C212.78,-47.32 236.91,-35.14 255.81,-25.6"/>
<polygon fill="#63b8ff" stroke="#63b8ff" points="257.26,-28.79 264.62,-21.16 254.11,-22.54 257.26,-28.79"/>
</a>
</g>
</g>
<!-- Node10 -->
<g id="Node000010" class="node">
<title>Node10</title>
<g id="a_Node000010"><a xlink:title=" ">
<polygon fill="#e0e0e0" stroke="#999999" points="187.88,-20 145.62,-20 145.62,0 187.88,0 187.88,-20"/>
<text text-anchor="middle" x="166.75" y="-6.5" font-family="Helvetica,sans-Serif" font-size="10.00">queue</text>
</a>
</g>
</g>
<!-- Node8&#45;&gt;Node10 -->
<g id="edge10_Node000008_Node000010" class="edge">
<title>Node8&#45;&gt;Node10</title>
<g id="a_edge10_Node000008_Node000010"><a xlink:title=" ">
<path fill="none" stroke="#63b8ff" d="M175.83,-55.59C174.48,-48.93 172.61,-39.75 170.91,-31.44"/>
<polygon fill="#63b8ff" stroke="#63b8ff" points="174.37,-30.88 168.95,-21.78 167.51,-32.28 174.37,-30.88"/>
</a>
</g>
</g>
<!-- Node11 -->
<g id="Node000011" class="node">
<title>Node11</title>
<g id="a_Node000011"><a xlink:title=" ">
<polygon fill="#e0e0e0" stroke="#999999" points="245.38,-20 206.12,-20 206.12,0 245.38,0 245.38,-20"/>
<text text-anchor="middle" x="225.75" y="-6.5" font-family="Helvetica,sans-Serif" font-size="10.00">limits</text>
</a>
</g>
</g>
<!-- Node8&#45;&gt;Node11 -->
<g id="edge11_Node000008_Node000011" class="edge">
<title>Node8&#45;&gt;Node11</title>
<g id="a_edge11_Node000008_Node000011"><a xlink:title=" ">
<path fill="none" stroke="#63b8ff" d="M186.11,-55.59C192.65,-48.24 201.93,-37.8 209.87,-28.87"/>
<polygon fill="#63b8ff" stroke="#63b8ff" points="212.45,-31.23 216.48,-21.43 207.22,-26.58 212.45,-31.23"/>
</a>
</g>
</g>
<!-- Node12&#45;&gt;Node4 -->
<g id="edge14_Node000012_Node000004" class="edge">
<title>Node12&#45;&gt;Node4</title>
<g id="a_edge14_Node000012_Node000004"><a xlink:title=" ">
<path fill="none" stroke="#63b8ff" d="M398.38,-55.59C407.03,-47.93 419.48,-36.91 429.83,-27.75"/>
<polygon fill="#63b8ff" stroke="#63b8ff" points="431.95,-30.55 437.11,-21.3 427.31,-25.31 431.95,-30.55"/>
</a>
</g>
</g>
<!-- Node13&#45;&gt;Node4 -->
<g id="edge16_Node000013_Node000004" class="edge">
<title>Node13&#45;&gt;Node4</title>
<g id="a_edge16_Node000013_Node000004"><a xlink:title=" ">
<path fill="none" stroke="#63b8ff" d="M499.95,-55.59C491.15,-47.93 478.5,-36.91 467.98,-27.75"/>
<polygon fill="#63b8ff" stroke="#63b8ff" points="470.41,-25.22 460.57,-21.29 465.81,-30.5 470.41,-25.22"/>
</a>
</g>
</g>
<!-- Node14&#45;&gt;Node4 -->
<g id="edge18_Node000014_Node000004" class="edge">
<title>Node14&#45;&gt;Node4</title>
<g id="a_edge18_Node000014_Node000004"><a xlink:title=" ">
<path fill="none" stroke="#63b8ff" d="M600.7,-55.59C566.81,-45.65 513.68,-30.06 480.07,-20.19"/>
<polygon fill="#63b8ff" stroke="#63b8ff" points="481.09,-16.84 470.51,-17.39 479.12,-23.56 481.09,-16.84"/>
</a>
</g>
</g>
</g>
</svg>
