<?xml version="1.0" encoding="UTF-8" standalone="no"?>
<!DOCTYPE svg PUBLIC "-//W3C//DTD SVG 1.1//EN"
 "http://www.w3.org/Graphics/SVG/1.1/DTD/svg11.dtd">
<!-- Generated by graphviz version 12.2.1 (0)
 -->
<!-- Title: data_structures/Graph.h Pages: 1 -->
<svg width="839pt" height="140pt"
 viewBox="0.00 0.00 838.50 140.00" xmlns="http://www.w3.org/2000/svg" xmlns:xlink="http://www.w3.org/1999/xlink">
<g id="graph0" class="graph" transform="scale(1 1) rotate(0) translate(4 136)">
<title>data_structures/Graph.h</title>
<!-- Node1 -->
<g id="Node000001" class="node">
<title>Node1</title>
<g id="a_Node000001"><a xlink:title=" ">
<polygon fill="#999999" stroke="#666666" points="446.12,-132 325.12,-132 325.12,-112 446.12,-112 446.12,-132"/>
<text text-anchor="middle" x="385.62" y="-118.5" font-family="Helvetica,sans-Serif" font-size="10.00">data_structures/Graph.h</text>
</a>
</g>
</g>
<!-- Node2 -->
<g id="Node000002" class="node">
<title>Node2</title>
<g id="a_Node000002"><a xlink:href="EdmondKarp_8h.html" target="_top" xlink:title="Implementations of the Edmonds&#45;Karp algorithm for calculating maximum flow.">
<polygon fill="white" stroke="#666666" points="292.88,-76 164.38,-76 164.38,-56 292.88,-56 292.88,-76"/>
<text text-anchor="middle" x="228.62" y="-62.5" font-family="Helvetica,sans-Serif" font-size="10.00">algorithms/EdmondKarp.h</text>
</a>
</g>
</g>
<!-- Node1&#45;&gt;Node2 -->
<g id="edge1_Node000001_Node000002" class="edge">
<title>Node1&#45;&gt;Node2</title>
<g id="a_edge1_Node000001_Node000002"><a xlink:title=" ">
<path fill="none" stroke="#63b8ff" d="M347.6,-107.92C319.37,-98.21 281.54,-85.2 256.19,-76.48"/>
<polygon fill="#63b8ff" stroke="#63b8ff" points="346.25,-111.16 356.85,-111.1 348.53,-104.54 346.25,-111.16"/>
</a>
</g>
</g>
<!-- Node5 -->
<g id="Node000005" class="node">
<title>Node5</title>
<g id="a_Node000005"><a xlink:href="maxflow__tests_8cpp.html" target="_top" xlink:title=" ">
<polygon fill="white" stroke="#666666" points="123.25,-20 0,-20 0,0 123.25,0 123.25,-20"/>
<text text-anchor="middle" x="61.62" y="-6.5" font-family="Helvetica,sans-Serif" font-size="10.00">tests/maxflow_tests.cpp</text>
</a>
</g>
</g>
<!-- Node1&#45;&gt;Node5 -->
<g id="edge14_Node000001_Node000005" class="edge">
<title>Node1&#45;&gt;Node5</title>
<g id="a_edge14_Node000001_Node000005"><a xlink:title=" ">
<path fill="none" stroke="#63b8ff" d="M313.84,-114.63C267.32,-108.67 206.19,-97.33 155.62,-76 122.17,-61.89 88.51,-34.74 72.04,-20.4"/>
<polygon fill="#63b8ff" stroke="#63b8ff" points="313.19,-118.08 323.54,-115.82 314.04,-111.13 313.19,-118.08"/>
</a>
</g>
</g>
<!-- Node7 -->
<g id="Node000007" class="node">
<title>Node7</title>
<g id="a_Node000007"><a xlink:href="GraphBuilder_8h.html" target="_top" xlink:title=" ">
<polygon fill="white" stroke="#666666" points="460.75,-76 310.5,-76 310.5,-56 460.75,-56 460.75,-76"/>
<text text-anchor="middle" x="385.62" y="-62.5" font-family="Helvetica,sans-Serif" font-size="10.00">data_structures/GraphBuilder.h</text>
</a>
</g>
</g>
<!-- Node1&#45;&gt;Node7 -->
<g id="edge6_Node000001_Node000007" class="edge">
<title>Node1&#45;&gt;Node7</title>
<g id="a_edge6_Node000001_Node000007"><a xlink:title=" ">
<path fill="none" stroke="#63b8ff" d="M385.62,-100.13C385.62,-91.9 385.62,-82.85 385.62,-76.3"/>
<polygon fill="#63b8ff" stroke="#63b8ff" points="382.13,-100.08 385.63,-110.08 389.13,-100.08 382.13,-100.08"/>
</a>
</g>
</g>
<!-- Node9 -->
<g id="Node000009" class="node">
<title>Node9</title>
<g id="a_Node000009"><a xlink:href="AssignmentLogic_8h.html" target="_top" xlink:title="Logic for assigning reviewers to submissions based on Max Flow.">
<polygon fill="white" stroke="#666666" points="618.12,-76 479.12,-76 479.12,-56 618.12,-56 618.12,-76"/>
<text text-anchor="middle" x="548.62" y="-62.5" font-family="Helvetica,sans-Serif" font-size="10.00">services/AssignmentLogic.h</text>
</a>
</g>
</g>
<!-- Node1&#45;&gt;Node9 -->
<g id="edge11_Node000001_Node000009" class="edge">
<title>Node1&#45;&gt;Node9</title>
<g id="a_edge11_Node000001_Node000009"><a xlink:title=" ">
<path fill="none" stroke="#63b8ff" d="M424.72,-108.05C454.06,-98.33 493.57,-85.24 520.01,-76.48"/>
<polygon fill="#63b8ff" stroke="#63b8ff" points="423.85,-104.65 415.45,-111.12 426.05,-111.3 423.85,-104.65"/>
</a>
</g>
</g>
<!-- Node10 -->
<g id="Node000010" class="node">
<title>Node10</title>
<g id="a_Node000010"><a xlink:href="ConferenceApp_8h.html" target="_top" xlink:title=" ">
<polygon fill="white" stroke="#666666" points="751.75,-76 649.5,-76 649.5,-56 751.75,-56 751.75,-76"/>
<text text-anchor="middle" x="700.62" y="-62.5" font-family="Helvetica,sans-Serif" font-size="10.00">ui/ConferenceApp.h</text>
</a>
</g>
</g>
<!-- Node1&#45;&gt;Node10 -->
<g id="edge15_Node000001_Node000010" class="edge">
<title>Node1&#45;&gt;Node10</title>
<g id="a_edge15_Node000001_Node000010"><a xlink:title=" ">
<path fill="none" stroke="#63b8ff" d="M451.88,-109.64C510.65,-99.57 595.29,-85.06 649.12,-75.83"/>
<polygon fill="#63b8ff" stroke="#63b8ff" points="451.61,-106.14 442.35,-111.28 452.79,-113.04 451.61,-106.14"/>
</a>
</g>
</g>
<!-- Node3 -->
<g id="Node000003" class="node">
<title>Node3</title>
<g id="a_Node000003"><a xlink:href="EdmondKarp_8cpp.html" target="_top" xlink:title=" ">
<polygon fill="white" stroke="#666666" points="280.12,-20 141.12,-20 141.12,0 280.12,0 280.12,-20"/>
<text text-anchor="middle" x="210.62" y="-6.5" font-family="Helvetica,sans-Serif" font-size="10.00">algorithms/EdmondKarp.cpp</text>
</a>
</g>
</g>
<!-- Node2&#45;&gt;Node3 -->
<g id="edge2_Node000002_Node000003" class="edge">
<title>Node2&#45;&gt;Node3</title>
<g id="a_edge2_Node000002_Node000003"><a xlink:title=" ">
<path fill="none" stroke="#63b8ff" d="M221.86,-44.71C219.07,-36.32 215.96,-27.01 213.72,-20.3"/>
<polygon fill="#63b8ff" stroke="#63b8ff" points="218.53,-45.78 225.01,-54.16 225.17,-43.56 218.53,-45.78"/>
</a>
</g>
</g>
<!-- Node4 -->
<g id="Node000004" class="node">
<title>Node4</title>
<g id="a_Node000004"><a xlink:href="AssignmentLogic_8cpp.html" target="_top" xlink:title=" ">
<polygon fill="white" stroke="#666666" points="447.38,-20 297.88,-20 297.88,0 447.38,0 447.38,-20"/>
<text text-anchor="middle" x="372.62" y="-6.5" font-family="Helvetica,sans-Serif" font-size="10.00">services/AssignmentLogic.cpp</text>
</a>
</g>
</g>
<!-- Node2&#45;&gt;Node4 -->
<g id="edge3_Node000002_Node000004" class="edge">
<title>Node2&#45;&gt;Node4</title>
<g id="a_edge3_Node000002_Node000004"><a xlink:title=" ">
<path fill="none" stroke="#63b8ff" d="M264.19,-51.66C290,-41.98 324.3,-29.12 347.35,-20.48"/>
<polygon fill="#63b8ff" stroke="#63b8ff" points="263.26,-48.27 255.13,-55.06 265.72,-54.83 263.26,-48.27"/>
</a>
</g>
</g>
<!-- Node2&#45;&gt;Node5 -->
<g id="edge4_Node000002_Node000005" class="edge">
<title>Node2&#45;&gt;Node5</title>
<g id="a_edge4_Node000002_Node000005"><a xlink:title=" ">
<path fill="none" stroke="#63b8ff" d="M188.97,-52.18C158.87,-42.44 118.15,-29.28 90.94,-20.48"/>
<polygon fill="#63b8ff" stroke="#63b8ff" points="187.5,-55.38 198.1,-55.13 189.66,-48.72 187.5,-55.38"/>
</a>
</g>
</g>
<!-- Node6 -->
<g id="Node000006" class="node">
<title>Node6</title>
<g id="a_Node000006"><a xlink:href="ConferenceApp_8cpp.html" target="_top" xlink:title=" ">
<polygon fill="white" stroke="#666666" points="757,-20 644.25,-20 644.25,0 757,0 757,-20"/>
<text text-anchor="middle" x="700.62" y="-6.5" font-family="Helvetica,sans-Serif" font-size="10.00">ui/ConferenceApp.cpp</text>
</a>
</g>
</g>
<!-- Node2&#45;&gt;Node6 -->
<g id="edge5_Node000002_Node000006" class="edge">
<title>Node2&#45;&gt;Node6</title>
<g id="a_edge5_Node000002_Node000006"><a xlink:title=" ">
<path fill="none" stroke="#63b8ff" d="M304.35,-55.7C451.39,-38.84 490.47,-37.62 634.62,-20 637.61,-19.64 640.67,-19.25 643.76,-18.86"/>
<polygon fill="#63b8ff" stroke="#63b8ff" points="304.14,-52.2 294.61,-56.82 304.94,-59.16 304.14,-52.2"/>
</a>
</g>
</g>
<!-- Node7&#45;&gt;Node4 -->
<g id="edge8_Node000007_Node000004" class="edge">
<title>Node7&#45;&gt;Node4</title>
<g id="a_edge8_Node000007_Node000004"><a xlink:title=" ">
<path fill="none" stroke="#63b8ff" d="M380.67,-44.43C378.67,-36.11 376.46,-26.93 374.86,-20.3"/>
<polygon fill="#63b8ff" stroke="#63b8ff" points="377.26,-45.22 383.01,-54.12 384.07,-43.58 377.26,-45.22"/>
</a>
</g>
</g>
<!-- Node7&#45;&gt;Node5 -->
<g id="edge9_Node000007_Node000005" class="edge">
<title>Node7&#45;&gt;Node5</title>
<g id="a_edge9_Node000007_Node000005"><a xlink:title=" ">
<path fill="none" stroke="#63b8ff" d="M317.72,-53.68C258.62,-43.83 173.93,-29.72 118.37,-20.46"/>
<polygon fill="#63b8ff" stroke="#63b8ff" points="316.89,-57.09 327.32,-55.28 318.04,-50.19 316.89,-57.09"/>
</a>
</g>
</g>
<!-- Node7&#45;&gt;Node6 -->
<g id="edge10_Node000007_Node000006" class="edge">
<title>Node7&#45;&gt;Node6</title>
<g id="a_edge10_Node000007_Node000006"><a xlink:title=" ">
<path fill="none" stroke="#63b8ff" d="M452,-53.62C509.45,-43.77 591.55,-29.7 645.46,-20.46"/>
<polygon fill="#63b8ff" stroke="#63b8ff" points="451.61,-50.14 442.35,-55.28 452.79,-57.04 451.61,-50.14"/>
</a>
</g>
</g>
<!-- Node8 -->
<g id="Node000008" class="node">
<title>Node8</title>
<g id="a_Node000008"><a xlink:href="GraphBuilder_8cpp.html" target="_top" xlink:title=" ">
<polygon fill="white" stroke="#666666" points="626,-20 465.25,-20 465.25,0 626,0 626,-20"/>
<text text-anchor="middle" x="545.62" y="-6.5" font-family="Helvetica,sans-Serif" font-size="10.00">data_structures/GraphBuilder.cpp</text>
</a>
</g>
</g>
<!-- Node7&#45;&gt;Node8 -->
<g id="edge7_Node000007_Node000008" class="edge">
<title>Node7&#45;&gt;Node8</title>
<g id="a_edge7_Node000007_Node000008"><a xlink:title=" ">
<path fill="none" stroke="#63b8ff" d="M424.38,-51.92C453.14,-42.21 491.7,-29.2 517.54,-20.48"/>
<polygon fill="#63b8ff" stroke="#63b8ff" points="423.28,-48.6 414.93,-55.11 425.52,-55.23 423.28,-48.6"/>
</a>
</g>
</g>
<!-- Node9&#45;&gt;Node4 -->
<g id="edge12_Node000009_Node000004" class="edge">
<title>Node9&#45;&gt;Node4</title>
<g id="a_edge12_Node000009_Node000004"><a xlink:title=" ">
<path fill="none" stroke="#63b8ff" d="M507.25,-52.31C475.48,-42.56 432.32,-29.32 403.52,-20.48"/>
<polygon fill="#63b8ff" stroke="#63b8ff" points="505.93,-55.56 516.52,-55.15 507.99,-48.87 505.93,-55.56"/>
</a>
</g>
</g>
<!-- Node9&#45;&gt;Node6 -->
<g id="edge13_Node000009_Node000006" class="edge">
<title>Node9&#45;&gt;Node6</title>
<g id="a_edge13_Node000009_Node000006"><a xlink:title=" ">
<path fill="none" stroke="#63b8ff" d="M585.8,-51.79C613.09,-42.1 649.5,-29.16 673.94,-20.48"/>
<polygon fill="#63b8ff" stroke="#63b8ff" points="584.78,-48.44 576.53,-55.09 587.12,-55.04 584.78,-48.44"/>
</a>
</g>
</g>
<!-- Node10&#45;&gt;Node6 -->
<g id="edge17_Node000010_Node000006" class="edge">
<title>Node10&#45;&gt;Node6</title>
<g id="a_edge17_Node000010_Node000006"><a xlink:title=" ">
<path fill="none" stroke="#63b8ff" d="M700.62,-44.13C700.62,-35.9 700.62,-26.85 700.62,-20.3"/>
<polygon fill="#63b8ff" stroke="#63b8ff" points="697.13,-44.08 700.63,-54.08 704.13,-44.08 697.13,-44.08"/>
</a>
</g>
</g>
<!-- Node11 -->
<g id="Node000011" class="node">
<title>Node11</title>
<g id="a_Node000011"><a xlink:href="main_8cpp.html" target="_top" xlink:title=" ">
<polygon fill="white" stroke="#666666" points="830.5,-20 774.75,-20 774.75,0 830.5,0 830.5,-20"/>
<text text-anchor="middle" x="802.62" y="-6.5" font-family="Helvetica,sans-Serif" font-size="10.00">main.cpp</text>
</a>
</g>
</g>
<!-- Node10&#45;&gt;Node11 -->
<g id="edge16_Node000010_Node000011" class="edge">
<title>Node10&#45;&gt;Node11</title>
<g id="a_edge16_Node000010_Node000011"><a xlink:title=" ">
<path fill="none" stroke="#63b8ff" d="M728.55,-50.21C746.47,-40.73 769.19,-28.7 784.72,-20.48"/>
<polygon fill="#63b8ff" stroke="#63b8ff" points="726.93,-47.11 719.73,-54.89 730.21,-53.3 726.93,-47.11"/>
</a>
</g>
</g>
</g>
</svg>
