<?xml version="1.0" encoding="UTF-8" standalone="no"?>
<!DOCTYPE svg PUBLIC "-//W3C//DTD SVG 1.1//EN"
 "http://www.w3.org/Graphics/SVG/1.1/DTD/svg11.dtd">
<!-- Generated by graphviz version 12.2.1 (0)
 -->
<!-- Title: data_structures/GraphBuilder.h Pages: 1 -->
<svg width="583pt" height="140pt"
 viewBox="0.00 0.00 583.00 140.00" xmlns="http://www.w3.org/2000/svg" xmlns:xlink="http://www.w3.org/1999/xlink">
<g id="graph0" class="graph" transform="scale(1 1) rotate(0) translate(4 136)">
<title>data_structures/GraphBuilder.h</title>
<!-- Node1 -->
<g id="Node000001" class="node">
<title>Node1</title>
<g id="a_Node000001"><a xlink:title=" ">
<polygon fill="#999999" stroke="#666666" points="350.62,-132 200.38,-132 200.38,-112 350.62,-112 350.62,-132"/>
<text text-anchor="middle" x="275.5" y="-118.5" font-family="Helvetica,sans-Serif" font-size="10.00">data_structures/GraphBuilder.h</text>
</a>
</g>
</g>
<!-- Node2 -->
<g id="Node000002" class="node">
<title>Node2</title>
<g id="a_Node000002"><a xlink:href="Graph_8h.html" target="_top" xlink:title=" ">
<polygon fill="white" stroke="#666666" points="203,-76 82,-76 82,-56 203,-56 203,-76"/>
<text text-anchor="middle" x="142.5" y="-62.5" font-family="Helvetica,sans-Serif" font-size="10.00">data_structures/Graph.h</text>
</a>
</g>
</g>
<!-- Node1&#45;&gt;Node2 -->
<g id="edge1_Node000001_Node000002" class="edge">
<title>Node1&#45;&gt;Node2</title>
<g id="a_edge1_Node000001_Node000002"><a xlink:title=" ">
<path fill="none" stroke="#63b8ff" d="M252.33,-111.59C231.29,-103.05 200,-90.35 176.2,-80.68"/>
<polygon fill="#63b8ff" stroke="#63b8ff" points="177.83,-77.57 167.25,-77.05 175.2,-84.05 177.83,-77.57"/>
</a>
</g>
</g>
<!-- Node4 -->
<g id="Node000004" class="node">
<title>Node4</title>
<g id="a_Node000004"><a xlink:title=" ">
<polygon fill="#e0e0e0" stroke="#999999" points="43,-20 0,-20 0,0 43,0 43,-20"/>
<text text-anchor="middle" x="21.5" y="-6.5" font-family="Helvetica,sans-Serif" font-size="10.00">vector</text>
</a>
</g>
</g>
<!-- Node1&#45;&gt;Node4 -->
<g id="edge13_Node000001_Node000004" class="edge">
<title>Node1&#45;&gt;Node4</title>
<g id="a_edge13_Node000001_Node000004"><a xlink:title=" ">
<path fill="none" stroke="#63b8ff" d="M199.94,-116.53C159.59,-111.24 110.53,-99.94 72.5,-76 54.53,-64.69 40.28,-44.72 31.47,-29.89"/>
<polygon fill="#63b8ff" stroke="#63b8ff" points="34.72,-28.53 26.77,-21.52 28.61,-31.95 34.72,-28.53"/>
</a>
</g>
</g>
<!-- Node8 -->
<g id="Node000008" class="node">
<title>Node8</title>
<g id="a_Node000008"><a xlink:href="Submission_8h.html" target="_top" xlink:title=" ">
<polygon fill="white" stroke="#666666" points="330.38,-76 220.62,-76 220.62,-56 330.38,-56 330.38,-76"/>
<text text-anchor="middle" x="275.5" y="-62.5" font-family="Helvetica,sans-Serif" font-size="10.00">models/Submission.h</text>
</a>
</g>
</g>
<!-- Node1&#45;&gt;Node8 -->
<g id="edge7_Node000001_Node000008" class="edge">
<title>Node1&#45;&gt;Node8</title>
<g id="a_edge7_Node000001_Node000008"><a xlink:title=" ">
<path fill="none" stroke="#63b8ff" d="M275.5,-111.59C275.5,-105.01 275.5,-95.96 275.5,-87.73"/>
<polygon fill="#63b8ff" stroke="#63b8ff" points="279,-87.81 275.5,-77.81 272,-87.81 279,-87.81"/>
</a>
</g>
</g>
<!-- Node10 -->
<g id="Node000010" class="node">
<title>Node10</title>
<g id="a_Node000010"><a xlink:href="Reviewer_8h.html" target="_top" xlink:title=" ">
<polygon fill="white" stroke="#666666" points="448.12,-76 348.88,-76 348.88,-56 448.12,-56 448.12,-76"/>
<text text-anchor="middle" x="398.5" y="-62.5" font-family="Helvetica,sans-Serif" font-size="10.00">models/Reviewer.h</text>
</a>
</g>
</g>
<!-- Node1&#45;&gt;Node10 -->
<g id="edge9_Node000001_Node000010" class="edge">
<title>Node1&#45;&gt;Node10</title>
<g id="a_edge9_Node000001_Node000010"><a xlink:title=" ">
<path fill="none" stroke="#63b8ff" d="M296.92,-111.59C316.12,-103.17 344.54,-90.69 366.44,-81.07"/>
<polygon fill="#63b8ff" stroke="#63b8ff" points="367.77,-84.31 375.52,-77.09 364.96,-77.9 367.77,-84.31"/>
</a>
</g>
</g>
<!-- Node11 -->
<g id="Node000011" class="node">
<title>Node11</title>
<g id="a_Node000011"><a xlink:href="Parameters_8h.html" target="_top" xlink:title=" ">
<polygon fill="white" stroke="#666666" points="575,-76 466,-76 466,-56 575,-56 575,-76"/>
<text text-anchor="middle" x="520.5" y="-62.5" font-family="Helvetica,sans-Serif" font-size="10.00">models/Parameters.h</text>
</a>
</g>
</g>
<!-- Node1&#45;&gt;Node11 -->
<g id="edge11_Node000001_Node000011" class="edge">
<title>Node1&#45;&gt;Node11</title>
<g id="a_edge11_Node000001_Node000011"><a xlink:title=" ">
<path fill="none" stroke="#63b8ff" d="M318.46,-111.53C359.61,-102.46 421.87,-88.74 466.4,-78.93"/>
<polygon fill="#63b8ff" stroke="#63b8ff" points="467.1,-82.35 476.12,-76.78 465.6,-75.52 467.1,-82.35"/>
</a>
</g>
</g>
<!-- Node3 -->
<g id="Node000003" class="node">
<title>Node3</title>
<g id="a_Node000003"><a xlink:title=" ">
<polygon fill="#e0e0e0" stroke="#999999" points="114.25,-20 60.75,-20 60.75,0 114.25,0 114.25,-20"/>
<text text-anchor="middle" x="87.5" y="-6.5" font-family="Helvetica,sans-Serif" font-size="10.00">iostream</text>
</a>
</g>
</g>
<!-- Node2&#45;&gt;Node3 -->
<g id="edge2_Node000002_Node000003" class="edge">
<title>Node2&#45;&gt;Node3</title>
<g id="a_edge2_Node000002_Node000003"><a xlink:title=" ">
<path fill="none" stroke="#63b8ff" d="M132.92,-55.59C125.27,-48.08 114.34,-37.35 105.12,-28.3"/>
<polygon fill="#63b8ff" stroke="#63b8ff" points="107.64,-25.87 98.05,-21.36 102.73,-30.86 107.64,-25.87"/>
</a>
</g>
</g>
<!-- Node2&#45;&gt;Node4 -->
<g id="edge3_Node000002_Node000004" class="edge">
<title>Node2&#45;&gt;Node4</title>
<g id="a_edge3_Node000002_Node000004"><a xlink:title=" ">
<path fill="none" stroke="#63b8ff" d="M121.42,-55.59C102.54,-47.17 74.58,-34.69 53.04,-25.07"/>
<polygon fill="#63b8ff" stroke="#63b8ff" points="54.68,-21.98 44.12,-21.1 51.83,-28.37 54.68,-21.98"/>
</a>
</g>
</g>
<!-- Node5 -->
<g id="Node000005" class="node">
<title>Node5</title>
<g id="a_Node000005"><a xlink:title=" ">
<polygon fill="#e0e0e0" stroke="#999999" points="174.62,-20 132.38,-20 132.38,0 174.62,0 174.62,-20"/>
<text text-anchor="middle" x="153.5" y="-6.5" font-family="Helvetica,sans-Serif" font-size="10.00">queue</text>
</a>
</g>
</g>
<!-- Node2&#45;&gt;Node5 -->
<g id="edge4_Node000002_Node000005" class="edge">
<title>Node2&#45;&gt;Node5</title>
<g id="a_edge4_Node000002_Node000005"><a xlink:title=" ">
<path fill="none" stroke="#63b8ff" d="M144.42,-55.59C145.77,-48.93 147.64,-39.75 149.34,-31.44"/>
<polygon fill="#63b8ff" stroke="#63b8ff" points="152.74,-32.28 151.3,-21.78 145.88,-30.88 152.74,-32.28"/>
</a>
</g>
</g>
<!-- Node6 -->
<g id="Node000006" class="node">
<title>Node6</title>
<g id="a_Node000006"><a xlink:title=" ">
<polygon fill="#e0e0e0" stroke="#999999" points="232.12,-20 192.88,-20 192.88,0 232.12,0 232.12,-20"/>
<text text-anchor="middle" x="212.5" y="-6.5" font-family="Helvetica,sans-Serif" font-size="10.00">limits</text>
</a>
</g>
</g>
<!-- Node2&#45;&gt;Node6 -->
<g id="edge5_Node000002_Node000006" class="edge">
<title>Node2&#45;&gt;Node6</title>
<g id="a_edge5_Node000002_Node000006"><a xlink:title=" ">
<path fill="none" stroke="#63b8ff" d="M154.69,-55.59C164.83,-47.77 179.49,-36.46 191.51,-27.19"/>
<polygon fill="#63b8ff" stroke="#63b8ff" points="193.47,-30.1 199.25,-21.22 189.19,-24.56 193.47,-30.1"/>
</a>
</g>
</g>
<!-- Node7 -->
<g id="Node000007" class="node">
<title>Node7</title>
<g id="a_Node000007"><a xlink:title=" ">
<polygon fill="#e0e0e0" stroke="#999999" points="306.38,-20 250.62,-20 250.62,0 306.38,0 306.38,-20"/>
<text text-anchor="middle" x="278.5" y="-6.5" font-family="Helvetica,sans-Serif" font-size="10.00">algorithm</text>
</a>
</g>
</g>
<!-- Node2&#45;&gt;Node7 -->
<g id="edge6_Node000002_Node000007" class="edge">
<title>Node2&#45;&gt;Node7</title>
<g id="a_edge6_Node000002_Node000007"><a xlink:title=" ">
<path fill="none" stroke="#63b8ff" d="M166.19,-55.59C187.7,-47.05 219.7,-34.35 244.04,-24.68"/>
<polygon fill="#63b8ff" stroke="#63b8ff" points="245.22,-27.98 253.22,-21.04 242.63,-21.48 245.22,-27.98"/>
</a>
</g>
</g>
<!-- Node9 -->
<g id="Node000009" class="node">
<title>Node9</title>
<g id="a_Node000009"><a xlink:title=" ">
<polygon fill="#e0e0e0" stroke="#999999" points="418.5,-20 378.5,-20 378.5,0 418.5,0 418.5,-20"/>
<text text-anchor="middle" x="398.5" y="-6.5" font-family="Helvetica,sans-Serif" font-size="10.00">string</text>
</a>
</g>
</g>
<!-- Node8&#45;&gt;Node9 -->
<g id="edge8_Node000008_Node000009" class="edge">
<title>Node8&#45;&gt;Node9</title>
<g id="a_edge8_Node000008_Node000009"><a xlink:title=" ">
<path fill="none" stroke="#63b8ff" d="M296.92,-55.59C316.47,-47.01 345.59,-34.23 367.64,-24.55"/>
<polygon fill="#63b8ff" stroke="#63b8ff" points="369,-27.77 376.75,-20.55 366.19,-21.36 369,-27.77"/>
</a>
</g>
</g>
<!-- Node10&#45;&gt;Node9 -->
<g id="edge10_Node000010_Node000009" class="edge">
<title>Node10&#45;&gt;Node9</title>
<g id="a_edge10_Node000010_Node000009"><a xlink:title=" ">
<path fill="none" stroke="#63b8ff" d="M398.5,-55.59C398.5,-49.01 398.5,-39.96 398.5,-31.73"/>
<polygon fill="#63b8ff" stroke="#63b8ff" points="402,-31.81 398.5,-21.81 395,-31.81 402,-31.81"/>
</a>
</g>
</g>
<!-- Node11&#45;&gt;Node9 -->
<g id="edge12_Node000011_Node000009" class="edge">
<title>Node11&#45;&gt;Node9</title>
<g id="a_edge12_Node000011_Node000009"><a xlink:title=" ">
<path fill="none" stroke="#63b8ff" d="M499.25,-55.59C479.86,-47.01 450.98,-34.23 429.11,-24.55"/>
<polygon fill="#63b8ff" stroke="#63b8ff" points="430.64,-21.4 420.08,-20.55 427.81,-27.8 430.64,-21.4"/>
</a>
</g>
</g>
</g>
</svg>
