<?xml version="1.0" encoding="UTF-8" standalone="no"?>
<!DOCTYPE svg PUBLIC "-//W3C//DTD SVG 1.1//EN"
 "http://www.w3.org/Graphics/SVG/1.1/DTD/svg11.dtd">
<!-- Generated by graphviz version 12.2.1 (0)
 -->
<!-- Title: data_structures/GraphBuilder.h Pages: 1 -->
<svg width="608pt" height="84pt"
 viewBox="0.00 0.00 607.75 84.00" xmlns="http://www.w3.org/2000/svg" xmlns:xlink="http://www.w3.org/1999/xlink">
<g id="graph0" class="graph" transform="scale(1 1) rotate(0) translate(4 80)">
<title>data_structures/GraphBuilder.h</title>
<!-- Node1 -->
<g id="Node000001" class="node">
<title>Node1</title>
<g id="a_Node000001"><a xlink:title=" ">
<polygon fill="#999999" stroke="#666666" points="405.5,-76 255.25,-76 255.25,-56 405.5,-56 405.5,-76"/>
<text text-anchor="middle" x="330.38" y="-62.5" font-family="Helvetica,sans-Serif" font-size="10.00">data_structures/GraphBuilder.h</text>
</a>
</g>
</g>
<!-- Node2 -->
<g id="Node000002" class="node">
<title>Node2</title>
<g id="a_Node000002"><a xlink:href="GraphBuilder_8cpp.html" target="_top" xlink:title=" ">
<polygon fill="white" stroke="#666666" points="160.75,-20 0,-20 0,0 160.75,0 160.75,-20"/>
<text text-anchor="middle" x="80.38" y="-6.5" font-family="Helvetica,sans-Serif" font-size="10.00">data_structures/GraphBuilder.cpp</text>
</a>
</g>
</g>
<!-- Node1&#45;&gt;Node2 -->
<g id="edge1_Node000001_Node000002" class="edge">
<title>Node1&#45;&gt;Node2</title>
<g id="a_edge1_Node000001_Node000002"><a xlink:title=" ">
<path fill="none" stroke="#63b8ff" d="M275.4,-53.13C229.94,-43.31 166.23,-29.54 124.16,-20.46"/>
<polygon fill="#63b8ff" stroke="#63b8ff" points="274.55,-56.52 285.06,-55.21 276.03,-49.68 274.55,-56.52"/>
</a>
</g>
</g>
<!-- Node3 -->
<g id="Node000003" class="node">
<title>Node3</title>
<g id="a_Node000003"><a xlink:href="AssignmentLogic_8cpp.html" target="_top" xlink:title=" ">
<polygon fill="white" stroke="#666666" points="328.12,-20 178.62,-20 178.62,0 328.12,0 328.12,-20"/>
<text text-anchor="middle" x="253.38" y="-6.5" font-family="Helvetica,sans-Serif" font-size="10.00">services/AssignmentLogic.cpp</text>
</a>
</g>
</g>
<!-- Node1&#45;&gt;Node3 -->
<g id="edge2_Node000001_Node000003" class="edge">
<title>Node1&#45;&gt;Node3</title>
<g id="a_edge2_Node000001_Node000003"><a xlink:title=" ">
<path fill="none" stroke="#63b8ff" d="M307.56,-49C294.33,-39.72 278.12,-28.35 266.89,-20.48"/>
<polygon fill="#63b8ff" stroke="#63b8ff" points="305.53,-51.85 315.72,-54.72 309.55,-46.12 305.53,-51.85"/>
</a>
</g>
</g>
<!-- Node4 -->
<g id="Node000004" class="node">
<title>Node4</title>
<g id="a_Node000004"><a xlink:href="maxflow__tests_8cpp.html" target="_top" xlink:title=" ">
<polygon fill="white" stroke="#666666" points="469,-20 345.75,-20 345.75,0 469,0 469,-20"/>
<text text-anchor="middle" x="407.38" y="-6.5" font-family="Helvetica,sans-Serif" font-size="10.00">tests/maxflow_tests.cpp</text>
</a>
</g>
</g>
<!-- Node1&#45;&gt;Node4 -->
<g id="edge3_Node000001_Node000004" class="edge">
<title>Node1&#45;&gt;Node4</title>
<g id="a_edge3_Node000001_Node000004"><a xlink:title=" ">
<path fill="none" stroke="#63b8ff" d="M353.19,-49C366.42,-39.72 382.63,-28.35 393.86,-20.48"/>
<polygon fill="#63b8ff" stroke="#63b8ff" points="351.2,-46.12 345.03,-54.72 355.22,-51.85 351.2,-46.12"/>
</a>
</g>
</g>
<!-- Node5 -->
<g id="Node000005" class="node">
<title>Node5</title>
<g id="a_Node000005"><a xlink:href="ConferenceApp_8cpp.html" target="_top" xlink:title=" ">
<polygon fill="white" stroke="#666666" points="599.75,-20 487,-20 487,0 599.75,0 599.75,-20"/>
<text text-anchor="middle" x="543.38" y="-6.5" font-family="Helvetica,sans-Serif" font-size="10.00">ui/ConferenceApp.cpp</text>
</a>
</g>
</g>
<!-- Node1&#45;&gt;Node5 -->
<g id="edge4_Node000001_Node000005" class="edge">
<title>Node1&#45;&gt;Node5</title>
<g id="a_edge4_Node000001_Node000005"><a xlink:title=" ">
<path fill="none" stroke="#63b8ff" d="M378.45,-52.81C417.06,-43.02 470.52,-29.47 505.98,-20.48"/>
<polygon fill="#63b8ff" stroke="#63b8ff" points="377.78,-49.37 368.94,-55.22 379.5,-56.16 377.78,-49.37"/>
</a>
</g>
</g>
</g>
</svg>
