<?xml version="1.0" encoding="UTF-8" standalone="no"?>
<!DOCTYPE svg PUBLIC "-//W3C//DTD SVG 1.1//EN"
 "http://www.w3.org/Graphics/SVG/1.1/DTD/svg11.dtd">
<!-- Generated by graphviz version 12.2.1 (0)
 -->
<!-- Title: main.cpp Pages: 1 -->
<svg width="705pt" height="196pt"
 viewBox="0.00 0.00 704.75 196.00" xmlns="http://www.w3.org/2000/svg" xmlns:xlink="http://www.w3.org/1999/xlink">
<g id="graph0" class="graph" transform="scale(1 1) rotate(0) translate(4 192)">
<title>main.cpp</title>
<!-- Node1 -->
<g id="Node000001" class="node">
<title>Node1</title>
<g id="a_Node000001"><a xlink:title=" ">
<polygon fill="#999999" stroke="#666666" points="323.5,-188 267.75,-188 267.75,-168 323.5,-168 323.5,-188"/>
<text text-anchor="middle" x="295.62" y="-174.5" font-family="Helvetica,sans-Serif" font-size="10.00">main.cpp</text>
</a>
</g>
</g>
<!-- Node2 -->
<g id="Node000002" class="node">
<title>Node2</title>
<g id="a_Node000002"><a xlink:href="ConferenceApp_8h.html" target="_top" xlink:title=" ">
<polygon fill="white" stroke="#666666" points="346.75,-132 244.5,-132 244.5,-112 346.75,-112 346.75,-132"/>
<text text-anchor="middle" x="295.62" y="-118.5" font-family="Helvetica,sans-Serif" font-size="10.00">ui/ConferenceApp.h</text>
</a>
</g>
</g>
<!-- Node1&#45;&gt;Node2 -->
<g id="edge1_Node000001_Node000002" class="edge">
<title>Node1&#45;&gt;Node2</title>
<g id="a_edge1_Node000001_Node000002"><a xlink:title=" ">
<path fill="none" stroke="#63b8ff" d="M295.62,-167.59C295.62,-161.01 295.62,-151.96 295.62,-143.73"/>
<polygon fill="#63b8ff" stroke="#63b8ff" points="299.13,-143.81 295.63,-133.81 292.13,-143.81 299.13,-143.81"/>
</a>
</g>
</g>
<!-- Node3 -->
<g id="Node000003" class="node">
<title>Node3</title>
<g id="a_Node000003"><a xlink:title=" ">
<polygon fill="#e0e0e0" stroke="#999999" points="433.12,-20 390.12,-20 390.12,0 433.12,0 433.12,-20"/>
<text text-anchor="middle" x="411.62" y="-6.5" font-family="Helvetica,sans-Serif" font-size="10.00">vector</text>
</a>
</g>
</g>
<!-- Node2&#45;&gt;Node3 -->
<g id="edge2_Node000002_Node000003" class="edge">
<title>Node2&#45;&gt;Node3</title>
<g id="a_edge2_Node000002_Node000003"><a xlink:title=" ">
<path fill="none" stroke="#63b8ff" d="M344.1,-111.52C364.89,-104.98 387.57,-94.07 401.62,-76 411.28,-63.58 413.44,-45.69 413.38,-31.83"/>
<polygon fill="#63b8ff" stroke="#63b8ff" points="416.88,-31.83 412.91,-22.01 409.89,-32.16 416.88,-31.83"/>
</a>
</g>
</g>
<!-- Node4 -->
<g id="Node000004" class="node">
<title>Node4</title>
<g id="a_Node000004"><a xlink:title=" ">
<polygon fill="#e0e0e0" stroke="#999999" points="233.62,-20 193.62,-20 193.62,0 233.62,0 233.62,-20"/>
<text text-anchor="middle" x="213.62" y="-6.5" font-family="Helvetica,sans-Serif" font-size="10.00">string</text>
</a>
</g>
</g>
<!-- Node2&#45;&gt;Node4 -->
<g id="edge3_Node000002_Node000004" class="edge">
<title>Node2&#45;&gt;Node4</title>
<g id="a_edge3_Node000002_Node000004"><a xlink:title=" ">
<path fill="none" stroke="#63b8ff" d="M288.63,-111.62C275.08,-93.44 245,-53.09 227.33,-29.38"/>
<polygon fill="#63b8ff" stroke="#63b8ff" points="230.29,-27.49 221.5,-21.57 224.67,-31.68 230.29,-27.49"/>
</a>
</g>
</g>
<!-- Node5 -->
<g id="Node000005" class="node">
<title>Node5</title>
<g id="a_Node000005"><a xlink:href="Submission_8h.html" target="_top" xlink:title=" ">
<polygon fill="white" stroke="#666666" points="392.5,-76 282.75,-76 282.75,-56 392.5,-56 392.5,-76"/>
<text text-anchor="middle" x="337.62" y="-62.5" font-family="Helvetica,sans-Serif" font-size="10.00">models/Submission.h</text>
</a>
</g>
</g>
<!-- Node2&#45;&gt;Node5 -->
<g id="edge4_Node000002_Node000005" class="edge">
<title>Node2&#45;&gt;Node5</title>
<g id="a_edge4_Node000002_Node000005"><a xlink:title=" ">
<path fill="none" stroke="#63b8ff" d="M302.94,-111.59C308.6,-104.32 316.61,-94.02 323.51,-85.15"/>
<polygon fill="#63b8ff" stroke="#63b8ff" points="326.09,-87.54 329.46,-77.49 320.56,-83.24 326.09,-87.54"/>
</a>
</g>
</g>
<!-- Node6 -->
<g id="Node000006" class="node">
<title>Node6</title>
<g id="a_Node000006"><a xlink:href="Reviewer_8h.html" target="_top" xlink:title=" ">
<polygon fill="white" stroke="#666666" points="99.25,-76 0,-76 0,-56 99.25,-56 99.25,-76"/>
<text text-anchor="middle" x="49.62" y="-62.5" font-family="Helvetica,sans-Serif" font-size="10.00">models/Reviewer.h</text>
</a>
</g>
</g>
<!-- Node2&#45;&gt;Node6 -->
<g id="edge6_Node000002_Node000006" class="edge">
<title>Node2&#45;&gt;Node6</title>
<g id="a_edge6_Node000002_Node000006"><a xlink:title=" ">
<path fill="none" stroke="#63b8ff" d="M252.49,-111.53C211.17,-102.46 148.65,-88.74 103.95,-78.93"/>
<polygon fill="#63b8ff" stroke="#63b8ff" points="104.7,-75.51 94.19,-76.78 103.2,-82.34 104.7,-75.51"/>
</a>
</g>
</g>
<!-- Node7 -->
<g id="Node000007" class="node">
<title>Node7</title>
<g id="a_Node000007"><a xlink:href="Parameters_8h.html" target="_top" xlink:title=" ">
<polygon fill="white" stroke="#666666" points="226.12,-76 117.12,-76 117.12,-56 226.12,-56 226.12,-76"/>
<text text-anchor="middle" x="171.62" y="-62.5" font-family="Helvetica,sans-Serif" font-size="10.00">models/Parameters.h</text>
</a>
</g>
</g>
<!-- Node2&#45;&gt;Node7 -->
<g id="edge8_Node000002_Node000007" class="edge">
<title>Node2&#45;&gt;Node7</title>
<g id="a_edge8_Node000002_Node000007"><a xlink:title=" ">
<path fill="none" stroke="#63b8ff" d="M274.03,-111.59C254.67,-103.17 226.02,-90.69 203.94,-81.07"/>
<polygon fill="#63b8ff" stroke="#63b8ff" points="205.35,-77.87 194.78,-77.08 202.55,-84.29 205.35,-77.87"/>
</a>
</g>
</g>
<!-- Node8 -->
<g id="Node000008" class="node">
<title>Node8</title>
<g id="a_Node000008"><a xlink:href="Graph_8h.html" target="_top" xlink:title=" ">
<polygon fill="white" stroke="#666666" points="588.12,-76 467.12,-76 467.12,-56 588.12,-56 588.12,-76"/>
<text text-anchor="middle" x="527.62" y="-62.5" font-family="Helvetica,sans-Serif" font-size="10.00">data_structures/Graph.h</text>
</a>
</g>
</g>
<!-- Node2&#45;&gt;Node8 -->
<g id="edge10_Node000002_Node000008" class="edge">
<title>Node2&#45;&gt;Node8</title>
<g id="a_edge10_Node000002_Node000008"><a xlink:title=" ">
<path fill="none" stroke="#63b8ff" d="M336.3,-111.53C375.11,-102.5 433.73,-88.85 475.85,-79.05"/>
<polygon fill="#63b8ff" stroke="#63b8ff" points="476.57,-82.48 485.52,-76.8 474.99,-75.66 476.57,-82.48"/>
</a>
</g>
</g>
<!-- Node5&#45;&gt;Node4 -->
<g id="edge5_Node000005_Node000004" class="edge">
<title>Node5&#45;&gt;Node4</title>
<g id="a_edge5_Node000005_Node000004"><a xlink:title=" ">
<path fill="none" stroke="#63b8ff" d="M316.03,-55.59C296.11,-46.92 266.34,-33.96 244.03,-24.24"/>
<polygon fill="#63b8ff" stroke="#63b8ff" points="245.7,-21.15 235.13,-20.37 242.9,-27.57 245.7,-21.15"/>
</a>
</g>
</g>
<!-- Node6&#45;&gt;Node4 -->
<g id="edge7_Node000006_Node000004" class="edge">
<title>Node6&#45;&gt;Node4</title>
<g id="a_edge7_Node000006_Node000004"><a xlink:title=" ">
<path fill="none" stroke="#63b8ff" d="M78.19,-55.59C107.32,-46 152.39,-31.16 182.44,-21.27"/>
<polygon fill="#63b8ff" stroke="#63b8ff" points="183.31,-24.67 191.72,-18.21 181.12,-18.02 183.31,-24.67"/>
</a>
</g>
</g>
<!-- Node7&#45;&gt;Node4 -->
<g id="edge9_Node000007_Node000004" class="edge">
<title>Node7&#45;&gt;Node4</title>
<g id="a_edge9_Node000007_Node000004"><a xlink:title=" ">
<path fill="none" stroke="#63b8ff" d="M178.94,-55.59C184.6,-48.32 192.61,-38.02 199.51,-29.15"/>
<polygon fill="#63b8ff" stroke="#63b8ff" points="202.09,-31.54 205.46,-21.49 196.56,-27.24 202.09,-31.54"/>
</a>
</g>
</g>
<!-- Node8&#45;&gt;Node3 -->
<g id="edge12_Node000008_Node000003" class="edge">
<title>Node8&#45;&gt;Node3</title>
<g id="a_edge12_Node000008_Node000003"><a xlink:title=" ">
<path fill="none" stroke="#63b8ff" d="M507.42,-55.59C489.4,-47.21 462.76,-34.8 442.14,-25.21"/>
<polygon fill="#63b8ff" stroke="#63b8ff" points="443.9,-22.17 433.36,-21.12 440.95,-28.51 443.9,-22.17"/>
</a>
</g>
</g>
<!-- Node9 -->
<g id="Node000009" class="node">
<title>Node9</title>
<g id="a_Node000009"><a xlink:title=" ">
<polygon fill="#e0e0e0" stroke="#999999" points="636.38,-20 582.88,-20 582.88,0 636.38,0 636.38,-20"/>
<text text-anchor="middle" x="609.62" y="-6.5" font-family="Helvetica,sans-Serif" font-size="10.00">iostream</text>
</a>
</g>
</g>
<!-- Node8&#45;&gt;Node9 -->
<g id="edge11_Node000008_Node000009" class="edge">
<title>Node8&#45;&gt;Node9</title>
<g id="a_edge11_Node000008_Node000009"><a xlink:title=" ">
<path fill="none" stroke="#63b8ff" d="M541.91,-55.59C554.06,-47.59 571.76,-35.93 586.02,-26.54"/>
<polygon fill="#63b8ff" stroke="#63b8ff" points="587.54,-29.73 593.97,-21.31 583.69,-23.89 587.54,-29.73"/>
</a>
</g>
</g>
<!-- Node10 -->
<g id="Node000010" class="node">
<title>Node10</title>
<g id="a_Node000010"><a xlink:title=" ">
<polygon fill="#e0e0e0" stroke="#999999" points="696.75,-20 654.5,-20 654.5,0 696.75,0 696.75,-20"/>
<text text-anchor="middle" x="675.62" y="-6.5" font-family="Helvetica,sans-Serif" font-size="10.00">queue</text>
</a>
</g>
</g>
<!-- Node8&#45;&gt;Node10 -->
<g id="edge13_Node000008_Node000010" class="edge">
<title>Node8&#45;&gt;Node10</title>
<g id="a_edge13_Node000008_Node000010"><a xlink:title=" ">
<path fill="none" stroke="#63b8ff" d="M553.4,-55.59C578.59,-46.4 616.97,-32.4 643.99,-22.54"/>
<polygon fill="#63b8ff" stroke="#63b8ff" points="644.83,-25.96 653.03,-19.24 642.43,-19.38 644.83,-25.96"/>
</a>
</g>
</g>
<!-- Node11 -->
<g id="Node000011" class="node">
<title>Node11</title>
<g id="a_Node000011"><a xlink:title=" ">
<polygon fill="#e0e0e0" stroke="#999999" points="490.25,-20 451,-20 451,0 490.25,0 490.25,-20"/>
<text text-anchor="middle" x="470.62" y="-6.5" font-family="Helvetica,sans-Serif" font-size="10.00">limits</text>
</a>
</g>
</g>
<!-- Node8&#45;&gt;Node11 -->
<g id="edge14_Node000008_Node000011" class="edge">
<title>Node8&#45;&gt;Node11</title>
<g id="a_edge14_Node000008_Node000011"><a xlink:title=" ">
<path fill="none" stroke="#63b8ff" d="M517.7,-55.59C509.69,-48.01 498.21,-37.13 488.59,-28.02"/>
<polygon fill="#63b8ff" stroke="#63b8ff" points="491.21,-25.68 481.54,-21.34 486.39,-30.76 491.21,-25.68"/>
</a>
</g>
</g>
<!-- Node12 -->
<g id="Node000012" class="node">
<title>Node12</title>
<g id="a_Node000012"><a xlink:title=" ">
<polygon fill="#e0e0e0" stroke="#999999" points="564.5,-20 508.75,-20 508.75,0 564.5,0 564.5,-20"/>
<text text-anchor="middle" x="536.62" y="-6.5" font-family="Helvetica,sans-Serif" font-size="10.00">algorithm</text>
</a>
</g>
</g>
<!-- Node8&#45;&gt;Node12 -->
<g id="edge15_Node000008_Node000012" class="edge">
<title>Node8&#45;&gt;Node12</title>
<g id="a_edge15_Node000008_Node000012"><a xlink:title=" ">
<path fill="none" stroke="#63b8ff" d="M529.19,-55.59C530.3,-48.93 531.83,-39.75 533.22,-31.44"/>
<polygon fill="#63b8ff" stroke="#63b8ff" points="536.63,-32.23 534.83,-21.79 529.73,-31.08 536.63,-32.23"/>
</a>
</g>
</g>
</g>
</svg>
