<?xml version="1.0" encoding="UTF-8" standalone="no"?>
<!DOCTYPE svg PUBLIC "-//W3C//DTD SVG 1.1//EN"
 "http://www.w3.org/Graphics/SVG/1.1/DTD/svg11.dtd">
<!-- Generated by graphviz version 12.2.1 (0)
 -->
<!-- Title: main.cpp Pages: 1 -->
<svg width="1106pt" height="193pt"
 viewBox="0.00 0.00 1105.90 193.00" xmlns="http://www.w3.org/2000/svg" xmlns:xlink="http://www.w3.org/1999/xlink">
<g id="graph0" class="graph" transform="scale(1 1) rotate(0) translate(4 189)">
<title>main.cpp</title>
<!-- Node1 -->
<g id="Node000001" class="node">
<title>Node1</title>
<g id="a_Node000001"><a xlink:title=" ">
<polygon fill="#999999" stroke="#666666" points="575.28,-185 519.53,-185 519.53,-165.75 575.28,-165.75 575.28,-185"/>
<text text-anchor="middle" x="547.4" y="-171.5" font-family="Helvetica,sans-Serif" font-size="10.00">main.cpp</text>
</a>
</g>
</g>
<!-- Node2 -->
<g id="Node000002" class="node">
<title>Node2</title>
<g id="a_Node000002"><a xlink:title=" ">
<polygon fill="#e0e0e0" stroke="#999999" points="552.15,-19.25 498.65,-19.25 498.65,0 552.15,0 552.15,-19.25"/>
<text text-anchor="middle" x="525.4" y="-5.75" font-family="Helvetica,sans-Serif" font-size="10.00">iostream</text>
</a>
</g>
</g>
<!-- Node1&#45;&gt;Node2 -->
<g id="edge1_Node000001_Node000002" class="edge">
<title>Node1&#45;&gt;Node2</title>
<g id="a_edge1_Node000001_Node000002"><a xlink:title=" ">
<path fill="none" stroke="#63b8ff" d="M547.18,-165.64C546.76,-153.29 545.59,-130.04 542.4,-110.5 539.75,-94.22 536.43,-90.71 533.4,-74.5 530.66,-59.83 528.6,-43.09 527.26,-30.43"/>
<polygon fill="#63b8ff" stroke="#63b8ff" points="530.78,-30.47 526.31,-20.86 523.82,-31.16 530.78,-30.47"/>
</a>
</g>
</g>
<!-- Node3 -->
<g id="Node000003" class="node">
<title>Node3</title>
<g id="a_Node000003"><a xlink:title=" ">
<polygon fill="#e0e0e0" stroke="#999999" points="469.9,-19.25 426.9,-19.25 426.9,0 469.9,0 469.9,-19.25"/>
<text text-anchor="middle" x="448.4" y="-5.75" font-family="Helvetica,sans-Serif" font-size="10.00">vector</text>
</a>
</g>
</g>
<!-- Node1&#45;&gt;Node3 -->
<g id="edge2_Node000001_Node000003" class="edge">
<title>Node1&#45;&gt;Node3</title>
<g id="a_edge2_Node000001_Node000003"><a xlink:title=" ">
<path fill="none" stroke="#63b8ff" d="M542.03,-165.26C534.69,-152.85 521.13,-129.95 509.4,-110.5 492.32,-82.16 472.29,-49.46 459.97,-29.42"/>
<polygon fill="#63b8ff" stroke="#63b8ff" points="463,-27.67 454.78,-20.98 457.04,-31.33 463,-27.67"/>
</a>
</g>
</g>
<!-- Node4 -->
<g id="Node000004" class="node">
<title>Node4</title>
<g id="a_Node000004"><a xlink:title=" ">
<polygon fill="#e0e0e0" stroke="#999999" points="185.4,-19.25 145.4,-19.25 145.4,0 185.4,0 185.4,-19.25"/>
<text text-anchor="middle" x="165.4" y="-5.75" font-family="Helvetica,sans-Serif" font-size="10.00">string</text>
</a>
</g>
</g>
<!-- Node1&#45;&gt;Node4 -->
<g id="edge3_Node000001_Node000004" class="edge">
<title>Node1&#45;&gt;Node4</title>
<g id="a_edge3_Node000001_Node000004"><a xlink:title=" ">
<path fill="none" stroke="#63b8ff" d="M519.37,-174.23C413.52,-173.37 42.33,-167.68 7.4,-129.75 -11.76,-108.93 10.92,-75.31 33.4,-55.25 61.64,-30.05 104.66,-18.99 133.85,-14.19"/>
<polygon fill="#63b8ff" stroke="#63b8ff" points="134.17,-17.68 143.56,-12.77 133.16,-10.76 134.17,-17.68"/>
</a>
</g>
</g>
<!-- Node5 -->
<g id="Node000005" class="node">
<title>Node5</title>
<g id="a_Node000005"><a xlink:title=" ">
<polygon fill="#e0e0e0" stroke="#999999" points="805.03,-19.25 765.78,-19.25 765.78,0 805.03,0 805.03,-19.25"/>
<text text-anchor="middle" x="785.4" y="-5.75" font-family="Helvetica,sans-Serif" font-size="10.00">limits</text>
</a>
</g>
</g>
<!-- Node1&#45;&gt;Node5 -->
<g id="edge4_Node000001_Node000005" class="edge">
<title>Node1&#45;&gt;Node5</title>
<g id="a_edge4_Node000001_Node000005"><a xlink:title=" ">
<path fill="none" stroke="#63b8ff" d="M575.68,-173.46C617.32,-171.02 696.47,-162.1 754.4,-129.75 784.11,-113.16 794.71,-106.07 807.4,-74.5 813.49,-59.37 806.47,-41.83 798.79,-28.96"/>
<polygon fill="#63b8ff" stroke="#63b8ff" points="801.74,-27.07 793.29,-20.67 795.9,-30.94 801.74,-27.07"/>
</a>
</g>
</g>
<!-- Node6 -->
<g id="Node000006" class="node">
<title>Node6</title>
<g id="a_Node000006"><a xlink:title=" ">
<polygon fill="#e0e0e0" stroke="#999999" points="963.9,-129.75 914.9,-129.75 914.9,-110.5 963.9,-110.5 963.9,-129.75"/>
<text text-anchor="middle" x="939.4" y="-116.25" font-family="Helvetica,sans-Serif" font-size="10.00">fstream</text>
</a>
</g>
</g>
<!-- Node1&#45;&gt;Node6 -->
<g id="edge5_Node000001_Node000006" class="edge">
<title>Node1&#45;&gt;Node6</title>
<g id="a_edge5_Node000001_Node000006"><a xlink:title=" ">
<path fill="none" stroke="#63b8ff" d="M575.45,-171.71C635.36,-165.84 780.2,-150.59 900.4,-129.75 901.42,-129.57 902.45,-129.39 903.49,-129.2"/>
<polygon fill="#63b8ff" stroke="#63b8ff" points="904.11,-132.64 913.23,-127.24 902.74,-125.78 904.11,-132.64"/>
</a>
</g>
</g>
<!-- Node7 -->
<g id="Node000007" class="node">
<title>Node7</title>
<g id="a_Node000007"><a xlink:title=" ">
<polygon fill="#e0e0e0" stroke="#999999" points="902.28,-19.25 846.53,-19.25 846.53,0 902.28,0 902.28,-19.25"/>
<text text-anchor="middle" x="874.4" y="-5.75" font-family="Helvetica,sans-Serif" font-size="10.00">algorithm</text>
</a>
</g>
</g>
<!-- Node1&#45;&gt;Node7 -->
<g id="edge6_Node000001_Node000007" class="edge">
<title>Node1&#45;&gt;Node7</title>
<g id="a_edge6_Node000001_Node000007"><a xlink:title=" ">
<path fill="none" stroke="#63b8ff" d="M575.51,-175.32C622.21,-175.6 717.21,-170.57 783.4,-129.75 823.14,-105.24 851.87,-56.59 865.51,-29.67"/>
<polygon fill="#63b8ff" stroke="#63b8ff" points="868.52,-31.47 869.75,-20.95 862.23,-28.41 868.52,-31.47"/>
</a>
</g>
</g>
<!-- Node8 -->
<g id="Node000008" class="node">
<title>Node8</title>
<g id="a_Node000008"><a xlink:title=" ">
<polygon fill="#e0e0e0" stroke="#999999" points="1018.9,-129.75 981.9,-129.75 981.9,-110.5 1018.9,-110.5 1018.9,-129.75"/>
<text text-anchor="middle" x="1000.4" y="-116.25" font-family="Helvetica,sans-Serif" font-size="10.00">tuple</text>
</a>
</g>
</g>
<!-- Node1&#45;&gt;Node8 -->
<g id="edge7_Node000001_Node000008" class="edge">
<title>Node1&#45;&gt;Node8</title>
<g id="a_edge7_Node000001_Node000008"><a xlink:title=" ">
<path fill="none" stroke="#63b8ff" d="M575.62,-173.41C642.75,-170.71 817.23,-161.2 970.64,-129.94"/>
<polygon fill="#63b8ff" stroke="#63b8ff" points="971.09,-133.43 980.17,-127.96 969.67,-126.57 971.09,-133.43"/>
</a>
</g>
</g>
<!-- Node9 -->
<g id="Node000009" class="node">
<title>Node9</title>
<g id="a_Node000009"><a xlink:title=" ">
<polygon fill="#e0e0e0" stroke="#999999" points="1097.9,-129.75 1036.9,-129.75 1036.9,-110.5 1097.9,-110.5 1097.9,-129.75"/>
<text text-anchor="middle" x="1067.4" y="-116.25" font-family="Helvetica,sans-Serif" font-size="10.00">filesystem</text>
</a>
</g>
</g>
<!-- Node1&#45;&gt;Node9 -->
<g id="edge8_Node000001_Node000009" class="edge">
<title>Node1&#45;&gt;Node9</title>
<g id="a_edge8_Node000001_Node000009"><a xlink:title=" ">
<path fill="none" stroke="#63b8ff" d="M575.75,-172.99C648.71,-169.15 849.06,-156.96 1025.5,-130.02"/>
<polygon fill="#63b8ff" stroke="#63b8ff" points="1025.97,-133.49 1035.32,-128.5 1024.9,-126.57 1025.97,-133.49"/>
</a>
</g>
</g>
<!-- Node10 -->
<g id="Node000010" class="node">
<title>Node10</title>
<g id="a_Node000010"><a xlink:title=" ">
<polygon fill="#e0e0e0" stroke="#999999" points="668.4,-74.5 610.4,-74.5 610.4,-55.25 668.4,-55.25 668.4,-74.5"/>
<text text-anchor="middle" x="639.4" y="-61" font-family="Helvetica,sans-Serif" font-size="10.00">functional</text>
</a>
</g>
</g>
<!-- Node1&#45;&gt;Node10 -->
<g id="edge9_Node000001_Node000010" class="edge">
<title>Node1&#45;&gt;Node10</title>
<g id="a_edge9_Node000001_Node000010"><a xlink:title=" ">
<path fill="none" stroke="#63b8ff" d="M554.93,-165.5C570.1,-147.61 604.56,-106.97 624.46,-83.5"/>
<polygon fill="#63b8ff" stroke="#63b8ff" points="626.99,-85.92 630.79,-76.03 621.66,-81.39 626.99,-85.92"/>
</a>
</g>
</g>
<!-- Node11 -->
<g id="Node000011" class="node">
<title>Node11</title>
<g id="a_Node000011"><a xlink:href="_file_parser_8h.html" target="_top" xlink:title="Class definition for parsing input CSV files.">
<polygon fill="white" stroke="#666666" points="114.78,-129.75 26.03,-129.75 26.03,-110.5 114.78,-110.5 114.78,-129.75"/>
<text text-anchor="middle" x="70.4" y="-116.25" font-family="Helvetica,sans-Serif" font-size="10.00">utils/FileParser.h</text>
</a>
</g>
</g>
<!-- Node1&#45;&gt;Node11 -->
<g id="edge10_Node000001_Node000011" class="edge">
<title>Node1&#45;&gt;Node11</title>
<g id="a_edge10_Node000001_Node000011"><a xlink:title=" ">
<path fill="none" stroke="#63b8ff" d="M519.41,-171.8C451.99,-165.51 275.35,-148.49 128.4,-129.75 127.73,-129.66 127.04,-129.58 126.36,-129.49"/>
<polygon fill="#63b8ff" stroke="#63b8ff" points="126.91,-126.03 116.53,-128.15 125.97,-132.97 126.91,-126.03"/>
</a>
</g>
</g>
<!-- Node12 -->
<g id="Node000012" class="node">
<title>Node12</title>
<g id="a_Node000012"><a xlink:href="_submission_8h.html" target="_top" xlink:title=" ">
<polygon fill="white" stroke="#666666" points="159.03,-74.5 83.78,-74.5 83.78,-55.25 159.03,-55.25 159.03,-74.5"/>
<text text-anchor="middle" x="121.4" y="-61" font-family="Helvetica,sans-Serif" font-size="10.00">Submission.h</text>
</a>
</g>
</g>
<!-- Node1&#45;&gt;Node12 -->
<g id="edge20_Node000001_Node000012" class="edge">
<title>Node1&#45;&gt;Node12</title>
<g id="a_edge20_Node000001_Node000012"><a xlink:title=" ">
<path fill="none" stroke="#63b8ff" d="M519.18,-174.18C414.33,-173.15 51.58,-166.93 17.4,-129.75 -4.33,-106.11 36.11,-88.08 72.73,-77.29"/>
<polygon fill="#63b8ff" stroke="#63b8ff" points="73.25,-80.78 81.94,-74.72 71.37,-74.04 73.25,-80.78"/>
</a>
</g>
</g>
<!-- Node13 -->
<g id="Node000013" class="node">
<title>Node13</title>
<g id="a_Node000013"><a xlink:href="_reviewer_8h.html" target="_top" xlink:title=" ">
<polygon fill="white" stroke="#666666" points="241.78,-74.5 177.03,-74.5 177.03,-55.25 241.78,-55.25 241.78,-74.5"/>
<text text-anchor="middle" x="209.4" y="-61" font-family="Helvetica,sans-Serif" font-size="10.00">Reviewer.h</text>
</a>
</g>
</g>
<!-- Node1&#45;&gt;Node13 -->
<g id="edge21_Node000001_Node000013" class="edge">
<title>Node1&#45;&gt;Node13</title>
<g id="a_edge21_Node000001_Node000013"><a xlink:title=" ">
<path fill="none" stroke="#63b8ff" d="M519.22,-173.24C434.3,-169.53 185.19,-156.44 161.4,-129.75 147.42,-114.05 166.82,-94.55 184.98,-81.25"/>
<polygon fill="#63b8ff" stroke="#63b8ff" points="186.68,-84.33 192.93,-75.78 182.71,-78.57 186.68,-84.33"/>
</a>
</g>
</g>
<!-- Node14 -->
<g id="Node000014" class="node">
<title>Node14</title>
<g id="a_Node000014"><a xlink:href="_parameters_8h.html" target="_top" xlink:title=" ">
<polygon fill="white" stroke="#666666" points="334.65,-74.5 260.15,-74.5 260.15,-55.25 334.65,-55.25 334.65,-74.5"/>
<text text-anchor="middle" x="297.4" y="-61" font-family="Helvetica,sans-Serif" font-size="10.00">Parameters.h</text>
</a>
</g>
</g>
<!-- Node1&#45;&gt;Node14 -->
<g id="edge19_Node000001_Node000014" class="edge">
<title>Node1&#45;&gt;Node14</title>
<g id="a_edge19_Node000001_Node000014"><a xlink:title=" ">
<path fill="none" stroke="#63b8ff" d="M519.15,-171.29C483.14,-166.47 419.77,-154.94 371.4,-129.75 348.47,-117.8 326.62,-97.45 312.69,-82.93"/>
<polygon fill="#63b8ff" stroke="#63b8ff" points="315.5,-80.81 306.13,-75.88 310.38,-85.58 315.5,-80.81"/>
</a>
</g>
</g>
<!-- Node15 -->
<g id="Node000015" class="node">
<title>Node15</title>
<g id="a_Node000015"><a xlink:href="create_graphs_8h.html" target="_top" xlink:title=" ">
<polygon fill="white" stroke="#666666" points="324.03,-129.75 170.78,-129.75 170.78,-110.5 324.03,-110.5 324.03,-129.75"/>
<text text-anchor="middle" x="247.4" y="-116.25" font-family="Helvetica,sans-Serif" font-size="10.00">data_structures/createGraphs.h</text>
</a>
</g>
</g>
<!-- Node1&#45;&gt;Node15 -->
<g id="edge22_Node000001_Node000015" class="edge">
<title>Node1&#45;&gt;Node15</title>
<g id="a_edge22_Node000001_Node000015"><a xlink:title=" ">
<path fill="none" stroke="#63b8ff" d="M519.18,-169.37C471.57,-160.91 374.21,-143.63 309.88,-132.21"/>
<polygon fill="#63b8ff" stroke="#63b8ff" points="310.62,-128.79 300.16,-130.49 309.39,-135.68 310.62,-128.79"/>
</a>
</g>
</g>
<!-- Node18 -->
<g id="Node000018" class="node">
<title>Node18</title>
<g id="a_Node000018"><a xlink:href="_edmond_karp_8h.html" target="_top" xlink:title="Implementations of the Edmonds&#45;Karp algorithm for calculating maximum flow.">
<polygon fill="white" stroke="#666666" points="745.15,-129.75 643.65,-129.75 643.65,-110.5 745.15,-110.5 745.15,-129.75"/>
<text text-anchor="middle" x="694.4" y="-116.25" font-family="Helvetica,sans-Serif" font-size="10.00">utils/EdmondKarp.h</text>
</a>
</g>
</g>
<!-- Node1&#45;&gt;Node18 -->
<g id="edge33_Node000001_Node000018" class="edge">
<title>Node1&#45;&gt;Node18</title>
<g id="a_edge33_Node000001_Node000018"><a xlink:title=" ">
<path fill="none" stroke="#63b8ff" d="M572.34,-165.34C596.1,-156.74 632.11,-143.69 658.87,-134"/>
<polygon fill="#63b8ff" stroke="#63b8ff" points="659.71,-137.41 667.92,-130.72 657.33,-130.83 659.71,-137.41"/>
</a>
</g>
</g>
<!-- Node20 -->
<g id="Node000020" class="node">
<title>Node20</title>
<g id="a_Node000020"><a xlink:href="_assignment_logic_8h.html" target="_top" xlink:title="Logic for assigning reviewers to submissions based on Max Flow.">
<polygon fill="white" stroke="#666666" points="500.53,-129.75 380.28,-129.75 380.28,-110.5 500.53,-110.5 500.53,-129.75"/>
<text text-anchor="middle" x="440.4" y="-116.25" font-family="Helvetica,sans-Serif" font-size="10.00">utils/AssignmentLogic.h</text>
</a>
</g>
</g>
<!-- Node1&#45;&gt;Node20 -->
<g id="edge39_Node000001_Node000020" class="edge">
<title>Node1&#45;&gt;Node20</title>
<g id="a_edge39_Node000001_Node000020"><a xlink:title=" ">
<path fill="none" stroke="#63b8ff" d="M529.25,-165.34C512.73,-157.12 488.06,-144.84 468.91,-135.31"/>
<polygon fill="#63b8ff" stroke="#63b8ff" points="470.51,-132.2 460,-130.88 467.39,-138.47 470.51,-132.2"/>
</a>
</g>
</g>
<!-- Node11&#45;&gt;Node3 -->
<g id="edge12_Node000011_Node000003" class="edge">
<title>Node11&#45;&gt;Node3</title>
<g id="a_edge12_Node000011_Node000003"><a xlink:title=" ">
<path fill="none" stroke="#63b8ff" d="M67.84,-110.33C64.44,-96.6 60.36,-70.11 74.4,-55.25 97.65,-30.66 327.86,-16.66 415.11,-12.2"/>
<polygon fill="#63b8ff" stroke="#63b8ff" points="415.12,-15.7 424.93,-11.71 414.77,-8.71 415.12,-15.7"/>
</a>
</g>
</g>
<!-- Node11&#45;&gt;Node4 -->
<g id="edge11_Node000011_Node000004" class="edge">
<title>Node11&#45;&gt;Node4</title>
<g id="a_edge11_Node000011_Node000004"><a xlink:title=" ">
<path fill="none" stroke="#63b8ff" d="M60.92,-110.32C48.26,-97.48 28.8,-73.18 41.4,-55.25 62.22,-25.64 104.66,-15.58 134.05,-12.22"/>
<polygon fill="#63b8ff" stroke="#63b8ff" points="134.22,-15.72 143.86,-11.32 133.58,-8.75 134.22,-15.72"/>
</a>
</g>
</g>
<!-- Node11&#45;&gt;Node12 -->
<g id="edge13_Node000011_Node000012" class="edge">
<title>Node11&#45;&gt;Node12</title>
<g id="a_edge13_Node000011_Node000012"><a xlink:title=" ">
<path fill="none" stroke="#63b8ff" d="M78.83,-110.33C85.94,-102.9 96.35,-92.04 105.09,-82.91"/>
<polygon fill="#63b8ff" stroke="#63b8ff" points="107.36,-85.6 111.75,-75.95 102.31,-80.75 107.36,-85.6"/>
</a>
</g>
</g>
<!-- Node11&#45;&gt;Node13 -->
<g id="edge15_Node000011_Node000013" class="edge">
<title>Node11&#45;&gt;Node13</title>
<g id="a_edge15_Node000011_Node000013"><a xlink:title=" ">
<path fill="none" stroke="#63b8ff" d="M93.98,-110.09C116.25,-101.56 149.9,-88.67 175.13,-79.01"/>
<polygon fill="#63b8ff" stroke="#63b8ff" points="176.21,-82.34 184.3,-75.49 173.7,-75.8 176.21,-82.34"/>
</a>
</g>
</g>
<!-- Node11&#45;&gt;Node14 -->
<g id="edge17_Node000011_Node000014" class="edge">
<title>Node11&#45;&gt;Node14</title>
<g id="a_edge17_Node000011_Node000014"><a xlink:title=" ">
<path fill="none" stroke="#63b8ff" d="M109.17,-110.03C147.79,-100.97 207.21,-87.03 248.93,-77.25"/>
<polygon fill="#63b8ff" stroke="#63b8ff" points="249.52,-80.7 258.46,-75.01 247.92,-73.89 249.52,-80.7"/>
</a>
</g>
</g>
<!-- Node12&#45;&gt;Node4 -->
<g id="edge14_Node000012_Node000004" class="edge">
<title>Node12&#45;&gt;Node4</title>
<g id="a_edge14_Node000012_Node000004"><a xlink:title=" ">
<path fill="none" stroke="#63b8ff" d="M128.67,-55.08C134.68,-47.8 143.42,-37.23 150.86,-28.23"/>
<polygon fill="#63b8ff" stroke="#63b8ff" points="153.34,-30.71 157.02,-20.78 147.95,-26.26 153.34,-30.71"/>
</a>
</g>
</g>
<!-- Node13&#45;&gt;Node4 -->
<g id="edge16_Node000013_Node000004" class="edge">
<title>Node13&#45;&gt;Node4</title>
<g id="a_edge16_Node000013_Node000004"><a xlink:title=" ">
<path fill="none" stroke="#63b8ff" d="M202.14,-55.08C196.12,-47.8 187.39,-37.23 179.95,-28.23"/>
<polygon fill="#63b8ff" stroke="#63b8ff" points="182.86,-26.26 173.79,-20.78 177.46,-30.71 182.86,-26.26"/>
</a>
</g>
</g>
<!-- Node14&#45;&gt;Node4 -->
<g id="edge18_Node000014_Node000004" class="edge">
<title>Node14&#45;&gt;Node4</title>
<g id="a_edge18_Node000014_Node000004"><a xlink:title=" ">
<path fill="none" stroke="#63b8ff" d="M275.01,-54.84C253.32,-46.09 220.27,-32.76 196.13,-23.02"/>
<polygon fill="#63b8ff" stroke="#63b8ff" points="197.72,-19.89 187.14,-19.39 195.1,-26.38 197.72,-19.89"/>
</a>
</g>
</g>
<!-- Node15&#45;&gt;Node3 -->
<g id="edge32_Node000015_Node000003" class="edge">
<title>Node15&#45;&gt;Node3</title>
<g id="a_edge32_Node000015_Node000003"><a xlink:title=" ">
<path fill="none" stroke="#63b8ff" d="M268.71,-110.04C288.39,-101.45 318.28,-87.93 343.4,-74.5 372.22,-59.1 404.13,-39.27 425.12,-25.82"/>
<polygon fill="#63b8ff" stroke="#63b8ff" points="426.99,-28.78 433.49,-20.42 423.19,-22.9 426.99,-28.78"/>
</a>
</g>
</g>
<!-- Node15&#45;&gt;Node12 -->
<g id="edge29_Node000015_Node000012" class="edge">
<title>Node15&#45;&gt;Node12</title>
<g id="a_edge29_Node000015_Node000012"><a xlink:title=" ">
<path fill="none" stroke="#63b8ff" d="M226.03,-110.09C206.12,-101.68 176.17,-89.02 153.4,-79.4"/>
<polygon fill="#63b8ff" stroke="#63b8ff" points="154.85,-76.21 144.28,-75.54 152.13,-82.66 154.85,-76.21"/>
</a>
</g>
</g>
<!-- Node15&#45;&gt;Node13 -->
<g id="edge30_Node000015_Node000013" class="edge">
<title>Node15&#45;&gt;Node13</title>
<g id="a_edge30_Node000015_Node000013"><a xlink:title=" ">
<path fill="none" stroke="#63b8ff" d="M241.13,-110.33C236.04,-103.21 228.71,-92.93 222.37,-84.05"/>
<polygon fill="#63b8ff" stroke="#63b8ff" points="225.35,-82.2 216.69,-76.09 219.65,-86.26 225.35,-82.2"/>
</a>
</g>
</g>
<!-- Node15&#45;&gt;Node14 -->
<g id="edge31_Node000015_Node000014" class="edge">
<title>Node15&#45;&gt;Node14</title>
<g id="a_edge31_Node000015_Node000014"><a xlink:title=" ">
<path fill="none" stroke="#63b8ff" d="M255.66,-110.33C262.57,-102.98 272.63,-92.26 281.14,-83.19"/>
<polygon fill="#63b8ff" stroke="#63b8ff" points="283.64,-85.65 287.93,-75.96 278.54,-80.86 283.64,-85.65"/>
</a>
</g>
</g>
<!-- Node16 -->
<g id="Node000016" class="node">
<title>Node16</title>
<g id="a_Node000016"><a xlink:href="_graph_8h.html" target="_top" xlink:title=" ">
<polygon fill="white" stroke="#666666" points="592.65,-74.5 542.15,-74.5 542.15,-55.25 592.65,-55.25 592.65,-74.5"/>
<text text-anchor="middle" x="567.4" y="-61" font-family="Helvetica,sans-Serif" font-size="10.00">Graph.h</text>
</a>
</g>
</g>
<!-- Node15&#45;&gt;Node16 -->
<g id="edge23_Node000015_Node000016" class="edge">
<title>Node15&#45;&gt;Node16</title>
<g id="a_edge23_Node000015_Node000016"><a xlink:title=" ">
<path fill="none" stroke="#63b8ff" d="M302.05,-110.03C367.38,-99.16 474.89,-81.27 530.9,-71.95"/>
<polygon fill="#63b8ff" stroke="#63b8ff" points="531.26,-75.44 540.55,-70.34 530.11,-68.53 531.26,-75.44"/>
</a>
</g>
</g>
<!-- Node16&#45;&gt;Node2 -->
<g id="edge24_Node000016_Node000002" class="edge">
<title>Node16&#45;&gt;Node2</title>
<g id="a_edge24_Node000016_Node000002"><a xlink:title=" ">
<path fill="none" stroke="#63b8ff" d="M560.47,-55.08C554.79,-47.88 546.57,-37.46 539.51,-28.51"/>
<polygon fill="#63b8ff" stroke="#63b8ff" points="542.37,-26.48 533.43,-20.8 536.87,-30.82 542.37,-26.48"/>
</a>
</g>
</g>
<!-- Node16&#45;&gt;Node3 -->
<g id="edge25_Node000016_Node000003" class="edge">
<title>Node16&#45;&gt;Node3</title>
<g id="a_edge25_Node000016_Node000003"><a xlink:title=" ">
<path fill="none" stroke="#63b8ff" d="M547.22,-54.84C528.5,-46.47 500.38,-33.88 478.92,-24.28"/>
<polygon fill="#63b8ff" stroke="#63b8ff" points="480.63,-21.21 470.07,-20.32 477.77,-27.6 480.63,-21.21"/>
</a>
</g>
</g>
<!-- Node16&#45;&gt;Node5 -->
<g id="edge27_Node000016_Node000005" class="edge">
<title>Node16&#45;&gt;Node5</title>
<g id="a_edge27_Node000016_Node000005"><a xlink:title=" ">
<path fill="none" stroke="#63b8ff" d="M593.02,-57.35C595.85,-56.64 598.68,-55.92 601.4,-55.25 655.24,-41.89 718.04,-26.76 754.61,-17.99"/>
<polygon fill="#63b8ff" stroke="#63b8ff" points="755.13,-21.46 764.04,-15.73 753.5,-14.66 755.13,-21.46"/>
</a>
</g>
</g>
<!-- Node16&#45;&gt;Node7 -->
<g id="edge28_Node000016_Node000007" class="edge">
<title>Node16&#45;&gt;Node7</title>
<g id="a_edge28_Node000016_Node000007"><a xlink:title=" ">
<path fill="none" stroke="#63b8ff" d="M592.97,-57.14C595.81,-56.47 598.66,-55.82 601.4,-55.25 645.33,-46.11 770.59,-26.53 835.04,-16.63"/>
<polygon fill="#63b8ff" stroke="#63b8ff" points="835.49,-20.1 844.84,-15.13 834.42,-13.18 835.49,-20.1"/>
</a>
</g>
</g>
<!-- Node17 -->
<g id="Node000017" class="node">
<title>Node17</title>
<g id="a_Node000017"><a xlink:title=" ">
<polygon fill="#e0e0e0" stroke="#999999" points="702.53,-19.25 660.28,-19.25 660.28,0 702.53,0 702.53,-19.25"/>
<text text-anchor="middle" x="681.4" y="-5.75" font-family="Helvetica,sans-Serif" font-size="10.00">queue</text>
</a>
</g>
</g>
<!-- Node16&#45;&gt;Node17 -->
<g id="edge26_Node000016_Node000017" class="edge">
<title>Node16&#45;&gt;Node17</title>
<g id="a_edge26_Node000016_Node000017"><a xlink:title=" ">
<path fill="none" stroke="#63b8ff" d="M586.74,-54.84C604.51,-46.54 631.12,-34.11 651.61,-24.54"/>
<polygon fill="#63b8ff" stroke="#63b8ff" points="653.02,-27.75 660.6,-20.34 650.06,-21.4 653.02,-27.75"/>
</a>
</g>
</g>
<!-- Node18&#45;&gt;Node3 -->
<g id="edge36_Node000018_Node000003" class="edge">
<title>Node18&#45;&gt;Node3</title>
<g id="a_edge36_Node000018_Node000003"><a xlink:title=" ">
<path fill="none" stroke="#63b8ff" d="M694.79,-110.22C694.88,-96.34 692.85,-69.64 677.4,-55.25 615.15,2.74 572.81,-36.01 489.4,-19.25 486.76,-18.72 484.01,-18.16 481.26,-17.59"/>
<polygon fill="#63b8ff" stroke="#63b8ff" points="482.08,-14.19 471.57,-15.57 480.65,-21.04 482.08,-14.19"/>
</a>
</g>
</g>
<!-- Node18&#45;&gt;Node10 -->
<g id="edge38_Node000018_Node000010" class="edge">
<title>Node18&#45;&gt;Node10</title>
<g id="a_edge38_Node000018_Node000010"><a xlink:title=" ">
<path fill="none" stroke="#63b8ff" d="M685.32,-110.33C677.57,-102.82 666.19,-91.81 656.71,-82.63"/>
<polygon fill="#63b8ff" stroke="#63b8ff" points="659.39,-80.35 649.77,-75.91 654.52,-85.38 659.39,-80.35"/>
</a>
</g>
</g>
<!-- Node18&#45;&gt;Node16 -->
<g id="edge34_Node000018_Node000016" class="edge">
<title>Node18&#45;&gt;Node16</title>
<g id="a_edge34_Node000018_Node000016"><a xlink:title=" ">
<path fill="none" stroke="#63b8ff" d="M672.86,-110.09C652.79,-101.68 622.6,-89.02 599.66,-79.4"/>
<polygon fill="#63b8ff" stroke="#63b8ff" points="601.02,-76.18 590.45,-75.54 598.32,-82.63 601.02,-76.18"/>
</a>
</g>
</g>
<!-- Node18&#45;&gt;Node17 -->
<g id="edge35_Node000018_Node000017" class="edge">
<title>Node18&#45;&gt;Node17</title>
<g id="a_edge35_Node000018_Node000017"><a xlink:title=" ">
<path fill="none" stroke="#63b8ff" d="M733.34,-110.02C767.56,-100.04 809.31,-81.84 791.4,-55.25 774.23,-29.75 739.73,-18.82 713.92,-14.13"/>
<polygon fill="#63b8ff" stroke="#63b8ff" points="714.68,-10.71 704.26,-12.62 713.6,-17.63 714.68,-10.71"/>
</a>
</g>
</g>
<!-- Node19 -->
<g id="Node000019" class="node">
<title>Node19</title>
<g id="a_Node000019"><a xlink:title=" ">
<polygon fill="#e0e0e0" stroke="#999999" points="782.78,-74.5 724.03,-74.5 724.03,-55.25 782.78,-55.25 782.78,-74.5"/>
<text text-anchor="middle" x="753.4" y="-61" font-family="Helvetica,sans-Serif" font-size="10.00">stdexcept</text>
</a>
</g>
</g>
<!-- Node18&#45;&gt;Node19 -->
<g id="edge37_Node000018_Node000019" class="edge">
<title>Node18&#45;&gt;Node19</title>
<g id="a_edge37_Node000018_Node000019"><a xlink:title=" ">
<path fill="none" stroke="#63b8ff" d="M704.41,-110.09C712.77,-102.55 724.9,-91.6 735,-82.48"/>
<polygon fill="#63b8ff" stroke="#63b8ff" points="737.34,-85.09 742.42,-75.79 732.65,-79.89 737.34,-85.09"/>
</a>
</g>
</g>
<!-- Node20&#45;&gt;Node3 -->
<g id="edge40_Node000020_Node000003" class="edge">
<title>Node20&#45;&gt;Node3</title>
<g id="a_edge40_Node000020_Node000003"><a xlink:title=" ">
<path fill="none" stroke="#63b8ff" d="M441.06,-110.25C442.33,-93 445.16,-54.58 446.92,-30.81"/>
<polygon fill="#63b8ff" stroke="#63b8ff" points="450.38,-31.37 447.63,-21.14 443.4,-30.85 450.38,-31.37"/>
</a>
</g>
</g>
<!-- Node20&#45;&gt;Node4 -->
<g id="edge41_Node000020_Node000004" class="edge">
<title>Node20&#45;&gt;Node4</title>
<g id="a_edge41_Node000020_Node000004"><a xlink:title=" ">
<path fill="none" stroke="#63b8ff" d="M429.48,-110.13C412.24,-96.36 377.19,-70.09 343.4,-55.25 294.45,-33.74 233.18,-21.25 196.78,-15.2"/>
<polygon fill="#63b8ff" stroke="#63b8ff" points="197.8,-11.82 187.38,-13.7 196.7,-18.74 197.8,-11.82"/>
</a>
</g>
</g>
<!-- Node20&#45;&gt;Node10 -->
<g id="edge42_Node000020_Node000010" class="edge">
<title>Node20&#45;&gt;Node10</title>
<g id="a_edge42_Node000020_Node000010"><a xlink:title=" ">
<path fill="none" stroke="#63b8ff" d="M474.16,-110.09C508.73,-100.84 562.47,-86.46 599.21,-76.63"/>
<polygon fill="#63b8ff" stroke="#63b8ff" points="599.81,-80.09 608.57,-74.13 598,-73.33 599.81,-80.09"/>
</a>
</g>
</g>
<!-- Node20&#45;&gt;Node12 -->
<g id="edge44_Node000020_Node000012" class="edge">
<title>Node20&#45;&gt;Node12</title>
<g id="a_edge44_Node000020_Node000012"><a xlink:title=" ">
<path fill="none" stroke="#63b8ff" d="M383.04,-110.04C330.43,-101.63 250.05,-88.6 170.56,-74.85"/>
<polygon fill="#63b8ff" stroke="#63b8ff" points="171.3,-71.42 160.85,-73.16 170.1,-78.32 171.3,-71.42"/>
</a>
</g>
</g>
<!-- Node20&#45;&gt;Node13 -->
<g id="edge45_Node000020_Node000013" class="edge">
<title>Node20&#45;&gt;Node13</title>
<g id="a_edge45_Node000020_Node000013"><a xlink:title=" ">
<path fill="none" stroke="#63b8ff" d="M400.96,-110.03C359.88,-100.56 295.7,-85.77 253.11,-75.95"/>
<polygon fill="#63b8ff" stroke="#63b8ff" points="253.98,-72.56 243.45,-73.72 252.4,-79.38 253.98,-72.56"/>
</a>
</g>
</g>
<!-- Node20&#45;&gt;Node14 -->
<g id="edge46_Node000020_Node000014" class="edge">
<title>Node20&#45;&gt;Node14</title>
<g id="a_edge46_Node000020_Node000014"><a xlink:title=" ">
<path fill="none" stroke="#63b8ff" d="M416.15,-110.09C393.14,-101.52 358.31,-88.56 332.32,-78.88"/>
<polygon fill="#63b8ff" stroke="#63b8ff" points="333.79,-75.69 323.2,-75.48 331.35,-82.25 333.79,-75.69"/>
</a>
</g>
</g>
<!-- Node20&#45;&gt;Node16 -->
<g id="edge43_Node000020_Node000016" class="edge">
<title>Node20&#45;&gt;Node16</title>
<g id="a_edge43_Node000020_Node000016"><a xlink:title=" ">
<path fill="none" stroke="#63b8ff" d="M461.95,-110.09C482.02,-101.68 512.21,-89.02 535.15,-79.4"/>
<polygon fill="#63b8ff" stroke="#63b8ff" points="536.49,-82.63 544.36,-75.54 533.78,-76.18 536.49,-82.63"/>
</a>
</g>
</g>
</g>
</svg>
