<?xml version="1.0" encoding="UTF-8" standalone="no"?>
<!DOCTYPE svg PUBLIC "-//W3C//DTD SVG 1.1//EN"
 "http://www.w3.org/Graphics/SVG/1.1/DTD/svg11.dtd">
<!-- Generated by graphviz version 12.2.1 (0)
 -->
<!-- Title: tests/maxflow_tests.cpp Pages: 1 -->
<svg width="944pt" height="193pt"
 viewBox="0.00 0.00 944.00 193.00" xmlns="http://www.w3.org/2000/svg" xmlns:xlink="http://www.w3.org/1999/xlink">
<g id="graph0" class="graph" transform="scale(1 1) rotate(0) translate(4 189)">
<title>tests/maxflow_tests.cpp</title>
<!-- Node1 -->
<g id="Node000001" class="node">
<title>Node1</title>
<g id="a_Node000001"><a xlink:title=" ">
<polygon fill="#999999" stroke="#666666" points="545.12,-185 421.88,-185 421.88,-165.75 545.12,-165.75 545.12,-185"/>
<text text-anchor="middle" x="483.5" y="-171.5" font-family="Helvetica,sans-Serif" font-size="10.00">tests/maxflow_tests.cpp</text>
</a>
</g>
</g>
<!-- Node2 -->
<g id="Node000002" class="node">
<title>Node2</title>
<g id="a_Node000002"><a xlink:title=" ">
<polygon fill="#e0e0e0" stroke="#999999" points="43,-129.75 0,-129.75 0,-110.5 43,-110.5 43,-129.75"/>
<text text-anchor="middle" x="21.5" y="-116.25" font-family="Helvetica,sans-Serif" font-size="10.00">cmath</text>
</a>
</g>
</g>
<!-- Node1&#45;&gt;Node2 -->
<g id="edge1_Node000001_Node000002" class="edge">
<title>Node1&#45;&gt;Node2</title>
<g id="a_edge1_Node000001_Node000002"><a xlink:title=" ">
<path fill="none" stroke="#63b8ff" d="M421.42,-170.43C338.17,-164.55 185.95,-151.77 57.5,-129.75 56.5,-129.58 55.49,-129.4 54.47,-129.2"/>
<polygon fill="#63b8ff" stroke="#63b8ff" points="55.48,-125.84 44.97,-127.19 54.03,-132.69 55.48,-125.84"/>
</a>
</g>
</g>
<!-- Node3 -->
<g id="Node000003" class="node">
<title>Node3</title>
<g id="a_Node000003"><a xlink:title=" ">
<polygon fill="#e0e0e0" stroke="#999999" points="157.5,-74.5 99.5,-74.5 99.5,-55.25 157.5,-55.25 157.5,-74.5"/>
<text text-anchor="middle" x="128.5" y="-61" font-family="Helvetica,sans-Serif" font-size="10.00">functional</text>
</a>
</g>
</g>
<!-- Node1&#45;&gt;Node3 -->
<g id="edge2_Node000001_Node000003" class="edge">
<title>Node1&#45;&gt;Node3</title>
<g id="a_edge2_Node000001_Node000003"><a xlink:title=" ">
<path fill="none" stroke="#63b8ff" d="M421.4,-170.72C344.47,-165.27 218.65,-153.06 178.5,-129.75 160.45,-119.27 146.54,-99.51 138.03,-84.74"/>
<polygon fill="#63b8ff" stroke="#63b8ff" points="141.13,-83.12 133.31,-75.97 134.97,-86.44 141.13,-83.12"/>
</a>
</g>
</g>
<!-- Node4 -->
<g id="Node000004" class="node">
<title>Node4</title>
<g id="a_Node000004"><a xlink:title=" ">
<polygon fill="#e0e0e0" stroke="#999999" points="420.25,-19.25 366.75,-19.25 366.75,0 420.25,0 420.25,-19.25"/>
<text text-anchor="middle" x="393.5" y="-5.75" font-family="Helvetica,sans-Serif" font-size="10.00">iostream</text>
</a>
</g>
</g>
<!-- Node1&#45;&gt;Node4 -->
<g id="edge3_Node000001_Node000004" class="edge">
<title>Node1&#45;&gt;Node4</title>
<g id="a_edge3_Node000001_Node000004"><a xlink:title=" ">
<path fill="none" stroke="#63b8ff" d="M471.23,-165.28C451.03,-149.45 411.4,-114.68 395.5,-74.5 390.05,-60.73 389.74,-43.95 390.69,-31.04"/>
<polygon fill="#63b8ff" stroke="#63b8ff" points="394.16,-31.51 391.76,-21.19 387.2,-30.76 394.16,-31.51"/>
</a>
</g>
</g>
<!-- Node5 -->
<g id="Node000005" class="node">
<title>Node5</title>
<g id="a_Node000005"><a xlink:title=" ">
<polygon fill="#e0e0e0" stroke="#999999" points="864.12,-129.75 812.88,-129.75 812.88,-110.5 864.12,-110.5 864.12,-129.75"/>
<text text-anchor="middle" x="838.5" y="-116.25" font-family="Helvetica,sans-Serif" font-size="10.00">sstream</text>
</a>
</g>
</g>
<!-- Node1&#45;&gt;Node5 -->
<g id="edge4_Node000001_Node000005" class="edge">
<title>Node1&#45;&gt;Node5</title>
<g id="a_edge4_Node000001_Node000005"><a xlink:title=" ">
<path fill="none" stroke="#63b8ff" d="M545.57,-166.92C609.25,-158.95 711.09,-145.34 798.5,-129.75 799.51,-129.57 800.53,-129.38 801.56,-129.19"/>
<polygon fill="#63b8ff" stroke="#63b8ff" points="802.12,-132.65 811.25,-127.26 800.76,-125.78 802.12,-132.65"/>
</a>
</g>
</g>
<!-- Node6 -->
<g id="Node000006" class="node">
<title>Node6</title>
<g id="a_Node000006"><a xlink:title=" ">
<polygon fill="#e0e0e0" stroke="#999999" points="233.88,-74.5 175.12,-74.5 175.12,-55.25 233.88,-55.25 233.88,-74.5"/>
<text text-anchor="middle" x="204.5" y="-61" font-family="Helvetica,sans-Serif" font-size="10.00">stdexcept</text>
</a>
</g>
</g>
<!-- Node1&#45;&gt;Node6 -->
<g id="edge5_Node000001_Node000006" class="edge">
<title>Node1&#45;&gt;Node6</title>
<g id="a_edge5_Node000001_Node000006"><a xlink:title=" ">
<path fill="none" stroke="#63b8ff" d="M421.47,-174.1C343.97,-172.28 217.93,-163.96 188.5,-129.75 177.69,-117.18 184.26,-98.35 191.99,-84.39"/>
<polygon fill="#63b8ff" stroke="#63b8ff" points="194.81,-86.49 197.07,-76.14 188.85,-82.82 194.81,-86.49"/>
</a>
</g>
</g>
<!-- Node7 -->
<g id="Node000007" class="node">
<title>Node7</title>
<g id="a_Node000007"><a xlink:title=" ">
<polygon fill="#e0e0e0" stroke="#999999" points="717.5,-19.25 677.5,-19.25 677.5,0 717.5,0 717.5,-19.25"/>
<text text-anchor="middle" x="697.5" y="-5.75" font-family="Helvetica,sans-Serif" font-size="10.00">string</text>
</a>
</g>
</g>
<!-- Node1&#45;&gt;Node7 -->
<g id="edge6_Node000001_Node000007" class="edge">
<title>Node1&#45;&gt;Node7</title>
<g id="a_edge6_Node000001_Node000007"><a xlink:title=" ">
<path fill="none" stroke="#63b8ff" d="M487.43,-165.55C497.84,-143.27 528.35,-84.44 572.5,-55.25 601.47,-36.1 639.65,-24.03 666.15,-17.34"/>
<polygon fill="#63b8ff" stroke="#63b8ff" points="666.71,-20.81 675.62,-15.08 665.08,-14 666.71,-20.81"/>
</a>
</g>
</g>
<!-- Node8 -->
<g id="Node000008" class="node">
<title>Node8</title>
<g id="a_Node000008"><a xlink:title=" ">
<polygon fill="#e0e0e0" stroke="#999999" points="921.12,-129.75 881.88,-129.75 881.88,-110.5 921.12,-110.5 921.12,-129.75"/>
<text text-anchor="middle" x="901.5" y="-116.25" font-family="Helvetica,sans-Serif" font-size="10.00">utility</text>
</a>
</g>
</g>
<!-- Node1&#45;&gt;Node8 -->
<g id="edge7_Node000001_Node000008" class="edge">
<title>Node1&#45;&gt;Node8</title>
<g id="a_edge7_Node000001_Node000008"><a xlink:title=" ">
<path fill="none" stroke="#63b8ff" d="M545.53,-170.83C620.61,-165.75 750.91,-154.41 870.28,-130.11"/>
<polygon fill="#63b8ff" stroke="#63b8ff" points="870.87,-133.56 879.95,-128.1 869.44,-126.71 870.87,-133.56"/>
</a>
</g>
</g>
<!-- Node9 -->
<g id="Node000009" class="node">
<title>Node9</title>
<g id="a_Node000009"><a xlink:title=" ">
<polygon fill="#e0e0e0" stroke="#999999" points="284,-19.25 241,-19.25 241,0 284,0 284,-19.25"/>
<text text-anchor="middle" x="262.5" y="-5.75" font-family="Helvetica,sans-Serif" font-size="10.00">vector</text>
</a>
</g>
</g>
<!-- Node1&#45;&gt;Node9 -->
<g id="edge8_Node000001_Node000009" class="edge">
<title>Node1&#45;&gt;Node9</title>
<g id="a_edge8_Node000001_Node000009"><a xlink:title=" ">
<path fill="none" stroke="#63b8ff" d="M421.71,-170.37C339.51,-164.31 199.12,-151.19 152.5,-129.75 118.97,-114.33 105.6,-108.18 90.5,-74.5 65.68,-19.14 172.99,-10.8 229.57,-10.16"/>
<polygon fill="#63b8ff" stroke="#63b8ff" points="229.3,-13.66 239.29,-10.13 229.28,-6.66 229.3,-13.66"/>
</a>
</g>
</g>
<!-- Node10 -->
<g id="Node000010" class="node">
<title>Node10</title>
<g id="a_Node000010"><a xlink:href="_graph_8h.html" target="_top" xlink:title=" ">
<polygon fill="white" stroke="#666666" points="525,-74.5 404,-74.5 404,-55.25 525,-55.25 525,-74.5"/>
<text text-anchor="middle" x="464.5" y="-61" font-family="Helvetica,sans-Serif" font-size="10.00">data_structures/Graph.h</text>
</a>
</g>
</g>
<!-- Node1&#45;&gt;Node10 -->
<g id="edge9_Node000001_Node000010" class="edge">
<title>Node1&#45;&gt;Node10</title>
<g id="a_edge9_Node000001_Node000010"><a xlink:title=" ">
<path fill="none" stroke="#63b8ff" d="M481.95,-165.5C478.93,-148.25 472.2,-109.83 468.04,-86.06"/>
<polygon fill="#63b8ff" stroke="#63b8ff" points="471.51,-85.61 466.34,-76.37 464.61,-86.82 471.51,-85.61"/>
</a>
</g>
</g>
<!-- Node14 -->
<g id="Node000014" class="node">
<title>Node14</title>
<g id="a_Node000014"><a xlink:href="_graph_builder_8h.html" target="_top" xlink:title=" ">
<polygon fill="white" stroke="#666666" points="680.62,-129.75 530.38,-129.75 530.38,-110.5 680.62,-110.5 680.62,-129.75"/>
<text text-anchor="middle" x="605.5" y="-116.25" font-family="Helvetica,sans-Serif" font-size="10.00">data_structures/GraphBuilder.h</text>
</a>
</g>
</g>
<!-- Node1&#45;&gt;Node14 -->
<g id="edge15_Node000001_Node000014" class="edge">
<title>Node1&#45;&gt;Node14</title>
<g id="a_edge15_Node000001_Node000014"><a xlink:title=" ">
<path fill="none" stroke="#63b8ff" d="M504.2,-165.34C523.39,-156.97 552.21,-144.38 574.22,-134.78"/>
<polygon fill="#63b8ff" stroke="#63b8ff" points="575.55,-138.02 583.32,-130.81 572.75,-131.6 575.55,-138.02"/>
</a>
</g>
</g>
<!-- Node15 -->
<g id="Node000015" class="node">
<title>Node15</title>
<g id="a_Node000015"><a xlink:href="_submission_8h.html" target="_top" xlink:title=" ">
<polygon fill="white" stroke="#666666" points="691.38,-74.5 581.62,-74.5 581.62,-55.25 691.38,-55.25 691.38,-74.5"/>
<text text-anchor="middle" x="636.5" y="-61" font-family="Helvetica,sans-Serif" font-size="10.00">models/Submission.h</text>
</a>
</g>
</g>
<!-- Node1&#45;&gt;Node15 -->
<g id="edge32_Node000001_Node000015" class="edge">
<title>Node1&#45;&gt;Node15</title>
<g id="a_edge32_Node000001_Node000015"><a xlink:title=" ">
<path fill="none" stroke="#63b8ff" d="M545.56,-169.38C599.47,-163.6 671.64,-151.9 689.5,-129.75 703.12,-112.86 682.39,-93.74 663,-80.86"/>
<polygon fill="#63b8ff" stroke="#63b8ff" points="665.08,-78.03 654.74,-75.71 661.37,-83.97 665.08,-78.03"/>
</a>
</g>
</g>
<!-- Node16 -->
<g id="Node000016" class="node">
<title>Node16</title>
<g id="a_Node000016"><a xlink:href="_reviewer_8h.html" target="_top" xlink:title=" ">
<polygon fill="white" stroke="#666666" points="809.12,-74.5 709.88,-74.5 709.88,-55.25 809.12,-55.25 809.12,-74.5"/>
<text text-anchor="middle" x="759.5" y="-61" font-family="Helvetica,sans-Serif" font-size="10.00">models/Reviewer.h</text>
</a>
</g>
</g>
<!-- Node1&#45;&gt;Node16 -->
<g id="edge31_Node000001_Node000016" class="edge">
<title>Node1&#45;&gt;Node16</title>
<g id="a_edge31_Node000001_Node000016"><a xlink:title=" ">
<path fill="none" stroke="#63b8ff" d="M545.32,-172.8C592.17,-169.14 656.59,-158.65 705.5,-129.75 724.01,-118.81 739.17,-99.16 748.67,-84.53"/>
<polygon fill="#63b8ff" stroke="#63b8ff" points="751.5,-86.61 753.75,-76.25 745.54,-82.94 751.5,-86.61"/>
</a>
</g>
</g>
<!-- Node17 -->
<g id="Node000017" class="node">
<title>Node17</title>
<g id="a_Node000017"><a xlink:href="_parameters_8h.html" target="_top" xlink:title=" ">
<polygon fill="white" stroke="#666666" points="936,-74.5 827,-74.5 827,-55.25 936,-55.25 936,-74.5"/>
<text text-anchor="middle" x="881.5" y="-61" font-family="Helvetica,sans-Serif" font-size="10.00">models/Parameters.h</text>
</a>
</g>
</g>
<!-- Node1&#45;&gt;Node17 -->
<g id="edge30_Node000001_Node000017" class="edge">
<title>Node1&#45;&gt;Node17</title>
<g id="a_edge30_Node000001_Node000017"><a xlink:title=" ">
<path fill="none" stroke="#63b8ff" d="M545.54,-167.04C596.04,-160.16 668.79,-148.13 730.5,-129.75 774.96,-116.51 824.02,-94.24 853.79,-79.8"/>
<polygon fill="#63b8ff" stroke="#63b8ff" points="855.05,-83.08 862.49,-75.53 851.97,-76.8 855.05,-83.08"/>
</a>
</g>
</g>
<!-- Node18 -->
<g id="Node000018" class="node">
<title>Node18</title>
<g id="a_Node000018"><a xlink:href="_edmond_karp_8h.html" target="_top" xlink:title="Implementations of the Edmonds&#45;Karp algorithm for calculating maximum flow.">
<polygon fill="white" stroke="#666666" points="325.75,-129.75 197.25,-129.75 197.25,-110.5 325.75,-110.5 325.75,-129.75"/>
<text text-anchor="middle" x="261.5" y="-116.25" font-family="Helvetica,sans-Serif" font-size="10.00">algorithms/EdmondKarp.h</text>
</a>
</g>
</g>
<!-- Node1&#45;&gt;Node18 -->
<g id="edge24_Node000001_Node000018" class="edge">
<title>Node1&#45;&gt;Node18</title>
<g id="a_edge24_Node000001_Node000018"><a xlink:title=" ">
<path fill="none" stroke="#63b8ff" d="M445.59,-165.28C408.23,-156.32 351,-142.59 310.27,-132.82"/>
<polygon fill="#63b8ff" stroke="#63b8ff" points="311.27,-129.46 300.73,-130.53 309.63,-136.27 311.27,-129.46"/>
</a>
</g>
</g>
<!-- Node10&#45;&gt;Node4 -->
<g id="edge10_Node000010_Node000004" class="edge">
<title>Node10&#45;&gt;Node4</title>
<g id="a_edge10_Node000010_Node000004"><a xlink:title=" ">
<path fill="none" stroke="#63b8ff" d="M452.46,-54.84C442.09,-47.07 426.9,-35.67 414.53,-26.4"/>
<polygon fill="#63b8ff" stroke="#63b8ff" points="416.68,-23.63 406.58,-20.43 412.48,-29.23 416.68,-23.63"/>
</a>
</g>
</g>
<!-- Node10&#45;&gt;Node9 -->
<g id="edge11_Node000010_Node000009" class="edge">
<title>Node10&#45;&gt;Node9</title>
<g id="a_edge11_Node000010_Node000009"><a xlink:title=" ">
<path fill="none" stroke="#63b8ff" d="M430.23,-54.84C392.49,-44.89 332.24,-29.01 295.15,-19.23"/>
<polygon fill="#63b8ff" stroke="#63b8ff" points="296.46,-15.96 285.9,-16.79 294.68,-22.73 296.46,-15.96"/>
</a>
</g>
</g>
<!-- Node11 -->
<g id="Node000011" class="node">
<title>Node11</title>
<g id="a_Node000011"><a xlink:title=" ">
<polygon fill="#e0e0e0" stroke="#999999" points="347.62,-19.25 305.38,-19.25 305.38,0 347.62,0 347.62,-19.25"/>
<text text-anchor="middle" x="326.5" y="-5.75" font-family="Helvetica,sans-Serif" font-size="10.00">queue</text>
</a>
</g>
</g>
<!-- Node10&#45;&gt;Node11 -->
<g id="edge12_Node000010_Node000011" class="edge">
<title>Node10&#45;&gt;Node11</title>
<g id="a_edge12_Node000010_Node000011"><a xlink:title=" ">
<path fill="none" stroke="#63b8ff" d="M441.09,-54.84C418.32,-46.05 383.55,-32.64 358.28,-22.89"/>
<polygon fill="#63b8ff" stroke="#63b8ff" points="359.76,-19.71 349.17,-19.37 357.24,-26.24 359.76,-19.71"/>
</a>
</g>
</g>
<!-- Node12 -->
<g id="Node000012" class="node">
<title>Node12</title>
<g id="a_Node000012"><a xlink:title=" ">
<polygon fill="#e0e0e0" stroke="#999999" points="478.12,-19.25 438.88,-19.25 438.88,0 478.12,0 478.12,-19.25"/>
<text text-anchor="middle" x="458.5" y="-5.75" font-family="Helvetica,sans-Serif" font-size="10.00">limits</text>
</a>
</g>
</g>
<!-- Node10&#45;&gt;Node12 -->
<g id="edge13_Node000010_Node000012" class="edge">
<title>Node10&#45;&gt;Node12</title>
<g id="a_edge13_Node000010_Node000012"><a xlink:title=" ">
<path fill="none" stroke="#63b8ff" d="M463.51,-55.08C462.77,-48.49 461.72,-39.21 460.78,-30.82"/>
<polygon fill="#63b8ff" stroke="#63b8ff" points="464.28,-30.66 459.68,-21.11 457.32,-31.44 464.28,-30.66"/>
</a>
</g>
</g>
<!-- Node13 -->
<g id="Node000013" class="node">
<title>Node13</title>
<g id="a_Node000013"><a xlink:title=" ">
<polygon fill="#e0e0e0" stroke="#999999" points="552.38,-19.25 496.62,-19.25 496.62,0 552.38,0 552.38,-19.25"/>
<text text-anchor="middle" x="524.5" y="-5.75" font-family="Helvetica,sans-Serif" font-size="10.00">algorithm</text>
</a>
</g>
</g>
<!-- Node10&#45;&gt;Node13 -->
<g id="edge14_Node000010_Node000013" class="edge">
<title>Node10&#45;&gt;Node13</title>
<g id="a_edge14_Node000010_Node000013"><a xlink:title=" ">
<path fill="none" stroke="#63b8ff" d="M474.68,-54.84C483.26,-47.22 495.77,-36.12 506.1,-26.95"/>
<polygon fill="#63b8ff" stroke="#63b8ff" points="508.18,-29.79 513.34,-20.53 503.54,-24.55 508.18,-29.79"/>
</a>
</g>
</g>
<!-- Node14&#45;&gt;Node9 -->
<g id="edge23_Node000014_Node000009" class="edge">
<title>Node14&#45;&gt;Node9</title>
<g id="a_edge23_Node000014_Node000009"><a xlink:title=" ">
<path fill="none" stroke="#63b8ff" d="M543.81,-110C501.4,-102.77 444.18,-91.1 395.5,-74.5 356.5,-61.21 314.01,-39.4 287.8,-25.03"/>
<polygon fill="#63b8ff" stroke="#63b8ff" points="289.72,-22.09 279.28,-20.29 286.32,-28.21 289.72,-22.09"/>
</a>
</g>
</g>
<!-- Node14&#45;&gt;Node10 -->
<g id="edge16_Node000014_Node000010" class="edge">
<title>Node14&#45;&gt;Node10</title>
<g id="a_edge16_Node000014_Node000010"><a xlink:title=" ">
<path fill="none" stroke="#63b8ff" d="M581.58,-110.09C559,-101.56 524.86,-88.67 499.27,-79.01"/>
<polygon fill="#63b8ff" stroke="#63b8ff" points="500.54,-75.75 489.95,-75.49 498.07,-82.29 500.54,-75.75"/>
</a>
</g>
</g>
<!-- Node14&#45;&gt;Node15 -->
<g id="edge17_Node000014_Node000015" class="edge">
<title>Node14&#45;&gt;Node15</title>
<g id="a_edge17_Node000014_Node000015"><a xlink:title=" ">
<path fill="none" stroke="#63b8ff" d="M610.62,-110.33C614.68,-103.36 620.49,-93.37 625.59,-84.62"/>
<polygon fill="#63b8ff" stroke="#63b8ff" points="628.5,-86.57 630.51,-76.17 622.45,-83.05 628.5,-86.57"/>
</a>
</g>
</g>
<!-- Node14&#45;&gt;Node16 -->
<g id="edge19_Node000014_Node000016" class="edge">
<title>Node14&#45;&gt;Node16</title>
<g id="a_edge19_Node000014_Node000016"><a xlink:title=" ">
<path fill="none" stroke="#63b8ff" d="M631.62,-110.09C656.62,-101.45 694.58,-88.32 722.65,-78.62"/>
<polygon fill="#63b8ff" stroke="#63b8ff" points="723.51,-82.02 731.82,-75.45 721.22,-75.41 723.51,-82.02"/>
</a>
</g>
</g>
<!-- Node14&#45;&gt;Node17 -->
<g id="edge21_Node000014_Node000017" class="edge">
<title>Node14&#45;&gt;Node17</title>
<g id="a_edge21_Node000014_Node000017"><a xlink:title=" ">
<path fill="none" stroke="#63b8ff" d="M652.63,-110.03C699.87,-100.92 772.67,-86.87 823.44,-77.08"/>
<polygon fill="#63b8ff" stroke="#63b8ff" points="823.92,-80.55 833.08,-75.22 822.59,-73.68 823.92,-80.55"/>
</a>
</g>
</g>
<!-- Node15&#45;&gt;Node7 -->
<g id="edge18_Node000015_Node000007" class="edge">
<title>Node15&#45;&gt;Node7</title>
<g id="a_edge18_Node000015_Node000007"><a xlink:title=" ">
<path fill="none" stroke="#63b8ff" d="M646.85,-54.84C655.58,-47.22 668.29,-36.12 678.8,-26.95"/>
<polygon fill="#63b8ff" stroke="#63b8ff" points="680.93,-29.73 686.16,-20.52 676.33,-24.46 680.93,-29.73"/>
</a>
</g>
</g>
<!-- Node16&#45;&gt;Node7 -->
<g id="edge20_Node000016_Node000007" class="edge">
<title>Node16&#45;&gt;Node7</title>
<g id="a_edge20_Node000016_Node000007"><a xlink:title=" ">
<path fill="none" stroke="#63b8ff" d="M748.98,-54.84C740.11,-47.22 727.19,-36.12 716.51,-26.95"/>
<polygon fill="#63b8ff" stroke="#63b8ff" points="718.88,-24.37 709.01,-20.51 714.32,-29.68 718.88,-24.37"/>
</a>
</g>
</g>
<!-- Node17&#45;&gt;Node7 -->
<g id="edge22_Node000017_Node000007" class="edge">
<title>Node17&#45;&gt;Node7</title>
<g id="a_edge22_Node000017_Node000007"><a xlink:title=" ">
<path fill="none" stroke="#63b8ff" d="M850.29,-54.84C816.3,-45 762.27,-29.37 728.4,-19.57"/>
<polygon fill="#63b8ff" stroke="#63b8ff" points="729.78,-16.32 719.2,-16.9 727.83,-23.05 729.78,-16.32"/>
</a>
</g>
</g>
<!-- Node18&#45;&gt;Node3 -->
<g id="edge29_Node000018_Node000003" class="edge">
<title>Node18&#45;&gt;Node3</title>
<g id="a_edge29_Node000018_Node000003"><a xlink:title=" ">
<path fill="none" stroke="#63b8ff" d="M238.94,-110.09C217.73,-101.6 185.73,-88.79 161.62,-79.14"/>
<polygon fill="#63b8ff" stroke="#63b8ff" points="163.16,-75.98 152.58,-75.52 160.56,-82.48 163.16,-75.98"/>
</a>
</g>
</g>
<!-- Node18&#45;&gt;Node6 -->
<g id="edge28_Node000018_Node000006" class="edge">
<title>Node18&#45;&gt;Node6</title>
<g id="a_edge28_Node000018_Node000006"><a xlink:title=" ">
<path fill="none" stroke="#63b8ff" d="M251.83,-110.09C243.76,-102.55 232.03,-91.6 222.28,-82.48"/>
<polygon fill="#63b8ff" stroke="#63b8ff" points="224.83,-80.08 215.13,-75.81 220.05,-85.19 224.83,-80.08"/>
</a>
</g>
</g>
<!-- Node18&#45;&gt;Node9 -->
<g id="edge27_Node000018_Node000009" class="edge">
<title>Node18&#45;&gt;Node9</title>
<g id="a_edge27_Node000018_Node000009"><a xlink:title=" ">
<path fill="none" stroke="#63b8ff" d="M261.58,-110.25C261.74,-93 262.09,-54.58 262.31,-30.81"/>
<polygon fill="#63b8ff" stroke="#63b8ff" points="265.81,-31.17 262.4,-21.14 258.81,-31.11 265.81,-31.17"/>
</a>
</g>
</g>
<!-- Node18&#45;&gt;Node10 -->
<g id="edge25_Node000018_Node000010" class="edge">
<title>Node18&#45;&gt;Node10</title>
<g id="a_edge25_Node000018_Node000010"><a xlink:title=" ">
<path fill="none" stroke="#63b8ff" d="M295.94,-110.09C329.77,-101.22 381.59,-87.62 418.84,-77.85"/>
<polygon fill="#63b8ff" stroke="#63b8ff" points="419.65,-81.26 428.43,-75.34 417.87,-74.49 419.65,-81.26"/>
</a>
</g>
</g>
<!-- Node18&#45;&gt;Node11 -->
<g id="edge26_Node000018_Node000011" class="edge">
<title>Node18&#45;&gt;Node11</title>
<g id="a_edge26_Node000018_Node000011"><a xlink:title=" ">
<path fill="none" stroke="#63b8ff" d="M266.82,-110.25C277.39,-92.6 301.23,-52.8 315.37,-29.2"/>
<polygon fill="#63b8ff" stroke="#63b8ff" points="318.19,-31.3 320.33,-20.93 312.19,-27.7 318.19,-31.3"/>
</a>
</g>
</g>
</g>
</svg>
