<?xml version="1.0" encoding="UTF-8" standalone="no"?>
<!DOCTYPE svg PUBLIC "-//W3C//DTD SVG 1.1//EN"
 "http://www.w3.org/Graphics/SVG/1.1/DTD/svg11.dtd">
<!-- Generated by graphviz version 12.2.1 (0)
 -->
<!-- Title: tests/maxflow_tests.cpp Pages: 1 -->
<svg width="944pt" height="196pt"
 viewBox="0.00 0.00 944.00 196.00" xmlns="http://www.w3.org/2000/svg" xmlns:xlink="http://www.w3.org/1999/xlink">
<g id="graph0" class="graph" transform="scale(1 1) rotate(0) translate(4 192)">
<title>tests/maxflow_tests.cpp</title>
<!-- Node1 -->
<g id="Node000001" class="node">
<title>Node1</title>
<g id="a_Node000001"><a xlink:title=" ">
<polygon fill="#999999" stroke="#666666" points="545.12,-188 421.88,-188 421.88,-168 545.12,-168 545.12,-188"/>
<text text-anchor="middle" x="483.5" y="-174.5" font-family="Helvetica,sans-Serif" font-size="10.00">tests/maxflow_tests.cpp</text>
</a>
</g>
</g>
<!-- Node2 -->
<g id="Node000002" class="node">
<title>Node2</title>
<g id="a_Node000002"><a xlink:title=" ">
<polygon fill="#e0e0e0" stroke="#999999" points="43,-132 0,-132 0,-112 43,-112 43,-132"/>
<text text-anchor="middle" x="21.5" y="-118.5" font-family="Helvetica,sans-Serif" font-size="10.00">cmath</text>
</a>
</g>
</g>
<!-- Node1&#45;&gt;Node2 -->
<g id="edge1_Node000001_Node000002" class="edge">
<title>Node1&#45;&gt;Node2</title>
<g id="a_edge1_Node000001_Node000002"><a xlink:title=" ">
<path fill="none" stroke="#63b8ff" d="M421.39,-173.17C338.1,-167.41 185.84,-154.71 57.5,-132 56.5,-131.82 55.49,-131.63 54.47,-131.43"/>
<polygon fill="#63b8ff" stroke="#63b8ff" points="55.48,-128.07 44.96,-129.34 53.97,-134.91 55.48,-128.07"/>
</a>
</g>
</g>
<!-- Node3 -->
<g id="Node000003" class="node">
<title>Node3</title>
<g id="a_Node000003"><a xlink:title=" ">
<polygon fill="#e0e0e0" stroke="#999999" points="157.5,-76 99.5,-76 99.5,-56 157.5,-56 157.5,-76"/>
<text text-anchor="middle" x="128.5" y="-62.5" font-family="Helvetica,sans-Serif" font-size="10.00">functional</text>
</a>
</g>
</g>
<!-- Node1&#45;&gt;Node3 -->
<g id="edge2_Node000001_Node000003" class="edge">
<title>Node1&#45;&gt;Node3</title>
<g id="a_edge2_Node000001_Node000003"><a xlink:title=" ">
<path fill="none" stroke="#63b8ff" d="M421.7,-173.34C344.77,-167.85 218.6,-155.54 178.5,-132 160.32,-121.33 146.44,-101.26 137.98,-86.23"/>
<polygon fill="#63b8ff" stroke="#63b8ff" points="141.25,-84.93 133.49,-77.72 135.06,-88.2 141.25,-84.93"/>
</a>
</g>
</g>
<!-- Node4 -->
<g id="Node000004" class="node">
<title>Node4</title>
<g id="a_Node000004"><a xlink:title=" ">
<polygon fill="#e0e0e0" stroke="#999999" points="420.25,-20 366.75,-20 366.75,0 420.25,0 420.25,-20"/>
<text text-anchor="middle" x="393.5" y="-6.5" font-family="Helvetica,sans-Serif" font-size="10.00">iostream</text>
</a>
</g>
</g>
<!-- Node1&#45;&gt;Node4 -->
<g id="edge3_Node000001_Node000004" class="edge">
<title>Node1&#45;&gt;Node4</title>
<g id="a_edge3_Node000001_Node000004"><a xlink:title=" ">
<path fill="none" stroke="#63b8ff" d="M470.9,-167.51C450.59,-151.34 411.29,-116.27 395.5,-76 389.94,-61.82 389.68,-44.54 390.69,-31.36"/>
<polygon fill="#63b8ff" stroke="#63b8ff" points="394.13,-32.04 391.74,-21.72 387.17,-31.28 394.13,-32.04"/>
</a>
</g>
</g>
<!-- Node5 -->
<g id="Node000005" class="node">
<title>Node5</title>
<g id="a_Node000005"><a xlink:title=" ">
<polygon fill="#e0e0e0" stroke="#999999" points="864.12,-132 812.88,-132 812.88,-112 864.12,-112 864.12,-132"/>
<text text-anchor="middle" x="838.5" y="-118.5" font-family="Helvetica,sans-Serif" font-size="10.00">sstream</text>
</a>
</g>
</g>
<!-- Node1&#45;&gt;Node5 -->
<g id="edge4_Node000001_Node000005" class="edge">
<title>Node1&#45;&gt;Node5</title>
<g id="a_edge4_Node000001_Node000005"><a xlink:title=" ">
<path fill="none" stroke="#63b8ff" d="M545.6,-169.61C609.3,-161.68 711.16,-148.04 798.5,-132 799.51,-131.81 800.53,-131.62 801.57,-131.42"/>
<polygon fill="#63b8ff" stroke="#63b8ff" points="802.17,-134.87 811.26,-129.42 800.76,-128.02 802.17,-134.87"/>
</a>
</g>
</g>
<!-- Node6 -->
<g id="Node000006" class="node">
<title>Node6</title>
<g id="a_Node000006"><a xlink:title=" ">
<polygon fill="#e0e0e0" stroke="#999999" points="233.88,-76 175.12,-76 175.12,-56 233.88,-56 233.88,-76"/>
<text text-anchor="middle" x="204.5" y="-62.5" font-family="Helvetica,sans-Serif" font-size="10.00">stdexcept</text>
</a>
</g>
</g>
<!-- Node1&#45;&gt;Node6 -->
<g id="edge5_Node000001_Node000006" class="edge">
<title>Node1&#45;&gt;Node6</title>
<g id="a_edge5_Node000001_Node000006"><a xlink:title=" ">
<path fill="none" stroke="#63b8ff" d="M421.46,-176.64C343.96,-174.72 217.91,-166.24 188.5,-132 177.52,-119.21 184.11,-100.05 191.9,-85.84"/>
<polygon fill="#63b8ff" stroke="#63b8ff" points="194.81,-87.79 197.02,-77.42 188.83,-84.15 194.81,-87.79"/>
</a>
</g>
</g>
<!-- Node7 -->
<g id="Node000007" class="node">
<title>Node7</title>
<g id="a_Node000007"><a xlink:title=" ">
<polygon fill="#e0e0e0" stroke="#999999" points="717.5,-20 677.5,-20 677.5,0 717.5,0 717.5,-20"/>
<text text-anchor="middle" x="697.5" y="-6.5" font-family="Helvetica,sans-Serif" font-size="10.00">string</text>
</a>
</g>
</g>
<!-- Node1&#45;&gt;Node7 -->
<g id="edge6_Node000001_Node000007" class="edge">
<title>Node1&#45;&gt;Node7</title>
<g id="a_edge6_Node000001_Node000007"><a xlink:title=" ">
<path fill="none" stroke="#63b8ff" d="M487.55,-167.71C498.01,-144.84 528.26,-85.55 572.5,-56 601.4,-36.7 639.6,-24.53 666.12,-17.78"/>
<polygon fill="#63b8ff" stroke="#63b8ff" points="666.7,-21.24 675.59,-15.49 665.05,-14.44 666.7,-21.24"/>
</a>
</g>
</g>
<!-- Node8 -->
<g id="Node000008" class="node">
<title>Node8</title>
<g id="a_Node000008"><a xlink:title=" ">
<polygon fill="#e0e0e0" stroke="#999999" points="921.12,-132 881.88,-132 881.88,-112 921.12,-112 921.12,-132"/>
<text text-anchor="middle" x="901.5" y="-118.5" font-family="Helvetica,sans-Serif" font-size="10.00">utility</text>
</a>
</g>
</g>
<!-- Node1&#45;&gt;Node8 -->
<g id="edge7_Node000001_Node000008" class="edge">
<title>Node1&#45;&gt;Node8</title>
<g id="a_edge7_Node000001_Node000008"><a xlink:title=" ">
<path fill="none" stroke="#63b8ff" d="M545.58,-173.6C620.7,-168.66 751.06,-157.41 870.31,-132.36"/>
<polygon fill="#63b8ff" stroke="#63b8ff" points="870.92,-135.8 879.96,-130.29 869.45,-128.96 870.92,-135.8"/>
</a>
</g>
</g>
<!-- Node9 -->
<g id="Node000009" class="node">
<title>Node9</title>
<g id="a_Node000009"><a xlink:title=" ">
<polygon fill="#e0e0e0" stroke="#999999" points="284,-20 241,-20 241,0 284,0 284,-20"/>
<text text-anchor="middle" x="262.5" y="-6.5" font-family="Helvetica,sans-Serif" font-size="10.00">vector</text>
</a>
</g>
</g>
<!-- Node1&#45;&gt;Node9 -->
<g id="edge8_Node000001_Node000009" class="edge">
<title>Node1&#45;&gt;Node9</title>
<g id="a_edge8_Node000001_Node000009"><a xlink:title=" ">
<path fill="none" stroke="#63b8ff" d="M421.69,-172.97C339.46,-166.86 199.05,-153.62 152.5,-132 118.82,-116.36 105.58,-109.93 90.5,-76 65.81,-20.44 173.06,-11.57 229.59,-10.67"/>
<polygon fill="#63b8ff" stroke="#63b8ff" points="229.33,-14.18 239.31,-10.6 229.28,-7.18 229.33,-14.18"/>
</a>
</g>
</g>
<!-- Node10 -->
<g id="Node000010" class="node">
<title>Node10</title>
<g id="a_Node000010"><a xlink:href="Graph_8h.html" target="_top" xlink:title=" ">
<polygon fill="white" stroke="#666666" points="525,-76 404,-76 404,-56 525,-56 525,-76"/>
<text text-anchor="middle" x="464.5" y="-62.5" font-family="Helvetica,sans-Serif" font-size="10.00">data_structures/Graph.h</text>
</a>
</g>
</g>
<!-- Node1&#45;&gt;Node10 -->
<g id="edge9_Node000001_Node000010" class="edge">
<title>Node1&#45;&gt;Node10</title>
<g id="a_edge9_Node000001_Node000010"><a xlink:title=" ">
<path fill="none" stroke="#63b8ff" d="M481.88,-167.62C478.84,-150.01 472.2,-111.59 468.07,-87.65"/>
<polygon fill="#63b8ff" stroke="#63b8ff" points="471.52,-87.1 466.37,-77.85 464.63,-88.3 471.52,-87.1"/>
</a>
</g>
</g>
<!-- Node14 -->
<g id="Node000014" class="node">
<title>Node14</title>
<g id="a_Node000014"><a xlink:href="GraphBuilder_8h.html" target="_top" xlink:title=" ">
<polygon fill="white" stroke="#666666" points="680.62,-132 530.38,-132 530.38,-112 680.62,-112 680.62,-132"/>
<text text-anchor="middle" x="605.5" y="-118.5" font-family="Helvetica,sans-Serif" font-size="10.00">data_structures/GraphBuilder.h</text>
</a>
</g>
</g>
<!-- Node1&#45;&gt;Node14 -->
<g id="edge15_Node000001_Node000014" class="edge">
<title>Node1&#45;&gt;Node14</title>
<g id="a_edge15_Node000001_Node000014"><a xlink:title=" ">
<path fill="none" stroke="#63b8ff" d="M504.75,-167.59C523.79,-159.17 551.98,-146.69 573.7,-137.07"/>
<polygon fill="#63b8ff" stroke="#63b8ff" points="574.97,-140.34 582.7,-133.09 572.14,-133.94 574.97,-140.34"/>
</a>
</g>
</g>
<!-- Node15 -->
<g id="Node000015" class="node">
<title>Node15</title>
<g id="a_Node000015"><a xlink:href="Submission_8h.html" target="_top" xlink:title=" ">
<polygon fill="white" stroke="#666666" points="691.38,-76 581.62,-76 581.62,-56 691.38,-56 691.38,-76"/>
<text text-anchor="middle" x="636.5" y="-62.5" font-family="Helvetica,sans-Serif" font-size="10.00">models/Submission.h</text>
</a>
</g>
</g>
<!-- Node1&#45;&gt;Node15 -->
<g id="edge32_Node000001_Node000015" class="edge">
<title>Node1&#45;&gt;Node15</title>
<g id="a_edge32_Node000001_Node000015"><a xlink:title=" ">
<path fill="none" stroke="#63b8ff" d="M545.56,-171.89C599.48,-166.01 671.65,-154.17 689.5,-132 703.17,-115.02 682.73,-95.67 663.39,-82.53"/>
<polygon fill="#63b8ff" stroke="#63b8ff" points="665.45,-79.69 655.14,-77.26 661.68,-85.59 665.45,-79.69"/>
</a>
</g>
</g>
<!-- Node16 -->
<g id="Node000016" class="node">
<title>Node16</title>
<g id="a_Node000016"><a xlink:href="Reviewer_8h.html" target="_top" xlink:title=" ">
<polygon fill="white" stroke="#666666" points="809.12,-76 709.88,-76 709.88,-56 809.12,-56 809.12,-76"/>
<text text-anchor="middle" x="759.5" y="-62.5" font-family="Helvetica,sans-Serif" font-size="10.00">models/Reviewer.h</text>
</a>
</g>
</g>
<!-- Node1&#45;&gt;Node16 -->
<g id="edge31_Node000001_Node000016" class="edge">
<title>Node1&#45;&gt;Node16</title>
<g id="a_edge31_Node000001_Node000016"><a xlink:title=" ">
<path fill="none" stroke="#63b8ff" d="M545.4,-175.42C592.28,-171.74 656.72,-161.16 705.5,-132 724.14,-120.85 739.29,-100.86 748.74,-85.98"/>
<polygon fill="#63b8ff" stroke="#63b8ff" points="751.66,-87.92 753.81,-77.54 745.66,-84.31 751.66,-87.92"/>
</a>
</g>
</g>
<!-- Node17 -->
<g id="Node000017" class="node">
<title>Node17</title>
<g id="a_Node000017"><a xlink:href="Parameters_8h.html" target="_top" xlink:title=" ">
<polygon fill="white" stroke="#666666" points="936,-76 827,-76 827,-56 936,-56 936,-76"/>
<text text-anchor="middle" x="881.5" y="-62.5" font-family="Helvetica,sans-Serif" font-size="10.00">models/Parameters.h</text>
</a>
</g>
</g>
<!-- Node1&#45;&gt;Node17 -->
<g id="edge30_Node000001_Node000017" class="edge">
<title>Node1&#45;&gt;Node17</title>
<g id="a_edge30_Node000001_Node000017"><a xlink:title=" ">
<path fill="none" stroke="#63b8ff" d="M545.57,-169.66C596.09,-162.74 668.85,-150.62 730.5,-132 774.79,-118.62 823.53,-96.13 853.33,-81.42"/>
<polygon fill="#63b8ff" stroke="#63b8ff" points="854.67,-84.66 862.05,-77.06 851.54,-78.4 854.67,-84.66"/>
</a>
</g>
</g>
<!-- Node18 -->
<g id="Node000018" class="node">
<title>Node18</title>
<g id="a_Node000018"><a xlink:href="EdmondKarp_8h.html" target="_top" xlink:title="Implementations of the Edmonds&#45;Karp algorithm for calculating maximum flow.">
<polygon fill="white" stroke="#666666" points="325.75,-132 197.25,-132 197.25,-112 325.75,-112 325.75,-132"/>
<text text-anchor="middle" x="261.5" y="-118.5" font-family="Helvetica,sans-Serif" font-size="10.00">algorithms/EdmondKarp.h</text>
</a>
</g>
</g>
<!-- Node1&#45;&gt;Node18 -->
<g id="edge24_Node000001_Node000018" class="edge">
<title>Node1&#45;&gt;Node18</title>
<g id="a_edge24_Node000001_Node000018"><a xlink:title=" ">
<path fill="none" stroke="#63b8ff" d="M444.58,-167.53C407.6,-158.54 351.82,-144.97 311.56,-135.18"/>
<polygon fill="#63b8ff" stroke="#63b8ff" points="312.39,-131.78 301.85,-132.81 310.74,-138.58 312.39,-131.78"/>
</a>
</g>
</g>
<!-- Node10&#45;&gt;Node4 -->
<g id="edge10_Node000010_Node000004" class="edge">
<title>Node10&#45;&gt;Node4</title>
<g id="a_edge10_Node000010_Node000004"><a xlink:title=" ">
<path fill="none" stroke="#63b8ff" d="M452.13,-55.59C441.85,-47.77 426.98,-36.46 414.79,-27.19"/>
<polygon fill="#63b8ff" stroke="#63b8ff" points="417.01,-24.48 406.93,-21.21 412.77,-30.05 417.01,-24.48"/>
</a>
</g>
</g>
<!-- Node10&#45;&gt;Node9 -->
<g id="edge11_Node000010_Node000009" class="edge">
<title>Node10&#45;&gt;Node9</title>
<g id="a_edge11_Node000010_Node000009"><a xlink:title=" ">
<path fill="none" stroke="#63b8ff" d="M429.31,-55.59C391.58,-45.51 332.12,-29.61 295.32,-19.77"/>
<polygon fill="#63b8ff" stroke="#63b8ff" points="296.25,-16.4 285.69,-17.2 294.44,-23.16 296.25,-16.4"/>
</a>
</g>
</g>
<!-- Node11 -->
<g id="Node000011" class="node">
<title>Node11</title>
<g id="a_Node000011"><a xlink:title=" ">
<polygon fill="#e0e0e0" stroke="#999999" points="347.62,-20 305.38,-20 305.38,0 347.62,0 347.62,-20"/>
<text text-anchor="middle" x="326.5" y="-6.5" font-family="Helvetica,sans-Serif" font-size="10.00">queue</text>
</a>
</g>
</g>
<!-- Node10&#45;&gt;Node11 -->
<g id="edge12_Node000010_Node000011" class="edge">
<title>Node10&#45;&gt;Node11</title>
<g id="a_edge12_Node000010_Node000011"><a xlink:title=" ">
<path fill="none" stroke="#63b8ff" d="M440.46,-55.59C417.73,-46.7 383.45,-33.29 358.43,-23.49"/>
<polygon fill="#63b8ff" stroke="#63b8ff" points="359.99,-20.35 349.41,-19.96 357.44,-26.87 359.99,-20.35"/>
</a>
</g>
</g>
<!-- Node12 -->
<g id="Node000012" class="node">
<title>Node12</title>
<g id="a_Node000012"><a xlink:title=" ">
<polygon fill="#e0e0e0" stroke="#999999" points="478.12,-20 438.88,-20 438.88,0 478.12,0 478.12,-20"/>
<text text-anchor="middle" x="458.5" y="-6.5" font-family="Helvetica,sans-Serif" font-size="10.00">limits</text>
</a>
</g>
</g>
<!-- Node10&#45;&gt;Node12 -->
<g id="edge13_Node000010_Node000012" class="edge">
<title>Node10&#45;&gt;Node12</title>
<g id="a_edge13_Node000010_Node000012"><a xlink:title=" ">
<path fill="none" stroke="#63b8ff" d="M463.45,-55.59C462.72,-49.01 461.72,-39.96 460.8,-31.73"/>
<polygon fill="#63b8ff" stroke="#63b8ff" points="464.28,-31.35 459.7,-21.8 457.33,-32.13 464.28,-31.35"/>
</a>
</g>
</g>
<!-- Node13 -->
<g id="Node000013" class="node">
<title>Node13</title>
<g id="a_Node000013"><a xlink:title=" ">
<polygon fill="#e0e0e0" stroke="#999999" points="552.38,-20 496.62,-20 496.62,0 552.38,0 552.38,-20"/>
<text text-anchor="middle" x="524.5" y="-6.5" font-family="Helvetica,sans-Serif" font-size="10.00">algorithm</text>
</a>
</g>
</g>
<!-- Node10&#45;&gt;Node13 -->
<g id="edge14_Node000010_Node000013" class="edge">
<title>Node10&#45;&gt;Node13</title>
<g id="a_edge14_Node000010_Node000013"><a xlink:title=" ">
<path fill="none" stroke="#63b8ff" d="M474.95,-55.59C483.47,-47.93 495.71,-36.91 505.89,-27.75"/>
<polygon fill="#63b8ff" stroke="#63b8ff" points="507.95,-30.6 513.04,-21.31 503.27,-25.4 507.95,-30.6"/>
</a>
</g>
</g>
<!-- Node14&#45;&gt;Node9 -->
<g id="edge23_Node000014_Node000009" class="edge">
<title>Node14&#45;&gt;Node9</title>
<g id="a_edge23_Node000014_Node000009"><a xlink:title=" ">
<path fill="none" stroke="#63b8ff" d="M541.92,-111.53C499.7,-104.23 443.43,-92.57 395.5,-76 356.65,-62.57 314.42,-40.54 288.21,-25.91"/>
<polygon fill="#63b8ff" stroke="#63b8ff" points="290.08,-22.95 279.65,-21.07 286.63,-29.04 290.08,-22.95"/>
</a>
</g>
</g>
<!-- Node14&#45;&gt;Node10 -->
<g id="edge16_Node000014_Node000010" class="edge">
<title>Node14&#45;&gt;Node10</title>
<g id="a_edge16_Node000014_Node000010"><a xlink:title=" ">
<path fill="none" stroke="#63b8ff" d="M580.94,-111.59C558.53,-103.01 525.16,-90.23 499.88,-80.55"/>
<polygon fill="#63b8ff" stroke="#63b8ff" points="501.26,-77.33 490.67,-77.02 498.75,-83.87 501.26,-77.33"/>
</a>
</g>
</g>
<!-- Node14&#45;&gt;Node15 -->
<g id="edge17_Node000014_Node000015" class="edge">
<title>Node14&#45;&gt;Node15</title>
<g id="a_edge17_Node000014_Node000015"><a xlink:title=" ">
<path fill="none" stroke="#63b8ff" d="M610.9,-111.59C614.94,-104.55 620.62,-94.67 625.59,-86"/>
<polygon fill="#63b8ff" stroke="#63b8ff" points="628.47,-88.03 630.41,-77.61 622.39,-84.54 628.47,-88.03"/>
</a>
</g>
</g>
<!-- Node14&#45;&gt;Node16 -->
<g id="edge19_Node000014_Node000016" class="edge">
<title>Node14&#45;&gt;Node16</title>
<g id="a_edge19_Node000014_Node000016"><a xlink:title=" ">
<path fill="none" stroke="#63b8ff" d="M632.32,-111.59C657.13,-102.9 694.23,-89.89 721.97,-80.16"/>
<polygon fill="#63b8ff" stroke="#63b8ff" points="722.76,-83.59 731.04,-76.98 720.44,-76.99 722.76,-83.59"/>
</a>
</g>
</g>
<!-- Node14&#45;&gt;Node17 -->
<g id="edge21_Node000014_Node000017" class="edge">
<title>Node14&#45;&gt;Node17</title>
<g id="a_edge21_Node000014_Node000017"><a xlink:title=" ">
<path fill="none" stroke="#63b8ff" d="M653.89,-111.53C700.75,-102.36 771.89,-88.45 822.14,-78.61"/>
<polygon fill="#63b8ff" stroke="#63b8ff" points="822.54,-82.1 831.68,-76.75 821.19,-75.23 822.54,-82.1"/>
</a>
</g>
</g>
<!-- Node15&#45;&gt;Node7 -->
<g id="edge18_Node000015_Node000007" class="edge">
<title>Node15&#45;&gt;Node7</title>
<g id="a_edge18_Node000015_Node000007"><a xlink:title=" ">
<path fill="none" stroke="#63b8ff" d="M647.13,-55.59C655.78,-47.93 668.23,-36.91 678.58,-27.75"/>
<polygon fill="#63b8ff" stroke="#63b8ff" points="680.7,-30.55 685.86,-21.3 676.06,-25.31 680.7,-30.55"/>
</a>
</g>
</g>
<!-- Node16&#45;&gt;Node7 -->
<g id="edge20_Node000016_Node000007" class="edge">
<title>Node16&#45;&gt;Node7</title>
<g id="a_edge20_Node000016_Node000007"><a xlink:title=" ">
<path fill="none" stroke="#63b8ff" d="M748.7,-55.59C739.9,-47.93 727.25,-36.91 716.73,-27.75"/>
<polygon fill="#63b8ff" stroke="#63b8ff" points="719.16,-25.22 709.32,-21.29 714.56,-30.5 719.16,-25.22"/>
</a>
</g>
</g>
<!-- Node17&#45;&gt;Node7 -->
<g id="edge22_Node000017_Node000007" class="edge">
<title>Node17&#45;&gt;Node7</title>
<g id="a_edge22_Node000017_Node000007"><a xlink:title=" ">
<path fill="none" stroke="#63b8ff" d="M849.45,-55.59C815.56,-45.65 762.43,-30.06 728.82,-20.19"/>
<polygon fill="#63b8ff" stroke="#63b8ff" points="729.84,-16.84 719.26,-17.39 727.87,-23.56 729.84,-16.84"/>
</a>
</g>
</g>
<!-- Node18&#45;&gt;Node3 -->
<g id="edge29_Node000018_Node000003" class="edge">
<title>Node18&#45;&gt;Node3</title>
<g id="a_edge29_Node000018_Node000003"><a xlink:title=" ">
<path fill="none" stroke="#63b8ff" d="M238.33,-111.59C217.29,-103.05 186,-90.35 162.2,-80.68"/>
<polygon fill="#63b8ff" stroke="#63b8ff" points="163.83,-77.57 153.25,-77.05 161.2,-84.05 163.83,-77.57"/>
</a>
</g>
</g>
<!-- Node18&#45;&gt;Node6 -->
<g id="edge28_Node000018_Node000006" class="edge">
<title>Node18&#45;&gt;Node6</title>
<g id="a_edge28_Node000018_Node000006"><a xlink:title=" ">
<path fill="none" stroke="#63b8ff" d="M251.57,-111.59C243.56,-104.01 232.08,-93.13 222.47,-84.02"/>
<polygon fill="#63b8ff" stroke="#63b8ff" points="225.08,-81.68 215.41,-77.34 220.27,-86.76 225.08,-81.68"/>
</a>
</g>
</g>
<!-- Node18&#45;&gt;Node9 -->
<g id="edge27_Node000018_Node000009" class="edge">
<title>Node18&#45;&gt;Node9</title>
<g id="a_edge27_Node000018_Node000009"><a xlink:title=" ">
<path fill="none" stroke="#63b8ff" d="M261.59,-111.62C261.75,-94.01 262.09,-55.59 262.31,-31.65"/>
<polygon fill="#63b8ff" stroke="#63b8ff" points="265.81,-31.9 262.4,-21.87 258.81,-31.84 265.81,-31.9"/>
</a>
</g>
</g>
<!-- Node18&#45;&gt;Node10 -->
<g id="edge25_Node000018_Node000010" class="edge">
<title>Node18&#45;&gt;Node10</title>
<g id="a_edge25_Node000018_Node000010"><a xlink:title=" ">
<path fill="none" stroke="#63b8ff" d="M296.86,-111.59C330.42,-102.67 381.07,-89.19 417.91,-79.39"/>
<polygon fill="#63b8ff" stroke="#63b8ff" points="418.64,-82.82 427.4,-76.87 416.84,-76.06 418.64,-82.82"/>
</a>
</g>
</g>
<!-- Node18&#45;&gt;Node11 -->
<g id="edge26_Node000018_Node000011" class="edge">
<title>Node18&#45;&gt;Node11</title>
<g id="a_edge26_Node000018_Node000011"><a xlink:title=" ">
<path fill="none" stroke="#63b8ff" d="M267.04,-111.62C277.69,-93.6 301.2,-53.81 315.26,-30.02"/>
<polygon fill="#63b8ff" stroke="#63b8ff" points="318.13,-32.05 320.2,-21.66 312.1,-28.49 318.13,-32.05"/>
</a>
</g>
</g>
</g>
</svg>
