<?xml version="1.0" encoding="UTF-8" standalone="no"?>
<!DOCTYPE svg PUBLIC "-//W3C//DTD SVG 1.1//EN"
 "http://www.w3.org/Graphics/SVG/1.1/DTD/svg11.dtd">
<!-- Generated by graphviz version 12.2.1 (0)
 -->
<!-- Title: models/Parameters.h Pages: 1 -->
<svg width="789pt" height="140pt"
 viewBox="0.00 0.00 788.50 140.00" xmlns="http://www.w3.org/2000/svg" xmlns:xlink="http://www.w3.org/1999/xlink">
<g id="graph0" class="graph" transform="scale(1 1) rotate(0) translate(4 136)">
<title>models/Parameters.h</title>
<!-- Node1 -->
<g id="Node000001" class="node">
<title>Node1</title>
<g id="a_Node000001"><a xlink:title=" ">
<polygon fill="#999999" stroke="#666666" points="471.12,-132 362.12,-132 362.12,-112 471.12,-112 471.12,-132"/>
<text text-anchor="middle" x="416.62" y="-118.5" font-family="Helvetica,sans-Serif" font-size="10.00">models/Parameters.h</text>
</a>
</g>
</g>
<!-- Node2 -->
<g id="Node000002" class="node">
<title>Node2</title>
<g id="a_Node000002"><a xlink:href="GraphBuilder_8h.html" target="_top" xlink:title=" ">
<polygon fill="white" stroke="#666666" points="328.75,-76 178.5,-76 178.5,-56 328.75,-56 328.75,-76"/>
<text text-anchor="middle" x="253.62" y="-62.5" font-family="Helvetica,sans-Serif" font-size="10.00">data_structures/GraphBuilder.h</text>
</a>
</g>
</g>
<!-- Node1&#45;&gt;Node2 -->
<g id="edge1_Node000001_Node000002" class="edge">
<title>Node1&#45;&gt;Node2</title>
<g id="a_edge1_Node000001_Node000002"><a xlink:title=" ">
<path fill="none" stroke="#63b8ff" d="M377.53,-108.05C348.19,-98.33 308.68,-85.24 282.24,-76.48"/>
<polygon fill="#63b8ff" stroke="#63b8ff" points="376.2,-111.3 386.8,-111.12 378.4,-104.65 376.2,-111.3"/>
</a>
</g>
</g>
<!-- Node5 -->
<g id="Node000005" class="node">
<title>Node5</title>
<g id="a_Node000005"><a xlink:href="maxflow__tests_8cpp.html" target="_top" xlink:title=" ">
<polygon fill="white" stroke="#666666" points="123.25,-20 0,-20 0,0 123.25,0 123.25,-20"/>
<text text-anchor="middle" x="61.62" y="-6.5" font-family="Helvetica,sans-Serif" font-size="10.00">tests/maxflow_tests.cpp</text>
</a>
</g>
</g>
<!-- Node1&#45;&gt;Node5 -->
<g id="edge12_Node000001_Node000005" class="edge">
<title>Node1&#45;&gt;Node5</title>
<g id="a_edge12_Node000001_Node000005"><a xlink:title=" ">
<path fill="none" stroke="#63b8ff" d="M350.48,-115.49C299.72,-109.73 228.58,-98.26 169.62,-76 132.16,-61.85 93.07,-34.72 73.82,-20.39"/>
<polygon fill="#63b8ff" stroke="#63b8ff" points="349.81,-118.94 360.13,-116.54 350.56,-111.98 349.81,-118.94"/>
</a>
</g>
</g>
<!-- Node7 -->
<g id="Node000007" class="node">
<title>Node7</title>
<g id="a_Node000007"><a xlink:href="FileParser_8h.html" target="_top" xlink:title="Class definition for parsing input CSV files.">
<polygon fill="white" stroke="#666666" points="582.75,-76 504.5,-76 504.5,-56 582.75,-56 582.75,-76"/>
<text text-anchor="middle" x="543.62" y="-62.5" font-family="Helvetica,sans-Serif" font-size="10.00">io/FileParser.h</text>
</a>
</g>
</g>
<!-- Node1&#45;&gt;Node7 -->
<g id="edge6_Node000001_Node000007" class="edge">
<title>Node1&#45;&gt;Node7</title>
<g id="a_edge6_Node000001_Node000007"><a xlink:title=" ">
<path fill="none" stroke="#63b8ff" d="M449.22,-107.14C471.84,-97.52 501.37,-84.97 521.33,-76.48"/>
<polygon fill="#63b8ff" stroke="#63b8ff" points="447.97,-103.87 440.14,-111 450.71,-110.31 447.97,-103.87"/>
</a>
</g>
</g>
<!-- Node9 -->
<g id="Node000009" class="node">
<title>Node9</title>
<g id="a_Node000009"><a xlink:href="AssignmentLogic_8h.html" target="_top" xlink:title="Logic for assigning reviewers to submissions based on Max Flow.">
<polygon fill="white" stroke="#666666" points="486.12,-76 347.12,-76 347.12,-56 486.12,-56 486.12,-76"/>
<text text-anchor="middle" x="416.62" y="-62.5" font-family="Helvetica,sans-Serif" font-size="10.00">services/AssignmentLogic.h</text>
</a>
</g>
</g>
<!-- Node1&#45;&gt;Node9 -->
<g id="edge9_Node000001_Node000009" class="edge">
<title>Node1&#45;&gt;Node9</title>
<g id="a_edge9_Node000001_Node000009"><a xlink:title=" ">
<path fill="none" stroke="#63b8ff" d="M416.62,-100.13C416.62,-91.9 416.62,-82.85 416.62,-76.3"/>
<polygon fill="#63b8ff" stroke="#63b8ff" points="413.13,-100.08 416.63,-110.08 420.13,-100.08 413.13,-100.08"/>
</a>
</g>
</g>
<!-- Node10 -->
<g id="Node000010" class="node">
<title>Node10</title>
<g id="a_Node000010"><a xlink:href="ConferenceApp_8h.html" target="_top" xlink:title=" ">
<polygon fill="white" stroke="#666666" points="702.75,-76 600.5,-76 600.5,-56 702.75,-56 702.75,-76"/>
<text text-anchor="middle" x="651.62" y="-62.5" font-family="Helvetica,sans-Serif" font-size="10.00">ui/ConferenceApp.h</text>
</a>
</g>
</g>
<!-- Node1&#45;&gt;Node10 -->
<g id="edge13_Node000001_Node000010" class="edge">
<title>Node1&#45;&gt;Node10</title>
<g id="a_edge13_Node000001_Node000010"><a xlink:title=" ">
<path fill="none" stroke="#63b8ff" d="M468.84,-109C511.54,-99.19 571.09,-85.51 610.47,-76.46"/>
<polygon fill="#63b8ff" stroke="#63b8ff" points="468.27,-105.54 459.3,-111.19 469.83,-112.36 468.27,-105.54"/>
</a>
</g>
</g>
<!-- Node3 -->
<g id="Node000003" class="node">
<title>Node3</title>
<g id="a_Node000003"><a xlink:href="GraphBuilder_8cpp.html" target="_top" xlink:title=" ">
<polygon fill="white" stroke="#666666" points="302,-20 141.25,-20 141.25,0 302,0 302,-20"/>
<text text-anchor="middle" x="221.62" y="-6.5" font-family="Helvetica,sans-Serif" font-size="10.00">data_structures/GraphBuilder.cpp</text>
</a>
</g>
</g>
<!-- Node2&#45;&gt;Node3 -->
<g id="edge2_Node000002_Node000003" class="edge">
<title>Node2&#45;&gt;Node3</title>
<g id="a_edge2_Node000002_Node000003"><a xlink:title=" ">
<path fill="none" stroke="#63b8ff" d="M242.29,-45.87C237.14,-37.19 231.29,-27.32 227.14,-20.3"/>
<polygon fill="#63b8ff" stroke="#63b8ff" points="239.17,-47.47 247.28,-54.29 245.19,-43.9 239.17,-47.47"/>
</a>
</g>
</g>
<!-- Node4 -->
<g id="Node000004" class="node">
<title>Node4</title>
<g id="a_Node000004"><a xlink:href="AssignmentLogic_8cpp.html" target="_top" xlink:title=" ">
<polygon fill="white" stroke="#666666" points="469.38,-20 319.88,-20 319.88,0 469.38,0 469.38,-20"/>
<text text-anchor="middle" x="394.62" y="-6.5" font-family="Helvetica,sans-Serif" font-size="10.00">services/AssignmentLogic.cpp</text>
</a>
</g>
</g>
<!-- Node2&#45;&gt;Node4 -->
<g id="edge3_Node000002_Node000004" class="edge">
<title>Node2&#45;&gt;Node4</title>
<g id="a_edge3_Node000002_Node000004"><a xlink:title=" ">
<path fill="none" stroke="#63b8ff" d="M288.79,-51.53C314.03,-41.87 347.4,-29.08 369.87,-20.48"/>
<polygon fill="#63b8ff" stroke="#63b8ff" points="287.69,-48.21 279.6,-55.05 290.19,-54.74 287.69,-48.21"/>
</a>
</g>
</g>
<!-- Node2&#45;&gt;Node5 -->
<g id="edge4_Node000002_Node000005" class="edge">
<title>Node2&#45;&gt;Node5</title>
<g id="a_edge4_Node000002_Node000005"><a xlink:title=" ">
<path fill="none" stroke="#63b8ff" d="M209.39,-52.56C174.66,-42.79 127.02,-29.39 95.33,-20.48"/>
<polygon fill="#63b8ff" stroke="#63b8ff" points="208.15,-55.85 218.72,-55.18 210.05,-49.11 208.15,-55.85"/>
</a>
</g>
</g>
<!-- Node6 -->
<g id="Node000006" class="node">
<title>Node6</title>
<g id="a_Node000006"><a xlink:href="ConferenceApp_8cpp.html" target="_top" xlink:title=" ">
<polygon fill="white" stroke="#666666" points="600,-20 487.25,-20 487.25,0 600,0 600,-20"/>
<text text-anchor="middle" x="543.62" y="-6.5" font-family="Helvetica,sans-Serif" font-size="10.00">ui/ConferenceApp.cpp</text>
</a>
</g>
</g>
<!-- Node2&#45;&gt;Node6 -->
<g id="edge5_Node000002_Node000006" class="edge">
<title>Node2&#45;&gt;Node6</title>
<g id="a_edge5_Node000002_Node000006"><a xlink:title=" ">
<path fill="none" stroke="#63b8ff" d="M315.73,-53.44C368.57,-43.6 443.52,-29.64 492.84,-20.46"/>
<polygon fill="#63b8ff" stroke="#63b8ff" points="315.15,-49.98 305.96,-55.26 316.43,-56.87 315.15,-49.98"/>
</a>
</g>
</g>
<!-- Node7&#45;&gt;Node6 -->
<g id="edge8_Node000007_Node000006" class="edge">
<title>Node7&#45;&gt;Node6</title>
<g id="a_edge8_Node000007_Node000006"><a xlink:title=" ">
<path fill="none" stroke="#63b8ff" d="M543.62,-44.13C543.62,-35.9 543.62,-26.85 543.62,-20.3"/>
<polygon fill="#63b8ff" stroke="#63b8ff" points="540.13,-44.08 543.63,-54.08 547.13,-44.08 540.13,-44.08"/>
</a>
</g>
</g>
<!-- Node8 -->
<g id="Node000008" class="node">
<title>Node8</title>
<g id="a_Node000008"><a xlink:href="FileParser_8cpp.html" target="_top" xlink:title=" ">
<polygon fill="white" stroke="#666666" points="707,-20 618.25,-20 618.25,0 707,0 707,-20"/>
<text text-anchor="middle" x="662.62" y="-6.5" font-family="Helvetica,sans-Serif" font-size="10.00">io/FileParser.cpp</text>
</a>
</g>
</g>
<!-- Node7&#45;&gt;Node8 -->
<g id="edge7_Node000007_Node000008" class="edge">
<title>Node7&#45;&gt;Node8</title>
<g id="a_edge7_Node000007_Node000008"><a xlink:title=" ">
<path fill="none" stroke="#63b8ff" d="M574.75,-50.88C595.86,-41.3 623.2,-28.89 641.74,-20.48"/>
<polygon fill="#63b8ff" stroke="#63b8ff" points="573.39,-47.65 565.73,-54.97 576.28,-54.02 573.39,-47.65"/>
</a>
</g>
</g>
<!-- Node9&#45;&gt;Node4 -->
<g id="edge10_Node000009_Node000004" class="edge">
<title>Node9&#45;&gt;Node4</title>
<g id="a_edge10_Node000009_Node000004"><a xlink:title=" ">
<path fill="none" stroke="#63b8ff" d="M408.48,-45C405.03,-36.54 401.18,-27.08 398.41,-20.3"/>
<polygon fill="#63b8ff" stroke="#63b8ff" points="405.21,-46.25 412.22,-54.19 411.69,-43.61 405.21,-46.25"/>
</a>
</g>
</g>
<!-- Node9&#45;&gt;Node6 -->
<g id="edge11_Node000009_Node000006" class="edge">
<title>Node9&#45;&gt;Node6</title>
<g id="a_edge11_Node000009_Node000006"><a xlink:title=" ">
<path fill="none" stroke="#63b8ff" d="M449.22,-51.14C471.84,-41.52 501.37,-28.97 521.33,-20.48"/>
<polygon fill="#63b8ff" stroke="#63b8ff" points="447.97,-47.87 440.14,-55 450.71,-54.31 447.97,-47.87"/>
</a>
</g>
</g>
<!-- Node10&#45;&gt;Node6 -->
<g id="edge15_Node000010_Node000006" class="edge">
<title>Node10&#45;&gt;Node6</title>
<g id="a_edge15_Node000010_Node000006"><a xlink:title=" ">
<path fill="none" stroke="#63b8ff" d="M622.59,-50.48C603.54,-40.96 579.18,-28.78 562.58,-20.48"/>
<polygon fill="#63b8ff" stroke="#63b8ff" points="620.95,-53.58 631.46,-54.92 624.08,-47.31 620.95,-53.58"/>
</a>
</g>
</g>
<!-- Node11 -->
<g id="Node000011" class="node">
<title>Node11</title>
<g id="a_Node000011"><a xlink:href="main_8cpp.html" target="_top" xlink:title=" ">
<polygon fill="white" stroke="#666666" points="780.5,-20 724.75,-20 724.75,0 780.5,0 780.5,-20"/>
<text text-anchor="middle" x="752.62" y="-6.5" font-family="Helvetica,sans-Serif" font-size="10.00">main.cpp</text>
</a>
</g>
</g>
<!-- Node10&#45;&gt;Node11 -->
<g id="edge14_Node000010_Node000011" class="edge">
<title>Node10&#45;&gt;Node11</title>
<g id="a_edge14_Node000010_Node000011"><a xlink:title=" ">
<path fill="none" stroke="#63b8ff" d="M679.03,-50.35C696.81,-40.84 719.45,-28.74 734.89,-20.48"/>
<polygon fill="#63b8ff" stroke="#63b8ff" points="677.72,-47.08 670.55,-54.88 681.02,-53.25 677.72,-47.08"/>
</a>
</g>
</g>
</g>
</svg>
