<?xml version="1.0" encoding="UTF-8" standalone="no"?>
<!DOCTYPE svg PUBLIC "-//W3C//DTD SVG 1.1//EN"
 "http://www.w3.org/Graphics/SVG/1.1/DTD/svg11.dtd">
<!-- Generated by graphviz version 12.2.1 (0)
 -->
<!-- Title: models/Reviewer.cpp Pages: 1 -->
<svg width="178pt" height="140pt"
 viewBox="0.00 0.00 178.38 140.00" xmlns="http://www.w3.org/2000/svg" xmlns:xlink="http://www.w3.org/1999/xlink">
<g id="graph0" class="graph" transform="scale(1 1) rotate(0) translate(4 136)">
<title>models/Reviewer.cpp</title>
<!-- Node1 -->
<g id="Node000001" class="node">
<title>Node1</title>
<g id="a_Node000001"><a xlink:title=" ">
<polygon fill="#999999" stroke="#666666" points="151.5,-132 41.75,-132 41.75,-112 151.5,-112 151.5,-132"/>
<text text-anchor="middle" x="96.62" y="-118.5" font-family="Helvetica,sans-Serif" font-size="10.00">models/Reviewer.cpp</text>
</a>
</g>
</g>
<!-- Node2 -->
<g id="Node000002" class="node">
<title>Node2</title>
<g id="a_Node000002"><a xlink:href="Reviewer_8h.html" target="_top" xlink:title=" ">
<polygon fill="white" stroke="#666666" points="99.25,-76 0,-76 0,-56 99.25,-56 99.25,-76"/>
<text text-anchor="middle" x="49.62" y="-62.5" font-family="Helvetica,sans-Serif" font-size="10.00">models/Reviewer.h</text>
</a>
</g>
</g>
<!-- Node1&#45;&gt;Node2 -->
<g id="edge1_Node000001_Node000002" class="edge">
<title>Node1&#45;&gt;Node2</title>
<g id="a_edge1_Node000001_Node000002"><a xlink:title=" ">
<path fill="none" stroke="#63b8ff" d="M88.44,-111.59C82.04,-104.24 72.95,-93.8 65.17,-84.87"/>
<polygon fill="#63b8ff" stroke="#63b8ff" points="67.92,-82.69 58.71,-77.44 62.64,-87.28 67.92,-82.69"/>
</a>
</g>
</g>
<!-- Node4 -->
<g id="Node000004" class="node">
<title>Node4</title>
<g id="a_Node000004"><a xlink:title=" ">
<polygon fill="#e0e0e0" stroke="#999999" points="170.38,-76 116.88,-76 116.88,-56 170.38,-56 170.38,-76"/>
<text text-anchor="middle" x="143.62" y="-62.5" font-family="Helvetica,sans-Serif" font-size="10.00">iostream</text>
</a>
</g>
</g>
<!-- Node1&#45;&gt;Node4 -->
<g id="edge3_Node000001_Node000004" class="edge">
<title>Node1&#45;&gt;Node4</title>
<g id="a_edge3_Node000001_Node000004"><a xlink:title=" ">
<path fill="none" stroke="#63b8ff" d="M104.81,-111.59C111.21,-104.24 120.3,-93.8 128.08,-84.87"/>
<polygon fill="#63b8ff" stroke="#63b8ff" points="130.61,-87.28 134.54,-77.44 125.33,-82.69 130.61,-87.28"/>
</a>
</g>
</g>
<!-- Node3 -->
<g id="Node000003" class="node">
<title>Node3</title>
<g id="a_Node000003"><a xlink:title=" ">
<polygon fill="#e0e0e0" stroke="#999999" points="69.62,-20 29.62,-20 29.62,0 69.62,0 69.62,-20"/>
<text text-anchor="middle" x="49.62" y="-6.5" font-family="Helvetica,sans-Serif" font-size="10.00">string</text>
</a>
</g>
</g>
<!-- Node2&#45;&gt;Node3 -->
<g id="edge2_Node000002_Node000003" class="edge">
<title>Node2&#45;&gt;Node3</title>
<g id="a_edge2_Node000002_Node000003"><a xlink:title=" ">
<path fill="none" stroke="#63b8ff" d="M49.62,-55.59C49.62,-49.01 49.62,-39.96 49.62,-31.73"/>
<polygon fill="#63b8ff" stroke="#63b8ff" points="53.13,-31.81 49.63,-21.81 46.13,-31.81 53.13,-31.81"/>
</a>
</g>
</g>
</g>
</svg>
