<?xml version="1.0" encoding="UTF-8" standalone="no"?>
<!DOCTYPE svg PUBLIC "-//W3C//DTD SVG 1.1//EN"
 "http://www.w3.org/Graphics/SVG/1.1/DTD/svg11.dtd">
<!-- Generated by graphviz version 12.2.1 (0)
 -->
<!-- Title: models/Submission.cpp Pages: 1 -->
<svg width="190pt" height="140pt"
 viewBox="0.00 0.00 189.62 140.00" xmlns="http://www.w3.org/2000/svg" xmlns:xlink="http://www.w3.org/1999/xlink">
<g id="graph0" class="graph" transform="scale(1 1) rotate(0) translate(4 136)">
<title>models/Submission.cpp</title>
<!-- Node1 -->
<g id="Node000001" class="node">
<title>Node1</title>
<g id="a_Node000001"><a xlink:title=" ">
<polygon fill="#999999" stroke="#666666" points="165,-132 44.75,-132 44.75,-112 165,-112 165,-132"/>
<text text-anchor="middle" x="104.88" y="-118.5" font-family="Helvetica,sans-Serif" font-size="10.00">models/Submission.cpp</text>
</a>
</g>
</g>
<!-- Node2 -->
<g id="Node000002" class="node">
<title>Node2</title>
<g id="a_Node000002"><a xlink:href="Submission_8h.html" target="_top" xlink:title=" ">
<polygon fill="white" stroke="#666666" points="109.75,-76 0,-76 0,-56 109.75,-56 109.75,-76"/>
<text text-anchor="middle" x="54.88" y="-62.5" font-family="Helvetica,sans-Serif" font-size="10.00">models/Submission.h</text>
</a>
</g>
</g>
<!-- Node1&#45;&gt;Node2 -->
<g id="edge1_Node000001_Node000002" class="edge">
<title>Node1&#45;&gt;Node2</title>
<g id="a_edge1_Node000001_Node000002"><a xlink:title=" ">
<path fill="none" stroke="#63b8ff" d="M96.17,-111.59C89.28,-104.16 79.48,-93.58 71.16,-84.58"/>
<polygon fill="#63b8ff" stroke="#63b8ff" points="73.88,-82.37 64.51,-77.41 68.74,-87.12 73.88,-82.37"/>
</a>
</g>
</g>
<!-- Node4 -->
<g id="Node000004" class="node">
<title>Node4</title>
<g id="a_Node000004"><a xlink:title=" ">
<polygon fill="#e0e0e0" stroke="#999999" points="181.62,-76 128.12,-76 128.12,-56 181.62,-56 181.62,-76"/>
<text text-anchor="middle" x="154.88" y="-62.5" font-family="Helvetica,sans-Serif" font-size="10.00">iostream</text>
</a>
</g>
</g>
<!-- Node1&#45;&gt;Node4 -->
<g id="edge3_Node000001_Node000004" class="edge">
<title>Node1&#45;&gt;Node4</title>
<g id="a_edge3_Node000001_Node000004"><a xlink:title=" ">
<path fill="none" stroke="#63b8ff" d="M113.58,-111.59C120.47,-104.16 130.27,-93.58 138.59,-84.58"/>
<polygon fill="#63b8ff" stroke="#63b8ff" points="141.01,-87.12 145.24,-77.41 135.87,-82.37 141.01,-87.12"/>
</a>
</g>
</g>
<!-- Node3 -->
<g id="Node000003" class="node">
<title>Node3</title>
<g id="a_Node000003"><a xlink:title=" ">
<polygon fill="#e0e0e0" stroke="#999999" points="74.88,-20 34.88,-20 34.88,0 74.88,0 74.88,-20"/>
<text text-anchor="middle" x="54.88" y="-6.5" font-family="Helvetica,sans-Serif" font-size="10.00">string</text>
</a>
</g>
</g>
<!-- Node2&#45;&gt;Node3 -->
<g id="edge2_Node000002_Node000003" class="edge">
<title>Node2&#45;&gt;Node3</title>
<g id="a_edge2_Node000002_Node000003"><a xlink:title=" ">
<path fill="none" stroke="#63b8ff" d="M54.88,-55.59C54.88,-49.01 54.88,-39.96 54.88,-31.73"/>
<polygon fill="#63b8ff" stroke="#63b8ff" points="58.38,-31.81 54.88,-21.81 51.38,-31.81 58.38,-31.81"/>
</a>
</g>
</g>
</g>
</svg>
